<svg width="24" height="24" viewBox="0 0 24 24" fill="none" xmlns="http://www.w3.org/2000/svg">
<path d="M19.2941 10.3768L13.5529 2.48142C13.3801 2.25107 13.1574 2.06271 12.9016 1.93036C12.6907 1.82045 12.458 1.75883 12.2203 1.75H11.9197C11.6823 1.76013 11.4498 1.82167 11.2384 1.93036C10.978 2.05993 10.7515 2.24864 10.5771 2.48142L4.83596 10.3768C4.49025 10.8473 4.30413 11.4161 4.30489 12C4.29992 12.06 4.29992 12.1203 4.30489 12.1804C4.29517 12.23 4.29517 12.281 4.30489 12.3306C4.29486 12.3769 4.29486 12.4247 4.30489 12.4709C4.36228 12.8838 4.52061 13.2761 4.76581 13.6131L10.517 21.5085C10.6874 21.7438 10.9104 21.9359 11.1683 22.0696C11.3829 22.1695 11.6136 22.2306 11.8496 22.25H12.1502C12.4125 22.2293 12.6673 22.1523 12.8972 22.0244C13.1272 21.8965 13.3269 21.7205 13.4828 21.5085L19.224 13.6232C19.4726 13.2758 19.6341 12.8737 19.6948 12.4509C19.7008 12.4279 19.7008 12.4037 19.6948 12.3807C19.7044 12.321 19.7044 12.2601 19.6948 12.2004C19.7047 12.134 19.7047 12.0664 19.6948 12C19.7333 11.4304 19.5932 10.8631 19.2941 10.3768ZM18.0817 12.7414L17.3803 13.7434L12.8215 15.6271V20.0056L12.3305 20.6769C12.306 20.7195 12.2668 20.7515 12.2203 20.7671C12.1722 20.7917 12.119 20.8046 12.065 20.8046C12.011 20.8046 11.9578 20.7917 11.9097 20.7671C11.8647 20.7489 11.8263 20.7174 11.7995 20.6769L11.3185 20.0156V15.6271L6.74966 13.7434L6.04828 12.7414C5.89002 12.5268 5.80565 12.2666 5.80782 12C5.79271 11.9004 5.79271 11.799 5.80782 11.6994L11.2785 13.9638V4.02444L11.7494 3.37316C11.7795 3.32939 11.8211 3.29475 11.8696 3.27298C11.9225 3.26245 11.977 3.26245 12.0299 3.27298C12.0796 3.2635 12.1305 3.2635 12.1802 3.27298C12.2274 3.29257 12.2665 3.32799 12.2905 3.37316L12.7814 4.04448V13.9638L18.2421 11.6994C18.2788 11.7952 18.2959 11.8974 18.2921 12C18.3024 12.2632 18.2287 12.5228 18.0817 12.7414Z" fill="#1F1F1F"/>
</svg>
