<svg width="24" height="24" viewBox="0 0 24 24" fill="none" xmlns="http://www.w3.org/2000/svg">
<path d="M20.88 7.17496C20.1604 6.45784 19.186 6.05512 18.17 6.05497H13.81C13.6501 6.05561 13.4923 6.01789 13.35 5.94497C13.2057 5.86922 13.0821 5.75936 12.99 5.62496L12.12 4.29496C11.7689 3.76825 11.293 3.33652 10.7347 3.03818C10.1764 2.73984 9.55305 2.58416 8.92004 2.58496H5.83996C4.82326 2.58496 3.84815 2.98816 3.12829 3.70613C2.40844 4.42411 2.00264 5.39827 2 6.41497V17.575C2.00525 18.5918 2.41149 19.5655 3.13049 20.2845C3.84949 21.0035 4.82315 21.4097 5.83996 21.415H18.17C19.1867 21.4123 20.1608 21.0066 20.8788 20.2867C21.5967 19.5669 22 18.5917 22 17.575V9.92496C22.0075 9.41487 21.9121 8.9085 21.7197 8.43604C21.5273 7.96358 21.2417 7.53469 20.88 7.17496ZM16.63 17.045H7.38C7.11478 17.045 6.86038 16.9396 6.67285 16.7521C6.48531 16.5646 6.38 16.3102 6.38 16.045C6.38 15.7798 6.48531 15.5254 6.67285 15.3379C6.86038 15.1503 7.11478 15.045 7.38 15.045H16.63C16.8952 15.045 17.1496 15.1503 17.3371 15.3379C17.5247 15.5254 17.63 15.7798 17.63 16.045C17.63 16.3102 17.5247 16.5646 17.3371 16.7521C17.1496 16.9396 16.8952 17.045 16.63 17.045Z" fill="#1F1F1F"/>
</svg>
