<svg width="24" height="24" viewBox="0 0 24 24" fill="none" xmlns="http://www.w3.org/2000/svg">
<path d="M21.1876 7.76834C20.9424 7.22748 20.5422 6.77156 20.0377 6.45834L13.5676 2.45834C13.0942 2.16631 12.549 2.01166 11.9927 2.01166C11.4364 2.01166 10.8911 2.16631 10.4177 2.45834L3.9477 6.45834C3.4587 6.76803 3.06974 7.21256 2.8277 7.73834C2.5872 8.27054 2.50728 8.86138 2.59772 9.43835L4.2677 19.4384C4.38046 20.1339 4.73449 20.7676 5.2677 21.2283C5.80653 21.684 6.49212 21.9291 7.1977 21.9183H9.73774C9.8366 21.9197 9.93471 21.9012 10.0263 21.864C10.1179 21.8268 10.2011 21.7716 10.271 21.7017C10.3409 21.6317 10.3961 21.5485 10.4333 21.4569C10.4705 21.3653 10.489 21.2672 10.4877 21.1683V17.5183C10.4903 17.3043 10.5765 17.0998 10.7278 16.9485C10.8791 16.7971 11.0837 16.7109 11.2977 16.7083H12.6276C12.8447 16.7104 13.0526 16.7964 13.2077 16.9483C13.3562 17.1007 13.4388 17.3055 13.4376 17.5183V21.2383C13.4402 21.4364 13.5201 21.6257 13.6602 21.7658C13.8003 21.9059 13.9895 21.9858 14.1876 21.9883H16.7777C17.4821 21.9845 18.1627 21.7329 18.7002 21.2776C19.2377 20.8224 19.5979 20.1925 19.7177 19.4984L21.3876 9.49835C21.4972 8.91472 21.4275 8.31158 21.1876 7.76834ZM16.4476 11.8683H7.58771C7.32249 11.8683 7.06816 11.763 6.88062 11.5754C6.69308 11.3879 6.58771 11.1336 6.58771 10.8683C6.58771 10.6031 6.69308 10.3488 6.88062 10.1612C7.06816 9.97369 7.32249 9.86835 7.58771 9.86835H16.4877C16.7529 9.86835 17.0072 9.97369 17.1948 10.1612C17.3823 10.3488 17.4877 10.6031 17.4877 10.8683C17.4877 11.1336 17.3823 11.3879 17.1948 11.5754C17.0072 11.763 16.7529 11.8683 16.4877 11.8683H16.4476Z" fill="#1F1F1F"/>
</svg>
