<svg width="24" height="24" viewBox="0 0 24 24" fill="none" xmlns="http://www.w3.org/2000/svg">
<path d="M19.5 9.28571C19.5 5.53807 16.1421 2.5 12 2.5C7.85786 2.5 4.5 5.53807 4.5 9.28571V14.7143C4.5 18.4619 7.85786 21.5 12 21.5C16.1421 21.5 19.5 18.4619 19.5 14.7143V9.28571Z" stroke="#1F1F1F" stroke-width="1.5" stroke-linecap="round" stroke-linejoin="round"/>
<path d="M13.7427 10.4213C13.7427 9.43511 12.9592 8.63562 11.9927 8.63562C11.0262 8.63562 10.2427 9.43511 10.2427 10.4213V11.8499C10.2427 12.8361 11.0262 13.6356 11.9927 13.6356C12.9592 13.6356 13.7427 12.8361 13.7427 11.8499V10.4213Z" stroke="#1F1F1F" stroke-width="1.5" stroke-linecap="round" stroke-linejoin="round"/>
<path d="M12 8.63562V2.5" stroke="#1F1F1F" stroke-width="1.5" stroke-linecap="round" stroke-linejoin="round"/>
</svg>
