<svg width="24" height="24" viewBox="0 0 24 24" fill="none" xmlns="http://www.w3.org/2000/svg">
<path d="M14.3301 5.12H5.55005C4.60853 5.12 3.70555 5.49401 3.03979 6.15977C2.37404 6.82552 2 7.72848 2 8.67V15.32C2 16.2624 2.37372 17.1664 3.03918 17.8338C3.70465 18.5011 4.60761 18.8773 5.55005 18.88H14.3301C15.2726 18.8773 16.1755 18.5011 16.841 17.8338C17.5064 17.1664 17.88 16.2624 17.88 15.32V8.67999C17.8814 8.21295 17.7905 7.75026 17.6127 7.3184C17.4349 6.88654 17.1737 6.49401 16.8439 6.1633C16.5141 5.83259 16.1223 5.5702 15.691 5.39117C15.2596 5.21215 14.7972 5.11999 14.3301 5.12ZM12.7201 13.36C12.8139 13.453 12.8882 13.5636 12.939 13.6854C12.9898 13.8073 13.0159 13.938 13.0159 14.07C13.0159 14.202 12.9898 14.3327 12.939 14.4546C12.8882 14.5764 12.8139 14.687 12.7201 14.78C12.6267 14.8727 12.5158 14.946 12.394 14.9958C12.2721 15.0455 12.1417 15.0708 12.01 15.07C11.8784 15.0708 11.748 15.0455 11.6261 14.9958C11.5043 14.946 11.3935 14.8727 11.3001 14.78L9.94006 13.42L8.58008 14.78C8.48664 14.8727 8.37574 14.946 8.25391 14.9958C8.13207 15.0455 8.0016 15.0708 7.86999 15.07C7.73839 15.0708 7.60792 15.0455 7.48608 14.9958C7.36425 14.946 7.25347 14.8727 7.16003 14.78C7.0663 14.687 6.99193 14.5764 6.94116 14.4546C6.89039 14.3327 6.86426 14.202 6.86426 14.07C6.86426 13.938 6.89039 13.8073 6.94116 13.6854C6.99193 13.5636 7.0663 13.453 7.16003 13.36L8.52002 12L7.16003 10.64C7.06679 10.5468 6.99284 10.4361 6.94238 10.3142C6.89192 10.1924 6.86597 10.0619 6.86597 9.92999C6.86597 9.79813 6.89192 9.66756 6.94238 9.54574C6.99284 9.42391 7.06679 9.31322 7.16003 9.21999C7.25327 9.12676 7.36402 9.05279 7.48584 9.00233C7.60766 8.95186 7.73813 8.9259 7.86999 8.9259C8.00185 8.9259 8.13245 8.95186 8.25427 9.00233C8.37609 9.05279 8.48684 9.12676 8.58008 9.21999L9.94006 10.58L11.3001 9.21999C11.3933 9.12676 11.5041 9.05279 11.6259 9.00233C11.7477 8.95186 11.8782 8.9259 12.01 8.9259C12.1419 8.9259 12.2725 8.95186 12.3943 9.00233C12.5161 9.05279 12.6269 9.12676 12.7201 9.21999C12.8134 9.31322 12.8873 9.42391 12.9378 9.54574C12.9882 9.66756 13.0142 9.79813 13.0142 9.92999C13.0142 10.0619 12.9882 10.1924 12.9378 10.3142C12.8873 10.4361 12.8134 10.5468 12.7201 10.64L11.36 12L12.7201 13.36Z" fill="#1F1F1F"/>
<path d="M20.2203 15.85H19.6802C19.4813 15.85 19.2905 15.771 19.1498 15.6303C19.0092 15.4897 18.9302 15.2989 18.9302 15.1C18.9302 14.9011 19.0092 14.7103 19.1498 14.5697C19.2905 14.429 19.4813 14.35 19.6802 14.35H20.2203C20.2574 14.3514 20.2944 14.3451 20.329 14.3315C20.3636 14.318 20.395 14.2974 20.4213 14.2711C20.4476 14.2448 20.4682 14.2134 20.4817 14.1788C20.4953 14.1442 20.5016 14.1071 20.5002 14.07V9.95999C20.5013 9.92201 20.4939 9.88426 20.4783 9.8496C20.4627 9.81495 20.4394 9.7843 20.4102 9.75999C20.3599 9.70925 20.2917 9.68048 20.2203 9.67999H19.6802C19.4813 9.67999 19.2905 9.60098 19.1498 9.46033C19.0092 9.31967 18.9302 9.12891 18.9302 8.92999C18.9302 8.73108 19.0092 8.54032 19.1498 8.39967C19.2905 8.25901 19.4813 8.17999 19.6802 8.17999H20.2203C20.6915 8.18262 21.1427 8.371 21.476 8.70425C21.8092 9.03749 21.9975 9.48872 22.0002 9.95999V14.12C22.0002 14.5921 21.8126 15.0448 21.4788 15.3786C21.145 15.7125 20.6923 15.9 20.2203 15.9V15.85Z" fill="#1F1F1F"/>
</svg>
