<svg width="24" height="24" viewBox="0 0 24 24" fill="none" xmlns="http://www.w3.org/2000/svg">
<path d="M22.0238 18.9049C21.8981 19.487 21.5789 20.0094 21.1182 20.3867C20.5799 20.9429 19.9267 21.3748 19.2042 21.6525C18.5796 21.8898 17.9171 22.0118 17.249 22.0126H16.8889C15.3877 21.9587 13.912 21.609 12.5463 20.9836C12.217 20.8292 11.898 20.6749 11.5892 20.5102C9.99591 19.6064 8.53178 18.4918 7.23637 17.1967C5.54122 15.6348 4.14618 13.7759 3.12018 11.7119C2.58553 10.5673 2.2381 9.34432 2.09113 8.08961C1.83556 6.80144 1.97918 5.46594 2.50278 4.26155C2.82997 3.70502 3.22764 3.19313 3.68608 2.73858C3.89487 2.51706 4.14259 2.33567 4.41679 2.20346C4.70435 2.07031 5.01591 1.99681 5.33266 1.98737C5.69417 2.01351 6.0455 2.1189 6.3617 2.29607C6.64769 2.46733 6.89898 2.69074 7.10259 2.95467C7.48334 3.36629 7.9155 3.79849 8.3477 4.24098L9.29446 5.20829C9.66669 5.54852 9.90107 6.01356 9.95307 6.51517V6.61808C9.91435 7.0306 9.7448 7.41999 9.46932 7.72947C9.29438 7.94557 9.09893 8.15137 8.89312 8.36747L8.61526 8.66587C8.49043 8.77834 8.39502 8.91969 8.3374 9.07752C8.28861 9.20564 8.26423 9.34174 8.26542 9.47883C8.42886 9.94214 8.69236 10.3638 9.0372 10.7137C9.5826 11.434 10.0662 12.1132 10.6219 12.7718C11.6073 13.9013 12.7721 14.8608 14.0693 15.6119C14.1857 15.7028 14.3237 15.762 14.4697 15.7836C14.6158 15.8053 14.765 15.7887 14.9027 15.7355C15.2622 15.5201 15.5795 15.2411 15.8392 14.9122C16.2125 14.4599 16.7481 14.1718 17.3313 14.1095C17.6078 14.1093 17.8815 14.1647 18.1361 14.2726C18.3907 14.3804 18.621 14.5385 18.8132 14.7373C19.019 14.9122 19.2351 15.1386 19.4512 15.365C19.6673 15.5914 19.6775 15.612 19.801 15.7252L20.1201 16.0442C20.3156 16.2294 20.4905 16.4043 20.6757 16.6101C21.0081 16.905 21.3209 17.2212 21.6122 17.5569C21.7775 17.7578 21.9032 17.9883 21.9826 18.236C22.0288 18.4558 22.0427 18.6811 22.0238 18.9049Z" fill="#1F1F1F"/>
<path d="M17.8767 8.71736C17.9495 8.78831 18.0073 8.8731 18.0469 8.96677C18.0864 9.06044 18.1068 9.16109 18.1068 9.26275C18.1068 9.36442 18.0864 9.46503 18.0469 9.5587C18.0073 9.65238 17.9495 9.7372 17.8767 9.80815C17.7308 9.95107 17.5354 10.0322 17.3312 10.0345C17.1275 10.0301 16.9329 9.94931 16.7859 9.80815L15.4687 8.48067L14.1412 9.80815C13.9965 9.95268 13.8003 10.0338 13.5958 10.0338C13.3913 10.0338 13.1952 9.95268 13.0505 9.80815C12.9059 9.66344 12.8247 9.46728 12.8247 9.26275C12.8247 9.05823 12.9059 8.86207 13.0505 8.71736L14.3779 7.38988L13.0505 6.0624C12.9142 5.91609 12.8399 5.7226 12.8435 5.52266C12.847 5.32271 12.9279 5.13192 13.0693 4.99052C13.2107 4.84911 13.4015 4.76812 13.6014 4.7646C13.8014 4.76107 13.9949 4.83528 14.1412 4.97161L15.4687 6.29909L16.7859 4.97161C16.9306 4.82708 17.1267 4.74591 17.3312 4.74591C17.5357 4.74591 17.7319 4.82708 17.8767 4.97161C17.9495 5.04256 18.0073 5.12738 18.0469 5.22105C18.0864 5.31472 18.1068 5.41534 18.1068 5.51701C18.1068 5.61867 18.0864 5.71932 18.0469 5.81299C18.0073 5.90666 17.9495 5.99145 17.8767 6.0624L16.5491 7.38988L17.8767 8.71736Z" fill="#1F1F1F"/>
</svg>
