<svg width="24" height="24" viewBox="0 0 24 24" fill="none" xmlns="http://www.w3.org/2000/svg">
<path d="M14.423 4.71033H9.72775C7.12909 4.71033 5.02246 6.81696 5.02246 9.41562V14.1108C5.02246 16.7095 7.12909 18.8161 9.72775 18.8161H14.423C17.0216 18.8161 19.1283 16.7095 19.1283 14.1108V9.41562C19.1283 6.81696 17.0216 4.71033 14.423 4.71033Z" stroke="#1F1F1F" stroke-width="1.5" stroke-linecap="round"/>
<path d="M13.3138 8.04388H10.8378C9.46737 8.04388 8.35645 9.15482 8.35645 10.5252V13.0012C8.35645 14.3717 9.46737 15.4826 10.8378 15.4826H13.3138C14.6842 15.4826 15.7951 14.3717 15.7951 13.0012V10.5252C15.7951 9.15482 14.6842 8.04388 13.3138 8.04388Z" stroke="#1F1F1F" stroke-width="1.5" stroke-linecap="round"/>
<path d="M22 8.74054H19.0781" stroke="#1F1F1F" stroke-width="1.5" stroke-linecap="round"/>
<path d="M5.07305 8.74054H2" stroke="#1F1F1F" stroke-width="1.5" stroke-linecap="round"/>
<path d="M21.9999 15.2494H18.9873" stroke="#1F1F1F" stroke-width="1.5" stroke-linecap="round"/>
<path d="M5.16373 15.2494H2" stroke="#1F1F1F" stroke-width="1.5" stroke-linecap="round"/>
<path d="M15.2593 22V18.7456" stroke="#1F1F1F" stroke-width="1.5" stroke-linecap="round"/>
<path d="M15.2593 4.78086V2" stroke="#1F1F1F" stroke-width="1.5" stroke-linecap="round"/>
<path d="M8.74072 22V18.7154" stroke="#1F1F1F" stroke-width="1.5" stroke-linecap="round"/>
<path d="M8.74072 4.81108V2" stroke="#1F1F1F" stroke-width="1.5" stroke-linecap="round"/>
</svg>
