<svg width="24" height="24" viewBox="0 0 24 24" fill="none" xmlns="http://www.w3.org/2000/svg">
<path d="M21.7349 10.82V5.11004C21.7363 4.86016 21.688 4.61249 21.593 4.38137C21.498 4.15026 21.3581 3.94027 21.1814 3.76358C21.0047 3.58688 20.7947 3.44697 20.5636 3.35196C20.3325 3.25694 20.0848 3.20872 19.8349 3.21005H4.15497C3.90547 3.20875 3.65825 3.25764 3.42804 3.35385C3.19783 3.45005 2.98932 3.5916 2.81494 3.77005C2.63785 3.94544 2.49723 4.15412 2.40113 4.38409C2.30502 4.61406 2.25532 4.86079 2.25495 5.11004V10.83C2.25626 11.2473 2.39708 11.6521 2.65497 11.98C2.39284 12.3057 2.25148 12.712 2.25495 13.13V18.89C2.25495 19.394 2.45515 19.8772 2.81146 20.2335C3.16778 20.5899 3.65106 20.79 4.15497 20.79H19.8349C20.3398 20.79 20.8241 20.5902 21.182 20.2342C21.5399 19.8781 21.7423 19.3949 21.745 18.89V13.13C21.4788 12.7982 21.3337 12.3855 21.3337 11.96C21.3337 11.5346 21.4788 11.1219 21.745 10.79L21.7349 10.82ZM17.5349 17.04H14.5349C14.2697 17.04 14.0154 16.9347 13.8278 16.7472C13.6403 16.5596 13.5349 16.3053 13.5349 16.04C13.5349 15.7748 13.6403 15.5205 13.8278 15.3329C14.0154 15.1454 14.2697 15.04 14.5349 15.04H17.5349C17.8002 15.04 18.0545 15.1454 18.242 15.3329C18.4296 15.5205 18.5349 15.7748 18.5349 16.04C18.5349 16.3053 18.4296 16.5596 18.242 16.7472C18.0545 16.9347 17.8002 17.04 17.5349 17.04ZM17.5349 8.98004H14.5349C14.2697 8.98004 14.0154 8.8747 13.8278 8.68716C13.6403 8.49962 13.5349 8.24525 13.5349 7.98004C13.5349 7.71482 13.6403 7.46048 13.8278 7.27295C14.0154 7.08541 14.2697 6.98004 14.5349 6.98004H17.5349C17.8002 6.98004 18.0545 7.08541 18.242 7.27295C18.4296 7.46048 18.5349 7.71482 18.5349 7.98004C18.5349 8.24525 18.4296 8.49962 18.242 8.68716C18.0545 8.8747 17.8002 8.98004 17.5349 8.98004Z" fill="#1F1F1F"/>
</svg>
