<svg width="24" height="24" viewBox="0 0 24 24" fill="none" xmlns="http://www.w3.org/2000/svg">
<path d="M20.9452 8.80371V11.0137C20.9452 11.2126 20.8662 11.4034 20.7255 11.5441C20.5849 11.6847 20.3941 11.7637 20.1952 11.7637C19.9963 11.7637 19.8055 11.6847 19.6649 11.5441C19.5242 11.4034 19.4452 11.2126 19.4452 11.0137V8.80371C19.4516 8.54434 19.4074 8.2862 19.3152 8.0437L12.0152 12.4237V20.6137C12.1302 20.5799 12.2409 20.5329 12.3452 20.4737L14.8752 19.0737C15.047 18.9832 15.2472 18.9628 15.4337 19.0169C15.6202 19.071 15.7785 19.1953 15.8752 19.3637C15.9649 19.5367 15.9838 19.7378 15.9278 19.9245C15.8718 20.1112 15.7453 20.2687 15.5752 20.3637L13.0552 21.7637C12.5021 22.0728 11.8788 22.2346 11.2452 22.2337C10.6086 22.2332 9.98243 22.0716 9.42518 21.7637L3.47518 18.4637C2.89616 18.1353 2.41387 17.6602 2.07682 17.0861C1.73977 16.5121 1.55985 15.8594 1.55518 15.1937V8.80371C1.55561 8.13529 1.73518 7.47917 2.07518 6.90369C2.13258 6.80094 2.19954 6.70387 2.27518 6.61371L2.39518 6.46368C2.68652 6.08189 3.05437 5.76514 3.47518 5.53369L9.47518 2.22369C10.0313 1.92349 10.6533 1.7663 11.2852 1.7663C11.9171 1.7663 12.5391 1.92349 13.0952 2.22369L19.0952 5.53369C19.516 5.76514 19.8838 6.08189 20.1752 6.46368C20.2199 6.50972 20.2601 6.55997 20.2952 6.61371C20.3708 6.70387 20.4378 6.80094 20.4952 6.90369C20.8154 7.48422 20.971 8.14121 20.9452 8.80371Z" fill="#1F1F1F"/>
<path d="M21.6948 17.1737H16.6948C16.4959 17.1737 16.3051 17.0947 16.1645 16.954C16.0238 16.8134 15.9448 16.6226 15.9448 16.4237C15.9448 16.2248 16.0238 16.034 16.1645 15.8934C16.3051 15.7527 16.4959 15.6737 16.6948 15.6737H21.6948C21.8937 15.6737 22.0845 15.7527 22.2251 15.8934C22.3658 16.034 22.4448 16.2248 22.4448 16.4237C22.4448 16.6226 22.3658 16.8134 22.2251 16.954C22.0845 17.0947 21.8937 17.1737 21.6948 17.1737Z" fill="#1F1F1F"/>
</svg>
