<svg width="24" height="24" viewBox="0 0 24 24" fill="none" xmlns="http://www.w3.org/2000/svg">
<path d="M7.58594 10.1777L11.2643 13.856C11.3668 13.9589 11.4886 14.0405 11.6228 14.0962C11.7569 14.1519 11.9007 14.1806 12.0459 14.1806C12.1911 14.1806 12.335 14.1519 12.4691 14.0962C12.6033 14.0405 12.725 13.9589 12.8276 13.856L16.4139 10.1777" stroke="#1F1F1F" stroke-width="1.5" stroke-linecap="round" stroke-linejoin="round"/>
<path d="M15.25 2.75H8.75C5.43629 2.75 2.75 5.43629 2.75 8.75V15.25C2.75 18.5637 5.43629 21.25 8.75 21.25H15.25C18.5637 21.25 21.25 18.5637 21.25 15.25V8.75C21.25 5.43629 18.5637 2.75 15.25 2.75Z" stroke="#1F1F1F" stroke-width="1.5"/>
</svg>
