<svg width="24" height="24" viewBox="0 0 24 24" fill="none" xmlns="http://www.w3.org/2000/svg">
<path d="M3.00244 5.12738L3.01341 10.8419C3.01463 11.4782 3.53145 11.993 4.16775 11.9918L19.8481 11.9617C20.4844 11.9605 20.9992 11.4437 20.998 10.8074L20.987 5.09285C20.9858 4.45655 20.469 3.94172 19.8327 3.94294L4.15235 3.97305C3.51605 3.97427 3.00122 4.49108 3.00244 5.12738Z" stroke="#1F1F1F" stroke-width="1.5" stroke-linecap="round" stroke-linejoin="round"/>
<path d="M17.5512 7.96198H14.5327" stroke="#1F1F1F" stroke-width="1.5" stroke-linecap="round" stroke-linejoin="round"/>
<path d="M4.16335 11.9944C3.52705 11.9944 3.01123 12.5102 3.01123 13.1465V18.9071C3.01123 19.5434 3.52705 20.0593 4.16335 20.0593H19.8437C20.48 20.0593 20.9959 19.5434 20.9959 18.9071V13.1465C20.9959 12.5102 20.48 11.9944 19.8437 11.9944" stroke="#1F1F1F" stroke-width="1.5" stroke-linecap="round" stroke-linejoin="round"/>
<path d="M17.5512 16.0269H14.5327" stroke="#1F1F1F" stroke-width="1.5" stroke-linecap="round" stroke-linejoin="round"/>
</svg>
