<svg width="24" height="24" viewBox="0 0 24 24" fill="none" xmlns="http://www.w3.org/2000/svg">
<path d="M11 4.67999V8.56C11 9.20713 10.7429 9.82775 10.2853 10.2853C9.82772 10.7429 9.2071 11 8.55997 11H4.67996C4.35957 11.0019 4.04217 10.9392 3.74661 10.8154C3.45106 10.6917 3.18346 10.5096 2.95999 10.28C2.73356 10.0547 2.55417 9.78657 2.43228 9.49129C2.3104 9.19601 2.24848 8.87944 2.25003 8.56V4.69C2.25003 4.0446 2.50566 3.42549 2.96109 2.96819C3.41652 2.51088 4.03457 2.25265 4.67996 2.25H8.55997C9.20377 2.25519 9.81997 2.51256 10.2761 2.96687C10.7323 3.42119 10.9922 4.03622 11 4.67999Z" fill="#1F1F1F"/>
<path d="M21.7501 4.69V8.56C21.7489 9.20439 21.4937 9.82235 21.0401 10.28C20.8152 10.5078 20.5475 10.6887 20.2522 10.8123C19.957 10.9359 19.6401 10.9997 19.3201 11H15.4401C15.1189 11.0027 14.8004 10.9414 14.5032 10.8197C14.206 10.698 13.936 10.5184 13.7089 10.2913C13.4818 10.0642 13.3021 9.79413 13.1804 9.49689C13.0588 9.19965 12.9975 8.88117 13.0001 8.56V4.69C12.9988 4.36969 13.0618 4.05236 13.1854 3.75688C13.3091 3.46141 13.491 3.19382 13.7201 2.97C13.9449 2.74221 14.2127 2.56127 14.508 2.43768C14.8032 2.31409 15.12 2.25031 15.4401 2.25H19.3201C19.9655 2.25265 20.5835 2.51088 21.039 2.96819C21.4944 3.42549 21.7501 4.0446 21.7501 4.69Z" fill="#1F1F1F"/>
<path d="M11.0001 15.45V19.32C10.9974 19.9654 10.7391 20.5835 10.2818 21.0389C9.82446 21.4943 9.20536 21.75 8.55996 21.75H4.67996C4.36047 21.7513 4.04398 21.6894 3.74856 21.5677C3.45314 21.4461 3.18468 21.2671 2.95877 21.0412C2.73285 20.8153 2.55393 20.5469 2.43228 20.2515C2.31063 19.9561 2.2487 19.6395 2.25002 19.32V15.45C2.2526 14.8045 2.50881 14.1858 2.9634 13.7275C3.41799 13.2691 4.03446 13.0079 4.67996 13H8.55996C9.20719 13.0053 9.82637 13.2654 10.2832 13.724C10.7399 14.1826 10.9975 14.8027 11.0001 15.45Z" fill="#1F1F1F"/>
<path d="M16.5398 19.88C16.3583 19.8827 16.1781 19.8487 16.0099 19.78C15.8409 19.7075 15.6879 19.6021 15.5599 19.47L13.9199 17.83C13.8491 17.7611 13.793 17.6787 13.7546 17.5876C13.7162 17.4966 13.6963 17.3988 13.6963 17.3C13.6963 17.2012 13.7162 17.1034 13.7546 17.0124C13.793 16.9214 13.8491 16.839 13.9199 16.77C14.0605 16.6296 14.2511 16.5507 14.4499 16.5507C14.6486 16.5507 14.8393 16.6296 14.9799 16.77L16.5398 18.34L19.77 15.1C19.8389 15.0293 19.9212 14.973 20.0123 14.9346C20.1033 14.8962 20.2011 14.8765 20.2999 14.8765C20.3987 14.8765 20.4966 14.8962 20.5876 14.9346C20.6786 14.973 20.7609 15.0293 20.8299 15.1C20.9703 15.2406 21.0492 15.4313 21.0492 15.63C21.0492 15.8288 20.9703 16.0194 20.8299 16.16L17.5099 19.48C17.3805 19.6079 17.2277 19.7098 17.0599 19.78C16.8952 19.8487 16.7182 19.8827 16.5398 19.88Z" fill="#1F1F1F"/>
</svg>
