<svg width="24" height="24" viewBox="0 0 24 24" fill="none" xmlns="http://www.w3.org/2000/svg">
<path d="M6.80957 12H17.6012" stroke="#1F1F1F" stroke-width="1.5" stroke-miterlimit="10" stroke-linecap="round"/>
<path d="M11.5374 6.86108L7.11798 11.2703C7.02165 11.3658 6.94519 11.4795 6.89301 11.6047C6.84083 11.73 6.81396 11.8643 6.81396 12C6.81396 12.1356 6.84083 12.27 6.89301 12.3953C6.94519 12.5204 7.02165 12.6341 7.11798 12.7297L11.5374 17.1389" stroke="#1F1F1F" stroke-width="1.5" stroke-linecap="round" stroke-linejoin="round"/>
<path d="M15.25 2.75H8.75C5.43629 2.75 2.75 5.43629 2.75 8.75V15.25C2.75 18.5637 5.43629 21.25 8.75 21.25H15.25C18.5637 21.25 21.25 18.5637 21.25 15.25V8.75C21.25 5.43629 18.5637 2.75 15.25 2.75Z" stroke="#1F1F1F" stroke-width="1.5"/>
</svg>
