<svg width="24" height="24" viewBox="0 0 24 24" fill="none" xmlns="http://www.w3.org/2000/svg">
<path d="M11.1201 6.96009V9.5549C11.1241 9.76448 11.0862 9.97276 11.0086 10.1675C10.931 10.3623 10.8152 10.5397 10.6681 10.6893C10.521 10.8389 10.3454 10.9577 10.1518 11.0388C9.95806 11.1199 9.75014 11.1617 9.5401 11.1617H6.9401C6.52013 11.1617 6.11721 10.9959 5.81931 10.7004C5.52141 10.405 5.35274 10.0039 5.3501 9.58484V6.99003C5.3501 6.56918 5.51762 6.16556 5.8158 5.86798C6.11398 5.57039 6.5184 5.4032 6.9401 5.4032H9.5401C9.95492 5.40573 10.3523 5.56995 10.6475 5.86082C10.9427 6.15169 11.1123 6.54617 11.1201 6.96009Z" fill="#1F1F1F"/>
<path d="M11.1201 14.4551V17.0499C11.1201 17.469 10.954 17.8711 10.658 18.1684C10.3619 18.4657 9.96006 18.6341 9.5401 18.6367H6.9401C6.5184 18.6367 6.11398 18.4695 5.8158 18.1719C5.51762 17.8744 5.3501 17.4707 5.3501 17.0499V14.4551C5.35274 14.036 5.52141 13.6349 5.81931 13.3395C6.11721 13.044 6.52013 12.8782 6.9401 12.8782H9.5401C9.95915 12.8782 10.361 13.0444 10.6573 13.3401C10.9536 13.6358 11.1201 14.0369 11.1201 14.4551Z" fill="#1F1F1F"/>
<path d="M18.6599 6.96009V9.5549C18.6654 9.97069 18.5071 10.372 18.2191 10.6725C17.9311 10.973 17.5364 11.1486 17.1199 11.1617H14.5299C14.1099 11.1617 13.707 10.9959 13.4091 10.7004C13.1112 10.405 12.9426 10.0039 12.9399 9.58484V6.99003C12.9399 6.56918 13.1074 6.16556 13.4056 5.86798C13.7038 5.57039 14.1082 5.4032 14.5299 5.4032H17.1199C17.5277 5.41594 17.915 5.58466 18.2017 5.87446C18.4884 6.16426 18.6524 6.55294 18.6599 6.96009Z" fill="#1F1F1F"/>
<path d="M18.6599 14.4751V17.0699C18.6601 17.4822 18.4995 17.8785 18.212 18.1746C17.9246 18.4708 17.5329 18.6437 17.1199 18.6567H14.5299C14.1082 18.6567 13.7038 18.4895 13.4056 18.1919C13.1074 17.8943 12.9399 17.4907 12.9399 17.0699V14.4751C12.9426 14.0559 13.1112 13.6549 13.4091 13.3594C13.707 13.064 14.1099 12.8982 14.5299 12.8982H17.1199C17.5312 12.9111 17.9214 13.0826 18.2086 13.3767C18.4957 13.6707 18.6575 14.0644 18.6599 14.4751Z" fill="#1F1F1F"/>
<path d="M21.2501 9.69461C21.052 9.69203 20.8627 9.61234 20.7226 9.47252C20.5826 9.33271 20.5027 9.14382 20.5001 8.94611V5.86228C20.5067 5.5499 20.4498 5.23943 20.3329 4.94957C20.216 4.65971 20.0416 4.39645 19.8201 4.17565C19.3809 3.7417 18.7881 3.49789 18.1701 3.49701H15.1201C14.9212 3.49701 14.7304 3.41815 14.5898 3.27778C14.4491 3.1374 14.3701 2.94702 14.3701 2.7485C14.3701 2.54999 14.4491 2.3596 14.5898 2.21923C14.7304 2.07886 14.9212 2 15.1201 2H18.2001C19.2137 2.02601 20.1764 2.44903 20.8801 3.17765C21.237 3.53195 21.5198 3.95349 21.712 4.41778C21.9043 4.88207 22.0022 5.37986 22.0001 5.88224V8.96607C21.9949 9.16111 21.9136 9.34641 21.7735 9.48249C21.6334 9.61857 21.4456 9.69468 21.2501 9.69461Z" fill="#1F1F1F"/>
<path d="M18.1701 22H15.1201C14.9212 22 14.7304 21.9211 14.5898 21.7808C14.4491 21.6404 14.3701 21.45 14.3701 21.2515C14.3701 21.053 14.4491 20.8626 14.5898 20.7222C14.7304 20.5818 14.9212 20.503 15.1201 20.503H18.2001C18.5065 20.5004 18.8093 20.4373 19.0911 20.3173C19.3729 20.1972 19.6281 20.0227 19.8419 19.8037C20.0558 19.5847 20.224 19.3256 20.337 19.0414C20.45 18.7572 20.5054 18.4534 20.5001 18.1477V15.0938C20.5001 14.8953 20.5791 14.7049 20.7198 14.5645C20.8604 14.4242 21.0512 14.3453 21.2501 14.3453C21.449 14.3453 21.6398 14.4242 21.7804 14.5645C21.9211 14.7049 22.0001 14.8953 22.0001 15.0938V18.1477C22.0014 18.65 21.9033 19.1477 21.7113 19.612C21.5193 20.0764 21.2372 20.4982 20.8813 20.8534C20.5254 21.2086 20.1026 21.4902 19.6374 21.6818C19.1721 21.8734 18.6734 21.9714 18.1701 21.9701V22Z" fill="#1F1F1F"/>
<path d="M8.92003 22H5.84004C5.33408 22 4.83309 21.9002 4.36589 21.7064C3.89869 21.5125 3.4745 21.2285 3.11766 20.8705C2.76082 20.5125 2.47837 20.0877 2.28658 19.6204C2.09478 19.1531 1.99741 18.6526 2.00005 18.1477V15.0938C2.00005 14.8953 2.07906 14.7049 2.21971 14.5645C2.36036 14.4242 2.55113 14.3453 2.75005 14.3453C2.94896 14.3453 3.13973 14.4242 3.28038 14.5645C3.42103 14.7049 3.50005 14.8953 3.50005 15.0938V18.1477C3.50269 18.7653 3.7504 19.3568 4.18895 19.7926C4.6275 20.2284 5.22116 20.4731 5.84004 20.4731H8.92003C9.11894 20.4731 9.30971 20.5519 9.45036 20.6923C9.59102 20.8327 9.67003 21.023 9.67003 21.2216C9.67003 21.4201 9.59102 21.6105 9.45036 21.7508C9.30971 21.8912 9.11894 21.9701 8.92003 21.9701V22Z" fill="#1F1F1F"/>
<path d="M2.75 9.69473C2.55189 9.69214 2.36262 9.61245 2.22253 9.47264C2.08243 9.33282 2.00259 9.14394 2 8.94623V5.86239C2.00216 4.85476 2.40498 3.88919 3.11999 3.17776C3.84083 2.46391 4.81449 2.06232 5.82998 2.06H8.91C9.10891 2.06 9.29968 2.13886 9.44033 2.27923C9.58099 2.4196 9.66 2.60999 9.66 2.8085C9.66 3.00702 9.58099 3.1974 9.44033 3.33777C9.29968 3.47814 9.10891 3.557 8.91 3.557H5.82998C5.2111 3.557 4.61744 3.80167 4.17889 4.23747C3.74034 4.67328 3.49263 5.26471 3.48999 5.88235V8.96619C3.48483 9.15951 3.40491 9.34333 3.26696 9.47915C3.12901 9.61496 2.94375 9.69222 2.75 9.69473Z" fill="#1F1F1F"/>
</svg>
