<svg width="24" height="24" viewBox="0 0 24 24" fill="none" xmlns="http://www.w3.org/2000/svg">
<path d="M21.2212 8.62344C21.0226 8.62344 20.8321 8.54462 20.6917 8.40432C20.5513 8.26402 20.4724 8.07372 20.4724 7.87531V5.83042C20.4724 5.21309 20.2276 4.62089 19.7916 4.18344C19.3555 3.74598 18.7638 3.4989 18.1459 3.49626H15.1005C14.9019 3.49626 14.7114 3.41744 14.571 3.27714C14.4305 3.13684 14.3516 2.94655 14.3516 2.74813C14.3516 2.54971 14.4305 2.35942 14.571 2.21912C14.7114 2.07882 14.9019 2 15.1005 2H18.1758C18.6789 2.00084 19.1769 2.10084 19.6412 2.29426C20.1055 2.48768 20.5271 2.77073 20.8817 3.12718C21.2399 3.47996 21.5234 3.90103 21.7155 4.3654C21.9077 4.82978 22.0044 5.32797 22.0001 5.83042V7.87531C22.0016 7.97653 21.9822 8.07698 21.9432 8.17042C21.9042 8.26386 21.8464 8.34829 21.7734 8.41845C21.7003 8.48862 21.6136 8.54303 21.5186 8.57829C21.4237 8.61356 21.3224 8.62892 21.2212 8.62344Z" fill="#1F1F1F"/>
<path d="M2.74897 8.62344C2.55036 8.62344 2.35988 8.54462 2.21944 8.40432C2.079 8.26402 2.00011 8.07372 2.00011 7.87531V5.83042C1.99632 5.32806 2.09332 4.83002 2.2854 4.36573C2.47747 3.90144 2.76071 3.4803 3.11841 3.12718C3.47306 2.77073 3.89462 2.48768 4.35895 2.29426C4.82328 2.10084 5.32125 2.00084 5.82433 2H8.89966C9.09827 2 9.28875 2.07882 9.42919 2.21912C9.56963 2.35942 9.64853 2.54971 9.64853 2.74813C9.64853 2.94655 9.56963 3.13684 9.42919 3.27714C9.28875 3.41744 9.09827 3.49626 8.89966 3.49626H5.82433C5.20627 3.50147 4.615 3.74907 4.17795 4.18568C3.7409 4.6223 3.49306 5.21298 3.48785 5.83042V7.87531C3.48917 7.97308 3.47105 8.07014 3.43451 8.16085C3.39797 8.25156 3.34375 8.33412 3.275 8.40373C3.20626 8.47333 3.12435 8.5286 3.03405 8.56631C2.94375 8.60403 2.84685 8.62345 2.74897 8.62344Z" fill="#1F1F1F"/>
<path d="M21.9801 16.0748V18.1795C21.9804 18.6823 21.8807 19.1801 21.6871 19.6441C21.4934 20.1081 21.2095 20.5292 20.8518 20.8828C20.1358 21.5897 19.1725 21.9903 18.1659 22H5.8145C4.79732 21.9797 3.82896 21.5605 3.11858 20.8329C2.41828 20.1258 2.02081 19.1742 2.01025 18.1795V16.0748C2.01025 15.8764 2.08915 15.6861 2.22959 15.5458C2.37003 15.4055 2.56051 15.3267 2.75912 15.3267C2.95773 15.3267 3.14821 15.4055 3.28865 15.5458C3.42909 15.6861 3.50799 15.8764 3.50799 16.0748V18.1795C3.514 18.6646 3.67243 19.1355 3.9609 19.5257C4.24936 19.9159 4.65328 20.2057 5.11556 20.3541C5.66473 17.3616 9.01966 15.1671 11.9553 15.1671C14.8908 15.1671 18.2358 17.3716 18.7849 20.3541C19.1618 20.2497 19.5056 20.0505 19.7834 19.7756C20.0011 19.5601 20.174 19.3037 20.2923 19.0213C20.4105 18.7388 20.4717 18.4358 20.4724 18.1297V16.0748C20.4724 15.8764 20.5513 15.6861 20.6917 15.5458C20.8322 15.4055 21.0226 15.3267 21.2213 15.3267C21.4199 15.3267 21.6103 15.4055 21.7508 15.5458C21.8912 15.6861 21.9701 15.8764 21.9701 16.0748H21.9801Z" fill="#1F1F1F"/>
<path d="M15.879 9.76056C15.881 10.5309 15.654 11.2844 15.2269 11.9257C14.7998 12.5669 14.1917 13.0671 13.4797 13.3628C12.7678 13.6585 11.984 13.7364 11.2277 13.5866C10.4714 13.4368 9.77659 13.0661 9.23139 12.5214C8.68619 11.9767 8.3151 11.2826 8.16516 10.5271C8.01523 9.77147 8.09319 8.98844 8.38916 8.27718C8.68513 7.56592 9.18581 6.95845 9.82772 6.53174C10.4696 6.10503 11.2239 5.87829 11.9949 5.88026C13.0242 5.8829 14.0106 6.29256 14.7385 7.01969C15.4663 7.74681 15.8764 8.73225 15.879 9.76056Z" fill="#1F1F1F"/>
</svg>
