<svg width="24" height="24" viewBox="0 0 24 24" fill="none" xmlns="http://www.w3.org/2000/svg">
<path d="M10.1596 12.2673L9.41954 12.9971L6.94223 15.4127L6.21245 16.1322C4.96598 14.8126 3.9263 13.312 3.12871 11.6814C2.60546 10.5485 2.2588 9.34208 2.10079 8.10422C1.85439 6.8128 2.00112 5.47718 2.52215 4.27011C2.8459 3.72447 3.24375 3.22633 3.70428 2.78991C3.90789 2.5631 4.1565 2.38106 4.43418 2.25538C4.72077 2.1191 5.03184 2.04218 5.34891 2.02924C6.0315 2.10597 6.65606 2.44966 7.08616 2.98522C7.559 3.51974 8.11406 4.01313 8.61774 4.55793L9.26533 5.19523C9.4548 5.34739 9.61066 5.53719 9.72307 5.75264C9.83548 5.96808 9.90202 6.20448 9.91844 6.44694C9.93486 6.68939 9.90077 6.93262 9.81844 7.16125C9.7361 7.38989 9.60735 7.59899 9.44012 7.77531C9.24538 8.01747 9.03599 8.24745 8.81311 8.46399L8.58687 8.69014C8.4656 8.80941 8.37098 8.95306 8.30931 9.11159C8.27351 9.27064 8.27351 9.43566 8.30931 9.59471C8.47457 10.042 8.73409 10.4487 9.07009 10.7871C9.38874 11.3113 9.75873 11.7842 10.1596 12.2673Z" fill="#1F1F1F"/>
<path d="M18.6814 6.07921L4.12604 20.2953C3.97922 20.4363 3.78475 20.517 3.58123 20.5214C3.4792 20.5206 3.37844 20.4992 3.28485 20.4586C3.19125 20.418 3.10671 20.3589 3.0364 20.285C2.89203 20.1405 2.81104 19.9445 2.81104 19.7402C2.81104 19.5359 2.89203 19.34 3.0364 19.1954L6.12015 16.1117L6.85005 15.3921L9.32736 12.9765L10.0675 12.2467L17.5096 4.95879C17.6541 4.81442 17.8501 4.73334 18.0544 4.73334C18.2587 4.73334 18.4545 4.81442 18.5991 4.95879C18.6808 5.02507 18.7482 5.10739 18.797 5.20068C18.8457 5.29397 18.8748 5.39626 18.8825 5.50123C18.8902 5.6062 18.8764 5.71163 18.8418 5.81104C18.8072 5.91044 18.7526 6.0017 18.6814 6.07921Z" fill="#1F1F1F"/>
<path d="M22.0117 18.8768C21.8776 19.4544 21.5559 19.9713 21.0968 20.3467C20.5632 20.8998 19.9138 21.3281 19.1952 21.6007C18.57 21.8469 17.9038 21.9724 17.2319 21.9708H16.8824C15.3941 21.9078 13.9318 21.5588 12.5754 20.9429C12.2567 20.7887 11.9278 20.6448 11.5475 20.4598C10.8307 20.0648 10.1436 19.6182 9.49169 19.1235C9.22443 18.9282 8.95715 18.7123 8.70017 18.4964C8.60084 18.414 8.53692 18.2967 8.52162 18.1685C8.50632 18.0404 8.54085 17.9112 8.61799 17.8077L8.72075 17.6947L8.91612 17.4994L11.3419 15.0426L11.7531 14.6212L11.8353 14.539C11.9268 14.4689 12.0388 14.431 12.154 14.431C12.2692 14.431 12.3811 14.4689 12.4726 14.539C12.7519 14.772 13.0473 14.985 13.3566 15.1763C13.5466 15.3162 13.7459 15.4432 13.9529 15.5566C14.0826 15.6559 14.2341 15.7228 14.3948 15.7519C14.5348 15.7632 14.6755 15.7421 14.806 15.6902C15.1977 15.4794 15.5464 15.197 15.8339 14.8576C16.1994 14.4128 16.7221 14.1257 17.2936 14.0558C17.8458 14.0691 18.3717 14.2935 18.7635 14.6829C18.9793 14.8679 19.2055 15.1043 19.4316 15.3407L19.7399 15.6697L20.0586 15.978C20.2539 16.1631 20.439 16.3481 20.624 16.5537C20.961 16.8392 21.2738 17.1521 21.5594 17.4891C21.881 17.8774 22.0428 18.3735 22.0117 18.8768Z" fill="#1F1F1F"/>
</svg>
