<svg width="24" height="24" viewBox="0 0 24 24" fill="none" xmlns="http://www.w3.org/2000/svg">
<path d="M11 4.67999V8.56C10.9987 9.20929 10.7398 9.83151 10.28 10.29C10.0547 10.5164 9.78649 10.6958 9.49121 10.8177C9.19593 10.9396 8.87938 11.0016 8.55993 11H4.67993C4.03454 10.9974 3.41649 10.7391 2.96106 10.2818C2.50563 9.82451 2.24999 9.2054 2.25 8.56V4.69C2.24999 4.0446 2.50563 3.42549 2.96106 2.96819C3.41649 2.51088 4.03454 2.25265 4.67993 2.25H8.55993C9.20533 2.24999 9.82443 2.50569 10.2817 2.96112C10.739 3.41655 10.9973 4.0346 11 4.67999Z" fill="#1F1F1F"/>
<path d="M21.7501 4.69V8.56C21.7517 8.87944 21.6896 9.19601 21.5678 9.49129C21.4459 9.78657 21.2665 10.0547 21.04 10.28C20.8166 10.5096 20.5491 10.6917 20.2535 10.8154C19.958 10.9392 19.6405 11.0019 19.3201 11H15.4401C14.7957 10.9987 14.1778 10.7436 13.7201 10.29C13.4902 10.0647 13.308 9.79538 13.1843 9.49817C13.0606 9.20096 12.998 8.88191 13.0001 8.56V4.69C12.9988 4.36969 13.0617 4.05236 13.1854 3.75688C13.3091 3.46141 13.491 3.19382 13.7201 2.97C13.9449 2.74221 14.2127 2.56127 14.5079 2.43768C14.8032 2.31409 15.12 2.25031 15.4401 2.25H19.3201C19.9655 2.25265 20.5835 2.51088 21.0389 2.96819C21.4944 3.42549 21.7501 4.0446 21.7501 4.69Z" fill="#1F1F1F"/>
<path d="M11 15.45V19.32C10.9974 19.9654 10.739 20.5835 10.2817 21.0389C9.82446 21.4943 9.20536 21.75 8.55996 21.75H4.67996C4.03556 21.7487 3.41764 21.4936 2.95999 21.04C2.73355 20.8147 2.55417 20.5466 2.43228 20.2513C2.31039 19.956 2.24847 19.6394 2.25003 19.32V15.45C2.24847 15.1306 2.31039 14.814 2.43228 14.5187C2.55417 14.2234 2.73355 13.9553 2.95999 13.73C3.41561 13.2708 4.03315 13.0087 4.67996 13H8.55996C9.2072 13.0053 9.82637 13.2654 10.2831 13.724C10.7398 14.1826 10.9974 14.8027 11 15.45Z" fill="#1F1F1F"/>
<path d="M21.7502 17.38C21.7482 18.2435 21.4904 19.087 21.0095 19.8041C20.5286 20.5212 19.8461 21.0797 19.048 21.4093C18.2499 21.7388 17.372 21.8245 16.5252 21.6555C15.6785 21.4866 14.9007 21.0706 14.2901 20.46C13.6796 19.8495 13.2636 19.0718 13.0947 18.225C12.9258 17.3782 13.0114 16.5004 13.3409 15.7023C13.6704 14.9042 14.229 14.2216 14.9461 13.7406C15.6633 13.2597 16.5068 13.002 17.3702 13C18.5334 13.0033 19.648 13.4671 20.4702 14.29C20.8769 14.6951 21.1994 15.1767 21.419 15.7071C21.6387 16.2374 21.7513 16.806 21.7502 17.38Z" fill="#1F1F1F"/>
</svg>
