<svg width="24" height="24" viewBox="0 0 24 24" fill="none" xmlns="http://www.w3.org/2000/svg">
<path d="M11.6919 7.88889H16.2121" stroke="#1F1F1F" stroke-width="1.5" stroke-linecap="round" stroke-linejoin="round"/>
<path d="M11.6919 12H16.2121" stroke="#1F1F1F" stroke-width="1.5" stroke-linecap="round" stroke-linejoin="round"/>
<path d="M11.6919 16.1111H16.2121" stroke="#1F1F1F" stroke-width="1.5" stroke-linecap="round" stroke-linejoin="round"/>
<path d="M8.06638 8.50555C8.40696 8.50555 8.68305 8.22946 8.68305 7.88888C8.68305 7.54831 8.40696 7.27222 8.06638 7.27222C7.72581 7.27222 7.44971 7.54831 7.44971 7.88888C7.44971 8.22946 7.72581 8.50555 8.06638 8.50555Z" stroke="#1F1F1F" stroke-width="1.5" stroke-linecap="round" stroke-linejoin="round"/>
<path d="M8.06638 12.6167C8.40696 12.6167 8.68305 12.3406 8.68305 12C8.68305 11.6594 8.40696 11.3833 8.06638 11.3833C7.72581 11.3833 7.44971 11.6594 7.44971 12C7.44971 12.3406 7.72581 12.6167 8.06638 12.6167Z" stroke="#1F1F1F" stroke-width="1.5" stroke-linecap="round" stroke-linejoin="round"/>
<path d="M8.06638 16.7278C8.40696 16.7278 8.68305 16.4517 8.68305 16.1111C8.68305 15.7705 8.40696 15.4944 8.06638 15.4944C7.72581 15.4944 7.44971 15.7705 7.44971 16.1111C7.44971 16.4517 7.72581 16.7278 8.06638 16.7278Z" stroke="#1F1F1F" stroke-width="1.5" stroke-linecap="round" stroke-linejoin="round"/>
<path d="M15.25 2.75H8.75C5.43629 2.75 2.75 5.43629 2.75 8.75V15.25C2.75 18.5637 5.43629 21.25 8.75 21.25H15.25C18.5637 21.25 21.25 18.5637 21.25 15.25V8.75C21.25 5.43629 18.5637 2.75 15.25 2.75Z" stroke="#1F1F1F" stroke-width="1.5"/>
</svg>
