<svg width="24" height="24" viewBox="0 0 24 24" fill="none" xmlns="http://www.w3.org/2000/svg">
<path d="M9.20577 3.41006H14.4683C15.1877 3.41006 15.8777 3.69586 16.3864 4.20457C16.8951 4.71328 17.1809 5.40325 17.1809 6.12267V20.5899H6.49316V6.12267C6.49316 5.40325 6.77895 4.71328 7.28767 4.20457C7.79638 3.69586 8.48634 3.41006 9.20577 3.41006Z" stroke="#1F1F1F" stroke-width="1.5" stroke-linecap="round" stroke-linejoin="round"/>
<path d="M3.16602 20.5899H21.2501" stroke="#1F1F1F" stroke-width="1.5" stroke-linecap="round" stroke-linejoin="round"/>
<path d="M11.6927 14.2605H12.0182C12.3779 14.2605 12.7229 14.4034 12.9772 14.6578C13.2316 14.9121 13.3745 15.2571 13.3745 15.6168V20.5899H10.3364V15.6168C10.3364 15.2571 10.4793 14.9121 10.7336 14.6578C10.988 14.4034 11.333 14.2605 11.6927 14.2605Z" stroke="#1F1F1F" stroke-width="1.5" stroke-linecap="round" stroke-linejoin="round"/>
<path d="M9.88428 7.02689H13.7904" stroke="#1F1F1F" stroke-width="1.5" stroke-linecap="round" stroke-linejoin="round"/>
<path d="M9.88428 10.6437H13.7904" stroke="#1F1F1F" stroke-width="1.5" stroke-linecap="round" stroke-linejoin="round"/>
<path d="M17.1812 9.28738H17.8684C18.5878 9.28738 19.2778 9.57318 19.7865 10.0819C20.2952 10.5906 20.581 11.2806 20.581 12V20.5899" stroke="#1F1F1F" stroke-width="1.5" stroke-linecap="round" stroke-linejoin="round"/>
<path d="M4.10645 20.5899V13.8084" stroke="#1F1F1F" stroke-width="1.5" stroke-linecap="round" stroke-linejoin="round"/>
<path d="M5.46261 11.0958C5.46261 10.3467 4.85537 9.7395 4.10631 9.7395C3.35724 9.7395 2.75 10.3467 2.75 11.0958V12.4521C2.75 13.2012 3.35724 13.8084 4.10631 13.8084C4.85537 13.8084 5.46261 13.2012 5.46261 12.4521V11.0958Z" stroke="#1F1F1F" stroke-width="1.5" stroke-linecap="round" stroke-linejoin="round"/>
</svg>
