<svg width="24" height="24" viewBox="0 0 24 24" fill="none" xmlns="http://www.w3.org/2000/svg">
<path d="M20.3249 8.29999V6.44999C20.3249 5.71401 20.0326 5.00818 19.5121 4.48777C18.9917 3.96735 18.2859 3.67499 17.5499 3.67499H14.7749" stroke="#1F1F1F" stroke-width="1.5" stroke-linecap="round" stroke-linejoin="round"/>
<path d="M14.7749 20.325H17.5499C18.2859 20.325 18.9917 20.0326 19.5121 19.5122C20.0326 18.9918 20.3249 18.286 20.3249 17.55V15.7" stroke="#1F1F1F" stroke-width="1.5" stroke-linecap="round" stroke-linejoin="round"/>
<path d="M3.6748 15.7V17.55C3.6748 18.286 3.96716 18.9918 4.48758 19.5122C5.00799 20.0326 5.71382 20.325 6.4498 20.325H9.2248" stroke="#1F1F1F" stroke-width="1.5" stroke-linecap="round" stroke-linejoin="round"/>
<path d="M9.2248 3.67499H6.4498C5.71382 3.67499 5.00799 3.96735 4.48758 4.48777C3.96716 5.00818 3.6748 5.71401 3.6748 6.44999V8.29999" stroke="#1F1F1F" stroke-width="1.5" stroke-linecap="round" stroke-linejoin="round"/>
<path d="M2.75 12H21.25" stroke="#1F1F1F" stroke-width="1.5" stroke-linecap="round" stroke-linejoin="round"/>
</svg>
