<svg width="24" height="24" viewBox="0 0 24 24" fill="none" xmlns="http://www.w3.org/2000/svg">
<path d="M17.2517 12.4903C16.9676 14.855 15.4186 15.7991 14.7495 16.4865C14.0805 17.1739 14.1996 17.3114 14.2454 18.3196C14.2529 18.4445 14.2348 18.5696 14.1921 18.6872C14.1494 18.8049 14.0831 18.9125 13.9972 19.0035C13.9114 19.0945 13.8078 19.167 13.6928 19.2165C13.5779 19.2659 13.454 19.2913 13.3289 19.2911H10.6709C10.5458 19.2913 10.4219 19.2659 10.307 19.2165C10.192 19.167 10.0884 19.0945 10.0026 19.0035C9.9167 18.9125 9.85038 18.8049 9.80769 18.6872C9.765 18.5696 9.74685 18.4445 9.75436 18.3196C9.75436 17.3297 9.84602 17.1006 9.25026 16.4865C8.48953 15.7258 6.70226 14.6534 6.70226 11.7021C6.6976 10.9691 6.84485 10.243 7.13475 9.5697C7.42465 8.89639 7.8509 8.29045 8.38662 7.79008C8.92235 7.2897 9.55594 6.90574 10.2474 6.66241C10.9389 6.41908 11.6733 6.32166 12.4044 6.37628C13.1354 6.4309 13.8472 6.63638 14.4948 6.97977C15.1425 7.32316 15.712 7.79701 16.1674 8.37144C16.6228 8.94587 16.9543 9.60843 17.1409 10.3173C17.3275 11.0262 17.3653 11.7661 17.2517 12.4903Z" stroke="#1F1F1F" stroke-width="1.5" stroke-linecap="round" stroke-linejoin="round"/>
<path d="M10.46 19.2361V20.7484C10.46 21.1609 10.6891 21.5 10.9733 21.5H13.0263C13.3105 21.5 13.5396 21.1609 13.5396 20.7484V19.2361" stroke="#1F1F1F" stroke-width="1.5" stroke-linecap="round" stroke-linejoin="round"/>
<path d="M11.2208 8.69585C10.6301 8.69585 10.0636 8.9305 9.64598 9.34818C9.2283 9.76586 8.99365 10.3324 8.99365 10.9231" stroke="#1F1F1F" stroke-width="1.5" stroke-linecap="round" stroke-linejoin="round"/>
<path d="M19.3325 11.9037H21.1656" stroke="#1F1F1F" stroke-width="1.5" stroke-linecap="round" stroke-linejoin="round"/>
<path d="M17.4858 5.89209L18.7873 4.59059" stroke="#1F1F1F" stroke-width="1.5" stroke-linecap="round" stroke-linejoin="round"/>
<path d="M18.4858 16.9992L19.7873 18.3007" stroke="#1F1F1F" stroke-width="1.5" stroke-linecap="round" stroke-linejoin="round"/>
<path d="M11.9995 2.37708L12 3.85899" stroke="#1F1F1F" stroke-width="1.5" stroke-linecap="round" stroke-linejoin="round"/>
<path d="M5.23975 4.59059L6.53208 5.89209" stroke="#1F1F1F" stroke-width="1.5" stroke-linecap="round" stroke-linejoin="round"/>
<path d="M4.23975 18.3007L5.53208 16.9992" stroke="#1F1F1F" stroke-width="1.5" stroke-linecap="round" stroke-linejoin="round"/>
<path d="M4.66757 11.9037H2.83447" stroke="#1F1F1F" stroke-width="1.5" stroke-linecap="round" stroke-linejoin="round"/>
</svg>
