<svg width="24" height="24" viewBox="0 0 24 24" fill="none" xmlns="http://www.w3.org/2000/svg">
<path d="M10.5215 13.4798C11.2882 14.2466 12.3284 14.6779 13.4133 14.6788C13.7719 14.6738 14.1289 14.6281 14.4772 14.5426C15.1677 14.3509 15.7972 13.9849 16.305 13.4798L17.2735 12.5125L20.1515 9.62398C20.8744 8.84914 21.2679 7.82429 21.2492 6.76536C21.2305 5.70643 20.801 4.69609 20.0513 3.94719C19.3015 3.1983 18.2901 2.76932 17.2299 2.75064C16.1698 2.73195 15.1438 3.12502 14.3681 3.84703L11.49 6.73551" stroke="#1F1F1F" stroke-width="1.5" stroke-linecap="round" stroke-linejoin="round"/>
<path d="M12.4449 17.3357L9.55322 20.2241C8.77214 20.9143 7.75676 21.2805 6.71447 21.248C5.67217 21.2155 4.68162 20.7868 3.94512 20.0494C3.20862 19.312 2.78175 18.3215 2.7517 17.2803C2.72164 16.2391 3.09067 15.2258 3.78341 14.4472L6.67513 11.5587L7.64359 10.5913C8.15141 10.0862 8.78088 9.72024 9.47138 9.52861C10.1661 9.34294 10.8975 9.34342 11.5919 9.52999C12.2864 9.71656 12.9193 10.0826 13.427 10.5913" stroke="#1F1F1F" stroke-width="1.5" stroke-linecap="round" stroke-linejoin="round"/>
</svg>
