<svg width="24" height="24" viewBox="0 0 24 24" fill="none" xmlns="http://www.w3.org/2000/svg">
<path d="M21.2499 17.4942V6.50584C21.245 6.23616 21.1639 5.97337 21.0161 5.74776C20.8683 5.52216 20.6597 5.34294 20.4144 5.23076C20.1691 5.11859 19.8971 5.07803 19.6298 5.11377C19.3624 5.14951 19.1106 5.26009 18.9034 5.43276L12.4936 10.9126C12.3365 11.0469 12.2104 11.2137 12.1239 11.4014C12.0374 11.5891 11.9927 11.7933 11.9927 12C11.9927 12.2067 12.0374 12.4109 12.1239 12.5986C12.2104 12.7863 12.3365 12.9531 12.4936 13.0874L18.9034 18.5673C19.1106 18.7399 19.3624 18.8505 19.6298 18.8862C19.8971 18.922 20.1691 18.8814 20.4144 18.7693C20.6597 18.6571 20.8683 18.4779 21.0161 18.2523C21.1639 18.0267 21.245 17.7639 21.2499 17.4942Z" stroke="#1F1F1F" stroke-width="1.5" stroke-linecap="round" stroke-linejoin="round"/>
<path d="M11.9929 17.4942V6.50584C11.988 6.23616 11.907 5.97337 11.7591 5.74776C11.6113 5.52216 11.4027 5.34294 11.1574 5.23076C10.9122 5.11859 10.6402 5.07803 10.3728 5.11377C10.1055 5.14951 9.85366 5.26009 9.64645 5.43276L3.25088 10.9126C3.09381 11.0469 2.96771 11.2137 2.88124 11.4014C2.79477 11.5891 2.75 11.7933 2.75 12C2.75 12.2067 2.79477 12.4109 2.88124 12.5986C2.96771 12.7863 3.09381 12.9531 3.25088 13.0874L9.64645 18.5673C9.85365 18.7399 10.1055 18.8505 10.3728 18.8862C10.6402 18.922 10.9122 18.8814 11.1574 18.7693C11.4027 18.6571 11.6113 18.4779 11.7591 18.2523C11.907 18.0267 11.988 17.7639 11.9929 17.4942Z" stroke="#1F1F1F" stroke-width="1.5" stroke-linecap="round" stroke-linejoin="round"/>
</svg>
