<svg width="24" height="24" viewBox="0 0 24 24" fill="none" xmlns="http://www.w3.org/2000/svg">
<path d="M9.21638 2.75006H16.4632C16.5506 2.74975 16.6366 2.77124 16.7136 2.81258C16.7905 2.85392 16.8559 2.9138 16.9039 2.9868C16.9519 3.0598 16.9809 3.14361 16.9883 3.23065C16.9957 3.31768 16.9813 3.40519 16.9463 3.48525L14.1106 10.102H18.8893C18.9293 10.1024 18.9684 10.1142 19.0019 10.136C19.0354 10.1578 19.0619 10.1887 19.0785 10.2251C19.095 10.2615 19.1008 10.3018 19.0952 10.3414C19.0897 10.381 19.0729 10.4182 19.0469 10.4486L9.3004 21.1613C9.27385 21.2011 9.23392 21.2299 9.18789 21.2427C9.14185 21.2555 9.09276 21.2513 9.04953 21.231C9.0063 21.2107 8.97181 21.1755 8.95231 21.1319C8.93282 21.0882 8.92962 21.0391 8.9433 20.9933L9.90956 13.2528H5.43539C5.3485 13.2541 5.26264 13.2338 5.18551 13.1938C5.10838 13.1537 5.04239 13.0952 4.99347 13.0233C4.94454 12.9515 4.91421 12.8687 4.90519 12.7822C4.89616 12.6958 4.90873 12.6085 4.94176 12.5281L8.72275 3.07564C8.76281 2.97808 8.83133 2.89484 8.91938 2.83677C9.00742 2.77869 9.11092 2.74848 9.21638 2.75006Z" stroke="#1F1F1F" stroke-width="1.5" stroke-linecap="round" stroke-linejoin="round"/>
</svg>
