<svg width="24" height="24" viewBox="0 0 24 24" fill="none" xmlns="http://www.w3.org/2000/svg">
<path d="M4.98821 17.4524L10.7375 20.8998C11.1187 21.129 11.5551 21.25 11.9998 21.25C12.4445 21.25 12.8809 21.129 13.2621 20.8998L19.0113 17.4524C19.3778 17.233 19.6811 16.9224 19.8918 16.5508C20.0971 16.1806 20.2065 15.7649 20.21 15.3415V8.27694C20.2115 7.84969 20.1018 7.42941 19.8917 7.05742C19.6815 6.68544 19.3781 6.37459 19.0113 6.15544L13.2621 3.08988C12.8787 2.86726 12.4432 2.75 11.9998 2.75C11.5564 2.75 11.1209 2.86726 10.7375 3.08988L4.98821 6.15544C4.62145 6.37459 4.31806 6.68544 4.10789 7.05742C3.89772 7.42941 3.78801 7.84969 3.78957 8.27694V15.3415C3.79301 15.7649 3.90242 16.1806 4.10779 16.5508C4.31843 16.9224 4.62176 17.233 4.98821 17.4524Z" stroke="#1F1F1F" stroke-width="1.5" stroke-linecap="round" stroke-linejoin="round"/>
<path d="M19.8813 7.07831L12 11.8092" stroke="#1F1F1F" stroke-width="1.5" stroke-linecap="round" stroke-linejoin="round"/>
<path d="M4.11865 7.07831L12 11.8092V21.2499" stroke="#1F1F1F" stroke-width="1.5" stroke-linecap="round" stroke-linejoin="round"/>
<path d="M16.3807 12.9336V9.17857L8.06445 4.52188" stroke="#1F1F1F" stroke-width="1.5" stroke-linecap="round" stroke-linejoin="round"/>
</svg>
