<svg width="24" height="24" viewBox="0 0 24 24" fill="none" xmlns="http://www.w3.org/2000/svg">
<path d="M3.5 9.25647H15.5V17.2522C15.5 17.7772 15.3965 18.297 15.1955 18.7821C14.9945 19.2671 14.6999 19.7078 14.3284 20.0791C13.957 20.4503 13.516 20.7448 13.0307 20.9457C12.5454 21.1466 12.0253 21.25 11.5 21.25H7.5C6.43913 21.25 5.42172 20.8288 4.67157 20.0791C3.92143 19.3293 3.5 18.3125 3.5 17.2522V9.25647Z" stroke="#1F1F1F" stroke-width="1.5" stroke-linecap="round" stroke-linejoin="round"/>
<path d="M15.5001 10.2559H18.5001C19.0305 10.2559 19.5392 10.4665 19.9143 10.8414C20.2894 11.2163 20.5001 11.7247 20.5001 12.2549V16.2527C20.5001 16.7828 20.2894 17.2913 19.9143 17.6661C19.5392 18.041 19.0305 18.2516 18.5001 18.2516H15.3701" stroke="#1F1F1F" stroke-width="1.5" stroke-linecap="round" stroke-linejoin="round"/>
<path d="M5.89009 6.74784C6.02191 6.61687 6.12653 6.46115 6.19792 6.28962C6.2693 6.11809 6.30605 5.93415 6.30605 5.74838C6.30605 5.56261 6.2693 5.37867 6.19792 5.20714C6.12653 5.03561 6.02191 4.87989 5.89009 4.74892C5.75826 4.61795 5.65365 4.46223 5.58226 4.2907C5.51087 4.11917 5.47412 3.93523 5.47412 3.74946C5.47412 3.56369 5.51087 3.37975 5.58226 3.20822C5.65365 3.03669 5.75826 2.88097 5.89009 2.75" stroke="#1F1F1F" stroke-width="1.5" stroke-linecap="round" stroke-linejoin="round"/>
<path d="M9.14009 6.74784C9.4039 6.48202 9.55192 6.12278 9.55192 5.74838C9.55192 5.37398 9.4039 5.01474 9.14009 4.74892C9.00826 4.61795 8.90365 4.46223 8.83226 4.2907C8.76087 4.11917 8.72412 3.93523 8.72412 3.74946C8.72412 3.56369 8.76087 3.37975 8.83226 3.20822C8.90365 3.03669 9.00826 2.88097 9.14009 2.75" stroke="#1F1F1F" stroke-width="1.5" stroke-linecap="round" stroke-linejoin="round"/>
<path d="M12.6299 6.74784C12.7617 6.61687 12.8663 6.46115 12.9377 6.28962C13.0091 6.11809 13.0459 5.93415 13.0459 5.74838C13.0459 5.56261 13.0091 5.37867 12.9377 5.20714C12.8663 5.03561 12.7617 4.87989 12.6299 4.74892C12.4981 4.61795 12.3935 4.46223 12.3221 4.2907C12.2507 4.11917 12.2139 3.93523 12.2139 3.74946C12.2139 3.56369 12.2507 3.37975 12.3221 3.20822C12.3935 3.03669 12.4981 2.88097 12.6299 2.75" stroke="#1F1F1F" stroke-width="1.5" stroke-linecap="round" stroke-linejoin="round"/>
</svg>
