<svg width="24" height="24" viewBox="0 0 24 24" fill="none" xmlns="http://www.w3.org/2000/svg">
<path d="M11.4613 9.485H20.1613C20.403 9.48582 20.6424 9.43849 20.8656 9.34578C21.0888 9.25306 21.2913 9.11682 21.4613 8.94501C21.8038 8.59855 21.9975 8.13213 22.0013 7.645V4.38499C21.9964 3.89808 21.8029 3.43205 21.4613 3.085C21.1139 2.74531 20.6473 2.55508 20.1613 2.55501H11.4413C9.49424 2.55173 7.59399 3.15189 6.002 4.27292C4.41 5.39394 3.20447 6.98074 2.55131 8.815C2.11111 10.0377 1.93063 11.3387 2.02135 12.635C2.22889 15.0366 3.32868 17.2733 5.10386 18.9041C6.87905 20.5349 9.20076 21.4415 11.6113 21.445H20.1613C20.403 21.4458 20.6424 21.3985 20.8656 21.3058C21.0888 21.2131 21.2913 21.0768 21.4613 20.905C21.8038 20.5585 21.9975 20.0921 22.0013 19.605V16.345C21.9975 15.8579 21.8038 15.3915 21.4613 15.045C21.2913 14.8732 21.0888 14.7369 20.8656 14.6442C20.6424 14.5515 20.403 14.5042 20.1613 14.505H11.4613C10.7956 14.505 10.1572 14.2406 9.68651 13.7698C9.21579 13.2991 8.95134 12.6607 8.95134 11.995C8.95657 11.3309 9.22272 10.6955 9.6923 10.2259C10.1619 9.75635 10.7972 9.49023 11.4613 9.485ZM15.4613 4.05501H20.1513C20.2397 4.05455 20.3251 4.08657 20.3913 4.145C20.4526 4.21027 20.4881 4.29553 20.4913 4.38499V7.645C20.49 7.73487 20.4542 7.8208 20.3913 7.88499C20.3602 7.91704 20.3228 7.94245 20.2816 7.95964C20.2403 7.97683 20.196 7.98545 20.1513 7.985H15.4613V4.05501ZM15.4613 16.005H20.1513C20.2415 16.005 20.328 16.0408 20.3917 16.1046C20.4555 16.1683 20.4913 16.2548 20.4913 16.345V19.605C20.49 19.6949 20.4542 19.7808 20.3913 19.845C20.326 19.9063 20.2408 19.9418 20.1513 19.945H15.4613V16.005Z" fill="#1F1F1F"/>
</svg>
