<svg width="24" height="24" viewBox="0 0 24 24" fill="none" xmlns="http://www.w3.org/2000/svg">
<path d="M13.2353 3.25673C13.3975 3.41986 13.5258 3.61338 13.613 3.8262C13.7003 4.03901 13.7446 4.26695 13.7436 4.49694V9.88476L19.6601 12.4262C19.7249 12.4518 19.7832 12.4915 19.8307 12.5425C19.8782 12.5935 19.9136 12.6545 19.9345 12.721L20.453 14.2662C20.4805 14.3518 20.4849 14.4433 20.4655 14.5312C20.4462 14.6191 20.4037 14.7002 20.3428 14.7664C20.2818 14.8326 20.2044 14.8814 20.1184 14.9078C20.0323 14.9342 19.9408 14.9373 19.8532 14.9168L13.7538 13.3818L13.459 18.6273L14.628 19.5015V21.25C13.1692 20.864 11.9951 20.542 11.9951 20.542C11.9951 20.542 10.9219 20.837 9.37233 21.25V19.5015L10.5413 18.6273L10.2466 13.3818L4.14716 14.9168C4.05954 14.9373 3.96804 14.9342 3.88201 14.9078C3.79599 14.8814 3.71852 14.8326 3.65752 14.7664C3.59652 14.7002 3.55418 14.6191 3.53483 14.5312C3.51549 14.4433 3.51982 14.3518 3.54739 14.2662L4.06584 12.721C4.08673 12.6545 4.12222 12.5935 4.16971 12.5425C4.21719 12.4915 4.27548 12.4518 4.34031 12.4262L10.2568 9.88476V4.49694C10.2558 4.26695 10.3002 4.03901 10.3874 3.8262C10.4746 3.61338 10.603 3.41986 10.7651 3.25673C11.0942 2.93204 11.5379 2.75 12.0002 2.75C12.4625 2.75 12.9062 2.93204 13.2353 3.25673Z" stroke="#1F1F1F" stroke-width="1.3" stroke-linecap="round" stroke-linejoin="round"/>
</svg>
