<svg width="24" height="24" viewBox="0 0 24 24" fill="none" xmlns="http://www.w3.org/2000/svg">
<path d="M15.8544 2.75H9.68772C6.84959 2.75 4.54883 5.05076 4.54883 7.88889V16.1111C4.54883 18.9492 6.84959 21.25 9.68772 21.25H15.8544C18.6925 21.25 20.9932 18.9492 20.9932 16.1111V7.88889C20.9932 5.05076 18.6925 2.75 15.8544 2.75Z" stroke="#1F1F1F" stroke-width="1.5" stroke-linecap="round" stroke-linejoin="round"/>
<path d="M3.00684 8.40277H6.09018" stroke="#1F1F1F" stroke-width="1.5" stroke-linecap="round" stroke-linejoin="round"/>
<path d="M3.00684 15.5972H6.09018" stroke="#1F1F1F" stroke-width="1.5" stroke-linecap="round" stroke-linejoin="round"/>
<path d="M16.6698 16.7445C16.6698 15.0918 14.8274 13.7487 13.1747 13.7487C11.522 13.7487 9.67969 15.0918 9.67969 16.7445" stroke="#1F1F1F" stroke-width="1.5" stroke-linecap="round" stroke-linejoin="round"/>
<path d="M13.1748 11.3678C14.4716 11.3678 15.5229 10.3165 15.5229 9.01973C15.5229 7.72291 14.4716 6.67163 13.1748 6.67163C11.8779 6.67163 10.8267 7.72291 10.8267 9.01973C10.8267 10.3165 11.8779 11.3678 13.1748 11.3678Z" stroke="#1F1F1F" stroke-width="1.5" stroke-linecap="round" stroke-linejoin="round"/>
</svg>
