<svg width="24" height="24" viewBox="0 0 24 24" fill="none" xmlns="http://www.w3.org/2000/svg">
<g clip-path="url(#clip0_248_4189)">
<mask id="mask0_248_4189" style="mask-type:luminance" maskUnits="userSpaceOnUse" x="0" y="0" width="24" height="24">
<path d="M24 0H0V24H24V0Z" fill="white"/>
</mask>
<g mask="url(#mask0_248_4189)">
<path d="M8.75386 3.2254L3.22548 8.75377C1.43265 10.5466 1.43265 13.4534 3.22548 15.2462L8.75386 20.7746C10.5467 22.5674 13.4535 22.5674 15.2463 20.7746L20.7747 15.2462C22.5675 13.4534 22.5675 10.5466 20.7747 8.75377L15.2463 3.2254C13.4535 1.43256 10.5467 1.43256 8.75386 3.2254Z" stroke="#1F1F1F" stroke-width="1.5"/>
<path d="M10.5761 8.15072L8.1509 10.5759C7.36441 11.3624 7.36441 12.6376 8.1509 13.4241L10.5761 15.8493C11.3626 16.6357 12.6378 16.6357 13.4243 15.8493L15.8495 13.4241C16.636 12.6376 16.636 11.3624 15.8495 10.5759L13.4243 8.15072C12.6378 7.36423 11.3626 7.36423 10.5761 8.15072Z" stroke="#1F1F1F" stroke-width="1.5"/>
</g>
</g>
<defs>
<clipPath id="clip0_248_4189">
<rect width="24" height="24" fill="white"/>
</clipPath>
</defs>
</svg>
