<svg width="24" height="24" viewBox="0 0 24 24" fill="none" xmlns="http://www.w3.org/2000/svg">
<path d="M17.9283 19.6343H20.0659C20.2541 19.6375 20.4403 19.5951 20.6085 19.5106C20.7768 19.4261 20.922 19.3021 21.0318 19.1491C21.1415 18.9962 21.2126 18.8189 21.2388 18.6325C21.2651 18.4461 21.2457 18.2561 21.1824 18.0788C20.6372 16.9119 19.7741 15.9223 18.6922 15.2236C17.6103 14.5248 16.3533 14.1451 15.0654 14.1281" stroke="#1F1F1F" stroke-width="1.5" stroke-linecap="round" stroke-linejoin="round"/>
<path d="M15.0654 11.3701C15.5467 11.3701 16.0232 11.2754 16.4678 11.0912C16.9124 10.907 17.3163 10.6371 17.6566 10.2968C17.9969 9.95657 18.2668 9.5526 18.451 9.10801C18.6351 8.66341 18.7299 8.18691 18.7299 7.70568C18.7312 7.22366 18.6373 6.74612 18.4537 6.30042C18.2701 5.85473 18.0004 5.44964 17.66 5.10835C17.3196 4.76706 16.9152 4.49628 16.47 4.31153C16.0248 4.12678 15.5475 4.03168 15.0654 4.03168" stroke="#1F1F1F" stroke-width="1.5" stroke-linecap="round" stroke-linejoin="round"/>
<path d="M14.0251 20.8271C14.3771 20.8263 14.7221 20.7281 15.0218 20.5434C15.3215 20.3587 15.5643 20.0947 15.7233 19.7807C15.8823 19.4666 15.9513 19.1146 15.9228 18.7638C15.8942 18.4129 15.7692 18.0767 15.5615 17.7925C14.8329 16.8246 13.8947 16.0342 12.8171 15.4805C11.7396 14.9269 10.5507 14.6243 9.33953 14.5956C8.1284 14.6243 6.93948 14.9269 5.86193 15.4805C4.78437 16.0342 3.84614 16.8246 3.11758 17.7925C2.90988 18.0767 2.78484 18.4129 2.75629 18.7638C2.72774 19.1146 2.79678 19.4666 2.95579 19.7807C3.11481 20.0947 3.35759 20.3587 3.6573 20.5434C3.957 20.7281 4.30195 20.8263 4.65398 20.8271H14.0251Z" stroke="#1F1F1F" stroke-width="1.5" stroke-linecap="round" stroke-linejoin="round"/>
<path d="M9.33963 11.4847C10.4414 11.4822 11.4973 11.0427 12.2755 10.2627C13.0537 9.48267 13.4908 8.42583 13.4908 7.324C13.4908 6.22305 13.0534 5.16718 12.2749 4.38869C11.4964 3.6102 10.4406 3.17285 9.33963 3.17285C8.23868 3.17285 7.18282 3.6102 6.40433 4.38869C5.62584 5.16718 5.18848 6.22305 5.18848 7.324C5.18848 8.42583 5.62553 9.48267 6.40375 10.2627C7.18197 11.0427 8.23781 11.4822 9.33963 11.4847Z" stroke="#1F1F1F" stroke-width="1.5" stroke-linecap="round" stroke-linejoin="round"/>
</svg>
