<svg width="24" height="24" viewBox="0 0 24 24" fill="none" xmlns="http://www.w3.org/2000/svg">
<path d="M12.6853 3.06494H7.17523C6.33576 3.06494 5.65527 3.74547 5.65527 4.58494V6.35494C5.65527 7.19442 6.33576 7.87494 7.17523 7.87494H12.6853C13.5248 7.87494 14.2053 7.19442 14.2053 6.35494V4.58494C14.2053 3.74547 13.5248 3.06494 12.6853 3.06494Z" fill="#1F1F1F"/>
<path d="M21.8253 11.115V12.885C21.8227 13.289 21.6603 13.6756 21.3736 13.9604C21.087 14.2452 20.6993 14.405 20.2953 14.405H7.17523C6.7721 14.405 6.38552 14.2448 6.10046 13.9598C5.81541 13.6747 5.65527 13.2881 5.65527 12.885V11.115C5.65527 10.7118 5.81541 10.3252 6.10046 10.0402C6.38552 9.75512 6.7721 9.59497 7.17523 9.59497H20.2953C20.6993 9.59496 21.087 9.75479 21.3736 10.0396C21.6603 10.3243 21.8227 10.7109 21.8253 11.115Z" fill="#1F1F1F"/>
<path d="M18.5048 17.645V19.415C18.5022 19.819 18.3398 20.2056 18.0532 20.4904C17.7665 20.7752 17.3788 20.935 16.9748 20.935H7.19482C6.79169 20.935 6.40504 20.7748 6.11999 20.4898C5.83493 20.2047 5.6748 19.8181 5.6748 19.415V17.645C5.6748 17.2419 5.83493 16.8552 6.11999 16.5702C6.40504 16.2851 6.79169 16.125 7.19482 16.125H16.9748C17.3788 16.125 17.7665 16.2848 18.0532 16.5696C18.3398 16.8544 18.5022 17.2409 18.5048 17.645Z" fill="#1F1F1F"/>
<path d="M2.82482 21.355C2.65243 21.355 2.48706 21.2865 2.36516 21.1646C2.24327 21.0427 2.1748 20.8774 2.1748 20.705V3.29503C2.1748 3.12264 2.24327 2.9573 2.36516 2.8354C2.48706 2.7135 2.65243 2.64502 2.82482 2.64502C2.99721 2.64502 3.16252 2.7135 3.28442 2.8354C3.40631 2.9573 3.47478 3.12264 3.47478 3.29503V20.705C3.47478 20.8774 3.40631 21.0427 3.28442 21.1646C3.16252 21.2865 2.99721 21.355 2.82482 21.355Z" fill="#1F1F1F"/>
</svg>
