<svg width="24" height="24" viewBox="0 0 24 24" fill="none" xmlns="http://www.w3.org/2000/svg">
<path d="M21.9841 4.34504V16.4651C21.9824 17.3712 21.6731 18.25 21.1068 18.9574C20.5405 19.6648 19.7507 20.159 18.8669 20.359C17.983 20.5589 17.0575 20.4529 16.2418 20.0581C15.4261 19.6634 14.7686 19.0034 14.377 18.1863C13.9854 17.3691 13.8828 16.4431 14.0862 15.56C14.2895 14.677 14.7866 13.8891 15.4962 13.3255C16.2057 12.7618 17.0856 12.4558 17.9918 12.4576C18.898 12.4593 19.7767 12.7687 20.4841 13.3351V9.33503L10.0141 11.2351V17.5351C10.0141 18.3262 9.77958 19.0995 9.34006 19.7573C8.90053 20.4151 8.2758 20.9278 7.54489 21.2306C6.81399 21.5333 6.00972 21.6125 5.2338 21.4582C4.45787 21.3039 3.74514 20.9229 3.18573 20.3635C2.62632 19.8041 2.24538 19.0914 2.09103 18.3154C1.93669 17.5395 2.01588 16.7352 2.31863 16.0043C2.62139 15.2734 3.13407 14.6487 3.79187 14.2092C4.44967 13.7697 5.22304 13.5351 6.01416 13.5351C6.93257 13.5369 7.82241 13.8547 8.53418 14.4351V7.02503C8.5231 6.33366 8.75685 5.66065 9.19415 5.12504C9.64216 4.60184 10.2565 4.24874 10.9341 4.12504L19.8341 2.49503C20.2369 2.42103 20.6529 2.48427 21.0155 2.67463C21.3781 2.86499 21.6663 3.17146 21.8341 3.54502C21.9456 3.79642 21.997 4.07034 21.9841 4.34504Z" fill="#1F1F1F"/>
</svg>
