<svg width="24" height="24" viewBox="0 0 24 24" fill="none" xmlns="http://www.w3.org/2000/svg">
<path d="M21.1871 7.76334C20.9378 7.22979 20.5336 6.78374 20.0271 6.48334L13.5571 2.48334C13.0836 2.1913 12.5384 2.03662 11.9821 2.03662C11.4259 2.03662 10.8805 2.1913 10.4071 2.48334L3.92715 6.48334C3.43669 6.79571 3.04752 7.24386 2.80709 7.77332C2.56194 8.30417 2.48184 8.89641 2.57711 9.47333L4.2471 19.4734C4.35134 20.1719 4.70692 20.8084 5.2471 21.2634C5.78017 21.7098 6.4518 21.9573 7.14712 21.9633H16.7571C17.484 21.9647 18.1896 21.7178 18.7571 21.2634C19.2903 20.8027 19.6443 20.169 19.7571 19.4734L21.4271 9.47333C21.5164 8.89213 21.4329 8.2975 21.1871 7.76334ZM15.9471 15.9734C16.0403 16.0659 16.1144 16.176 16.1652 16.2972C16.2159 16.4184 16.2422 16.5484 16.2427 16.6798C16.2431 16.8112 16.2177 16.9414 16.1678 17.063C16.118 17.1846 16.0447 17.2951 15.9521 17.3884C15.8595 17.4816 15.7494 17.5557 15.6282 17.6064C15.507 17.6571 15.377 17.6834 15.2456 17.6839C15.1142 17.6844 14.9841 17.659 14.8625 17.6091C14.7409 17.5592 14.6303 17.486 14.5371 17.3934L11.9971 14.8534L9.47714 17.3734C9.38452 17.4678 9.27406 17.543 9.15219 17.5945C9.03031 17.646 8.89942 17.6728 8.76712 17.6734C8.56849 17.6745 8.37404 17.6165 8.20852 17.5067C8.043 17.3969 7.9139 17.2403 7.83773 17.0568C7.76157 16.8734 7.74178 16.6714 7.78085 16.4767C7.81992 16.2819 7.91606 16.1032 8.05709 15.9633L10.5871 13.4434L8.05709 10.9134C7.87084 10.726 7.76632 10.4725 7.76632 10.2083C7.76632 9.94413 7.87084 9.69069 8.05709 9.50333C8.15006 9.4096 8.26067 9.33519 8.38253 9.28442C8.50439 9.23366 8.6351 9.20752 8.76712 9.20752C8.89913 9.20752 9.02984 9.23366 9.1517 9.28442C9.27356 9.33519 9.38417 9.4096 9.47714 9.50333L11.9971 12.0233L14.5371 9.48334C14.7245 9.29709 14.9779 9.19254 15.2421 9.19254C15.5062 9.19254 15.7597 9.29709 15.9471 9.48334C16.0408 9.5763 16.1152 9.68689 16.166 9.80875C16.2168 9.93061 16.2429 10.0613 16.2429 10.1934C16.2429 10.3254 16.2168 10.4561 16.166 10.5779C16.1152 10.6998 16.0408 10.8104 15.9471 10.9034L13.3971 13.4434L15.9471 15.9734Z" fill="#1F1F1F"/>
</svg>
