<svg width="24" height="24" viewBox="0 0 24 24" fill="none" xmlns="http://www.w3.org/2000/svg">
<path d="M20.5693 3.42004C20.1186 2.96717 19.5824 2.60846 18.9918 2.36468C18.4013 2.1209 17.7682 1.99695 17.1293 2.00006H6.88931C5.60117 2.0027 4.36654 2.51559 3.45569 3.42645C2.54483 4.3373 2.03194 5.5719 2.0293 6.86004V17.1301C2.03193 18.4191 2.54451 19.6548 3.45508 20.5673C4.36565 21.4797 5.60026 21.9948 6.88931 22.0001H13.2393C13.6101 21.9967 13.9767 21.922 14.3193 21.7801L14.4793 21.7001L14.5593 21.6501C14.8084 21.5296 15.035 21.3672 15.2293 21.17L21.2293 15.17C21.4329 14.9692 21.6018 14.7361 21.7293 14.48L21.8093 14.3101C21.8136 14.2702 21.8136 14.2299 21.8093 14.1901C21.9164 13.8952 21.9706 13.5838 21.9693 13.2701V6.93005C21.9844 6.28085 21.8682 5.63533 21.6276 5.03216C21.387 4.429 21.027 3.88062 20.5693 3.42004ZM14.5693 19.61L14.2293 16.86C14.1914 16.5227 14.2289 16.1811 14.3393 15.86C14.4491 15.5238 14.6377 15.2186 14.8893 14.97C15.1411 14.7152 15.4494 14.5234 15.7893 14.41C16.1262 14.2932 16.4855 14.2555 16.8393 14.3L19.5893 14.6401L14.5693 19.61Z" fill="#1F1F1F"/>
</svg>
