<svg width="24" height="24" viewBox="0 0 24 24" fill="none" xmlns="http://www.w3.org/2000/svg">
<path d="M10.5678 2.97464C10.1771 3.29424 9.9173 3.74617 9.83778 4.24464C9.80506 4.39841 9.73654 4.54231 9.63778 4.66464C9.54324 4.79174 9.41985 4.89457 9.27778 4.96464L8.48778 5.34464C7.85383 5.65486 7.2918 6.09427 6.83778 6.63464C5.43778 8.30464 5.43778 9.05464 5.43778 11.9046C5.43778 13.1946 4.06778 14.3646 3.70778 15.5246C3.48778 16.2146 3.36778 17.7746 5.18778 17.7746H18.7678C19.0339 17.7875 19.2989 17.7324 19.5378 17.6146C19.7763 17.4959 19.9822 17.3208 20.1378 17.1046C20.2858 16.8869 20.3785 16.6363 20.4078 16.3746C20.4309 16.1078 20.3861 15.8395 20.2778 15.5946C19.9178 14.5046 18.4878 13.2046 18.4878 11.9146C18.4878 11.0346 18.4878 10.3546 18.4878 9.78464" stroke="#1F1F1F" stroke-width="1.5" stroke-linecap="round" stroke-linejoin="round"/>
<path d="M15.2279 17.7746C15.2308 18.2021 15.1527 18.6262 14.9979 19.0246C14.8314 19.4202 14.5903 19.78 14.2879 20.0846C13.9834 20.3909 13.6199 20.6321 13.2194 20.7937C12.8189 20.9553 12.3897 21.0338 11.9579 21.0246C11.5254 21.0273 11.0967 20.9423 10.6979 20.7746C9.89781 20.4409 9.26172 19.8048 8.92798 19.0046C8.77111 18.6138 8.69295 18.1958 8.69798 17.7746" stroke="#1F1F1F" stroke-width="1.5" stroke-linecap="round" stroke-linejoin="round"/>
<path d="M15.228 7.97464C16.6087 7.97464 17.728 6.85535 17.728 5.47464C17.728 4.09393 16.6087 2.97464 15.228 2.97464C13.8473 2.97464 12.728 4.09393 12.728 5.47464C12.728 6.85535 13.8473 7.97464 15.228 7.97464Z" stroke="#1F1F1F" stroke-width="1.5"/>
</svg>
