<svg width="24" height="24" viewBox="0 0 24 24" fill="none" xmlns="http://www.w3.org/2000/svg">
<path d="M9.70602 12.7812L4.39 11.8281C3.96647 11.7094 3.59132 11.4599 3.31823 11.1152C3.04512 10.7704 2.88807 10.3482 2.86953 9.90869C2.851 9.46927 2.97193 9.03524 3.21503 8.66871C3.45811 8.30218 3.81092 8.02194 4.22294 7.86808L18.3335 2.87632C18.7065 2.74019 19.1107 2.71343 19.4983 2.79922C19.8861 2.885 20.2412 3.07974 20.522 3.36053C20.8027 3.64132 20.9976 3.99646 21.0834 4.38418C21.1691 4.77189 21.1423 5.17604 21.0062 5.54908L16.0144 19.9348C15.8571 20.3311 15.582 20.6696 15.2261 20.9047C14.8704 21.1397 14.451 21.2601 14.0247 21.2493C13.5985 21.2386 13.1857 21.0974 12.8422 20.8448C12.4987 20.5922 12.2409 20.2402 12.1036 19.8365L11.1898 14.265C11.1026 13.9053 10.918 13.5764 10.6562 13.3147C10.3946 13.053 10.0657 12.8684 9.70602 12.7812Z" stroke="#1F1F1F" stroke-width="1.5" stroke-linecap="round" stroke-linejoin="round"/>
<path d="M15.2773 8.80157L10.6982 13.3806" stroke="#1F1F1F" stroke-width="1.5" stroke-linecap="round" stroke-linejoin="round"/>
</svg>
