<svg width="24" height="24" viewBox="0 0 24 24" fill="none" xmlns="http://www.w3.org/2000/svg">
<path d="M22 10.37V15.25C21.9974 17.0394 21.2854 18.7548 20.0201 20.0201C18.7548 21.2854 17.0394 21.9974 15.25 22H8.75C6.9606 21.9974 5.24524 21.2854 3.97995 20.0201C2.71465 18.7548 2.00264 17.0394 2 15.25V8.75C2.00264 6.9606 2.71465 5.24524 3.97995 3.97995C5.24524 2.71465 6.9606 2.00264 8.75 2H13.62C13.8189 2 14.0097 2.07901 14.1503 2.21966C14.291 2.36031 14.37 2.55108 14.37 2.75C14.37 2.94891 14.291 3.13966 14.1503 3.28031C14.0097 3.42097 13.8189 3.5 13.62 3.5H8.75C7.35761 3.5 6.02225 4.05312 5.03768 5.03768C4.05312 6.02225 3.5 7.35761 3.5 8.75V11.25H6C6.36023 11.2482 6.7172 11.318 7.05023 11.4554C7.38326 11.5927 7.68569 11.7948 7.93997 12.05C8.45231 12.5706 8.74272 13.2696 8.75 14C8.75 14.3315 8.88166 14.6495 9.11608 14.8839C9.3505 15.1183 9.66847 15.25 9.99998 15.25H14C14.164 15.2507 14.3265 15.2182 14.4777 15.1546C14.6289 15.0911 14.7657 14.9977 14.88 14.88C15.114 14.6465 15.2469 14.3305 15.25 14C15.2474 13.6381 15.3166 13.2793 15.4539 12.9445C15.5912 12.6096 15.7936 12.3054 16.0495 12.0495C16.3054 11.7936 16.6096 11.5912 16.9445 11.4539C17.2793 11.3167 17.6381 11.2473 18 11.25H20.5V10.37C20.5 10.1711 20.579 9.98031 20.7197 9.83966C20.8603 9.699 21.0511 9.61999 21.25 9.61999C21.4489 9.61999 21.6397 9.699 21.7803 9.83966C21.921 9.98031 22 10.1711 22 10.37Z" fill="#1F1F1F"/>
<path d="M18.0302 7.89999C17.8621 7.89678 17.6961 7.86289 17.5402 7.79999C17.3864 7.72917 17.2447 7.63469 17.1202 7.51999L15.7202 6.11C15.6465 6.04134 15.5874 5.95853 15.5464 5.86653C15.5054 5.77453 15.4834 5.67523 15.4816 5.57452C15.4798 5.47382 15.4983 5.37378 15.5361 5.2804C15.5738 5.18701 15.6299 5.10218 15.7012 5.03096C15.7724 4.95974 15.8572 4.9036 15.9506 4.86588C16.044 4.82815 16.144 4.80963 16.2447 4.8114C16.3454 4.81318 16.4447 4.83521 16.5367 4.87621C16.6287 4.9172 16.7115 4.9763 16.7802 5.04999L18.0302 6.31L20.7202 3.62C20.8624 3.48752 21.0504 3.4154 21.2447 3.41882C21.439 3.42225 21.6244 3.50095 21.7618 3.63837C21.8992 3.77578 21.978 3.96117 21.9814 4.15547C21.9848 4.34977 21.9127 4.53782 21.7802 4.67999L18.9402 7.51999C18.8228 7.6388 18.6836 7.73386 18.5302 7.79999C18.3711 7.86387 18.2016 7.89778 18.0302 7.89999Z" fill="#1F1F1F"/>
</svg>
