<svg width="24" height="24" viewBox="0 0 24 24" fill="none" xmlns="http://www.w3.org/2000/svg">
<path d="M13.1661 21.2492C13.1661 21.4483 13.0869 21.6393 12.9461 21.7801C12.8053 21.9209 12.6144 22 12.4153 22H4.77717C4.57804 22 4.38701 21.9209 4.24621 21.7801C4.1054 21.6393 4.02637 21.4483 4.02637 21.2492C4.02637 17.1448 8.53117 13.9614 12.4053 13.9614C12.6044 13.9614 12.7953 14.0405 12.9361 14.1813C13.0769 14.3221 13.1561 14.5131 13.1561 14.7122L13.1661 21.2492Z" fill="#1F1F1F"/>
<path d="M17.1406 9.0762C16.7566 10.0143 16.0968 10.8137 15.2486 11.3686C14.4103 11.9297 13.4243 12.2294 12.4156 12.2296C11.7443 12.2296 11.0795 12.0972 10.4594 11.84C9.83935 11.5828 9.27611 11.2058 8.8019 10.7307C8.32768 10.2555 7.95184 9.69152 7.69586 9.07094C7.43987 8.45036 7.30875 7.78538 7.31007 7.11408C7.30891 6.10202 7.60868 5.11248 8.1711 4.27108C8.73751 3.43161 9.53811 2.77714 10.4735 2.38906C11.4085 2.00192 12.4374 1.90085 13.43 2.09865C14.4225 2.29645 15.3342 2.7842 16.0495 3.50023C16.7679 4.21365 17.253 5.12815 17.4409 6.12303C17.6379 7.11532 17.5334 8.14389 17.1406 9.0762Z" fill="#1F1F1F"/>
<path d="M19.2226 18.7465H15.2884C15.0893 18.7465 14.8983 18.6674 14.7575 18.5266C14.6167 18.3858 14.5376 18.1948 14.5376 17.9957C14.5376 17.7966 14.6167 17.6057 14.7575 17.4649C14.8983 17.3241 15.0893 17.2449 15.2884 17.2449H19.2226C19.4217 17.2449 19.6127 17.3241 19.7535 17.4649C19.8943 17.6057 19.9734 17.7966 19.9734 17.9957C19.9734 18.1948 19.8943 18.3858 19.7535 18.5266C19.6127 18.6674 19.4217 18.7465 19.2226 18.7465Z" fill="#1F1F1F"/>
</svg>
