<svg width="24" height="24" viewBox="0 0 24 24" fill="none" xmlns="http://www.w3.org/2000/svg">
<path d="M16.1514 12C16.1514 12.362 16.4449 12.6555 16.8069 12.6555C17.1689 12.6555 17.4624 12.362 17.4624 12C17.4624 11.638 17.1689 11.3445 16.8069 11.3445C16.4449 11.3445 16.1514 11.638 16.1514 12Z" stroke="#1F1F1F" stroke-width="1.5" stroke-linecap="round" stroke-linejoin="round"/>
<path d="M11.3442 12C11.3442 12.362 11.6377 12.6555 11.9997 12.6555C12.3617 12.6555 12.6552 12.362 12.6552 12C12.6552 11.638 12.3617 11.3445 11.9997 11.3445C11.6377 11.3445 11.3442 11.638 11.3442 12Z" stroke="#1F1F1F" stroke-width="1.5" stroke-linecap="round" stroke-linejoin="round"/>
<path d="M6.5376 12C6.5376 12.362 6.83108 12.6555 7.19309 12.6555C7.5551 12.6555 7.84858 12.362 7.84858 12C7.84858 11.638 7.5551 11.3445 7.19309 11.3445C6.83108 11.3445 6.5376 11.638 6.5376 12Z" stroke="#1F1F1F" stroke-width="1.5" stroke-linecap="round" stroke-linejoin="round"/>
<path d="M15.25 2.75H8.75C5.43629 2.75 2.75 5.43629 2.75 8.75V15.25C2.75 18.5637 5.43629 21.25 8.75 21.25H15.25C18.5637 21.25 21.25 18.5637 21.25 15.25V8.75C21.25 5.43629 18.5637 2.75 15.25 2.75Z" stroke="#1F1F1F" stroke-width="1.5"/>
</svg>
