<svg width="24" height="24" viewBox="0 0 24 24" fill="none" xmlns="http://www.w3.org/2000/svg">
<path d="M5.45012 16.92C4.34849 15.8766 3.47954 14.6123 2.90012 13.21C2.80107 12.9794 2.75 12.731 2.75 12.48C2.75 12.229 2.80107 11.9806 2.90012 11.75C3.66983 9.87608 4.96088 8.26226 6.62012 7.09998C8.19462 5.99969 10.0798 5.43202 12.0001 5.47998C13.3816 5.44566 14.7519 5.73684 16.0001 6.32998" stroke="#1F1F1F" stroke-width="1.5" stroke-linecap="round" stroke-linejoin="round"/>
<path d="M18.56 8.04999C19.6553 9.09282 20.5204 10.3531 21.1 11.75C21.199 11.9806 21.2501 12.229 21.2501 12.48C21.2501 12.731 21.199 12.9794 21.1 13.21C20.3303 15.0839 19.0392 16.6977 17.38 17.86C15.8055 18.9603 13.9203 19.5279 12 19.48C10.6185 19.5143 9.24821 19.2231 8 18.63" stroke="#1F1F1F" stroke-width="1.5" stroke-linecap="round" stroke-linejoin="round"/>
<path d="M8.71003 13.65C8.56936 13.2761 8.49819 12.8796 8.50003 12.48C8.50003 11.5518 8.86878 10.6615 9.52516 10.0051C10.1816 9.34876 11.0718 8.98002 12.0001 8.98002C12.3996 8.97817 12.7961 9.04934 13.1701 9.19002" stroke="#1F1F1F" stroke-width="1.5" stroke-linecap="round" stroke-linejoin="round"/>
<path d="M15.2901 11.31C15.4308 11.684 15.502 12.0805 15.5001 12.48C15.5001 13.4083 15.1314 14.2985 14.475 14.9549C13.8186 15.6112 12.9284 15.98 12.0001 15.98C11.6006 15.9818 11.2041 15.9107 10.8301 15.77" stroke="#1F1F1F" stroke-width="1.5" stroke-linecap="round" stroke-linejoin="round"/>
<path d="M3 20L19 4" stroke="#1F1F1F" stroke-width="1.5" stroke-linecap="round" stroke-linejoin="round"/>
</svg>
