<svg width="24" height="24" viewBox="0 0 24 24" fill="none" xmlns="http://www.w3.org/2000/svg">
<path d="M7.0498 14.0881V9.91184C7.0498 9.49649 7.19204 9.09814 7.44521 8.80445C7.69838 8.51075 8.04177 8.34575 8.39982 8.34575H10.2899C10.5266 8.34461 10.7591 8.2727 10.9649 8.13694L14.934 5.5059C15.139 5.37099 15.3709 5.30072 15.6067 5.30208C15.8424 5.30343 16.0738 5.37638 16.2776 5.51364C16.4815 5.65091 16.6509 5.84771 16.7688 6.08448C16.8868 6.32125 16.9492 6.58972 16.95 6.86318V17.1368C16.9492 17.4102 16.8868 17.6787 16.7688 17.9154C16.6509 18.1522 16.4815 18.3491 16.2776 18.4863C16.0738 18.6235 15.8424 18.6965 15.6067 18.6979C15.3709 18.6992 15.139 18.629 14.934 18.494L10.9649 15.863C10.7591 15.7272 10.5266 15.6553 10.2899 15.6542H8.39982C8.04177 15.6542 7.69838 15.4891 7.44521 15.1955C7.19204 14.9018 7.0498 14.5035 7.0498 14.0881Z" stroke="#1F1F1F" stroke-width="1.5" stroke-linecap="round" stroke-linejoin="round"/>
</svg>
