<svg width="24" height="24" viewBox="0 0 24 24" fill="none" xmlns="http://www.w3.org/2000/svg">
<path d="M20.6458 7.67537C20.1312 6.48878 19.3791 5.42015 18.4357 4.53537C17.4932 3.64816 16.3761 2.96703 15.1558 2.53537C13.7054 2.04098 12.1574 1.90281 10.6425 2.13256C9.12751 2.36231 7.69008 2.95322 6.45155 3.8554C5.21302 4.75757 4.20978 5.94453 3.5265 7.31603C2.84322 8.68753 2.49997 10.2033 2.52577 11.7354V20.1454C2.52402 20.3857 2.57096 20.6239 2.66377 20.8456C2.75658 21.0673 2.89331 21.2679 3.06575 21.4354C3.23539 21.6076 3.43787 21.7442 3.66114 21.8369C3.88442 21.9297 4.12396 21.9767 4.36573 21.9754H7.64576C7.88608 21.9754 8.12405 21.928 8.34608 21.8361C8.56811 21.7441 8.76984 21.6093 8.93977 21.4394C9.1097 21.2694 9.24447 21.0677 9.33644 20.8457C9.4284 20.6237 9.47578 20.3857 9.47578 20.1454V11.4454C9.47897 10.7778 9.74479 10.1384 10.2158 9.66536C10.6939 9.20873 11.3296 8.95394 11.9907 8.95394C12.6519 8.95394 13.2876 9.20873 13.7658 9.66536C14.0008 9.89832 14.1872 10.1756 14.3142 10.4812C14.4412 10.7867 14.5063 11.1145 14.5057 11.4454V20.1454C14.5057 20.6307 14.6986 21.0962 15.0418 21.4394C15.385 21.7826 15.8504 21.9754 16.3358 21.9754H19.6458C19.8861 21.9754 20.1241 21.928 20.3461 21.8361C20.5681 21.7441 20.7698 21.6093 20.9398 21.4394C21.1097 21.2694 21.2445 21.0677 21.3364 20.8457C21.4284 20.6237 21.4758 20.3857 21.4758 20.1454V11.4454C21.4623 10.1449 21.1797 8.86127 20.6458 7.67537ZM7.95576 20.1454C7.95674 20.1878 7.9493 20.2299 7.93385 20.2694C7.9184 20.3089 7.89522 20.3449 7.86573 20.3754C7.83459 20.4074 7.79731 20.4328 7.75605 20.45C7.7148 20.4672 7.67043 20.4758 7.62574 20.4754H4.36573C4.32088 20.4771 4.27619 20.469 4.23475 20.4517C4.19331 20.4345 4.15612 20.4084 4.12574 20.3754C4.09292 20.347 4.06694 20.3115 4.04963 20.2717C4.03233 20.2319 4.02416 20.1888 4.02577 20.1454V15.4554H7.95576V20.1454ZM19.9558 20.1454C19.9532 20.2321 19.9177 20.3146 19.8563 20.3759C19.795 20.4373 19.7125 20.4728 19.6257 20.4754H16.3458C16.259 20.4728 16.1765 20.4373 16.1152 20.3759C16.0538 20.3146 16.0183 20.2321 16.0158 20.1454V15.4554H19.9458L19.9558 20.1454Z" fill="#1F1F1F"/>
</svg>
