<svg width="24" height="24" viewBox="0 0 24 24" fill="none" xmlns="http://www.w3.org/2000/svg">
<path d="M10.832 17.4931L6.31862 20.6781C5.92462 20.8997 5.47063 20.9911 5.02158 20.939C4.57255 20.8869 4.1515 20.6941 3.81866 20.3882C3.48584 20.0823 3.25828 19.679 3.16859 19.236C3.07888 18.7929 3.13161 18.3328 3.31923 17.9215L9.94646 4.03864C10.1186 3.6686 10.3929 3.35544 10.7371 3.13601C11.0811 2.91657 11.4807 2.79999 11.8889 2.79999C12.297 2.79999 12.6967 2.91657 13.0408 3.13601C13.3849 3.35544 13.6593 3.6686 13.8314 4.03864L20.6586 18.1216C20.8615 18.5392 20.9231 19.0115 20.8343 19.4673C20.7456 19.923 20.5111 20.3375 20.1663 20.6486C19.8214 20.9595 19.385 21.15 18.9224 21.1915C18.46 21.2328 17.9966 21.1229 17.602 20.8782L12.8888 17.4931C12.5734 17.3206 12.2197 17.2301 11.8603 17.2301C11.5009 17.2301 11.1473 17.3206 10.832 17.4931Z" stroke="#1F1F1F" stroke-width="1.5" stroke-linecap="round" stroke-linejoin="round"/>
</svg>
