<svg width="24" height="24" viewBox="0 0 24 24" fill="none" xmlns="http://www.w3.org/2000/svg">
<path d="M21.9251 8.32002C21.7142 7.9921 21.4165 7.72902 21.0651 7.56001C20.7122 7.39239 20.3196 7.32608 19.9311 7.36846C19.5427 7.41083 19.1736 7.56025 18.8651 7.80003L16.3451 9.80003V8.90001C16.3392 8.04408 16.0821 7.20873 15.6057 6.49764C15.1292 5.78654 14.4545 5.23101 13.6651 4.90001C13.1352 4.68235 12.568 4.57027 11.9951 4.57002H6.09513C5.52211 4.56844 4.95446 4.68059 4.42512 4.90001C3.36159 5.34655 2.51713 6.19461 2.07511 7.26003C1.85648 7.78611 1.74433 8.35032 1.74512 8.92003V15.09C1.74512 15.6608 1.85769 16.226 2.07642 16.7532C2.29515 17.2804 2.61575 17.7593 3.01981 18.1624C3.42388 18.5655 3.90348 18.885 4.43119 19.1025C4.9589 19.32 5.52435 19.4313 6.09513 19.43H11.9251C13.0757 19.4274 14.1789 18.971 14.9951 18.16C15.4007 17.7583 15.7227 17.2801 15.9424 16.7532C16.1621 16.2262 16.2752 15.6609 16.2751 15.09V14.19L18.7951 16.19C19.1194 16.4462 19.513 16.5994 19.9251 16.63H20.1751C20.4874 16.6312 20.7956 16.5593 21.0751 16.42C21.4285 16.2491 21.7266 15.9821 21.9353 15.6496C22.144 15.3171 22.2548 14.9326 22.2551 14.54V9.39003C22.2397 9.01079 22.126 8.64207 21.9251 8.32002ZM8.92512 15.74C8.77678 15.74 8.63177 15.696 8.50843 15.6136C8.38509 15.5312 8.28898 15.4141 8.23222 15.277C8.17545 15.14 8.16058 14.9892 8.18952 14.8437C8.21846 14.6982 8.28989 14.5646 8.39478 14.4597C8.49967 14.3548 8.6333 14.2834 8.77879 14.2544C8.92427 14.2255 9.07509 14.2403 9.21214 14.2971C9.34918 14.3539 9.4663 14.45 9.54871 14.5733C9.63112 14.6967 9.67512 14.8417 9.67512 14.99C9.67512 15.1889 9.5961 15.3797 9.45545 15.5203C9.3148 15.661 9.12403 15.74 8.92512 15.74ZM11.0951 11.22C10.9794 11.4942 10.8054 11.7399 10.5851 11.94C10.3744 12.1475 10.1173 12.3018 9.83512 12.39C9.80002 12.4103 9.76941 12.4375 9.74512 12.47C9.7365 12.5129 9.7365 12.5571 9.74512 12.6V12.95C9.74512 13.1489 9.66611 13.3397 9.52546 13.4804C9.38481 13.621 9.19404 13.7 8.99512 13.7C8.79621 13.7 8.60544 13.621 8.46479 13.4804C8.32414 13.3397 8.24512 13.1489 8.24512 12.95V12.63C8.2503 12.2819 8.35979 11.9433 8.55946 11.6581C8.75912 11.3728 9.03978 11.154 9.36512 11.03C9.45231 11.0015 9.53361 10.9575 9.60511 10.9C9.66614 10.8407 9.71387 10.7692 9.74512 10.69C9.78068 10.6151 9.79781 10.5329 9.79511 10.45C9.79553 10.3631 9.77495 10.2773 9.73511 10.2C9.6812 10.0983 9.60197 10.0122 9.5051 9.95003C9.40334 9.87911 9.2873 9.83132 9.16511 9.81001C8.97146 9.77431 8.77147 9.8024 8.59513 9.89003C8.43078 9.97855 8.30057 10.1193 8.22511 10.29C8.14033 10.4706 7.98796 10.6106 7.80088 10.6798C7.6138 10.749 7.40699 10.7419 7.22511 10.66C7.1348 10.6191 7.05351 10.5606 6.98594 10.4881C6.91837 10.4155 6.86587 10.3302 6.83146 10.2372C6.79705 10.1442 6.78144 10.0453 6.7855 9.94624C6.78956 9.84717 6.81321 9.74989 6.85511 9.66002C7.07234 9.18382 7.44172 8.79336 7.90513 8.55003C8.36975 8.31027 8.90017 8.22946 9.41511 8.32002C9.77511 8.37343 10.1176 8.51042 10.4151 8.72002C10.7044 8.932 10.9434 9.20517 11.1151 9.52004C11.2448 9.79585 11.3162 10.0954 11.3251 10.4C11.3055 10.6862 11.2273 10.9654 11.0951 11.22Z" fill="#1F1F1F"/>
</svg>
