<svg width="24" height="24" viewBox="0 0 24 24" fill="none" xmlns="http://www.w3.org/2000/svg">
<path d="M20.2704 7.79619L16.6595 9.67155L12.2681 11.908C12.1863 11.9539 12.094 11.978 12.0002 11.978C11.9064 11.978 11.8141 11.9539 11.7323 11.908L7.34094 9.67155L3.73 7.79619C3.63203 7.74658 3.54973 7.67079 3.49223 7.57723C3.43473 7.48367 3.4043 7.37601 3.4043 7.26619C3.4043 7.15638 3.43473 7.04872 3.49223 6.95516C3.54973 6.8616 3.63203 6.78581 3.73 6.7362L11.7439 2.81076C11.8235 2.77081 11.9112 2.75 12.0002 2.75C12.0892 2.75 12.1769 2.77081 12.2565 2.81076L20.2704 6.7362C20.3684 6.78581 20.4507 6.8616 20.5082 6.95516C20.5657 7.04872 20.5961 7.15638 20.5961 7.26619C20.5961 7.37601 20.5657 7.48367 20.5082 7.57723C20.4507 7.67079 20.3684 7.74658 20.2704 7.79619Z" stroke="#1F1F1F" stroke-width="1.5" stroke-linecap="round" stroke-linejoin="round"/>
<path d="M7.34094 9.67154L3.73 11.3955C3.63203 11.4451 3.54973 11.5209 3.49223 11.6144C3.43473 11.708 3.4043 11.8156 3.4043 11.9255C3.4043 12.0353 3.43473 12.1429 3.49223 12.2365C3.54973 12.3301 3.63203 12.4059 3.73 12.4555L7.34094 14.3308L11.7323 16.5673C11.8141 16.6132 11.9063 16.6373 12.0002 16.6373C12.094 16.6373 12.1863 16.6132 12.2681 16.5673L16.6594 14.3308L20.2704 12.4555C20.3571 12.4024 20.4288 12.3279 20.4785 12.2392C20.5282 12.1505 20.5543 12.0505 20.5543 11.9488C20.5543 11.8471 20.5282 11.7471 20.4785 11.6583C20.4288 11.5696 20.3571 11.4952 20.2704 11.4421L16.6594 9.67154" stroke="#1F1F1F" stroke-width="1.5" stroke-linecap="round" stroke-linejoin="round"/>
<path d="M7.34094 14.3308L3.73 16.0548C3.63203 16.1044 3.54973 16.1802 3.49223 16.2737C3.43473 16.3673 3.4043 16.475 3.4043 16.5848C3.4043 16.6946 3.43473 16.8022 3.49223 16.8958C3.54973 16.9894 3.63203 17.0652 3.73 17.1148L11.7323 21.18C11.8141 21.2259 11.9063 21.25 12.0002 21.25C12.094 21.25 12.1863 21.2259 12.2681 21.18L20.2704 17.1148C20.3571 17.0617 20.4288 16.9872 20.4785 16.8985C20.5282 16.8098 20.5543 16.7098 20.5543 16.6081C20.5543 16.5064 20.5282 16.4064 20.4785 16.3176C20.4288 16.2289 20.3571 16.1545 20.2704 16.1014L16.6594 14.3308" stroke="#1F1F1F" stroke-width="1.5" stroke-linecap="round" stroke-linejoin="round"/>
</svg>
