<svg width="24" height="24" viewBox="0 0 24 24" fill="none" xmlns="http://www.w3.org/2000/svg">
<path d="M21.1843 7.7649C20.9351 7.23135 20.5308 6.7853 20.0243 6.4849L13.5643 2.4849C13.0897 2.19088 12.5425 2.0351 11.9843 2.0351C11.426 2.0351 10.8788 2.19088 10.4043 2.4849L3.92426 6.4849C3.43379 6.79727 3.04469 7.24542 2.80426 7.77488C2.56376 8.30708 2.48384 8.89791 2.57428 9.47489L4.24427 19.4749C4.3637 20.1674 4.72241 20.796 5.25788 21.251C5.79334 21.7061 6.47158 21.9587 7.17426 21.9649H16.8043C17.5143 21.9566 18.2011 21.7101 18.7543 21.2649C19.2875 20.8042 19.6415 20.1705 19.7543 19.4749L21.4243 9.47489C21.5191 8.89374 21.4355 8.29749 21.1843 7.7649ZM16.4543 13.7649C15.5133 15.4804 14.0487 16.8504 12.2743 17.6749C12.1919 17.7215 12.0989 17.7456 12.0043 17.7449C11.9096 17.7466 11.8162 17.7224 11.7343 17.6749C9.95784 16.8533 8.49248 15.4826 7.55426 13.7649C7.20638 13.0837 7.07274 12.3132 7.1709 11.5547C7.26907 10.7962 7.59443 10.0851 8.10425 9.51489C8.40798 9.24998 8.77086 9.06176 9.16236 8.96606C9.55386 8.87037 9.96256 8.86994 10.3543 8.96487C10.9994 9.10742 11.5794 9.45895 12.0043 9.96487C12.4292 9.45895 13.0092 9.10742 13.6543 8.96487C14.046 8.86994 14.4547 8.87037 14.8462 8.96606C15.2377 9.06176 15.6005 9.24998 15.9043 9.51489C16.4042 10.0844 16.7234 10.7898 16.8214 11.5412C16.9193 12.2927 16.7916 13.0563 16.4543 13.7349V13.7649Z" fill="#1F1F1F"/>
</svg>
