<svg width="24" height="24" viewBox="0 0 24 24" fill="none" xmlns="http://www.w3.org/2000/svg">
<path d="M19.6202 2.72503H4.39018C3.76332 2.71969 3.15988 2.96292 2.71195 3.40148C2.26402 3.84004 2.00807 4.43823 2.00016 5.06506V7.18505C1.99422 7.69161 2.15009 8.18682 2.44505 8.59869C2.74001 9.01055 3.15868 9.31756 3.64018 9.47503V17.335C3.64083 17.8553 3.74557 18.3701 3.94822 18.8493C4.15087 19.3284 4.44734 19.7622 4.82017 20.1251C5.57422 20.8677 6.59183 21.2812 7.65015 21.275H16.3602C17.4185 21.2812 18.4361 20.8677 19.1902 20.1251C19.563 19.7622 19.8595 19.3284 20.0621 18.8493C20.2648 18.3701 20.3695 17.8553 20.3702 17.335V9.47503C20.8417 9.31849 21.2524 9.01834 21.5447 8.61663C21.837 8.21493 21.9963 7.73183 22.0002 7.23504V5.11505C22.0042 4.80092 21.9455 4.48911 21.8274 4.19799C21.7093 3.90687 21.5343 3.64228 21.3127 3.41967C21.091 3.19707 20.8271 3.02095 20.5365 2.90167C20.2458 2.78238 19.9343 2.72234 19.6202 2.72503ZM11.9302 18.3751C11.7819 18.3751 11.6369 18.3311 11.5135 18.2487C11.3902 18.1662 11.294 18.0491 11.2373 17.912C11.1805 17.775 11.1657 17.6242 11.1946 17.4787C11.2235 17.3332 11.295 17.1996 11.3999 17.0947C11.5048 16.9898 11.6384 16.9184 11.7839 16.8895C11.9294 16.8605 12.0801 16.8754 12.2172 16.9321C12.3542 16.9889 12.4714 17.085 12.5538 17.2084C12.6362 17.3317 12.6802 17.4767 12.6802 17.6251C12.6802 17.824 12.6012 18.0147 12.4605 18.1554C12.3199 18.296 12.1291 18.3751 11.9302 18.3751ZM14.0902 13.855C13.9745 14.1292 13.8004 14.3749 13.5802 14.575C13.3665 14.7785 13.1103 14.9322 12.8302 15.025L12.7502 15.105C12.7364 15.1473 12.7364 15.1928 12.7502 15.235V15.585C12.7502 15.7839 12.6712 15.9747 12.5305 16.1154C12.3899 16.256 12.1991 16.335 12.0002 16.335C11.8013 16.335 11.6105 16.256 11.4698 16.1154C11.3292 15.9747 11.2502 15.7839 11.2502 15.585V15.215C11.2549 14.8557 11.3701 14.5066 11.5802 14.215C11.7768 13.931 12.0561 13.7145 12.3802 13.595C12.4391 13.563 12.493 13.5226 12.5402 13.475C12.601 13.4195 12.6488 13.3512 12.6802 13.275C12.712 13.1954 12.729 13.1107 12.7302 13.025C12.7306 12.9413 12.71 12.8587 12.6702 12.785C12.6134 12.6854 12.5347 12.5999 12.4402 12.535C12.3087 12.4467 12.1563 12.3947 11.9983 12.3842C11.8402 12.3736 11.6822 12.405 11.5402 12.475C11.3711 12.5605 11.2368 12.7018 11.1602 12.8751C11.1214 12.9683 11.0642 13.0527 10.9919 13.1233C10.9197 13.1939 10.834 13.2491 10.7399 13.2858C10.6458 13.3224 10.5453 13.3396 10.4443 13.3365C10.3434 13.3333 10.2442 13.3098 10.1525 13.2674C10.0609 13.2249 9.97875 13.1644 9.91108 13.0895C9.84341 13.0145 9.79155 12.9267 9.75864 12.8312C9.72574 12.7358 9.71248 12.6346 9.71961 12.5339C9.72675 12.4331 9.75415 12.3349 9.80018 12.2451C10.0197 11.7715 10.3901 11.384 10.8533 11.1433C11.3165 10.9026 11.8465 10.8224 12.3602 10.915C12.7103 10.9747 13.042 11.1138 13.3298 11.3219C13.6176 11.5299 13.8538 11.8013 14.0202 12.115C14.1539 12.3899 14.2288 12.6896 14.2402 12.9951C14.251 13.2891 14.1999 13.582 14.0902 13.855ZM20.5002 7.18505C20.4989 7.29885 20.475 7.41124 20.43 7.51574C20.3849 7.62025 20.3196 7.71475 20.2377 7.79382C20.1559 7.87288 20.0591 7.93491 19.9531 7.97631C19.8471 8.01772 19.7339 8.03768 19.6202 8.03503H4.39018C4.27592 8.03769 4.16224 8.01778 4.05567 7.9765C3.9491 7.93521 3.8517 7.87336 3.76905 7.79443C3.6864 7.71549 3.62012 7.62104 3.57398 7.51647C3.52784 7.41191 3.50276 7.29931 3.50016 7.18505V5.06506C3.50274 4.95125 3.52791 4.83906 3.57417 4.73504C3.62043 4.63102 3.68687 4.53724 3.76966 4.4591C3.85245 4.38096 3.94992 4.32002 4.05644 4.27984C4.16295 4.23967 4.2764 4.22103 4.39018 4.22503H19.6202C19.7335 4.22102 19.8464 4.23973 19.9524 4.28002C20.0583 4.32032 20.1552 4.38138 20.2371 4.45965C20.3191 4.53792 20.3847 4.63181 20.4298 4.73577C20.475 4.83974 20.4989 4.95171 20.5002 5.06506V7.18505Z" fill="#1F1F1F"/>
</svg>
