<svg width="24" height="24" viewBox="0 0 24 24" fill="none" xmlns="http://www.w3.org/2000/svg">
<path d="M21.9497 10.105V9.95505C21.4732 7.65096 20.2201 5.58033 18.3998 4.08952C16.5795 2.59872 14.3025 1.77815 11.9497 1.76505C9.34598 1.75862 6.83957 2.75403 4.94969 4.54504L4.73973 4.73505C4.7355 4.75144 4.7355 4.76865 4.73973 4.78505C3.3338 6.19356 2.36914 7.98158 1.9641 9.93004C1.55905 11.8785 1.73122 13.9028 2.45934 15.7549C3.18745 17.6071 4.43995 19.2066 6.06346 20.3576C7.68697 21.5086 9.61098 22.1611 11.5997 22.235H11.9998C14.7174 22.2324 17.323 21.1516 19.2446 19.23C21.1663 17.3083 22.2471 14.7027 22.2498 11.985C22.2095 11.3503 22.109 10.7208 21.9497 10.105ZM12.0098 20.765C11.6418 19.6538 11.4362 18.4951 11.3997 17.325C11.5097 15.805 10.1898 15.665 9.61974 15.605C8.75974 15.515 8.18968 15.455 8.18968 13.725C8.21868 12.8266 8.30891 11.9312 8.4597 11.045C8.7897 8.74504 9.15973 6.18504 6.73973 4.93504C8.23297 3.84808 10.0328 3.26332 11.8798 3.26505C12.5532 3.26306 13.2244 3.34025 13.8798 3.49504C13.9251 3.99884 13.8637 4.50654 13.6997 4.98505C12.5397 5.31505 12.5198 6.83504 12.4998 8.60504C12.5428 9.5878 12.4417 10.5716 12.1997 11.525C12.0173 11.9466 11.9938 12.42 12.1336 12.8575C12.2733 13.2951 12.5668 13.6672 12.9597 13.905C13.5052 14.2241 14.128 14.3867 14.7598 14.375C15.2522 14.3855 15.7416 14.298 16.2 14.1178C16.6583 13.9376 17.0763 13.6681 17.4297 13.325C18.0238 12.7308 18.4157 11.9646 18.5497 11.135C18.5792 11.027 18.5993 10.9166 18.6098 10.805C18.7052 10.7835 18.8042 10.7835 18.8997 10.805C19.1797 10.805 19.5497 10.805 19.8997 10.865H20.5197C20.6871 12.0901 20.592 13.3368 20.2409 14.5223C19.8897 15.7078 19.2904 16.8051 18.4828 17.7414C17.6752 18.6776 16.6777 19.4314 15.5565 19.9527C14.4354 20.474 13.2161 20.7509 11.9798 20.765H12.0098Z" fill="#1F1F1F"/>
</svg>
