<svg width="24" height="24" viewBox="0 0 24 24" fill="none" xmlns="http://www.w3.org/2000/svg">
<path d="M21.93 8.33003C21.7226 7.99665 21.4242 7.72948 21.07 7.56001C20.717 7.39239 20.3244 7.32608 19.936 7.36846C19.5476 7.41083 19.1785 7.56025 18.87 7.80003L16.35 9.80003V8.90001C16.3441 8.04408 16.087 7.20873 15.6106 6.49764C15.1341 5.78654 14.4593 5.23101 13.67 4.90001C13.1401 4.68235 12.5728 4.57027 12 4.57002H6.09999C5.52697 4.56844 4.95934 4.68059 4.42999 4.90001C3.36646 5.34655 2.52201 6.19461 2.07999 7.26003C1.86136 7.78611 1.74921 8.35032 1.75 8.92003V15.09C1.75 15.6608 1.86258 16.226 2.08131 16.7532C2.30004 17.2804 2.62062 17.7593 3.02469 18.1624C3.42875 18.5655 3.90837 18.885 4.43608 19.1025C4.96379 19.32 5.52921 19.4313 6.09999 19.43H11.93C13.0806 19.4274 14.1838 18.971 15 18.16C15.4056 17.7583 15.7276 17.2801 15.9473 16.7532C16.167 16.2262 16.2801 15.6609 16.28 15.09V14.19L18.8 16.19C19.089 16.42 19.4343 16.5685 19.8 16.62H20.05C20.3623 16.6212 20.6705 16.5493 20.95 16.41C21.3474 16.2541 21.6889 15.9824 21.93 15.63C22.1408 15.2983 22.2519 14.9131 22.25 14.52V9.37001C22.2356 9.00141 22.1253 8.64296 21.93 8.33003ZM11.87 12.11C11.7294 12.2505 11.5387 12.3294 11.34 12.3294C11.1412 12.3294 10.9506 12.2505 10.81 12.11L9.81 11.11V14.49C9.81 14.6889 9.73097 14.8797 9.59032 15.0203C9.44966 15.161 9.25891 15.24 9.06 15.24C8.86108 15.24 8.67031 15.161 8.52966 15.0203C8.38901 14.8797 8.31 14.6889 8.31 14.49V11.11L7.31 12.11C7.24105 12.1808 7.15864 12.237 7.06761 12.2754C6.97658 12.3138 6.87879 12.3336 6.78 12.3336C6.6812 12.3336 6.58341 12.3138 6.49238 12.2754C6.40136 12.237 6.31894 12.1808 6.25 12.11C6.10955 11.9694 6.03065 11.7788 6.03065 11.58C6.03065 11.3813 6.10955 11.1907 6.25 11.05L8.25 9.05003C8.36318 8.93788 8.49519 8.84647 8.64 8.78002C8.78955 8.7205 8.94903 8.68997 9.10998 8.69002C9.26885 8.68806 9.4264 8.71903 9.57269 8.78099C9.71899 8.84295 9.85086 8.93457 9.95999 9.05003L11.96 11.05C12.0217 11.1279 12.0673 11.2172 12.0942 11.3129C12.1211 11.4085 12.1288 11.5086 12.1167 11.6072C12.1046 11.7058 12.073 11.8011 12.0238 11.8874C11.9746 11.9737 11.9087 12.0494 11.83 12.11H11.87Z" fill="#1F1F1F"/>
</svg>
