<svg width="24" height="24" viewBox="0 0 24 24" fill="none" xmlns="http://www.w3.org/2000/svg">
<path d="M13.3085 17.8862C13.3085 18.2332 13.1707 18.5659 12.9253 18.8113C12.68 19.0567 12.3472 19.1945 12.0002 19.1945C11.6532 19.1945 11.3204 19.0567 11.0751 18.8113C10.8297 18.5659 10.6919 18.2332 10.6919 17.8862C10.6919 17.5392 10.8297 17.2064 11.0751 16.961C11.3204 16.7157 11.6532 16.5778 12.0002 16.5778C12.3472 16.5778 12.68 16.7157 12.9253 16.961C13.1707 17.2064 13.3085 17.5392 13.3085 17.8862Z" stroke="#1F1F1F" stroke-width="1.5" stroke-linecap="round" stroke-linejoin="round"/>
<path d="M8.29736 14.1836C8.7834 13.697 9.36059 13.311 9.99591 13.0476C10.6312 12.7842 11.3122 12.6487 12 12.6487C12.6877 12.6487 13.3687 12.7842 14.0041 13.0476C14.6394 13.311 15.2166 13.697 15.7026 14.1836" stroke="#1F1F1F" stroke-width="1.5" stroke-linecap="round" stroke-linejoin="round"/>
<path d="M5.52344 11.4098C6.37389 10.5593 7.38355 9.8846 8.49476 9.42428C9.60597 8.96397 10.797 8.72705 11.9998 8.72705C13.2026 8.72705 14.3936 8.96397 15.5048 9.42428C16.616 9.8846 17.6257 10.5593 18.4761 11.4098" stroke="#1F1F1F" stroke-width="1.5" stroke-linecap="round" stroke-linejoin="round"/>
<path d="M2.75 8.63614C5.20351 6.18337 8.53074 4.80548 12 4.80548C15.4693 4.80548 18.7965 6.18337 21.25 8.63614" stroke="#1F1F1F" stroke-width="1.5" stroke-linecap="round" stroke-linejoin="round"/>
</svg>
