<svg width="24" height="24" viewBox="0 0 24 24" fill="none" xmlns="http://www.w3.org/2000/svg">
<path d="M19.6202 2.72503H4.39018C3.76332 2.71969 3.15988 2.96292 2.71195 3.40148C2.26402 3.84004 2.00807 4.43823 2.00016 5.06506V7.18505C1.99422 7.69161 2.15009 8.18682 2.44505 8.59869C2.74001 9.01055 3.15868 9.31756 3.64018 9.47503V17.335C3.64083 17.8553 3.74557 18.3701 3.94822 18.8493C4.15087 19.3284 4.44734 19.7622 4.82017 20.1251C5.57422 20.8677 6.59183 21.2812 7.65015 21.275H16.3602C17.4185 21.2812 18.4361 20.8677 19.1902 20.1251C19.563 19.7622 19.8595 19.3284 20.0621 18.8493C20.2648 18.3701 20.3695 17.8553 20.3702 17.335V9.47503C20.8417 9.31849 21.2524 9.01834 21.5447 8.61663C21.837 8.21493 21.9963 7.73183 22.0002 7.23504V5.11505C22.0042 4.80092 21.9455 4.48911 21.8274 4.19799C21.7093 3.90687 21.5343 3.64228 21.3127 3.41967C21.091 3.19707 20.8271 3.02095 20.5365 2.90167C20.2458 2.78238 19.9343 2.72234 19.6202 2.72503ZM14.5402 16.095C14.6109 16.164 14.6672 16.2464 14.7056 16.3374C14.744 16.4284 14.7638 16.5263 14.7638 16.6251C14.7638 16.7238 14.744 16.8216 14.7056 16.9127C14.6672 17.0037 14.6109 17.0861 14.5402 17.155C14.472 17.2266 14.3897 17.2831 14.2984 17.321C14.2071 17.3589 14.109 17.3773 14.0102 17.3751C13.9117 17.3755 13.814 17.3563 13.723 17.3185C13.632 17.2807 13.5494 17.2251 13.4802 17.155L12.0002 15.6851L10.5402 17.145C10.472 17.2165 10.3897 17.2731 10.2984 17.311C10.2071 17.3489 10.109 17.3673 10.0102 17.365C9.91163 17.3655 9.81398 17.3463 9.72297 17.3085C9.63196 17.2707 9.54942 17.2151 9.48017 17.145C9.33972 17.0044 9.26084 16.8138 9.26084 16.615C9.26084 16.4163 9.33972 16.2256 9.48017 16.085L10.9402 14.6251L9.48017 13.165C9.34769 13.0229 9.27557 12.8348 9.279 12.6405C9.28243 12.4462 9.36113 12.2608 9.49854 12.1234C9.63596 11.986 9.82133 11.9073 10.0157 11.9039C10.21 11.9004 10.398 11.9726 10.5402 12.105L12.0002 13.5651L13.4802 12.095C13.6208 11.9546 13.8114 11.8757 14.0102 11.8757C14.2089 11.8757 14.3996 11.9546 14.5402 12.095C14.6109 12.164 14.6672 12.2464 14.7056 12.3374C14.744 12.4284 14.7638 12.5263 14.7638 12.6251C14.7638 12.7238 14.744 12.8216 14.7056 12.9127C14.6672 13.0037 14.6109 13.0861 14.5402 13.155L13.0702 14.6251L14.5402 16.095ZM20.5402 7.18505C20.5389 7.29885 20.515 7.41124 20.47 7.51574C20.4249 7.62025 20.3596 7.71475 20.2777 7.79382C20.1959 7.87288 20.0991 7.93491 19.9931 7.97631C19.8871 8.01772 19.774 8.03768 19.6602 8.03503H4.39018C4.27592 8.03769 4.16224 8.01778 4.05567 7.9765C3.9491 7.93521 3.8517 7.87336 3.76905 7.79443C3.6864 7.71549 3.62012 7.62104 3.57398 7.51647C3.52784 7.41191 3.50276 7.29931 3.50016 7.18505V5.06506C3.50274 4.95125 3.52791 4.83906 3.57417 4.73504C3.62043 4.63102 3.68687 4.53724 3.76966 4.4591C3.85245 4.38096 3.94992 4.32002 4.05644 4.27984C4.16295 4.23967 4.2764 4.22103 4.39018 4.22503H19.6202C19.7335 4.22102 19.8464 4.23973 19.9524 4.28002C20.0583 4.32032 20.1552 4.38138 20.2371 4.45965C20.3191 4.53792 20.3847 4.63181 20.4298 4.73577C20.475 4.83974 20.4989 4.95171 20.5002 5.06506L20.5402 7.18505Z" fill="#1F1F1F"/>
</svg>
