<svg width="24" height="24" viewBox="0 0 24 24" fill="none" xmlns="http://www.w3.org/2000/svg">
<path d="M13.1813 21.2492C13.1813 21.4483 13.1021 21.6393 12.9613 21.7801C12.8205 21.9209 12.6296 22 12.4305 22H4.7923C4.59317 22 4.40214 21.9209 4.26134 21.7801C4.12053 21.6393 4.0415 21.4483 4.0415 21.2492C4.0415 17.1448 8.5463 13.9614 12.4205 13.9614C12.6196 13.9614 12.8105 14.0405 12.9513 14.1813C13.0921 14.3221 13.1713 14.5131 13.1713 14.7122L13.1813 21.2492Z" fill="#1F1F1F"/>
<path d="M17.1553 9.0762C16.7713 10.0143 16.1115 10.8137 15.2633 11.3686C14.425 11.9297 13.439 12.2294 12.4303 12.2296C11.759 12.2296 11.0942 12.0972 10.4741 11.84C9.85401 11.5828 9.29077 11.2058 8.81655 10.7307C8.34233 10.2555 7.96649 9.69152 7.71051 9.07094C7.45453 8.45036 7.32341 7.78538 7.32472 7.11408C7.32356 6.10202 7.62333 5.11248 8.18575 4.27108C8.75216 3.43161 9.55276 2.77714 10.4881 2.38906C11.4232 2.00192 12.4521 1.90085 13.4447 2.09865C14.4372 2.29645 15.3489 2.7842 16.0642 3.50023C16.7826 4.21365 17.2677 5.12815 17.4555 6.12303C17.6526 7.11532 17.5481 8.14389 17.1553 9.0762Z" fill="#1F1F1F"/>
<path d="M19.9585 17.9858C19.9599 18.0847 19.9414 18.1829 19.9041 18.2746C19.8669 18.3663 19.8116 18.4497 19.7416 18.5197C19.6716 18.5896 19.5884 18.6449 19.4967 18.6821C19.405 18.7194 19.3067 18.7379 19.2077 18.7366H17.8463V20.088C17.8463 20.2871 17.7672 20.4781 17.6264 20.6189C17.4856 20.7597 17.2946 20.8388 17.0955 20.8388C16.8963 20.8388 16.7054 20.7597 16.5646 20.6189C16.4238 20.4781 16.3447 20.2871 16.3447 20.088V18.7265H14.9832C14.7841 18.7265 14.5932 18.6474 14.4524 18.5066C14.3116 18.3658 14.2324 18.1749 14.2324 17.9757C14.2324 17.7766 14.3116 17.5856 14.4524 17.4448C14.5932 17.304 14.7841 17.2249 14.9832 17.2249H16.3847V15.8635C16.3847 15.6644 16.4639 15.4734 16.6047 15.3326C16.7455 15.1918 16.9364 15.1127 17.1356 15.1127C17.3347 15.1127 17.5256 15.1918 17.6664 15.3326C17.8072 15.4734 17.8864 15.6644 17.8864 15.8635V17.2249H19.2478C19.4416 17.2353 19.624 17.3203 19.7565 17.4621C19.889 17.604 19.9614 17.7917 19.9585 17.9858Z" fill="#1F1F1F"/>
</svg>
