<svg width="24" height="24" viewBox="0 0 24 24" fill="none" xmlns="http://www.w3.org/2000/svg">
<path d="M8.03571 15.9643C8.03571 14.5047 6.85247 13.3214 5.39286 13.3214C3.93325 13.3214 2.75 14.5047 2.75 15.9643V18.6071C2.75 20.0667 3.93325 21.25 5.39286 21.25C6.85247 21.25 8.03571 20.0667 8.03571 18.6071V15.9643Z" stroke="#1F1F1F" stroke-width="1.5" stroke-linecap="round" stroke-linejoin="round"/>
<path d="M15.9644 18.6071C15.9644 20.0668 17.1477 21.25 18.6073 21.25C20.0669 21.25 21.2502 20.0668 21.2502 18.6071V15.9643C21.2502 14.5047 20.0669 13.3214 18.6073 13.3214C17.1477 13.3214 15.9644 14.5047 15.9644 15.9643V18.6071Z" stroke="#1F1F1F" stroke-width="1.5" stroke-linecap="round" stroke-linejoin="round"/>
<path d="M21.25 18.6071V12C21.25 9.54675 20.2755 7.19397 18.5408 5.45926C16.8061 3.72455 14.4533 2.75 12 2.75C9.54675 2.75 7.19397 3.72455 5.45926 5.45926C3.72455 7.19397 2.75 9.54675 2.75 12V18.6071" stroke="#1F1F1F" stroke-width="1.5" stroke-linecap="round" stroke-linejoin="round"/>
</svg>
