<svg width="24" height="24" viewBox="0 0 24 24" fill="none" xmlns="http://www.w3.org/2000/svg">
<path d="M19.7948 4.41266L14.7206 12.265C14.5311 12.5593 14.4314 12.9024 14.4336 13.2523V18.0395C14.4322 18.2661 14.3683 18.4879 14.2487 18.6804C14.1292 18.8728 13.9587 19.0285 13.7562 19.1301L10.0941 20.9555C10.0392 20.9859 9.97718 21.0012 9.91441 20.9999C9.85164 20.9986 9.79034 20.9808 9.73671 20.9481C9.68308 20.9155 9.63905 20.8692 9.60907 20.8141C9.57909 20.7589 9.56424 20.6968 9.56601 20.634V13.2523C9.56823 12.9024 9.46851 12.5593 9.27901 12.265L4.20481 4.41266C4.12902 4.26128 4.09392 4.09279 4.10295 3.92375C4.11198 3.7547 4.16484 3.59091 4.25632 3.44847C4.34781 3.30603 4.47477 3.18984 4.62475 3.11132C4.77473 3.0328 4.94255 2.99464 5.11173 3.00061H18.8879C19.057 2.99464 19.2249 3.0328 19.3748 3.11132C19.5248 3.18984 19.6518 3.30603 19.7433 3.44847C19.8348 3.59091 19.8876 3.7547 19.8966 3.92375C19.9057 4.09279 19.8706 4.26128 19.7948 4.41266Z" stroke="#1F1F1F" stroke-width="1.5" stroke-miterlimit="10" stroke-linecap="round"/>
</svg>
