<svg width="24" height="24" viewBox="0 0 24 24" fill="none" xmlns="http://www.w3.org/2000/svg">
<path d="M15.0077 7.98999H8.99273C8.43907 7.98999 7.99023 8.43882 7.99023 8.99249V15.0075C7.99023 15.5611 8.43907 16.01 8.99273 16.01H15.0077C15.5614 16.01 16.0102 15.5611 16.0102 15.0075V8.99249C16.0102 8.43882 15.5614 7.98999 15.0077 7.98999Z" stroke="#1F1F1F" stroke-width="1.5" stroke-linecap="round" stroke-linejoin="round"/>
<path d="M15.25 2.75H8.75C5.43629 2.75 2.75 5.43629 2.75 8.75V15.25C2.75 18.5637 5.43629 21.25 8.75 21.25H15.25C18.5637 21.25 21.25 18.5637 21.25 15.25V8.75C21.25 5.43629 18.5637 2.75 15.25 2.75Z" stroke="#1F1F1F" stroke-width="1.5"/>
</svg>
