<svg width="24" height="24" viewBox="0 0 24 24" fill="none" xmlns="http://www.w3.org/2000/svg">
<path d="M15.25 2.75H8.75C5.43629 2.75 2.75 5.43629 2.75 8.75V15.25C2.75 18.5637 5.43629 21.25 8.75 21.25H15.25C18.5637 21.25 21.25 18.5637 21.25 15.25V8.75C21.25 5.43629 18.5637 2.75 15.25 2.75Z" stroke="#1F1F1F" stroke-width="1.5"/>
<path d="M7 14.8436L9.32228 11.7536C9.46603 11.564 9.6758 11.4354 9.90996 11.3934C10.1418 11.3492 10.3818 11.3932 10.5829 11.5166L12.8483 12.9479C13.0573 13.0786 13.3088 13.1228 13.5498 13.0711C13.7933 13.0218 14.0078 12.8788 14.1469 12.673L16.4787 9.1564" stroke="#1F1F1F" stroke-width="1.5" stroke-linecap="round" stroke-linejoin="round"/>
<path d="M13.6826 9.67773L16.4788 9.1564L17.0001 11.9526" stroke="#1F1F1F" stroke-width="1.5" stroke-linecap="round" stroke-linejoin="round"/>
</svg>
