<svg width="24" height="24" viewBox="0 0 24 24" fill="none" xmlns="http://www.w3.org/2000/svg">
<path d="M8.87988 21.25H18.7499C19.4129 21.25 20.0488 20.9866 20.5177 20.5178C20.9865 20.0489 21.2499 19.413 21.2499 18.75V15.12C21.2446 14.4604 20.9789 13.8297 20.5106 13.3651C20.0424 12.9006 19.4095 12.64 18.7499 12.64H17.4799" stroke="#1F1F1F" stroke-width="1.5" stroke-linecap="round" stroke-linejoin="round"/>
<path d="M11.3799 18.73L17.4799 12.62L19.3499 10.75C19.5824 10.5186 19.7669 10.2436 19.8928 9.9407C20.0187 9.6378 20.0835 9.31302 20.0835 8.985C20.0835 8.65698 20.0187 8.3322 19.8928 8.0293C19.7669 7.72641 19.5824 7.45138 19.3499 7.22L16.7799 4.65C16.5485 4.41749 16.2735 4.23299 15.9706 4.10709C15.6677 3.98119 15.3429 3.91638 15.0149 3.91638C14.6869 3.91638 14.3621 3.98119 14.0592 4.10709C13.7563 4.23299 13.4813 4.41749 13.2499 4.65L11.3799 6.52" stroke="#1F1F1F" stroke-width="1.5" stroke-linecap="round" stroke-linejoin="round"/>
<path d="M8.88 2.75H5.25C3.86929 2.75 2.75 3.86929 2.75 5.25V18.75C2.75 20.1307 3.86929 21.25 5.25 21.25H8.88C10.2607 21.25 11.38 20.1307 11.38 18.75V5.25C11.38 3.86929 10.2607 2.75 8.88 2.75Z" stroke="#1F1F1F" stroke-width="1.5" stroke-linecap="round" stroke-linejoin="round"/>
<path d="M7.06478 18.5936C7.94489 18.5936 8.65836 17.8801 8.65836 17C8.65836 16.1199 7.94489 15.4064 7.06478 15.4064C6.18466 15.4064 5.47119 16.1199 5.47119 17C5.47119 17.8801 6.18466 18.5936 7.06478 18.5936Z" stroke="#1F1F1F" stroke-width="1.5" stroke-linecap="round" stroke-linejoin="round"/>
</svg>
