<svg width="24" height="24" viewBox="0 0 24 24" fill="none" xmlns="http://www.w3.org/2000/svg">
<path d="M10.1964 5.34234L5.35107 10.1876C3.01123 12.5275 3.01123 16.3211 5.35107 18.6609C7.69091 21.0008 11.4845 21.0008 13.8244 18.6609L18.6697 13.8157C21.0095 11.4758 21.0095 7.68218 18.6697 5.34234C16.3298 3.00249 12.5362 3.00249 10.1964 5.34234Z" stroke="#1F1F1F" stroke-width="1.5" stroke-linecap="round" stroke-linejoin="round"/>
<path d="M16.8457 15.6385C14.9126 14.918 13.1801 13.7451 11.7931 12.218C10.266 10.831 9.09307 9.09849 8.37256 7.16541" stroke="#1F1F1F" stroke-width="1.5" stroke-linecap="round" stroke-linejoin="round"/>
<path d="M12.0054 7.16541C12.2433 6.92578 12.5263 6.73561 12.8381 6.60583C13.1498 6.47605 13.4842 6.40923 13.8219 6.40923C14.1595 6.40923 14.4939 6.47605 14.8056 6.60583C15.1174 6.73561 15.4004 6.92578 15.6383 7.16541" stroke="#1F1F1F" stroke-width="1.5" stroke-linecap="round" stroke-linejoin="round"/>
</svg>
