<svg width="24" height="24" viewBox="0 0 24 24" fill="none" xmlns="http://www.w3.org/2000/svg">
<path d="M21.8594 17.2489L14.2495 4.05893C14.0156 3.66072 13.6817 3.33055 13.2809 3.10114C12.8801 2.87172 12.4263 2.75104 11.9645 2.75104C11.5027 2.75104 11.0488 2.87172 10.648 3.10114C10.2472 3.33055 9.91333 3.66072 9.67944 4.05893L2.06945 17.2489C1.83376 17.6489 1.70947 18.1047 1.70947 18.5689C1.70947 19.0332 1.83376 19.489 2.06945 19.8889C2.30399 20.3083 2.65013 20.6544 3.06945 20.8889C3.47071 21.1215 3.92566 21.2456 4.38946 21.2489H19.6195C20.0824 21.2487 20.5372 21.128 20.9395 20.8989C21.3588 20.6644 21.7049 20.3183 21.9395 19.8989C22.1692 19.4969 22.2901 19.0419 22.2901 18.5789C22.2901 18.1159 22.1692 17.7653 21.9395 17.3633L21.8594 17.2489ZM10.9595 7.54892C10.9595 7.2837 11.0648 7.02935 11.2523 6.84181C11.4399 6.65428 11.6943 6.54892 11.9595 6.54892C12.2247 6.54892 12.479 6.65428 12.6666 6.84181C12.8541 7.02935 12.9595 7.2837 12.9595 7.54892V13.8289C12.9595 14.0941 12.8541 14.3485 12.6666 14.536C12.479 14.7236 12.2247 14.8289 11.9595 14.8289C11.6943 14.8289 11.4399 14.7236 11.2523 14.536C11.0648 14.3485 10.9595 14.0941 10.9595 13.8289V7.54892ZM12.0095 18.5489C11.7622 18.5489 11.5206 18.4756 11.315 18.3383C11.1095 18.2009 10.9492 18.0057 10.8546 17.7773C10.76 17.5489 10.7352 17.2975 10.7835 17.0551C10.8317 16.8126 10.9507 16.5899 11.1256 16.415C11.3004 16.2402 11.5231 16.1212 11.7656 16.0729C12.0081 16.0247 12.2594 16.0495 12.4878 16.1441C12.7162 16.2387 12.9114 16.3989 13.0488 16.6045C13.1861 16.81 13.2595 17.0517 13.2595 17.2989C13.2595 17.4639 13.2268 17.6273 13.1633 17.7796C13.0999 17.9319 13.007 18.0702 12.8898 18.1864C12.7727 18.3026 12.6337 18.3944 12.4809 18.4567C12.3281 18.5189 12.1645 18.5502 11.9995 18.5489H12.0095Z" fill="#1F1F1F"/>
</svg>
