<svg width="24" height="24" viewBox="0 0 24 24" fill="none" xmlns="http://www.w3.org/2000/svg">
<path d="M21.0034 15.5784C20.7814 15.0201 20.489 14.4925 20.1334 14.0084C19.6797 13.4689 19.3731 12.8212 19.2434 12.1284C19.2434 9.23834 19.2434 8.25837 17.6634 6.36837C17.1398 5.75092 16.4926 5.25015 15.7634 4.89836L15.0334 4.54836C14.993 4.5229 14.9589 4.48873 14.9334 4.44835C14.9088 4.41964 14.8916 4.38528 14.8834 4.34835C14.7773 3.66202 14.4172 3.04059 13.8745 2.6072C13.3319 2.1738 12.6462 1.96008 11.9534 2.00835C11.283 1.98134 10.6255 2.19859 10.1032 2.61977C9.58079 3.04095 9.22909 3.63743 9.11336 4.29836C9.10239 4.35024 9.0783 4.39843 9.04337 4.43834C9.01837 4.47015 8.98788 4.49726 8.95336 4.51836L8.17336 4.89836C7.43709 5.24765 6.78542 5.75259 6.26337 6.37834C4.69337 8.25834 4.69337 9.23834 4.69337 12.1284C4.57695 12.7791 4.29449 13.3888 3.87336 13.8984C3.50534 14.3943 3.2091 14.9397 2.99337 15.5184C2.85892 15.9081 2.8125 16.3227 2.85746 16.7325C2.90242 17.1423 3.03762 17.5371 3.25336 17.8884C3.48152 18.1791 3.77806 18.4088 4.11655 18.5571C4.45505 18.7054 4.82498 18.7677 5.19337 18.7384H8.01337C8.05608 19.0061 8.1299 19.2678 8.23336 19.5184C8.43109 20.0151 8.73089 20.4648 9.11336 20.8383C9.48285 21.2186 9.92954 21.5153 10.4234 21.7084C10.8839 21.8964 11.376 21.9948 11.8734 21.9984H12.0334C13.0793 21.9913 14.0808 21.5749 14.8234 20.8383C15.1972 20.4635 15.4929 20.0183 15.6934 19.5283C15.7943 19.2727 15.8713 19.0082 15.9234 18.7384H18.8634C19.2095 18.7356 19.5509 18.6571 19.8634 18.5084C20.2146 18.331 20.5168 18.07 20.7434 17.7483C20.9694 17.4261 21.1073 17.0503 21.1434 16.6584C21.188 16.2923 21.1398 15.9209 21.0034 15.5784ZM15.0034 10.2984L12.1934 13.1284C12.0806 13.2525 11.9401 13.3485 11.7834 13.4084C11.629 13.476 11.462 13.5101 11.2934 13.5084C11.124 13.5095 10.956 13.4764 10.7997 13.4111C10.6433 13.3458 10.5017 13.2496 10.3834 13.1284L8.97337 11.7284C8.83291 11.5877 8.75402 11.3971 8.75402 11.1984C8.75402 10.9996 8.83291 10.809 8.97337 10.6684C9.04231 10.5976 9.12472 10.5414 9.21575 10.503C9.30678 10.4646 9.40457 10.4448 9.50336 10.4448C9.60216 10.4448 9.69995 10.4646 9.79098 10.503C9.882 10.5414 9.96442 10.5976 10.0334 10.6684L11.2934 11.9184L13.9734 9.23836C14.0421 9.16467 14.1249 9.10555 14.2169 9.06456C14.3089 9.02357 14.4082 9.00155 14.5089 8.99977C14.6096 8.998 14.7096 9.0165 14.803 9.05422C14.8964 9.09194 14.9812 9.1481 15.0524 9.21932C15.1237 9.29054 15.1798 9.37538 15.2175 9.46877C15.2553 9.56216 15.2738 9.66216 15.272 9.76287C15.2702 9.86357 15.2482 9.96289 15.2072 10.0549C15.1662 10.1469 15.1071 10.2297 15.0334 10.2984H15.0034Z" fill="#1F1F1F"/>
</svg>
