<svg width="24" height="24" viewBox="0 0 24 24" fill="none" xmlns="http://www.w3.org/2000/svg">
<path d="M21.7382 16.1295C21.7433 16.3482 21.6766 16.5625 21.5482 16.7396C21.4216 16.9201 21.2387 17.0537 21.0282 17.1196L19.3182 17.6895C18.791 17.8634 18.3117 18.1579 17.9182 18.5496C17.5245 18.9414 17.2298 19.4212 17.0582 19.9495L16.4582 21.6495C16.3957 21.8536 16.2696 22.0323 16.0982 22.1595C15.9159 22.2849 15.6995 22.3512 15.4782 22.3495C15.2564 22.359 15.0377 22.2944 14.8566 22.1658C14.6756 22.0373 14.5424 21.8521 14.4782 21.6395L13.9082 19.9296C13.7367 19.4013 13.4419 18.9214 13.0482 18.5295C12.6511 18.1403 12.1731 17.8433 11.6482 17.6595L9.9382 17.0995C9.73603 17.0281 9.55889 16.8996 9.42819 16.7296C9.29574 16.5496 9.22238 16.333 9.2182 16.1096C9.20872 15.8877 9.27335 15.669 9.4019 15.4879C9.53046 15.3069 9.71562 15.1738 9.92819 15.1096L11.6482 14.5396C12.1817 14.3672 12.6665 14.0706 13.0629 13.6742C13.4593 13.2778 13.7559 12.7929 13.9282 12.2595L14.4982 10.5695C14.5565 10.3616 14.6806 10.1781 14.8518 10.0465C15.0231 9.91492 15.2323 9.84232 15.4482 9.83954C15.6632 9.84007 15.874 9.8988 16.0582 10.0095C16.2402 10.135 16.3797 10.3129 16.4582 10.5195L17.0382 12.2595C17.2106 12.7929 17.5072 13.2778 17.9036 13.6742C18.3 14.0706 18.7848 14.3672 19.3182 14.5396L21.0182 15.1395C21.2251 15.2073 21.4041 15.3407 21.5282 15.5195C21.6637 15.6941 21.7376 15.9086 21.7382 16.1295Z" fill="#1F1F1F"/>
<path d="M11.7384 9.76953C11.7368 9.96556 11.6777 10.1568 11.5683 10.3195C11.4501 10.4805 11.2865 10.6024 11.0984 10.6695L9.83838 11.0895C9.48644 11.2119 9.16558 11.4099 8.89838 11.6695C8.63684 11.9353 8.43859 12.2566 8.31838 12.6096L7.88838 13.8495C7.82812 14.0412 7.70476 14.2068 7.53838 14.3195C7.37398 14.4343 7.17887 14.497 6.97838 14.4995C6.7734 14.4961 6.57442 14.4298 6.40839 14.3096C6.25111 14.1899 6.13278 14.0264 6.06838 13.8395L5.65839 12.5895C5.53808 12.2396 5.33975 11.9215 5.07839 11.6595C4.82174 11.3915 4.50198 11.1921 4.14838 11.0795L2.89838 10.6595C2.70442 10.5985 2.53582 10.4756 2.41838 10.3096C2.33878 10.1849 2.28783 10.0441 2.2692 9.89733C2.25056 9.7506 2.26471 9.6016 2.31063 9.46099C2.35654 9.32039 2.43307 9.19168 2.5347 9.08422C2.63634 8.97676 2.76055 8.8932 2.89838 8.83953L4.14838 8.42956C4.50208 8.30606 4.82335 8.10432 5.08826 7.83941C5.35317 7.5745 5.55488 7.25323 5.67838 6.89953L6.08838 5.66955C6.14732 5.48522 6.25849 5.32192 6.40839 5.19952C6.56768 5.0795 6.7592 5.00983 6.95838 4.99951C7.16017 4.99408 7.35889 5.0499 7.52838 5.15954C7.6952 5.27215 7.82415 5.43249 7.89838 5.61956L8.31838 6.89953C8.44188 7.25323 8.6436 7.5745 8.90851 7.83941C9.17342 8.10432 9.49469 8.30606 9.84839 8.42956L11.0984 8.85955C11.2853 8.92377 11.4466 9.04647 11.5583 9.20953C11.6767 9.37213 11.7398 9.56841 11.7384 9.76953Z" fill="#1F1F1F"/>
<path d="M17.5283 4.40956C17.5193 4.59189 17.4605 4.76828 17.3583 4.91957C17.2543 5.06217 17.107 5.16738 16.9383 5.21956L16.3183 5.42958C16.1979 5.47115 16.0885 5.53956 15.9984 5.62965C15.9083 5.71974 15.8399 5.8291 15.7983 5.94954L15.5783 6.57954C15.518 6.73295 15.4179 6.86756 15.2883 6.96956C15.1409 7.08766 14.9572 7.15124 14.7683 7.14955C14.5953 7.13959 14.4273 7.08811 14.2783 6.99953C14.1298 6.88848 14.0182 6.73516 13.9583 6.55959L13.7483 5.93953C13.7113 5.81698 13.6423 5.70657 13.5483 5.61958C13.4602 5.52707 13.3501 5.45828 13.2283 5.41957L12.6083 5.21956C12.4434 5.15523 12.2984 5.04826 12.1883 4.90956C12.0834 4.76026 12.0275 4.58203 12.0283 4.39955C12.0341 4.21663 12.0932 4.03937 12.1983 3.88954C12.3052 3.74981 12.4515 3.64533 12.6183 3.58955L13.2283 3.38954C13.3514 3.34723 13.4639 3.27902 13.5583 3.18953C13.6471 3.09454 13.7152 2.98222 13.7583 2.85957L13.9683 2.23958C14.0272 2.08516 14.1234 1.9477 14.2483 1.83955C14.3918 1.73367 14.561 1.66806 14.7383 1.64955C14.9271 1.64847 15.1117 1.70426 15.2683 1.80959C15.4093 1.91564 15.5197 2.05706 15.5883 2.21956L15.7983 2.85957C15.8415 2.98222 15.9096 3.09454 15.9983 3.18953C16.0913 3.2759 16.1999 3.34379 16.3183 3.38954L16.9483 3.59956C17.1085 3.6626 17.2498 3.76592 17.3583 3.89955C17.4674 4.04734 17.5269 4.22588 17.5283 4.40956Z" fill="#1F1F1F"/>
</svg>
