<svg width="24" height="24" viewBox="0 0 24 24" fill="none" xmlns="http://www.w3.org/2000/svg">
<path d="M18.2963 4.63699C17.4834 3.78975 16.5076 3.11561 15.4276 2.65509C14.3475 2.19457 13.1855 1.95715 12.0113 1.95715C10.8372 1.95715 9.67516 2.19457 8.5951 2.65509C7.51503 3.11561 6.53923 3.78975 5.72634 4.63699C4.19634 6.63699 3.72634 9.63698 4.58634 12.717C5.46634 16.047 7.81633 18.457 9.70633 20.387L10.6263 21.387C10.805 21.5766 11.019 21.7295 11.2563 21.837C11.494 21.9426 11.7512 21.9971 12.0113 21.9971C12.2714 21.9971 12.5286 21.9426 12.7663 21.837C12.9992 21.7313 13.2097 21.582 13.3863 21.397L14.3163 20.397C16.2063 18.467 18.5563 16.057 19.4363 12.727C20.2463 9.63699 19.8263 6.63699 18.2963 4.63699ZM12.0063 12.887C11.318 12.887 10.6452 12.6829 10.0729 12.3005C9.50067 11.9181 9.05463 11.3746 8.79123 10.7387C8.52784 10.1029 8.45893 9.40314 8.5932 8.72809C8.72748 8.05303 9.05891 7.43295 9.5456 6.94626C10.0323 6.45957 10.6523 6.12814 11.3274 5.99387C12.0025 5.85959 12.7022 5.9285 13.3381 6.19189C13.974 6.45529 14.5174 6.90132 14.8998 7.4736C15.2822 8.04589 15.4863 8.7187 15.4863 9.40698C15.4863 9.86351 15.3962 10.3156 15.2212 10.7372C15.0462 11.1589 14.7897 11.5418 14.4665 11.8642C14.1432 12.1865 13.7595 12.4419 13.3373 12.6157C12.9152 12.7895 12.4629 12.8783 12.0063 12.877V12.887Z" fill="#1F1F1F"/>
</svg>
