<svg width="24" height="24" viewBox="0 0 24 24" fill="none" xmlns="http://www.w3.org/2000/svg">
<path d="M20.5751 4.17007C20.1391 3.73089 19.6203 3.38271 19.0486 3.14581C18.4769 2.9089 17.8639 2.78799 17.2451 2.79007H6.71512C5.46411 2.79271 4.26509 3.29084 3.38049 4.17544C2.49589 5.06004 1.99776 6.25906 1.99512 7.51007V14.1101C1.99776 15.3611 2.49589 16.5601 3.38049 17.4447C4.26509 18.3293 5.46411 18.8274 6.71512 18.8301H9.0451L10.9951 20.77C11.1242 20.9104 11.2807 21.0228 11.4551 21.1001C11.6264 21.1709 11.8097 21.2082 11.9951 21.21C12.3704 21.2057 12.7292 21.055 12.9951 20.7901L14.9951 18.7901H17.3251C18.5737 18.7876 19.7707 18.2916 20.6551 17.4101C21.0833 16.9688 21.4228 16.4494 21.6551 15.8801C21.8861 15.3046 22.005 14.6902 22.0051 14.0701V7.47006C21.9837 6.22421 21.4695 5.03761 20.5751 4.17007ZM12.9651 15.2501C12.9651 15.5153 12.8597 15.7696 12.6722 15.9572C12.4847 16.1447 12.2303 16.2501 11.9651 16.2501C11.6999 16.2501 11.4455 16.1447 11.258 15.9572C11.0704 15.7696 10.9651 15.5153 10.9651 15.2501V10.2001C10.9651 9.93484 11.0704 9.68048 11.258 9.49295C11.4455 9.30541 11.6999 9.20007 11.9651 9.20007C12.2303 9.20007 12.4847 9.30541 12.6722 9.49295C12.8597 9.68048 12.9651 9.93484 12.9651 10.2001V15.2501ZM11.8651 8.25006C11.5336 8.25006 11.2156 8.11836 10.9812 7.88394C10.7468 7.64952 10.6151 7.33158 10.6151 7.00006C10.6151 6.66854 10.7468 6.3506 10.9812 6.11618C11.2156 5.88176 11.5336 5.75006 11.8651 5.75006C12.1966 5.75006 12.5146 5.88176 12.749 6.11618C12.9834 6.3506 13.1151 6.66854 13.1151 7.00006C13.1151 7.33158 12.9834 7.64952 12.749 7.88394C12.5146 8.11836 12.1966 8.25006 11.8651 8.25006Z" fill="#1F1F1F"/>
</svg>
