<svg width="24" height="24" viewBox="0 0 24 24" fill="none" xmlns="http://www.w3.org/2000/svg">
<path d="M20.3699 21.25C20.3699 21.4489 20.2909 21.6397 20.1502 21.7803C20.0096 21.921 19.8188 22 19.6199 22H4.37988C4.18097 22 3.9902 21.921 3.84955 21.7803C3.7089 21.6397 3.62988 21.4489 3.62988 21.25C3.62988 17.15 8.12988 13.97 11.9999 13.97C15.8699 13.97 20.3699 17.15 20.3699 21.25Z" fill="#1F1F1F"/>
<path d="M17.0999 7.11002C17.0979 8.11827 16.7971 9.1033 16.2355 9.94067C15.6739 10.778 14.8767 11.4302 13.9447 11.8147C13.0126 12.1991 11.9875 12.2987 10.9988 12.1008C10.0102 11.9029 9.10237 11.4164 8.39012 10.7027C7.67787 9.98908 7.19315 9.08031 6.99717 8.09128C6.8012 7.10225 6.90277 6.07735 7.28907 5.14603C7.67537 4.21471 8.32905 3.41878 9.16752 2.85883C10.006 2.29887 10.9917 2 11.9999 2C13.3534 2.00265 14.6506 2.54219 15.6068 3.50021C16.5629 4.45824 17.0999 5.75649 17.0999 7.11002Z" fill="#1F1F1F"/>
</svg>
