<svg width="24" height="24" viewBox="0 0 24 24" fill="none" xmlns="http://www.w3.org/2000/svg">
<path d="M4.1588 9.13446C3.52259 9.13446 3.00684 9.65021 3.00684 10.2864V13.7423C3.00684 14.3785 3.52259 14.8942 4.1588 14.8942H19.8369C20.4731 14.8942 20.9888 14.3785 20.9888 13.7423V10.2864C20.9888 9.65021 20.4731 9.13446 19.8369 9.13446" stroke="#1F1F1F" stroke-width="1.5" stroke-linecap="round" stroke-linejoin="round"/>
<path d="M17.5445 12.0143H14.5264" stroke="#1F1F1F" stroke-width="1.5" stroke-linecap="round" stroke-linejoin="round"/>
<path d="M3.00342 4.55444L3.01428 8.01028C3.01627 8.64649 3.53364 9.16061 4.16984 9.15861L19.8479 9.10936C20.4841 9.10736 20.9982 8.58999 20.9962 7.95379L20.9853 4.49795C20.9833 3.86175 20.466 3.34762 19.8298 3.34962L4.15175 3.39887C3.51554 3.40087 3.00142 3.91824 3.00342 4.55444Z" stroke="#1F1F1F" stroke-width="1.5" stroke-linecap="round" stroke-linejoin="round"/>
<path d="M17.5445 6.24304H14.5264" stroke="#1F1F1F" stroke-width="1.5" stroke-linecap="round" stroke-linejoin="round"/>
<path d="M4.1588 14.8942C3.52259 14.8942 3.00684 15.41 3.00684 16.0462V19.502C3.00684 20.1382 3.52259 20.654 4.1588 20.654H19.8369C20.4731 20.654 20.9888 20.1382 20.9888 19.502V16.0462C20.9888 15.41 20.4731 14.8942 19.8369 14.8942" stroke="#1F1F1F" stroke-width="1.5" stroke-linecap="round" stroke-linejoin="round"/>
<path d="M17.5445 17.7741H14.5264" stroke="#1F1F1F" stroke-width="1.5" stroke-linecap="round" stroke-linejoin="round"/>
</svg>
