<svg width="24" height="24" viewBox="0 0 24 24" fill="none" xmlns="http://www.w3.org/2000/svg">
<path d="M9.27808 14.6113C9.3094 14.1001 9.20301 13.5899 8.97016 13.1347C7.73849 10.6529 10.6822 7.94779 13.1825 9.00254C16.6927 10.442 16.1139 17.0186 14.5743 19.823" stroke="#1F1F1F" stroke-width="1.5" stroke-linecap="round" stroke-linejoin="round"/>
<path d="M15.2394 3.55504C8.58844 0.353565 0.631856 7.27768 3.26763 14.1646" stroke="#1F1F1F" stroke-width="1.5" stroke-linecap="round" stroke-linejoin="round"/>
<path d="M7.06104 7.66235C7.91811 6.82938 8.97562 6.23552 10.1296 5.93918C11.2835 5.64285 12.4942 5.65424 13.6425 5.97225C14.7907 6.29026 15.8371 6.90393 16.6785 7.7529C17.52 8.60186 18.1276 9.65688 18.4416 10.8142" stroke="#1F1F1F" stroke-width="1.5" stroke-linecap="round" stroke-linejoin="round"/>
<path d="M11.8033 11.7076C12.4183 13.3665 12.6048 15.1556 12.3452 16.9069C11.95 18.5031 11.2004 19.9881 10.1528 21.25" stroke="#1F1F1F" stroke-width="1.5" stroke-linecap="round" stroke-linejoin="round"/>
<path d="M5.91573 10.3054C5.59983 11.4863 5.66453 12.7377 6.10048 13.8792C6.36357 14.72 6.32801 15.627 5.9999 16.4443C5.67179 17.2617 5.07158 17.9385 4.30225 18.3587" stroke="#1F1F1F" stroke-width="1.5" stroke-linecap="round" stroke-linejoin="round"/>
<path d="M17.9492 5.11853C19.6735 6.01196 20.8067 8.46891 21.2501 10.0821" stroke="#1F1F1F" stroke-width="1.5" stroke-linecap="round" stroke-linejoin="round"/>
<path d="M18.8608 13.4821C19.0785 15.2052 18.9867 16.9537 18.5898 18.6441" stroke="#1F1F1F" stroke-width="1.5" stroke-linecap="round" stroke-linejoin="round"/>
<path d="M9.06892 17.2916C8.65559 18.2687 7.96594 19.1016 7.08594 19.6865" stroke="#1F1F1F" stroke-width="1.5" stroke-linecap="round" stroke-linejoin="round"/>
</svg>
