<svg width="24" height="24" viewBox="0 0 24 24" fill="none" xmlns="http://www.w3.org/2000/svg">
<path d="M21.3301 19.0346C21.2046 19.5977 20.8933 20.1022 20.4463 20.4669C19.9271 20.9969 19.3 21.4091 18.6076 21.6758C18.0019 21.9108 17.3578 22.0313 16.7081 22.0313H16.383C14.9228 21.9529 13.4929 21.5833 12.1775 20.9444H12.1674C11.8626 20.8022 11.5477 20.66 11.2429 20.4873C9.70815 19.6251 8.2998 18.5551 7.05769 17.3077C5.44682 15.7951 4.12502 14.0017 3.15695 12.0153C2.64307 10.9266 2.30043 9.76497 2.14113 8.57163C1.90417 7.32283 2.04568 6.03172 2.54748 4.86388C2.86389 4.33694 3.25001 3.85515 3.69537 3.43157C3.89105 3.21008 4.1294 3.03042 4.39623 2.90335C4.6765 2.77191 4.98074 2.69928 5.29016 2.69C5.61897 2.7269 5.93722 2.82849 6.22662 2.98888C6.51602 3.14927 6.77089 3.36531 6.97646 3.62457C7.43358 4.12233 7.99224 4.6404 8.44936 5.11784L9.07929 5.73748C9.44958 6.06571 9.67873 6.52425 9.71914 7.01742C9.71927 7.47056 9.55303 7.90796 9.2519 8.24656C9.05691 8.48369 8.85011 8.71086 8.63226 8.92718L8.42915 9.14049C8.31097 9.24976 8.22043 9.38556 8.16502 9.53668C8.11506 9.68361 8.09429 9.83889 8.10401 9.99378C8.26594 10.4252 8.51884 10.8167 8.84555 11.1417C9.35346 11.8324 9.86138 12.4318 10.3795 13.0819C11.3169 14.1696 12.4292 15.0931 13.6708 15.8145C13.7969 15.9075 13.943 15.9701 14.0974 15.9973C14.2324 16.0069 14.3678 15.9861 14.4936 15.9364C14.8485 15.7281 15.1648 15.4601 15.4282 15.144C15.7835 14.7095 16.293 14.4292 16.8503 14.3618C17.3862 14.3695 17.8974 14.5885 18.2725 14.9713C18.4756 15.144 18.6991 15.3777 18.9124 15.6012L19.2172 15.9161L19.5321 16.2208L20.0705 16.7693C20.3919 17.0536 20.6939 17.3591 20.9746 17.6836C21.2568 18.0742 21.3835 18.5557 21.3301 19.0346Z" fill="#1F1F1F"/>
<path d="M17.6837 12.0762C17.4825 12.0736 17.2902 11.9925 17.1479 11.8502C17.0056 11.7079 16.9245 11.5156 16.9219 11.3144C16.9232 10.739 16.8108 10.1691 16.5913 9.6373C16.3717 9.1055 16.0494 8.62234 15.6425 8.21552C15.2357 7.8087 14.7525 7.48624 14.2207 7.26669C13.6889 7.04714 13.1189 6.93482 12.5436 6.93616C12.3415 6.93616 12.1478 6.85587 12.0049 6.71299C11.8621 6.57011 11.7817 6.37635 11.7817 6.17429C11.7817 5.97223 11.8621 5.77844 12.0049 5.63556C12.1478 5.49269 12.3415 5.41242 12.5436 5.41242C13.319 5.41109 14.0871 5.56283 14.8038 5.85895C15.5204 6.15508 16.1716 6.58975 16.7199 7.13807C17.2682 7.68638 17.7029 8.33755 17.9991 9.05421C18.2952 9.77087 18.4469 10.5389 18.4456 11.3144C18.4456 11.5164 18.3653 11.7102 18.2224 11.8531C18.0795 11.996 17.8858 12.0762 17.6837 12.0762Z" fill="#1F1F1F"/>
<path d="M21.2089 11.7207C21.0076 11.718 20.8154 11.6369 20.6731 11.4946C20.5308 11.3523 20.4497 11.16 20.447 10.9588C20.4484 9.97879 20.2564 9.00812 19.8823 8.10232C19.5082 7.19653 18.9593 6.37339 18.2668 5.67994C17.5743 4.9865 16.7518 4.43638 15.8465 4.06104C14.9413 3.68569 13.9709 3.49249 12.9909 3.49249C12.7888 3.49249 12.595 3.41222 12.4521 3.26934C12.3092 3.12647 12.229 2.93268 12.229 2.73062C12.229 2.52856 12.3092 2.33477 12.4521 2.19189C12.595 2.04901 12.7888 1.96875 12.9909 1.96875C14.171 1.96875 15.3396 2.20136 16.4297 2.65327C17.5199 3.10519 18.5102 3.76755 19.3441 4.60249C20.1781 5.43743 20.8394 6.42857 21.2901 7.51923C21.7408 8.6099 21.9721 9.77869 21.9708 10.9588C21.9708 11.1609 21.8904 11.3547 21.7476 11.4975C21.6047 11.6404 21.4109 11.7207 21.2089 11.7207Z" fill="#1F1F1F"/>
</svg>
