<svg width="24" height="24" viewBox="0 0 24 24" fill="none" xmlns="http://www.w3.org/2000/svg">
<path d="M21.1609 16.6558C21.1213 17.0481 20.98 17.4234 20.7509 17.7445C20.5422 18.0533 20.2606 18.3059 19.931 18.4801C19.6013 18.6543 19.2338 18.7447 18.8609 18.7433H15.9209C15.8688 19.0129 15.7918 19.277 15.6909 19.5324C15.4898 20.0213 15.1935 20.4655 14.8193 20.8393C14.4451 21.2131 14.0004 21.509 13.5109 21.7098C13.0155 21.9095 12.485 22.008 11.9509 21.9995H11.8709C11.3767 21.9959 10.8879 21.8976 10.4309 21.7098C9.9341 21.5171 9.48409 21.2209 9.11091 20.8409C8.73387 20.4691 8.4377 20.0237 8.24092 19.5324C8.14002 19.277 8.06304 19.0129 8.01094 18.7433H5.19093C4.82254 18.7726 4.45261 18.7105 4.11412 18.5623C3.77563 18.4142 3.47908 18.1847 3.25093 17.8943C3.03519 17.5434 2.89998 17.1492 2.85502 16.7399C2.81007 16.3306 2.85647 15.9164 2.99092 15.5271C3.20855 14.95 3.50467 14.4055 3.87092 13.909C4.29206 13.4001 4.57451 12.7911 4.69093 12.1411C4.69093 9.25454 4.69092 8.2757 6.27092 6.39792C6.79204 5.77607 7.43972 5.27217 8.17091 4.91969L8.95091 4.54013C8.98897 4.51587 9.02277 4.4855 9.05092 4.45024C9.08079 4.41223 9.10133 4.36776 9.11091 4.32039C9.22397 3.8328 9.45751 3.38126 9.7902 3.007C10.1228 2.63274 10.5441 2.34766 11.0155 2.17781C11.4868 2.00797 11.9933 1.95876 12.4885 2.03467C12.9838 2.11058 13.4522 2.30922 13.8509 2.61242C14.3982 3.04807 14.7564 3.67767 14.8509 4.37032V4.47021C14.88 4.51098 14.9175 4.54505 14.9609 4.5701L15.6809 4.91969C16.4111 5.26926 17.0587 5.76972 17.5809 6.38795C19.1609 8.27572 19.1609 9.25454 19.1609 12.1411C19.2952 12.8317 19.6013 13.4774 20.0509 14.0189C20.4103 14.5001 20.7029 15.0276 20.9209 15.5871C21.0852 15.919 21.1675 16.2855 21.1609 16.6558Z" fill="#1F1F1F"/>
</svg>
