<svg width="24" height="24" viewBox="0 0 24 24" fill="none" xmlns="http://www.w3.org/2000/svg">
<path d="M15.2378 10.8107L14.669 12.504C14.4578 13.1481 14.0982 13.7336 13.6193 14.213C13.1403 14.6924 12.5554 15.0523 11.9119 15.2637L10.1985 15.8329C10.1409 15.8519 10.0907 15.8885 10.0552 15.9377C10.0196 15.9869 10.0005 16.046 10.0005 16.1067C10.0005 16.1674 10.0196 16.2266 10.0552 16.2757C10.0907 16.3249 10.1409 16.3616 10.1985 16.3805L11.9119 16.9498C12.5491 17.1619 13.1282 17.5198 13.603 17.9951C14.0779 18.4704 14.4355 19.05 14.6475 19.6878L15.2162 21.4027C15.2351 21.4604 15.2717 21.5106 15.3209 21.5462C15.37 21.5818 15.4291 21.601 15.4897 21.601C15.5504 21.601 15.6095 21.5818 15.6586 21.5462C15.7077 21.5106 15.7444 21.4604 15.7633 21.4027L16.3536 19.7094C16.5655 19.0716 16.9231 18.492 17.398 18.0167C17.8729 17.5414 18.4519 17.1835 19.0892 16.9714L20.8026 16.4021C20.8602 16.3832 20.9103 16.3465 20.9459 16.2973C20.9815 16.2482 21.0006 16.189 21.0006 16.1283C21.0006 16.0676 20.9815 16.0085 20.9459 15.9593C20.9103 15.9102 20.8602 15.8735 20.8026 15.8545L19.1108 15.2637C18.4672 15.0523 17.8823 14.6924 17.4034 14.213C16.9244 13.7336 16.5648 13.1481 16.3536 12.504L15.7849 10.7891C15.7638 10.7321 15.7252 10.6832 15.6747 10.6494C15.6241 10.6157 15.5642 10.5988 15.5035 10.6012C15.4428 10.6036 15.3844 10.6251 15.3366 10.6628C15.2889 10.7004 15.2543 10.7522 15.2378 10.8107Z" stroke="#1F1F1F" stroke-width="1.5" stroke-linecap="round" stroke-linejoin="round"/>
<path d="M6.80797 5.89669L6.39436 7.12817C6.24076 7.59665 5.97923 8.02241 5.63089 8.37106C5.28256 8.7197 4.85719 8.98147 4.38913 9.13521L3.14305 9.5492C3.10115 9.56298 3.06467 9.58966 3.03881 9.62541C3.01295 9.66117 2.99902 9.70419 2.99902 9.74833C2.99902 9.79248 3.01295 9.83549 3.03881 9.87125C3.06467 9.90701 3.10115 9.93368 3.14305 9.94747L4.38913 10.3615C4.85259 10.5157 5.27372 10.776 5.61909 11.1217C5.96445 11.4674 6.22453 11.8889 6.37865 12.3528L6.79227 13.6C6.80604 13.6419 6.83269 13.6784 6.86841 13.7043C6.90414 13.7302 6.94712 13.7441 6.99122 13.7441C7.03532 13.7441 7.0783 13.7302 7.11403 13.7043C7.14975 13.6784 7.1764 13.6419 7.19017 13.6L7.61949 12.3685C7.77362 11.9046 8.0337 11.4831 8.37906 11.1374C8.72442 10.7918 9.14556 10.5314 9.60902 10.3772L10.8551 9.96319C10.897 9.9494 10.9334 9.92273 10.9593 9.88697C10.9852 9.85122 10.9991 9.8082 10.9991 9.76405C10.9991 9.71991 10.9852 9.67689 10.9593 9.64114C10.9334 9.60538 10.897 9.57871 10.8551 9.56492L9.62473 9.13521C9.15667 8.98147 8.7313 8.7197 8.38296 8.37106C8.03463 8.02241 7.7731 7.59665 7.61949 7.12817L7.20588 5.88097C7.19054 5.83949 7.16248 5.80393 7.12572 5.77939C7.08896 5.75484 7.04538 5.74256 7.00123 5.7443C6.95707 5.74605 6.9146 5.76173 6.87989 5.7891C6.84518 5.81647 6.82 5.85413 6.80797 5.89669Z" stroke="#1F1F1F" stroke-width="1.5" stroke-linecap="round" stroke-linejoin="round"/>
<path d="M14.6573 2.47532L14.4505 3.09106C14.3737 3.3253 14.243 3.53818 14.0688 3.71251C13.8946 3.88683 13.6819 4.01771 13.4479 4.09458L12.8249 4.30158C12.8039 4.30847 12.7857 4.32181 12.7728 4.33968C12.7598 4.35756 12.7529 4.37907 12.7529 4.40114C12.7529 4.42322 12.7598 4.44473 12.7728 4.4626C12.7857 4.48048 12.8039 4.49382 12.8249 4.50071L13.4479 4.7077C13.6796 4.78484 13.8902 4.91499 14.0629 5.08783C14.2356 5.26067 14.3656 5.47143 14.4427 5.70337L14.6495 6.32697C14.6564 6.34794 14.6697 6.36619 14.6876 6.37914C14.7054 6.39208 14.7269 6.39905 14.749 6.39905C14.771 6.39905 14.7925 6.39208 14.8104 6.37914C14.8282 6.36619 14.8416 6.34794 14.8484 6.32697L15.0631 5.71123C15.1402 5.47929 15.2702 5.26853 15.4429 5.09569C15.6156 4.92285 15.8261 4.7927 16.0579 4.71556L16.6809 4.50857C16.7018 4.50168 16.7201 4.48834 16.733 4.47046C16.746 4.45259 16.7529 4.43108 16.7529 4.409C16.7529 4.38693 16.746 4.36542 16.733 4.34755C16.7201 4.32967 16.7018 4.31633 16.6809 4.30944L16.0657 4.09458C15.8317 4.01771 15.619 3.88683 15.4448 3.71251C15.2707 3.53818 15.1399 3.3253 15.0631 3.09106L14.8563 2.46746C14.8486 2.44672 14.8346 2.42894 14.8162 2.41667C14.7978 2.4044 14.776 2.39826 14.754 2.39913C14.7319 2.4 14.7107 2.40784 14.6933 2.42153C14.6759 2.43521 14.6634 2.45404 14.6573 2.47532Z" stroke="#1F1F1F" stroke-width="1.5" stroke-linecap="round" stroke-linejoin="round"/>
</svg>
