<svg width="24" height="24" viewBox="0 0 24 24" fill="none" xmlns="http://www.w3.org/2000/svg">
<path d="M7.39258 12.084L9.98594 14.6774C10.0772 14.7697 10.1858 14.843 10.3056 14.8931C10.4253 14.9431 10.5539 14.9689 10.6837 14.9689C10.8134 14.9689 10.942 14.9431 11.0617 14.8931C11.1815 14.843 11.2901 14.7697 11.3814 14.6774L16.6076 9.45117" stroke="#1F1F1F" stroke-width="1.5" stroke-linecap="round" stroke-linejoin="round"/>
<path d="M15.25 2.75H8.75C5.43629 2.75 2.75 5.43629 2.75 8.75V15.25C2.75 18.5637 5.43629 21.25 8.75 21.25H15.25C18.5637 21.25 21.25 18.5637 21.25 15.25V8.75C21.25 5.43629 18.5637 2.75 15.25 2.75Z" stroke="#1F1F1F" stroke-width="1.5"/>
</svg>
