<svg width="24" height="24" viewBox="0 0 24 24" fill="none" xmlns="http://www.w3.org/2000/svg">
<path d="M11.1503 12.335V21.515C11.0965 21.4963 11.046 21.4692 11.0004 21.435L4.49038 17.525C4.19871 17.3584 3.95692 17.1167 3.79031 16.825C3.61691 16.5209 3.53042 16.1749 3.54031 15.825V7.75494L11.1503 12.335Z" fill="#1F1F1F"/>
<path d="M20.4606 7.75494V15.855C20.4478 16.1887 20.3552 16.5144 20.1906 16.805C20.0342 17.1035 19.7945 17.3501 19.5006 17.515L12.9906 21.425L12.8506 21.495V12.325L16.1106 10.325V13.095C16.1106 13.3204 16.2001 13.5366 16.3595 13.696C16.5189 13.8554 16.7352 13.945 16.9606 13.945C17.186 13.945 17.4023 13.8554 17.5617 13.696C17.7211 13.5366 17.8106 13.3204 17.8106 13.095V9.35495L20.4606 7.75494Z" fill="#1F1F1F"/>
<path d="M15.2803 8.90497L12.0004 10.905L4.34033 6.30496L4.45032 6.23499L7.51037 4.60498L15.2803 8.90497Z" fill="#1F1F1F"/>
<path d="M19.6503 6.28503L16.9403 7.90503L9.30029 3.62503L10.9604 2.75503C11.2642 2.57878 11.6091 2.48567 11.9604 2.48505C12.312 2.49233 12.6561 2.58866 12.9604 2.76504L19.4303 6.22504C19.5074 6.22746 19.5827 6.24801 19.6503 6.28503Z" fill="#1F1F1F"/>
</svg>
