<svg width="24" height="24" viewBox="0 0 24 24" fill="none" xmlns="http://www.w3.org/2000/svg">
<path d="M14.524 17.6485L18.0365 19.4893C18.1849 19.5714 18.3541 19.6082 18.5232 19.5951C18.6876 19.582 18.8451 19.5234 18.9781 19.4259C19.1143 19.326 19.2205 19.1906 19.2849 19.0344C19.3442 18.8795 19.3624 18.7118 19.3378 18.5477L18.6607 14.6438C18.6288 14.5009 18.6288 14.3528 18.6607 14.21C18.7074 14.0697 18.7872 13.9426 18.8935 13.8397L21.7289 11.0783C21.8467 10.9599 21.9304 10.812 21.9714 10.65C22.0123 10.4881 22.009 10.3181 21.9616 10.1579C21.9094 9.99778 21.8143 9.85507 21.6865 9.74528C21.5598 9.63862 21.406 9.56906 21.2422 9.54427L17.3171 8.98353C17.1728 8.96032 17.0362 8.90312 16.9185 8.81666C16.8007 8.73019 16.7052 8.61695 16.6399 8.48628L14.8837 4.91028C14.8131 4.76137 14.7025 4.63501 14.5642 4.54533C14.426 4.45565 14.2655 4.40618 14.1008 4.40245C13.9318 4.39911 13.7658 4.44706 13.6247 4.53998C13.4792 4.62589 13.3644 4.75545 13.2967 4.91028L11.4981 8.48628C11.4332 8.61515 11.3391 8.72716 11.2235 8.81346C11.1078 8.89975 10.9736 8.95798 10.8316 8.98353L6.95938 9.54427C6.79231 9.56878 6.63506 9.63826 6.50445 9.74528C6.37456 9.85313 6.27896 9.99652 6.22937 10.1579C6.18721 10.3174 6.18721 10.4851 6.22937 10.6446C6.26935 10.8111 6.3577 10.962 6.48329 11.0783L9.31869 13.8397C9.42122 13.9456 9.5005 14.0717 9.55145 14.21C9.58337 14.3528 9.58337 14.5009 9.55145 14.6438L8.87434 18.5477C8.82731 18.7066 8.82731 18.8756 8.87434 19.0344C8.93875 19.1906 9.0449 19.326 9.18116 19.4259C9.31415 19.5234 9.47167 19.582 9.63609 19.5951C9.80517 19.6082 9.97437 19.5714 10.1227 19.4893L13.6353 17.6485C13.7655 17.579 13.9108 17.5427 14.0584 17.5427C14.2061 17.5427 14.3514 17.579 14.4816 17.6485H14.524Z" stroke="#1F1F1F" stroke-width="1.5" stroke-linecap="round" stroke-linejoin="round"/>
<path d="M8 5.40033H2" stroke="#1F1F1F" stroke-width="1.5" stroke-linecap="round" stroke-linejoin="round"/>
<path d="M5 17.4694H2" stroke="#1F1F1F" stroke-width="1.5" stroke-linecap="round" stroke-linejoin="round"/>
<path d="M3.5 11.6972H2" stroke="#1F1F1F" stroke-width="1.5" stroke-linecap="round" stroke-linejoin="round"/>
</svg>
