<svg width="24" height="24" viewBox="0 0 24 24" fill="none" xmlns="http://www.w3.org/2000/svg">
<path d="M20.4445 10.5856V17.2778C20.4445 18.3976 19.9997 19.4715 19.2079 20.2633C18.416 21.0552 17.3421 21.5 16.2223 21.5H7.77788C6.65808 21.5 5.58414 21.0552 4.79232 20.2633C4.0005 19.4715 3.55566 18.3976 3.55566 17.2778V6.72222C3.55566 5.60242 4.0005 4.52848 4.79232 3.73666C5.58414 2.94484 6.65808 2.5 7.77788 2.5H12.359C12.9136 2.49957 13.4629 2.60841 13.9755 2.82031C14.488 3.03222 14.9538 3.34303 15.3462 3.735L19.2095 7.59833C19.6015 7.99074 19.9123 8.45652 20.1242 8.96908C20.3361 9.48164 20.445 10.0309 20.4445 10.5856Z" stroke="#1F1F1F" stroke-width="1.5" stroke-linecap="round" stroke-linejoin="round"/>
<path d="M15.1666 9.88889H8.83328C7.66735 9.88889 6.72217 10.8341 6.72217 12V16.2222C6.72217 17.3882 7.66735 18.3333 8.83328 18.3333H15.1666C16.3325 18.3333 17.2777 17.3882 17.2777 16.2222V12C17.2777 10.8341 16.3325 9.88889 15.1666 9.88889Z" stroke="#1F1F1F" stroke-width="1.5" stroke-linecap="round" stroke-linejoin="round"/>
<path d="M12 9.88889V14.1111V18.3333" stroke="#1F1F1F" stroke-width="1.5" stroke-linecap="round" stroke-linejoin="round"/>
<path d="M6.72217 14.1111H11.9999H17.2777" stroke="#1F1F1F" stroke-width="1.5" stroke-linecap="round" stroke-linejoin="round"/>
</svg>
