<svg width="24" height="24" viewBox="0 0 24 24" fill="none" xmlns="http://www.w3.org/2000/svg">
<mask id="mask0_248_2264" style="mask-type:luminance" maskUnits="userSpaceOnUse" x="2" y="2" width="20" height="20">
<path d="M22 2H2V22H22V2Z" fill="white"/>
</mask>
<g mask="url(#mask0_248_2264)">
<path d="M15.25 2H8.75C6.9606 2.00265 5.24525 2.71468 3.97995 3.97998C2.71465 5.24528 2.00264 6.9606 2 8.75V15.28C2.00264 17.0694 2.71465 18.7848 3.97995 20.05C5.24525 21.3153 6.9606 22.0274 8.75 22.03H15.25C17.0402 22.03 18.7571 21.3188 20.023 20.053C21.2888 18.7871 22 17.0702 22 15.28V8.78003C22.004 7.89109 21.8323 7.0101 21.4948 6.18768C21.1574 5.36527 20.6608 4.61765 20.0336 3.98767C19.4064 3.35769 18.661 2.85782 17.8401 2.51672C17.0192 2.17563 16.139 1.99999 15.25 2ZM17.9 12.59C17.7777 12.7489 17.6105 12.8674 17.42 12.9301L15.74 13.4901C15.214 13.6714 14.7355 13.9687 14.34 14.36C13.9463 14.7519 13.6515 15.2317 13.48 15.76L12.9 17.4301C12.839 17.6214 12.7158 17.7868 12.55 17.9C12.3856 18.0148 12.1905 18.0775 11.99 18.08C11.7895 18.0775 11.5944 18.0148 11.43 17.9C11.264 17.7826 11.141 17.614 11.08 17.42L10.52 15.73C10.346 15.2058 10.0515 14.7297 9.65999 14.34C9.26711 13.9454 8.78782 13.6475 8.25999 13.47L6.56999 12.92C6.38058 12.8502 6.21673 12.7247 6.09999 12.5601C5.97984 12.3981 5.91498 12.2017 5.91498 12C5.91498 11.7983 5.97984 11.602 6.09999 11.44C6.21589 11.279 6.38076 11.1597 6.56999 11.1L8.25 10.54C8.78252 10.3614 9.26553 10.0599 9.65999 9.66003C10.0589 9.27654 10.3606 8.80345 10.54 8.28003L11.1 6.62006C11.1572 6.43209 11.2685 6.26511 11.42 6.14001C11.5821 6.01811 11.7774 5.94834 11.98 5.94C12.1784 5.93659 12.3733 5.99232 12.54 6.10004C12.7105 6.20856 12.8405 6.37024 12.91 6.56006L13.48 8.27002C13.6485 8.80492 13.9475 9.28951 14.35 9.68005C14.7445 10.0799 15.2275 10.3814 15.76 10.5601L17.43 11.14C17.6218 11.2054 17.7891 11.3275 17.91 11.4901C18.0154 11.6546 18.0741 11.8447 18.08 12.04C18.0755 12.2371 18.0129 12.4284 17.9 12.59Z" fill="#1F1F1F"/>
</g>
</svg>
