<svg width="24" height="24" viewBox="0 0 24 24" fill="none" xmlns="http://www.w3.org/2000/svg">
<path d="M20.9516 9.55359L16.0488 14.4564" stroke="#1F1F1F" stroke-width="1.5" stroke-miterlimit="10" stroke-linecap="round"/>
<path d="M16.0488 9.55359L20.9516 14.4564" stroke="#1F1F1F" stroke-width="1.5" stroke-miterlimit="10" stroke-linecap="round"/>
<path d="M3.04834 14.0881V9.91184C3.04834 9.49649 3.19058 9.09814 3.44375 8.80445C3.69693 8.51075 4.04031 8.34575 4.39836 8.34575H6.28839C6.52512 8.34461 6.75761 8.2727 6.9634 8.13694L10.9326 5.5059C11.1376 5.37099 11.3694 5.30072 11.6053 5.30208C11.841 5.30343 12.0723 5.37638 12.2761 5.51364C12.4801 5.65091 12.6494 5.84771 12.7673 6.08448C12.8854 6.32125 12.9477 6.58972 12.9486 6.86318V17.1368C12.9477 17.4102 12.8854 17.6787 12.7673 17.9154C12.6494 18.1522 12.4801 18.3491 12.2761 18.4863C12.0723 18.6235 11.841 18.6965 11.6053 18.6979C11.3694 18.6992 11.1376 18.629 10.9326 18.494L6.9634 15.863C6.75761 15.7272 6.52512 15.6553 6.28839 15.6542H4.39836C4.04031 15.6542 3.69693 15.4891 3.44375 15.1955C3.19058 14.9018 3.04834 14.5035 3.04834 14.0881Z" stroke="#1F1F1F" stroke-width="1.5" stroke-linecap="round" stroke-linejoin="round"/>
</svg>
