<svg width="24" height="24" viewBox="0 0 24 24" fill="none" xmlns="http://www.w3.org/2000/svg">
<path d="M20.9351 3.52121C20.8602 3.27736 20.734 3.05236 20.5651 2.86124C20.3954 2.67031 20.1876 2.51701 19.9551 2.41123C19.7236 2.30295 19.4706 2.24822 19.2151 2.25119H4.82506C4.5696 2.23683 4.31476 2.28851 4.08507 2.40122C3.8469 2.50678 3.63515 2.66391 3.46507 2.86124C3.29612 3.05236 3.16997 3.27736 3.09508 3.52121C3.01758 3.76317 2.99375 4.0191 3.02513 4.27121L4.66502 18.2712C4.77472 19.2286 5.23415 20.1117 5.95506 20.7512C6.65887 21.3904 7.57438 21.7466 8.52513 21.7512H15.5251C16.479 21.7472 17.3977 21.3911 18.1051 20.7512C18.8157 20.105 19.27 19.2247 19.3851 18.2712L20.2751 10.4012C20.2751 10.4012 20.2751 10.3212 20.2751 10.2812L20.9651 4.28122C21.0038 4.0283 20.9936 3.7703 20.9351 3.52121ZM10.8351 18.8712H9.83507C9.18729 18.8351 8.57065 18.5815 8.08507 18.1512C7.60121 17.7152 7.28318 17.1251 7.18504 16.4812L6.94505 14.7612C6.90792 14.496 6.97774 14.2269 7.13902 14.0131C7.3003 13.7993 7.53982 13.6583 7.80504 13.6212C8.07025 13.584 8.33942 13.6538 8.55321 13.8151C8.767 13.9764 8.90792 14.216 8.94505 14.4812L9.18504 16.1812C9.21192 16.367 9.3041 16.5372 9.44505 16.6612C9.58479 16.7895 9.76554 16.8638 9.95506 16.8712H10.9551C11.2203 16.8712 11.4747 16.9765 11.6622 17.1641C11.8498 17.3516 11.9551 17.606 11.9551 17.8712C11.9551 18.1364 11.8498 18.3908 11.6622 18.5783C11.4747 18.7659 11.2203 18.8712 10.9551 18.8712H10.8351ZM18.8351 9.64121C16.7251 10.0512 14.9251 10.1312 13.0151 8.64121C10.6451 6.77121 7.77512 7.37123 5.01512 8.35123L4.51512 4.11124C4.50528 4.06847 4.50528 4.02401 4.51512 3.98124C4.52873 3.93922 4.55277 3.90132 4.58507 3.87119C4.60873 3.83428 4.64384 3.80622 4.68504 3.79123C4.72427 3.78011 4.76581 3.78011 4.80504 3.79123H19.2051H19.3251C19.3626 3.81221 19.3963 3.8392 19.425 3.87119C19.4544 3.9019 19.4752 3.9399 19.4851 3.98124C19.5003 4.02666 19.5003 4.07577 19.4851 4.12119L18.8351 9.64121Z" fill="#1F1F1F"/>
</svg>
