<svg width="24" height="24" viewBox="0 0 24 24" fill="none" xmlns="http://www.w3.org/2000/svg">
<path d="M20.94 3.05003C20.6857 2.79486 20.3832 2.59275 20.0502 2.45542C19.7172 2.31809 19.3603 2.24827 19 2.25004H17C16.6382 2.24738 16.2793 2.3167 15.9445 2.45396C15.6096 2.59121 15.3054 2.79364 15.0495 3.04954C14.7936 3.30543 14.5912 3.60965 14.4539 3.9445C14.3166 4.27934 14.2474 4.63816 14.25 5.00004V6.25004H11C10.6382 6.24738 10.2793 6.3167 9.94452 6.45396C9.60968 6.59121 9.3054 6.79364 9.0495 7.04954C8.79361 7.30543 8.59118 7.60965 8.45392 7.9445C8.31667 8.27934 8.2474 8.63816 8.25007 9.00004V11.25H5.00007C4.63819 11.2474 4.27937 11.3167 3.94452 11.4539C3.60968 11.5912 3.3054 11.7936 3.0495 12.0495C2.79361 12.3054 2.59118 12.6096 2.45392 12.9445C2.31667 13.2793 2.2474 13.6382 2.25007 14V19C2.25007 19.7294 2.53976 20.4288 3.05549 20.9445C3.57121 21.4603 4.27072 21.75 5.00007 21.75H19C19.7278 21.7448 20.4242 21.4533 20.9388 20.9387C21.4534 20.4242 21.7448 19.7278 21.75 19V5.00004C21.7507 4.63759 21.6794 4.27861 21.5403 3.94389C21.4013 3.60916 21.1973 3.30533 20.94 3.05003ZM14.25 20.25H9.75007V8.97001C9.74736 8.80511 9.7778 8.64138 9.83967 8.4885C9.90153 8.33562 9.99356 8.19673 10.1101 8.08012C10.2268 7.9635 10.3656 7.87153 10.5185 7.80967C10.6713 7.74781 10.8351 7.71731 11 7.72001H14.25V20.25Z" fill="#1F1F1F"/>
</svg>
