<svg width="24" height="24" viewBox="0 0 24 24" fill="none" xmlns="http://www.w3.org/2000/svg">
<path d="M21.861 17.4298L18.3411 4.18986C18.1524 3.4991 17.6999 2.91011 17.0811 2.54984C16.4747 2.20296 15.756 2.10951 15.0811 2.28983L11.3111 3.28983C11.1095 3.34382 10.9172 3.42811 10.741 3.53983C10.4916 3.20538 10.1672 2.93426 9.79372 2.74839C9.42024 2.56252 9.00826 2.46708 8.59108 2.46982H4.69106C3.97763 2.46982 3.29344 2.75325 2.78896 3.25773C2.28449 3.7622 2.001 4.44639 2.001 5.15983V18.7898C1.99968 19.1439 2.06831 19.4948 2.2029 19.8223C2.3375 20.1499 2.5355 20.4475 2.78542 20.6984C3.03534 20.9492 3.33231 21.1483 3.65932 21.2841C3.98634 21.4199 4.33696 21.4898 4.69106 21.4898H8.59108C9.30717 21.4898 9.99392 21.2053 10.5003 20.699C11.0066 20.1926 11.291 19.5059 11.291 18.7898V13.6698L12.9311 19.8098C13.0206 20.1523 13.1783 20.4732 13.3948 20.7533C13.6113 21.0334 13.8822 21.2669 14.1911 21.4398C14.5982 21.6758 15.0605 21.8 15.531 21.7998C15.7668 21.8028 16.002 21.7759 16.231 21.7198L20.001 20.7198C20.344 20.6306 20.6659 20.474 20.9478 20.259C21.2296 20.0441 21.4659 19.7752 21.6427 19.468C21.8196 19.1609 21.9335 18.8216 21.9778 18.4699C22.0222 18.1183 21.9961 17.7613 21.901 17.4198L21.861 17.4298ZM6.6011 17.6898C6.24269 17.6918 5.89175 17.5873 5.59279 17.3897C5.29382 17.192 5.06018 16.91 4.92165 16.5794C4.78312 16.2489 4.74589 15.8846 4.8146 15.5328C4.8833 15.1811 5.05491 14.8577 5.30764 14.6035C5.56037 14.3494 5.88289 14.176 6.23427 14.1054C6.58564 14.0347 6.95008 14.07 7.28139 14.2067C7.6127 14.3434 7.89591 14.5753 8.09524 14.8732C8.29457 15.171 8.40101 15.5214 8.40101 15.8798C8.39318 16.3529 8.20048 16.8041 7.86404 17.1368C7.5276 17.4695 7.07425 17.6572 6.6011 17.6598V17.6898ZM16.6011 17.5798C16.2372 17.5798 15.8814 17.4719 15.5788 17.2697C15.2762 17.0675 15.0404 16.7802 14.9012 16.444C14.7619 16.1078 14.7254 15.7378 14.7964 15.3809C14.8674 15.0239 15.0426 14.6961 15.3 14.4387C15.5573 14.1814 15.8852 14.0062 16.2421 13.9352C16.599 13.8642 16.969 13.9006 17.3052 14.0399C17.6414 14.1791 17.9287 14.415 18.1309 14.7176C18.3331 15.0202 18.4411 15.3759 18.4411 15.7398C18.4333 16.2192 18.2388 16.6765 17.8988 17.0146C17.5589 17.3526 17.1004 17.5447 16.621 17.5498L16.6011 17.5798Z" fill="#1F1F1F"/>
</svg>
