<svg width="24" height="24" viewBox="0 0 24 24" fill="none" xmlns="http://www.w3.org/2000/svg">
<path d="M7.12101 12.95C7.24146 13.5865 7.4898 14.1921 7.85101 14.73L5.15101 17.4299L4.081 18.4899C3.44032 17.7181 2.91796 16.8554 2.53102 15.9299C1.62102 13.7389 1.50081 11.2998 2.19101 9.02997C2.57833 7.73358 3.22472 6.52924 4.09101 5.48993L7.85101 9.24994C7.76506 9.37075 7.68818 9.49777 7.62101 9.62994C7.07667 10.6459 6.90004 11.8187 7.12101 12.95Z" fill="#1F1F1F"/>
<path d="M18.4611 19.91C16.8977 21.2009 14.9856 21.9977 12.9681 22.199C10.9505 22.4002 8.91877 21.9967 7.13117 21.04C6.53466 20.7206 5.97183 20.3421 5.45117 19.91L9.22116 16.1399C10.0354 16.6734 10.9877 16.9576 11.9611 16.9576C12.9346 16.9576 13.8869 16.6734 14.7011 16.1399L17.4611 18.8299L18.4611 19.91Z" fill="#1F1F1F"/>
<path d="M22.2511 11.9899C22.245 14.3584 21.4261 16.6529 19.9311 18.4899L16.1611 14.72C16.6041 14.0485 16.8785 13.2801 16.9611 12.48C17.0734 11.3402 16.791 10.1964 16.1611 9.23993L19.9311 5.46997C21.4355 7.30945 22.2554 9.61364 22.2511 11.9899Z" fill="#1F1F1F"/>
<path d="M18.4614 4.07994L14.7414 7.82994C14.3442 7.57239 13.9135 7.37053 13.4614 7.22996C12.3596 6.89603 11.1764 6.95252 10.1114 7.38994C9.81537 7.50782 9.53359 7.65879 9.27143 7.83995L6.56144 5.13994L5.46143 4.07994C5.7146 3.86255 5.98185 3.66214 6.26144 3.47996C8.08809 2.25698 10.2601 1.65492 12.4557 1.76298C14.6513 1.87105 16.7537 2.68349 18.4514 4.07994H18.4614Z" fill="#1F1F1F"/>
<path d="M15.461 12.34C15.4137 12.7921 15.2778 13.2304 15.061 13.63C14.906 13.9335 14.7034 14.2103 14.461 14.45C14.2203 14.6868 13.9477 14.8887 13.651 15.0499C13.147 15.3209 12.5833 15.4619 12.011 15.46C11.4359 15.4594 10.8695 15.3186 10.361 15.0499C10.1645 14.9384 9.97727 14.8114 9.80103 14.67C9.45606 14.3971 9.17026 14.0569 8.96103 13.67C8.78827 13.3581 8.66672 13.0205 8.60103 12.67C8.4593 11.9408 8.55466 11.1853 8.87314 10.5141C9.19162 9.84297 9.71652 9.29135 10.371 8.93996C10.4748 8.88397 10.5816 8.83393 10.691 8.79C11.4337 8.47901 12.2624 8.44001 13.031 8.67995C13.2458 8.7458 13.4535 8.83291 13.651 8.93996C14.1546 9.21203 14.5838 9.60348 14.901 10.08C14.9639 10.1675 15.0175 10.2614 15.061 10.36C15.3987 10.9617 15.5386 11.6544 15.461 12.34Z" fill="#1F1F1F"/>
</svg>
