<svg width="24" height="24" viewBox="0 0 24 24" fill="none" xmlns="http://www.w3.org/2000/svg">
<path d="M22.0013 11.8602C22.0027 12.4138 21.8429 12.9559 21.5413 13.4202C21.2487 13.8891 20.8243 14.2613 20.3213 14.4902L6.17133 21.3502C5.77728 21.5481 5.34229 21.6509 4.90133 21.6502C4.71634 21.6505 4.53189 21.6304 4.35133 21.5902C3.73358 21.4742 3.17127 21.1579 2.75132 20.6902C2.32835 20.223 2.06847 19.6311 2.01076 19.0036C1.95306 18.376 2.10065 17.7467 2.43133 17.2102L5.87133 12.4302C5.9508 12.2402 5.99159 12.0362 5.99132 11.8302C5.9917 11.6081 5.94035 11.389 5.84133 11.1902L2.66132 6.6902C2.33275 6.14371 2.19553 5.50334 2.27132 4.87019C2.33967 4.26223 2.59918 3.69165 3.0125 3.24059C3.42583 2.78953 3.97163 2.48127 4.57133 2.3602C5.17439 2.24195 5.79922 2.31176 6.36132 2.5602L20.3613 9.23019C20.8532 9.4714 21.2676 9.84571 21.5575 10.3106C21.8474 10.7755 22.0011 11.3123 22.0013 11.8602Z" fill="#1F1F1F"/>
</svg>
