<svg width="24" height="24" viewBox="0 0 24 24" fill="none" xmlns="http://www.w3.org/2000/svg">
<path d="M21.9178 10.37V15.25C21.9151 17.0394 21.2061 18.7548 19.946 20.0201C18.6859 21.2854 16.9776 21.9974 15.1955 22H8.72224C6.9402 21.9974 5.2319 21.2854 3.9718 20.0201C2.71171 18.7548 2.00263 17.0394 2 15.25V8.75C2.00263 6.9606 2.71171 5.24524 3.9718 3.97995C5.2319 2.71465 6.9402 2.00264 8.72224 2H13.5722C13.7703 2 13.9603 2.07901 14.1004 2.21966C14.2405 2.36031 14.3191 2.55108 14.3191 2.75C14.3191 2.94891 14.2405 3.13966 14.1004 3.28031C13.9603 3.42097 13.7703 3.5 13.5722 3.5H8.72224C7.33558 3.5 6.00571 4.05312 5.02519 5.03768C4.04468 6.02225 3.49383 7.35761 3.49383 8.75V11.25H5.98355C6.3423 11.2482 6.6978 11.318 7.02946 11.4554C7.36112 11.5927 7.66231 11.7948 7.91554 12.05C8.42578 12.5706 8.71499 13.2696 8.72224 14C8.72224 14.3315 8.85336 14.6495 9.08682 14.8839C9.32028 15.1183 9.63694 15.25 9.9671 15.25H13.9507C14.114 15.2507 14.2758 15.2182 14.4264 15.1546C14.577 15.0911 14.7132 14.9977 14.827 14.88C15.06 14.6465 15.1924 14.3305 15.1955 14C15.1929 13.6381 15.2619 13.2793 15.3986 12.9445C15.5353 12.6096 15.7369 12.3054 15.9917 12.0495C16.2466 11.7936 16.5495 11.5912 16.883 11.4539C17.2165 11.3167 17.5738 11.2473 17.9342 11.25H20.4239V10.37C20.4239 10.1711 20.5026 9.98031 20.6427 9.83966C20.7828 9.699 20.9728 9.61999 21.1709 9.61999C21.3689 9.61999 21.5589 9.699 21.699 9.83966C21.839 9.98031 21.9178 10.1711 21.9178 10.37Z" fill="#1F1F1F"/>
<path d="M18.8801 8.5C18.6837 8.49737 18.4963 8.4172 18.3584 8.27684C18.2205 8.13647 18.1431 7.9472 18.1431 7.75001V2.75001C18.1418 2.65199 18.1599 2.55468 18.1964 2.46374C18.2328 2.3728 18.2869 2.29005 18.3554 2.22027C18.424 2.15049 18.5057 2.09509 18.5957 2.05728C18.6858 2.01947 18.7825 2 18.8801 2.00001C18.979 1.99869 19.0772 2.0171 19.169 2.0542C19.2608 2.09129 19.3443 2.14633 19.4147 2.21611C19.4851 2.28588 19.541 2.36901 19.5792 2.46066C19.6173 2.55231 19.637 2.65067 19.637 2.75001V7.75001C19.6344 7.94984 19.5535 8.14058 19.4118 8.28096C19.2701 8.42133 19.0791 8.50002 18.8801 8.5Z" fill="#1F1F1F"/>
<path d="M21.7484 5.11003C21.6084 4.96958 21.4186 4.89069 21.2206 4.89069C21.0227 4.89069 20.8329 4.96958 20.6928 5.11003L19.6969 6.11003L18.95 6.86003L17.1873 5.09003C17.0457 4.95755 16.8584 4.88543 16.6649 4.88885C16.4714 4.89228 16.2868 4.97099 16.15 5.1084C16.0131 5.24581 15.9347 5.4312 15.9313 5.6255C15.9279 5.8198 15.9997 6.00785 16.1316 6.15002L18.1234 8.15002C18.2434 8.26252 18.3814 8.35382 18.5317 8.42003C18.6737 8.47944 18.826 8.51002 18.9799 8.51002C19.1414 8.51276 19.3015 8.47855 19.448 8.41002C19.5937 8.35079 19.7258 8.26233 19.8363 8.15002L21.8281 6.15002C21.9518 6.00018 22.0127 5.80791 21.9978 5.61385C21.9829 5.41978 21.8935 5.23912 21.7484 5.11003Z" fill="#1F1F1F"/>
</svg>
