<svg width="24" height="24" viewBox="0 0 24 24" fill="none" xmlns="http://www.w3.org/2000/svg">
<path d="M12 17.5416V6.45831" stroke="#1F1F1F" stroke-width="1.5" stroke-miterlimit="10" stroke-linecap="round"/>
<path d="M6.72217 12.6967L11.2505 17.2778C11.3486 17.3767 11.4654 17.4552 11.5939 17.5088C11.7226 17.5625 11.8606 17.59 11.9999 17.59C12.1392 17.59 12.2772 17.5625 12.4059 17.5088C12.5344 17.4552 12.6512 17.3767 12.7494 17.2778L17.2777 12.6967" stroke="#1F1F1F" stroke-width="1.5" stroke-linecap="round" stroke-linejoin="round"/>
<path d="M12 21.5C17.2467 21.5 21.5 17.2467 21.5 12C21.5 6.7533 17.2467 2.5 12 2.5C6.7533 2.5 2.5 6.7533 2.5 12C2.5 17.2467 6.7533 21.5 12 21.5Z" stroke="#1F1F1F" stroke-width="1.5" stroke-linecap="round" stroke-linejoin="round"/>
</svg>
