<svg width="24" height="24" viewBox="0 0 24 24" fill="none" xmlns="http://www.w3.org/2000/svg">
<path d="M16.8704 2.82212C16.7052 2.5481 16.466 2.32625 16.1803 2.1821C15.8912 2.04241 15.5707 1.98038 15.2504 2.00211C14.9317 2.03374 14.6275 2.15128 14.3704 2.34214C12.9187 3.42479 11.2453 4.17268 9.47033 4.53214L4.17028 5.59214C3.55977 5.72214 3.01055 6.05311 2.61034 6.53214C2.21645 7.01505 2.00103 7.61892 2.00036 8.2421V12.8221C1.99009 13.4529 2.19853 14.0677 2.59033 14.5621C2.87219 14.9164 3.24069 15.192 3.66027 15.3622L5.46032 20.2421C5.65662 20.76 6.00527 21.2064 6.46032 21.5221C6.90658 21.8326 7.43672 22 7.98034 22.0021H9.14037C9.41773 21.9963 9.68976 21.9255 9.93469 21.7952C10.1796 21.6649 10.3905 21.4789 10.5503 21.2521C10.7031 21.0239 10.8023 20.7641 10.8403 20.4921C10.8729 20.2147 10.8387 19.9336 10.7404 19.6722L9.60033 16.6122C11.3267 16.9603 12.9552 17.684 14.3704 18.7322C14.6275 18.923 14.9317 19.0405 15.2504 19.0721H15.4103C15.6751 19.0696 15.9355 19.0045 16.1703 18.8821C16.4662 18.7471 16.7174 18.5305 16.8945 18.2577C17.0717 17.985 17.1673 17.6674 17.1703 17.3421V3.72214C17.16 3.39935 17.0558 3.08655 16.8704 2.82212ZM13.4804 13.4621C13.4804 13.7274 13.3749 13.9817 13.1874 14.1692C12.9999 14.3568 12.7456 14.4621 12.4804 14.4621C12.2151 14.4621 11.9607 14.3568 11.7732 14.1692C11.5857 13.9817 11.4804 13.7274 11.4804 13.4621V7.6221C11.4804 7.35688 11.5857 7.10255 11.7732 6.91501C11.9607 6.72748 12.2151 6.6221 12.4804 6.6221C12.7456 6.6221 12.9999 6.72748 13.1874 6.91501C13.3749 7.10255 13.4804 7.35688 13.4804 7.6221V13.4621Z" fill="#1F1F1F"/>
<path d="M18.52 7.15212C18.388 7.15069 18.2586 7.11487 18.1447 7.04823C18.0307 6.9816 17.9361 6.88645 17.8701 6.77211C17.7762 6.60204 17.7528 6.40184 17.8052 6.21474C17.8576 6.02764 17.9814 5.86866 18.15 5.77211L20.6801 4.31209C20.8489 4.2173 21.0483 4.19252 21.2352 4.243C21.4222 4.29348 21.5818 4.41521 21.6801 4.58211C21.7723 4.75153 21.7958 4.94996 21.7455 5.13619C21.6952 5.32242 21.575 5.48213 21.41 5.58211L18.8801 7.04213C18.7714 7.1088 18.6474 7.14665 18.52 7.15212Z" fill="#1F1F1F"/>
<path d="M21.0799 16.8821C20.9496 16.8844 20.8213 16.8497 20.7099 16.7821L18.1799 15.3221C18.0113 15.2256 17.8874 15.0666 17.835 14.8795C17.7826 14.6924 17.8059 14.4922 17.8998 14.3221C17.9999 14.1573 18.159 14.0367 18.3447 13.9847C18.5303 13.9327 18.7287 13.9532 18.8998 14.0421L21.4299 15.5121C21.5968 15.6103 21.7185 15.77 21.769 15.957C21.8195 16.144 21.7947 16.3432 21.6999 16.5121C21.636 16.621 21.5457 16.712 21.4373 16.7766C21.3289 16.8413 21.206 16.8776 21.0799 16.8821Z" fill="#1F1F1F"/>
<path d="M21.2502 11.2921H18.3301C18.1312 11.2921 17.9405 11.2131 17.7999 11.0725C17.6592 10.9318 17.5801 10.741 17.5801 10.5421C17.5801 10.3432 17.6592 10.1524 17.7999 10.0118C17.9405 9.87112 18.1312 9.79211 18.3301 9.79211H21.2502C21.4491 9.79211 21.6398 9.87112 21.7805 10.0118C21.9211 10.1524 22.0002 10.3432 22.0002 10.5421C22.0002 10.741 21.9211 10.9318 21.7805 11.0725C21.6398 11.2131 21.4491 11.2921 21.2502 11.2921Z" fill="#1F1F1F"/>
</svg>
