<svg width="24" height="24" viewBox="0 0 24 24" fill="none" xmlns="http://www.w3.org/2000/svg">
<path d="M17.25 4H6.75C4.54086 4 2.75 5.79086 2.75 8V16C2.75 18.2091 4.54086 20 6.75 20H17.25C19.4591 20 21.25 18.2091 21.25 16V8C21.25 5.79086 19.4591 4 17.25 4Z" stroke="#1F1F1F" stroke-width="1.5"/>
<path d="M12 16.25C14.0711 16.25 15.75 14.5711 15.75 12.5C15.75 10.4289 14.0711 8.75 12 8.75C9.92893 8.75 8.25 10.4289 8.25 12.5C8.25 14.5711 9.92893 16.25 12 16.25Z" stroke="#1F1F1F" stroke-width="1.5"/>
<path d="M17 7.00281H17.5" stroke="#1F1F1F" stroke-width="1.5" stroke-linecap="round"/>
</svg>
