<svg width="24" height="24" viewBox="0 0 24 24" fill="none" xmlns="http://www.w3.org/2000/svg">
<path d="M19.69 6.09422H18.22C18.4713 5.26903 18.4145 4.38065 18.06 3.59422C17.782 3.05346 17.3463 2.60995 16.8105 2.32243C16.2748 2.03491 15.6643 1.91697 15.06 1.98424C14.4542 1.95021 13.8504 2.07987 13.312 2.35964C12.7736 2.6394 12.3204 3.05895 12 3.57424C11.8652 3.36112 11.7076 3.16329 11.53 2.98424C11.1833 2.64664 10.771 2.38371 10.3187 2.21172C9.86628 2.03972 9.38345 1.9623 8.9 1.98424C8.29582 1.92754 7.68841 2.05116 7.15445 2.33949C6.6205 2.62783 6.18396 3.06794 5.9 3.60423C5.54979 4.38819 5.493 5.27189 5.73999 6.09422H4.29001C3.68348 6.09686 3.10254 6.33898 2.67365 6.76787C2.24476 7.19676 2.00263 7.7777 2 8.38423V10.3842C2.00158 10.9525 2.21258 11.5002 2.59262 11.9227C2.97266 12.3452 3.49508 12.6127 4.06 12.6742V19.2242C4.06261 19.967 4.35814 20.6787 4.88239 21.2048C5.40664 21.7309 6.11731 22.029 6.86002 22.0342H17.14C17.8828 22.029 18.5934 21.7309 19.1176 21.2048C19.6419 20.6787 19.9374 19.967 19.94 19.2242V12.7242C20.505 12.6627 21.0274 12.3952 21.4074 11.9727C21.7875 11.5502 21.9984 11.0025 22 10.4342V8.43422C22.0054 8.12799 21.9495 7.82379 21.8357 7.53944C21.7218 7.2551 21.5524 6.99636 21.3372 6.7784C21.122 6.56043 20.8655 6.38764 20.5826 6.27016C20.2998 6.15267 19.9963 6.09285 19.69 6.09422ZM15.06 3.48424C15.3739 3.44017 15.6939 3.48635 15.9826 3.61739C16.2712 3.74843 16.5166 3.9589 16.69 4.22423C16.8029 4.52087 16.8524 4.8379 16.8351 5.15483C16.8179 5.47177 16.7344 5.78156 16.59 6.06423H12.73C12.95 3.48423 14.51 3.48424 15.04 3.48424H15.06ZM7.23001 4.26424C7.40112 3.98469 7.65071 3.76167 7.94766 3.62297C8.24462 3.48427 8.57581 3.43603 8.9 3.48424C9.18376 3.46494 9.46849 3.50377 9.73673 3.59834C10.005 3.69292 10.2511 3.84123 10.46 4.03423C10.9433 4.61203 11.2087 5.34097 11.21 6.09422H7.32001C7.1709 5.80789 7.08402 5.49325 7.06507 5.17098C7.04611 4.8487 7.09548 4.52607 7.20999 4.22423L7.23001 4.26424ZM3.48001 10.4342V8.43422C3.48001 8.2247 3.56324 8.02378 3.7114 7.87563C3.85955 7.72747 4.06047 7.64424 4.26999 7.64424H11.27V11.2242H4.26999C4.16458 11.2269 4.05972 11.2084 3.96155 11.1699C3.86338 11.1314 3.77392 11.0737 3.69843 11C3.62294 10.9264 3.56295 10.8384 3.52201 10.7412C3.48106 10.6441 3.45996 10.5397 3.45999 10.4342H3.48001ZM20.48 10.4342C20.4814 10.5388 20.4619 10.6426 20.4228 10.7396C20.3837 10.8366 20.3257 10.9249 20.2522 10.9993C20.1787 11.0737 20.0912 11.1328 19.9947 11.1731C19.8982 11.2135 19.7946 11.2342 19.69 11.2342H12.69V7.59422H19.69C19.7938 7.59422 19.8965 7.61467 19.9923 7.65437C20.0882 7.69408 20.1753 7.75225 20.2487 7.82561C20.322 7.89897 20.3802 7.98605 20.4199 8.08189C20.4596 8.17774 20.48 8.28049 20.48 8.38423V10.4342Z" fill="#1F1F1F"/>
</svg>
