<svg width="24" height="24" viewBox="0 0 24 24" fill="none" xmlns="http://www.w3.org/2000/svg">
<path d="M21.1833 7.76483C20.9341 7.23129 20.5298 6.78523 20.0233 6.48483L13.5533 2.48483C13.0788 2.19082 12.5316 2.03503 11.9733 2.03503C11.415 2.03503 10.8679 2.19082 10.3933 2.48483L3.92328 6.48483C3.43282 6.7972 3.04371 7.24535 2.80329 7.77481C2.55474 8.30462 2.47114 8.89691 2.5633 9.47482L4.24329 19.4748C4.35102 20.1722 4.70596 20.8075 5.24329 21.2648C5.77636 21.7113 6.448 21.9587 7.14332 21.9648H16.7633C17.4912 21.9719 18.1987 21.7243 18.7633 21.2648C19.3007 20.8075 19.6556 20.1722 19.7633 19.4748L21.4433 9.47482C21.5264 8.89166 21.436 8.29694 21.1833 7.76483ZM16.4533 16.2548C16.4469 16.5096 16.3898 16.7605 16.2854 16.993C16.181 17.2255 16.0314 17.4349 15.8452 17.609C15.6591 17.783 15.4401 17.9183 15.2011 18.0069C14.9622 18.0954 14.708 18.1355 14.4533 18.1248H9.45331C9.19868 18.1355 8.94442 18.0954 8.70545 18.0069C8.46648 17.9183 8.24757 17.783 8.06141 17.609C7.87525 17.4349 7.72556 17.2255 7.62116 16.993C7.51676 16.7605 7.45973 16.5096 7.45331 16.2548V12.7548C7.46062 12.3393 7.60466 11.9378 7.86317 11.6124C8.12167 11.287 8.48021 11.0559 8.88331 10.9548V10.4548C8.88232 10.0569 8.96049 9.66281 9.11329 9.29541C9.26608 8.92801 9.49041 8.59468 9.77326 8.31482C10.3459 7.76068 11.1115 7.45087 11.9083 7.45087C12.7051 7.45087 13.4707 7.76068 14.0433 8.31482C14.3262 8.59468 14.5505 8.92801 14.7033 9.29541C14.8561 9.66281 14.9343 10.0569 14.9333 10.4548V10.9548C15.3364 11.0559 15.695 11.287 15.9535 11.6124C16.212 11.9378 16.356 12.3393 16.3633 12.7548L16.4533 16.2548Z" fill="#1F1F1F"/>
<path d="M13.6133 10.4549V10.8849H10.4233V10.4549C10.4231 10.2448 10.4645 10.0368 10.5452 9.84283C10.6259 9.64888 10.7442 9.47283 10.8933 9.32486C11.1965 9.0357 11.5993 8.87439 12.0183 8.87439C12.4373 8.87439 12.8401 9.0357 13.1433 9.32486C13.2924 9.47283 13.4106 9.64888 13.4913 9.84283C13.572 10.0368 13.6135 10.2448 13.6133 10.4549Z" fill="#1F1F1F"/>
</svg>
