<svg width="24" height="24" viewBox="0 0 24 24" fill="none" xmlns="http://www.w3.org/2000/svg">
<path d="M21.2501 8.63155C21.1513 8.63289 21.0532 8.61439 20.9616 8.57708C20.87 8.53976 20.7867 8.48443 20.7168 8.41434C20.6469 8.34425 20.5917 8.26082 20.5545 8.16899C20.5173 8.07717 20.4988 7.97877 20.5001 7.87966V5.87465C20.4949 5.25411 20.2467 4.66047 19.809 4.22166C19.3713 3.78286 18.7792 3.53402 18.1602 3.52879H15.0801C14.8812 3.52879 14.6905 3.44957 14.5498 3.30857C14.4092 3.16756 14.3301 2.97632 14.3301 2.7769C14.3301 2.57749 14.4092 2.38625 14.5498 2.24524C14.6905 2.10424 14.8812 2.02502 15.0801 2.02502H18.1602C18.664 2.02587 19.1627 2.12637 19.6278 2.32076C20.0928 2.51515 20.5149 2.79962 20.8701 3.15786C21.2302 3.51191 21.5157 3.93478 21.7098 4.40144C21.9039 4.86809 22.0026 5.36905 22.0001 5.87465V7.87966C22.0001 8.07907 21.9211 8.27033 21.7805 8.41133C21.6398 8.55233 21.449 8.63155 21.2501 8.63155Z" fill="#1F1F1F"/>
<path d="M18.1602 22.025H15.0801C14.8812 22.025 14.6905 21.9458 14.5498 21.8048C14.4092 21.6638 14.3301 21.4725 14.3301 21.2731C14.3301 21.0737 14.4092 20.8825 14.5498 20.7415C14.6905 20.6005 14.8812 20.5212 15.0801 20.5212H18.1602C18.779 20.5212 19.3727 20.2755 19.8112 19.8377C20.2498 19.3999 20.4975 18.8058 20.5001 18.1854V16.1102C20.5001 15.9108 20.5791 15.7196 20.7198 15.5786C20.8604 15.4375 21.0512 15.3583 21.2501 15.3583C21.449 15.3583 21.6398 15.4375 21.7805 15.5786C21.9211 15.7196 22.0001 15.9108 22.0001 16.1102V18.1754C22.0015 18.6808 21.9023 19.1814 21.7083 19.6479C21.5142 20.1144 21.2293 20.5374 20.8701 20.8922C20.1509 21.6129 19.1771 22.02 18.1602 22.025Z" fill="#1F1F1F"/>
<path d="M8.91011 22.025H5.83009C4.8146 22.0227 3.84091 21.6193 3.12007 20.9022C2.76229 20.547 2.47891 20.1237 2.28658 19.6571C2.09424 19.1906 1.99685 18.6902 2.00008 18.1854V16.1102C2.00008 15.9108 2.07909 15.7196 2.21974 15.5786C2.3604 15.4375 2.55116 15.3583 2.75008 15.3583C2.94899 15.3583 3.13976 15.4375 3.28041 15.5786C3.42106 15.7196 3.50008 15.9108 3.50008 16.1102V18.1754C3.49889 18.4824 3.55835 18.7867 3.67507 19.0706C3.79178 19.3545 3.96341 19.6125 4.18007 19.8295C4.61926 20.2654 5.21208 20.5103 5.83009 20.5112H8.91011C9.10902 20.5112 9.29979 20.5904 9.44045 20.7314C9.5811 20.8724 9.66011 21.0637 9.66011 21.2631C9.66011 21.4625 9.5811 21.6538 9.44045 21.7948C9.29979 21.9358 9.10902 22.015 8.91011 22.015V22.025Z" fill="#1F1F1F"/>
<path d="M2.75014 8.63155C2.65128 8.63289 2.55317 8.61439 2.46157 8.57708C2.36996 8.53976 2.28673 8.48443 2.21681 8.41434C2.1469 8.34425 2.09174 8.26082 2.05452 8.16899C2.01731 8.07717 1.99879 7.97877 2.00014 7.87966V5.87465C1.99578 5.36968 2.09272 4.86899 2.28511 4.40229C2.47751 3.93559 2.76144 3.51241 3.12013 3.15786C3.47532 2.79962 3.89754 2.51515 4.36257 2.32076C4.8276 2.12637 5.32632 2.02587 5.83016 2.02502H8.91017C9.10909 2.02502 9.29986 2.10424 9.44051 2.24524C9.58116 2.38625 9.66017 2.57749 9.66017 2.7769C9.66017 2.97632 9.58116 3.16756 9.44051 3.30857C9.29986 3.44957 9.10909 3.52879 8.91017 3.52879H5.83016C5.21128 3.53144 4.61864 3.77977 4.18196 4.21942C3.74529 4.65906 3.50013 5.25422 3.50014 5.87465V7.87966C3.50014 8.07907 3.42113 8.27033 3.28047 8.41133C3.13982 8.55233 2.94905 8.63155 2.75014 8.63155Z" fill="#1F1F1F"/>
<path d="M18.3903 10.7368C18.3637 10.9579 18.2811 11.1684 18.1503 11.3484L11.6403 20.1203C11.5737 20.2037 11.4964 20.2779 11.4103 20.3409C11.3007 20.4091 11.178 20.4535 11.0502 20.4712H10.9003C10.7943 20.4884 10.6862 20.4884 10.5803 20.4712C10.3794 20.3801 10.2141 20.225 10.1102 20.0301C10.1048 19.9935 10.1048 19.9564 10.1102 19.9198C10.065 19.766 10.065 19.6024 10.1102 19.4486L10.7402 14.6165H6.74026C6.51098 14.6146 6.28736 14.5451 6.09713 14.4168C5.9069 14.2885 5.75849 14.1069 5.67031 13.8947C5.66618 13.8581 5.66618 13.8211 5.67031 13.7844C5.62031 13.5803 5.62031 13.367 5.67031 13.1629C5.70921 12.9888 5.78413 12.8249 5.89028 12.6817L12.3703 3.8897C12.4353 3.79236 12.5206 3.71029 12.6203 3.64911C12.6637 3.61979 12.7108 3.5962 12.7603 3.57893C12.9648 3.51088 13.1858 3.51088 13.3903 3.57893C13.5896 3.66742 13.7546 3.81879 13.8602 4.01C13.8642 4.05 13.8642 4.09031 13.8602 4.13031C13.9053 4.28071 13.9053 4.44105 13.8602 4.59146L13.2402 9.43357H17.2402C17.4599 9.43314 17.675 9.49576 17.8602 9.61403C18.0579 9.74598 18.2113 9.93465 18.3002 10.1554C18.3774 10.3388 18.4083 10.5385 18.3903 10.7368Z" fill="#1F1F1F"/>
</svg>
