<svg width="24" height="24" viewBox="0 0 24 24" fill="none" xmlns="http://www.w3.org/2000/svg">
<path d="M20.5556 6.30463C19.4295 4.61753 17.828 3.30254 15.9541 2.52607C14.0802 1.74959 12.018 1.54659 10.0286 1.94275C8.03923 2.33892 6.21212 3.31641 4.77859 4.75153C3.34508 6.18665 2.36961 8.01483 1.97566 10.0046C1.68263 11.4866 1.72043 13.0149 2.0864 14.4805C2.45237 15.9461 3.13747 17.3128 4.09274 18.483C5.04801 19.6532 6.24989 20.5981 7.61256 21.2501C8.97522 21.902 10.4651 22.2451 11.9756 22.2546C12.0722 22.2551 12.1677 22.2346 12.2556 22.1946C12.3492 22.1593 12.4343 22.1048 12.5056 22.0347L22.0056 12.5347C22.1114 12.4274 22.1842 12.292 22.2156 12.1447C22.221 12.0981 22.221 12.0512 22.2156 12.0046C22.2391 9.98216 21.6613 7.99827 20.5556 6.30463ZM12.3856 20.0847C12.2485 19.478 12.1914 18.8561 12.2156 18.2346C12.2156 17.4408 12.373 16.6548 12.6789 15.9222C12.9848 15.1897 13.4331 14.5251 13.9977 13.967C14.5623 13.409 15.232 12.9685 15.968 12.6711C16.7041 12.3738 17.4918 12.2254 18.2856 12.2346C18.89 12.2125 19.4947 12.2663 20.0856 12.3947L12.3856 20.0847Z" fill="#1F1F1F"/>
</svg>
