<svg width="24" height="24" viewBox="0 0 24 24" fill="none" xmlns="http://www.w3.org/2000/svg">
<path d="M21.9351 18.8436C21.8129 19.4214 21.496 19.9398 21.0376 20.3122C20.5041 20.8634 19.8567 21.2915 19.1406 21.5667C18.5182 21.8026 17.8582 21.9236 17.1926 21.9236H16.8356C15.3478 21.8702 13.8852 21.5236 12.5317 20.9037C12.2053 20.7508 11.8891 20.5978 11.5831 20.4346C10.004 19.5388 8.55285 18.4342 7.26896 17.1505C5.59176 15.5999 4.20954 13.7581 3.18936 11.7145C2.65946 10.5801 2.31512 9.36796 2.16946 8.12441C1.92454 6.84644 2.07029 5.52433 2.58765 4.33038C2.9087 3.77968 3.30332 3.27529 3.76056 2.83113C3.96037 2.60542 4.203 2.42168 4.47444 2.29059C4.76339 2.15965 5.07532 2.08688 5.39238 2.07642C5.75068 2.10233 6.09888 2.20678 6.41228 2.38237C6.69572 2.55212 6.94477 2.77354 7.14657 3.03512C7.52394 3.44308 7.95225 3.87144 8.38061 4.31L9.31896 5.2687C9.68268 5.60983 9.91393 6.06867 9.97171 6.56396V6.66596C9.93333 7.07481 9.76542 7.46074 9.49239 7.76747C9.31901 7.98165 9.11497 8.18562 8.92119 8.3998L8.63558 8.69555C8.51549 8.81012 8.42153 8.9493 8.36019 9.10353C8.3192 9.23212 8.29861 9.36631 8.29906 9.50128C8.45726 9.96228 8.71893 10.381 9.06399 10.7252L9.12512 10.817C9.61468 11.4595 10.1451 12.1224 10.6347 12.7242C11.6114 13.8436 12.7657 14.7947 14.0513 15.5391C14.171 15.6362 14.3163 15.6964 14.4695 15.7125C14.6043 15.7322 14.7417 15.7145 14.8672 15.6615C15.2267 15.4484 15.5446 15.172 15.8055 14.8455C16.1755 14.3972 16.7063 14.1117 17.2843 14.05C17.5584 14.0497 17.8297 14.1047 18.082 14.2116C18.3343 14.3185 18.5626 14.4751 18.753 14.6722C18.957 14.8456 19.1712 15.0699 19.3854 15.2943C19.5996 15.5187 19.6097 15.5391 19.7321 15.6513L20.0483 15.9674C20.2421 16.151 20.4154 16.3244 20.599 16.5284C20.9285 16.8206 21.2385 17.1341 21.5271 17.4667C21.691 17.6658 21.8156 17.8943 21.8943 18.1398C21.9442 18.3709 21.958 18.6083 21.9351 18.8436Z" fill="#1F1F1F"/>
<path d="M19.6309 5.13606V8.56294C19.6309 8.76581 19.5503 8.96034 19.4069 9.1038C19.2634 9.24725 19.0688 9.32786 18.8659 9.32786C18.6631 9.32786 18.4686 9.24725 18.3251 9.1038C18.1817 8.96034 18.101 8.76581 18.101 8.56294V7.0025L13.7053 11.3983C13.635 11.4702 13.5508 11.5272 13.4579 11.5658C13.365 11.6043 13.2653 11.6237 13.1647 11.6226C13.0642 11.6231 12.9646 11.6035 12.8718 11.565C12.779 11.5264 12.6948 11.4698 12.6242 11.3983C12.4809 11.2548 12.4004 11.0604 12.4004 10.8577C12.4004 10.655 12.4809 10.4606 12.6242 10.3172L17.0301 5.9112H15.4493C15.2464 5.9112 15.0518 5.83061 14.9083 5.68716C14.7649 5.54371 14.6844 5.34914 14.6844 5.14627C14.6844 4.9434 14.7649 4.74884 14.9083 4.60538C15.0518 4.46193 15.2464 4.38135 15.4493 4.38135H18.8761H19.0291C19.1295 4.39279 19.2248 4.43158 19.3045 4.49352L19.4167 4.59552C19.5512 4.73654 19.6308 4.92106 19.6411 5.11568L19.6309 5.13606Z" fill="#1F1F1F"/>
</svg>
