<svg width="24" height="24" viewBox="0 0 24 24" fill="none" xmlns="http://www.w3.org/2000/svg">
<path d="M14.333 5.86932H5.55583C4.00621 5.86932 2.75 7.12554 2.75 8.67516V15.3249C2.75 16.8745 4.00621 18.1307 5.55583 18.1307H14.333C15.8827 18.1307 17.1389 16.8745 17.1389 15.3249V8.67516C17.1389 7.12554 15.8827 5.86932 14.333 5.86932Z" stroke="#1F1F1F" stroke-width="1.5" stroke-linecap="round" stroke-linejoin="round"/>
<path d="M19.688 15.0885H20.2224C20.495 15.0885 20.7564 14.9802 20.9492 14.7874C21.1419 14.5947 21.2502 14.3333 21.2502 14.0607V9.94959C21.2502 9.67701 21.1419 9.41559 20.9492 9.22284C20.7564 9.0301 20.495 8.92181 20.2224 8.92181H19.688" stroke="#1F1F1F" stroke-width="1.5" stroke-linecap="round" stroke-linejoin="round"/>
<path d="M12.013 9.93121L7.87549 14.0688" stroke="#1F1F1F" stroke-width="1.5" stroke-miterlimit="10" stroke-linecap="round"/>
<path d="M7.87549 9.93121L12.013 14.0688" stroke="#1F1F1F" stroke-width="1.5" stroke-miterlimit="10" stroke-linecap="round"/>
</svg>
