<svg width="24" height="24" viewBox="0 0 24 24" fill="none" xmlns="http://www.w3.org/2000/svg">
<path d="M21.8632 11.0263C21.7524 10.5766 21.5442 10.1567 21.2532 9.79633C20.9627 9.43687 20.5931 9.14937 20.1732 8.9563C19.7547 8.75706 19.2967 8.65454 18.8332 8.65631H14.4032L14.6632 7.65631C14.9045 6.70449 14.8127 5.69875 14.4032 4.8063C13.9857 3.91771 13.2812 3.19559 12.4032 2.75632L11.3032 2.21631C11.0731 2.10257 10.8198 2.0434 10.5632 2.0434C10.3065 2.0434 10.0533 2.10257 9.8232 2.21631C9.59333 2.33519 9.39465 2.50646 9.2432 2.71631C9.08975 2.92185 8.99006 3.16248 8.9532 3.41632L8.0132 9.06631C7.86111 9.20517 7.72372 9.35931 7.6032 9.52631C7.37501 9.25012 7.08969 9.02667 6.76687 8.87131C6.44405 8.71594 6.09141 8.63236 5.7332 8.62631H4.5532C3.88486 8.62631 3.24389 8.89182 2.77129 9.36441C2.2987 9.837 2.0332 10.478 2.0332 11.1463V19.4363C2.0332 20.1047 2.2987 20.7456 2.77129 21.2182C3.24389 21.6908 3.88486 21.9563 4.5532 21.9563H5.7332C6.1038 21.9579 6.47012 21.8771 6.80564 21.7197C7.14117 21.5623 7.4375 21.3323 7.6732 21.0463C8.2605 21.63 9.05517 21.9572 9.8832 21.9563H17.4032C18.1299 21.9663 18.8372 21.7222 19.4032 21.2663C19.9756 20.8107 20.3659 20.165 20.5032 19.4463L21.9232 12.3563C21.9979 11.9138 21.9774 11.4603 21.8632 11.0263ZM6.7332 19.4763C6.7332 19.7415 6.62784 19.9959 6.44031 20.1834C6.25277 20.3709 5.99842 20.4763 5.7332 20.4763H4.5532C4.28798 20.4763 4.03363 20.3709 3.84609 20.1834C3.65856 19.9959 3.5532 19.7415 3.5532 19.4763V11.1863C3.5532 10.9211 3.65856 10.6668 3.84609 10.4792C4.03363 10.2917 4.28798 10.1863 4.5532 10.1863H5.7332C5.99842 10.1863 6.25277 10.2917 6.44031 10.4792C6.62784 10.6668 6.7332 10.9211 6.7332 11.1863V19.4763Z" fill="#1F1F1F"/>
</svg>
