<svg width="24" height="24" viewBox="0 0 24 24" fill="none" xmlns="http://www.w3.org/2000/svg">
<path d="M10.94 18.339L7.51 20.8869C7.26537 21.0782 6.9732 21.1993 6.66487 21.2372C6.35654 21.2751 6.0437 21.2284 5.75995 21.102C5.4762 20.9757 5.23225 20.7745 5.05432 20.5201C4.87638 20.2656 4.77118 19.9676 4.75 19.6579V6.34928C4.78647 5.35977 5.21452 4.42518 5.94014 3.75077C6.66575 3.07636 7.6296 2.71726 8.62 2.75235H15.38C16.3704 2.71726 17.3342 3.07636 18.0599 3.75077C18.7855 4.42518 19.2135 5.35977 19.25 6.34928V19.6579C19.2288 19.9676 19.1236 20.2656 18.9457 20.5201C18.7677 20.7745 18.5238 20.9757 18.24 21.102C17.9563 21.2284 17.6435 21.2751 17.3351 21.2372C17.0268 21.1993 16.7346 21.0782 16.49 20.8869L13.06 18.339C12.7521 18.1149 12.381 17.9941 12 17.9941C11.619 17.9941 11.2479 18.1149 10.94 18.339Z" stroke="#1F1F1F" stroke-width="1.5" stroke-linecap="round" stroke-linejoin="round"/>
<path d="M10.2739 7.62757C10.444 7.25657 10.7329 6.9529 11.095 6.76461C11.4571 6.57632 11.8717 6.51418 12.2731 6.588C12.548 6.63019 12.8093 6.73627 13.0358 6.89771C13.2624 7.05915 13.4479 7.27147 13.5775 7.51761C13.6708 7.71448 13.7214 7.92886 13.726 8.14668C13.7306 8.36449 13.689 8.58084 13.6041 8.78145C13.5191 8.98206 13.3927 9.16242 13.2331 9.31069C13.0734 9.45896 12.8842 9.57178 12.6779 9.64169C12.4674 9.72157 12.2853 9.862 12.1546 10.0452C12.0238 10.2284 11.9503 10.4463 11.9432 10.6713V11.0961" stroke="#1F1F1F" stroke-width="1.5" stroke-miterlimit="10" stroke-linecap="round"/>
<path d="M11.9106 13.4423H11.915" stroke="#1F1F1F" stroke-width="1.5" stroke-linecap="round" stroke-linejoin="round"/>
</svg>
