<svg width="24" height="24" viewBox="0 0 24 24" fill="none" xmlns="http://www.w3.org/2000/svg">
<path d="M20.8371 5.69498C20.4543 5.31057 19.9992 5.00575 19.4981 4.79807C18.9969 4.5904 18.4596 4.48399 17.9172 4.48499H8.70703C8.16392 4.48585 7.62637 4.59407 7.12524 4.80344C6.62412 5.01282 6.16939 5.31922 5.78711 5.70499L5.71704 5.78498L2.63708 9.99497C2.24219 10.5965 2.03174 11.3004 2.03174 12.02C2.03174 12.7396 2.24219 13.4434 2.63708 14.045L5.63708 18.215L5.70703 18.305C6.0898 18.6894 6.54498 18.9942 7.04614 19.2019C7.5473 19.4096 8.08459 19.516 8.62707 19.515H17.8371C18.3794 19.515 18.9166 19.4082 19.4176 19.2006C19.9187 18.993 20.374 18.6888 20.7575 18.3053C21.141 17.9218 21.4452 17.4665 21.6527 16.9655C21.8603 16.4644 21.9671 15.9273 21.9671 15.385V8.615C21.9904 7.5307 21.5843 6.4811 20.8371 5.69498ZM17.0371 13.005H9.66711C9.4019 13.005 9.14749 12.8996 8.95996 12.7121C8.77242 12.5246 8.66711 12.2702 8.66711 12.005C8.66711 11.7398 8.77242 11.4854 8.95996 11.2979C9.14749 11.1104 9.4019 11.005 9.66711 11.005H17.0371C17.3024 11.005 17.5566 11.1104 17.7442 11.2979C17.9317 11.4854 18.0371 11.7398 18.0371 12.005C18.0371 12.2702 17.9317 12.5246 17.7442 12.7121C17.5566 12.8996 17.3024 13.005 17.0371 13.005Z" fill="#1F1F1F"/>
</svg>
