<svg width="24" height="24" viewBox="0 0 24 24" fill="none" xmlns="http://www.w3.org/2000/svg">
<path d="M17.3284 12.0001C17.3293 12.6995 17.1922 13.3922 16.9248 14.0387C16.6574 14.6851 16.2651 15.2725 15.7702 15.7674C15.2754 16.2622 14.6877 16.6548 14.0408 16.9227C13.3939 17.1905 12.7005 17.3284 12.0002 17.3284C11.2464 17.3302 10.501 17.171 9.81388 16.8615L7.58633 17.1911C7.47558 17.2094 7.36203 17.2003 7.2556 17.1646C7.14918 17.129 7.05311 17.0678 6.9758 16.9866C6.89848 16.9053 6.84227 16.8063 6.81207 16.6983C6.78188 16.5904 6.77861 16.4766 6.80256 16.3671L7.11194 14.1081C6.81838 13.4442 6.66844 12.7259 6.67193 12.0001C6.67103 11.3007 6.80818 10.608 7.07555 9.96162C7.34291 9.31521 7.73524 8.72777 8.23011 8.2329C8.72497 7.73804 9.31267 7.34545 9.95957 7.0776C10.6065 6.80974 11.2999 6.67187 12.0002 6.67188C12.7005 6.67187 13.3939 6.80974 14.0408 7.0776C14.6877 7.34545 15.2754 7.73804 15.7702 8.2329C16.2651 8.72777 16.6574 9.31521 16.9248 9.96162C17.1922 10.608 17.3293 11.3007 17.3284 12.0001Z" stroke="#1F1F1F" stroke-width="1.5" stroke-linecap="round" stroke-linejoin="round"/>
<path d="M15.25 2.75H8.75C5.43629 2.75 2.75 5.43629 2.75 8.75V15.25C2.75 18.5637 5.43629 21.25 8.75 21.25H15.25C18.5637 21.25 21.25 18.5637 21.25 15.25V8.75C21.25 5.43629 18.5637 2.75 15.25 2.75Z" stroke="#1F1F1F" stroke-width="1.5"/>
</svg>
