<svg width="24" height="24" viewBox="0 0 24 24" fill="none" xmlns="http://www.w3.org/2000/svg">
<path d="M10.0741 7.72266H8.22266C7.94651 7.72266 7.72266 7.94651 7.72266 8.22266V15.7771C7.72266 16.0532 7.94651 16.2771 8.22266 16.2771H10.0741C10.3503 16.2771 10.5741 16.0532 10.5741 15.7771V8.22266C10.5741 7.94651 10.3503 7.72266 10.0741 7.72266Z" stroke="#1F1F1F" stroke-width="1.5" stroke-linecap="round" stroke-linejoin="round"/>
<path d="M15.7773 7.72266H13.9258C13.6496 7.72266 13.4258 7.94651 13.4258 8.22266V15.7771C13.4258 16.0532 13.6496 16.2771 13.9258 16.2771H15.7773C16.0534 16.2771 16.2773 16.0532 16.2773 15.7771V8.22266C16.2773 7.94651 16.0534 7.72266 15.7773 7.72266Z" stroke="#1F1F1F" stroke-width="1.5" stroke-linecap="round" stroke-linejoin="round"/>
<path d="M15.25 2.75H8.75C5.43629 2.75 2.75 5.43629 2.75 8.75V15.25C2.75 18.5637 5.43629 21.25 8.75 21.25H15.25C18.5637 21.25 21.25 18.5637 21.25 15.25V8.75C21.25 5.43629 18.5637 2.75 15.25 2.75Z" stroke="#1F1F1F" stroke-width="1.5"/>
</svg>
