<svg width="24" height="24" viewBox="0 0 24 24" fill="none" xmlns="http://www.w3.org/2000/svg">
<path d="M21.9198 8.36002C21.7124 8.02664 21.414 7.75946 21.0598 7.59C20.7068 7.42237 20.3142 7.35607 19.9258 7.39844C19.5374 7.44082 19.1683 7.59023 18.8598 7.83002L16.3298 9.83002V8.93C16.3398 8.35719 16.2308 7.78854 16.0098 7.26001C15.6847 6.46569 15.1309 5.78587 14.4187 5.30692C13.7065 4.82797 12.868 4.57148 12.0098 4.57001H6.09977C5.53006 4.56922 4.96587 4.68137 4.43978 4.9C3.37625 5.34654 2.5318 6.1946 2.08978 7.26001C1.87115 7.7861 1.75898 8.35031 1.75977 8.92002V15.09C1.75977 16.241 2.21703 17.3449 3.03094 18.1588C3.84485 18.9728 4.94873 19.43 6.09977 19.43H11.9198C13.0708 19.43 14.1747 18.9728 14.9886 18.1588C15.8025 17.3449 16.2598 16.241 16.2598 15.09V14.18L18.7898 16.18C19.0788 16.41 19.4241 16.5585 19.7898 16.61H20.0398C20.3521 16.6112 20.6603 16.5393 20.9398 16.4C21.332 16.2549 21.6729 15.9975 21.9198 15.66C22.1307 15.3283 22.2417 14.943 22.2398 14.55V9.42002C22.2284 9.04465 22.118 8.67897 21.9198 8.36002ZM11.5398 12.76H9.77978V14.51C9.77978 14.7089 9.70076 14.8997 9.56011 15.0403C9.41946 15.181 9.22869 15.26 9.02978 15.26C8.83087 15.26 8.6401 15.181 8.49944 15.0403C8.35879 14.8997 8.27978 14.7089 8.27978 14.51V12.76H6.53977C6.34086 12.76 6.15011 12.681 6.00945 12.5403C5.8688 12.3997 5.78977 12.2089 5.78977 12.01C5.78977 11.8111 5.8688 11.6203 6.00945 11.4797C6.15011 11.339 6.34086 11.26 6.53977 11.26H8.27978V9.51001C8.27978 9.3111 8.35879 9.12033 8.49944 8.97968C8.6401 8.83903 8.83087 8.76001 9.02978 8.76001C9.22869 8.76001 9.41946 8.83903 9.56011 8.97968C9.70076 9.12033 9.77978 9.3111 9.77978 9.51001V11.26H11.5398C11.7387 11.26 11.9295 11.339 12.0701 11.4797C12.2108 11.6203 12.2898 11.8111 12.2898 12.01C12.2898 12.2089 12.2108 12.3997 12.0701 12.5403C11.9295 12.681 11.7387 12.76 11.5398 12.76Z" fill="#1F1F1F"/>
</svg>
