<svg width="24" height="24" viewBox="0 0 24 24" fill="none" xmlns="http://www.w3.org/2000/svg">
<path d="M5.75074 2.75037H4.56724C3.5868 2.75037 2.79199 3.54517 2.79199 4.52562V12.8101C2.79199 13.7906 3.5868 14.5854 4.56724 14.5854H5.75074C6.73119 14.5854 7.526 13.7906 7.526 12.8101V4.52562C7.526 3.54517 6.73119 2.75037 5.75074 2.75037Z" stroke="#1F1F1F" stroke-width="1.5" stroke-linecap="round" stroke-linejoin="round"/>
<path d="M21.1603 11.7569L19.7401 4.65587C19.6318 4.11099 19.3354 3.62154 18.9027 3.27319C18.4699 2.92484 17.9285 2.73979 17.3731 2.75043H9.89337C9.2656 2.75043 8.66354 2.99982 8.21964 3.44372C7.77574 3.88762 7.52637 4.48967 7.52637 5.11744V12.2184C7.54538 12.6742 7.66068 13.1207 7.86466 13.5287C8.06865 13.9366 8.3567 14.2968 8.70987 14.5854L9.69218 20.5029C9.71432 20.641 9.76875 20.7719 9.85106 20.8849C9.93336 20.9979 10.0412 21.0899 10.1657 21.1533C10.2903 21.2168 10.4282 21.2499 10.568 21.25C10.7078 21.2501 10.8456 21.2172 10.9703 21.1539L12.071 20.6095C12.7981 20.2499 13.3803 19.6522 13.7205 18.9158C14.0607 18.1794 14.1385 17.3487 13.9409 16.5619L13.4438 14.5973H18.8406C19.1916 14.5974 19.5383 14.5193 19.8555 14.3689C20.1726 14.2185 20.4524 13.9994 20.6744 13.7275C20.8964 13.4556 21.0552 13.1377 21.1393 12.7969C21.2233 12.4561 21.2305 12.1008 21.1603 11.7569Z" stroke="#1F1F1F" stroke-width="1.5" stroke-linecap="round" stroke-linejoin="round"/>
</svg>
