<svg width="24" height="24" viewBox="0 0 24 24" fill="none" xmlns="http://www.w3.org/2000/svg">
<path d="M19.5121 12.5655C19.4707 12.8205 19.3599 13.0592 19.192 13.2555C19.0189 13.4489 18.7983 13.5937 18.552 13.6756L14.0721 14.5255L16.312 18.7555C16.4004 18.8926 16.4615 19.0454 16.4921 19.2056C16.5273 19.3906 16.5273 19.5805 16.4921 19.7656C16.4531 19.9501 16.3746 20.1241 16.2621 20.2755C16.1501 20.4327 16.0071 20.5654 15.8421 20.6656L14.152 21.5456C13.9521 21.6522 13.7287 21.7072 13.5021 21.7056C13.3633 21.7053 13.2252 21.6851 13.0921 21.6456C12.7409 21.5339 12.4467 21.29 12.272 20.9655L10.022 16.6955L6.81205 19.7755C6.60718 19.9657 6.35014 20.0902 6.0739 20.133C5.79765 20.1758 5.51492 20.1349 5.26213 20.0156C5.01677 19.893 4.81174 19.7024 4.67167 19.4666C4.5316 19.2308 4.46235 18.9596 4.47209 18.6855V3.69555C4.47598 3.44684 4.54119 3.20296 4.66203 2.98556C4.78933 2.76472 4.97659 2.58441 5.20207 2.46554C5.42194 2.34392 5.67099 2.28512 5.92204 2.29555C6.17525 2.30606 6.42085 2.38558 6.63212 2.52553L18.932 11.1855C19.1424 11.3394 19.308 11.5465 19.412 11.7855C19.5186 12.0308 19.5534 12.3013 19.5121 12.5655Z" fill="#1F1F1F"/>
</svg>
