<svg width="24" height="24" viewBox="0 0 24 24" fill="none" xmlns="http://www.w3.org/2000/svg">
<path d="M19.3701 4.81996L19.1501 4.59996C17.1985 2.71429 14.5809 1.67591 11.8674 1.71088C9.15383 1.74584 6.56399 2.85132 4.66163 4.78665C2.75926 6.72199 1.6984 9.33046 1.71006 12.0442C1.72171 14.7579 2.80493 17.3572 4.72385 19.2761C6.64277 21.1951 9.24204 22.2783 11.9558 22.2899C14.6696 22.3016 17.278 21.2407 19.2134 19.3384C21.1487 17.436 22.2542 14.8461 22.2892 12.1326C22.3241 9.41906 21.2857 6.80157 19.4001 4.84996L19.3701 4.81996ZM12.7601 10.12V3.21996C14.5553 3.36239 16.2612 4.06156 17.64 5.21996L12.7601 10.12Z" fill="#1F1F1F"/>
</svg>
