<svg width="24" height="24" viewBox="0 0 24 24" fill="none" xmlns="http://www.w3.org/2000/svg">
<path d="M21.25 13V8.5C21.25 7.84339 21.1207 7.19321 20.8694 6.58658C20.6181 5.97995 20.2498 5.42876 19.7855 4.96447C19.3212 4.50017 18.77 4.13188 18.1634 3.8806C17.5568 3.62933 16.9066 3.5 16.25 3.5H7.75C6.42392 3.5 5.15215 4.02678 4.21447 4.96447C3.27678 5.90215 2.75 7.17392 2.75 8.5V15.5C2.75 16.1566 2.87933 16.8068 3.1306 17.4134C3.38188 18.02 3.75017 18.5712 4.21447 19.0355C5.15215 19.9732 6.42392 20.5 7.75 20.5H14.01" stroke="#1F1F1F" stroke-width="1.5" stroke-linecap="round" stroke-linejoin="round"/>
<path d="M3.01025 17L5.75025 13.8C6.11009 13.4426 6.58236 13.2205 7.08713 13.1713C7.5919 13.1221 8.09817 13.2488 8.52025 13.53C8.94233 13.8112 9.4486 13.9379 9.95337 13.8887C10.4581 13.8395 10.9304 13.6174 11.2902 13.26L13.6202 10.93C14.2897 10.2582 15.1761 9.84619 16.1212 9.76742C17.0664 9.68866 18.0088 9.94829 18.7802 10.5L21.2502 12.41" stroke="#1F1F1F" stroke-width="1.5" stroke-linecap="round" stroke-linejoin="round"/>
<path d="M8.00984 10.17C8.33772 10.168 8.65768 10.069 8.92934 9.8854C9.20101 9.7018 9.41222 9.44186 9.53633 9.13836C9.66044 8.83487 9.69189 8.50142 9.62671 8.18007C9.56154 7.85872 9.40265 7.56388 9.1701 7.33272C8.93756 7.10156 8.64176 6.94446 8.32003 6.88121C7.99829 6.81796 7.66504 6.85142 7.36229 6.97735C7.05955 7.10328 6.80088 7.31604 6.61892 7.58881C6.43695 7.86157 6.33984 8.18212 6.33984 8.51001C6.33983 8.72885 6.3831 8.94552 6.46715 9.14758C6.55119 9.34963 6.67436 9.53308 6.82957 9.68735C6.98478 9.84163 7.16896 9.9637 7.37151 10.0465C7.57407 10.1294 7.791 10.1713 8.00984 10.17Z" stroke="#1F1F1F" stroke-width="1.5" stroke-linecap="round" stroke-linejoin="round"/>
<path d="M16.5 18.0054H21.5" stroke="#1F1F1F" stroke-width="1.5" stroke-miterlimit="10" stroke-linecap="round"/>
</svg>
