<svg width="24" height="24" viewBox="0 0 24 24" fill="none" xmlns="http://www.w3.org/2000/svg">
<path d="M4.80566 12V19.1944C4.80566 19.7396 5.02222 20.2624 5.40771 20.6479C5.79321 21.0334 6.31605 21.25 6.86121 21.25H17.139C17.6842 21.25 18.207 21.0334 18.5925 20.6479C18.978 20.2624 19.1945 19.7396 19.1945 19.1944V12" stroke="#1F1F1F" stroke-width="1.5" stroke-linecap="round" stroke-linejoin="round"/>
<path d="M19.7083 6.86108H4.29167C3.44023 6.86108 2.75 7.55131 2.75 8.40275V10.4583C2.75 11.3097 3.44023 12 4.29167 12H19.7083C20.5598 12 21.25 11.3097 21.25 10.4583V8.40275C21.25 7.55131 20.5598 6.86108 19.7083 6.86108Z" stroke="#1F1F1F" stroke-width="1.5" stroke-linecap="round" stroke-linejoin="round"/>
<path d="M6.92285 6.86111C6.01841 5.71 5.83341 2.75 8.91674 2.75C12.4112 2.75 11.9487 6.86111 12.0001 6.86111C12.0515 6.86111 11.6404 2.75 15.0834 2.75C18.1668 2.75 17.9612 5.71 17.0568 6.86111" stroke="#1F1F1F" stroke-width="1.5" stroke-linecap="round" stroke-linejoin="round"/>
<path d="M12 21.25V6.86108" stroke="#1F1F1F" stroke-width="1.5" stroke-linecap="round" stroke-linejoin="round"/>
</svg>
