<svg width="24" height="24" viewBox="0 0 24 24" fill="none" xmlns="http://www.w3.org/2000/svg">
<path d="M20.4061 10.3772C19.8939 9.86575 19.2011 9.57644 18.4773 9.57189H16.2402V9.32333C16.2376 9.12636 16.1583 8.93819 16.019 8.7989C15.8797 8.65961 15.6915 8.58022 15.4945 8.57764H3.56356C3.36579 8.57764 3.17605 8.6562 3.03621 8.79604C2.89637 8.93589 2.81787 9.12556 2.81787 9.32333V17.2773C2.81787 18.5298 3.31543 19.7311 4.20111 20.6168C5.08678 21.5024 6.28802 22 7.54056 22H11.5175C12.1359 21.9979 12.7475 21.8729 13.3171 21.6321C13.8927 21.4022 14.4158 21.0582 14.8549 20.6208C15.2941 20.1833 15.6402 19.6616 15.8723 19.0869V19.0172H18.4474C19.1712 19.0127 19.8641 18.7234 20.3762 18.2119C20.6313 17.9596 20.8338 17.6592 20.972 17.3281C21.1102 16.997 21.1815 16.6418 21.1816 16.2831V12.3061C21.1854 11.9494 21.1189 11.5954 20.9858 11.2645C20.8528 10.9335 20.6557 10.632 20.4061 10.3772ZM19.7201 16.2831C19.717 16.6117 19.5849 16.9259 19.3522 17.158C19.2386 17.275 19.1025 17.3679 18.9522 17.4311C18.8019 17.4943 18.6404 17.5265 18.4773 17.5259H16.2303C16.2352 17.4431 16.2352 17.3601 16.2303 17.2773V11.0632H18.4673C18.7961 11.0658 19.1107 11.1976 19.3432 11.4301C19.5758 11.6627 19.7075 11.9772 19.7101 12.3061L19.7201 16.2831Z" fill="#1F1F1F"/>
<path d="M5.94017 7.5734C5.79279 7.57327 5.64869 7.52949 5.52619 7.44754C5.40368 7.36559 5.30816 7.24916 5.25177 7.11299C5.19539 6.97681 5.1807 6.827 5.20941 6.68243C5.23813 6.53787 5.30904 6.40507 5.41319 6.30079C5.47387 6.24185 5.52133 6.17066 5.5524 6.09198C5.57113 6.01018 5.57113 5.92521 5.5524 5.84341C5.57196 5.75836 5.57196 5.66996 5.5524 5.5849C5.52133 5.50622 5.47387 5.43509 5.41319 5.37615C5.01341 4.96974 4.78551 4.42493 4.77686 3.85491C4.7771 3.57127 4.83463 3.29063 4.94592 3.02973C5.05534 2.76683 5.21392 2.52721 5.41319 2.32379C5.47634 2.23176 5.55932 2.15506 5.65605 2.09938C5.75278 2.0437 5.8608 2.01048 5.97209 2.0021C6.08339 1.99373 6.19508 2.01044 6.29906 2.05101C6.40304 2.09159 6.49666 2.15498 6.57287 2.23653C6.64908 2.31807 6.70593 2.41569 6.73939 2.52217C6.77284 2.62865 6.78196 2.74126 6.76609 2.85174C6.75021 2.96222 6.70984 3.06769 6.64775 3.16044C6.58567 3.25319 6.50353 3.33086 6.40744 3.38765C6.34677 3.44659 6.2993 3.51772 6.26823 3.5964C6.25318 3.68191 6.25318 3.7694 6.26823 3.85491C6.25414 3.93717 6.25414 4.02122 6.26823 4.10348C6.30504 4.1844 6.35551 4.25842 6.41739 4.32224C6.61845 4.52086 6.77742 4.75787 6.88503 5.0192C6.99263 5.28053 7.04668 5.56081 7.04378 5.84341C7.04772 6.12706 6.99316 6.40848 6.88369 6.67018C6.77422 6.93187 6.61217 7.16829 6.40744 7.36465C6.2822 7.48868 6.11613 7.56285 5.94017 7.5734Z" fill="#1F1F1F"/>
<path d="M9.17119 7.5734C8.9751 7.57481 8.78611 7.49998 8.64421 7.36465C8.50457 7.22483 8.42611 7.03527 8.42611 6.83766C8.42611 6.64006 8.50457 6.45056 8.64421 6.31074C8.70766 6.24954 8.75805 6.17615 8.79252 6.09501C8.82699 6.01387 8.84483 5.9266 8.84483 5.83844C8.84483 5.75028 8.82699 5.66307 8.79252 5.58193C8.75805 5.50078 8.70766 5.4274 8.64421 5.36619C8.44614 5.16762 8.29045 4.93081 8.18677 4.67021C8.07544 4.41107 8.01807 4.13197 8.01807 3.84994C8.01807 3.5679 8.07544 3.28886 8.18677 3.02973C8.29619 2.76683 8.45489 2.52721 8.65416 2.32379C8.71731 2.23176 8.80029 2.15506 8.89702 2.09938C8.99375 2.0437 9.10176 2.01048 9.21306 2.0021C9.32436 1.99373 9.43605 2.01044 9.54003 2.05101C9.64401 2.09159 9.73763 2.15498 9.81384 2.23653C9.89005 2.31807 9.9469 2.41569 9.98035 2.52217C10.0138 2.62865 10.023 2.74126 10.0071 2.85174C9.99118 2.96222 9.95081 3.06769 9.88872 3.16044C9.82663 3.25319 9.7445 3.33086 9.64841 3.38765C9.58773 3.44659 9.54027 3.51772 9.5092 3.5964C9.49415 3.68191 9.49415 3.7694 9.5092 3.85491C9.4951 3.93717 9.4951 4.02122 9.5092 4.10348C9.54601 4.1844 9.59648 4.25842 9.65836 4.32224C10.0597 4.7248 10.285 5.27001 10.285 5.83844C10.285 6.40687 10.0597 6.95214 9.65836 7.35469C9.5291 7.48605 9.35525 7.56408 9.17119 7.5734Z" fill="#1F1F1F"/>
<path d="M12.6414 7.57342C12.494 7.57329 12.3499 7.52951 12.2274 7.44756C12.1049 7.36562 12.0094 7.24919 11.953 7.11301C11.8966 6.97683 11.882 6.82702 11.9107 6.68246C11.9394 6.53789 12.0103 6.4051 12.1144 6.30081C12.1751 6.24187 12.2226 6.17068 12.2537 6.092C12.2724 6.0102 12.2724 5.92523 12.2537 5.84344C12.2732 5.75838 12.2732 5.66998 12.2537 5.58492C12.2226 5.50624 12.1751 5.43511 12.1144 5.37617C11.7111 4.97213 11.4826 4.42581 11.4781 3.85494C11.4752 3.56996 11.53 3.28734 11.6394 3.02417C11.7488 2.761 11.9104 2.52275 12.1144 2.32381C12.2543 2.18417 12.4438 2.10571 12.6414 2.10571C12.839 2.10571 13.0285 2.18417 13.1683 2.32381C13.3079 2.46363 13.3864 2.65313 13.3864 2.85073C13.3864 3.04834 13.3079 3.2379 13.1683 3.37771C13.0989 3.4351 13.0473 3.5109 13.0192 3.59642C13.0034 3.67852 13.0034 3.76289 13.0192 3.84498C13.0052 3.92724 13.0052 4.01129 13.0192 4.09355C13.0525 4.1764 13.1033 4.25106 13.1683 4.31231C13.3712 4.50953 13.5316 4.74628 13.6393 5.00794C13.7471 5.26959 13.7999 5.55056 13.7947 5.83348C13.7957 6.11628 13.7418 6.39659 13.6357 6.65873C13.5224 6.91658 13.3641 7.15225 13.1683 7.35472C13.0274 7.4928 12.8387 7.57113 12.6414 7.57342Z" fill="#1F1F1F"/>
</svg>
