<svg width="24" height="24" viewBox="0 0 24 24" fill="none" xmlns="http://www.w3.org/2000/svg">
<path d="M16.6983 21.9963H5.09832C4.68624 21.9979 4.27807 21.9163 3.89831 21.7563C3.52227 21.5999 3.18203 21.3685 2.89831 21.0763C2.60928 20.786 2.38088 20.4411 2.22637 20.0617C2.07186 19.6823 1.99431 19.2759 1.99828 18.8663V7.2763C1.99319 6.86812 2.07149 6.46318 2.22832 6.0863C2.38691 5.71143 2.618 5.37159 2.90832 5.0863C3.19296 4.7977 3.53314 4.56978 3.90832 4.4163C4.28808 4.25631 4.69625 4.17468 5.10833 4.17629H9.54833C9.74724 4.17629 9.93795 4.25531 10.0786 4.39596C10.2192 4.53661 10.2983 4.72738 10.2983 4.92629C10.2983 5.12521 10.2192 5.31598 10.0786 5.45663C9.93795 5.59728 9.74724 5.67629 9.54833 5.67629H5.10833C4.89324 5.68214 4.6805 5.72266 4.47832 5.79629C4.2841 5.87844 4.10752 5.99728 3.9583 6.14629C3.80815 6.29763 3.68935 6.47711 3.60869 6.67445C3.52804 6.87179 3.48715 7.08311 3.48833 7.29629V18.8863C3.48583 19.1012 3.52605 19.3144 3.60674 19.5135C3.68743 19.7127 3.80695 19.8938 3.9583 20.0463C4.10964 20.1964 4.2891 20.3153 4.48644 20.3959C4.68378 20.4766 4.89515 20.5175 5.10833 20.5163H16.7083C16.9207 20.5161 17.1311 20.4754 17.3283 20.3963C17.5238 20.3165 17.7008 20.1974 17.8483 20.0463C18.0005 19.8997 18.1198 19.7225 18.1983 19.5263C18.2864 19.3281 18.3307 19.1132 18.3283 18.8963V14.4563C18.3283 14.2574 18.4073 14.0666 18.548 13.926C18.6886 13.7853 18.8794 13.7063 19.0783 13.7063C19.2772 13.7063 19.468 13.7853 19.6086 13.926C19.7493 14.0666 19.8283 14.2574 19.8283 14.4563V18.9263C19.8299 19.3384 19.7483 19.7465 19.5883 20.1263C19.4319 20.5023 19.2005 20.8426 18.9083 21.1263C18.6219 21.4152 18.2823 21.6461 17.9083 21.8063C17.5208 21.9462 17.11 22.0107 16.6983 21.9963Z" fill="#1F1F1F"/>
<path d="M21.8085 5.45631C21.7077 5.19821 21.5506 4.9659 21.3485 4.77632L19.1985 2.62631C19.0089 2.42424 18.7766 2.26709 18.5185 2.16632C18.2605 2.05768 17.9834 2.00171 17.7035 2.00171C17.4236 2.00171 17.1465 2.05768 16.8885 2.16632C16.6324 2.27098 16.4009 2.42761 16.2085 2.62631L14.4985 4.33632V4.38632L6.75843 12.1163C6.36859 12.5104 6.14948 13.042 6.14844 13.5963V15.7663C6.15107 16.3251 6.37422 16.8603 6.76936 17.2554C7.16449 17.6505 7.69963 17.8737 8.25843 17.8763H10.4285C10.704 17.8767 10.9769 17.822 11.231 17.7156C11.4851 17.6091 11.7155 17.453 11.9085 17.2563L19.6485 9.51631L21.3685 7.79631C21.5705 7.60673 21.7277 7.37442 21.8285 7.11632C21.9429 6.85985 22.0021 6.58216 22.0021 6.30132C22.0021 6.02047 21.9429 5.74278 21.8285 5.48631L21.8085 5.45631ZM20.4285 6.50632C20.3971 6.58247 20.3493 6.65075 20.2885 6.70631L19.0685 7.92632L16.0685 4.92632L17.2985 3.69632C17.3588 3.64391 17.4261 3.60015 17.4985 3.56631C17.5745 3.53434 17.656 3.51736 17.7385 3.51631C17.8178 3.51736 17.896 3.53437 17.9685 3.56631C18.0446 3.59771 18.1129 3.64551 18.1685 3.70631L20.3285 5.85631C20.3831 5.91492 20.4271 5.98261 20.4585 6.05632C20.4736 6.13224 20.4736 6.21039 20.4585 6.28632C20.4623 6.36088 20.4521 6.43549 20.4285 6.50632Z" fill="#1F1F1F"/>
</svg>
