<svg width="24" height="24" viewBox="0 0 24 24" fill="none" xmlns="http://www.w3.org/2000/svg">
<path d="M18.25 3.33002H5.75C4.95435 3.33002 4.19129 3.64609 3.62868 4.2087C3.06607 4.77131 2.75 5.53437 2.75 6.33002V14.2C2.75 14.9957 3.06607 15.7587 3.62868 16.3213C4.19129 16.8839 4.95435 17.2 5.75 17.2H18.25C19.0456 17.2 19.8087 16.8839 20.3713 16.3213C20.9339 15.7587 21.25 14.9957 21.25 14.2V6.33002C21.25 5.53437 20.9339 4.77131 20.3713 4.2087C19.8087 3.64609 19.0456 3.33002 18.25 3.33002Z" stroke="#1F1F1F" stroke-width="1.5" stroke-linecap="round" stroke-linejoin="round"/>
<path d="M12 17.2V20.67" stroke="#1F1F1F" stroke-width="1.5" stroke-linecap="round" stroke-linejoin="round"/>
<path d="M8.53027 20.67H15.4702" stroke="#1F1F1F" stroke-width="1.5" stroke-linecap="round" stroke-linejoin="round"/>
<path d="M10.2739 7.89258C10.444 7.52159 10.7329 7.21791 11.095 7.02963C11.4571 6.84134 11.8717 6.77919 12.2731 6.85301C12.548 6.8952 12.8093 7.00128 13.0358 7.16273C13.2624 7.32417 13.4479 7.53649 13.5775 7.78263C13.6708 7.97949 13.7214 8.19388 13.726 8.41169C13.7306 8.62951 13.689 8.84586 13.6041 9.04647C13.5191 9.24707 13.3927 9.42744 13.2331 9.57571C13.0734 9.72397 12.8842 9.8368 12.6779 9.90671C12.4674 9.98659 12.2853 10.127 12.1546 10.3102C12.0238 10.4935 11.9503 10.7113 11.9432 10.9363V11.3611" stroke="#1F1F1F" stroke-width="1.5" stroke-miterlimit="10" stroke-linecap="round"/>
<path d="M11.9106 13.7073H11.915" stroke="#1F1F1F" stroke-width="1.5" stroke-linecap="round" stroke-linejoin="round"/>
</svg>
