<svg width="24" height="24" viewBox="0 0 24 24" fill="none" xmlns="http://www.w3.org/2000/svg">
<path d="M17.5298 13.0399H14.5298C14.2646 13.0399 14.0103 12.9346 13.8227 12.747C13.6352 12.5595 13.5298 12.3051 13.5298 12.0399C13.5298 11.7747 13.6352 11.5204 13.8227 11.3328C14.0103 11.1453 14.2646 11.0399 14.5298 11.0399H17.5298C17.795 11.0399 18.0494 11.1453 18.2369 11.3328C18.4244 11.5204 18.5298 11.7747 18.5298 12.0399C18.5298 12.3051 18.4244 12.5595 18.2369 12.747C18.0494 12.9346 17.795 13.0399 17.5298 13.0399Z" fill="#1F1F1F"/>
<path d="M21.7298 7.97998V4.51999C21.7311 4.27049 21.6822 4.0233 21.586 3.79309C21.4898 3.56288 21.3483 3.35437 21.1698 3.17999C20.9944 3.0029 20.7857 2.86225 20.5558 2.76614C20.3258 2.67004 20.0791 2.62037 19.8298 2.62H4.14979C3.90046 2.61982 3.65358 2.66924 3.42353 2.76538C3.19348 2.86152 2.98482 3.00246 2.80976 3.17999C2.46031 3.52668 2.26254 3.99775 2.25977 4.48999V7.98999C2.50874 8.31599 2.64362 8.71481 2.64362 9.125C2.64362 9.53519 2.50874 9.93398 2.25977 10.26V13.72C2.51936 14.0471 2.66065 14.4524 2.66065 14.87C2.66065 15.2876 2.51936 15.6929 2.25977 16.02V19.48C2.2624 19.9831 2.46341 20.4648 2.81916 20.8206C3.17491 21.1763 3.6567 21.3774 4.1598 21.38H19.8398C20.3429 21.3774 20.8246 21.1763 21.1804 20.8206C21.5361 20.4648 21.7371 19.9831 21.7398 19.48V16.02C21.4802 15.6929 21.339 15.2876 21.339 14.87C21.339 14.4524 21.4802 14.0471 21.7398 13.72V10.31C21.7419 9.88746 21.597 9.47734 21.3298 9.14999C21.5941 8.81781 21.7354 8.40445 21.7298 7.97998ZM14.5098 5.26999H17.5098C17.775 5.26999 18.0294 5.37536 18.2169 5.5629C18.4044 5.75043 18.5098 6.00477 18.5098 6.26999C18.5098 6.53521 18.4044 6.78958 18.2169 6.97711C18.0294 7.16465 17.775 7.26999 17.5098 7.26999H14.5098C14.2446 7.26999 13.9902 7.16465 13.8027 6.97711C13.6152 6.78958 13.5098 6.53521 13.5098 6.26999C13.5098 6.00477 13.6152 5.75043 13.8027 5.5629C13.9902 5.37536 14.2446 5.26999 14.5098 5.26999ZM17.5098 18.8H14.5098C14.2446 18.8 13.9902 18.6946 13.8027 18.5071C13.6152 18.3196 13.5098 18.0652 13.5098 17.8C13.5098 17.5348 13.6152 17.2804 13.8027 17.0929C13.9902 16.9054 14.2446 16.8 14.5098 16.8H17.5098C17.775 16.8 18.0294 16.9054 18.2169 17.0929C18.4044 17.2804 18.5098 17.5348 18.5098 17.8C18.5098 18.0652 18.4044 18.3196 18.2169 18.5071C18.0294 18.6946 17.775 18.8 17.5098 18.8ZM20.1998 13.8C20.1998 13.9061 20.1577 14.0078 20.0827 14.0828C20.0077 14.1578 19.9059 14.2 19.7998 14.2H4.13978C4.03369 14.2 3.93196 14.1578 3.85694 14.0828C3.78193 14.0078 3.73975 13.9061 3.73975 13.8V10.31C3.73897 10.2147 3.77318 10.1224 3.83582 10.0505C3.89847 9.97865 3.98524 9.9322 4.07978 9.91998H4.14979L19.6398 9.87H19.8198C19.9259 9.87 20.0276 9.91214 20.1026 9.98715C20.1776 10.0622 20.2198 10.1639 20.2198 10.27L20.1998 13.8Z" fill="#1F1F1F"/>
</svg>
