<svg width="24" height="24" viewBox="0 0 24 24" fill="none" xmlns="http://www.w3.org/2000/svg">
<path d="M14.5713 12.5097H16.6969C17.2484 12.4928 17.7885 12.6697 18.2237 13.0097C18.6556 13.3547 18.9552 13.8387 19.0719 14.3797L19.97 19.2697C20.0097 19.4442 20.0097 19.6253 19.97 19.7997C19.929 19.9734 19.8469 20.1347 19.7305 20.2697C19.6188 20.4089 19.4749 20.5188 19.3114 20.5897C19.1492 20.6662 18.9716 20.7038 18.7925 20.6997C18.5183 20.7075 18.2501 20.619 18.0341 20.4497C17.814 20.2866 17.6613 20.0482 17.605 19.7797L16.9064 15.6997H15.1302" stroke="#1F1F1F" stroke-width="1.5" stroke-linecap="round" stroke-linejoin="round"/>
<path d="M8.13511 10.4998C2.00799 12.0498 2.86619 21.3798 9.54215 21.4998C14.1624 21.5598 16.5275 16.0898 14.1425 12.6898" stroke="#1F1F1F" stroke-width="1.5" stroke-linecap="round" stroke-linejoin="round"/>
<path d="M14.3322 8.70974V12.9997C13.6216 11.7978 12.4849 10.9087 11.1489 10.5097V15.0697C11.1498 15.2275 11.1194 15.384 11.0595 15.5299C10.9995 15.6758 10.9112 15.8083 10.7996 15.9197C10.5763 16.1413 10.2756 16.2668 9.9614 16.2697C9.64381 16.2697 9.33923 16.1433 9.11466 15.9183C8.89008 15.6932 8.76392 15.388 8.76392 15.0697L8.16518 10.6897C8.12058 10.3306 8.17406 9.96606 8.31992 9.63498C8.46578 9.3039 8.69856 9.01869 8.99344 8.80974L10.5901 7.67974C11.8374 6.71974 14.3322 6.85974 14.3322 8.70974Z" stroke="#1F1F1F" stroke-width="1.5" stroke-linecap="round" stroke-linejoin="round"/>
<path d="M13.1946 7.05976C13.6446 7.05976 14.0845 6.92604 14.4587 6.67551C14.8328 6.42498 15.1245 6.06889 15.2967 5.65228C15.4689 5.23566 15.5139 4.77723 15.4261 4.33495C15.3383 3.89267 15.1216 3.48642 14.8035 3.16755C14.4853 2.84869 14.0799 2.63154 13.6385 2.54357C13.1972 2.45559 12.7397 2.50074 12.3239 2.67331C11.9082 2.84588 11.5529 3.13811 11.3029 3.51306C11.0529 3.888 10.9194 4.32882 10.9194 4.77976C10.9194 5.38445 11.1591 5.96438 11.5858 6.39196C12.0125 6.81954 12.5912 7.05976 13.1946 7.05976Z" stroke="#1F1F1F" stroke-width="1.5" stroke-linecap="round" stroke-linejoin="round"/>
</svg>
