<svg width="24" height="24" viewBox="0 0 24 24" fill="none" xmlns="http://www.w3.org/2000/svg">
<path d="M10.9885 11.7977V12.5795C11.004 13.0855 10.8826 13.5863 10.6371 14.029C10.4054 14.4275 10.0638 14.7507 9.65319 14.9601C9.21301 15.1845 8.72405 15.2962 8.23011 15.2851C7.67727 15.2963 7.13145 15.1599 6.6489 14.8898C6.19403 14.6236 5.82746 14.2296 5.59477 13.7567C5.32533 13.211 5.19268 12.6081 5.20826 11.9998C5.20174 11.5273 5.27907 11.0573 5.43665 10.6118C5.57304 10.2287 5.78854 9.87847 6.06913 9.58404C6.33804 9.30125 6.66458 9.07957 7.02664 8.93399C7.40063 8.78368 7.80072 8.70904 8.20375 8.71438C8.54684 8.71194 8.88803 8.76534 9.21396 8.8725C9.51148 8.97252 9.79047 9.12092 10.0397 9.31172C10.2795 9.50117 10.4821 9.7335 10.6371 9.99691C10.7921 10.2679 10.8935 10.5661 10.9357 10.8754H9.55656C9.5196 10.7323 9.46031 10.5959 9.38087 10.4713C9.30524 10.3533 9.20665 10.2517 9.09098 10.1726C8.97456 10.0859 8.8437 10.0204 8.70447 9.97934C8.54593 9.94456 8.38322 9.93273 8.22132 9.9442C7.91147 9.93443 7.60571 10.017 7.34288 10.1814C7.08748 10.3581 6.88907 10.6053 6.77189 10.8929C6.62156 11.2513 6.54967 11.6377 6.56106 12.0261C6.55292 12.4135 6.62159 12.7986 6.7631 13.1593C6.88647 13.4458 7.08724 13.6922 7.34288 13.8709C7.60359 14.0409 7.91023 14.1267 8.22132 14.1168C8.49157 14.125 8.75979 14.0677 9.00314 13.9499C9.22372 13.8451 9.40524 13.6728 9.52142 13.458C9.6292 13.2518 9.68641 13.023 9.68832 12.7904H8.28281V11.7977H10.9885Z" fill="#1F1F1F"/>
<path d="M13.451 8.91643V15.127C13.451 15.1503 13.4418 15.1727 13.4253 15.1891C13.4088 15.2056 13.3865 15.2149 13.3632 15.2149H12.1861C12.1742 15.2163 12.1621 15.215 12.1508 15.2111C12.1395 15.2072 12.1293 15.2007 12.1208 15.1923C12.1124 15.1838 12.1059 15.1735 12.102 15.1622C12.0981 15.1509 12.0968 15.1389 12.0982 15.127V8.91643C12.0968 8.90456 12.0981 8.89252 12.102 8.88121C12.1059 8.86991 12.1124 8.85965 12.1208 8.85119C12.1293 8.84274 12.1395 8.83631 12.1508 8.83239C12.1621 8.82848 12.1742 8.82718 12.1861 8.82859H13.3632C13.3865 8.82859 13.4088 8.83784 13.4253 8.85432C13.4418 8.87079 13.451 8.89314 13.451 8.91643Z" fill="#1F1F1F"/>
<path d="M14.5589 15.127V8.91642C14.5589 8.89312 14.5682 8.87078 14.5847 8.8543C14.6011 8.83783 14.6235 8.82858 14.6468 8.82858H18.793V9.9442H16.0347C16.0114 9.9442 15.9891 9.95346 15.9726 9.96993C15.9561 9.9864 15.9469 10.0087 15.9469 10.032V11.3761C15.9489 11.3987 15.9588 11.4199 15.9748 11.436C15.9909 11.452 16.0121 11.4619 16.0347 11.4639H18.5471V12.5795H16.0347C16.0114 12.5795 15.9891 12.5888 15.9726 12.6053C15.9561 12.6217 15.9469 12.6441 15.9469 12.6674V15.127C15.9483 15.1389 15.947 15.1509 15.9431 15.1622C15.9392 15.1735 15.9327 15.1838 15.9243 15.1923C15.9158 15.2007 15.9056 15.2072 15.8943 15.2111C15.883 15.215 15.8709 15.2163 15.859 15.2149H14.6819C14.668 15.221 14.6527 15.2234 14.6375 15.2219C14.6223 15.2203 14.6078 15.2148 14.5954 15.206C14.583 15.1971 14.5731 15.1852 14.5667 15.1713C14.5603 15.1575 14.5576 15.1422 14.5589 15.127Z" fill="#1F1F1F"/>
<path d="M16.625 3.75H7.375C4.82068 3.75 2.75 5.80203 2.75 8.33333V15.6667C2.75 18.198 4.82068 20.25 7.375 20.25H16.625C19.1793 20.25 21.25 18.198 21.25 15.6667V8.33333C21.25 5.80203 19.1793 3.75 16.625 3.75Z" stroke="#1F1F1F" stroke-width="1.5" stroke-linecap="round" stroke-linejoin="round"/>
</svg>
