<svg width="24" height="24" viewBox="0 0 24 24" fill="none" xmlns="http://www.w3.org/2000/svg">
<path d="M4.60352 14.0881V9.91184C4.60352 9.49649 4.74575 9.09814 4.99893 8.80445C5.2521 8.51075 5.59549 8.34575 5.95354 8.34575H7.84357C8.0803 8.34461 8.31279 8.2727 8.51858 8.13694L12.4877 5.5059C12.6927 5.37099 12.9246 5.30072 13.1604 5.30208C13.3961 5.30343 13.6275 5.37638 13.8313 5.51364C14.0352 5.65091 14.2046 5.84771 14.3225 6.08448C14.4405 6.32125 14.5029 6.58972 14.5037 6.86318V17.1368C14.5029 17.4102 14.4405 17.6787 14.3225 17.9154C14.2046 18.1522 14.0352 18.3491 13.8313 18.4863C13.6275 18.6235 13.3961 18.6965 13.1604 18.6979C12.9246 18.6992 12.6927 18.629 12.4877 18.494L8.51858 15.863C8.31279 15.7272 8.0803 15.6553 7.84357 15.6542H5.95354C5.59549 15.6542 5.2521 15.4891 4.99893 15.1955C4.74575 14.9018 4.60352 14.5035 4.60352 14.0881Z" stroke="#1F1F1F" stroke-width="1.5" stroke-linecap="round" stroke-linejoin="round"/>
<path d="M17.8311 15.7145C18.8334 14.7122 19.3966 13.3528 19.3965 11.9353C19.3966 10.5178 18.8334 9.15836 17.8311 8.15601" stroke="#1F1F1F" stroke-width="1.5" stroke-miterlimit="10" stroke-linecap="round"/>
</svg>
