<svg width="24" height="24" viewBox="0 0 24 24" fill="none" xmlns="http://www.w3.org/2000/svg">
<path d="M19.6202 2.72503H4.39016C3.7633 2.71969 3.15985 2.96292 2.71192 3.40148C2.26399 3.84004 2.00807 4.43823 2.00016 5.06506V7.18505C1.99422 7.69161 2.15005 8.18682 2.44501 8.59869C2.73997 9.01055 3.15866 9.31756 3.64016 9.47503V17.335C3.64081 17.8553 3.74555 18.3701 3.9482 18.8493C4.15085 19.3284 4.44732 19.7622 4.82015 20.1251C5.5742 20.8677 6.59183 21.2812 7.65015 21.275H16.3602C17.4185 21.2812 18.4361 20.8677 19.1902 20.1251C19.5612 19.7609 19.8565 19.3268 20.059 18.848C20.2615 18.3691 20.3673 17.8549 20.3702 17.335V9.47503C20.8417 9.31849 21.2524 9.01834 21.5447 8.61663C21.837 8.21493 21.9963 7.73183 22.0002 7.23504V5.11505C22.0042 4.80092 21.9454 4.48911 21.8274 4.19799C21.7093 3.90687 21.5343 3.64228 21.3126 3.41967C21.091 3.19707 20.8271 3.02095 20.5365 2.90167C20.2458 2.78238 19.9343 2.72234 19.6202 2.72503ZM14.5402 15.385H12.7902V17.1251C12.7902 17.324 12.7112 17.5147 12.5705 17.6554C12.4299 17.796 12.2391 17.8751 12.0402 17.8751C11.8413 17.8751 11.6505 17.796 11.5098 17.6554C11.3692 17.5147 11.2902 17.324 11.2902 17.1251V15.385H9.54015C9.34124 15.385 9.15047 15.306 9.00981 15.1653C8.86916 15.0247 8.79015 14.8339 8.79015 14.635C8.79015 14.4361 8.86916 14.2454 9.00981 14.1047C9.15047 13.9641 9.34124 13.885 9.54015 13.885H11.2902V12.1251C11.2902 11.9261 11.3692 11.7354 11.5098 11.5947C11.6505 11.4541 11.8413 11.3751 12.0402 11.3751C12.2391 11.3751 12.4299 11.4541 12.5705 11.5947C12.7112 11.7354 12.7902 11.9261 12.7902 12.1251V13.885H14.5402C14.7391 13.885 14.9299 13.9641 15.0705 14.1047C15.2112 14.2454 15.2902 14.4361 15.2902 14.635C15.2902 14.8339 15.2112 15.0247 15.0705 15.1653C14.9299 15.306 14.7391 15.385 14.5402 15.385ZM20.5402 7.18505C20.5389 7.29885 20.515 7.41124 20.47 7.51574C20.4249 7.62025 20.3596 7.71475 20.2777 7.79382C20.1959 7.87288 20.0991 7.93491 19.9931 7.97631C19.8871 8.01772 19.7739 8.03768 19.6602 8.03503H4.39016C4.2759 8.03769 4.16222 8.01778 4.05565 7.9765C3.94908 7.93521 3.8517 7.87336 3.76905 7.79443C3.6864 7.71549 3.6201 7.62104 3.57396 7.51647C3.52783 7.41191 3.50275 7.29931 3.50016 7.18505V5.06506C3.50273 4.95125 3.52787 4.83906 3.57413 4.73504C3.62039 4.63102 3.68685 4.53724 3.76964 4.4591C3.85243 4.38096 3.94991 4.32002 4.05643 4.27984C4.16295 4.23967 4.27638 4.22103 4.39016 4.22503H19.6202C19.7335 4.22102 19.8464 4.23973 19.9524 4.28002C20.0583 4.32032 20.1551 4.38138 20.2371 4.45965C20.3191 4.53792 20.3847 4.63181 20.4298 4.73577C20.475 4.83974 20.4989 4.95171 20.5002 5.06506L20.5402 7.18505Z" fill="#1F1F1F"/>
</svg>
