<svg width="24" height="24" viewBox="0 0 24 24" fill="none" xmlns="http://www.w3.org/2000/svg">
<path d="M7.58002 13.06V20.14C7.58002 20.3475 7.53918 20.553 7.45978 20.7447C7.38038 20.9364 7.26397 21.1105 7.11725 21.2573C6.97053 21.404 6.79637 21.5204 6.60468 21.5998C6.41298 21.6792 6.20755 21.72 6.00006 21.72H4.12006C3.91257 21.72 3.70708 21.6792 3.51538 21.5998C3.32369 21.5204 3.14952 21.404 3.00281 21.2573C2.85609 21.1105 2.73968 20.9364 2.66028 20.7447C2.58088 20.553 2.54004 20.3475 2.54004 20.14V13.06C2.54003 12.6401 2.70617 12.2372 3.0022 11.9393C3.29822 11.6414 3.7001 11.4727 4.12006 11.47H6.00006C6.42002 11.4727 6.82184 11.6414 7.11786 11.9393C7.41388 12.2372 7.58003 12.6401 7.58002 13.06Z" fill="#1F1F1F"/>
<path d="M14.5202 8.47001V20.17C14.5175 20.59 14.3488 20.9918 14.051 21.2878C13.7531 21.5839 13.3502 21.75 12.9302 21.75H11.0602C10.6403 21.75 10.2373 21.5839 9.93946 21.2878C9.64156 20.9918 9.47285 20.59 9.47021 20.17V8.47001C9.47021 8.04832 9.63773 7.64389 9.93591 7.3457C10.2341 7.04752 10.6385 6.88 11.0602 6.88H12.9302C13.3519 6.88 13.7563 7.04752 14.0545 7.3457C14.3527 7.64389 14.5202 8.04832 14.5202 8.47001Z" fill="#1F1F1F"/>
<path d="M21.4597 3.84V20.17C21.4571 20.59 21.2884 20.9918 20.9905 21.2878C20.6926 21.5839 20.2897 21.75 19.8698 21.75H17.9998C17.5798 21.75 17.1769 21.5839 16.879 21.2878C16.5811 20.9918 16.4124 20.59 16.4097 20.17V3.84C16.4097 3.63119 16.4509 3.42444 16.5308 3.23154C16.6107 3.03863 16.7278 2.86334 16.8754 2.7157C17.0231 2.56805 17.1983 2.45094 17.3912 2.37103C17.5842 2.29113 17.791 2.25 17.9998 2.25H19.8698C20.2915 2.25 20.6958 2.41752 20.994 2.7157C21.2922 3.01388 21.4597 3.4183 21.4597 3.84Z" fill="#1F1F1F"/>
</svg>
