<svg width="24" height="24" viewBox="0 0 24 24" fill="none" xmlns="http://www.w3.org/2000/svg">
<path d="M9.4335 5.83337H6.7335C6.23645 5.83337 5.8335 6.23632 5.8335 6.73337V9.43337C5.8335 9.93043 6.23645 10.3334 6.7335 10.3334H9.4335C9.93056 10.3334 10.3335 9.93043 10.3335 9.43337V6.73337C10.3335 6.23632 9.93056 5.83337 9.4335 5.83337Z" stroke="#1F1F1F" stroke-width="1.5" stroke-linecap="round" stroke-linejoin="round"/>
<path d="M9.4335 13.6475H6.7335C6.23645 13.6475 5.8335 14.0505 5.8335 14.5475V17.2475C5.8335 17.7446 6.23645 18.1475 6.7335 18.1475H9.4335C9.93056 18.1475 10.3335 17.7446 10.3335 17.2475V14.5475C10.3335 14.0505 9.93056 13.6475 9.4335 13.6475Z" stroke="#1F1F1F" stroke-width="1.5" stroke-linecap="round" stroke-linejoin="round"/>
<path d="M17.2665 5.83337H14.5665C14.0695 5.83337 13.6665 6.23632 13.6665 6.73337V9.43337C13.6665 9.93043 14.0695 10.3334 14.5665 10.3334H17.2665C17.7636 10.3334 18.1665 9.93043 18.1665 9.43337V6.73337C18.1665 6.23632 17.7636 5.83337 17.2665 5.83337Z" stroke="#1F1F1F" stroke-width="1.5" stroke-linecap="round" stroke-linejoin="round"/>
<path d="M17.2665 13.6666H14.5665C14.0695 13.6666 13.6665 14.0696 13.6665 14.5666V17.2666C13.6665 17.7637 14.0695 18.1666 14.5665 18.1666H17.2665C17.7636 18.1666 18.1665 17.7637 18.1665 17.2666V14.5666C18.1665 14.0696 17.7636 13.6666 17.2665 13.6666Z" stroke="#1F1F1F" stroke-width="1.5" stroke-linecap="round" stroke-linejoin="round"/>
<path d="M21.2502 8.91667V5.83333C21.2502 5.01558 20.9253 4.23132 20.3471 3.65309C19.7689 3.07485 18.9846 2.75 18.1668 2.75H15.0835" stroke="#1F1F1F" stroke-width="1.5" stroke-linecap="round" stroke-linejoin="round"/>
<path d="M15.0835 21.25H18.1668C18.9846 21.25 19.7689 20.9251 20.3471 20.3469C20.9253 19.7687 21.2502 18.9844 21.2502 18.1666V15.0833" stroke="#1F1F1F" stroke-width="1.5" stroke-linecap="round" stroke-linejoin="round"/>
<path d="M2.75 15.0833V18.1666C2.75 18.9844 3.07485 19.7687 3.65309 20.3469C4.23132 20.9251 5.01558 21.25 5.83333 21.25H8.91667" stroke="#1F1F1F" stroke-width="1.5" stroke-linecap="round" stroke-linejoin="round"/>
<path d="M8.91667 2.75H5.83333C5.01558 2.75 4.23132 3.07485 3.65309 3.65309C3.07485 4.23132 2.75 5.01558 2.75 5.83333V8.91667" stroke="#1F1F1F" stroke-width="1.5" stroke-linecap="round" stroke-linejoin="round"/>
</svg>
