<svg width="24" height="24" viewBox="0 0 24 24" fill="none" xmlns="http://www.w3.org/2000/svg">
<path d="M12 6.82609C12.5042 6.82609 12.913 6.4173 12.913 5.91304C12.913 5.40879 12.5042 5 12 5C11.4957 5 11.0869 5.40879 11.0869 5.91304C11.0869 6.4173 11.4957 6.82609 12 6.82609Z" stroke="#1F1F1F" stroke-width="1.5" stroke-linecap="round" stroke-linejoin="round"/>
<path d="M18.0883 6.82609C18.5926 6.82609 19.0014 6.4173 19.0014 5.91304C19.0014 5.40879 18.5926 5 18.0883 5C17.584 5 17.1753 5.40879 17.1753 5.91304C17.1753 6.4173 17.584 6.82609 18.0883 6.82609Z" stroke="#1F1F1F" stroke-width="1.5" stroke-linecap="round" stroke-linejoin="round"/>
<path d="M5.91206 6.82609C6.41633 6.82609 6.8251 6.4173 6.8251 5.91304C6.8251 5.40879 6.41633 5 5.91206 5C5.4078 5 4.99902 5.40879 4.99902 5.91304C4.99902 6.4173 5.4078 6.82609 5.91206 6.82609Z" stroke="#1F1F1F" stroke-width="1.5" stroke-linecap="round" stroke-linejoin="round"/>
<path d="M12 12.913C12.5042 12.913 12.913 12.5042 12.913 12C12.913 11.4957 12.5042 11.0869 12 11.0869C11.4957 11.0869 11.0869 11.4957 11.0869 12C11.0869 12.5042 11.4957 12.913 12 12.913Z" stroke="#1F1F1F" stroke-width="1.5" stroke-linecap="round" stroke-linejoin="round"/>
<path d="M18.0883 12.913C18.5926 12.913 19.0014 12.5042 19.0014 12C19.0014 11.4957 18.5926 11.0869 18.0883 11.0869C17.584 11.0869 17.1753 11.4957 17.1753 12C17.1753 12.5042 17.584 12.913 18.0883 12.913Z" stroke="#1F1F1F" stroke-width="1.5" stroke-linecap="round" stroke-linejoin="round"/>
<path d="M5.91206 12.913C6.41633 12.913 6.8251 12.5042 6.8251 12C6.8251 11.4957 6.41633 11.0869 5.91206 11.0869C5.4078 11.0869 4.99902 11.4957 4.99902 12C4.99902 12.5042 5.4078 12.913 5.91206 12.913Z" stroke="#1F1F1F" stroke-width="1.5" stroke-linecap="round" stroke-linejoin="round"/>
<path d="M12 19C12.5042 19 12.913 18.5912 12.913 18.087C12.913 17.5827 12.5042 17.1739 12 17.1739C11.4957 17.1739 11.0869 17.5827 11.0869 18.087C11.0869 18.5912 11.4957 19 12 19Z" stroke="#1F1F1F" stroke-width="1.5" stroke-linecap="round" stroke-linejoin="round"/>
<path d="M18.0883 19C18.5926 19 19.0014 18.5912 19.0014 18.087C19.0014 17.5827 18.5926 17.1739 18.0883 17.1739C17.584 17.1739 17.1753 17.5827 17.1753 18.087C17.1753 18.5912 17.584 19 18.0883 19Z" stroke="#1F1F1F" stroke-width="1.5" stroke-linecap="round" stroke-linejoin="round"/>
<path d="M5.91206 19C6.41633 19 6.8251 18.5912 6.8251 18.087C6.8251 17.5827 6.41633 17.1739 5.91206 17.1739C5.4078 17.1739 4.99902 17.5827 4.99902 18.087C4.99902 18.5912 5.4078 19 5.91206 19Z" stroke="#1F1F1F" stroke-width="1.5" stroke-linecap="round" stroke-linejoin="round"/>
</svg>
