<svg width="24" height="24" viewBox="0 0 24 24" fill="none" xmlns="http://www.w3.org/2000/svg">
<path d="M20.1296 4.15536C19.5332 3.64492 18.825 3.28207 18.0623 3.09618C17.2996 2.91029 16.5039 2.90657 15.7395 3.08536C14.2029 3.42183 12.8598 4.34833 11.9996 5.66536C11.144 4.3526 9.80893 3.42662 8.27961 3.08536C7.51868 2.90258 6.72583 2.89772 5.96271 3.07115C5.1996 3.24459 4.48677 3.59165 3.87958 4.08536C2.29958 5.46536 1.42962 8.52535 2.41962 11.6254C2.53227 11.9666 2.66588 12.3006 2.81965 12.6254C2.86036 12.7 2.89707 12.7768 2.92963 12.8554C5.49963 18.0954 11.4396 20.8554 11.6996 20.9854C11.7959 21.0332 11.9021 21.0572 12.0096 21.0554C12.1169 21.0561 12.223 21.0321 12.3196 20.9854C12.5696 20.8754 18.5696 18.1354 21.1196 12.8354L21.1996 12.6654C21.3579 12.3242 21.4947 11.9735 21.6095 11.6154C22.5495 8.61536 21.6896 5.55536 20.1296 4.15536ZM19.8196 12.0854C19.6796 12.3988 19.5193 12.7028 19.3396 12.9954H16.0296C15.8649 12.9945 15.703 12.953 15.5582 12.8745C15.4134 12.796 15.2902 12.6829 15.1996 12.5454L14.1496 10.9854L11.9196 15.4454C11.8492 15.5866 11.7463 15.7091 11.6194 15.803C11.4926 15.8968 11.3453 15.9593 11.1896 15.9854H11.0296C10.8973 15.9848 10.7665 15.958 10.6446 15.9065C10.5227 15.855 10.4122 15.7799 10.3196 15.6854L7.60957 12.9854H4.69965C4.51571 12.6609 4.34881 12.3272 4.19965 11.9854C4.045 11.6633 3.91787 11.3288 3.81965 10.9854H8.02961C8.16122 10.9846 8.29168 11.0098 8.41352 11.0596C8.53536 11.1094 8.64613 11.1827 8.73957 11.2754L10.7395 13.2754L13.1196 8.51537C13.1986 8.35777 13.318 8.22388 13.4655 8.12729C13.613 8.0307 13.7836 7.97484 13.9596 7.96536C14.1335 7.95487 14.307 7.98994 14.4631 8.06711C14.6192 8.14428 14.7523 8.26088 14.8495 8.40536L16.5496 10.9654H20.2496C20.141 11.3511 19.9971 11.7261 19.8196 12.0854Z" fill="#1F1F1F"/>
</svg>
