<svg width="24" height="24" viewBox="0 0 24 24" fill="none" xmlns="http://www.w3.org/2000/svg">
<path d="M21.9902 18.8893C21.8682 19.4689 21.5533 19.9901 21.0969 20.3677C20.5561 20.9181 19.9055 21.3484 19.1873 21.6306C18.5605 21.8672 17.8962 21.9889 17.2262 21.9899H16.8669C15.3723 21.9372 13.903 21.5882 12.5444 20.9632C12.2158 20.8092 11.8976 20.6552 11.5896 20.4909C9.99647 19.5944 8.53498 18.4819 7.24667 17.1849C5.55743 15.6247 4.16586 13.7705 3.13984 11.7126C2.60641 10.5706 2.25977 9.35041 2.11314 8.09856C1.86658 6.81206 2.01318 5.48112 2.534 4.27921C2.85386 3.72257 3.25145 3.21438 3.71473 2.76995C3.91587 2.54273 4.16025 2.35776 4.4335 2.22579C4.72112 2.09504 5.03155 2.0218 5.34729 2.01019C5.70937 2.03631 6.06063 2.1452 6.37399 2.32847C6.66003 2.49004 6.90846 2.71052 7.10292 2.9753C7.49306 3.38598 7.92425 3.8172 8.35547 4.25868C8.78668 4.70017 8.98179 4.89524 9.28981 5.22379C9.66119 5.56325 9.89503 6.02723 9.94691 6.5277V6.63037C9.90394 7.03891 9.73934 7.42518 9.47454 7.73923C9.2905 7.9613 9.09522 8.17376 8.88937 8.37579L8.61214 8.67351C8.49125 8.78884 8.39667 8.92896 8.33491 9.08422C8.28799 9.21227 8.26711 9.34838 8.27338 9.48462C8.43282 9.94623 8.69224 10.3669 9.03313 10.7167C9.56702 11.4251 10.0599 12.113 10.6143 12.7701C11.5975 13.897 12.7595 14.8544 14.0537 15.6038C14.1779 15.7018 14.3274 15.7624 14.4849 15.7783C14.6205 15.7976 14.7589 15.7799 14.8853 15.727C15.2452 15.5097 15.5648 15.2318 15.8299 14.9056C16.1985 14.455 16.7295 14.1673 17.3083 14.1048C17.5859 14.1031 17.8609 14.1578 18.1168 14.2654C18.3727 14.3731 18.6042 14.5315 18.7971 14.7311C19.0186 14.9268 19.2277 15.1359 19.4234 15.3574L19.7724 15.7167L20.0908 16.035C20.2858 16.2198 20.4603 16.3943 20.6554 16.5997C20.8505 16.805 21.2817 17.2055 21.5897 17.5443C21.7546 17.7432 21.8769 17.9738 21.949 18.2219C22.0037 18.4399 22.0176 18.6662 21.9902 18.8893Z" fill="#1F1F1F"/>
<path d="M19.4334 5.65499L15.0082 10.0801H16.5894C16.7936 10.0801 16.9894 10.1612 17.1338 10.3057C17.2782 10.4501 17.3594 10.6459 17.3594 10.8502C17.3594 11.0544 17.2782 11.2502 17.1338 11.3946C16.9894 11.539 16.7936 11.6202 16.5894 11.6202H13.1191C13.0166 11.6205 12.9152 11.5995 12.8213 11.5585C12.6847 11.4958 12.5682 11.3964 12.4848 11.2713C12.4014 11.1462 12.3544 11.0004 12.3491 10.8502V7.39012C12.3491 7.1859 12.4302 6.99006 12.5746 6.84566C12.7191 6.70125 12.9149 6.62009 13.1191 6.62009C13.3233 6.62009 13.5191 6.70125 13.6635 6.84566C13.8079 6.99006 13.8891 7.1859 13.8891 7.39012V8.99178L18.3143 4.56668C18.4587 4.42248 18.6543 4.34149 18.8583 4.34149C19.0624 4.34149 19.2581 4.42248 19.4025 4.56668C19.5509 4.70694 19.6375 4.90039 19.6433 5.10447C19.6491 5.30856 19.5735 5.50656 19.4334 5.65499Z" fill="#1F1F1F"/>
</svg>
