<svg width="24" height="24" viewBox="0 0 24 24" fill="none" xmlns="http://www.w3.org/2000/svg">
<path d="M11.8832 1.97578C12.4369 1.97434 12.9789 2.13417 13.4432 2.43577C13.9121 2.72837 14.2843 3.15273 14.5132 3.65578L21.3732 17.8058C21.5712 18.1998 21.6739 18.6348 21.6732 19.0758C21.6735 19.2608 21.6534 19.4452 21.6132 19.6258C21.4972 20.2435 21.1809 20.8058 20.7132 21.2258C20.246 21.6488 19.6542 21.9086 19.0266 21.9663C18.399 22.0241 17.7697 21.8765 17.2332 21.5458L12.4532 18.1058C12.2632 18.0263 12.0592 17.9855 11.8532 17.9858C11.6311 17.9854 11.412 18.0368 11.2132 18.1358L6.71321 21.3158C6.16671 21.6444 5.52635 21.7816 4.8932 21.7058C4.28524 21.6374 3.71465 21.3779 3.26359 20.9646C2.81253 20.5513 2.50428 20.0055 2.38321 19.4058C2.26496 18.8027 2.33477 18.1779 2.5832 17.6158L9.2532 3.61578C9.49441 3.12387 9.86871 2.70945 10.3336 2.41955C10.7985 2.12966 11.3354 1.97592 11.8832 1.97578Z" fill="#1F1F1F"/>
</svg>
