<svg width="24" height="24" viewBox="0 0 24 24" fill="none" xmlns="http://www.w3.org/2000/svg">
<path d="M12.7544 2.30536C12.7544 1.89115 12.4186 1.55536 12.0044 1.55536C11.5902 1.55536 11.2544 1.89115 11.2544 2.30536V3.78536C11.2544 4.19957 11.5902 4.53536 12.0044 4.53536C12.4186 4.53536 12.7544 4.19957 12.7544 3.78536V2.30536Z" fill="#1F1F1F"/>
<path d="M17.8649 10.2946C17.6571 9.48402 17.2787 8.72719 16.7549 8.0746C16.2362 7.41711 15.5855 6.87547 14.8449 6.48457C14.1064 6.09599 13.2967 5.86126 12.4649 5.79457C11.6308 5.73191 10.793 5.84433 10.0049 6.12459C9.21252 6.4009 8.48689 6.84034 7.87492 7.41457C7.26911 7.97873 6.78277 8.65885 6.44487 9.41457C6.11416 10.1817 5.94728 11.0093 5.95488 11.8446C5.9317 12.8093 6.13816 13.7658 6.55717 14.6351C6.97618 15.5044 7.59578 16.2617 8.36491 16.8446L8.71488 17.1746C9.01488 17.4846 9.01492 17.4846 9.00492 18.1746V18.4946C8.9923 18.7159 9.02634 18.9373 9.1049 19.1446C9.17559 19.3674 9.29908 19.5698 9.46488 19.7346C9.54103 19.8127 9.62477 19.8831 9.71488 19.9446V20.9446C9.69842 21.126 9.71798 21.3088 9.7725 21.4825C9.82702 21.6563 9.91539 21.8175 10.0325 21.957C10.1496 22.0964 10.2933 22.2113 10.455 22.295C10.6167 22.3787 10.7934 22.4295 10.9749 22.4446H12.9749C13.3422 22.4141 13.6823 22.2389 13.9204 21.9576C14.1586 21.6763 14.2753 21.3119 14.2449 20.9446V19.9446C14.335 19.8831 14.4188 19.8127 14.4949 19.7346C14.6521 19.5688 14.7715 19.371 14.8449 19.1546C14.9226 18.9436 14.9566 18.7191 14.9449 18.4946V18.1246C14.9449 17.5746 14.9449 17.5746 15.2549 17.2246L15.6349 16.8746C16.917 15.8775 17.7542 14.4151 17.9649 12.8046C18.1127 11.9705 18.0786 11.1143 17.8649 10.2946ZM12.7948 20.9246H11.2149V20.2946H12.7948V20.9246ZM12.0049 10.3646C11.8434 10.3646 11.6834 10.3964 11.5342 10.4582C11.385 10.5201 11.2494 10.6106 11.1352 10.7248C11.0209 10.8391 10.9303 10.9747 10.8684 11.1239C10.8066 11.2731 10.7748 11.4331 10.7748 11.5946C10.7748 11.8598 10.6695 12.1141 10.482 12.3017C10.2944 12.4892 10.04 12.5946 9.77482 12.5946C9.5096 12.5946 9.25533 12.4892 9.06779 12.3017C8.88025 12.1141 8.77482 11.8598 8.77482 11.5946C8.77217 11.1697 8.85392 10.7485 9.0153 10.3554C9.17668 9.96228 9.41454 9.60517 9.71501 9.3047C10.0155 9.00424 10.3726 8.76644 10.7657 8.60506C11.1587 8.44368 11.58 8.36192 12.0049 8.36458C12.2701 8.36458 12.5244 8.46995 12.7119 8.65749C12.8995 8.84502 13.0049 9.09936 13.0049 9.36458C13.0049 9.6298 12.8995 9.88414 12.7119 10.0717C12.5244 10.2592 12.2701 10.3646 12.0049 10.3646Z" fill="#1F1F1F"/>
<path d="M21.165 12.8646H19.335C19.1361 12.8646 18.9454 12.7856 18.8047 12.6449C18.6641 12.5043 18.585 12.3135 18.585 12.1146C18.585 11.9157 18.6641 11.7249 18.8047 11.5843C18.9454 11.4436 19.1361 11.3646 19.335 11.3646H21.165C21.3639 11.3646 21.5547 11.4436 21.6954 11.5843C21.836 11.7249 21.915 11.9157 21.915 12.1146C21.915 12.3135 21.836 12.5043 21.6954 12.6449C21.5547 12.7856 21.3639 12.8646 21.165 12.8646Z" fill="#1F1F1F"/>
<path d="M17.4851 6.85461C17.3866 6.85507 17.2889 6.83587 17.1979 6.79809C17.1069 6.76031 17.0244 6.70475 16.9551 6.63464C16.8147 6.49401 16.7358 6.30336 16.7358 6.10461C16.7358 5.90586 16.8147 5.71527 16.9551 5.57464L18.2552 4.27459C18.3973 4.14211 18.5854 4.06999 18.7797 4.07342C18.974 4.07685 19.1594 4.15555 19.2968 4.29296C19.4342 4.43038 19.5128 4.61581 19.5163 4.81011C19.5197 5.00441 19.4476 5.19241 19.3151 5.33459L18.0152 6.63464C17.9463 6.70521 17.8637 6.76107 17.7726 6.79888C17.6815 6.8367 17.5838 6.85564 17.4851 6.85461Z" fill="#1F1F1F"/>
<path d="M19.7851 19.2946C19.5871 19.2903 19.398 19.2118 19.2552 19.0746L17.9551 17.7746C17.8147 17.6339 17.7358 17.4433 17.7358 17.2446C17.7358 17.0458 17.8147 16.8552 17.9551 16.7146C18.0241 16.6438 18.1065 16.5876 18.1975 16.5492C18.2886 16.5108 18.3864 16.491 18.4851 16.491C18.5839 16.491 18.6817 16.5108 18.7727 16.5492C18.8638 16.5876 18.9462 16.6438 19.0152 16.7146L20.3151 18.0146C20.3859 18.0835 20.4421 18.166 20.4805 18.257C20.5189 18.348 20.5387 18.4458 20.5387 18.5446C20.5387 18.6434 20.5189 18.7412 20.4805 18.8322C20.4421 18.9232 20.3859 19.0057 20.3151 19.0746C20.1746 19.2153 19.9839 19.2944 19.7851 19.2946Z" fill="#1F1F1F"/>
<path d="M6.53479 6.85456C6.33595 6.85439 6.14541 6.77528 6.00489 6.63459L4.70484 5.33454C4.63523 5.26429 4.58015 5.18103 4.54274 5.08949C4.50532 4.99794 4.48635 4.89993 4.48682 4.80103C4.48728 4.70214 4.50714 4.60432 4.54541 4.51313C4.58369 4.42194 4.63959 4.33914 4.70985 4.26954C4.7801 4.19994 4.86342 4.14491 4.95497 4.10749C5.04651 4.07008 5.14452 4.05106 5.24341 4.05152C5.3423 4.05199 5.44006 4.0719 5.53125 4.11018C5.62244 4.14845 5.70519 4.20429 5.77479 4.27454L7.06483 5.57459C7.20528 5.71522 7.28418 5.90581 7.28418 6.10456C7.28418 6.30331 7.20528 6.49397 7.06483 6.63459C6.99558 6.7047 6.91304 6.76026 6.82202 6.79804C6.73101 6.83582 6.63333 6.85503 6.53479 6.85456Z" fill="#1F1F1F"/>
<path d="M4.245 19.2946C4.14621 19.2968 4.04805 19.2784 3.95679 19.2405C3.86553 19.2026 3.78314 19.1461 3.71497 19.0746C3.57452 18.934 3.49561 18.7433 3.49561 18.5446C3.49561 18.3458 3.57452 18.1552 3.71497 18.0146L5.01502 16.7146C5.15564 16.5741 5.34617 16.4953 5.54492 16.4953C5.74367 16.4953 5.93433 16.5741 6.07495 16.7146C6.2154 16.8552 6.29431 17.0458 6.29431 17.2446C6.29431 17.4433 6.2154 17.6339 6.07495 17.7746L4.78491 19.0846C4.638 19.2204 4.4451 19.2955 4.245 19.2946Z" fill="#1F1F1F"/>
<path d="M4.66492 12.8646H2.83496C2.63605 12.8646 2.44534 12.7856 2.30469 12.6449C2.16404 12.5043 2.08496 12.3135 2.08496 12.1146C2.08496 11.9157 2.16404 11.7249 2.30469 11.5843C2.44534 11.4436 2.63605 11.3646 2.83496 11.3646H4.66492C4.86383 11.3646 5.05466 11.4436 5.19531 11.5843C5.33597 11.7249 5.41492 11.9157 5.41492 12.1146C5.41492 12.3135 5.33597 12.5043 5.19531 12.6449C5.05466 12.7856 4.86383 12.8646 4.66492 12.8646Z" fill="#1F1F1F"/>
</svg>
