<svg width="24" height="24" viewBox="0 0 24 24" fill="none" xmlns="http://www.w3.org/2000/svg">
<path d="M21.1 8.67012C20.8178 8.38485 20.4812 8.15911 20.1102 8.00624C19.7392 7.85337 19.3413 7.77645 18.94 7.7801H17.38V3.90013C17.3814 3.6494 17.3328 3.40089 17.2372 3.16911C17.1415 2.93733 17.0007 2.72689 16.823 2.55006C16.6452 2.37323 16.434 2.23356 16.2018 2.13914C15.9695 2.04473 15.7208 1.99745 15.47 2.00011H8.53C8.28129 1.99806 8.03465 2.04568 7.80456 2.14012C7.57447 2.23456 7.36553 2.37394 7.18997 2.55012C7.01213 2.72704 6.87111 2.93741 6.77499 3.16911C6.67888 3.40082 6.62958 3.64928 6.62997 3.90013V7.7801H5.06C4.24843 7.7801 3.4701 8.10251 2.89624 8.67638C2.32238 9.25024 2 10.0286 2 10.8401V16.6201C2 16.871 2.0494 17.1193 2.14538 17.3511C2.24137 17.5828 2.38206 17.7933 2.55942 17.9707C2.73678 18.148 2.94731 18.2887 3.17905 18.3847C3.41078 18.4807 3.65915 18.5301 3.90997 18.5301H5.47V20.0901C5.47263 20.5959 5.67469 21.0802 6.03232 21.4378C6.38994 21.7954 6.87422 21.9975 7.37997 22.0001H16.63C17.1348 21.9975 17.6181 21.7951 17.9741 21.4372C18.3302 21.0793 18.53 20.595 18.53 20.0901V18.5301H20.1C20.6048 18.5275 21.0881 18.3251 21.4441 17.9672C21.8002 17.6093 22 17.125 22 16.6201V10.8401C22.0037 10.4365 21.9259 10.0362 21.7713 9.66337C21.6166 9.29051 21.3883 8.95267 21.1 8.67012ZM20.5 16.6201C20.5006 16.6741 20.4903 16.7276 20.4696 16.7774C20.449 16.8272 20.4185 16.8724 20.38 16.9101C20.305 16.9837 20.2051 17.0266 20.1 17.0301H18.53V15.4601C18.53 14.9562 18.3298 14.4729 17.9735 14.1166C17.6172 13.7603 17.1339 13.5601 16.63 13.5601H7.37997C6.87514 13.5601 6.39084 13.76 6.03293 14.116C5.67502 14.472 5.47264 14.9553 5.47 15.4601V17.0301H3.90997C3.80204 17.0262 3.69913 16.9836 3.61999 16.9101C3.58147 16.8724 3.55099 16.8272 3.53036 16.7774C3.50974 16.7276 3.49942 16.6741 3.5 16.6201V10.8401C3.50435 10.4246 3.66916 10.0269 3.95999 9.73012C4.25292 9.44085 4.64832 9.27908 5.06 9.2801H18.94C19.1452 9.27878 19.3487 9.31824 19.5386 9.39616C19.7284 9.47409 19.9009 9.58896 20.0461 9.73408C20.1912 9.87921 20.3061 10.0517 20.384 10.2416C20.4619 10.4314 20.5014 10.6349 20.5 10.8401V16.6201Z" fill="#1F1F1F"/>
</svg>
