<svg width="24" height="24" viewBox="0 0 24 24" fill="none" xmlns="http://www.w3.org/2000/svg">
<path d="M19.1945 9.07897V7.82129C19.1945 7.2833 18.978 6.76734 18.5925 6.38692C18.207 6.0065 17.6841 5.79279 17.139 5.79279H6.86122C6.31605 5.79279 5.79321 6.0065 5.40772 6.38692C5.02223 6.76734 4.80566 7.2833 4.80566 7.82129V9.07897" stroke="#1F1F1F" stroke-width="1.5" stroke-linecap="round" stroke-linejoin="round"/>
<path d="M6.86084 5.79276V4.77851C6.86084 4.24051 7.07741 3.72456 7.4629 3.34414C7.84839 2.96372 8.37123 2.75 8.9164 2.75H15.0831C15.6283 2.75 16.1511 2.96372 16.5366 3.34414C16.9221 3.72456 17.1387 4.24051 17.1387 4.77851V5.79276" stroke="#1F1F1F" stroke-width="1.5" stroke-linecap="round" stroke-linejoin="round"/>
<path d="M17.92 8.83551H6.08C4.24089 8.83551 2.75 10.3068 2.75 12.1217V17.9638C2.75 19.7787 4.24089 21.25 6.08 21.25H17.92C19.7591 21.25 21.25 19.7787 21.25 17.9638V12.1217C21.25 10.3068 19.7591 8.83551 17.92 8.83551Z" stroke="#1F1F1F" stroke-width="1.5" stroke-linecap="round" stroke-linejoin="round"/>
<path d="M7.88916 12.8925V13.9068C7.88916 14.4448 8.10572 14.9607 8.49121 15.3411C8.87671 15.7216 9.39954 15.9353 9.94471 15.9353H14.0558C14.601 15.9353 15.1238 15.7216 15.5093 15.3411C15.8948 14.9607 16.1113 14.4448 16.1113 13.9068V12.8925" stroke="#1F1F1F" stroke-width="1.5" stroke-linecap="round" stroke-linejoin="round"/>
</svg>
