<svg width="24" height="24" viewBox="0 0 24 24" fill="none" xmlns="http://www.w3.org/2000/svg">
<path d="M14.3202 5.12H5.55017C4.60773 5.11999 3.70372 5.49369 3.03637 6.15916C2.36903 6.82463 1.99288 7.72756 1.99023 8.67V15.32C1.99287 16.2634 2.3687 17.1673 3.03576 17.8344C3.70282 18.5014 4.60681 18.8774 5.55017 18.88H14.3202C15.2635 18.8774 16.1675 18.5014 16.8346 17.8344C17.5016 17.1673 17.8776 16.2634 17.8802 15.32V8.67999C17.8802 7.73582 17.5051 6.83033 16.8375 6.1627C16.1699 5.49507 15.2643 5.12 14.3202 5.12ZM7.85022 14.06C7.85022 14.3252 7.74478 14.5796 7.55725 14.7671C7.36971 14.9546 7.11543 15.06 6.85022 15.06C6.585 15.06 6.3306 14.9546 6.14306 14.7671C5.95553 14.5796 5.85022 14.3252 5.85022 14.06V9.95998C5.85022 9.69477 5.95553 9.44042 6.14306 9.25288C6.3306 9.06535 6.585 8.95998 6.85022 8.95998C7.11543 8.95998 7.36971 9.06535 7.55725 9.25288C7.74478 9.44042 7.85022 9.69477 7.85022 9.95998V14.06ZM10.9302 14.06C10.9302 14.3252 10.8249 14.5796 10.6373 14.7671C10.4498 14.9546 10.1954 15.06 9.93017 15.06C9.66496 15.06 9.41068 14.9546 9.22314 14.7671C9.0356 14.5796 8.93017 14.3252 8.93017 14.06V9.95998C8.93017 9.69477 9.0356 9.44042 9.22314 9.25288C9.41068 9.06535 9.66496 8.95998 9.93017 8.95998C10.1954 8.95998 10.4498 9.06535 10.6373 9.25288C10.8249 9.44042 10.9302 9.69477 10.9302 9.95998V14.06ZM14.0201 14.06C14.0201 14.3252 13.9148 14.5796 13.7273 14.7671C13.5397 14.9546 13.2853 15.06 13.0201 15.06C12.7549 15.06 12.5006 14.9546 12.3131 14.7671C12.1256 14.5796 12.0201 14.3252 12.0201 14.06V9.95998C12.0201 9.69477 12.1256 9.44042 12.3131 9.25288C12.5006 9.06535 12.7549 8.95998 13.0201 8.95998C13.2853 8.95998 13.5397 9.06535 13.7273 9.25288C13.9148 9.44042 14.0201 9.69477 14.0201 9.95998V14.06Z" fill="#1F1F1F"/>
<path d="M20.2302 15.85H19.7002C19.5013 15.85 19.3104 15.771 19.1698 15.6303C19.0291 15.4897 18.9502 15.2989 18.9502 15.1C18.9502 14.9011 19.0291 14.7103 19.1698 14.5697C19.3104 14.429 19.5013 14.35 19.7002 14.35H20.2302C20.2672 14.3505 20.3038 14.3437 20.3381 14.33C20.3724 14.3163 20.4038 14.2959 20.4302 14.27C20.4791 14.2146 20.5074 14.1439 20.5101 14.07V9.95999C20.5115 9.92284 20.5053 9.88581 20.4917 9.8512C20.4781 9.8166 20.4575 9.78517 20.4313 9.75888C20.405 9.7326 20.3736 9.71202 20.339 9.69845C20.3044 9.68487 20.2674 9.67859 20.2302 9.67999H19.7002C19.5013 9.67999 19.3104 9.60098 19.1698 9.46033C19.0291 9.31967 18.9502 9.12891 18.9502 8.92999C18.9502 8.73108 19.0291 8.54032 19.1698 8.39967C19.3104 8.25901 19.5013 8.17999 19.7002 8.17999H20.2302C20.7021 8.18145 21.1546 8.36819 21.4902 8.7C21.6568 8.86455 21.7886 9.06085 21.8779 9.27728C21.9672 9.49371 22.0121 9.72586 22.0101 9.95999V14.12C22.011 14.354 21.9656 14.5858 21.8763 14.8021C21.7871 15.0183 21.6559 15.2148 21.4902 15.38C21.1467 15.6936 20.6952 15.862 20.2302 15.85Z" fill="#1F1F1F"/>
</svg>
