<svg width="24" height="24" viewBox="0 0 24 24" fill="none" xmlns="http://www.w3.org/2000/svg">
<path d="M20.1698 13.344C20.1698 8.97596 16.2168 9.11432 16.2168 2.75C9.76349 4.34108 9.22984 7.36512 9.22984 12.9882C7.76723 13.1365 6.4331 10.7153 5.59309 9.39102C1.71915 14.4607 4.35778 21.25 12.2638 21.25C14.3606 21.25 16.3715 20.417 17.8542 18.9344C19.3368 17.4517 20.1698 15.4408 20.1698 13.344Z" stroke="#1F1F1F" stroke-width="1.5" stroke-linecap="round" stroke-linejoin="round"/>
<path d="M16.9378 12.9883C16.9232 13.72 16.7516 14.44 16.4346 15.0997C16.1176 15.7593 15.6626 16.3432 15.1004 16.8117C14.5382 17.2802 13.8818 17.6225 13.1758 17.8154C12.4698 18.0082 11.7306 18.0471 11.0083 17.9295" stroke="#1F1F1F" stroke-width="1.5" stroke-linecap="round" stroke-linejoin="round"/>
</svg>
