<svg width="24" height="24" viewBox="0 0 24 24" fill="none" xmlns="http://www.w3.org/2000/svg">
<path d="M20.87 7.17497C20.5139 6.82035 20.091 6.5397 19.6259 6.3492C19.1608 6.15869 18.6626 6.06211 18.16 6.06499H13.81C13.6456 6.06679 13.4835 6.02542 13.34 5.94499C13.1957 5.86925 13.0722 5.75939 12.98 5.62498L12.11 4.29497C11.757 3.77013 11.2807 3.33984 10.7228 3.04173C10.165 2.74362 9.54257 2.58679 8.91006 2.58497H5.83005C5.32588 2.58365 4.82642 2.68214 4.3605 2.87477C3.89457 3.0674 3.47138 3.35038 3.11533 3.70735C2.75929 4.06432 2.47743 4.48823 2.28602 4.95466C2.0946 5.42109 1.99741 5.9208 2.00005 6.42497V17.585C1.99873 18.0883 2.0969 18.587 2.28891 19.0523C2.48092 19.5175 2.76298 19.9402 3.1189 20.2962C3.47481 20.6521 3.89754 20.9341 4.36281 21.1261C4.82809 21.3182 5.32672 21.4163 5.83005 21.415H18.16C19.1767 21.415 20.1519 21.0118 20.8718 20.2938C21.5916 19.5759 21.9974 18.6017 22 17.585V9.88499C21.9918 8.86873 21.5862 7.89601 20.87 7.17497ZM15.38 15.715C15.5683 15.902 15.6746 16.1561 15.6756 16.4215C15.6765 16.6868 15.572 16.9417 15.385 17.13C15.198 17.3183 14.9439 17.4246 14.6786 17.4256C14.4132 17.4265 14.1583 17.322 13.97 17.135L11.97 15.135L9.97005 17.135C9.78379 17.3198 9.5324 17.4239 9.27006 17.425C9.13845 17.4258 9.00798 17.4005 8.88615 17.3508C8.76431 17.301 8.6535 17.2277 8.56006 17.135C8.46633 17.0421 8.39193 16.9314 8.34116 16.8096C8.29039 16.6877 8.26426 16.557 8.26426 16.425C8.26426 16.293 8.29039 16.1623 8.34116 16.0404C8.39193 15.9186 8.46633 15.808 8.56006 15.715L10.56 13.715L8.56006 11.715C8.37381 11.5276 8.26926 11.2742 8.26926 11.01C8.26926 10.7458 8.37381 10.4924 8.56006 10.305C8.74742 10.1188 9.00087 10.0142 9.26505 10.0142C9.52924 10.0142 9.78269 10.1188 9.97005 10.305L11.97 12.305L13.97 10.305C14.1574 10.1188 14.4108 10.0142 14.675 10.0142C14.9392 10.0142 15.1927 10.1188 15.38 10.305C15.5663 10.4924 15.6708 10.7458 15.6708 11.01C15.6708 11.2742 15.5663 11.5276 15.38 11.715L13.38 13.715L15.38 15.715Z" fill="#1F1F1F"/>
</svg>
