<svg width="24" height="24" viewBox="0 0 24 24" fill="none" xmlns="http://www.w3.org/2000/svg">
<path d="M5.44258 17.3682C4.28979 17.0748 4.39459 15.859 4.57275 15.2722C4.91859 14.1614 6.26002 13.0295 6.26002 11.8034C6.26002 9.07853 6.26002 8.32398 7.61193 6.71007C8.05013 6.19483 8.58854 5.77409 9.19441 5.47343L9.93847 5.10663C10.0694 5.03319 10.183 4.93249 10.2716 4.81135C10.3602 4.6902 10.4217 4.55146 10.4521 4.40447C10.5225 3.91319 10.7797 3.46799 11.1701 3.16152C11.5606 2.85507 12.0541 2.71093 12.5481 2.75911C13.0329 2.72741 13.512 2.87892 13.8904 3.18363C14.2689 3.48833 14.5191 3.92404 14.5916 4.40447C14.6266 4.55527 14.6945 4.69644 14.7906 4.81785C14.8866 4.93926 15.0083 5.03787 15.1471 5.10663L15.8912 5.47343C16.2095 5.63197 16.5113 5.82153 16.7924 6.03934" stroke="#1F1F1F" stroke-width="1.5" stroke-linecap="round" stroke-linejoin="round"/>
<path d="M17.9279 8.2961C18.5986 9.34409 18.5986 10.3083 18.5986 12.4881C18.5986 13.7142 19.9925 14.9194 20.3383 16.0198C20.4376 16.2545 20.4759 16.5106 20.4497 16.764C20.4233 17.0175 20.3332 17.2602 20.1878 17.4694C20.0423 17.6787 19.8463 17.8477 19.6178 17.9607C19.3895 18.0738 19.1362 18.1272 18.8815 18.1158H8.13965" stroke="#1F1F1F" stroke-width="1.5" stroke-linecap="round" stroke-linejoin="round"/>
<path d="M15.4757 18.1053C15.4842 18.5205 15.4087 18.9332 15.2537 19.3186C15.0987 19.7039 14.8675 20.0539 14.5738 20.3475C14.2802 20.6412 13.9302 20.8725 13.5448 21.0275C13.1595 21.1824 12.7468 21.2579 12.3316 21.2494C11.9164 21.2579 11.5037 21.1824 11.1184 21.0275C10.7331 20.8725 10.3831 20.6412 10.0894 20.3475C9.79576 20.0539 9.5645 19.7039 9.40954 19.3186C9.25457 18.9332 9.1791 18.5205 9.18767 18.1053" stroke="#1F1F1F" stroke-width="1.5" stroke-linecap="round" stroke-linejoin="round"/>
<path d="M3.54248 20.1149L19.493 3.33" stroke="#1F1F1F" stroke-width="1.5" stroke-miterlimit="10" stroke-linecap="round"/>
</svg>
