<svg width="24" height="24" viewBox="0 0 24 24" fill="none" xmlns="http://www.w3.org/2000/svg">
<path d="M18.0246 7.04345C16.8536 5.87602 15.3632 5.08139 13.7413 4.75978C12.1194 4.43816 10.4385 4.60394 8.91066 5.23624C7.38283 5.86853 6.07641 6.939 5.15609 8.31272C4.23578 9.68644 3.74278 11.3019 3.73926 12.9553" stroke="#1F1F1F" stroke-width="1.5" stroke-miterlimit="10" stroke-linecap="round"/>
<path d="M17.3499 2.75L18.1816 6.12181C18.2199 6.2688 18.2279 6.42201 18.2053 6.57219C18.1826 6.72238 18.1299 6.86642 18.05 6.99563C17.9702 7.12484 17.865 7.23652 17.7408 7.32394C17.6167 7.41136 17.476 7.4727 17.3275 7.50426L13.9556 8.34721" stroke="#1F1F1F" stroke-width="1.5" stroke-linecap="round" stroke-linejoin="round"/>
<path d="M5.97559 16.9567C7.14655 18.1241 8.63694 18.9186 10.2589 19.2403C11.8807 19.5619 13.5616 19.3961 15.0894 18.7639C16.6173 18.1316 17.9237 17.0611 18.8441 15.6873C19.7643 14.3136 20.2573 12.6981 20.2608 11.0447" stroke="#1F1F1F" stroke-width="1.5" stroke-miterlimit="10" stroke-linecap="round"/>
<path d="M6.65015 21.25L5.81844 17.8782C5.7802 17.7312 5.77214 17.578 5.79476 17.4278C5.81737 17.2776 5.87019 17.1336 5.95002 17.0044C6.02985 16.8751 6.13505 16.7634 6.25924 16.676C6.38344 16.5887 6.52407 16.5273 6.67264 16.4957L10.0445 15.6528" stroke="#1F1F1F" stroke-width="1.5" stroke-linecap="round" stroke-linejoin="round"/>
</svg>
