<svg width="24" height="24" viewBox="0 0 24 24" fill="none" xmlns="http://www.w3.org/2000/svg">
<path d="M21.1246 12.6195C21.2358 12.4191 21.2942 12.1937 21.2942 11.9645C21.2942 11.7354 21.2358 11.5099 21.1246 11.3095C20.9922 11.0901 20.8065 10.9078 20.5847 10.7795L18.3047 9.65952L20.6047 8.47952C20.8235 8.3686 21.0069 8.19894 21.1346 7.98953C21.2654 7.77582 21.3347 7.53008 21.3347 7.27951C21.335 7.03204 21.2656 6.7895 21.1346 6.57953C21.0053 6.36174 20.8138 6.18761 20.5847 6.07953L12.5847 2.15952C12.4015 2.06798 12.1994 2.02032 11.9946 2.02032C11.7898 2.02032 11.5878 2.06798 11.4046 2.15952L3.40466 6.08954C3.18243 6.20384 2.99577 6.37674 2.86474 6.58954C2.73458 6.79982 2.66553 7.04221 2.66553 7.28952C2.66553 7.53683 2.73458 7.77925 2.86474 7.98953C2.98924 8.20402 3.17328 8.37773 3.39465 8.48953L5.67468 9.65952L3.39465 10.7495C3.17519 10.864 2.99184 11.0371 2.86474 11.2495C2.73458 11.4598 2.66553 11.7022 2.66553 11.9495C2.66553 12.1968 2.73458 12.4393 2.86474 12.6495C2.98924 12.864 3.17328 13.0377 3.39465 13.1495L5.67468 14.3195L3.39465 15.4095C3.17519 15.524 2.99184 15.6971 2.86474 15.9095C2.73458 16.1198 2.66553 16.3622 2.66553 16.6095C2.66553 16.8568 2.73458 17.0992 2.86474 17.3095C2.99184 17.5219 3.17519 17.695 3.39465 17.8095L11.3946 21.8095C11.5862 21.9201 11.8034 21.9787 12.0246 21.9795C12.2387 21.9825 12.4496 21.9272 12.6346 21.8195L20.6947 17.7295C20.9889 17.547 21.2017 17.2584 21.2892 16.9234C21.3766 16.5884 21.3321 16.2326 21.1647 15.9295C21.0322 15.7102 20.8464 15.5279 20.6246 15.3995L18.3347 14.2795L20.6947 13.0695C20.8704 12.9542 21.0174 12.8003 21.1246 12.6195ZM11.9847 15.8795L7.72473 13.7095L7.53467 13.6195L4.3147 11.9595L7.3147 10.5095L11.3147 12.5795C11.5071 12.687 11.7243 12.7422 11.9447 12.7395C12.1579 12.7461 12.3688 12.6942 12.5547 12.5895L16.5547 10.5195L19.5547 11.9695L11.9847 15.8795Z" fill="#1F1F1F"/>
</svg>
