<svg width="24" height="24" viewBox="0 0 24 24" fill="none" xmlns="http://www.w3.org/2000/svg">
<path d="M5.75074 9.41455H4.56724C3.5868 9.41455 2.79199 10.2094 2.79199 11.1898V19.4743C2.79199 20.4548 3.5868 21.2496 4.56724 21.2496H5.75074C6.73119 21.2496 7.526 20.4548 7.526 19.4743V11.1898C7.526 10.2094 6.73119 9.41455 5.75074 9.41455Z" stroke="#1F1F1F" stroke-width="1.5" stroke-linecap="round" stroke-linejoin="round"/>
<path d="M21.1599 12.2431L19.7397 19.3441C19.6314 19.889 19.335 20.3785 18.9023 20.7268C18.4695 21.0752 17.9281 21.2602 17.3727 21.2496H9.89288C9.26512 21.2496 8.66306 21.0002 8.21916 20.5563C7.77526 20.1124 7.52588 19.5103 7.52588 18.8826V11.7816C7.5449 11.3258 7.66019 10.8793 7.86417 10.4713C8.06816 10.0634 8.35621 9.7032 8.70938 9.41456L9.69169 3.49705C9.71383 3.359 9.76827 3.22814 9.85058 3.11511C9.93288 3.00209 10.0408 2.91011 10.1653 2.84666C10.2899 2.78321 10.4277 2.75009 10.5676 2.75C10.7074 2.74991 10.8452 2.78284 10.9699 2.84612L12.0706 3.39054C12.7977 3.75007 13.3799 4.34778 13.7201 5.0842C14.0603 5.82062 14.1381 6.65133 13.9405 7.43811L13.4434 9.40272H18.8402C19.1912 9.40265 19.5379 9.48065 19.855 9.63109C20.1722 9.78153 20.452 10.0006 20.674 10.2725C20.896 10.5444 21.0548 10.8623 21.1389 11.2031C21.2229 11.5439 21.2301 11.8992 21.1599 12.2431Z" stroke="#1F1F1F" stroke-width="1.5" stroke-linecap="round" stroke-linejoin="round"/>
</svg>
