<svg width="24" height="24" viewBox="0 0 24 24" fill="none" xmlns="http://www.w3.org/2000/svg">
<path d="M3.83711 3.30359H12.2405C14.4879 3.2704 16.6645 4.0895 18.3325 5.59612C20.0005 7.10274 21.0361 9.1851 21.2309 11.4243C21.3099 12.6139 21.1434 13.8071 20.7419 14.9297C20.3403 16.0522 19.7123 17.0803 18.8967 17.9499C18.0811 18.8195 17.0954 19.5122 16.0008 19.9848C14.9063 20.4574 13.7262 20.7 12.534 20.6974H3.83711C3.54879 20.6974 3.27228 20.5828 3.06841 20.379C2.86453 20.1751 2.75 19.8986 2.75 19.6103V16.3489C2.75 16.0606 2.86453 15.7841 3.06841 15.5802C3.27228 15.3763 3.54879 15.2618 3.83711 15.2618H12.534C13.399 15.2618 14.2285 14.9182 14.8401 14.3066C15.4517 13.695 15.7953 12.8654 15.7953 12.0005C15.7953 11.1355 15.4517 10.306 14.8401 9.69437C14.2285 9.08275 13.399 8.73914 12.534 8.73914H3.83711C3.54879 8.73914 3.27228 8.62461 3.0684 8.42074C2.86453 8.21686 2.75 7.94035 2.75 7.65203V4.3907C2.75 4.10238 2.86453 3.82587 3.0684 3.622C3.27228 3.41812 3.54879 3.30359 3.83711 3.30359Z" stroke="#1F1F1F" stroke-width="1.5"/>
<path d="M9.27246 15.2618V20.6974" stroke="#1F1F1F" stroke-width="1.5"/>
<path d="M9.27246 3.30358V8.73914" stroke="#1F1F1F" stroke-width="1.5"/>
</svg>
