<svg width="24" height="24" viewBox="0 0 24 24" fill="none" xmlns="http://www.w3.org/2000/svg">
<path d="M10.995 4.67993V8.55994C10.995 8.88121 10.9315 9.19931 10.8082 9.496C10.685 9.79269 10.5044 10.0621 10.2767 10.2888C10.0491 10.5155 9.77903 10.695 9.48184 10.8171C9.18465 10.9391 8.86622 11.0013 8.54495 10.9999H4.68496C4.36457 11.0019 4.04705 10.9391 3.75149 10.8154C3.45594 10.6917 3.18846 10.5095 2.96499 10.2799C2.73856 10.0546 2.55917 9.78651 2.43728 9.49123C2.3154 9.19595 2.25336 8.87938 2.25491 8.55994V4.68994C2.25491 4.04454 2.51066 3.42543 2.96609 2.96812C3.42152 2.51082 4.03957 2.25258 4.68496 2.24994H8.55496C8.87502 2.25025 9.19185 2.31403 9.48709 2.43762C9.78233 2.56121 10.0501 2.74215 10.2749 2.96994C10.5028 3.19258 10.684 3.45855 10.8076 3.75221C10.9313 4.04588 10.995 4.3613 10.995 4.67993Z" fill="#1F1F1F"/>
<path d="M21.7451 4.68994V8.55994C21.7399 9.20373 21.4825 9.81985 21.0282 10.276C20.5739 10.7322 19.9588 10.9921 19.3151 10.9999H15.4351C14.7882 10.996 14.1682 10.7415 13.7051 10.2899C13.4788 10.0624 13.2996 9.79251 13.1777 9.49565C13.0559 9.19879 12.9939 8.88082 12.9951 8.55994V4.68994C12.9937 4.36963 13.0567 4.05229 13.1804 3.75682C13.3041 3.46135 13.4859 3.19376 13.7151 2.96994C13.9399 2.74215 14.2077 2.56121 14.5029 2.43762C14.7982 2.31403 15.115 2.25025 15.4351 2.24994H19.305C19.9506 2.25517 20.5682 2.51391 21.0246 2.97037C21.4811 3.42683 21.7399 4.04443 21.7451 4.68994Z" fill="#1F1F1F"/>
<path d="M21.7453 15.44V19.31C21.7401 19.9537 21.4826 20.5699 21.0283 21.026C20.574 21.4822 19.959 21.7421 19.3152 21.75H15.4352C14.7843 21.7566 14.1564 21.509 13.6852 21.06C13.458 20.8331 13.2783 20.5633 13.1564 20.2663C13.0345 19.9693 12.9729 19.651 12.9752 19.33V15.4599C12.9739 15.1396 13.0368 14.8223 13.1605 14.5268C13.2842 14.2314 13.4661 13.9638 13.6952 13.7399C13.92 13.5122 14.1878 13.3312 14.483 13.2076C14.7783 13.0841 15.0951 13.0203 15.4152 13.02H19.2852C19.9307 13.0252 20.5483 13.2839 21.0048 13.7404C21.4612 14.1968 21.72 14.8144 21.7252 15.4599L21.7453 15.44Z" fill="#1F1F1F"/>
<path d="M10.995 15.4499V19.3199C10.9871 19.9654 10.7258 20.582 10.2674 21.0366C9.80914 21.4912 9.19048 21.7474 8.54494 21.7499H4.68496C4.36547 21.7513 4.04886 21.6893 3.75344 21.5677C3.45802 21.446 3.18968 21.2671 2.96377 21.0412C2.73786 20.8152 2.55893 20.5468 2.43728 20.2514C2.31563 19.956 2.25358 19.6394 2.2549 19.3199V15.4499C2.25748 14.8044 2.51369 14.1857 2.96828 13.7274C3.42287 13.2691 4.03946 13.0078 4.68496 12.9999H8.55495C9.20337 13.0055 9.82402 13.2638 10.2849 13.7199C10.741 14.1801 10.9964 14.8021 10.995 15.4499Z" fill="#1F1F1F"/>
</svg>
