<svg width="24" height="24" viewBox="0 0 24 24" fill="none" xmlns="http://www.w3.org/2000/svg">
<path d="M17.6785 6.845V17.125C17.6792 17.5102 17.5902 17.8902 17.4185 18.235C17.2506 18.584 16.9914 18.8811 16.6685 19.095C16.3509 19.3143 15.9745 19.4328 15.5885 19.435C15.2037 19.4351 14.8276 19.3202 14.5086 19.105L10.5086 16.475C10.431 16.4248 10.3409 16.3971 10.2485 16.395H8.41849C8.12805 16.3925 7.84163 16.3269 7.57914 16.2025C7.31664 16.0782 7.08435 15.8982 6.89847 15.675C6.5178 15.2295 6.31175 14.6609 6.31852 14.075V9.89499C6.31236 9.31214 6.51848 8.74698 6.89847 8.30499C7.08718 8.08729 7.3207 7.91291 7.58304 7.79382C7.84539 7.67473 8.13039 7.61373 8.41849 7.61499H10.3085C10.4027 7.61427 10.4941 7.58266 10.5686 7.52499L14.5686 4.89499C14.8941 4.68573 15.2716 4.57146 15.6585 4.565C16.0472 4.57001 16.426 4.68816 16.7485 4.905C17.0659 5.12239 17.3209 5.41881 17.4885 5.76498C17.6307 6.10658 17.6956 6.4754 17.6785 6.845Z" fill="#1F1F1F"/>
</svg>
