<svg width="24" height="24" viewBox="0 0 24 24" fill="none" xmlns="http://www.w3.org/2000/svg">
<path d="M5.93744 18.9375C5.60844 18.6522 5.29921 18.3452 5.01186 18.0186C3.55306 16.3479 2.75 14.211 2.75 12C2.75 9.78898 3.55306 7.65209 5.01186 5.98137C5.29921 5.65476 5.60844 5.34777 5.93744 5.0625" stroke="#1F1F1F" stroke-width="1.5" stroke-linecap="round" stroke-linejoin="round"/>
<path d="M8.39941 7.617C8.09646 7.8534 7.82302 8.12485 7.5849 8.42561C6.75325 9.43388 6.29883 10.6969 6.29883 12C6.29883 13.3032 6.75325 14.5662 7.5849 15.5745C7.82302 15.8752 8.09646 16.1467 8.39941 16.3831" stroke="#1F1F1F" stroke-width="1.5" stroke-linecap="round" stroke-linejoin="round"/>
<path d="M14.2028 12C14.1936 12.4048 14.0719 12.7991 13.8511 13.1394C13.6661 13.4335 13.416 13.6817 13.1199 13.8654C12.7746 14.0758 12.3773 14.1872 11.9721 14.1872C11.567 14.1872 11.1697 14.0758 10.8244 13.8654C10.5282 13.6817 10.2782 13.4335 10.0932 13.1394C9.88126 12.7967 9.76904 12.4023 9.76904 12C9.76904 11.5978 9.88126 11.2034 10.0932 10.8606C10.2782 10.5666 10.5282 10.3183 10.8244 10.1347C11.1697 9.92427 11.567 9.81287 11.9721 9.81287C12.3773 9.81287 12.7746 9.92427 13.1199 10.1347C13.416 10.3183 13.6661 10.5666 13.8511 10.8606C14.0719 11.201 14.1936 11.5953 14.2028 12Z" stroke="#1F1F1F" stroke-width="1.5" stroke-linecap="round" stroke-linejoin="round"/>
<path d="M15.6006 16.3831C15.9036 16.1467 16.177 15.8752 16.4151 15.5745C17.2468 14.5662 17.7012 13.3032 17.7012 12C17.7012 10.6969 17.2468 9.43388 16.4151 8.42561C16.177 8.12485 15.9036 7.8534 15.6006 7.617" stroke="#1F1F1F" stroke-width="1.5" stroke-linecap="round" stroke-linejoin="round"/>
<path d="M18.0625 5.0625C18.3915 5.34777 18.7007 5.65476 18.988 5.98137C20.4468 7.65209 21.2499 9.78898 21.2499 12C21.2499 14.211 20.4468 16.3479 18.988 18.0186C18.7007 18.3452 18.3915 18.6522 18.0625 18.9375" stroke="#1F1F1F" stroke-width="1.5" stroke-linecap="round" stroke-linejoin="round"/>
</svg>
