<svg width="24" height="24" viewBox="0 0 24 24" fill="none" xmlns="http://www.w3.org/2000/svg">
<path d="M20.5951 4.17005C19.7077 3.29312 18.5127 2.79786 17.2651 2.79005H6.69514C6.07493 2.78873 5.46053 2.90991 4.88728 3.14665C4.31403 3.38338 3.79318 3.73101 3.35463 4.16957C2.91607 4.60812 2.56848 5.12897 2.33174 5.70222C2.095 6.27547 1.97379 6.88984 1.97511 7.51005V14.1101C1.97379 14.7303 2.095 15.3446 2.33174 15.9179C2.56848 16.4911 2.91607 17.012 3.35463 17.4505C3.79318 17.8891 4.31403 18.2367 4.88728 18.4734C5.46053 18.7102 6.07493 18.8314 6.69514 18.8301H9.05513L10.9951 20.77C11.1279 20.9107 11.2877 21.023 11.4651 21.1C11.6361 21.1719 11.8196 21.2092 12.0051 21.21C12.1939 21.2093 12.3806 21.1719 12.5551 21.1C12.7228 21.0251 12.8754 20.9201 13.0051 20.7901L15.0051 18.7901H17.3351C18.5838 18.7876 19.7808 18.2915 20.6651 17.41C21.0939 16.9693 21.4335 16.4497 21.6651 15.88C21.904 15.3066 22.0264 14.6913 22.0251 14.07V7.47004C22.0037 6.22419 21.4895 5.0376 20.5951 4.17005ZM15.5151 11.87H12.9651V14.4C12.9651 14.6653 12.8598 14.9196 12.6722 15.1072C12.4847 15.2947 12.2303 15.4 11.9651 15.4C11.6999 15.4 11.4455 15.2947 11.258 15.1072C11.0705 14.9196 10.9651 14.6653 10.9651 14.4V11.87H8.43513C8.16992 11.87 7.91558 11.7647 7.72804 11.5772C7.5405 11.3896 7.43513 11.1353 7.43513 10.87C7.43513 10.6048 7.5405 10.3505 7.72804 10.1629C7.91558 9.97541 8.16992 9.87004 8.43513 9.87004H10.9651V7.32005C10.9651 7.05483 11.0705 6.80046 11.258 6.61293C11.4455 6.42539 11.6999 6.32005 11.9651 6.32005C12.2303 6.32005 12.4847 6.42539 12.6722 6.61293C12.8598 6.80046 12.9651 7.05483 12.9651 7.32005V9.87004H15.5151C15.7804 9.87004 16.0347 9.97541 16.2222 10.1629C16.4098 10.3505 16.5151 10.6048 16.5151 10.87C16.5151 11.1353 16.4098 11.3896 16.2222 11.5772C16.0347 11.7647 15.7804 11.87 15.5151 11.87Z" fill="#1F1F1F"/>
</svg>
