<svg width="24" height="24" viewBox="0 0 24 24" fill="none" xmlns="http://www.w3.org/2000/svg">
<path d="M18.6399 19L12.8766 13.2367C12.7129 13.075 12.5829 12.8824 12.4943 12.6701C12.4056 12.4578 12.3599 12.2301 12.3599 12C12.3599 11.7699 12.4056 11.5422 12.4943 11.3299C12.5829 11.1176 12.7129 10.925 12.8766 10.7633L18.6399 5" stroke="#1F1F1F" stroke-width="1.5" stroke-linecap="round" stroke-linejoin="round"/>
<path d="M11.6399 19L5.87654 13.2367C5.71287 13.075 5.58292 12.8824 5.49422 12.6701C5.40553 12.4578 5.35986 12.2301 5.35986 12C5.35986 11.7699 5.40553 11.5422 5.49422 11.3299C5.58292 11.1176 5.71287 10.925 5.87654 10.7633L11.6399 5" stroke="#1F1F1F" stroke-width="1.5" stroke-linecap="round" stroke-linejoin="round"/>
</svg>
