<svg width="24" height="24" viewBox="0 0 24 24" fill="none" xmlns="http://www.w3.org/2000/svg">
<path d="M16.7505 5.48352V18.4835C16.7512 18.73 16.6795 18.9713 16.5445 19.1775C16.4094 19.3837 16.2168 19.5457 15.9905 19.6435C15.8294 19.7122 15.6556 19.7463 15.4805 19.7435H15.2905C15.0473 19.7092 14.8203 19.601 14.6405 19.4335L7.88053 13.3535C7.69145 13.1875 7.53543 12.9874 7.42057 12.7635C7.31273 12.535 7.25474 12.2862 7.25053 12.0335C7.24176 11.7828 7.28963 11.5333 7.39054 11.3035C7.48532 11.0671 7.63237 10.8552 7.8206 10.6835L14.6405 4.57352C14.8236 4.41277 15.0494 4.30858 15.2905 4.27353C15.5309 4.2331 15.7778 4.2644 16.0005 4.36353C16.2231 4.46319 16.4111 4.62678 16.5405 4.83353C16.671 5.02578 16.7438 5.25128 16.7505 5.48352Z" fill="#1F1F1F"/>
</svg>
