<svg width="24" height="24" viewBox="0 0 24 24" fill="none" xmlns="http://www.w3.org/2000/svg">
<path d="M7.75498 13.38V20.21C7.75498 20.6184 7.59273 21.0101 7.30393 21.2989C7.01512 21.5877 6.62343 21.75 6.215 21.75H4.405C4.20192 21.7513 4.00059 21.7124 3.81259 21.6356C3.6246 21.5588 3.45367 21.4456 3.3096 21.3025C3.16554 21.1593 3.05119 20.9891 2.97318 20.8016C2.89516 20.6141 2.85501 20.4131 2.85501 20.21V13.38C2.85368 13.1761 2.89282 12.9739 2.97025 12.7852C3.04767 12.5966 3.1618 12.4252 3.306 12.281C3.4502 12.1368 3.62162 12.0227 3.81027 11.9453C3.99893 11.8678 4.20108 11.8287 4.405 11.83H6.215C6.41808 11.83 6.61912 11.8701 6.80661 11.9482C6.99411 12.0262 7.16433 12.1405 7.30747 12.2846C7.4506 12.4286 7.56386 12.5996 7.64066 12.7876C7.71746 12.9756 7.75629 13.1769 7.75498 13.38Z" fill="#1F1F1F"/>
<path d="M14.4549 3.8V20.21C14.4549 20.4131 14.4147 20.6142 14.3367 20.8017C14.2587 20.9891 14.1444 21.1594 14.0003 21.3025C13.8562 21.4456 13.6853 21.5588 13.4973 21.6357C13.3093 21.7125 13.108 21.7513 12.9049 21.75H11.0949C10.6855 21.75 10.2928 21.5881 10.0024 21.2996C9.71199 21.011 9.54757 20.6193 9.54492 20.21V3.8C9.54755 3.38973 9.71166 2.99699 10.0018 2.70688C10.2919 2.41676 10.6846 2.25262 11.0949 2.25H12.9049C13.316 2.25 13.7102 2.4133 14.0009 2.70398C14.2916 2.99466 14.4549 3.38892 14.4549 3.8Z" fill="#1F1F1F"/>
<path d="M21.1451 8.97993V20.2099C21.1451 20.6184 20.9828 21.0101 20.694 21.2989C20.4052 21.5877 20.0135 21.7499 19.6051 21.7499H17.7951C17.592 21.7513 17.3907 21.7124 17.2027 21.6356C17.0147 21.5588 16.8437 21.4456 16.6996 21.3024C16.5556 21.1593 16.4413 20.9891 16.3633 20.8016C16.2853 20.6141 16.2451 20.413 16.2451 20.2099V8.97993C16.2451 8.56885 16.4084 8.17461 16.699 7.88393C16.9897 7.59324 17.384 7.42993 17.7951 7.42993H19.6451C20.0474 7.44292 20.429 7.61194 20.7089 7.90123C20.9889 8.19052 21.1453 8.57737 21.1451 8.97993Z" fill="#1F1F1F"/>
</svg>
