<svg width="24" height="24" viewBox="0 0 24 24" fill="none" xmlns="http://www.w3.org/2000/svg">
<path d="M21.7147 8.80365V11.0137C21.7147 11.2126 21.6357 11.4034 21.495 11.544C21.3544 11.6847 21.1636 11.7637 20.9647 11.7637C20.7658 11.7637 20.575 11.6847 20.4344 11.544C20.2937 11.4034 20.2147 11.2126 20.2147 11.0137V8.80365C20.2211 8.54428 20.1769 8.28614 20.0847 8.04364L12.7847 12.4236V20.6136C12.8997 20.5798 13.0104 20.5328 13.1147 20.4736L15.6447 19.0737C15.8165 18.9831 16.0167 18.9628 16.2032 19.0168C16.3897 19.0709 16.548 19.1953 16.6447 19.3636C16.7344 19.5366 16.7533 19.7378 16.6973 19.9244C16.6413 20.1111 16.5148 20.2686 16.3447 20.3636L13.8247 21.7637C13.2712 22.0719 12.6482 22.2337 12.0147 22.2337C11.3812 22.2337 10.7582 22.0719 10.2047 21.7637L4.20465 18.4636C3.62563 18.1352 3.14335 17.6601 2.8063 17.0861C2.46925 16.512 2.28934 15.8593 2.28467 15.1937V8.80365C2.2851 8.13523 2.46465 7.4791 2.80466 6.90363C2.86205 6.80088 2.92902 6.7038 3.00467 6.61365C3.03976 6.55991 3.07994 6.50966 3.12466 6.46362C3.41601 6.08183 3.78384 5.76508 4.20465 5.53363L10.2047 2.22363C10.7608 1.92343 11.3828 1.76624 12.0147 1.76624C12.6466 1.76624 13.2686 1.92343 13.8247 2.22363L19.8247 5.53363C20.2455 5.76508 20.6134 6.08183 20.9047 6.46362L21.0247 6.61365C21.1003 6.7038 21.1673 6.80088 21.2247 6.90363C21.5589 7.48017 21.7284 8.13739 21.7147 8.80365Z" fill="#1F1F1F"/>
<path d="M19.3945 17.9437C19.1964 17.9411 19.0071 17.8612 18.867 17.7211C18.7269 17.581 18.6471 17.3918 18.6445 17.1937V16.8837C18.6491 16.5645 18.7502 16.2542 18.9345 15.9936C19.1178 15.7395 19.3716 15.5448 19.6645 15.4336L19.8245 15.3436C19.8633 15.3071 19.894 15.2628 19.9145 15.2136C19.924 15.1641 19.924 15.1132 19.9145 15.0637C19.9237 15.0107 19.9237 14.9566 19.9145 14.9036C19.8754 14.8438 19.8243 14.7928 19.7645 14.7537C19.6948 14.7061 19.6168 14.6722 19.5345 14.6536C19.3983 14.6267 19.2569 14.6479 19.1345 14.7136C19.0221 14.7746 18.9313 14.869 18.8745 14.9836C18.8357 15.0769 18.7785 15.1613 18.7063 15.2319C18.6341 15.3024 18.5483 15.3577 18.4542 15.3943C18.3601 15.431 18.2596 15.4483 18.1586 15.4451C18.0577 15.442 17.9585 15.4185 17.8668 15.376C17.7752 15.3336 17.6931 15.2731 17.6254 15.1981C17.5578 15.1232 17.5059 15.0353 17.473 14.9398C17.4401 14.8443 17.4268 14.7432 17.434 14.6425C17.4411 14.5418 17.4685 14.4435 17.5145 14.3536C17.7114 13.9355 18.0402 13.5935 18.4503 13.3804C18.8604 13.1672 19.3291 13.0945 19.7845 13.1736C20.092 13.2257 20.3831 13.349 20.6345 13.5336C20.8781 13.7006 21.0792 13.9224 21.2216 14.1812C21.364 14.44 21.4438 14.7285 21.4545 15.0236C21.4572 15.291 21.4062 15.5563 21.3045 15.8036C21.2038 16.0477 21.0501 16.2663 20.8545 16.4437C20.6624 16.6234 20.4339 16.7597 20.1845 16.8436V17.1937C20.1847 17.2956 20.164 17.3965 20.1238 17.4902C20.0837 17.5839 20.0248 17.6684 19.9509 17.7386C19.877 17.8088 19.7895 17.8632 19.6938 17.8984C19.5982 17.9337 19.4963 17.9491 19.3945 17.9437Z" fill="#1F1F1F"/>
<path d="M19.3745 19.6437C19.1756 19.6437 18.9848 19.5646 18.8442 19.424C18.7035 19.2833 18.6245 19.0926 18.6245 18.8937C18.6245 18.6948 18.7035 18.504 18.8442 18.3633C18.9848 18.2227 19.1756 18.1437 19.3745 18.1437C19.5734 18.1437 19.7642 18.2227 19.9048 18.3633C20.0455 18.504 20.1245 18.6948 20.1245 18.8937C20.1245 19.0926 20.0455 19.2833 19.9048 19.424C19.7642 19.5646 19.5734 19.6437 19.3745 19.6437Z" fill="#1F1F1F"/>
</svg>
