<svg width="24" height="24" viewBox="0 0 24 24" fill="none" xmlns="http://www.w3.org/2000/svg">
<path d="M13.6506 6.86005V17.14C13.6513 17.5252 13.5623 17.9052 13.3906 18.25C13.2258 18.5981 12.9701 18.8952 12.6506 19.11C12.328 19.3269 11.9492 19.445 11.5606 19.45C11.1757 19.4502 10.7996 19.3352 10.4805 19.12L6.48053 16.49C6.40292 16.4398 6.31292 16.4122 6.22052 16.41H4.35053C4.06008 16.4076 3.77366 16.3419 3.51117 16.2176C3.24868 16.0933 3.01645 15.9132 2.83057 15.69C2.45225 15.2431 2.24648 14.6755 2.25055 14.09V9.91003C2.24887 9.32796 2.45449 8.76431 2.83057 8.32004C3.01645 8.09685 3.24868 7.91682 3.51117 7.79248C3.77366 7.66814 4.06008 7.60248 4.35053 7.60004H6.25055C6.34758 7.59802 6.44174 7.56665 6.52057 7.51004L10.5206 4.88004C10.8414 4.66857 11.2163 4.55402 11.6005 4.55005C11.9892 4.55506 12.368 4.6732 12.6906 4.89005C13.0079 5.10743 13.2629 5.40385 13.4306 5.75003C13.5874 6.09846 13.6627 6.47812 13.6506 6.86005Z" fill="#1F1F1F"/>
<path d="M16.2507 16.5394C16.0527 16.5351 15.8635 16.4566 15.7207 16.3194C15.5802 16.1788 15.5014 15.9881 15.5014 15.7894C15.5014 15.5906 15.5802 15.4 15.7207 15.2594C16.1482 14.833 16.4874 14.3265 16.7189 13.7688C16.9503 13.2111 17.0695 12.6132 17.0695 12.0094C17.0695 11.4056 16.9503 10.8077 16.7189 10.25C16.4874 9.69233 16.1482 9.18578 15.7207 8.75939C15.647 8.69073 15.5879 8.60792 15.5469 8.51592C15.5059 8.42393 15.4838 8.32464 15.4821 8.22393C15.4803 8.12323 15.4989 8.02319 15.5366 7.9298C15.5743 7.83642 15.6305 7.75157 15.7017 7.68035C15.7729 7.60913 15.8577 7.553 15.9511 7.51528C16.0445 7.47756 16.1445 7.45903 16.2452 7.46081C16.3459 7.46259 16.4452 7.48464 16.5372 7.52563C16.6292 7.56662 16.7121 7.62571 16.7807 7.6994C17.3485 8.26437 17.7991 8.93597 18.1066 9.67562C18.414 10.4153 18.5723 11.2084 18.5723 12.0094C18.5723 12.8104 18.414 13.6035 18.1066 14.3432C17.7991 15.0828 17.3485 15.7544 16.7807 16.3194C16.6379 16.4566 16.4487 16.5351 16.2507 16.5394Z" fill="#1F1F1F"/>
<path d="M18.5006 18.7793C18.402 18.7804 18.3042 18.7614 18.2131 18.7236C18.122 18.6858 18.0395 18.6299 17.9706 18.5593C17.8998 18.4904 17.8437 18.408 17.8053 18.3169C17.7669 18.2259 17.7471 18.1281 17.7471 18.0293C17.7471 17.9305 17.7669 17.8327 17.8053 17.7417C17.8437 17.6507 17.8998 17.5683 17.9706 17.4993C19.4215 16.0365 20.2357 14.0597 20.2357 11.9993C20.2357 9.93899 19.4215 7.96212 17.9706 6.49933C17.8998 6.43038 17.8437 6.34795 17.8053 6.25693C17.7669 6.1659 17.7471 6.06812 17.7471 5.96933C17.7471 5.87054 17.7669 5.77273 17.8053 5.6817C17.8437 5.59068 17.8998 5.50828 17.9706 5.43933C18.1112 5.29888 18.3019 5.21997 18.5006 5.21997C18.6994 5.21997 18.89 5.29888 19.0307 5.43933C20.7716 7.18463 21.7493 9.54915 21.7493 12.0143C21.7493 14.4795 20.7716 16.844 19.0307 18.5893C18.8859 18.72 18.6954 18.7883 18.5006 18.7793Z" fill="#1F1F1F"/>
</svg>
