<svg width="24" height="24" viewBox="0 0 24 24" fill="none" xmlns="http://www.w3.org/2000/svg">
<path d="M21.25 7.50616V14.1133C21.25 14.6339 21.1475 15.1494 20.9482 15.6304C20.749 16.1113 20.457 16.5484 20.0889 16.9165C19.7208 17.2846 19.2837 17.5766 18.8028 17.7758C18.3218 17.975 17.8063 18.0776 17.2857 18.0776H14.6429L12.4625 20.2579C12.4032 20.3211 12.3315 20.3715 12.252 20.406C12.1724 20.4404 12.0867 20.4582 12 20.4582C11.9133 20.4582 11.8276 20.4404 11.748 20.406C11.6685 20.3715 11.5968 20.3211 11.5375 20.2579L9.35714 18.0776H6.71429C5.66289 18.0776 4.65456 17.6599 3.91111 16.9165C3.16766 16.173 2.75 15.1647 2.75 14.1133V7.50616C2.75 6.45476 3.16766 5.44643 3.91111 4.70298C4.65456 3.95953 5.66289 3.54187 6.71429 3.54187H17.2857C18.3371 3.54187 19.3454 3.95953 20.0889 4.70298C20.8323 5.44643 21.25 6.45476 21.25 7.50616Z" stroke="#1F1F1F" stroke-width="1.5" stroke-linecap="round" stroke-linejoin="round"/>
<path d="M12.0001 11.3383C12.365 11.3383 12.6608 11.0425 12.6608 10.6776C12.6608 10.3127 12.365 10.0168 12.0001 10.0168C11.6352 10.0168 11.3394 10.3127 11.3394 10.6776C11.3394 11.0425 11.6352 11.3383 12.0001 11.3383Z" stroke="#1F1F1F" stroke-width="1.5" stroke-linecap="round" stroke-linejoin="round"/>
<path d="M16.6251 11.3383C16.99 11.3383 17.2858 11.0425 17.2858 10.6776C17.2858 10.3127 16.99 10.0168 16.6251 10.0168C16.2602 10.0168 15.9644 10.3127 15.9644 10.6776C15.9644 11.0425 16.2602 11.3383 16.6251 11.3383Z" stroke="#1F1F1F" stroke-width="1.5" stroke-linecap="round" stroke-linejoin="round"/>
<path d="M7.37507 11.3383C7.73998 11.3383 8.03579 11.0425 8.03579 10.6776C8.03579 10.3127 7.73998 10.0168 7.37507 10.0168C7.01017 10.0168 6.71436 10.3127 6.71436 10.6776C6.71436 11.0425 7.01017 11.3383 7.37507 11.3383Z" stroke="#1F1F1F" stroke-width="1.5" stroke-linecap="round" stroke-linejoin="round"/>
</svg>
