<svg width="24" height="24" viewBox="0 0 24 24" fill="none" xmlns="http://www.w3.org/2000/svg">
<path d="M17.3957 12H6.604" stroke="#1F1F1F" stroke-width="1.5" stroke-miterlimit="10" stroke-linecap="round"/>
<path d="M12.6782 17.1389L17.1388 12.7297C17.2351 12.6341 17.3115 12.5204 17.3638 12.3953C17.416 12.27 17.4428 12.1356 17.4428 12C17.4428 11.8643 17.416 11.73 17.3638 11.6047C17.3115 11.4795 17.2351 11.3658 17.1388 11.2703L12.6782 6.86108" stroke="#1F1F1F" stroke-width="1.5" stroke-linecap="round" stroke-linejoin="round"/>
<path d="M15.25 2.75H8.75C5.43629 2.75 2.75 5.43629 2.75 8.75V15.25C2.75 18.5637 5.43629 21.25 8.75 21.25H15.25C18.5637 21.25 21.25 18.5637 21.25 15.25V8.75C21.25 5.43629 18.5637 2.75 15.25 2.75Z" stroke="#1F1F1F" stroke-width="1.5"/>
</svg>
