<svg width="24" height="24" viewBox="0 0 24 24" fill="none" xmlns="http://www.w3.org/2000/svg">
<path d="M21.7732 14.7676C21.7442 15.1822 21.5871 15.5774 21.3237 15.8984C21.0655 16.2091 20.7158 16.4298 20.3246 16.5288L17.1674 17.0492L17.0775 17.1392C17.0363 17.1816 17.0055 17.233 16.9876 17.2893L16.488 20.1913C16.3909 20.5965 16.165 20.959 15.8442 21.2244C15.5234 21.4897 15.1252 21.6434 14.7096 21.6623H14.6197C14.246 21.6624 13.8807 21.5509 13.5706 21.3421C13.2333 21.1211 12.9745 20.7988 12.8313 20.4214L10.0438 12.5161C9.91984 12.1744 9.8963 11.8043 9.97599 11.4495C10.0557 11.0948 10.2352 10.7704 10.4934 10.5148C10.7468 10.2523 11.0747 10.0741 11.4326 10.0044C11.7881 9.92279 12.1597 9.94714 12.5016 10.0745L20.4944 12.8564C20.8975 12.9905 21.2475 13.2499 21.4935 13.5969C21.7089 13.9473 21.8069 14.3575 21.7732 14.7676Z" fill="#1F1F1F"/>
<path d="M9.30457 22.2427C9.23163 22.2524 9.15771 22.2524 9.08477 22.2427C7.3667 21.7025 5.81675 20.7277 4.58466 19.4124C3.35257 18.0972 2.47996 16.4859 2.05117 14.7342C1.62239 12.9825 1.6519 11.1497 2.13685 9.41276C2.6218 7.67585 3.5458 6.09356 4.81959 4.81874C6.09338 3.54393 7.67389 2.61969 9.40845 2.13531C11.143 1.65092 12.973 1.62276 14.7216 2.05356C16.4702 2.48435 18.0783 3.35954 19.3906 4.59456C20.7029 5.82959 21.675 7.38269 22.213 9.10387C22.2438 9.19778 22.2556 9.29694 22.2476 9.39548C22.2395 9.49402 22.2119 9.58995 22.1663 9.67762C22.1206 9.76529 22.058 9.84291 21.9819 9.90592C21.9058 9.96893 21.8179 10.0161 21.7234 10.0445C21.5339 10.1014 21.3298 10.082 21.1544 9.99042C20.979 9.89885 20.8462 9.74233 20.7842 9.55418C20.3293 8.06981 19.499 6.72845 18.3738 5.66031C17.2486 4.59218 15.8668 3.83356 14.3625 3.45809C12.8582 3.08262 11.2826 3.10306 9.78854 3.51743C8.29448 3.93179 6.93275 4.72599 5.83555 5.82296C4.73836 6.91992 3.94299 8.28236 3.52662 9.77803C3.11025 11.2737 3.08703 12.8518 3.45924 14.3591C3.83145 15.8664 4.58645 17.2517 5.6509 18.3806C6.71536 19.5094 8.05311 20.3434 9.53435 20.8017C9.63348 20.8332 9.72524 20.8844 9.80403 20.9524C9.88283 21.0204 9.94704 21.1036 9.9928 21.1972C10.0386 21.2907 10.0649 21.3926 10.0702 21.4966C10.0756 21.6006 10.0598 21.7046 10.0239 21.8024C9.96196 21.9396 9.86021 22.0549 9.73192 22.1335C9.60363 22.212 9.45474 22.25 9.30457 22.2427Z" fill="#1F1F1F"/>
</svg>
