<svg width="24" height="24" viewBox="0 0 24 24" fill="none" xmlns="http://www.w3.org/2000/svg">
<path d="M12 21.5C17.2467 21.5 21.5 17.2467 21.5 12C21.5 6.75329 17.2467 2.5 12 2.5C6.75329 2.5 2.5 6.75329 2.5 12C2.5 17.2467 6.75329 21.5 12 21.5Z" stroke="#1F1F1F" stroke-width="1.5" stroke-linecap="round" stroke-linejoin="round"/>
<path d="M16.7625 10.9417V13.0584C16.7625 13.1987 16.7067 13.3333 16.6075 13.4325C16.5082 13.5318 16.3736 13.5875 16.2333 13.5875H13.5874V16.2334C13.5874 16.3738 13.5317 16.5084 13.4324 16.6076C13.3332 16.7068 13.1986 16.7626 13.0582 16.7626H10.9415C10.8012 16.7626 10.6666 16.7068 10.5674 16.6076C10.4681 16.5084 10.4124 16.3738 10.4124 16.2334V13.5875H7.76648C7.62613 13.5875 7.49153 13.5318 7.39229 13.4325C7.29305 13.3333 7.2373 13.1987 7.2373 13.0584V10.9417C7.2373 10.8013 7.29305 10.6667 7.39229 10.5675C7.49153 10.4682 7.62613 10.4125 7.76648 10.4125H10.4124V7.7666C10.4124 7.62626 10.4681 7.49166 10.5674 7.39242C10.6666 7.29318 10.8012 7.23743 10.9415 7.23743H13.0582C13.1986 7.23743 13.3332 7.29318 13.4324 7.39242C13.5317 7.49166 13.5874 7.62626 13.5874 7.7666V10.4125H16.2333C16.3736 10.4125 16.5082 10.4682 16.6075 10.5675C16.7067 10.6667 16.7625 10.8013 16.7625 10.9417Z" stroke="#1F1F1F" stroke-width="1.5" stroke-linecap="round" stroke-linejoin="round"/>
</svg>
