<svg width="24" height="24" viewBox="0 0 24 24" fill="none" xmlns="http://www.w3.org/2000/svg">
<path d="M22 10.37V15.25C21.9974 17.0394 21.2853 18.7548 20.0201 20.0201C18.7548 21.2854 17.0394 21.9974 15.25 22H8.75C6.9606 21.9974 5.24525 21.2854 3.97995 20.0201C2.71465 18.7548 2.00265 17.0394 2 15.25V8.75C2.00265 6.9606 2.71465 5.24524 3.97995 3.97995C5.24525 2.71465 6.9606 2.00264 8.75 2H13.62C13.8189 2 14.0097 2.07901 14.1503 2.21966C14.291 2.36031 14.37 2.55108 14.37 2.75C14.37 2.94891 14.291 3.13966 14.1503 3.28031C14.0097 3.42097 13.8189 3.5 13.62 3.5H8.75C7.35761 3.5 6.02226 4.05312 5.03769 5.03768C4.05312 6.02225 3.5 7.35761 3.5 8.75V11.25H6C6.36023 11.2482 6.71723 11.318 7.05026 11.4554C7.38329 11.5927 7.68572 11.7948 7.94 12.05C8.45235 12.5706 8.74272 13.2696 8.75 14C8.75 14.3315 8.8817 14.6495 9.11612 14.8839C9.35054 15.1183 9.66848 15.25 10 15.25H14C14.164 15.2507 14.3265 15.2182 14.4777 15.1546C14.6289 15.0911 14.7657 14.9977 14.88 14.88C15.114 14.6465 15.2469 14.3305 15.25 14C15.2473 13.6381 15.3167 13.2793 15.4539 12.9445C15.5912 12.6096 15.7936 12.3054 16.0495 12.0495C16.3054 11.7936 16.6096 11.5912 16.9445 11.4539C17.2793 11.3167 17.6381 11.2473 18 11.25H20.5V10.37C20.5 10.1711 20.579 9.98031 20.7197 9.83966C20.8603 9.699 21.0511 9.61999 21.25 9.61999C21.4489 9.61999 21.6397 9.699 21.7803 9.83966C21.921 9.98031 22 10.1711 22 10.37Z" fill="#1F1F1F"/>
<path d="M22 5.25C22 5.44891 21.921 5.63966 21.7803 5.78031C21.6397 5.92097 21.4489 6 21.25 6H19.49V7.75C19.49 7.94891 19.411 8.13966 19.2703 8.28031C19.1297 8.42097 18.9389 8.5 18.74 8.5C18.5411 8.5 18.3503 8.42097 18.2097 8.28031C18.069 8.13966 17.99 7.94891 17.99 7.75V6H16.25C16.0511 6 15.8603 5.92097 15.7197 5.78031C15.579 5.63966 15.5 5.44891 15.5 5.25C15.5 5.05108 15.579 4.86031 15.7197 4.71966C15.8603 4.57901 16.0511 4.5 16.25 4.5H17.99V2.75C17.99 2.55108 18.069 2.36031 18.2097 2.21966C18.3503 2.07901 18.5411 2 18.74 2C18.9389 2 19.1297 2.07901 19.2703 2.21966C19.411 2.36031 19.49 2.55108 19.49 2.75V4.5H21.25C21.4481 4.50259 21.6374 4.58244 21.7775 4.72253C21.9176 4.86262 21.9974 5.05189 22 5.25Z" fill="#1F1F1F"/>
</svg>
