<svg width="24" height="24" viewBox="0 0 24 24" fill="none" xmlns="http://www.w3.org/2000/svg">
<path d="M20.1648 6.04146C20.1706 6.00838 20.1706 5.97454 20.1648 5.94146C20.1686 5.91158 20.1686 5.88134 20.1648 5.85146C20.1341 5.78881 20.0936 5.73141 20.0448 5.68145L16.9048 2.55147C16.7287 2.37339 16.5176 2.23377 16.2848 2.14147C16.0572 2.03388 15.8061 1.9857 15.5548 2.00145H8.43483C8.18456 1.99853 7.93629 2.04616 7.70485 2.14147C7.47205 2.23377 7.26093 2.37339 7.08486 2.55147L3.95485 5.68145C3.88706 5.7508 3.83277 5.83222 3.79482 5.92147C3.75487 6.00939 3.73447 6.1049 3.73488 6.20147V18.3515C3.73357 18.8303 3.82671 19.3047 4.00905 19.7475C4.19139 20.1903 4.45925 20.5927 4.79738 20.9318C5.13552 21.2708 5.53723 21.5399 5.97951 21.7234C6.42179 21.907 6.89604 22.0015 7.3749 22.0015H16.6249C17.5912 21.9988 18.517 21.6131 19.1994 20.9289C19.8817 20.2447 20.2649 19.3178 20.2649 18.3515V6.19146C20.2376 6.13771 20.2039 6.08737 20.1648 6.04146ZM16.2748 10.1214L15.9148 10.8215C15.5912 11.4681 15.0947 12.0123 14.4804 12.3936C13.866 12.7749 13.1579 12.9784 12.4348 12.9815H11.4348C10.7271 12.9695 10.0358 12.7656 9.43483 12.3915C8.81829 12.0107 8.3225 11.4628 8.0049 10.8115L7.64479 10.1214C7.58039 10.0042 7.54027 9.87514 7.52663 9.74202C7.51299 9.60891 7.52616 9.47443 7.56545 9.34652C7.60474 9.2186 7.66926 9.09987 7.75527 8.99736C7.84128 8.89486 7.94704 8.81066 8.06618 8.74975C8.18532 8.68883 8.31553 8.65244 8.44899 8.64275C8.58245 8.63306 8.71646 8.65023 8.84316 8.69329C8.96985 8.73634 9.08662 8.80442 9.18654 8.89342C9.28646 8.98243 9.36746 9.09055 9.42482 9.21145L9.78481 9.92147C9.94222 10.2382 10.1846 10.5051 10.4848 10.6922C10.7849 10.8794 11.1312 10.9795 11.4849 10.9815H12.4849C12.8386 10.9795 13.1849 10.8794 13.485 10.6922C13.7852 10.5051 14.0274 10.2382 14.1848 9.92147L14.5448 9.21145C14.6022 9.09055 14.6833 8.98243 14.7832 8.89342C14.8832 8.80442 14.9999 8.73634 15.1266 8.69329C15.2533 8.65023 15.3873 8.63306 15.5208 8.64275C15.6542 8.65244 15.7843 8.68883 15.9035 8.74975C16.0226 8.81066 16.1284 8.89486 16.2144 8.99736C16.3004 9.09987 16.3649 9.2186 16.4042 9.34652C16.4435 9.47443 16.4568 9.60891 16.4431 9.74202C16.4295 9.87514 16.3893 10.0042 16.3249 10.1214H16.2748ZM6.21486 5.44146L8.06484 3.59145C8.10278 3.55688 8.14688 3.52976 8.19484 3.51146C8.24797 3.50488 8.30175 3.50488 8.35488 3.51146H15.4849C15.4849 3.51146 15.5849 3.51146 15.6349 3.51146C15.6829 3.52976 15.727 3.55688 15.7649 3.59145L17.6249 5.44146H6.21486Z" fill="#1F1F1F"/>
</svg>
