<svg width="24" height="24" viewBox="0 0 24 24" fill="none" xmlns="http://www.w3.org/2000/svg">
<path d="M21.75 4.69V8.56999C21.7515 8.88944 21.6896 9.206 21.5677 9.50128C21.4459 9.79656 21.2665 10.0647 21.04 10.29C20.5812 10.7418 19.964 10.9966 19.3201 11H4.68007C4.36059 11.0013 4.04397 10.9394 3.74856 10.8177C3.45314 10.6961 3.18479 10.5171 2.95888 10.2912C2.73297 10.0653 2.55404 9.7969 2.43239 9.50148C2.31074 9.20606 2.2487 8.88947 2.25002 8.56999V4.69C2.25001 4.0446 2.50577 3.42549 2.9612 2.96819C3.41663 2.51088 4.03468 2.25265 4.68007 2.25H19.3201C19.9661 2.25283 20.5846 2.51176 21.04 2.97C21.2665 3.19533 21.4459 3.46343 21.5677 3.75871C21.6896 4.05399 21.7515 4.37056 21.75 4.69Z" fill="#1F1F1F"/>
<path d="M11 15.43V19.32C11.0013 19.6395 10.9394 19.9561 10.8177 20.2515C10.6961 20.5469 10.5172 20.8153 10.2913 21.0412C10.0653 21.2671 9.79703 21.4461 9.50161 21.5677C9.20619 21.6894 8.88957 21.7513 8.57009 21.75H4.68007C4.36059 21.7513 4.04397 21.6894 3.74856 21.5677C3.45314 21.4461 3.18479 21.2671 2.95888 21.0412C2.73297 20.8153 2.55404 20.5469 2.43239 20.2515C2.31074 19.9561 2.2487 19.6395 2.25002 19.32V15.44C2.25001 14.7946 2.50577 14.1755 2.9612 13.7182C3.41663 13.2609 4.03468 13.0026 4.68007 13H8.57009C8.88847 13.0016 9.20341 13.0661 9.49685 13.1896C9.79028 13.3132 10.0564 13.4934 10.28 13.72C10.734 14.1742 10.9924 14.7879 11 15.43Z" fill="#1F1F1F"/>
<path d="M21.75 15.44V19.32C21.7516 19.6394 21.6896 19.956 21.5677 20.2513C21.4459 20.5466 21.2665 20.8147 21.04 21.04C20.5812 21.4918 19.964 21.7466 19.3201 21.75H15.4301C14.7857 21.7487 14.1677 21.4936 13.7101 21.04C13.4836 20.8147 13.3043 20.5466 13.1824 20.2513C13.0605 19.956 12.9984 19.6394 13 19.32V15.44C13.0052 14.7962 13.2626 14.1801 13.7169 13.7239C14.1712 13.2677 14.7863 13.0078 15.4301 13H19.3201C19.9661 13.0028 20.5846 13.2618 21.04 13.72C21.2665 13.9453 21.4459 14.2134 21.5677 14.5087C21.6896 14.804 21.7516 15.1206 21.75 15.44Z" fill="#1F1F1F"/>
</svg>
