<svg width="24" height="24" viewBox="0 0 24 24" fill="none" xmlns="http://www.w3.org/2000/svg">
<path d="M9.74302 7.41968C8.71707 7.92869 7.89332 8.76957 7.40552 9.80576C6.91772 10.842 6.79452 12.0126 7.05592 13.1277C7.31733 14.2427 7.94799 15.2367 8.8455 15.9481C9.74301 16.6595 10.8546 17.0467 11.9999 17.0467C13.1452 17.0467 14.2568 16.6595 15.1543 15.9481C16.0518 15.2367 16.6825 14.2427 16.9439 13.1277C17.2053 12.0126 17.0821 10.842 16.5943 9.80576C16.1065 8.76957 15.2827 7.92869 14.2568 7.41968" stroke="#1F1F1F" stroke-width="1.5" stroke-linecap="round" stroke-linejoin="round"/>
<path d="M12 6.36176V10.8756" stroke="#1F1F1F" stroke-width="1.5" stroke-linecap="round" stroke-linejoin="round"/>
<path d="M12 21.5C17.2467 21.5 21.5 17.2467 21.5 12C21.5 6.75329 17.2467 2.5 12 2.5C6.75329 2.5 2.5 6.75329 2.5 12C2.5 17.2467 6.75329 21.5 12 21.5Z" stroke="#1F1F1F" stroke-width="1.5" stroke-linecap="round" stroke-linejoin="round"/>
</svg>
