<svg width="24" height="24" viewBox="0 0 24 24" fill="none" xmlns="http://www.w3.org/2000/svg">
<path d="M11.7373 6.70975L11.1686 8.40303C10.9574 9.0472 10.5978 9.63262 10.1188 10.112C9.63987 10.5914 9.05498 10.9513 8.4114 11.1627L6.69805 11.732C6.64044 11.7509 6.59027 11.7876 6.55471 11.8368C6.51915 11.8859 6.5 11.9451 6.5 12.0058C6.5 12.0665 6.51915 12.1256 6.55471 12.1748C6.59027 12.2239 6.64044 12.2606 6.69805 12.2796L8.4114 12.8488C9.04866 13.0609 9.62772 13.4188 10.1026 13.8942C10.5775 14.3695 10.9351 14.949 11.147 15.5869L11.7157 17.3018C11.7347 17.3594 11.7713 17.4097 11.8204 17.4452C11.8696 17.4808 11.9287 17.5 11.9893 17.5C12.0499 17.5 12.109 17.4808 12.1582 17.4452C12.2073 17.4097 12.2439 17.3594 12.2629 17.3018L12.8532 15.6085C13.0651 14.9707 13.4227 14.3911 13.8976 13.9158C14.3725 13.4405 14.9515 13.0825 15.5888 12.8704L17.3021 12.3012C17.3597 12.2822 17.4099 12.2456 17.4455 12.1964C17.481 12.1472 17.5002 12.0881 17.5002 12.0274C17.5002 11.9667 17.481 11.9075 17.4455 11.8584C17.4099 11.8092 17.3597 11.7725 17.3021 11.7536L15.6104 11.1627C14.9668 10.9513 14.3819 10.5914 13.9029 10.112C13.424 9.63262 13.0644 9.0472 12.8532 8.40303L12.2845 6.68813C12.2634 6.6311 12.2248 6.58221 12.1742 6.54846C12.1237 6.51471 12.0638 6.49783 12.0031 6.50022C11.9423 6.50262 11.8839 6.52418 11.8362 6.56182C11.7885 6.59945 11.7539 6.65123 11.7373 6.70975Z" stroke="#1F1F1F" stroke-width="1.5" stroke-linecap="round" stroke-linejoin="round"/>
<path d="M21.5 12C21.5 6.75329 17.2467 2.5 12 2.5C6.75329 2.5 2.5 6.75329 2.5 12C2.5 17.2467 6.75329 21.5 12 21.5C17.2467 21.5 21.5 17.2467 21.5 12Z" stroke="#1F1F1F" stroke-width="1.5"/>
</svg>
