<svg width="24" height="24" viewBox="0 0 24 24" fill="none" xmlns="http://www.w3.org/2000/svg">
<path d="M17.9853 19.7026C19.7884 19.7026 21.25 18.2409 21.25 16.4379C21.25 14.6349 19.7884 13.1732 17.9853 13.1732C16.1823 13.1732 14.7207 14.6349 14.7207 16.4379C14.7207 18.2409 16.1823 19.7026 17.9853 19.7026Z" stroke="#1F1F1F" stroke-width="1.5" stroke-linecap="round"/>
<path d="M6.01468 20.7908C7.81771 20.7908 9.27935 19.3292 9.27935 17.5262C9.27935 15.7231 7.81771 14.2615 6.01468 14.2615C4.21165 14.2615 2.75 15.7231 2.75 17.5262C2.75 19.3292 4.21165 20.7908 6.01468 20.7908Z" stroke="#1F1F1F" stroke-width="1.5" stroke-linecap="round"/>
<path d="M21.25 16.4379V8.42859" stroke="#1F1F1F" stroke-width="1.5" stroke-linecap="round"/>
<path d="M9.2793 17.5262V10.605" stroke="#1F1F1F" stroke-width="1.5" stroke-linecap="round"/>
<path d="M21.2501 8.42862L9.27959 10.6051V7.0357C9.27119 6.52034 9.44595 6.01872 9.77278 5.62016C10.0996 5.22159 10.5573 4.95195 11.0643 4.85925L19.966 3.22691C20.1244 3.1979 20.2872 3.20441 20.4428 3.24595C20.5983 3.28749 20.7427 3.36303 20.8656 3.46713C20.9884 3.57123 21.0866 3.70129 21.1531 3.84793C21.2196 3.99457 21.2527 4.15414 21.2501 4.31513V8.42862Z" stroke="#1F1F1F" stroke-width="1.5" stroke-linecap="round" stroke-linejoin="round"/>
</svg>
