<svg width="24" height="24" viewBox="0 0 24 24" fill="none" xmlns="http://www.w3.org/2000/svg">
<path d="M17 4.625H7C4.79086 4.625 3 6.41586 3 8.625V17.375C3 19.5841 4.79086 21.375 7 21.375H17C19.2091 21.375 21 19.5841 21 17.375V8.625C21 6.41586 19.2091 4.625 17 4.625Z" stroke="#1F1F1F" stroke-width="1.5" stroke-linecap="round" stroke-linejoin="round"/>
<path d="M3 9.625H21" stroke="#1F1F1F" stroke-width="1.5" stroke-linecap="round" stroke-linejoin="round"/>
<path d="M17 2.625V6.625" stroke="#1F1F1F" stroke-width="1.5" stroke-linecap="round" stroke-linejoin="round"/>
<path d="M7 2.625V6.625" stroke="#1F1F1F" stroke-width="1.5" stroke-linecap="round" stroke-linejoin="round"/>
<path d="M10.4956 12.9324C10.6439 12.609 10.8957 12.3444 11.2113 12.1803C11.5269 12.0162 11.8881 11.962 12.238 12.0264C12.4776 12.0631 12.7053 12.1556 12.9027 12.2963C13.1001 12.437 13.2618 12.622 13.3748 12.8365C13.4561 13.0081 13.5003 13.195 13.5042 13.3848C13.5083 13.5746 13.472 13.7632 13.3979 13.938C13.3239 14.1128 13.2137 14.27 13.0746 14.3993C12.9355 14.5285 12.7706 14.6268 12.5908 14.6877C12.4073 14.7573 12.2487 14.8797 12.1347 15.0394C12.0207 15.1991 11.9566 15.389 11.9505 15.585V15.9553" stroke="#1F1F1F" stroke-width="1.5" stroke-miterlimit="10" stroke-linecap="round"/>
<path d="M11.9219 18H11.9263" stroke="#1F1F1F" stroke-width="1.5" stroke-linecap="round" stroke-linejoin="round"/>
</svg>
