<svg width="24" height="24" viewBox="0 0 24 24" fill="none" xmlns="http://www.w3.org/2000/svg">
<path d="M13.8222 7.58594L10.1439 11.2643C10.041 11.3668 9.95939 11.4886 9.90371 11.6228C9.84801 11.7569 9.81934 11.9007 9.81934 12.0459C9.81934 12.1912 9.84801 12.335 9.90371 12.4691C9.95939 12.6033 10.041 12.725 10.1439 12.8276L13.8222 16.4139" stroke="#1F1F1F" stroke-width="1.5" stroke-linecap="round" stroke-linejoin="round"/>
<path d="M15.25 2.75H8.75C5.43629 2.75 2.75 5.43629 2.75 8.75V15.25C2.75 18.5637 5.43629 21.25 8.75 21.25H15.25C18.5637 21.25 21.25 18.5637 21.25 15.25V8.75C21.25 5.43629 18.5637 2.75 15.25 2.75Z" stroke="#1F1F1F" stroke-width="1.5"/>
</svg>
