<svg width="24" height="24" viewBox="0 0 24 24" fill="none" xmlns="http://www.w3.org/2000/svg">
<path d="M3.88477 21.06C3.68667 21.0574 3.4974 20.9776 3.35731 20.8375C3.21721 20.6974 3.13736 20.5081 3.13477 20.31V3.69C3.13477 3.49109 3.21379 3.30032 3.35444 3.15967C3.49509 3.01902 3.68586 2.94 3.88477 2.94C4.08369 2.94 4.27446 3.01902 4.41511 3.15967C4.55576 3.30032 4.63477 3.49109 4.63477 3.69V20.29C4.63745 20.3902 4.62003 20.4898 4.58353 20.5832C4.54704 20.6765 4.49219 20.7615 4.42228 20.8333C4.35237 20.9051 4.26878 20.9621 4.17646 21.0011C4.08414 21.04 3.98497 21.06 3.88477 21.06Z" fill="#1F1F1F"/>
<path d="M20.8652 5.34682V18.5968C20.8558 18.9945 20.7458 19.3833 20.5452 19.7268C20.3496 20.0535 20.0727 20.3238 19.7414 20.5113C19.4101 20.6989 19.0358 20.7972 18.6552 20.7968H18.5552C18.1585 20.7847 17.7735 20.6598 17.4452 20.4368L8.31514 14.3168C8.02237 14.1224 7.77922 13.8621 7.60515 13.5568C7.43996 13.2485 7.34757 12.9064 7.33513 12.5568C7.3218 12.2124 7.39035 11.8696 7.53514 11.5568C7.68186 11.2403 7.90111 10.9628 8.17513 10.7468L17.3152 3.65682C17.6437 3.40813 18.035 3.25578 18.4452 3.21682C18.8538 3.17047 19.2671 3.2434 19.6352 3.42681C20.005 3.60731 20.3168 3.88794 20.5352 4.23681C20.7393 4.57206 20.853 4.95452 20.8652 5.34682Z" fill="#1F1F1F"/>
</svg>
