<svg width="24" height="24" viewBox="0 0 24 24" fill="none" xmlns="http://www.w3.org/2000/svg">
<path d="M21.0034 15.5784C20.7814 15.0201 20.489 14.4925 20.1334 14.0084C19.6797 13.4689 19.3731 12.8212 19.2434 12.1284C19.2434 9.23834 19.2434 8.25837 17.6634 6.36837C17.1398 5.75092 16.4925 5.25015 15.7634 4.89836L15.0334 4.54836C14.993 4.5229 14.9588 4.48873 14.9334 4.44835C14.9088 4.41964 14.8916 4.38528 14.8834 4.34835C14.7773 3.66202 14.4172 3.04059 13.8746 2.6072C13.3319 2.1738 12.6462 1.96008 11.9534 2.00835C11.283 1.98134 10.6255 2.19859 10.1032 2.61977C9.5808 3.04095 9.22911 3.63743 9.11338 4.29836C9.10241 4.35024 9.0783 4.39843 9.04338 4.43834C9.01838 4.47015 8.9879 4.49726 8.95338 4.51836L8.17338 4.89836C7.43711 5.24765 6.78543 5.75259 6.26338 6.37834C4.69338 8.25834 4.69337 9.23834 4.69337 12.1284C4.57695 12.7791 4.2945 13.3888 3.87336 13.8984C3.50535 14.3943 3.20909 14.9397 2.99336 15.5184C2.85891 15.9081 2.81251 16.3227 2.85746 16.7325C2.90242 17.1423 3.03763 17.5371 3.25337 17.8884C3.48153 18.1791 3.77807 18.4088 4.11656 18.5571C4.45505 18.7054 4.82498 18.7677 5.19337 18.7384H8.01338C8.05608 19.0061 8.12992 19.2678 8.23338 19.5184C8.43111 20.0151 8.73091 20.4648 9.11338 20.8383C9.48287 21.2186 9.92956 21.5153 10.4234 21.7084C10.8839 21.8964 11.376 21.9948 11.8734 21.9984H12.0334C12.5376 21.9979 13.0368 21.8994 13.5034 21.7084C14.0002 21.5155 14.4502 21.2189 14.8234 20.8383C15.1972 20.4635 15.4929 20.0183 15.6934 19.5283C15.7943 19.2727 15.8713 19.0082 15.9234 18.7384H18.8634C19.2095 18.7356 19.5509 18.6571 19.8634 18.5084C20.2146 18.331 20.5168 18.07 20.7434 17.7483C20.9694 17.4261 21.1073 17.0503 21.1434 16.6584C21.188 16.2923 21.1398 15.9209 21.0034 15.5784ZM9.65336 8.89836H13.8934C14.0794 8.89473 14.2616 8.95078 14.4134 9.05834C14.5644 9.15445 14.6829 9.29388 14.7534 9.45836C14.8262 9.62842 14.8505 9.81533 14.8234 9.99834C14.7847 10.1759 14.7022 10.3409 14.5834 10.4784L11.4634 13.5984H14.3534C14.5523 13.5984 14.7431 13.6774 14.8837 13.818C15.0244 13.9587 15.1034 14.1494 15.1034 14.3484C15.1034 14.5473 15.0244 14.738 14.8837 14.8787C14.7431 15.0193 14.5523 15.0984 14.3534 15.0984H10.1134C9.9274 15.102 9.74514 15.0459 9.59336 14.9384C9.44021 14.8448 9.32106 14.7046 9.25337 14.5384C9.1775 14.3727 9.1531 14.188 9.18336 14.0084C9.21967 13.827 9.30238 13.6582 9.42338 13.5184L12.5434 10.3984H9.65336C9.45445 10.3984 9.26368 10.3193 9.12303 10.1787C8.98238 10.038 8.90336 9.84728 8.90336 9.64836C8.90336 9.44945 8.98238 9.25868 9.12303 9.11803C9.26368 8.97738 9.45445 8.89836 9.65336 8.89836Z" fill="#1F1F1F"/>
</svg>
