<svg width="24" height="24" viewBox="0 0 24 24" fill="none" xmlns="http://www.w3.org/2000/svg">
<path d="M10.8836 17.6077L6.28094 20.8108C5.88291 21.0346 5.42427 21.1268 4.97065 21.0743C4.51703 21.0217 4.09167 20.827 3.75544 20.518C3.41921 20.209 3.18934 19.8015 3.09871 19.3539C3.00809 18.9063 3.06136 18.4415 3.2509 18.026L9.94585 4.0013C10.1198 3.62748 10.3968 3.31112 10.7445 3.08944C11.0922 2.86777 11.4959 2.75 11.9081 2.75C12.3205 2.75 12.7242 2.86777 13.0718 3.08944C13.4194 3.31112 13.6966 3.62748 13.8704 4.0013L20.7674 18.2281C20.9428 18.6345 20.9894 19.0851 20.9007 19.5189C20.8121 19.9528 20.5925 20.3489 20.2718 20.654C19.9509 20.9591 19.5442 21.1585 19.1065 21.2253C18.6688 21.292 18.2211 21.2229 17.8239 21.0272L13.0625 17.6077C12.7343 17.4075 12.3575 17.3017 11.9731 17.3017C11.5887 17.3017 11.2118 17.4075 10.8836 17.6077Z" stroke="#1F1F1F" stroke-width="1.5" stroke-linecap="round" stroke-linejoin="round"/>
<path d="M12.0522 10.5952V17.3191" stroke="#1F1F1F" stroke-width="1.5" stroke-linecap="round" stroke-linejoin="round"/>
</svg>
