<svg width="24" height="24" viewBox="0 0 24 24" fill="none" xmlns="http://www.w3.org/2000/svg">
<path d="M21.6656 7.81731C21.3268 6.72974 20.7684 5.72362 20.0252 4.86149C19.282 3.99936 18.3699 3.29964 17.3455 2.8058C16.3146 2.31527 15.194 2.04252 14.0534 2.00459C12.9128 1.96665 11.7766 2.16437 10.7155 2.58533C9.67159 2.99622 8.72471 3.62089 7.93545 4.41949C6.98496 5.33397 6.26397 6.46095 5.8312 7.70823C5.39843 8.95551 5.26619 10.2877 5.44546 11.596C5.44546 11.8566 5.44546 12.0871 5.44546 12.2976C5.44546 13.0994 5.44546 13.1395 4.57546 13.9113L4.40554 14.0717C4.19892 14.2611 4.03423 14.4919 3.92226 14.7492C3.81029 15.0064 3.75351 15.2844 3.75552 15.5651C3.75509 15.7339 3.77518 15.9022 3.81545 16.0662L2.59548 17.2891C2.29938 17.5502 2.09882 17.9029 2.02554 18.2914C1.95843 18.6916 2.03265 19.1027 2.2355 19.454C2.2711 19.5162 2.3187 19.5708 2.37551 19.6144L4.45547 21.619C4.57904 21.7419 4.72583 21.8389 4.88723 21.9043C5.04863 21.9697 5.22146 22.0022 5.39553 21.9999C5.93762 21.9781 6.45162 21.7527 6.83547 21.3684L7.94546 20.1757C8.3789 20.2856 8.83665 20.2468 9.24551 20.0654C9.50314 19.9594 9.73259 19.7947 9.91555 19.5843L10.2055 19.2736C10.8555 18.572 10.8655 18.552 11.6855 18.552H12.3555C14.5349 18.8525 16.7446 18.2798 18.5055 16.9583C18.5523 16.9375 18.596 16.9105 18.6356 16.8781C20.0144 15.8593 21.0436 14.4366 21.581 12.8064C22.1184 11.1761 22.1375 9.41881 21.6356 7.77724L21.6656 7.81731ZM5.80544 20.306C5.71625 20.3974 5.60659 20.4661 5.4855 20.5064L3.53555 18.6421C3.53047 18.6089 3.53047 18.5752 3.53555 18.5419C3.55126 18.466 3.59389 18.3983 3.65554 18.3515L4.65554 17.3492L6.65554 19.3538L5.80544 20.306ZM17.4256 10.6738C17.3391 10.8061 17.2225 10.9161 17.0855 10.9946L16.9655 11.0447L12.6756 14.6731C12.5582 14.7734 12.4098 14.83 12.2555 14.8334H12.1055C11.9507 14.7966 11.8105 14.7137 11.7034 14.5956C11.5964 14.4776 11.5274 14.3299 11.5055 14.1719C11.5063 14.0753 11.5267 13.9797 11.5655 13.8912L12.4056 11.626L10.6356 11.2151C10.5306 11.2052 10.4286 11.1745 10.3355 11.1249C10.2538 11.089 10.1818 11.034 10.1255 10.9645C10.0219 10.849 9.95262 10.7066 9.92556 10.5536C9.9207 10.5002 9.9207 10.4466 9.92556 10.3932C9.93343 10.2609 9.9674 10.1314 10.0256 10.0123C10.0768 9.87556 10.1673 9.75698 10.2856 9.67154L14.6855 5.94301C14.8004 5.85522 14.941 5.80769 15.0855 5.80769C15.23 5.80769 15.3706 5.85522 15.4855 5.94301C15.5773 5.99178 15.6583 6.05867 15.7236 6.13963C15.7889 6.22059 15.8372 6.31391 15.8655 6.41406C15.8804 6.52045 15.8804 6.62842 15.8655 6.7348C15.8693 6.76476 15.8693 6.79509 15.8655 6.82504L15.1055 9.03011L16.8755 9.44103C16.9796 9.45512 17.0809 9.48559 17.1756 9.53126C17.2651 9.56829 17.3416 9.63106 17.3956 9.71167C17.4919 9.82305 17.5574 9.95786 17.5855 10.1026C17.5904 10.1325 17.5904 10.1629 17.5855 10.1928C17.577 10.3648 17.5218 10.5311 17.4256 10.6738Z" fill="#1F1F1F"/>
</svg>
