<svg width="24" height="24" viewBox="0 0 24 24" fill="none" xmlns="http://www.w3.org/2000/svg">
<path d="M21.9879 18.0528C22.0002 18.3074 21.9618 18.5619 21.8751 18.8016C21.7872 19.0535 21.6474 19.2841 21.4648 19.4786C21.083 19.7925 20.6052 19.9662 20.1109 19.9709H17.3826C17.1757 19.9953 16.966 19.9761 16.767 19.9143C16.5681 19.8525 16.3843 19.7496 16.2277 19.6123C16.071 19.475 15.945 19.3063 15.8577 19.1172C15.7704 18.9281 15.7238 18.7227 15.7209 18.5144V17.4887C15.7341 17.3657 15.7128 17.2413 15.6594 17.1297C15.6204 17.0412 15.5647 16.9611 15.4953 16.8938C15.176 16.7364 14.8255 16.6523 14.4696 16.6476C13.7905 16.5322 13.1057 16.4534 12.4182 16.4117C11.2354 16.3304 10.0473 16.4412 8.89999 16.7399C8.79099 16.7512 8.68764 16.794 8.60255 16.863C8.52828 16.9201 8.46854 16.9939 8.42818 17.0784C8.3608 17.3916 8.33664 17.7126 8.35637 18.0323C8.39024 18.276 8.37277 18.5241 8.30508 18.7606C8.23405 19.0017 8.11932 19.2277 7.9666 19.4273C7.62854 19.7555 7.17614 19.9394 6.70499 19.9401H4.50999C4.16837 19.9599 3.8259 19.9599 3.48428 19.9401C3.26142 19.9255 3.04442 19.8625 2.84835 19.7555C2.66044 19.6501 2.49353 19.5111 2.35601 19.3452C2.09709 18.9283 1.97849 18.4395 2.01754 17.9503C2.01851 17.323 2.15142 16.703 2.40765 16.1304C2.66388 15.5579 3.0377 15.0457 3.5048 14.627C4.39422 13.8013 5.44069 13.1629 6.58191 12.75C6.85588 12.6393 7.13684 12.5467 7.42298 12.473C8.83464 12.0745 10.2949 11.8743 11.7617 11.8781C13.6062 11.8041 15.4486 12.0683 17.1979 12.6576C18.15 12.9968 19.0456 13.4774 19.8545 14.0834C20.7369 14.6874 21.419 15.541 21.8136 16.5348C21.9363 17.0313 21.9949 17.5415 21.9879 18.0528Z" fill="#1F1F1F"/>
<path d="M15.6077 10.1241C15.5066 10.1246 15.4065 10.1049 15.3131 10.0662C15.2198 10.0274 15.1351 9.97044 15.0641 9.89853C14.6594 9.49817 14.1826 9.17797 13.6588 8.95486C12.593 8.52372 11.4014 8.52372 10.3356 8.95486C9.8088 9.17793 9.32865 9.49805 8.92013 9.89853C8.84942 9.9711 8.76488 10.0288 8.67152 10.0682C8.57815 10.1075 8.47784 10.1278 8.37651 10.1278C8.27518 10.1278 8.17487 10.1075 8.08151 10.0682C7.98814 10.0288 7.90361 9.9711 7.83289 9.89853C7.68883 9.75429 7.60791 9.55873 7.60791 9.35487C7.60791 9.15101 7.68883 8.95549 7.83289 8.81125C8.38083 8.2682 9.02868 7.83632 9.7407 7.53939C10.8154 7.09443 11.9978 6.97776 13.1387 7.20411C14.2796 7.43047 15.3279 7.98971 16.1513 8.81125C16.2239 8.88197 16.2816 8.96652 16.321 9.05988C16.3603 9.15325 16.3806 9.25354 16.3806 9.35487C16.3806 9.45621 16.3603 9.55653 16.321 9.64989C16.2816 9.74326 16.2239 9.82781 16.1513 9.89853C16.0806 9.97091 15.996 10.0282 15.9026 10.067C15.8092 10.1058 15.7088 10.1252 15.6077 10.1241Z" fill="#1F1F1F"/>
<path d="M17.7721 7.9599C17.671 7.96038 17.5709 7.94065 17.4775 7.9019C17.3842 7.86315 17.2995 7.80616 17.2285 7.73424C16.543 7.04639 15.7269 6.50239 14.8283 6.13415C13.0153 5.38533 10.9795 5.38533 9.16647 6.13415C8.26472 6.50217 7.44532 7.04611 6.75608 7.73424C6.68536 7.80682 6.60083 7.86452 6.50746 7.9039C6.41409 7.94328 6.31379 7.96356 6.21246 7.96356C6.11112 7.96356 6.01082 7.94328 5.91745 7.9039C5.82408 7.86452 5.73955 7.80682 5.66883 7.73424C5.52477 7.59 5.44385 7.39448 5.44385 7.19062C5.44385 6.98676 5.52477 6.79124 5.66883 6.647C6.50142 5.81138 7.49124 5.14891 8.58118 4.69783C9.67113 4.24674 10.8396 4.01596 12.0192 4.01883C13.1988 4.02169 14.3662 4.25811 15.4539 4.71448C16.5416 5.17085 17.5282 5.83812 18.3568 6.67777C18.4293 6.74849 18.487 6.83304 18.5264 6.9264C18.5658 7.01977 18.5861 7.12006 18.5861 7.22139C18.5861 7.32272 18.5658 7.42305 18.5264 7.51641C18.487 7.60978 18.4293 7.6943 18.3568 7.76501C18.2787 7.83712 18.1862 7.8918 18.0854 7.9254C17.9846 7.95901 17.8778 7.97076 17.7721 7.9599Z" fill="#1F1F1F"/>
</svg>
