<svg width="24" height="24" viewBox="0 0 24 24" fill="none" xmlns="http://www.w3.org/2000/svg">
<path d="M19.836 10.4864C19.8127 10.66 19.7398 10.8232 19.626 10.9564L9.87598 21.6664C9.75235 21.8262 9.58054 21.9419 9.38599 21.9964C9.30294 22.0062 9.21903 22.0062 9.13599 21.9964C8.99449 21.9957 8.85477 21.9651 8.72601 21.9064C8.52553 21.8122 8.36574 21.6489 8.276 21.4464C8.18956 21.266 8.16495 21.0622 8.20599 20.8664L9.06598 14.0064H5.43597C5.22834 13.9944 5.02484 13.9435 4.836 13.8564C4.6518 13.7589 4.49394 13.6182 4.37598 13.4464C4.25926 13.2724 4.18403 13.074 4.15601 12.8664C4.1346 12.6555 4.16548 12.4425 4.24597 12.2464L8.026 2.7964C8.12516 2.5572 8.29196 2.35215 8.50598 2.2064C8.71963 2.06608 8.97043 1.99293 9.22601 1.99639H16.466C16.6749 2.00001 16.8801 2.05132 17.066 2.1464C17.2539 2.25142 17.4148 2.39861 17.5361 2.5764C17.6481 2.75462 17.7167 2.95674 17.7361 3.16639C17.7575 3.375 17.723 3.58556 17.636 3.77639L15.246 9.3464H18.896C19.0774 9.35247 19.2537 9.40778 19.406 9.5064C19.5666 9.61375 19.6927 9.7653 19.769 9.94276C19.8453 10.1202 19.8686 10.316 19.836 10.5064V10.4864Z" fill="#1F1F1F"/>
</svg>
