<svg width="24" height="24" viewBox="0 0 24 24" fill="none" xmlns="http://www.w3.org/2000/svg">
<path d="M21.9698 14.6065C21.9668 14.8283 21.8949 15.0436 21.7641 15.2228C21.6333 15.4019 21.4501 15.536 21.2398 15.6065L19.3598 16.2265C18.7675 16.4307 18.2327 16.7735 17.7998 17.2265C17.3494 17.6653 17.0071 18.2028 16.7998 18.7965L16.1498 20.6665C16.0758 20.8727 15.9438 21.0533 15.7698 21.1865C15.5853 21.3162 15.3654 21.386 15.1398 21.3865C14.9166 21.3909 14.6984 21.3205 14.5198 21.1865C14.3374 21.0552 14.2009 20.8697 14.1298 20.6565L13.4998 18.7765C13.3048 18.1855 12.9745 17.6481 12.5353 17.2072C12.0961 16.7662 11.5601 16.4338 10.9698 16.2365L9.08979 15.6165C8.87835 15.5419 8.69386 15.4062 8.55979 15.2265C8.45976 15.0903 8.39371 14.9322 8.36717 14.7654C8.34062 14.5986 8.35434 14.4278 8.40717 14.2674C8.46001 14.1069 8.55044 13.9613 8.67092 13.8429C8.7914 13.7245 8.93844 13.6366 9.09979 13.5865L10.9698 12.9664C11.5667 12.7721 12.1094 12.44 12.5542 11.997C12.9989 11.554 13.3331 11.0126 13.5298 10.4165L14.1498 8.55648C14.2104 8.34876 14.3367 8.16628 14.5098 8.03646C14.6817 7.8938 14.8965 7.81285 15.1198 7.80648C15.3474 7.79173 15.5732 7.85523 15.7598 7.98647C15.9516 8.10821 16.0962 8.29162 16.1698 8.50649L16.7998 10.4065C16.9942 11.0033 17.3263 11.5461 17.7693 11.9908C18.2123 12.4355 18.7537 12.7698 19.3498 12.9664L21.2198 13.6165C21.4303 13.6823 21.6131 13.8159 21.7398 13.9965C21.8763 14.1719 21.9565 14.3846 21.9698 14.6065Z" fill="#1F1F1F"/>
<path d="M12.0998 7.65644C12.0969 7.86145 12.0311 8.06065 11.9113 8.227C11.7914 8.39335 11.6233 8.51886 11.4298 8.5865L10.0898 9.0265C9.71205 9.16082 9.37 9.37969 9.0898 9.66645C8.80412 9.94753 8.58538 10.2893 8.44981 10.6665L7.9798 12.0065C7.9154 12.1933 7.79709 12.3568 7.63981 12.4764C7.46955 12.5958 7.26769 12.6619 7.05981 12.6665C6.85482 12.663 6.65583 12.5967 6.4898 12.4764C6.32185 12.3544 6.19603 12.1832 6.1298 11.9865L5.6898 10.6465C5.55547 10.2687 5.33656 9.92669 5.0498 9.64649C4.76787 9.36187 4.42634 9.14327 4.0498 9.00648L2.69981 8.55647C2.50407 8.49348 2.33508 8.36675 2.21981 8.19648C2.09516 8.03274 2.02833 7.83226 2.02981 7.62647C2.03115 7.41806 2.09758 7.21527 2.21981 7.04646C2.34476 6.88592 2.51569 6.76735 2.7098 6.70649L4.0498 6.25648C4.42694 6.1209 4.76872 5.90214 5.0498 5.61646C5.33943 5.33861 5.5588 4.99584 5.6898 4.61646L6.13981 3.29646C6.19974 3.10725 6.31461 2.94018 6.46981 2.81648C6.62956 2.69032 6.82628 2.62005 7.02981 2.61646C7.23602 2.59912 7.44166 2.65588 7.60981 2.7765C7.78192 2.89022 7.91464 3.05436 7.9898 3.24647L8.4398 4.61646C8.57444 4.99407 8.79332 5.33605 9.07981 5.61646C9.36089 5.90214 9.70267 6.1209 10.0798 6.25648L11.4298 6.72645C11.618 6.79675 11.7807 6.92215 11.8967 7.08625C12.0126 7.25036 12.0764 7.44559 12.0798 7.64649L12.0998 7.65644Z" fill="#1F1F1F"/>
</svg>
