<svg width="24" height="24" viewBox="0 0 24 24" fill="none" xmlns="http://www.w3.org/2000/svg">
<path d="M14.3251 5.12H5.54504C4.60352 5.12 3.70054 5.49401 3.03479 6.15977C2.36903 6.82552 1.99512 7.72848 1.99512 8.67V15.32C1.99511 16.2624 2.36871 17.1664 3.03418 17.8338C3.69965 18.5011 4.60261 18.8773 5.54504 18.88H14.3251C15.2685 18.8774 16.1725 18.5014 16.8395 17.8344C17.5066 17.1673 17.8824 16.2634 17.885 15.32V8.67999C17.885 7.73582 17.5101 6.83033 16.8424 6.1627C16.1748 5.49507 15.2693 5.12 14.3251 5.12ZM7.8551 14.06C7.8551 14.3252 7.74967 14.5796 7.56213 14.7671C7.3746 14.9546 7.12032 15.06 6.8551 15.06C6.58989 15.06 6.33548 14.9546 6.14795 14.7671C5.96041 14.5796 5.8551 14.3252 5.8551 14.06V9.95998C5.8551 9.69477 5.96041 9.44042 6.14795 9.25288C6.33548 9.06535 6.58989 8.95998 6.8551 8.95998C7.12032 8.95998 7.3746 9.06535 7.56213 9.25288C7.74967 9.44042 7.8551 9.69477 7.8551 9.95998V14.06Z" fill="#1F1F1F"/>
<path d="M20.2151 15.85H19.6851C19.4862 15.85 19.2955 15.771 19.1548 15.6303C19.0142 15.4897 18.9351 15.2989 18.9351 15.1C18.9351 14.9011 19.0142 14.7103 19.1548 14.5697C19.2955 14.429 19.4862 14.35 19.6851 14.35H20.2251C20.2966 14.3495 20.3648 14.3207 20.4151 14.27C20.4428 14.2444 20.465 14.2135 20.4805 14.1792C20.496 14.1448 20.5043 14.1077 20.505 14.07V9.95999C20.5062 9.92201 20.4988 9.88426 20.4832 9.8496C20.4676 9.81495 20.4443 9.7843 20.4151 9.75999C20.3648 9.70925 20.2966 9.68048 20.2251 9.67999H19.6851C19.4862 9.67999 19.2955 9.60098 19.1548 9.46033C19.0142 9.31967 18.9351 9.12891 18.9351 8.92999C18.9351 8.73108 19.0142 8.54032 19.1548 8.39967C19.2955 8.25901 19.4862 8.17999 19.6851 8.17999H20.2251C20.6972 8.17999 21.15 8.36753 21.4838 8.70135C21.8176 9.03516 22.005 9.48791 22.005 9.95999V14.12C22.005 14.5921 21.8176 15.0448 21.4838 15.3786C21.15 15.7125 20.6972 15.9 20.2251 15.9L20.2151 15.85Z" fill="#1F1F1F"/>
</svg>
