<svg width="24" height="24" viewBox="0 0 24 24" fill="none" xmlns="http://www.w3.org/2000/svg">
<path d="M14 21H8.75C7.1587 21 5.63258 20.3679 4.50736 19.2426C3.38214 18.1174 2.75 16.5913 2.75 15V8.5C2.75 6.9087 3.38214 5.38258 4.50736 4.25736C5.63258 3.13214 7.1587 2.5 8.75 2.5H15.25C16.8413 2.5 18.3674 3.13214 19.4926 4.25736C20.6179 5.38258 21.25 6.9087 21.25 8.5V13.75" stroke="#1F1F1F" stroke-width="1.5" stroke-linecap="round"/>
<path d="M7.5 14.7L9.705 11.766C9.84003 11.5853 10.038 11.4619 10.2597 11.4203C10.4813 11.3786 10.7106 11.4217 10.902 11.541L13.053 12.9C13.2518 13.0266 13.4923 13.0701 13.7228 13.0213C13.9534 12.9725 14.1556 12.8353 14.286 12.639L16.5 9.29999" stroke="#1F1F1F" stroke-width="1.5" stroke-linecap="round" stroke-linejoin="round"/>
<path d="M18.933 19.6798L20.0161 20.249C20.0619 20.2731 20.1134 20.2838 20.165 20.28C20.2166 20.2762 20.266 20.2581 20.3078 20.2275C20.3495 20.197 20.3818 20.1554 20.4011 20.1074C20.4204 20.0595 20.4258 20.0071 20.4167 19.9561L20.2095 18.7514C20.2018 18.707 20.2051 18.6614 20.219 18.6185C20.233 18.5757 20.2572 18.5369 20.2896 18.5055L21.1655 17.6517C21.2028 17.6159 21.2292 17.5703 21.2419 17.5201C21.2545 17.47 21.2528 17.4173 21.2369 17.3681C21.2211 17.3188 21.1918 17.2751 21.1523 17.2417C21.1128 17.2083 21.0647 17.1867 21.0136 17.1792L19.8033 17.0052C19.7591 16.9985 19.7171 16.9812 19.681 16.9547C19.6449 16.9283 19.6158 16.8934 19.5961 16.8532L19.0435 15.7479C19.0209 15.7012 18.9855 15.6618 18.9415 15.6343C18.8976 15.6067 18.8467 15.5921 18.7948 15.5921C18.7429 15.5921 18.692 15.6067 18.6481 15.6343C18.6041 15.6618 18.5687 15.7012 18.5461 15.7479L17.9935 16.8532C17.9739 16.8934 17.9447 16.9283 17.9086 16.9547C17.8725 16.9812 17.8305 16.9985 17.7863 17.0052L16.5926 17.1792C16.5412 17.1862 16.4928 17.2075 16.453 17.2408C16.4131 17.274 16.3834 17.3177 16.3673 17.367C16.3511 17.4163 16.3492 17.4692 16.3617 17.5195C16.3742 17.5699 16.4006 17.6157 16.4379 17.6517L17.3138 18.5055C17.3462 18.5369 17.3704 18.5757 17.3844 18.6185C17.3984 18.6614 17.4016 18.707 17.3939 18.7514L17.1867 19.9561C17.1776 20.0071 17.1831 20.0595 17.2023 20.1074C17.2216 20.1554 17.2539 20.197 17.2957 20.2275C17.3374 20.2581 17.3869 20.2762 17.4384 20.28C17.49 20.2838 17.5416 20.2731 17.5873 20.249L18.6705 19.6798C18.7108 19.6581 18.7559 19.6467 18.8017 19.6467C18.8475 19.6467 18.8926 19.6581 18.933 19.6798Z" stroke="#1F1F1F" stroke-width="1.5" stroke-linecap="round" stroke-linejoin="round"/>
</svg>
