<svg width="24" height="24" viewBox="0 0 24 24" fill="none" xmlns="http://www.w3.org/2000/svg">
<path d="M21.3799 2.49946C21.7684 2.89783 22.0385 3.39641 22.1599 3.93946C22.2805 4.48282 22.2388 5.04963 22.0399 5.56947L16.8699 20.4895C16.7164 20.8646 16.4885 21.2048 16.1999 21.4895C16.0616 21.6264 15.911 21.7502 15.7499 21.8595C15.2537 22.1908 14.6663 22.3586 14.0699 22.3395C13.4714 22.3235 12.8925 22.1227 12.4126 21.7646C11.9328 21.4065 11.5755 20.9087 11.3899 20.3395C11.3899 20.3395 11.3899 20.2495 11.3899 20.2195L10.7699 16.4495C10.731 16.2026 10.7466 15.9502 10.8157 15.7101C10.8848 15.4699 11.0057 15.2479 11.1699 15.0595L11.9299 14.1895L16.1399 9.34947C16.2331 9.25623 16.3071 9.14554 16.3576 9.02372C16.408 8.9019 16.434 8.77133 16.434 8.63947C16.434 8.50762 16.408 8.37703 16.3576 8.25521C16.3071 8.13339 16.2331 8.02271 16.1399 7.92947C16.0467 7.83623 15.936 7.76226 15.8142 7.7118C15.6923 7.66134 15.5618 7.63537 15.4299 7.63537C15.2981 7.63537 15.1675 7.66134 15.0456 7.7118C14.9238 7.76226 14.8131 7.83623 14.7199 7.92947L9.95989 12.0795L9.12989 12.7995C8.94023 12.9645 8.71612 13.0852 8.47393 13.1526C8.23174 13.2201 7.97756 13.2327 7.72989 13.1895L3.9899 12.5195C3.37741 12.3591 2.83135 12.0091 2.4299 11.5195C2.04813 11.0377 1.82808 10.4478 1.80115 9.83375C1.77422 9.21968 1.94173 8.61277 2.27987 8.09947C2.61539 7.58257 3.11048 7.18933 3.68988 6.97947L18.3499 1.78947C18.8711 1.60015 19.4353 1.56261 19.9769 1.68121C20.5186 1.79981 21.0155 2.06968 21.4099 2.45947L21.3799 2.49946Z" fill="#1F1F1F"/>
</svg>
