<svg width="24" height="24" viewBox="0 0 24 24" fill="none" xmlns="http://www.w3.org/2000/svg">
<path d="M21.9872 18.73C21.9411 19.0359 21.8247 19.3268 21.6471 19.58C21.4704 19.8288 21.2363 20.0315 20.9647 20.1707C20.6931 20.31 20.3919 20.3817 20.0866 20.38H18.4361C18.3187 20.3796 18.203 20.3514 18.0986 20.2975C17.9943 20.2436 17.9042 20.1656 17.836 20.07C17.7669 19.9745 17.721 19.8643 17.702 19.748C17.6829 19.6317 17.6911 19.5126 17.7259 19.4C18.096 18.22 18.016 16.89 14.665 14.76C14.5284 14.6705 14.4238 14.54 14.3663 14.3872C14.3087 14.2344 14.3013 14.0673 14.3449 13.91C14.3918 13.7551 14.4869 13.6191 14.6165 13.522C14.746 13.4248 14.9032 13.3716 15.0651 13.37C16.4955 13.3898 17.8913 13.8122 19.0926 14.5886C20.2939 15.3651 21.252 16.4642 21.8572 17.76C21.9802 18.0676 22.0249 18.4009 21.9872 18.73Z" fill="#1F1F1F"/>
<path d="M19.4864 7.70004C19.4848 8.2802 19.3692 8.85441 19.1463 9.39005C18.6939 10.4694 17.8352 11.3278 16.7555 11.7801C16.2194 12.002 15.6453 12.1174 15.065 12.12C14.9337 12.1176 14.8053 12.0813 14.6922 12.0146C14.5792 11.9478 14.4853 11.8529 14.4198 11.7391C14.3544 11.6253 14.3195 11.4965 14.3186 11.3653C14.3177 11.234 14.3509 11.1047 14.4148 10.99C15.027 10.011 15.3516 8.87966 15.3516 7.72507C15.3516 6.57048 15.027 5.43912 14.4148 4.46005C14.3364 4.34796 14.2901 4.21655 14.281 4.08005C14.2718 3.94354 14.3002 3.80717 14.3631 3.68564C14.4259 3.56411 14.5208 3.46208 14.6375 3.39059C14.7542 3.31911 14.8882 3.28088 15.025 3.28006C15.6057 3.27788 16.1809 3.39351 16.7155 3.62003C17.2603 3.84914 17.7509 4.18979 18.156 4.62003C18.9784 5.4508 19.4418 6.57116 19.4464 7.74002L19.4864 7.70004Z" fill="#1F1F1F"/>
<path d="M16.6754 18.7C16.7159 19.1896 16.6195 19.6807 16.3969 20.1187C16.1743 20.5566 15.8344 20.924 15.415 21.18C14.997 21.4371 14.5154 21.5722 14.0246 21.57H4.65181C4.16102 21.5722 3.67941 21.4371 3.2614 21.18C2.84145 20.9253 2.50155 20.5578 2.28047 20.1193C2.05939 19.6808 1.96602 19.189 2.01102 18.7C2.04837 18.2122 2.22163 17.7445 2.51117 17.35C3.308 16.2889 4.33479 15.4219 5.51454 14.814C6.6943 14.2061 7.9964 13.8732 9.32322 13.84C10.6546 13.866 11.9626 14.1947 13.1481 14.8011C14.3335 15.4075 15.3653 16.2758 16.1653 17.34C16.4564 17.7383 16.6328 18.2086 16.6754 18.7Z" fill="#1F1F1F"/>
<path d="M14.2446 7.31999C14.242 8.61966 13.725 9.86549 12.8067 10.7854C11.8883 11.7054 10.6432 12.2247 9.34312 12.23C8.37456 12.228 7.4283 11.9392 6.62379 11.4C5.81928 10.8608 5.19259 10.0955 4.82285 9.20054C4.45311 8.30559 4.35689 7.3212 4.54633 6.37162C4.73578 5.42205 5.2024 4.54989 5.88728 3.86521C6.57216 3.18054 7.44459 2.71402 8.39445 2.52464C9.34431 2.33525 10.329 2.43144 11.2242 2.80107C12.1194 3.1707 12.885 3.79721 13.4244 4.60148C13.9637 5.40575 14.2526 6.35171 14.2546 7.31999H14.2446Z" fill="#1F1F1F"/>
</svg>
