<svg width="24" height="24" viewBox="0 0 24 24" fill="none" xmlns="http://www.w3.org/2000/svg">
<path d="M3.51836 20.5372C3.2735 20.2922 3.07954 20.0012 2.94767 19.681C2.8158 19.3607 2.74863 19.0175 2.75002 18.6712V16.0668C2.83752 15.4343 3.15094 14.8548 3.6324 14.4354C4.11385 14.016 4.73082 13.7849 5.36935 13.7849C6.00789 13.7849 6.62485 14.016 7.10631 14.4354C7.58777 14.8548 7.90119 15.4343 7.98869 16.0668" stroke="#1F1F1F" stroke-width="1.5" stroke-linecap="round" stroke-linejoin="round"/>
<path d="M15.9712 18.6712C16.0126 19.3431 16.3086 19.974 16.799 20.4352C17.2895 20.8964 17.9373 21.1531 18.6105 21.1531C19.2837 21.1531 19.9316 20.8964 20.422 20.4352C20.9124 19.974 21.2085 19.3431 21.2498 18.6712V16.0668C21.2085 15.3949 20.9124 14.764 20.422 14.3029C19.9316 13.8417 19.2837 13.5849 18.6105 13.5849C17.9373 13.5849 17.2895 13.8417 16.799 14.3029C16.3086 14.764 16.0126 15.3949 15.9712 16.0668V18.6712Z" stroke="#1F1F1F" stroke-width="1.5" stroke-linecap="round" stroke-linejoin="round"/>
<path d="M2.75 18.6712V12.0755C2.75029 10.2501 3.29178 8.4659 4.30601 6.9483C5.32024 5.4307 6.76167 4.24789 8.44805 3.54941C10.1345 2.85093 11.9901 2.66815 13.7803 3.02417C15.5706 3.38019 17.2151 4.25903 18.5059 5.54958" stroke="#1F1F1F" stroke-width="1.5" stroke-linecap="round" stroke-linejoin="round"/>
<path d="M20.252 7.8546C20.9112 9.16376 21.2531 10.6097 21.2499 12.0755V18.6712" stroke="#1F1F1F" stroke-width="1.5" stroke-linecap="round" stroke-linejoin="round"/>
<path d="M2.99951 21.056L20.9606 3.09489" stroke="#1F1F1F" stroke-width="1.5" stroke-linecap="round" stroke-linejoin="round"/>
</svg>
