<svg width="24" height="24" viewBox="0 0 24 24" fill="none" xmlns="http://www.w3.org/2000/svg">
<path d="M13.6324 6.35204V4.5891C13.6324 4.02415 13.1745 3.56616 12.6095 3.56616H7.10302C6.53806 3.56616 6.08008 4.02415 6.08008 4.5891V6.35204C6.08008 6.917 6.53806 7.37499 7.10302 7.37499H12.6095C13.1745 7.37499 13.6324 6.917 13.6324 6.35204Z" stroke="#1F1F1F" stroke-width="1.3" stroke-linecap="round" stroke-linejoin="round"/>
<path d="M21.2501 12.8815V11.1185C21.2501 10.5536 20.7921 10.0956 20.2272 10.0956H7.10302C6.53807 10.0956 6.08008 10.5536 6.08008 11.1185V12.8815C6.08008 13.4464 6.53807 13.9044 7.10302 13.9044H20.2272C20.7921 13.9044 21.2501 13.4464 21.2501 12.8815Z" stroke="#1F1F1F" stroke-width="1.3" stroke-linecap="round" stroke-linejoin="round"/>
<path d="M17.9199 19.4109V17.6479C17.9199 17.083 17.4619 16.625 16.897 16.625H7.11376C6.5488 16.625 6.09082 17.083 6.09082 17.6479V19.4109C6.09082 19.9758 6.5488 20.4338 7.11376 20.4338H16.897C17.4619 20.4338 17.9199 19.9758 17.9199 19.4109Z" stroke="#1F1F1F" stroke-width="1.3" stroke-linecap="round" stroke-linejoin="round"/>
<path d="M2.75 3.29413V20.7059" stroke="#1F1F1F" stroke-width="1.3" stroke-linecap="round" stroke-linejoin="round"/>
</svg>
