<svg width="24" height="24" viewBox="0 0 24 24" fill="none" xmlns="http://www.w3.org/2000/svg">
<path d="M11.9069 1.97495C12.4634 1.97499 13.0083 2.13464 13.4769 2.43496C13.9461 2.73158 14.3181 3.15918 14.5469 3.66495L21.4469 17.875C21.606 18.2519 21.6909 18.6559 21.6969 19.065C21.6973 19.2599 21.6772 19.4543 21.6369 19.645C21.521 20.2315 21.2237 20.7667 20.7869 21.175C20.356 21.5881 19.8074 21.8572 19.2169 21.945C18.6294 22.0372 18.0278 21.9428 17.4969 21.675L17.3869 21.6149L14.2869 19.385C14.0843 19.2421 13.9162 19.0557 13.7951 18.8394C13.674 18.6231 13.6028 18.3824 13.5869 18.135L13.5069 16.9749L13.0569 10.575C13.0569 10.3097 12.9515 10.0554 12.764 9.86785C12.5765 9.68031 12.3221 9.57495 12.0569 9.57495C11.7917 9.57495 11.5373 9.68031 11.3498 9.86785C11.1622 10.0554 11.0569 10.3097 11.0569 10.575L10.6169 16.875L10.5469 17.965C10.5287 18.2168 10.4547 18.4615 10.3302 18.6812C10.2056 18.9009 10.0337 19.09 9.82692 19.235L6.70692 21.405C6.1585 21.7286 5.51981 21.8655 4.88692 21.795C4.27688 21.725 3.70459 21.4639 3.25195 21.049C2.79931 20.6341 2.48954 20.0866 2.36693 19.485C2.23613 18.8825 2.30638 18.2537 2.56692 17.695L9.26692 3.69495C9.49641 3.18581 9.8671 2.75317 10.335 2.44831C10.8029 2.14345 11.3484 1.97917 11.9069 1.97495Z" fill="#1F1F1F"/>
</svg>
