<svg width="24" height="24" viewBox="0 0 24 24" fill="none" xmlns="http://www.w3.org/2000/svg">
<path d="M5.79545 14.3063L4.02273 12.5308L2.25 14.3063" stroke="#1F1F1F" stroke-width="1.5" stroke-linecap="round" stroke-linejoin="round"/>
<path d="M18.2046 9.72739L19.9773 11.5029L21.75 9.72739" stroke="#1F1F1F" stroke-width="1.5" stroke-linecap="round" stroke-linejoin="round"/>
<path d="M19.977 11.5029C19.977 9.38389 19.1366 7.35168 17.6406 5.85333C16.1445 4.35497 14.1155 3.51321 11.9998 3.51321C10.9821 3.5117 9.9738 3.70765 9.03052 4.09024C7.97772 4.51211 7.02681 5.15392 6.24121 5.9729C5.4556 6.79187 4.85335 7.76918 4.47461 8.83966" stroke="#1F1F1F" stroke-width="1.5" stroke-linecap="round" stroke-linejoin="round"/>
<path d="M4.02295 12.5308C4.02463 14.3857 4.67066 16.1822 5.85024 17.6122C7.02981 19.0422 8.66942 20.0166 10.4878 20.3683C12.3063 20.7199 14.1902 20.4269 15.8165 19.5395C17.4429 18.6522 18.7102 17.2257 19.4013 15.5047" stroke="#1F1F1F" stroke-width="1.5" stroke-linecap="round" stroke-linejoin="round"/>
<path d="M9.58057 13.9782C9.63203 14.5727 9.91433 15.1232 10.3668 15.5114C10.8192 15.8996 11.4057 16.0945 12.0001 16.0542C13.9519 16.0542 14.4196 14.9314 14.4196 13.9782C14.4196 13.0251 13.6131 12.0154 12.0001 12.0154C10.3871 12.0154 9.58057 11.3772 9.58057 10.0767C9.59562 9.77752 9.67092 9.48448 9.80196 9.21519C9.93301 8.94591 10.117 8.70595 10.3431 8.50975C10.5691 8.31356 10.8324 8.16518 11.1172 8.07354C11.4019 7.9819 11.7023 7.94889 12.0001 7.97651C12.5949 7.95085 13.177 8.15415 13.6269 8.54468C14.0768 8.93521 14.3605 9.48337 14.4196 10.0767" stroke="#1F1F1F" stroke-width="1.5" stroke-linecap="round" stroke-linejoin="round"/>
<path d="M12 17.2637V16.2129M12 6.76268V7.97343" stroke="#1F1F1F" stroke-width="1.5" stroke-linecap="round" stroke-linejoin="round"/>
</svg>
