<svg width="24" height="24" viewBox="0 0 24 24" fill="none" xmlns="http://www.w3.org/2000/svg">
<path d="M22.002 11.8843C22.002 12.4408 21.8423 12.9857 21.542 13.4543C21.2454 13.9235 20.8178 14.2955 20.312 14.5243L6.10197 21.4243C5.72508 21.5834 5.32102 21.6683 4.91197 21.6743C4.71706 21.6747 4.52266 21.6545 4.33196 21.6143C3.74543 21.4984 3.21019 21.2011 2.80197 20.7643C2.38878 20.3334 2.11972 19.7848 2.03198 19.1943C1.93968 18.6068 2.03411 18.0052 2.30197 17.4743L2.36198 17.3643L4.59197 14.2643C4.73483 14.0617 4.92126 13.8936 5.13757 13.7725C5.35387 13.6514 5.59457 13.5802 5.84197 13.5643L7.00198 13.4843L13.402 13.0343C13.6672 13.0343 13.9216 12.9289 14.1091 12.7414C14.2966 12.5538 14.402 12.2995 14.402 12.0343C14.402 11.7691 14.2966 11.5147 14.1091 11.3272C13.9216 11.1396 13.6672 11.0343 13.402 11.0343L7.10197 10.5943L6.01197 10.5243C5.7601 10.5061 5.51544 10.4321 5.29575 10.3075C5.07607 10.183 4.88689 10.0111 4.74197 9.80428L2.57197 6.68428C2.24829 6.13586 2.11143 5.49717 2.18197 4.86427C2.2519 4.25423 2.51301 3.68195 2.92793 3.22931C3.34284 2.77667 3.8903 2.46689 4.49197 2.34428C5.09445 2.21349 5.72321 2.28374 6.28198 2.54428L20.282 9.24428C20.7911 9.47377 21.2238 9.84446 21.5286 10.3124C21.8335 10.7803 21.9978 11.3258 22.002 11.8843Z" fill="#1F1F1F"/>
</svg>
