<svg width="24" height="24" viewBox="0 0 24 24" fill="none" xmlns="http://www.w3.org/2000/svg">
<path d="M15.25 2.75H8.75C5.43629 2.75 2.75 5.43629 2.75 8.75V15.25C2.75 18.5637 5.43629 21.25 8.75 21.25H15.25C18.5637 21.25 21.25 18.5637 21.25 15.25V8.75C21.25 5.43629 18.5637 2.75 15.25 2.75Z" stroke="#1F1F1F" stroke-width="1.5"/>
<path d="M16.7625 10.9417V13.0584C16.7625 13.1987 16.7067 13.3333 16.6075 13.4325C16.5083 13.5318 16.3737 13.5875 16.2333 13.5875H13.5874V16.2334C13.5874 16.3738 13.5317 16.5084 13.4324 16.6076C13.3332 16.7068 13.1986 16.7626 13.0583 16.7626H10.9416C10.8012 16.7626 10.6666 16.7068 10.5674 16.6076C10.4681 16.5084 10.4124 16.3738 10.4124 16.2334V13.5875H7.76647C7.62613 13.5875 7.49153 13.5318 7.39229 13.4325C7.29305 13.3333 7.2373 13.1987 7.2373 13.0584V10.9417C7.2373 10.8013 7.29305 10.6667 7.39229 10.5675C7.49153 10.4682 7.62613 10.4125 7.76647 10.4125H10.4124V7.7666C10.4124 7.62626 10.4681 7.49166 10.5674 7.39242C10.6666 7.29318 10.8012 7.23743 10.9416 7.23743H13.0583C13.1986 7.23743 13.3332 7.29318 13.4324 7.39242C13.5317 7.49166 13.5874 7.62626 13.5874 7.7666V10.4125H16.2333C16.3737 10.4125 16.5083 10.4682 16.6075 10.5675C16.7067 10.6667 16.7625 10.8013 16.7625 10.9417Z" stroke="#1F1F1F" stroke-width="1.5" stroke-linecap="round" stroke-linejoin="round"/>
</svg>
