<svg width="24" height="24" viewBox="0 0 24 24" fill="none" xmlns="http://www.w3.org/2000/svg">
<path d="M20.6802 6.96713C20.4533 6.58819 20.1286 6.2773 19.7402 6.06712L13.2702 2.33713C12.8846 2.11797 12.4487 2.00275 12.0052 2.00275C11.5617 2.00275 11.1258 2.11797 10.7402 2.33713L4.21021 6.07713C3.82614 6.2996 3.50853 6.62067 3.29023 7.00713C3.06866 7.39016 2.9514 7.82463 2.9502 8.26714V15.7471C2.96207 16.1984 3.08945 16.6391 3.3202 17.0271C3.55515 17.3995 3.87793 17.7086 4.2602 17.9271L10.7402 21.6571C11.1213 21.8832 11.5571 22.0008 12.0002 21.9971C12.4435 22.0018 12.8795 21.8842 13.2602 21.6571L19.7902 17.9271C20.1701 17.6992 20.4864 17.3794 20.7102 16.9971C20.9331 16.6146 21.0504 16.1798 21.0502 15.7371V8.25713C21.04 7.80243 20.9126 7.35808 20.6802 6.96713ZM11.0002 6.72713C11.0002 6.46191 11.1056 6.20756 11.2931 6.02002C11.4806 5.83248 11.735 5.72713 12.0002 5.72713C12.2654 5.72713 12.5198 5.83248 12.7074 6.02002C12.8949 6.20756 13.0002 6.46191 13.0002 6.72713V13.0471C13.0002 13.3124 12.8949 13.5667 12.7074 13.7542C12.5198 13.9418 12.2654 14.0471 12.0002 14.0471C11.735 14.0471 11.4806 13.9418 11.2931 13.7542C11.1056 13.5667 11.0002 13.3124 11.0002 13.0471V6.72713ZM12.0002 17.7971C11.753 17.7971 11.5113 17.7238 11.3057 17.5865C11.1002 17.4491 10.94 17.2539 10.8454 17.0255C10.7507 16.7971 10.726 16.5457 10.7742 16.3033C10.8225 16.0608 10.9415 15.8381 11.1163 15.6632C11.2912 15.4884 11.5139 15.3694 11.7564 15.3212C11.9988 15.2729 12.2502 15.2977 12.4786 15.3923C12.707 15.4869 12.9022 15.6471 13.0396 15.8527C13.1769 16.0582 13.2502 16.2999 13.2502 16.5471C13.2504 16.8718 13.1242 17.1839 12.8983 17.4172C12.6725 17.6505 12.3648 17.7867 12.0402 17.7971H12.0002Z" fill="#1F1F1F"/>
</svg>
