<svg width="24" height="24" viewBox="0 0 24 24" fill="none" xmlns="http://www.w3.org/2000/svg">
<path d="M4 5.5H20" stroke="#1F1F1F" stroke-width="1.5" stroke-linecap="round" stroke-linejoin="round"/>
<path d="M4 11.5H20" stroke="#1F1F1F" stroke-width="1.5" stroke-linecap="round" stroke-linejoin="round"/>
<path d="M4 17.5H12" stroke="#1F1F1F" stroke-width="1.5" stroke-linecap="round" stroke-linejoin="round"/>
<path d="M15.5132 15.0381V19.9604C15.5134 20.0613 15.5419 20.1601 15.5954 20.2457C15.6489 20.3313 15.7252 20.4002 15.8158 20.4447C15.9064 20.4891 16.0077 20.5074 16.1081 20.4973C16.2085 20.4872 16.3041 20.4493 16.3841 20.3877L19.7918 17.7373C19.8593 17.6846 19.9133 17.6167 19.9494 17.539C19.9855 17.4614 20.0027 17.3764 19.9995 17.2908C19.9964 17.2053 19.9729 17.1217 19.9312 17.047C19.8894 16.9723 19.8305 16.9085 19.7593 16.861L16.3516 14.5892C16.2703 14.5356 16.176 14.505 16.0786 14.5006C15.9813 14.4961 15.8846 14.5181 15.7988 14.5641C15.7129 14.61 15.641 14.6784 15.5908 14.7618C15.5405 14.8452 15.5137 14.9407 15.5132 15.0381Z" stroke="#1F1F1F" stroke-width="1.5" stroke-linecap="round" stroke-linejoin="round"/>
</svg>
