<svg width="24" height="24" viewBox="0 0 24 24" fill="none" xmlns="http://www.w3.org/2000/svg">
<path d="M20.2276 9.0593C20.0307 9.0593 19.8418 8.98119 19.7025 8.84216C19.5633 8.70313 19.4851 8.51456 19.4851 8.31794V6.4893C19.4851 5.96499 19.2764 5.46214 18.9051 5.0914C18.5337 4.72065 18.03 4.51237 17.5049 4.51237H14.7524C14.5554 4.51237 14.3666 4.43423 14.2273 4.2952C14.088 4.15617 14.0098 3.96763 14.0098 3.77101C14.0098 3.5744 14.088 3.38583 14.2273 3.2468C14.3666 3.10777 14.5554 3.02966 14.7524 3.02966H17.5049C18.4302 3.03485 19.3162 3.40413 19.9705 4.05738C20.6248 4.71063 20.9947 5.59514 20.9999 6.51896V8.3476C20.9896 8.54337 20.9031 8.72741 20.7588 8.86038C20.6146 8.99335 20.4239 9.06472 20.2276 9.0593Z" fill="#1F1F1F"/>
<path d="M17.5049 20.9506H14.7524C14.5554 20.9506 14.3666 20.8725 14.2273 20.7334C14.088 20.5944 14.0098 20.4058 14.0098 20.2092C14.0098 20.0126 14.088 19.8241 14.2273 19.685C14.3666 19.546 14.5554 19.4679 14.7524 19.4679H17.5049C18.03 19.4679 18.5337 19.2596 18.9051 18.8888C19.2764 18.5181 19.4851 18.0152 19.4851 17.4909V15.682C19.4851 15.4854 19.5633 15.2969 19.7025 15.1578C19.8418 15.0188 20.0307 14.9407 20.2276 14.9407C20.4246 14.9407 20.6135 15.0188 20.7527 15.1578C20.892 15.2969 20.9702 15.4854 20.9702 15.682V17.5107C20.965 18.4345 20.5951 19.319 19.9408 19.9723C19.2865 20.6255 18.4005 20.9948 17.4752 21L17.5049 20.9506Z" fill="#1F1F1F"/>
<path d="M9.23761 20.9506H6.48514C5.55991 20.9479 4.67347 20.5792 4.02016 19.9251C3.36685 19.271 3 18.385 3 17.4613V15.682C3 15.4854 3.07823 15.2969 3.21749 15.1578C3.35675 15.0188 3.54563 14.9407 3.74257 14.9407C3.93952 14.9407 4.12838 15.0188 4.26764 15.1578C4.4069 15.2969 4.48515 15.4854 4.48515 15.682V17.5107C4.48515 18.035 4.69378 18.5379 5.06513 18.9086C5.43649 19.2794 5.94017 19.4876 6.46535 19.4876H9.21782C9.41477 19.4876 9.60363 19.5658 9.74289 19.7048C9.88215 19.8438 9.9604 20.0324 9.9604 20.229C9.9604 20.4256 9.88215 20.6142 9.74289 20.7532C9.60363 20.8922 9.41477 20.9704 9.21782 20.9704L9.23761 20.9506Z" fill="#1F1F1F"/>
<path d="M3.74257 9.05929C3.54563 9.05929 3.35675 8.98118 3.21749 8.84215C3.07823 8.70312 3 8.51455 3 8.31793V6.48929C3 5.56558 3.36685 4.67954 4.02016 4.02545C4.67347 3.37137 5.55991 3.00262 6.48514 3H9.23761C9.43456 3 9.62344 3.0781 9.7627 3.21713C9.90196 3.35616 9.98019 3.54473 9.98019 3.74135C9.98019 3.93797 9.90196 4.12651 9.7627 4.26554C9.62344 4.40457 9.43456 4.4827 9.23761 4.4827H6.48514C5.95996 4.4827 5.45628 4.69098 5.08493 5.06173C4.71357 5.43248 4.50494 5.93532 4.50494 6.45964V8.28828C4.50762 8.38942 4.4898 8.49008 4.45256 8.58418C4.41532 8.67828 4.35943 8.76391 4.28824 8.83591C4.21704 8.90791 4.132 8.96479 4.03823 9.00318C3.94447 9.04157 3.84391 9.06065 3.74257 9.05929Z" fill="#1F1F1F"/>
<path d="M16.6833 11.9753C16.6827 13.0615 16.3049 14.1139 15.6142 14.9533C14.9236 15.7926 13.9628 16.3669 12.8956 16.5783C11.8283 16.7897 10.7207 16.6251 9.76141 16.1126C8.8021 15.6001 8.05045 14.7714 7.63453 13.7677C7.21861 12.7639 7.16415 11.6473 7.48043 10.608C7.79672 9.56863 8.46417 8.67094 9.36909 8.06783C10.274 7.46472 11.3603 7.19349 12.4431 7.30038C13.5258 7.40727 14.538 7.88567 15.307 8.65404C15.7454 9.08897 16.0929 9.60654 16.3291 10.1767C16.5654 10.7469 16.6858 11.3582 16.6833 11.9753Z" fill="#1F1F1F"/>
</svg>
