<svg width="24" height="24" viewBox="0 0 24 24" fill="none" xmlns="http://www.w3.org/2000/svg">
<path d="M12 6.80957V17.6012" stroke="#1F1F1F" stroke-width="1.5" stroke-miterlimit="10" stroke-linecap="round"/>
<path d="M17.1391 11.5374L12.7299 7.11798C12.6344 7.02165 12.5207 6.94519 12.3955 6.89301C12.2702 6.84083 12.1359 6.81396 12.0002 6.81396C11.8646 6.81396 11.7302 6.84083 11.6049 6.89301C11.4798 6.94519 11.3661 7.02165 11.2705 7.11798L6.86133 11.5374" stroke="#1F1F1F" stroke-width="1.5" stroke-linecap="round" stroke-linejoin="round"/>
<path d="M15.25 2.75H8.75C5.43629 2.75 2.75 5.43629 2.75 8.75V15.25C2.75 18.5637 5.43629 21.25 8.75 21.25H15.25C18.5637 21.25 21.25 18.5637 21.25 15.25V8.75C21.25 5.43629 18.5637 2.75 15.25 2.75Z" stroke="#1F1F1F" stroke-width="1.5"/>
</svg>
