<svg width="24" height="24" viewBox="0 0 24 24" fill="none" xmlns="http://www.w3.org/2000/svg">
<path d="M20.9347 11.0085V8.79337C20.9363 8.26127 20.7954 7.73845 20.5265 7.27928C20.2576 6.82011 19.8707 6.44135 19.4058 6.1824L13.4492 2.87649C13.006 2.62959 12.5071 2.5 11.9998 2.5C11.4925 2.5 10.9935 2.62959 10.5504 2.87649L4.59382 6.1824C4.12898 6.44135 3.742 6.82011 3.47313 7.27928C3.20427 7.73845 3.06332 8.26127 3.06496 8.79337V15.2066C3.06332 15.7387 3.20427 16.2615 3.47313 16.7207C3.742 17.1799 4.12898 17.5586 4.59382 17.8176L10.5504 21.1235C10.9935 21.3704 11.4925 21.5 11.9998 21.5C12.5071 21.5 13.006 21.3704 13.4492 21.1235L15.9708 19.7237" stroke="#1F1F1F" stroke-width="1.5" stroke-linecap="round" stroke-linejoin="round"/>
<path d="M20.3295 6.99646L12.0002 12L3.6709 6.99646" stroke="#1F1F1F" stroke-width="1.5" stroke-linecap="round" stroke-linejoin="round"/>
<path d="M12 21.4908V12" stroke="#1F1F1F" stroke-width="1.5" stroke-linecap="round" stroke-linejoin="round"/>
<path d="M19.9692 19.2454V14.2454" stroke="#1F1F1F" stroke-width="1.5" stroke-miterlimit="10" stroke-linecap="round"/>
<path d="M17.6763 17.1404L19.6436 19.1078C19.6863 19.1507 19.737 19.1849 19.7929 19.2081C19.8487 19.2314 19.9087 19.2434 19.9692 19.2434C20.0298 19.2434 20.0897 19.2314 20.1456 19.2081C20.2015 19.1849 20.2522 19.1507 20.2948 19.1078L22.2621 17.1404" stroke="#1F1F1F" stroke-width="1.5" stroke-linecap="round" stroke-linejoin="round"/>
</svg>
