<svg width="24" height="24" viewBox="0 0 24 24" fill="none" xmlns="http://www.w3.org/2000/svg">
<path d="M12.5315 20.217C12.2321 20.0798 11.9327 19.9425 11.6333 19.7804C10.1664 18.9521 8.81906 17.928 7.62843 16.7363C6.08466 15.2833 4.81661 13.5631 3.88563 11.6585C3.38682 10.6355 3.0501 9.5412 2.88755 8.41473C2.66621 7.27695 2.79227 6.0989 3.24936 5.03373C3.53106 4.57607 3.87072 4.15674 4.25992 3.78613C4.41768 3.60943 4.6095 3.4664 4.82388 3.36565C5.03826 3.26489 5.27079 3.20846 5.50751 3.19977C6.00027 3.27351 6.44641 3.53227 6.75511 3.92337C7.42882 4.67193 8.15242 5.34563 8.86355 6.05676C9.14356 6.29698 9.31823 6.63739 9.35012 7.00493C9.33812 7.31419 9.21904 7.60967 9.01327 7.84083C8.77622 8.14025 8.48928 8.41472 8.2148 8.70167C8.04915 8.86116 7.92247 9.05668 7.84457 9.27304C7.76669 9.48934 7.73969 9.72075 7.76567 9.94924C7.93705 10.4843 8.23194 10.9715 8.6265 11.3716C9.10059 12.0203 9.57468 12.6191 10.1112 13.2554C11.0751 14.3684 12.2177 15.3128 13.4921 16.05C13.6683 16.1831 13.8766 16.2671 14.0958 16.2935C14.315 16.3197 14.5372 16.2874 14.7398 16.1997C15.1634 15.9627 15.5399 15.6498 15.8501 15.2766C16.1185 14.9496 16.5031 14.7394 16.9231 14.6901C17.2968 14.7091 17.6491 14.8698 17.9087 15.1393C18.2455 15.4262 18.5325 15.7631 18.8443 16.075C19.1563 16.3868 19.4058 16.6115 19.6678 16.8984C19.9815 17.1747 20.2774 17.4705 20.5535 17.7842C20.7677 18.0612 20.8702 18.4085 20.8405 18.7573C20.7294 19.1744 20.4892 19.5455 20.1544 19.8177C19.6835 20.3076 19.1112 20.6887 18.4776 20.9344C17.8441 21.18 17.1645 21.2844 16.4864 21.2401C15.1136 21.163 13.7695 20.8154 12.5315 20.217Z" stroke="#1F1F1F" stroke-width="1.5" stroke-miterlimit="10" stroke-linecap="round"/>
<path d="M17.7514 11.198C17.7514 9.85628 17.2185 8.56948 16.2697 7.62073C15.321 6.67198 14.0342 6.13898 12.6924 6.13898" stroke="#1F1F1F" stroke-width="1.5" stroke-miterlimit="10" stroke-linecap="round"/>
<path d="M21.2189 10.8444C21.2189 8.69765 20.3661 6.6388 18.8481 5.1208C17.3301 3.6028 15.2712 2.75 13.1245 2.75" stroke="#1F1F1F" stroke-width="1.5" stroke-miterlimit="10" stroke-linecap="round"/>
</svg>
