<svg width="24" height="24" viewBox="0 0 24 24" fill="none" xmlns="http://www.w3.org/2000/svg">
<path d="M10.2721 17.4377L5.90267 19.9415C4.77668 19.0762 3.84693 17.9836 3.17435 16.7352C2.50178 15.4868 2.10158 14.1108 2 12.6974L6.85601 15.4783H6.91559L10.2721 17.4377Z" fill="#1F1F1F"/>
<path d="M15.8528 16.2007V21.2379C14.5275 21.7842 13.1003 22.0422 11.6669 21.9944C10.2334 21.9466 8.82674 21.5942 7.54102 20.9608L12.3275 18.2294H12.4169L15.8528 16.2007Z" fill="#1F1F1F"/>
<path d="M21.9402 13.2615C21.7584 14.68 21.2746 16.0434 20.521 17.2603C19.7674 18.4772 18.7616 19.5196 17.5708 20.3175V10.7776L21.9402 13.2615Z" fill="#1F1F1F"/>
<path d="M22.0001 11.3219L17.1441 8.5707L16.9355 8.48164L13.728 6.61127L18.0974 4.10754C19.2226 4.9669 20.1522 6.0542 20.8249 7.29774C21.4976 8.54127 21.8981 9.91277 22.0001 11.3219Z" fill="#1F1F1F"/>
<path d="M16.429 3.04866L11.6425 5.81958H11.563L8.14697 7.79881V2.76166C9.4672 2.21847 10.888 1.96053 12.3157 2.00489C13.7433 2.04924 15.1453 2.39489 16.429 3.01897V3.04866Z" fill="#1F1F1F"/>
<path d="M6.42898 3.71167V13.2516L2.05957 10.7578C2.24331 9.34124 2.72808 7.98003 3.48155 6.76499C4.23501 5.54996 5.23984 4.50903 6.42898 3.71167Z" fill="#1F1F1F"/>
<path d="M15.853 9.80775V14.2313L12 16.4481L8.14697 14.2313V9.80775L12 7.591L15.853 9.80775Z" fill="#1F1F1F"/>
</svg>
