<svg width="24" height="24" viewBox="0 0 24 24" fill="none" xmlns="http://www.w3.org/2000/svg">
<path d="M21.5 12L12 21.5C10.1211 21.5 8.28434 20.9428 6.72208 19.8989C5.15982 18.8551 3.94218 17.3714 3.22315 15.6355C2.50412 13.8996 2.31598 11.9895 2.68254 10.1466C3.0491 8.30382 3.95389 6.61108 5.28249 5.28249C6.61108 3.95389 8.30382 3.0491 10.1466 2.68254C11.9895 2.31598 13.8996 2.50412 15.6355 3.22315C17.3714 3.94218 18.8551 5.15982 19.8989 6.72208C20.9428 8.28434 21.5 10.1211 21.5 12Z" stroke="#1F1F1F" stroke-width="1.5" stroke-linecap="round" stroke-linejoin="round"/>
<path d="M12.0001 21.5C11.5841 20.4612 11.3934 19.3458 11.4406 18.2278C11.449 16.4332 12.1678 14.715 13.4397 13.449C14.7116 12.183 16.4332 11.4722 18.2278 11.4723C19.3456 11.4295 20.46 11.62 21.5 12.0317" stroke="#1F1F1F" stroke-width="1.5" stroke-linecap="round" stroke-linejoin="round"/>
</svg>
