<svg width="24" height="24" viewBox="0 0 24 24" fill="none" xmlns="http://www.w3.org/2000/svg">
<path d="M21.25 12C21.2487 13.2143 21.011 14.4166 20.55 15.54C19.6057 17.7994 17.8094 19.5957 15.55 20.54C14.383 21.0201 13.1305 21.2579 11.8687 21.239C10.6069 21.2201 9.36218 20.9448 8.21004 20.43L4.34004 21C4.14929 21.0447 3.95079 21.0447 3.76004 21C3.57872 20.9342 3.41464 20.8282 3.28004 20.69C3.1405 20.5455 3.04123 20.3671 2.99211 20.1723C2.94298 19.9776 2.94572 19.7734 3.00004 19.58L3.53004 15.66C3.01242 14.5094 2.74649 13.2616 2.75004 12C2.75129 10.7857 2.98906 9.58335 3.45004 8.46C4.39429 6.20063 6.19067 4.40425 8.45004 3.46C9.57551 2.99332 10.7816 2.75209 12 2.75" stroke="#1F1F1F" stroke-width="1.5" stroke-linecap="round" stroke-linejoin="round"/>
<path d="M17.7681 2.75V8.25" stroke="#1F1F1F" stroke-width="1.5" stroke-miterlimit="10" stroke-linecap="round"/>
<path d="M15.0239 5.50598H20.5239" stroke="#1F1F1F" stroke-width="1.5" stroke-miterlimit="10" stroke-linecap="round"/>
<path d="M12 12.6104C12.3376 12.6104 12.6112 12.3371 12.6112 12C12.6112 11.6628 12.3376 11.3895 12 11.3895C11.6624 11.3895 11.3887 11.6628 11.3887 12C11.3887 12.3371 11.6624 12.6104 12 12.6104Z" stroke="#1F1F1F" stroke-width="1.5" stroke-linecap="round" stroke-linejoin="round"/>
<path d="M16.2788 12.6104C16.6164 12.6104 16.89 12.3371 16.89 12C16.89 11.6628 16.6164 11.3895 16.2788 11.3895C15.9412 11.3895 15.6675 11.6628 15.6675 12C15.6675 12.3371 15.9412 12.6104 16.2788 12.6104Z" stroke="#1F1F1F" stroke-width="1.5" stroke-linecap="round" stroke-linejoin="round"/>
<path d="M7.7211 12.6104C8.05868 12.6104 8.33234 12.3371 8.33234 12C8.33234 11.6628 8.05868 11.3895 7.7211 11.3895C7.38352 11.3895 7.10986 11.6628 7.10986 12C7.10986 12.3371 7.38352 12.6104 7.7211 12.6104Z" stroke="#1F1F1F" stroke-width="1.5" stroke-linecap="round" stroke-linejoin="round"/>
</svg>
