<svg width="24" height="24" viewBox="0 0 24 24" fill="none" xmlns="http://www.w3.org/2000/svg">
<path d="M19.6325 7.11089L13.1591 3.08871C12.805 2.86736 12.3957 2.75 11.9781 2.75C11.5605 2.75 11.1512 2.86736 10.7971 3.08871L4.32367 7.13318C3.95559 7.36509 3.66346 7.69966 3.48329 8.09564C3.30312 8.49161 3.2428 8.93168 3.30977 9.36153L4.98103 19.3891C5.06885 19.9144 5.34187 20.3908 5.75064 20.7321C6.15941 21.0734 6.6769 21.2571 7.20938 21.2498H16.7913C17.3238 21.2571 17.8413 21.0734 18.2501 20.7321C18.6588 20.3908 18.9319 19.9144 19.0197 19.3891L20.6909 9.36153C20.7582 8.92366 20.6935 8.47568 20.5049 8.07479C20.3164 7.67391 20.0126 7.33833 19.6325 7.11089Z" stroke="#1F1F1F" stroke-width="1.5" stroke-linecap="round" stroke-linejoin="round"/>
<path d="M8.1748 12.9083L10.3279 15.0614C10.4037 15.1381 10.4939 15.199 10.5933 15.2405C10.6927 15.282 10.7994 15.3034 10.9072 15.3034C11.015 15.3034 11.1217 15.282 11.2211 15.2405C11.3205 15.199 11.4107 15.1381 11.4865 15.0614L15.8255 10.7224" stroke="#1F1F1F" stroke-width="1.5" stroke-linecap="round" stroke-linejoin="round"/>
</svg>
