<svg width="24" height="24" viewBox="0 0 24 24" fill="none" xmlns="http://www.w3.org/2000/svg">
<path d="M12 21.5C17.2467 21.5 21.5 17.2467 21.5 12C21.5 6.7533 17.2467 2.5 12 2.5C6.7533 2.5 2.5 6.7533 2.5 12C2.5 17.2467 6.7533 21.5 12 21.5Z" stroke="#1F1F1F" stroke-width="1.5" stroke-linecap="round" stroke-linejoin="round"/>
<path d="M11.9999 7.73637C12.3717 7.73637 12.6731 7.43496 12.6731 7.06316C12.6731 6.69136 12.3717 6.38995 11.9999 6.38995C11.6281 6.38995 11.3267 6.69136 11.3267 7.06316C11.3267 7.43496 11.6281 7.73637 11.9999 7.73637Z" stroke="#1F1F1F" stroke-width="1.5" stroke-linecap="round" stroke-linejoin="round"/>
<path d="M11.9999 12.6732C12.3717 12.6732 12.6731 12.3718 12.6731 12C12.6731 11.6282 12.3717 11.3268 11.9999 11.3268C11.6281 11.3268 11.3267 11.6282 11.3267 12C11.3267 12.3718 11.6281 12.6732 11.9999 12.6732Z" stroke="#1F1F1F" stroke-width="1.5" stroke-linecap="round" stroke-linejoin="round"/>
<path d="M11.9999 17.6101C12.3717 17.6101 12.6731 17.3087 12.6731 16.9369C12.6731 16.5651 12.3717 16.2637 11.9999 16.2637C11.6281 16.2637 11.3267 16.5651 11.3267 16.9369C11.3267 17.3087 11.6281 17.6101 11.9999 17.6101Z" stroke="#1F1F1F" stroke-width="1.5" stroke-linecap="round" stroke-linejoin="round"/>
</svg>
