<svg width="24" height="24" viewBox="0 0 24 24" fill="none" xmlns="http://www.w3.org/2000/svg">
<path d="M21.2647 8.18054C20.7679 6.96199 20.0298 5.8565 19.0947 4.93054C17.6963 3.53121 15.9142 2.57813 13.974 2.19186C12.0337 1.80559 10.0225 2.00351 8.19474 2.76055C6.98144 3.26722 5.87777 4.00411 4.94474 4.93054C4.01523 5.85775 3.27863 6.95994 2.77745 8.17343C2.27626 9.38691 2.02045 10.6876 2.02476 12.0005C2.01377 13.2943 2.26551 14.5769 2.76475 15.7705L2.26475 19.4206C2.18472 19.7288 2.18472 20.0523 2.26475 20.3606C2.35075 20.6666 2.50846 20.9476 2.72477 21.1805C2.94491 21.4073 3.21561 21.5786 3.51475 21.6805C3.81125 21.7779 4.12692 21.8019 4.43474 21.7505L8.09477 21.2105C9.3202 21.7373 10.6409 22.0062 11.9748 22.0005C14.6267 22 17.1698 20.946 19.0448 19.0706C19.9795 18.1482 20.7177 17.0461 21.2147 15.8306C22.2287 13.3814 22.2287 10.6297 21.2147 8.18054H21.2647ZM15.6648 12.6905H12.7547V15.5806C12.7547 15.8458 12.6494 16.1001 12.4618 16.2877C12.2743 16.4752 12.0199 16.5806 11.7547 16.5806C11.4895 16.5806 11.2352 16.4752 11.0476 16.2877C10.8601 16.1001 10.7547 15.8458 10.7547 15.5806V12.6905H7.86473C7.59951 12.6905 7.34517 12.5852 7.15764 12.3976C6.9701 12.2101 6.86473 11.9558 6.86473 11.6905C6.86473 11.4253 6.9701 11.171 7.15764 10.9835C7.34517 10.7959 7.59951 10.6905 7.86473 10.6905H10.7547V7.79055C10.7547 7.52534 10.8601 7.27097 11.0476 7.08343C11.2352 6.89589 11.4895 6.79055 11.7547 6.79055C12.0199 6.79055 12.2743 6.89589 12.4618 7.08343C12.6494 7.27097 12.7547 7.52534 12.7547 7.79055V10.6905H15.6648C15.93 10.6905 16.1843 10.7959 16.3718 10.9835C16.5594 11.171 16.6648 11.4253 16.6648 11.6905C16.6648 11.9558 16.5594 12.2101 16.3718 12.3976C16.1843 12.5852 15.93 12.6905 15.6648 12.6905Z" fill="#1F1F1F"/>
</svg>
