<svg width="24" height="24" viewBox="0 0 24 24" fill="none" xmlns="http://www.w3.org/2000/svg">
<path d="M21.93 8.33003C21.7226 7.99665 21.4242 7.72948 21.07 7.56001C20.717 7.39239 20.3244 7.32608 19.936 7.36846C19.5476 7.41083 19.1785 7.56025 18.87 7.80003L16.35 9.80003V8.90001C16.3441 8.04408 16.087 7.20873 15.6106 6.49764C15.1341 5.78654 14.4593 5.23101 13.67 4.90001C13.1401 4.68235 12.5728 4.57027 12 4.57002H6.10001C5.52699 4.56844 4.95934 4.68059 4.42999 4.90001C3.36646 5.34655 2.52201 6.19461 2.07999 7.26003C1.86136 7.78611 1.74921 8.35032 1.75 8.92003V15.09C1.75 15.6608 1.86257 16.226 2.0813 16.7532C2.30003 17.2804 2.62062 17.7593 3.02469 18.1624C3.42875 18.5655 3.90836 18.885 4.43606 19.1025C4.96377 19.32 5.52923 19.4313 6.10001 19.43H11.93C13.0806 19.4274 14.1838 18.971 15 18.16C15.4056 17.7583 15.7276 17.2801 15.9473 16.7532C16.167 16.2262 16.2801 15.6609 16.28 15.09V14.19L18.8 16.19C19.1243 16.4462 19.5178 16.5994 19.93 16.63H20.18C20.4923 16.6312 20.8005 16.5593 21.08 16.42C21.431 16.2404 21.7252 15.9669 21.93 15.63C22.1408 15.2983 22.2519 14.9131 22.25 14.52V9.37001C22.2356 9.00141 22.1253 8.64296 21.93 8.33003ZM11.58 13.45C11.7204 13.5907 11.7993 13.7813 11.7993 13.98C11.7993 14.1788 11.7204 14.3694 11.58 14.51C11.5107 14.5801 11.4282 14.6357 11.3372 14.6735C11.2462 14.7113 11.1485 14.7305 11.05 14.73C10.9514 14.7311 10.8536 14.7121 10.7625 14.6743C10.6714 14.6365 10.5889 14.5806 10.52 14.51L9.03998 13.04L7.57999 14.5C7.51074 14.5701 7.4282 14.6257 7.33719 14.6635C7.24618 14.7013 7.14853 14.7205 7.04999 14.72C6.95136 14.7211 6.85357 14.7021 6.76248 14.6643C6.67139 14.6265 6.58889 14.5706 6.51999 14.5C6.44923 14.4311 6.39301 14.3487 6.35461 14.2576C6.31622 14.1666 6.29642 14.0688 6.29642 13.97C6.29642 13.8712 6.31622 13.7734 6.35461 13.6824C6.39301 13.5914 6.44923 13.509 6.51999 13.44L7.97998 11.98L6.51999 10.52C6.38751 10.3779 6.31539 10.1898 6.31882 9.9955C6.32224 9.8012 6.40095 9.61582 6.53836 9.47841C6.67577 9.341 6.86118 9.26226 7.05548 9.25884C7.24978 9.25541 7.43781 9.32753 7.57999 9.46001L9.03998 10.92L10.52 9.45003C10.6622 9.31755 10.8502 9.24543 11.0445 9.24886C11.2388 9.25229 11.4242 9.33099 11.5616 9.4684C11.699 9.60581 11.7777 9.79119 11.7811 9.98549C11.7846 10.1798 11.7125 10.3679 11.58 10.51L10.11 11.98L11.58 13.45Z" fill="#1F1F1F"/>
</svg>
