<svg width="24" height="24" viewBox="0 0 24 24" fill="none" xmlns="http://www.w3.org/2000/svg">
<path d="M8.47836 21.4388C6.69657 20.7679 5.1406 19.6072 3.98983 18.0904C2.83906 16.5737 2.14031 14.7626 1.97412 12.8659H6.29423C6.27783 15.8632 7.0298 18.8148 8.47836 21.4388Z" fill="#1F1F1F"/>
<path d="M15.9836 12.8659C15.8008 18.331 13.8091 22.0739 12.0098 22.0739C10.2106 22.0739 8.21895 18.331 8.03613 12.8659H15.9836Z" fill="#1F1F1F"/>
<path d="M22.0256 12.8659C21.8642 14.7654 21.1661 16.5799 20.0128 18.0977C18.8595 19.6156 17.2985 20.7744 15.5117 21.4388C16.9681 18.8174 17.7237 15.8647 17.7055 12.8659H22.0256Z" fill="#1F1F1F"/>
<path d="M22.0256 11.134H17.7055C17.7263 8.13496 16.9705 5.18159 15.5117 2.56116C17.2985 3.22564 18.8595 4.38435 20.0128 5.90222C21.1661 7.42009 21.8642 9.23455 22.0256 11.134Z" fill="#1F1F1F"/>
<path d="M15.9836 11.134H8.03613C8.21895 5.65933 10.2106 1.92615 12.0098 1.92615C13.8091 1.92615 15.7912 5.65933 15.9836 11.134Z" fill="#1F1F1F"/>
<path d="M8.47836 2.60925C7.02738 5.23237 6.27525 8.18452 6.29423 11.1821H1.97412C2.13695 9.28446 2.83441 7.47181 3.98563 5.95445C5.13685 4.43709 6.69467 3.27718 8.47836 2.60925Z" fill="#1F1F1F"/>
</svg>
