<svg width="24" height="24" viewBox="0 0 24 24" fill="none" xmlns="http://www.w3.org/2000/svg">
<path d="M12.8648 21.2498C12.8646 21.4487 12.7855 21.6394 12.6447 21.78C12.5018 21.9172 12.3126 21.9957 12.1145 22H4.48217C4.28319 22 4.09242 21.921 3.95173 21.7803C3.81103 21.6396 3.73193 21.4487 3.73193 21.2498C3.73193 17.1485 8.22331 13.9676 12.1045 13.9676C12.3027 13.9702 12.492 14.05 12.6321 14.1902C12.7723 14.3303 12.8522 14.5196 12.8547 14.7178L12.8648 21.2498Z" fill="#1F1F1F"/>
<path d="M16.8658 9.07603C16.4818 10.0087 15.8285 10.8057 14.9892 11.3652C14.15 11.9247 13.163 12.2213 12.1544 12.217C10.8012 12.2117 9.50516 11.6712 8.54929 10.7134C7.59341 9.75568 7.05537 8.45858 7.05273 7.10545C7.05332 6.09294 7.35648 5.10366 7.92312 4.26455C8.48395 3.42254 9.28328 2.76712 10.2188 2.38219C11.1544 1.99726 12.1837 1.90037 13.1747 2.10391C14.1664 2.29634 15.0766 2.78454 15.7855 3.5043C16.5045 4.21775 16.9923 5.13086 17.1858 6.1251C17.3716 7.11882 17.2603 8.14525 16.8658 9.07603Z" fill="#1F1F1F"/>
<path d="M16.4755 20.6096C16.3114 20.6088 16.1487 20.5783 15.9954 20.5196C15.842 20.4534 15.7027 20.3583 15.5853 20.2394L14.2549 18.9091C14.1812 18.8404 14.122 18.7576 14.081 18.6655C14.04 18.5735 14.0179 18.4741 14.0162 18.3734C14.0144 18.2727 14.033 18.1727 14.0707 18.0792C14.1085 17.9858 14.1646 17.9009 14.2358 17.8297C14.3071 17.7585 14.3919 17.7023 14.4853 17.6646C14.5787 17.6268 14.6789 17.6083 14.7796 17.6101C14.8803 17.6119 14.9796 17.6339 15.0717 17.6749C15.1637 17.7159 15.2465 17.775 15.3152 17.8488L16.4856 19.0191L19.0064 16.4883C19.1486 16.3558 19.3367 16.2836 19.5311 16.2871C19.7254 16.2905 19.9108 16.3693 20.0483 16.5067C20.1858 16.6442 20.2644 16.8296 20.2678 17.024C20.2713 17.2183 20.1991 17.4064 20.0666 17.5486L17.3658 20.2394C17.2543 20.3582 17.1176 20.4506 16.9657 20.5096C16.8112 20.5772 16.6442 20.6114 16.4755 20.6096Z" fill="#1F1F1F"/>
</svg>
