<svg width="24" height="24" viewBox="0 0 24 24" fill="none" xmlns="http://www.w3.org/2000/svg">
<path d="M21.9112 7.14176C21.5608 5.93842 20.9126 4.84292 20.0264 3.9567C19.1401 3.07047 18.0446 2.42215 16.8413 2.07175C16.5133 1.98707 16.1692 1.98707 15.8413 2.07175C15.5115 2.1675 15.2118 2.34661 14.9713 2.59177L12.7413 4.83176L3.20127 14.3617C2.90086 14.6744 2.7051 15.0728 2.64121 15.5017L2.03123 19.6617C1.98421 19.973 2.00821 20.291 2.10129 20.5917C2.20345 20.8914 2.37079 21.1646 2.59128 21.3917C2.81516 21.6138 3.08479 21.7844 3.38132 21.8917C3.58781 21.9596 3.80387 21.9934 4.02122 21.9917H4.31126L8.47129 21.3817C8.90559 21.326 9.30962 21.1292 9.62131 20.8217L19.1713 11.2717L21.3912 9.06174C21.6414 8.81694 21.823 8.51078 21.9177 8.17386C22.0125 7.83694 22.0171 7.48106 21.9313 7.14176H21.9112ZM20.4513 7.77176C20.4241 7.85579 20.3759 7.93151 20.3113 7.99176L18.6213 9.68176L14.3013 5.37177L16.0112 3.66174C16.0769 3.60129 16.1557 3.5568 16.2413 3.53174H16.3912H16.4713C17.418 3.81334 18.2796 4.3266 18.978 5.02503C19.6764 5.72345 20.1897 6.585 20.4713 7.53174C20.4818 7.61225 20.475 7.6941 20.4513 7.77176Z" fill="#1F1F1F"/>
</svg>
