<svg width="24" height="24" viewBox="0 0 24 24" fill="none" xmlns="http://www.w3.org/2000/svg">
<path d="M20.6151 4.16999C20.1785 3.73171 19.6595 3.38413 19.088 3.14728C18.5165 2.91044 17.9038 2.78901 17.2851 2.78998H6.70515C6.08578 2.78998 5.4725 2.91213 4.9004 3.14945C4.3283 3.38678 3.8086 3.73462 3.3711 4.17304C2.93361 4.61146 2.58689 5.13188 2.35078 5.70447C2.11467 6.27707 1.99381 6.89062 1.99513 7.50998V14.11C1.99381 14.7294 2.11467 15.3429 2.35078 15.9155C2.58689 16.4881 2.93361 17.0085 3.3711 17.4469C3.8086 17.8853 4.3283 18.2332 4.9004 18.4705C5.4725 18.7078 6.08578 18.83 6.70515 18.83H9.04511L10.9851 20.77C11.1115 20.9094 11.2659 21.0207 11.4382 21.0965C11.6105 21.1723 11.7969 21.211 11.9851 21.21C12.1749 21.2097 12.3625 21.1688 12.5351 21.09C12.704 21.0272 12.855 20.9242 12.9751 20.79L14.9751 18.79H17.3151C18.5638 18.7875 19.7608 18.2915 20.6451 17.41C21.074 16.9692 21.4135 16.4497 21.6451 15.88C21.8841 15.3065 22.0064 14.6912 22.0051 14.07V7.46998C21.9943 6.22988 21.4948 5.0441 20.6151 4.16999ZM11.8951 17.02C11.6479 17.02 11.4062 16.9467 11.2007 16.8093C10.9951 16.6719 10.8349 16.4767 10.7403 16.2483C10.6457 16.0199 10.6209 15.7686 10.6691 15.5261C10.7173 15.2837 10.8364 15.0609 11.0112 14.8861C11.186 14.7113 11.4088 14.5922 11.6512 14.544C11.8937 14.4958 12.1451 14.5205 12.3735 14.6151C12.6019 14.7097 12.7971 14.8699 12.9344 15.0755C13.0718 15.2811 13.1451 15.5227 13.1451 15.77C13.1451 16.1015 13.0134 16.4195 12.779 16.6539C12.5446 16.8883 12.2267 17.02 11.8951 17.02ZM15.2051 10.22C15.0273 10.636 14.7651 11.0105 14.4351 11.32C14.1046 11.6284 13.7128 11.8635 13.2851 12.01C13.1828 12.0533 13.0933 12.1222 13.0251 12.21C12.9534 12.3126 12.915 12.4348 12.9151 12.56V13.13C12.9151 13.3952 12.8098 13.6495 12.6222 13.8371C12.4347 14.0246 12.1804 14.13 11.9151 14.13C11.6499 14.13 11.3955 14.0246 11.208 13.8371C11.0205 13.6495 10.9151 13.3952 10.9151 13.13V12.53C10.9257 12.0059 11.0921 11.4968 11.3931 11.0676C11.694 10.6384 12.116 10.3085 12.6052 10.12C12.7812 10.0691 12.9424 9.97646 13.0751 9.84998C13.1992 9.7349 13.2979 9.59528 13.3651 9.43998C13.4302 9.28509 13.461 9.11791 13.4551 8.94999C13.4544 8.78062 13.4168 8.61341 13.3451 8.45997C13.2315 8.26382 13.0783 8.09353 12.8951 7.95997C12.6974 7.82293 12.4721 7.73079 12.2351 7.68998C11.8716 7.62155 11.4958 7.67423 11.1651 7.83997C10.849 8.00843 10.5963 8.27521 10.4451 8.59998C10.3351 8.84133 10.1336 9.02906 9.88514 9.12189C9.63665 9.21472 9.36147 9.20504 9.12013 9.09498C8.87878 8.98491 8.69104 8.78349 8.59821 8.53501C8.50538 8.28652 8.51507 8.01131 8.62513 7.76996C8.96058 7.03859 9.53076 6.44027 10.2451 6.06998C10.9591 5.70189 11.7743 5.57889 12.5651 5.71998C13.1017 5.8072 13.6114 6.01585 14.0551 6.32999C14.5034 6.65033 14.8699 7.07168 15.1251 7.55997C15.3285 7.97165 15.441 8.42228 15.4548 8.88126C15.4686 9.34024 15.3834 9.79682 15.2051 10.22Z" fill="#1F1F1F"/>
</svg>
