<svg width="24" height="24" viewBox="0 0 24 24" fill="none" xmlns="http://www.w3.org/2000/svg">
<path d="M21.0034 15.5781C20.7814 15.0198 20.489 14.4922 20.1334 14.0081C19.6797 13.4686 19.3731 12.8209 19.2434 12.128C19.2434 9.23805 19.2434 8.25807 17.6634 6.36807C17.1398 5.75063 16.4925 5.24985 15.7634 4.89807L15.0334 4.54806C14.993 4.5226 14.9589 4.48843 14.9334 4.44806C14.9088 4.41934 14.8916 4.38499 14.8834 4.34805C14.7773 3.66172 14.4172 3.04029 13.8745 2.6069C13.3319 2.17351 12.6462 1.95978 11.9534 2.00805C11.283 1.98104 10.6255 2.1983 10.1032 2.61947C9.58079 3.04065 9.22909 3.63713 9.11336 4.29806C9.10378 4.34548 9.08324 4.39001 9.05337 4.42807C9.02521 4.46337 8.99142 4.49377 8.95336 4.51806L8.17336 4.89807C7.43708 5.24735 6.78542 5.7523 6.26337 6.37805C4.69337 8.25805 4.69336 9.23805 4.69336 12.128C4.57695 12.7788 4.29449 13.3885 3.87336 13.8981C3.50534 14.394 3.2091 14.9394 2.99337 15.5181C2.85892 15.9078 2.8125 16.3224 2.85746 16.7322C2.90241 17.142 3.03762 17.5368 3.25336 17.8881C3.48152 18.1788 3.77806 18.4085 4.11655 18.5568C4.45504 18.7051 4.82497 18.7674 5.19336 18.7381H8.01337C8.05608 19.0057 8.1299 19.2675 8.23336 19.5181C8.43265 20.0116 8.72844 20.4603 9.10337 20.838C9.47826 21.2165 9.92778 21.5128 10.4234 21.7081C10.8839 21.8961 11.376 21.9945 11.8734 21.998H11.9534C12.4844 22.0074 13.0117 21.9087 13.5034 21.7081C14.0002 21.5152 14.4502 21.2185 14.8234 20.838C15.2027 20.4639 15.4992 20.0142 15.6934 19.5181C15.7943 19.2658 15.8713 19.0047 15.9234 18.7381H18.8634C19.2097 18.7367 19.5513 18.6581 19.8634 18.5081C20.2146 18.3307 20.5168 18.0697 20.7434 17.748C20.9694 17.4257 21.1073 17.05 21.1434 16.658C21.188 16.292 21.1398 15.9206 21.0034 15.5781ZM14.5034 12.248H9.50336C9.30445 12.248 9.11368 12.169 8.97303 12.0284C8.83238 11.8877 8.75336 11.697 8.75336 11.498C8.75336 11.2991 8.83238 11.1084 8.97303 10.9677C9.11368 10.8271 9.30445 10.748 9.50336 10.748H14.5034C14.7023 10.748 14.8931 10.8271 15.0337 10.9677C15.1744 11.1084 15.2534 11.2991 15.2534 11.498C15.2534 11.697 15.1744 11.8877 15.0337 12.0284C14.8931 12.169 14.7023 12.248 14.5034 12.248Z" fill="#1F1F1F"/>
</svg>
