<svg width="24" height="24" viewBox="0 0 24 24" fill="none" xmlns="http://www.w3.org/2000/svg">
<path d="M19.105 11.4462C19.1095 11.7909 19.0378 12.1324 18.895 12.4462C18.7449 12.7775 18.5147 13.0662 18.225 13.2862L8.57504 20.7962C8.23532 21.0552 7.83021 21.2145 7.40505 21.2562H7.17504C6.8273 21.2575 6.48433 21.1751 6.17504 21.0162C5.79926 20.8317 5.48125 20.5477 5.25558 20.195C5.02991 19.8424 4.9052 19.4347 4.89505 19.0162V5.01618C4.89297 4.60292 5.00736 4.19746 5.22506 3.84619C5.43574 3.49496 5.73751 3.20727 6.09841 3.01361C6.45932 2.81996 6.8659 2.72754 7.27505 2.74619C7.68734 2.7664 8.08721 2.89394 8.43505 3.11618L18.095 9.55619C18.3892 9.76045 18.6349 10.0267 18.815 10.3362C19.0056 10.6751 19.1054 11.0574 19.105 11.4462Z" fill="#1F1F1F"/>
</svg>
