<svg width="24" height="24" viewBox="0 0 24 24" fill="none" xmlns="http://www.w3.org/2000/svg">
<path d="M20.4349 4.89827C20.4068 4.86008 20.3731 4.82636 20.3349 4.79826H20.2749C17.8615 3.00665 14.9356 2.03931 11.9299 2.03931C8.92419 2.03931 5.99828 3.00665 3.5849 4.79826C3.54228 4.8208 3.50745 4.85565 3.48491 4.89827C3.36519 5.02501 3.30047 5.19398 3.3049 5.36827V17.2583C3.31543 17.8461 3.47731 18.4213 3.77491 18.9283C4.0702 19.4388 4.49433 19.863 5.0049 20.1583C7.13165 21.3824 9.55145 22.0046 12.0049 21.9583H12.2849C14.64 21.9612 16.9542 21.3438 18.9949 20.1683C19.5083 19.8732 19.9357 19.4492 20.2349 18.9383C20.5274 18.4224 20.6856 17.8412 20.6949 17.2483V5.37827C20.6859 5.28492 20.6583 5.19433 20.6136 5.11188C20.569 5.02942 20.5082 4.95678 20.4349 4.89827ZM19.1049 11.5983C17.0015 13.0692 14.4967 13.8582 11.9299 13.8582C9.36313 13.8582 6.85837 13.0692 4.7549 11.5983V6.89827C6.87711 8.26569 9.37309 8.93688 11.8949 8.81827H12.4849C14.8399 8.82971 17.1484 8.16319 19.1349 6.89827L19.1049 11.5983Z" fill="#1F1F1F"/>
</svg>
