<svg width="24" height="24" viewBox="0 0 24 24" fill="none" xmlns="http://www.w3.org/2000/svg">
<path d="M5.93501 19.6868C5.75393 19.6855 5.57959 19.6179 5.44501 19.4968C5.08664 19.1895 4.75233 18.8551 4.44501 18.4968C2.87039 16.6975 2.00244 14.3878 2.00244 11.9968C2.00244 9.60578 2.87039 7.29607 4.44501 5.49678C4.75233 5.13841 5.08664 4.8041 5.44501 4.49678C5.51914 4.43163 5.6054 4.38174 5.69884 4.34999C5.79228 4.31824 5.89106 4.30525 5.98953 4.31175C6.08801 4.31825 6.18423 4.34413 6.27269 4.38789C6.36114 4.43165 6.44009 4.49245 6.505 4.56679C6.63409 4.71761 6.69904 4.91294 6.68596 5.11104C6.67288 5.30913 6.58281 5.49424 6.43501 5.62678C6.12883 5.88966 5.84145 6.1737 5.57501 6.47679C4.25413 8.00475 3.52725 9.95704 3.52725 11.9768C3.52725 13.9965 4.25413 15.9488 5.57501 17.4768C5.84415 17.7742 6.13136 18.0547 6.43501 18.3168C6.55239 18.4171 6.63593 18.5512 6.67424 18.7008C6.71255 18.8504 6.70376 19.0082 6.64906 19.1526C6.59437 19.297 6.49642 19.4209 6.36862 19.5076C6.24082 19.5943 6.0894 19.6394 5.93501 19.6368V19.6868Z" fill="#1F1F1F"/>
<path d="M8.4048 17.1268C8.23464 17.1276 8.06915 17.0712 7.93481 16.9668C7.58612 16.698 7.27353 16.3855 7.0048 16.0368C6.06787 14.897 5.55566 13.4672 5.55566 11.9918C5.55566 10.5163 6.06787 9.08659 7.0048 7.94677C7.27736 7.60104 7.5933 7.29182 7.94481 7.02676C8.02186 6.96531 8.11041 6.91986 8.20526 6.89309C8.30011 6.86633 8.39934 6.8588 8.49714 6.87091C8.59495 6.88302 8.68937 6.91453 8.77482 6.96362C8.86028 7.01271 8.93508 7.07838 8.99481 7.15677C9.10131 7.30979 9.14699 7.497 9.12295 7.68188C9.09892 7.86676 9.00689 8.03606 8.86481 8.15677C8.60811 8.35464 8.3764 8.58297 8.1748 8.83676C7.45385 9.7109 7.05955 10.8087 7.05955 11.9418C7.05955 13.0749 7.45385 14.1726 8.1748 15.0467C8.37998 15.3037 8.61496 15.5353 8.8748 15.7368C9.03151 15.8608 9.13303 16.0417 9.15736 16.2401C9.18169 16.4385 9.12689 16.6385 9.0048 16.7967C8.93703 16.8943 8.8476 16.9749 8.74351 17.0321C8.63942 17.0894 8.52349 17.1218 8.4048 17.1268Z" fill="#1F1F1F"/>
<path d="M14.955 11.9968C14.945 12.5408 14.7821 13.0709 14.485 13.5268C14.23 13.9168 13.8876 14.2421 13.485 14.4768C13.0231 14.7651 12.4895 14.9176 11.945 14.9168C11.4022 14.9154 10.87 14.7668 10.405 14.4868C9.99904 14.2349 9.6568 13.8927 9.40497 13.4868C9.12103 13.0251 8.9707 12.4937 8.9707 11.9517C8.9707 11.4098 9.12103 10.8784 9.40497 10.4168C9.81853 9.75456 10.474 9.27964 11.2321 9.09292C11.9902 8.9062 12.7912 9.02238 13.465 9.41678C13.8709 9.66861 14.2132 10.0108 14.465 10.4168C14.7815 10.8832 14.9521 11.4331 14.955 11.9968Z" fill="#1F1F1F"/>
<path d="M15.605 17.1268C15.4922 17.1262 15.3808 17.1008 15.2789 17.0524C15.1769 17.004 15.0868 16.9338 15.015 16.8468C14.9533 16.7689 14.9076 16.6795 14.8808 16.5839C14.8539 16.4882 14.8462 16.3882 14.8583 16.2896C14.8704 16.191 14.902 16.0957 14.9512 16.0094C15.0004 15.9231 15.0663 15.8474 15.145 15.7868C15.3982 15.5883 15.6265 15.3599 15.825 15.1067C16.5514 14.2351 16.9492 13.1364 16.9492 12.0018C16.9492 10.8671 16.5514 9.76839 15.825 8.89675C15.6207 8.64242 15.3893 8.41106 15.135 8.20675C15.0496 8.14934 14.9768 8.07495 14.9214 7.98821C14.8659 7.90148 14.8289 7.80426 14.8127 7.7026C14.7964 7.60094 14.8013 7.497 14.8269 7.3973C14.8526 7.2976 14.8985 7.20426 14.9618 7.12307C15.0251 7.04188 15.1044 6.97461 15.1949 6.92541C15.2853 6.87621 15.3849 6.84616 15.4875 6.83712C15.59 6.82809 15.6933 6.84026 15.791 6.87289C15.8886 6.90552 15.9785 6.95789 16.055 7.02676C16.4069 7.29525 16.7228 7.60779 16.995 7.95675C17.9355 9.09492 18.4501 10.5253 18.4501 12.0018C18.4501 13.4783 17.9355 14.9086 16.995 16.0467C16.726 16.3923 16.4134 16.7015 16.065 16.9668C15.9341 17.0705 15.772 17.1269 15.605 17.1268Z" fill="#1F1F1F"/>
<path d="M18.0651 19.6868C17.9116 19.6873 17.7616 19.6407 17.6354 19.5532C17.5092 19.4658 17.4129 19.3417 17.3594 19.1978C17.306 19.0539 17.298 18.897 17.3366 18.7484C17.3752 18.5998 17.4584 18.4666 17.5751 18.3668C17.8781 18.1038 18.1621 17.8197 18.4251 17.5168C19.7519 15.9916 20.4826 14.0382 20.4826 12.0168C20.4826 9.99528 19.7519 8.04193 18.4251 6.51677C18.1594 6.21944 17.8756 5.9389 17.5751 5.67677C17.4259 5.54561 17.3339 5.36123 17.319 5.1631C17.304 4.96497 17.3672 4.76885 17.4951 4.61677C17.56 4.54244 17.639 4.48167 17.7274 4.43791C17.8159 4.39415 17.9121 4.36827 18.0106 4.36177C18.1091 4.35527 18.2078 4.36826 18.3013 4.40001C18.3947 4.43176 18.481 4.48162 18.5551 4.54677C18.9132 4.85438 19.2475 5.18867 19.5551 5.54677C21.1297 7.34606 21.9977 9.65577 21.9977 12.0468C21.9977 14.4378 21.1297 16.7475 19.5551 18.5468C19.2475 18.9049 18.9132 19.2392 18.5551 19.5468C18.4152 19.6533 18.2402 19.7033 18.0651 19.6868Z" fill="#1F1F1F"/>
</svg>
