<svg width="24" height="24" viewBox="0 0 24 24" fill="none" xmlns="http://www.w3.org/2000/svg">
<path d="M18.0801 12C18.0801 12.5302 18.5099 12.96 19.0401 12.96C19.5703 12.96 20.0001 12.5302 20.0001 12C20.0001 11.4698 19.5703 11.04 19.0401 11.04C18.5099 11.04 18.0801 11.4698 18.0801 12Z" stroke="#1F1F1F" stroke-width="1.5" stroke-linecap="round" stroke-linejoin="round"/>
<path d="M11.04 12C11.04 12.5302 11.4698 12.96 12 12.96C12.5302 12.96 12.96 12.5302 12.96 12C12.96 11.4698 12.5302 11.04 12 11.04C11.4698 11.04 11.04 11.4698 11.04 12Z" stroke="#1F1F1F" stroke-width="1.5" stroke-linecap="round" stroke-linejoin="round"/>
<path d="M4 12C4 12.5302 4.42983 12.96 4.96 12.96C5.49018 12.96 5.92 12.5302 5.92 12C5.92 11.4698 5.49018 11.04 4.96 11.04C4.42983 11.04 4 11.4698 4 12Z" stroke="#1F1F1F" stroke-width="1.5" stroke-linecap="round" stroke-linejoin="round"/>
</svg>
