<svg width="24" height="24" viewBox="0 0 24 24" fill="none" xmlns="http://www.w3.org/2000/svg">
<path d="M3.88867 3.69999V20.3" stroke="#1F1F1F" stroke-width="1.5" stroke-linecap="round" stroke-linejoin="round"/>
<path d="M20.1111 18.6238V5.38035C20.1105 5.10882 20.0339 4.84289 19.89 4.61263C19.7461 4.38236 19.5406 4.19694 19.2969 4.07733C19.0531 3.95772 18.7807 3.90869 18.5106 3.93578C18.2404 3.96288 17.9832 4.06501 17.768 4.23064L8.59947 11.3617C8.41792 11.5034 8.27258 11.6862 8.17541 11.895C8.07825 12.1038 8.03203 12.3327 8.04055 12.5628C8.04908 12.793 8.1121 13.0178 8.22445 13.2189C8.33679 13.4199 8.49525 13.5915 8.68679 13.7193L17.8554 19.8317C18.0742 19.9758 18.328 20.0582 18.5898 20.0701C18.8516 20.082 19.1118 20.023 19.3428 19.8992C19.5738 19.7755 19.7672 19.5917 19.9024 19.3672C20.0377 19.1427 20.1098 18.8859 20.1111 18.6238Z" stroke="#1F1F1F" stroke-width="1.5" stroke-linecap="round" stroke-linejoin="round"/>
</svg>
