<svg width="24" height="24" viewBox="0 0 24 24" fill="none" xmlns="http://www.w3.org/2000/svg">
<path d="M19.6325 7.11089L13.1591 3.08871C12.805 2.86736 12.3957 2.75 11.9781 2.75C11.5605 2.75 11.1512 2.86736 10.7971 3.08871L4.32367 7.13318C3.95559 7.36509 3.66346 7.69966 3.48329 8.09564C3.30312 8.49161 3.2428 8.93168 3.30977 9.36153L4.98103 19.3891C5.06885 19.9144 5.34187 20.3908 5.75064 20.7321C6.15941 21.0734 6.6769 21.2571 7.20938 21.2498H16.7913C17.3238 21.2571 17.8413 21.0734 18.2501 20.7321C18.6588 20.3908 18.9319 19.9144 19.0197 19.3891L20.6909 9.36153C20.7582 8.92366 20.6935 8.47568 20.5049 8.07479C20.3164 7.67391 20.0126 7.33833 19.6325 7.11089Z" stroke="#1F1F1F" stroke-width="1.5" stroke-linecap="round" stroke-linejoin="round"/>
<path d="M14.6111 11.5381H9.38862C8.66755 11.5381 8.08301 12.0789 8.08301 12.7458V16.3689C8.08301 17.0359 8.66755 17.5766 9.38862 17.5766H14.6111C15.3321 17.5766 15.9167 17.0359 15.9167 16.3689V12.7458C15.9167 12.0789 15.3321 11.5381 14.6111 11.5381Z" stroke="#1F1F1F" stroke-width="1.5" stroke-linecap="round" stroke-linejoin="round"/>
<path d="M9.58447 11.5382V10.3305C9.58447 9.68987 9.83894 9.07552 10.2919 8.62255C10.7449 8.16957 11.3592 7.91508 11.9998 7.91508C12.6404 7.91508 13.2548 8.16957 13.7078 8.62255C14.1607 9.07552 14.4152 9.68987 14.4152 10.3305V11.5382" stroke="#1F1F1F" stroke-width="1.5" stroke-linecap="round" stroke-linejoin="round"/>
</svg>
