<svg width="24" height="24" viewBox="0 0 24 24" fill="none" xmlns="http://www.w3.org/2000/svg">
<path d="M21.1899 12.6832C18.6899 18.0932 12.5699 20.8832 12.3099 21.0032C12.2115 21.0434 12.1061 21.0638 11.9999 21.0632C11.8937 21.0628 11.7885 21.0424 11.6899 21.0032C11.4399 20.8832 5.30989 18.0932 2.80989 12.6832C1.25989 9.31326 2.11989 5.68326 3.80989 4.12326C4.40185 3.61599 5.10569 3.25632 5.8636 3.07379C6.62151 2.89127 7.41187 2.8911 8.16987 3.07327C9.72087 3.42584 11.0754 4.36467 11.9499 5.69327C12.826 4.36182 14.1847 3.4225 15.7398 3.07327C16.4978 2.8911 17.2882 2.89127 18.0461 3.07379C18.804 3.25632 19.5079 3.61599 20.0998 4.12326C21.8798 5.68326 22.7499 9.31326 21.1899 12.6832Z" fill="#1F1F1F"/>
</svg>
