<svg width="24" height="24" viewBox="0 0 24 24" fill="none" xmlns="http://www.w3.org/2000/svg">
<path d="M21.9597 17.9772C21.9597 19.0381 21.5383 20.0555 20.7882 20.8056C20.038 21.5558 19.0206 21.9772 17.9597 21.9772C16.8989 21.9772 15.8815 21.5558 15.1313 20.8056C14.3812 20.0555 13.9597 19.0381 13.9597 17.9772C13.9592 17.7425 13.9792 17.5083 14.0197 17.2772L9.11981 15.0572C8.74538 15.5218 8.27171 15.8967 7.73358 16.1546C7.19545 16.4124 6.60646 16.5465 6.00977 16.5472C4.9489 16.5472 3.93148 16.1258 3.18134 15.3756C2.43119 14.6255 2.00977 13.6081 2.00977 12.5472C2.00977 11.4863 2.43119 10.4689 3.18134 9.71877C3.93148 8.96862 4.9489 8.5472 6.00977 8.5472C6.55823 8.54896 7.10052 8.66352 7.60284 8.88372C8.10517 9.10391 8.55685 9.42505 8.92981 9.8272L14.0897 7.02721C13.9994 6.70168 13.9557 6.36501 13.9597 6.02721C13.9587 5.09657 14.2822 4.19469 14.8745 3.47689C15.4669 2.75908 16.2909 2.27029 17.2049 2.09465C18.1188 1.91902 19.0653 2.06755 19.8815 2.51467C20.6977 2.96178 21.3325 3.67951 21.6765 4.54424C22.0205 5.40896 22.0522 6.36656 21.7661 7.25215C21.4801 8.13775 20.8942 8.8959 20.1094 9.39604C19.3246 9.89619 18.3899 10.107 17.4664 9.99224C16.5429 9.87746 15.6883 9.44424 15.0498 8.7672L9.88977 11.5772C9.98033 11.9027 10.0241 12.2394 10.0197 12.5772C10.0203 12.8118 10.0002 13.0461 9.95978 13.2772L14.8598 15.4972C15.378 14.8459 16.0864 14.3725 16.8864 14.1429C17.6864 13.9133 18.5381 13.9389 19.3228 14.2163C20.1075 14.4936 20.7862 15.0089 21.2642 15.6902C21.7423 16.3715 21.9959 17.1849 21.9898 18.0172L21.9597 17.9772Z" fill="#1F1F1F"/>
</svg>
