<svg width="24" height="24" viewBox="0 0 24 24" fill="none" xmlns="http://www.w3.org/2000/svg">
<path d="M21.46 13.06V20.14C21.4573 20.56 21.2886 20.9619 20.9907 21.2579C20.6928 21.5539 20.2899 21.72 19.87 21.72H18.01C17.59 21.72 17.1871 21.5539 16.8892 21.2579C16.5913 20.9619 16.4226 20.56 16.4199 20.14V13.06C16.4199 12.6383 16.5875 12.2339 16.8856 11.9357C17.1838 11.6375 17.5883 11.47 18.01 11.47H19.88C20.2999 11.4727 20.7018 11.6414 20.9978 11.9393C21.2938 12.2372 21.46 12.6401 21.46 13.06Z" fill="#1F1F1F"/>
<path d="M14.5197 8.47001V20.17C14.5171 20.59 14.3484 20.9918 14.0505 21.2878C13.7526 21.5839 13.3497 21.75 12.9297 21.75H11.0597C10.6397 21.75 10.2368 21.5839 9.93891 21.2878C9.64101 20.9918 9.47237 20.59 9.46973 20.17V8.47001C9.46973 8.04832 9.63724 7.64389 9.93543 7.3457C10.2336 7.04752 10.638 6.88 11.0597 6.88H12.9297C13.1385 6.88 13.3453 6.92112 13.5382 7.00102C13.7311 7.08093 13.9064 7.19806 14.054 7.3457C14.2017 7.49335 14.3188 7.66862 14.3987 7.86153C14.4786 8.05443 14.5197 8.26121 14.5197 8.47001Z" fill="#1F1F1F"/>
<path d="M7.58002 3.84V20.17C7.58002 20.589 7.41355 20.9909 7.11725 21.2872C6.82094 21.5835 6.41904 21.75 6 21.75H4.11999C3.70095 21.75 3.29911 21.5835 3.00281 21.2872C2.7065 20.9909 2.54004 20.589 2.54004 20.17V3.84C2.54003 3.42003 2.70617 3.01712 3.0022 2.71922C3.29822 2.42133 3.70003 2.25264 4.11999 2.25H6.01001C6.42823 2.25526 6.82753 2.4251 7.1214 2.72272C7.41527 3.02033 7.58005 3.42174 7.58002 3.84Z" fill="#1F1F1F"/>
</svg>
