<svg width="24" height="24" viewBox="0 0 24 24" fill="none" xmlns="http://www.w3.org/2000/svg">
<path d="M19.4488 4.89459V4.8046L19.3888 4.67459L19.2988 4.57458L19.2388 4.51459C17.1081 2.91695 14.5168 2.05334 11.8538 2.05334C9.1907 2.05334 6.59942 2.91695 4.46879 4.51459L4.37878 4.6046C4.35482 4.64249 4.33472 4.68269 4.31878 4.72459C4.30978 4.76409 4.30978 4.8051 4.31878 4.84459C4.30845 4.90078 4.30845 4.95839 4.31878 5.01459V17.7346C4.32303 18.2668 4.46648 18.7887 4.73489 19.2483C5.0033 19.708 5.38732 20.0894 5.84878 20.3546C7.71179 21.4355 9.8353 21.9854 11.9888 21.9446H12.2288C14.3096 21.9459 16.3544 21.4011 18.1588 20.3646C18.6227 20.0988 19.0088 19.7161 19.2788 19.2546C19.55 18.7905 19.6916 18.2621 19.6888 17.7246V5.03459C19.6167 4.97551 19.5357 4.92826 19.4488 4.89459ZM11.7888 3.47459C13.7837 3.38131 15.7563 3.92789 17.4188 5.03459C15.7038 6.05605 13.7448 6.59528 11.7488 6.59528C9.75271 6.59528 7.7937 6.05605 6.07879 5.03459C7.76741 3.91976 9.76789 3.37323 11.7888 3.47459ZM17.9688 13.8946C16.1524 15.1548 13.9945 15.8301 11.7838 15.8301C9.57308 15.8301 7.41512 15.1548 5.59878 13.8946V11.1046C7.4412 12.2443 9.58452 12.802 11.7488 12.7046C13.9355 12.8056 16.1022 12.2482 17.9688 11.1046V13.8946Z" fill="#1F1F1F"/>
</svg>
