<svg width="24" height="24" viewBox="0 0 24 24" fill="none" xmlns="http://www.w3.org/2000/svg">
<path d="M22.0471 18.9248C21.9251 19.5111 21.6084 20.0388 21.1486 20.4224C20.604 20.9728 19.9494 21.4021 19.2276 21.6824C18.5971 21.9204 17.9289 22.0428 17.255 22.0438H16.8935C15.3901 21.9908 13.9122 21.6398 12.5455 21.011C12.2047 20.8561 11.8845 20.7012 11.585 20.536C9.98241 19.6342 8.51226 18.515 7.21632 17.2104C5.51257 15.6451 4.11211 13.779 3.0852 11.7057C2.55 10.5601 2.20134 9.33629 2.05241 8.08062C1.79965 6.7833 1.94733 5.43978 2.47586 4.22834C2.79761 3.66841 3.19753 3.15721 3.66355 2.71015C3.8643 2.48252 4.1106 2.29957 4.3865 2.17311C4.6751 2.03949 4.98778 1.96572 5.30568 1.95624C5.66875 1.98112 6.02165 2.08697 6.33846 2.26606C6.63125 2.42549 6.88518 2.64768 7.08206 2.91672L8.33173 4.20769C8.65189 4.52786 8.96172 4.84803 9.28188 5.18885C9.65881 5.52345 9.89498 5.9884 9.94286 6.49013V6.59342C9.90403 7.01051 9.7341 7.40459 9.45745 7.71914C9.27619 7.94271 9.08313 8.15645 8.8791 8.35946L8.60025 8.64864C8.48093 8.76658 8.38616 8.90701 8.3214 9.06178C8.27491 9.19435 8.25389 9.33451 8.25943 9.47488C8.42074 9.9388 8.68159 10.3618 9.02369 10.7142C9.57106 11.4372 10.0565 12.1188 10.6142 12.7281C11.6032 13.8618 12.7721 14.8248 14.074 15.5786C14.2011 15.6753 14.3501 15.7392 14.5078 15.7645C14.6443 15.7829 14.7832 15.7651 14.9106 15.7129C15.2667 15.4904 15.5841 15.2113 15.8504 14.8866C16.2288 14.4355 16.7637 14.1441 17.3479 14.0707C17.9103 14.0766 18.448 14.3028 18.8455 14.7008C19.0417 14.8867 19.2586 15.1035 19.4755 15.3307L19.8266 15.7026L20.1571 16.0227C20.3533 16.2086 20.5289 16.3842 20.7045 16.5804C21.039 16.8824 21.3563 17.2031 21.6546 17.5409C21.8225 17.7396 21.9458 17.9721 22.0161 18.2225C22.0726 18.4523 22.0831 18.691 22.0471 18.9248Z" fill="#1F1F1F"/>
<path d="M18.9486 7.3783C18.9486 7.58374 18.867 7.78076 18.7217 7.92602C18.5765 8.07129 18.3794 8.15289 18.174 8.15289H16.2943V10.0222C16.2943 10.2277 16.2127 10.4247 16.0675 10.5699C15.9222 10.7152 15.7252 10.7968 15.5198 10.7968C15.3143 10.7968 15.1173 10.7152 14.972 10.5699C14.8268 10.4247 14.7452 10.2277 14.7452 10.0222V8.15289H12.8552C12.6497 8.15289 12.4527 8.07129 12.3075 7.92602C12.1622 7.78076 12.0806 7.58374 12.0806 7.3783C12.0806 7.17287 12.1622 6.97585 12.3075 6.83059C12.4527 6.68532 12.6497 6.60372 12.8552 6.60372H14.7245V4.72405C14.7245 4.51862 14.8061 4.32159 14.9514 4.17633C15.0967 4.03107 15.2937 3.94946 15.4991 3.94946C15.7045 3.94946 15.9016 4.03107 16.0468 4.17633C16.1921 4.32159 16.2737 4.51862 16.2737 4.72405V6.60372H18.1534C18.2568 6.60096 18.3597 6.61895 18.4561 6.65664C18.5525 6.69433 18.6403 6.75094 18.7145 6.82315C18.7886 6.89535 18.8475 6.98167 18.8877 7.07702C18.9279 7.17237 18.9486 7.27482 18.9486 7.3783Z" fill="#1F1F1F"/>
</svg>
