<svg width="24" height="24" viewBox="0 0 24 24" fill="none" xmlns="http://www.w3.org/2000/svg">
<path d="M20.3716 3.86038V14.7404C20.3719 14.8829 20.3317 15.0225 20.2555 15.1429C20.1794 15.2633 20.0706 15.3596 19.9417 15.4204C18.4899 16.1184 16.9111 16.5131 15.3017 16.5804C13.9636 16.6095 12.6553 16.1828 11.5917 15.3704C10.7873 14.715 9.77911 14.3613 8.74158 14.3704C7.49518 14.2948 6.25069 14.5464 5.1316 15.1004V21.2304C5.1316 21.4293 5.05264 21.6201 4.91199 21.7607C4.77134 21.9014 4.58051 21.9804 4.3816 21.9804C4.18268 21.9804 3.99197 21.9014 3.85132 21.7607C3.71067 21.6201 3.6316 21.4293 3.6316 21.2304V3.86038C3.62671 3.8105 3.62671 3.76025 3.6316 3.71037C3.67095 3.5198 3.78196 3.35157 3.94165 3.24037C4.32165 2.92037 5.67168 2.02039 8.72168 2.02039C10.0512 1.99854 11.3486 2.42866 12.4017 3.24037C13.2064 3.89502 14.2142 4.24865 15.2516 4.24037C16.6389 4.18114 17.9997 3.84094 19.2516 3.24037C19.3659 3.18655 19.4922 3.16289 19.6182 3.17165C19.7442 3.1804 19.866 3.22127 19.9717 3.29037C20.0806 3.34455 20.1742 3.42507 20.2441 3.52461C20.3139 3.62415 20.3577 3.73957 20.3716 3.86038Z" fill="#1F1F1F"/>
</svg>
