<svg width="24" height="24" viewBox="0 0 24 24" fill="none" xmlns="http://www.w3.org/2000/svg">
<path d="M11 4.68001V8.56002C10.9987 9.20931 10.7398 9.83154 10.28 10.29C10.0532 10.5172 9.78347 10.697 9.48645 10.8189C9.18944 10.9408 8.8711 11.0023 8.55005 11H4.68006C4.03466 10.9974 3.41661 10.7391 2.96119 10.2818C2.50576 9.82453 2.25 9.20542 2.25 8.56002V4.69002C2.25 4.04462 2.50576 3.42551 2.96119 2.96821C3.41661 2.5109 4.03466 2.25267 4.68006 2.25002H8.55005C8.87048 2.2487 9.18809 2.31051 9.48462 2.43192C9.78116 2.55333 10.0508 2.73195 10.2783 2.9576C10.5058 3.18325 10.6867 3.4515 10.8105 3.74703C10.9344 4.04256 10.9987 4.35959 11 4.68001Z" fill="#1F1F1F"/>
<path d="M21.75 4.69V8.56C21.7487 9.20439 21.4937 9.82235 21.04 10.28C20.8166 10.5096 20.5491 10.6917 20.2535 10.8154C19.958 10.9392 19.6405 11.0019 19.3201 11H15.4401C14.7933 10.996 14.1732 10.7415 13.7101 10.29C13.4838 10.0625 13.3046 9.79257 13.1827 9.49571C13.0609 9.19885 12.9988 8.88088 13 8.56V4.69C12.9986 4.36969 13.0617 4.05236 13.1854 3.75688C13.3091 3.46141 13.491 3.19382 13.7201 2.97C13.9449 2.74221 14.2127 2.56127 14.5079 2.43768C14.8032 2.31409 15.12 2.25031 15.4401 2.25H19.3101C19.9556 2.25523 20.5732 2.51397 21.0297 2.97043C21.4861 3.42689 21.7448 4.04449 21.75 4.69Z" fill="#1F1F1F"/>
<path d="M11 15.45V19.32C10.995 19.9656 10.7364 20.5834 10.28 21.04C10.0525 21.2663 9.78261 21.4455 9.48575 21.5673C9.18889 21.6891 8.87097 21.7512 8.55008 21.75H4.68009C4.03569 21.7487 3.41777 21.4936 2.96012 21.04C2.73368 20.8147 2.55429 20.5466 2.43241 20.2513C2.31052 19.956 2.24848 19.6394 2.25003 19.32V15.45C2.24848 15.1306 2.31052 14.814 2.43241 14.5187C2.55429 14.2234 2.73368 13.9553 2.96012 13.73C3.41574 13.2708 4.03328 13.0087 4.68009 13H8.55008C9.19905 13.0026 9.82068 13.2616 10.2796 13.7205C10.7384 14.1794 10.9974 14.801 11 15.45Z" fill="#1F1F1F"/>
<path d="M20.4203 19.37C20.5607 19.5107 20.6396 19.7013 20.6396 19.9C20.6396 20.0988 20.5607 20.2894 20.4203 20.43C20.2796 20.5705 20.089 20.6494 19.8902 20.6494C19.6915 20.6494 19.5009 20.5705 19.3603 20.43L17.3603 18.43L15.3603 20.43C15.2911 20.5002 15.2085 20.5557 15.1175 20.5935C15.0265 20.6313 14.9288 20.6505 14.8303 20.65C14.7315 20.6523 14.6333 20.6339 14.5421 20.596C14.4508 20.5581 14.3684 20.5016 14.3003 20.43C14.2295 20.3611 14.1732 20.2787 14.1349 20.1877C14.0965 20.0966 14.0767 19.9988 14.0767 19.9C14.0767 19.8012 14.0965 19.7035 14.1349 19.6124C14.1732 19.5214 14.2295 19.439 14.3003 19.37L16.3003 17.37L14.3003 15.37C14.2295 15.3011 14.1732 15.2187 14.1349 15.1277C14.0965 15.0366 14.0767 14.9388 14.0767 14.84C14.0767 14.7412 14.0965 14.6435 14.1349 14.5524C14.1732 14.4614 14.2295 14.379 14.3003 14.31C14.4409 14.1696 14.6315 14.0907 14.8303 14.0907C15.029 14.0907 15.2197 14.1696 15.3603 14.31L17.3603 16.31L19.3603 14.31C19.5025 14.1776 19.6904 14.1054 19.8847 14.1089C20.079 14.1123 20.2645 14.191 20.4019 14.3284C20.5394 14.4658 20.618 14.6512 20.6214 14.8455C20.6249 15.0398 20.5527 15.2279 20.4203 15.37L18.4203 17.37L20.4203 19.37Z" fill="#1F1F1F"/>
</svg>
