<svg width="24" height="24" viewBox="0 0 24 24" fill="none" xmlns="http://www.w3.org/2000/svg">
<path d="M17.5419 12H6.4585" stroke="#1F1F1F" stroke-width="1.5" stroke-miterlimit="10" stroke-linecap="round"/>
<path d="M12.6968 17.2778L17.2779 12.7495C17.3768 12.6513 17.4553 12.5345 17.5089 12.406C17.5626 12.2773 17.5901 12.1393 17.5901 12C17.5901 11.8607 17.5626 11.7227 17.5089 11.594C17.4553 11.4655 17.3768 11.3487 17.2779 11.2506L12.6968 6.72223" stroke="#1F1F1F" stroke-width="1.5" stroke-linecap="round" stroke-linejoin="round"/>
<path d="M12 21.5C17.2467 21.5 21.5 17.2467 21.5 12C21.5 6.7533 17.2467 2.5 12 2.5C6.7533 2.5 2.5 6.7533 2.5 12C2.5 17.2467 6.7533 21.5 12 21.5Z" stroke="#1F1F1F" stroke-width="1.5" stroke-linecap="round" stroke-linejoin="round"/>
</svg>
