<svg width="24" height="24" viewBox="0 0 24 24" fill="none" xmlns="http://www.w3.org/2000/svg">
<path d="M11.9589 14.7235C8.35887 14.7235 4.33887 17.6519 4.33887 21.25" stroke="#1F1F1F" stroke-width="1.5" stroke-linecap="round" stroke-linejoin="round"/>
<path d="M11.9589 11.4653C12.8216 11.4673 13.6656 11.2134 14.3839 10.7358C15.1022 10.2581 15.6626 9.57825 15.9941 8.78217C16.3257 7.98609 16.4134 7.1096 16.2463 6.26365C16.0792 5.41769 15.6648 4.6403 15.0554 4.02987C14.4461 3.41944 13.6692 3.00342 12.8232 2.83447C11.9771 2.66551 11.1 2.75122 10.3027 3.08075C9.50543 3.41027 8.8239 3.9688 8.34438 4.68562C7.86485 5.40245 7.60889 6.24535 7.60889 7.10764C7.60888 8.26163 8.06687 9.3685 8.88236 10.1854C9.69786 11.0024 10.8043 11.4626 11.9589 11.4653Z" stroke="#1F1F1F" stroke-width="1.5" stroke-linecap="round" stroke-linejoin="round"/>
<path d="M19.6614 15.4868L14.6616 20.4759" stroke="#1F1F1F" stroke-width="1.5" stroke-miterlimit="10" stroke-linecap="round"/>
<path d="M14.6611 15.4977L19.6609 20.4868" stroke="#1F1F1F" stroke-width="1.5" stroke-miterlimit="10" stroke-linecap="round"/>
</svg>
