<svg width="24" height="24" viewBox="0 0 24 24" fill="none" xmlns="http://www.w3.org/2000/svg">
<path d="M3.3037 20.1629V11.7595C3.27051 9.51209 4.08961 7.33546 5.59623 5.66749C7.10285 3.99952 9.18521 2.96395 11.4244 2.76911C12.614 2.69012 13.8072 2.85657 14.9298 3.25812C16.0523 3.65968 17.0804 4.28775 17.95 5.10335C18.8196 5.91894 19.5123 6.90462 19.9849 7.99917C20.4575 9.09372 20.7001 10.2738 20.6975 11.466V20.1629C20.6975 20.4512 20.5829 20.7277 20.3791 20.9316C20.1752 21.1355 19.8987 21.25 19.6104 21.25H16.349C16.0607 21.25 15.7842 21.1355 15.5803 20.9316C15.3764 20.7277 15.2619 20.4512 15.2619 20.1629V11.466C15.2619 10.601 14.9183 9.77151 14.3067 9.15989C13.6951 8.54827 12.8655 8.20466 12.0006 8.20466C11.1356 8.20466 10.3061 8.54827 9.69449 9.15989C9.08287 9.7715 8.73926 10.601 8.73926 11.466L8.73925 20.1629C8.73925 20.4512 8.62473 20.7277 8.42086 20.9316C8.21698 21.1355 7.94046 21.25 7.65214 21.25H4.39081C4.10249 21.25 3.82598 21.1355 3.62211 20.9316C3.41823 20.7277 3.3037 20.4512 3.3037 20.1629Z" stroke="#1F1F1F" stroke-width="1.5"/>
<path d="M15.2617 14.7274H20.6973" stroke="#1F1F1F" stroke-width="1.5"/>
<path d="M3.30371 14.7274H8.73926" stroke="#1F1F1F" stroke-width="1.5"/>
</svg>
