<svg width="24" height="24" viewBox="0 0 24 24" fill="none" xmlns="http://www.w3.org/2000/svg">
<path d="M15.3 12.7047C15.0046 13.2569 14.5522 13.7093 14 14.0047" stroke="#1F1F1F" stroke-width="1.5" stroke-linecap="round" stroke-linejoin="round"/>
<path d="M10.0001 14.004C9.5187 13.7619 9.11143 13.3947 8.82109 12.941C8.53074 12.4873 8.36805 11.9637 8.3501 11.4254V5.8485C8.42905 4.9571 8.85663 4.1328 9.54001 3.55459C10.2234 2.97638 11.1074 2.69092 12.0001 2.76021C12.8911 2.69367 13.7726 2.98038 14.4538 3.55832C15.1349 4.13626 15.5611 4.95897 15.6401 5.8485V8.36711" stroke="#1F1F1F" stroke-width="1.5" stroke-linecap="round" stroke-linejoin="round"/>
<path d="M5.33008 10.6259C5.3359 11.5036 5.51564 12.3715 5.85892 13.1795C6.20219 13.9875 6.7022 14.7195 7.33008 15.3333C7.53426 15.5748 7.75838 15.7988 8.00008 16.0029" stroke="#1F1F1F" stroke-width="1.5" stroke-linecap="round" stroke-linejoin="round"/>
<path d="M10.8198 17.1822C11.7799 17.3547 12.7661 17.3146 13.7089 17.0648C14.6518 16.815 15.5284 16.3615 16.2769 15.7364C17.0254 15.1112 17.6276 14.3296 18.041 13.4466C18.4545 12.5636 18.6691 11.6008 18.6698 10.6259" stroke="#1F1F1F" stroke-width="1.5" stroke-linecap="round" stroke-linejoin="round"/>
<path d="M12 21.25V17.2522" stroke="#1F1F1F" stroke-width="1.5" stroke-linecap="round" stroke-linejoin="round"/>
<path d="M8.35986 21.25H15.6399" stroke="#1F1F1F" stroke-width="1.5" stroke-linecap="round" stroke-linejoin="round"/>
<path d="M20 4.00951L15.64 8.3671L10.01 13.994L8.03 15.9729L4 20.0007" stroke="#1F1F1F" stroke-width="1.5" stroke-linecap="round" stroke-linejoin="round"/>
</svg>
