<svg width="24" height="24" viewBox="0 0 24 24" fill="none" xmlns="http://www.w3.org/2000/svg">
<path d="M11.9999 12.7998C13.8501 12.7998 15.3498 11.3001 15.3498 9.4499C15.3498 7.59978 13.8501 6.09995 11.9999 6.09995C10.1497 6.09995 8.6499 7.59978 8.6499 9.4499C8.6499 11.3001 10.1497 12.7998 11.9999 12.7998Z" stroke="#1F1F1F" stroke-width="1.5" stroke-miterlimit="10" stroke-linecap="round"/>
<path d="M12 2.75C5.3001 2.75 4.18345 8.33325 5.3001 12.5654C6.28275 16.2726 9.23071 18.8074 11.1737 20.8844C11.2783 20.9995 11.4059 21.0915 11.5482 21.1545C11.6905 21.2175 11.8444 21.25 12 21.25C12.1556 21.25 12.3095 21.2175 12.4518 21.1545C12.594 21.0915 12.7217 20.9995 12.8263 20.8844C14.7693 18.8074 17.7172 16.2726 18.6999 12.5654C19.8165 8.33325 18.6999 2.75 12 2.75Z" stroke="#1F1F1F" stroke-width="1.5" stroke-miterlimit="10" stroke-linecap="round"/>
</svg>
