<svg width="24" height="24" viewBox="0 0 24 24" fill="none" xmlns="http://www.w3.org/2000/svg">
<path d="M8.53135 3.21249H15.4689C16.2048 3.21249 16.9107 3.50486 17.4311 4.02527C17.9515 4.54569 18.2439 5.25152 18.2439 5.98749V20.7875H5.75635V5.98749C5.75635 5.25152 6.04872 4.54569 6.56913 4.02527C7.08954 3.50486 7.79537 3.21249 8.53135 3.21249Z" stroke="#1F1F1F" stroke-width="1.5" stroke-linecap="round" stroke-linejoin="round"/>
<path d="M2.75 20.7875H21.25" stroke="#1F1F1F" stroke-width="1.5" stroke-linecap="round" stroke-linejoin="round"/>
<path d="M11.075 14.3125H12.925C13.293 14.3125 13.6459 14.4587 13.9061 14.7189C14.1663 14.9791 14.3125 15.332 14.3125 15.7V20.7875H9.6875V15.7C9.6875 15.332 9.83368 14.9791 10.0939 14.7189C10.3541 14.4587 10.707 14.3125 11.075 14.3125Z" stroke="#1F1F1F" stroke-width="1.5" stroke-linecap="round" stroke-linejoin="round"/>
<path d="M9.2251 6.91251H14.7751" stroke="#1F1F1F" stroke-width="1.5" stroke-linecap="round" stroke-linejoin="round"/>
<path d="M9.2251 10.6125H14.7751" stroke="#1F1F1F" stroke-width="1.5" stroke-linecap="round" stroke-linejoin="round"/>
</svg>
