<svg width="24" height="24" viewBox="0 0 24 24" fill="none" xmlns="http://www.w3.org/2000/svg">
<path d="M20.662 6.99831C20.2331 6.25116 19.6152 5.6299 18.8705 5.19683L14.4569 2.64473C13.707 2.22206 12.8607 2 11.9998 2C11.139 2 10.2928 2.22206 9.54287 2.64473L5.13923 5.19683C4.39227 5.62808 3.77174 6.24796 3.33966 6.99444C2.90758 7.74092 2.67915 8.58781 2.67725 9.45032V14.5345C2.67712 15.3962 2.90354 16.2428 3.33392 16.9894C3.76429 17.736 4.38344 18.3562 5.12921 18.788L9.54287 21.3401C10.2896 21.7724 11.137 22 11.9998 22C12.8626 22 13.7102 21.7724 14.4569 21.3401L18.8705 18.788C19.6148 18.3588 20.2328 17.7409 20.662 16.9965C21.094 16.2479 21.3218 15.3989 21.3226 14.5345V9.45032C21.322 8.5891 21.0941 7.74329 20.662 6.99831ZM15.808 13.2534L14.9973 14.6546C14.7788 15.0414 14.461 15.3627 14.0766 15.5854C13.6927 15.8058 13.2583 15.9231 12.8156 15.9256H11.1842C10.7415 15.9231 10.3071 15.8058 9.92319 15.5854C9.5388 15.3627 9.22087 15.0414 9.00239 14.6546L8.19179 13.2534C7.96933 12.8722 7.85203 12.4388 7.85203 11.9974C7.85203 11.556 7.96933 11.1226 8.19179 10.7414L9.00239 9.34023C9.21804 8.95133 9.53665 8.62932 9.92319 8.40947C10.3071 8.18901 10.7415 8.07176 11.1842 8.06918H12.8156C13.2583 8.07176 13.6927 8.18901 14.0766 8.40947C14.461 8.63212 14.7788 8.95346 14.9973 9.34023L15.808 10.7414C16.0305 11.1226 16.1477 11.556 16.1477 11.9974C16.1477 12.4388 16.0305 12.8722 15.808 13.2534Z" fill="#1F1F1F"/>
</svg>
