<svg width="24" height="24" viewBox="0 0 24 24" fill="none" xmlns="http://www.w3.org/2000/svg">
<path d="M21.4472 9.55892C21.43 9.84819 21.3443 10.1292 21.1972 10.3789C21.0574 10.6263 20.8665 10.8411 20.6372 11.0089C20.5371 11.081 20.4199 11.1259 20.2972 11.1389L18.5372 11.3689C18.3419 11.4022 18.161 11.4927 18.0172 11.6289C17.4872 12.1389 16.9472 12.6289 16.2072 13.4089L15.3572 14.2489C15.2467 14.3636 15.1675 14.5048 15.1272 14.6589L14.1872 18.4389C14.1915 18.4788 14.1915 18.519 14.1872 18.5589C14.0568 18.8518 13.8578 19.109 13.6072 19.3089C13.3567 19.5093 13.0618 19.6465 12.7472 19.7089H12.3872C12.1912 19.7076 11.9962 19.6807 11.8072 19.6289C11.5009 19.535 11.2226 19.3666 10.9972 19.1389L8.45716 16.6089L3.78716 21.2789C3.64653 21.4194 3.45591 21.4982 3.25716 21.4982C3.05841 21.4982 2.86779 21.4194 2.72716 21.2789C2.58671 21.1383 2.50781 20.9477 2.50781 20.7489C2.50781 20.5502 2.58671 20.3595 2.72716 20.2189L7.39716 15.5489L4.89716 13.0489C4.67361 12.8181 4.50897 12.5368 4.41716 12.2289C4.3156 11.9224 4.29833 11.5943 4.36716 11.2789C4.4259 10.968 4.55979 10.6762 4.75716 10.4289C4.95706 10.1783 5.21428 9.97935 5.50716 9.84893H5.62715L9.36716 8.84893C9.53283 8.8047 9.68436 8.71861 9.80716 8.59893C11.1972 7.22893 11.6772 6.74891 12.4372 5.92891C12.5666 5.79194 12.6474 5.61627 12.6672 5.42891L12.9072 3.65892C12.9185 3.53275 12.9634 3.4119 13.0372 3.30892C13.293 2.96462 13.6527 2.71169 14.0633 2.58745C14.4738 2.46321 14.9134 2.47424 15.3172 2.61892C15.5875 2.7186 15.8331 2.8755 16.0372 3.07891L20.9172 7.9789C21.1171 8.18178 21.2713 8.42503 21.3696 8.69234C21.4679 8.95965 21.508 9.24487 21.4872 9.52892L21.4472 9.55892Z" fill="#1F1F1F"/>
</svg>
