<svg width="24" height="24" viewBox="0 0 24 24" fill="none" xmlns="http://www.w3.org/2000/svg">
<path d="M13.8402 3.83908C13.8402 4.20281 13.7322 4.55838 13.53 4.86081C13.3278 5.16325 13.0405 5.39897 12.7043 5.53816C12.3681 5.67736 11.9981 5.71378 11.6412 5.64281C11.2843 5.57185 10.9564 5.3967 10.6991 5.1395C10.4417 4.8823 10.2665 4.55461 10.1955 4.19786C10.1245 3.84111 10.1609 3.47134 10.3001 3.1353C10.4394 2.79925 10.6753 2.51201 10.9779 2.30993C11.2804 2.10785 11.6362 2 12.0001 2C12.4881 2 12.9562 2.19376 13.3012 2.53866C13.6463 2.88355 13.8402 3.35132 13.8402 3.83908Z" fill="#1F1F1F"/>
<path d="M17.4401 5.67816C18.4563 5.67816 19.2801 4.85477 19.2801 3.83908C19.2801 2.82338 18.4563 2 17.4401 2C16.4239 2 15.6001 2.82338 15.6001 3.83908C15.6001 4.85477 16.4239 5.67816 17.4401 5.67816Z" fill="#1F1F1F"/>
<path d="M8.39973 3.83908C8.39973 4.20281 8.29186 4.55838 8.08967 4.86081C7.88749 5.16325 7.60008 5.39897 7.26387 5.53816C6.92765 5.67736 6.55768 5.71378 6.20076 5.64281C5.84383 5.57185 5.51595 5.3967 5.25862 5.1395C5.00129 4.8823 4.82608 4.55461 4.75508 4.19786C4.68408 3.84111 4.72055 3.47134 4.85982 3.1353C4.99908 2.79925 5.23496 2.51201 5.53755 2.30993C5.84014 2.10785 6.19585 2 6.55977 2C7.04776 2 7.51572 2.19376 7.86079 2.53866C8.20586 2.88355 8.39973 3.35132 8.39973 3.83908Z" fill="#1F1F1F"/>
<path d="M13.8401 9.27637C13.836 9.64091 13.7236 9.99603 13.5172 10.2966C13.3108 10.5972 13.0198 10.8297 12.6809 10.9646C12.342 11.0994 11.9706 11.1306 11.614 11.0541C11.2574 10.9776 10.9316 10.7969 10.678 10.5349C10.4243 10.2729 10.2542 9.9415 10.1894 9.58274C10.1246 9.22398 10.168 8.85404 10.3139 8.51995C10.4599 8.18585 10.7019 7.90266 11.0093 7.70633C11.3166 7.51 11.6754 7.4094 12.04 7.4173C12.5245 7.4278 12.9853 7.62894 13.3224 7.97702C13.6594 8.3251 13.8454 8.79202 13.8401 9.27637Z" fill="#1F1F1F"/>
<path d="M17.4401 11.1154C18.4563 11.1154 19.2801 10.292 19.2801 9.27634C19.2801 8.26064 18.4563 7.43726 17.4401 7.43726C16.4239 7.43726 15.6001 8.26064 15.6001 9.27634C15.6001 10.292 16.4239 11.1154 17.4401 11.1154Z" fill="#1F1F1F"/>
<path d="M8.39973 9.27633C8.39973 9.64007 8.29186 9.99563 8.08967 10.2981C7.88749 10.6005 7.60008 10.8362 7.26387 10.9754C6.92765 11.1146 6.55768 11.151 6.20076 11.0801C5.84383 11.0091 5.51595 10.834 5.25862 10.5768C5.00129 10.3196 4.82608 9.99186 4.75508 9.63511C4.68408 9.27837 4.72055 8.9086 4.85982 8.57255C4.99908 8.2365 5.23496 7.94927 5.53755 7.74719C5.84014 7.54511 6.19585 7.43726 6.55977 7.43726C7.04776 7.43726 7.51572 7.63102 7.86079 7.97591C8.20586 8.32081 8.39973 8.78858 8.39973 9.27633Z" fill="#1F1F1F"/>
<path d="M13.8401 14.7137C13.8421 15.0778 13.7358 15.4344 13.5348 15.7381C13.3339 16.0419 13.0473 16.2791 12.7112 16.4199C12.3752 16.5606 12.0049 16.5984 11.6473 16.5286C11.2897 16.4588 10.9609 16.2844 10.7026 16.0276C10.4442 15.7708 10.268 15.4431 10.1962 15.0861C10.1244 14.7291 10.1603 14.3588 10.2993 14.0222C10.4382 13.6856 10.6741 13.3978 10.9769 13.1952C11.2797 12.9927 11.6357 12.8846 12.0001 12.8846C12.4863 12.8846 12.9529 13.077 13.2977 13.4197C13.6424 13.7624 13.8375 14.2276 13.8401 14.7137Z" fill="#1F1F1F"/>
<path d="M13.8402 20.1609C13.8402 20.5246 13.7322 20.8802 13.53 21.1826C13.3278 21.4851 13.0405 21.7208 12.7043 21.86C12.3681 21.9992 11.9981 22.0356 11.6412 21.9647C11.2843 21.8937 10.9564 21.7185 10.6991 21.4613C10.4417 21.2041 10.2665 20.8764 10.1955 20.5197C10.1245 20.163 10.1609 19.7932 10.3001 19.4571C10.4394 19.1211 10.6753 18.8339 10.9779 18.6318C11.2804 18.4297 11.6362 18.3218 12.0001 18.3218C12.4881 18.3218 12.9562 18.5156 13.3012 18.8605C13.6463 19.2054 13.8402 19.6732 13.8402 20.1609Z" fill="#1F1F1F"/>
<path d="M19.2801 14.7137C19.2821 15.0778 19.1759 15.4344 18.9749 15.7381C18.7739 16.0419 18.4872 16.2791 18.1512 16.4199C17.8151 16.5606 17.4449 16.5984 17.0873 16.5286C16.7298 16.4588 16.401 16.2844 16.1426 16.0276C15.8843 15.7708 15.708 15.4431 15.6362 15.0861C15.5644 14.7291 15.6002 14.3588 15.7392 14.0222C15.8782 13.6856 16.114 13.3978 16.4168 13.1952C16.7196 12.9927 17.0758 12.8846 17.4401 12.8846C17.9264 12.8846 18.3928 13.077 18.7376 13.4197C19.0824 13.7624 19.2774 14.2276 19.2801 14.7137Z" fill="#1F1F1F"/>
<path d="M8.40022 14.7137C8.4022 15.0778 8.29602 15.4344 8.09504 15.7381C7.89407 16.0419 7.60735 16.2791 7.27131 16.4199C6.93528 16.5606 6.56505 16.5984 6.20747 16.5286C5.84989 16.4588 5.5211 16.2844 5.26277 16.0276C5.00444 15.7708 4.82811 15.4431 4.7563 15.0861C4.68449 14.7291 4.72036 14.3588 4.85933 14.0222C4.99829 13.6856 5.23414 13.3978 5.53694 13.1952C5.83974 12.9927 6.19591 12.8846 6.56025 12.8846C7.04653 12.8846 7.51296 13.077 7.85774 13.4197C8.20252 13.7624 8.39758 14.2276 8.40022 14.7137Z" fill="#1F1F1F"/>
</svg>
