<svg width="24" height="24" viewBox="0 0 24 24" fill="none" xmlns="http://www.w3.org/2000/svg">
<path d="M14.4321 10.6058L17.1396 12.301C17.5707 12.5712 18.0661 12.7208 18.5744 12.7343C19.0826 12.7479 19.5852 12.6249 20.03 12.3781C20.4749 12.1313 20.8458 11.7697 21.1043 11.3308C21.3628 10.8919 21.4994 10.3917 21.5001 9.88196V6.85336C21.4994 6.34367 21.3628 5.84343 21.1043 5.40453C20.8458 4.96562 20.4749 4.60403 20.03 4.35725C19.5852 4.11046 19.0826 3.98746 18.5744 4.00101C18.0661 4.01456 17.5707 4.16416 17.1396 4.4343L14.4321 6.12955" stroke="#1F1F1F" stroke-width="1.5" stroke-linecap="round" stroke-linejoin="round"/>
<path d="M9.56803 6.12955L6.86054 4.4343C6.4294 4.16416 5.93404 4.01456 5.4258 4.00101C4.91756 3.98746 4.41496 4.11046 3.97012 4.35725C3.52527 4.60403 3.15437 4.96562 2.89589 5.40453C2.6374 5.84343 2.50073 6.34367 2.50005 6.85336V9.88196C2.49761 10.2851 2.58032 10.6843 2.74273 11.0531C2.90514 11.422 3.14359 11.7522 3.44239 12.0221C3.7412 12.2919 4.09359 12.4953 4.47641 12.6189C4.85923 12.7425 5.26381 12.7835 5.66354 12.7391C6.09 12.6964 6.50025 12.5528 6.86054 12.3201L9.56803 10.6248" stroke="#1F1F1F" stroke-width="1.5" stroke-linecap="round" stroke-linejoin="round"/>
<path d="M14.8499 7.37717V9.35814C14.8513 9.77789 14.7144 10.1864 14.4604 10.5201L14.3939 10.6058C14.2147 10.8131 13.9928 10.9792 13.7436 11.0926C13.4944 11.206 13.2236 11.2641 12.9499 11.2629H11.0499C10.7762 11.2641 10.5055 11.206 10.2563 11.0926C10.0071 10.9792 9.78517 10.8131 9.6059 10.6058C9.55223 10.5437 9.50452 10.4768 9.4634 10.4058C9.25899 10.0948 9.14999 9.73056 9.1499 9.35814V7.37717C9.1499 6.87199 9.35008 6.38751 9.7064 6.03029C10.0628 5.67308 10.546 5.4724 11.0499 5.4724H12.9499C13.4538 5.4724 13.9371 5.67308 14.2934 6.03029C14.6497 6.38751 14.8499 6.87199 14.8499 7.37717Z" stroke="#1F1F1F" stroke-width="1.5" stroke-linecap="round" stroke-linejoin="round"/>
<path d="M18.6499 12.7391L20.1604 18.3772C20.1701 18.4142 20.1684 18.4532 20.1557 18.4892C20.143 18.5252 20.1197 18.5566 20.089 18.5792C20.0583 18.6018 20.0215 18.6146 19.9834 18.6159C19.9453 18.6173 19.9077 18.6071 19.8754 18.5868L16.7879 16.7963L15.0399 19.9011C15.0215 19.9348 14.9932 19.9622 14.9589 19.9796C14.9247 19.9969 14.8859 20.0034 14.8479 19.9983C14.8098 19.9931 14.7742 19.9765 14.7457 19.9507C14.7173 19.9248 14.6973 19.8909 14.6884 19.8534L12.3989 11.282" stroke="#1F1F1F" stroke-width="1.5" stroke-linecap="round" stroke-linejoin="round"/>
<path d="M9.42556 10.4058C9.46668 10.4768 9.51439 10.5437 9.56806 10.6058L6.86057 12.301C6.50028 12.5337 6.09003 12.6773 5.66358 12.7201L4.15308 18.3772C4.14507 18.4129 4.14746 18.4501 4.15997 18.4844C4.17247 18.5188 4.19456 18.5488 4.2236 18.5708C4.25265 18.5929 4.28741 18.6062 4.32376 18.609C4.3601 18.6118 4.39649 18.6041 4.42858 18.5868L7.52557 16.7963L9.31156 19.9011C9.33002 19.9348 9.35826 19.9622 9.39255 19.9796C9.42684 19.9969 9.46556 20.0034 9.50363 19.9983C9.54169 19.9931 9.5773 19.9765 9.60577 19.9507C9.63423 19.9248 9.65421 19.8909 9.66306 19.8534L11.9525 11.282" stroke="#1F1F1F" stroke-width="1.5" stroke-linecap="round" stroke-linejoin="round"/>
<path d="M16.7502 8.36765H14.8882" stroke="#1F1F1F" stroke-width="1.5" stroke-linecap="round" stroke-linejoin="round"/>
<path d="M9.11199 8.36765H7.25" stroke="#1F1F1F" stroke-width="1.5" stroke-linecap="round" stroke-linejoin="round"/>
</svg>
