<svg width="24" height="24" viewBox="0 0 24 24" fill="none" xmlns="http://www.w3.org/2000/svg">
<path d="M16.1841 2.75H7.81578C6.81754 2.75 6.0083 3.58287 6.0083 4.61028V19.3897C6.0083 20.4171 6.81754 21.25 7.81578 21.25H16.1841C17.1823 21.25 17.9915 20.4171 17.9915 19.3897V4.61028C17.9915 3.58287 17.1823 2.75 16.1841 2.75Z" stroke="#1F1F1F" stroke-width="1.5" stroke-linecap="round" stroke-linejoin="round"/>
<path d="M11.9998 18.7734C12.2866 18.7734 12.5191 18.5409 12.5191 18.2541C12.5191 17.9674 12.2866 17.7349 11.9998 17.7349C11.713 17.7349 11.4805 17.9674 11.4805 18.2541C11.4805 18.5409 11.713 18.7734 11.9998 18.7734Z" stroke="#1F1F1F" stroke-width="1.5" stroke-linecap="round" stroke-linejoin="round"/>
<path d="M10.0029 5.27234H13.9974" stroke="#1F1F1F" stroke-width="1.5" stroke-linecap="round" stroke-linejoin="round"/>
</svg>
