<svg width="24" height="24" viewBox="0 0 24 24" fill="none" xmlns="http://www.w3.org/2000/svg">
<path d="M19.0906 14.4414V18.8806C19.0906 19.1918 19.0293 19.4999 18.9102 19.7874C18.7912 20.0748 18.6166 20.336 18.3966 20.556C18.1766 20.7761 17.9154 20.9506 17.6279 21.0697C17.3405 21.1887 17.0324 21.25 16.7212 21.25H5.11942C4.80712 21.25 4.4979 21.1883 4.20954 21.0684C3.92119 20.9484 3.65938 20.7727 3.43918 20.5512C3.21899 20.3298 3.04474 20.067 2.92647 19.7779C2.80821 19.4889 2.74824 19.1793 2.75004 18.867V7.27882C2.74823 6.96716 2.80828 6.65824 2.92672 6.36996C3.04515 6.08168 3.21961 5.81976 3.43999 5.59938C3.66037 5.379 3.92228 5.20454 4.21057 5.08611C4.49885 4.96768 4.80777 4.90763 5.11942 4.90943H9.55861" stroke="#1F1F1F" stroke-width="1.5" stroke-linecap="round" stroke-linejoin="round"/>
<path d="M6.83496 15.8031V13.638C6.83646 13.2808 6.97829 12.9384 7.22986 12.6848L16.7619 3.15279C16.8885 3.02516 17.0391 2.92386 17.205 2.85472C17.371 2.78559 17.5489 2.75 17.7287 2.75C17.9085 2.75 18.0865 2.78559 18.2524 2.85472C18.4183 2.92386 18.5689 3.02516 18.6955 3.15279L20.847 5.3043C20.9747 5.43089 21.076 5.5815 21.1451 5.74744C21.2142 5.91337 21.2498 6.09136 21.2498 6.27112C21.2498 6.45088 21.2142 6.62887 21.1451 6.7948C21.076 6.96074 20.9747 7.11135 20.847 7.23794L11.315 16.7699C11.0614 17.0215 10.7191 17.1633 10.3618 17.1648H8.19667C7.83553 17.1648 7.48917 17.0214 7.2338 16.766C6.97843 16.5106 6.83496 16.1643 6.83496 15.8031Z" stroke="#1F1F1F" stroke-width="1.5" stroke-linecap="round" stroke-linejoin="round"/>
<path d="M19.0905 8.99454L15.0054 4.90939" stroke="#1F1F1F" stroke-width="1.5" stroke-linecap="round" stroke-linejoin="round"/>
</svg>
