<svg width="24" height="24" viewBox="0 0 24 24" fill="none" xmlns="http://www.w3.org/2000/svg">
<path d="M21.2701 19.995H21.0601V11.995C21.0601 11.0614 20.6892 10.1661 20.0291 9.50597C19.369 8.84584 18.4736 8.47499 17.5401 8.47499H16.4401V5.98497C16.4401 5.52187 16.3487 5.06335 16.1712 4.63563C15.9937 4.20792 15.7335 3.81941 15.4056 3.49242C15.0776 3.16542 14.6884 2.90636 14.2602 2.73006C13.8319 2.55375 13.3732 2.46366 12.9101 2.46498H5.98018C5.51708 2.46366 5.05818 2.55375 4.62996 2.73006C4.20174 2.90636 3.81262 3.16542 3.48469 3.49242C3.15677 3.81941 2.89659 4.20792 2.71907 4.63563C2.54155 5.06335 2.45015 5.52187 2.45015 5.98497V20.105C2.316 20.1607 2.20145 20.2552 2.12129 20.3763C2.04113 20.4974 1.99891 20.6397 2.00007 20.785C1.99873 20.8839 2.0173 20.982 2.05452 21.0736C2.09173 21.1652 2.14683 21.2484 2.21675 21.3183C2.28666 21.3882 2.3699 21.4434 2.4615 21.4806C2.5531 21.5178 2.65121 21.5363 2.75007 21.535H21.25C21.4489 21.535 21.6398 21.456 21.7804 21.3153C21.9211 21.1747 22 20.9839 22 20.785C22 20.5861 21.9211 20.3953 21.7804 20.2547C21.6398 20.114 21.4489 20.035 21.25 20.035L21.2701 19.995ZM5.94014 10.575C5.94014 10.3761 6.01909 10.1853 6.15974 10.0447C6.30039 9.90401 6.49122 9.825 6.69014 9.825H12.2401C12.4391 9.825 12.6298 9.90401 12.7704 10.0447C12.9111 10.1853 12.9901 10.3761 12.9901 10.575C12.9901 10.7739 12.9111 10.9646 12.7704 11.1053C12.6298 11.246 12.4391 11.325 12.2401 11.325H6.69014C6.49203 11.3224 6.30277 11.2426 6.16267 11.1025C6.02258 10.9624 5.94273 10.7731 5.94014 10.575ZM6.69014 6.12498H12.2401C12.4391 6.12498 12.6298 6.204 12.7704 6.34465C12.9111 6.4853 12.9901 6.67607 12.9901 6.87498C12.9901 7.0739 12.9111 7.26467 12.7704 7.40532C12.6298 7.54597 12.4391 7.62498 12.2401 7.62498H6.69014C6.49122 7.62498 6.30039 7.54597 6.15974 7.40532C6.01909 7.26467 5.94014 7.0739 5.94014 6.87498C5.94014 6.67607 6.01909 6.4853 6.15974 6.34465C6.30039 6.204 6.49122 6.12498 6.69014 6.12498ZM7.91011 19.995V15.655C7.91253 15.486 7.98074 15.3246 8.10017 15.205C8.15958 15.1467 8.22984 15.1009 8.30708 15.07C8.38432 15.0391 8.46695 15.0238 8.55012 15.025H10.4001C10.4832 15.0238 10.5659 15.0391 10.6431 15.07C10.7203 15.1009 10.7907 15.1467 10.8501 15.205C10.9705 15.324 11.0387 15.4858 11.0401 15.655V19.995H7.91011ZM19.5801 19.995H16.4601V9.93498H17.5601C18.0905 9.93498 18.5992 10.1457 18.9743 10.5208C19.3494 10.8958 19.5601 11.4045 19.5601 11.935L19.5801 19.995Z" fill="#1F1F1F"/>
</svg>
