<svg width="24" height="24" viewBox="0 0 24 24" fill="none" xmlns="http://www.w3.org/2000/svg">
<path d="M21.5 12C21.5 6.75329 17.2467 2.5 12 2.5C6.75329 2.5 2.5 6.75329 2.5 12C2.5 17.2467 6.75329 21.5 12 21.5C17.2467 21.5 21.5 17.2467 21.5 12Z" stroke="#1F1F1F" stroke-width="1.5"/>
<path d="M7.46533 14.7207L9.68728 11.7642C9.82335 11.5821 10.0228 11.4578 10.2462 11.4158C10.4696 11.3738 10.7006 11.4172 10.8935 11.5375L13.061 12.9069C13.2613 13.0345 13.5036 13.0784 13.736 13.0292C13.9683 12.98 14.172 12.8417 14.3035 12.6439L16.5345 9.27924" stroke="#1F1F1F" stroke-width="1.5" stroke-linecap="round" stroke-linejoin="round"/>
</svg>
