<svg width="24" height="24" viewBox="0 0 24 24" fill="none" xmlns="http://www.w3.org/2000/svg">
<path d="M15.2594 6.85999V17.14C15.2601 17.5252 15.171 17.9052 14.9993 18.25C14.8317 18.5961 14.5767 18.8926 14.2594 19.11C13.9368 19.3268 13.558 19.445 13.1693 19.45C12.7845 19.4501 12.4084 19.3352 12.0893 19.12L8.08938 16.49C8.01177 16.4398 7.92175 16.4121 7.82937 16.41H5.93937C5.64893 16.4075 5.36249 16.3419 5.1 16.2175C4.8375 16.0932 4.60523 15.9132 4.41935 15.69C4.04258 15.2422 3.83705 14.6752 3.83937 14.09V9.90997C3.83768 9.3279 4.04328 8.76425 4.41935 8.31998C4.60523 8.09679 4.8375 7.91676 5.1 7.79242C5.36249 7.66808 5.64893 7.60242 5.93937 7.59998H7.86937C7.96356 7.59926 8.05491 7.56764 8.12938 7.50998L12.1294 4.87997C12.4651 4.69373 12.8367 4.58124 13.2194 4.54999C13.608 4.555 13.9868 4.67314 14.3093 4.88998C14.6266 5.10737 14.8817 5.40379 15.0493 5.74997C15.2028 6.09921 15.2746 6.47883 15.2594 6.85999Z" fill="#1F1F1F"/>
<path d="M17.8694 16.5746C17.6714 16.5703 17.4823 16.4918 17.3394 16.3546C17.199 16.214 17.1201 16.0234 17.1201 15.8246C17.1201 15.6259 17.199 15.4352 17.3394 15.2946C17.7669 14.8682 18.1062 14.3617 18.3376 13.804C18.5691 13.2463 18.6882 12.6484 18.6882 12.0446C18.6882 11.4408 18.5691 10.8429 18.3376 10.2852C18.1062 9.72754 17.7669 9.22098 17.3394 8.7946C17.2492 8.73291 17.1735 8.65222 17.1177 8.55821C17.0619 8.4642 17.0273 8.35913 17.0164 8.25035C17.0055 8.14158 17.0185 8.03174 17.0545 7.92851C17.0905 7.82528 17.1486 7.73116 17.2248 7.65276C17.301 7.57435 17.3934 7.51357 17.4955 7.47463C17.5977 7.43569 17.7071 7.41953 17.8162 7.42732C17.9252 7.43512 18.0312 7.46668 18.1268 7.51976C18.2223 7.57284 18.3052 7.64616 18.3694 7.7346C18.9373 8.29958 19.3878 8.97118 19.6953 9.71083C20.0028 10.4505 20.1611 11.2436 20.1611 12.0446C20.1611 12.8456 20.0028 13.6387 19.6953 14.3784C19.3878 15.118 18.9373 15.7896 18.3694 16.3546C18.2342 16.4851 18.057 16.5631 17.8694 16.5746Z" fill="#1F1F1F"/>
</svg>
