<svg width="24" height="24" viewBox="0 0 24 24" fill="none" xmlns="http://www.w3.org/2000/svg">
<path d="M12.0002 7.84858C12.3622 7.84858 12.6557 7.55511 12.6557 7.19309C12.6557 6.83107 12.3622 6.5376 12.0002 6.5376C11.6382 6.5376 11.3447 6.83107 11.3447 7.19309C11.3447 7.55511 11.6382 7.84858 12.0002 7.84858Z" stroke="#1F1F1F" stroke-width="1.5" stroke-linecap="round" stroke-linejoin="round"/>
<path d="M12.0002 12.6555C12.3622 12.6555 12.6557 12.362 12.6557 12C12.6557 11.638 12.3622 11.3445 12.0002 11.3445C11.6382 11.3445 11.3447 11.638 11.3447 12C11.3447 12.362 11.6382 12.6555 12.0002 12.6555Z" stroke="#1F1F1F" stroke-width="1.5" stroke-linecap="round" stroke-linejoin="round"/>
<path d="M12.0002 17.4624C12.3622 17.4624 12.6557 17.1689 12.6557 16.8069C12.6557 16.4449 12.3622 16.1514 12.0002 16.1514C11.6382 16.1514 11.3447 16.4449 11.3447 16.8069C11.3447 17.1689 11.6382 17.4624 12.0002 17.4624Z" stroke="#1F1F1F" stroke-width="1.5" stroke-linecap="round" stroke-linejoin="round"/>
<path d="M15.25 2.75H8.75C5.43629 2.75 2.75 5.43629 2.75 8.75V15.25C2.75 18.5637 5.43629 21.25 8.75 21.25H15.25C18.5637 21.25 21.25 18.5637 21.25 15.25V8.75C21.25 5.43629 18.5637 2.75 15.25 2.75Z" stroke="#1F1F1F" stroke-width="1.5"/>
</svg>
