<svg width="24" height="24" viewBox="0 0 24 24" fill="none" xmlns="http://www.w3.org/2000/svg">
<path d="M21.9472 10.941C21.8546 10.5444 21.6772 10.1725 21.4272 9.851C21.1736 9.53155 20.8526 9.27205 20.4871 9.091C20.1996 8.94872 19.8872 8.8638 19.5672 8.841C19.4042 7.09111 18.6285 5.45497 17.3771 4.22101C15.9522 2.79818 14.0208 1.99902 12.0071 1.99902C9.9934 1.99902 8.06204 2.79818 6.63709 4.22101C5.38568 5.45497 4.61016 7.09111 4.44715 8.841C4.12716 8.8638 3.81463 8.94872 3.5271 9.091C3.15998 9.26945 2.83853 9.52938 2.58716 9.851C2.33715 10.1725 2.15973 10.5444 2.06714 10.941C1.97697 11.3393 1.97697 11.7527 2.06714 12.151L3.63709 18.581C3.90731 19.5662 4.4945 20.435 5.30787 21.0532C6.12123 21.6713 7.11549 22.0044 8.13709 22.001H15.8472C16.8723 22.0021 17.8692 21.6658 18.6842 21.0442C19.4993 20.4225 20.0872 19.5499 20.3572 18.561L21.9171 12.151C22.0172 11.7549 22.0275 11.3415 21.9472 10.941ZM8.84717 17.361C8.84717 17.5599 8.7681 17.7507 8.62745 17.8913C8.48679 18.032 8.29608 18.111 8.09717 18.111C7.89826 18.111 7.70743 18.032 7.56678 17.8913C7.42612 17.7507 7.34717 17.5599 7.34717 17.361V13.421C7.34717 13.2221 7.42612 13.0313 7.56678 12.8907C7.70743 12.75 7.89826 12.671 8.09717 12.671C8.29608 12.671 8.48679 12.75 8.62745 12.8907C8.7681 13.0313 8.84717 13.2221 8.84717 13.421V17.361ZM12.7571 17.361C12.7571 17.5599 12.6782 17.7507 12.5375 17.8913C12.3969 18.032 12.206 18.111 12.0071 18.111C11.8082 18.111 11.6175 18.032 11.4768 17.8913C11.3362 17.7507 11.2571 17.5599 11.2571 17.361V13.421C11.2571 13.2221 11.3362 13.0313 11.4768 12.8907C11.6175 12.75 11.8082 12.671 12.0071 12.671C12.206 12.671 12.3969 12.75 12.5375 12.8907C12.6782 13.0313 12.7571 13.2221 12.7571 13.421V17.361ZM16.6671 17.361C16.6671 17.5599 16.5882 17.7507 16.4475 17.8913C16.3069 18.032 16.1161 18.111 15.9171 18.111C15.7182 18.111 15.5275 18.032 15.3869 17.8913C15.2462 17.7507 15.1671 17.5599 15.1671 17.361V13.421C15.1671 13.2221 15.2462 13.0313 15.3869 12.8907C15.5275 12.75 15.7182 12.671 15.9171 12.671C16.1161 12.671 16.3069 12.75 16.4475 12.8907C16.5882 13.0313 16.6671 13.2221 16.6671 13.421V17.361ZM5.95716 8.821C6.12162 7.47862 6.73476 6.23118 7.69715 5.28101C8.84214 4.14152 10.3917 3.50183 12.0071 3.50183C13.6225 3.50183 15.1722 4.14152 16.3172 5.28101C17.2796 6.23118 17.8927 7.47862 18.0572 8.821H5.95716Z" fill="#1F1F1F"/>
</svg>
