<svg width="24" height="24" viewBox="0 0 24 24" fill="none" xmlns="http://www.w3.org/2000/svg">
<path d="M18.7793 10.4511C17.7717 9.28855 17.0295 7.92048 16.6041 6.44206C16.5673 6.31587 16.4975 6.2018 16.402 6.11146C16.3064 6.02113 16.1885 5.95782 16.0605 5.92804C15.9324 5.89826 15.7987 5.90306 15.6731 5.94197C15.5476 5.98088 15.4346 6.05248 15.3458 6.14945C13.0536 8.77332 12.0977 8.64653 11.8539 8.53924C10.8784 8.1003 10.6053 4.85214 10.7712 2.79401C10.7861 2.64486 10.7536 2.49478 10.6783 2.36518C10.603 2.23557 10.4887 2.13306 10.3517 2.07221C10.2174 2.00606 10.0654 1.98462 9.91807 2.01094C9.77067 2.03727 9.63554 2.11 9.5324 2.21854C9.27879 2.4624 3.46533 8.35389 3.46533 14.4405C3.46533 21.4538 9.99088 22 12.0002 22C14.0096 22 20.5351 21.4538 20.5351 14.4405C20.4491 12.9427 19.8256 11.5263 18.7793 10.4511ZM11.0442 18.8689H10.8492C9.64651 18.645 8.57809 17.9619 7.86995 16.9644C7.16182 15.9668 6.86949 14.7329 7.0548 13.5236C7.07978 13.3955 7.12976 13.2736 7.20185 13.1649C7.27395 13.0561 7.36676 12.9625 7.475 12.8896C7.58324 12.8167 7.70478 12.7658 7.83268 12.7399C7.96059 12.714 8.0924 12.7134 8.22049 12.7384C8.34859 12.7634 8.47047 12.8134 8.57925 12.8855C8.68804 12.9576 8.78151 13.0504 8.85442 13.1586C8.92733 13.2668 8.97827 13.3884 9.00421 13.5163C9.03015 13.6442 9.03062 13.7759 9.00564 13.904C8.91758 14.6063 9.10366 15.3156 9.52514 15.8842C9.94662 16.4529 10.5711 16.8371 11.2686 16.9571C11.5273 16.9817 11.7656 17.108 11.9311 17.3083C12.0967 17.5086 12.1759 17.7665 12.1513 18.0252C12.1267 18.2839 12.0005 18.5222 11.8002 18.6878C11.5999 18.8533 11.3419 18.9325 11.0832 18.9079L11.0442 18.8689Z" fill="#1F1F1F"/>
</svg>
