<svg width="24" height="24" viewBox="0 0 24 24" fill="none" xmlns="http://www.w3.org/2000/svg">
<path d="M20.0947 20.9999C19.8958 20.9999 19.7051 20.9209 19.5645 20.7803C19.4238 20.6396 19.3447 20.4489 19.3447 20.2499V3.74994C19.3447 3.55103 19.4238 3.36026 19.5645 3.2196C19.7051 3.07895 19.8958 2.99994 20.0947 2.99994C20.2937 2.99994 20.4844 3.07895 20.625 3.2196C20.7657 3.36026 20.8447 3.55103 20.8447 3.74994V20.2499C20.8461 20.3488 20.8276 20.4469 20.7904 20.5385C20.7532 20.6301 20.698 20.7134 20.6281 20.7833C20.5582 20.8532 20.4749 20.9084 20.3833 20.9456C20.2917 20.9828 20.1936 21.0013 20.0947 20.9999Z" fill="#1F1F1F"/>
<path d="M16.6947 11.411C16.7037 11.7595 16.6317 12.1053 16.4842 12.4212C16.3367 12.737 16.1177 13.0143 15.8448 13.2311L6.73477 20.3211C6.40906 20.568 6.02149 20.7203 5.61477 20.7611H5.38479C5.03857 20.7697 4.69541 20.6942 4.38479 20.5411C4.01493 20.3605 3.7031 20.0799 3.48477 19.7311C3.26737 19.3833 3.15299 18.9811 3.15481 18.5711V5.42106C3.15686 5.02682 3.2638 4.64022 3.46475 4.30103C3.67277 3.96423 3.96595 3.68829 4.31472 3.50104C4.66341 3.31073 5.05801 3.22072 5.45474 3.24103C5.84714 3.25973 6.22718 3.38413 6.55471 3.60105L15.6747 9.68104C15.9641 9.87209 16.2041 10.1291 16.3748 10.431C16.5542 10.7293 16.6636 11.0644 16.6947 11.411Z" fill="#1F1F1F"/>
</svg>
