<svg width="24" height="24" viewBox="0 0 24 24" fill="none" xmlns="http://www.w3.org/2000/svg">
<path d="M9.36685 19.08L2.3418 10.0391H6.17807L9.36685 19.08Z" fill="#1F1F1F"/>
<path d="M15.3538 10.0391L11.994 20.9859L8.12109 10.0391H15.3538Z" fill="#1F1F1F"/>
<path d="M21.6337 10.0391L14.4253 19.3121L17.2842 10.0391H21.6337Z" fill="#1F1F1F"/>
<path d="M21.9998 8.20646H17.2961L15.8667 3.01404H18.5179C18.571 3.0251 18.6213 3.0471 18.6654 3.07865C18.7096 3.1102 18.7467 3.15063 18.7744 3.19731L21.9998 8.20646Z" fill="#1F1F1F"/>
<path d="M15.4027 8.20645H8.1333L9.96592 3.02625H13.961L15.4027 8.20645Z" fill="#1F1F1F"/>
<path d="M8.01098 3.03851L6.19059 8.2065H2L5.12767 3.31951L5.22543 3.20956C5.2696 3.15855 5.32363 3.11699 5.38426 3.08737C5.44058 3.07475 5.49901 3.07475 5.55533 3.08737L8.01098 3.03851Z" fill="#1F1F1F"/>
</svg>
