<svg width="24" height="24" viewBox="0 0 24 24" fill="none" xmlns="http://www.w3.org/2000/svg">
<path d="M20.9 3.66496C20.5538 3.3144 20.141 3.03653 19.686 2.84764C19.2309 2.65874 18.7427 2.56266 18.25 2.56498H5.75C4.75625 2.56762 3.80395 2.96355 3.10126 3.66624C2.39857 4.36893 2.00264 5.32123 2 6.31498V14.185C2.00264 15.1788 2.39857 16.1311 3.10126 16.8338C3.80395 17.5364 4.75625 17.9324 5.75 17.935H11.25V19.935H8.53C8.33109 19.935 8.14032 20.014 7.99966 20.1547C7.85901 20.2953 7.78 20.4861 7.78 20.685C7.78 20.8839 7.85901 21.0747 7.99966 21.2153C8.14032 21.356 8.33109 21.435 8.53 21.435H15.47C15.6689 21.435 15.8597 21.356 16.0003 21.2153C16.141 21.0747 16.22 20.8839 16.22 20.685C16.22 20.4861 16.141 20.2953 16.0003 20.1547C15.8597 20.014 15.6689 19.935 15.47 19.935H12.75V17.935H18.25C18.7425 17.9362 19.2304 17.8396 19.6853 17.6508C20.1402 17.4619 20.5531 17.1846 20.9 16.835C21.6025 16.1318 21.998 15.179 22 14.185V6.31498C22.0012 5.82244 21.9046 5.33453 21.7158 4.87962C21.5269 4.42471 21.2497 4.01185 20.9 3.66496ZM11.16 13.665C11.16 13.4661 11.239 13.2753 11.3797 13.1347C11.5203 12.994 11.7111 12.915 11.91 12.915C12.1089 12.915 12.2997 12.994 12.4403 13.1347C12.581 13.2753 12.66 13.4661 12.66 13.665C12.66 13.8639 12.581 14.0547 12.4403 14.1953C12.2997 14.336 12.1089 14.415 11.91 14.415C11.7217 14.4133 11.5408 14.3418 11.4022 14.2143C11.2637 14.0868 11.1773 13.9125 11.16 13.725V13.665ZM14.24 9.457C14.1155 9.75678 13.9779 9.86416 13.74 10.085C13.5029 10.3025 13.2239 10.4692 12.92 10.575C12.8548 10.5968 12.8008 10.6435 12.77 10.705C12.7233 10.7656 12.6955 10.8387 12.69 10.915V11.315C12.69 11.5139 12.611 11.7047 12.4703 11.8453C12.3297 11.986 12.1389 12.065 11.94 12.065C11.7411 12.065 11.5503 11.986 11.4097 11.8453C11.269 11.7047 11.19 11.5139 11.19 11.315V10.895C11.2051 10.5127 11.3263 10.1422 11.54 9.82493C11.7618 9.5248 12.0632 9.29274 12.41 9.15495C12.5243 9.1212 12.6301 9.06324 12.72 8.98497C12.8062 8.90943 12.8717 8.81299 12.91 8.70494C12.9591 8.60203 12.9831 8.48897 12.98 8.37498C12.9748 8.26727 12.9475 8.16177 12.9 8.06498C12.826 7.93115 12.7236 7.81509 12.6 7.72496C12.4676 7.6347 12.3177 7.57338 12.16 7.54496C11.9156 7.49574 11.6617 7.53098 11.44 7.64494C11.2321 7.76245 11.0647 7.94029 10.96 8.15495C10.9193 8.2449 10.8613 8.32595 10.7892 8.39347C10.7172 8.461 10.6326 8.51368 10.5402 8.5485C10.4478 8.58333 10.3494 8.59966 10.2507 8.59648C10.152 8.59329 10.055 8.57066 9.965 8.52995C9.87504 8.48924 9.794 8.43121 9.72647 8.35917C9.65894 8.28714 9.60626 8.20254 9.57144 8.11015C9.53662 8.01776 9.52031 7.91941 9.5235 7.82072C9.52668 7.72203 9.54929 7.62491 9.59 7.53495C9.82969 7.01127 10.2371 6.58243 10.7478 6.3162C11.2585 6.04998 11.8434 5.96159 12.41 6.06498C12.7925 6.12817 13.1552 6.27874 13.47 6.50499C13.7902 6.73605 14.0535 7.03694 14.24 7.38493C14.3904 7.69732 14.4723 8.03829 14.48 8.38493C14.4856 8.71802 14.4208 9.04858 14.29 9.35496L14.24 9.457Z" fill="#1F1F1F"/>
</svg>
