<svg width="24" height="24" viewBox="0 0 24 24" fill="none" xmlns="http://www.w3.org/2000/svg">
<path d="M7.37598 9.68978V7.37773C7.37526 6.46264 7.64607 5.56792 8.15412 4.80682C8.66217 4.04572 9.38462 3.45248 10.23 3.10219C11.0754 2.75191 12.0057 2.66033 12.9032 2.83905C13.8007 3.01777 14.6249 3.45876 15.2716 4.10619C15.4669 4.29926 15.6413 4.51237 15.7919 4.742" stroke="#1F1F1F" stroke-width="1.5" stroke-linecap="round" stroke-linejoin="round"/>
<path d="M8.53174 17.7819H15.4679" stroke="#1F1F1F" stroke-width="1.5" stroke-linecap="round" stroke-linejoin="round"/>
<path d="M17 9.6875H7C5.61929 9.6875 4.5 10.7228 4.5 12V18.9375C4.5 20.2147 5.61929 21.25 7 21.25H17C18.3807 21.25 19.5 20.2147 19.5 18.9375V12C19.5 10.7228 18.3807 9.6875 17 9.6875Z" stroke="#1F1F1F" stroke-width="1.5" stroke-linecap="round" stroke-linejoin="round"/>
</svg>
