<svg width="24" height="24" viewBox="0 0 24 24" fill="none" xmlns="http://www.w3.org/2000/svg">
<path d="M20.7194 14.621C20.6866 14.7519 20.6213 14.8722 20.5294 14.971C20.4409 15.0701 20.3267 15.1428 20.1994 15.181C20.0684 15.2158 19.9305 15.2158 19.7994 15.181L13.9894 13.721L13.7194 18.5211L14.7794 19.321C14.8125 19.3424 14.8392 19.3722 14.8567 19.4074C14.8743 19.4426 14.8822 19.4818 14.8794 19.5211V21.2711C14.8793 21.3088 14.8712 21.3461 14.8557 21.3806C14.8402 21.415 14.8176 21.4458 14.7894 21.471C14.7371 21.4855 14.6818 21.4855 14.6294 21.471H14.5694L11.9994 20.781L9.43947 21.471C9.40286 21.4801 9.36467 21.4808 9.32777 21.473C9.29088 21.4652 9.25623 21.4491 9.22641 21.426C9.19659 21.4029 9.17238 21.3734 9.15559 21.3397C9.1388 21.3059 9.12986 21.2687 9.12945 21.231V19.481C9.12945 19.4422 9.13849 19.4039 9.15585 19.3692C9.17321 19.3345 9.19841 19.3043 9.22946 19.281L10.2894 18.481L10.0194 13.681L4.20946 15.1411C4.08186 15.1764 3.94705 15.1764 3.81946 15.1411C3.68922 15.1031 3.57171 15.0305 3.47946 14.931C3.38855 14.833 3.32629 14.712 3.29947 14.5811C3.25955 14.4541 3.25955 14.318 3.29947 14.191L3.81946 12.6411C3.84547 12.5397 3.89713 12.4467 3.96947 12.371C4.04622 12.2932 4.1381 12.232 4.23945 12.191L9.98945 9.72101V4.49103C9.98945 4.23034 10.0404 3.97215 10.1394 3.73102C10.2422 3.49007 10.3879 3.26986 10.5694 3.08105C10.9519 2.71958 11.4582 2.51813 11.9844 2.51813C12.5107 2.51813 13.017 2.71958 13.3994 3.08105C13.5848 3.26793 13.7315 3.48954 13.831 3.73322C13.9305 3.97689 13.981 4.23782 13.9794 4.50104V9.72101L19.7394 12.191C19.8378 12.2321 19.9264 12.2935 19.9994 12.371C20.0715 12.4486 20.126 12.5406 20.1594 12.6411L20.6794 14.181C20.7287 14.3222 20.7425 14.4733 20.7194 14.621Z" fill="#1F1F1F"/>
</svg>
