<svg width="24" height="24" viewBox="0 0 24 24" fill="none" xmlns="http://www.w3.org/2000/svg">
<path d="M21.1787 7.75988C20.923 7.23067 20.5202 6.78629 20.0187 6.47988L13.5487 2.47988C13.0741 2.18587 12.5269 2.03009 11.9687 2.03009C11.4104 2.03009 10.8632 2.18587 10.3887 2.47988L3.91865 6.47988C3.42404 6.79277 3.03176 7.24347 2.79011 7.77652C2.54846 8.30956 2.46801 8.90168 2.55867 9.47988L4.22865 19.4799C4.34808 20.1724 4.70679 20.801 5.24226 21.256C5.77773 21.7111 6.45596 21.9637 7.15864 21.9699H16.7687C17.495 21.9673 18.1993 21.7208 18.7687 21.2699C19.306 20.8125 19.6609 20.1772 19.7687 19.4799L21.4487 9.47988C21.5307 8.89247 21.4368 8.29392 21.1787 7.75988ZM16.5287 11.4399L12.1887 15.7699C11.9342 16.0298 11.6072 16.2071 11.2504 16.2784C10.8937 16.3498 10.5237 16.312 10.1887 16.1699C9.96743 16.077 9.76685 15.941 9.59864 15.7699L7.44862 13.6199C7.34394 13.5302 7.25895 13.4199 7.19892 13.2959C7.1389 13.1718 7.10518 13.0367 7.09986 12.8989C7.09454 12.7612 7.11777 12.6239 7.16804 12.4956C7.21831 12.3672 7.29452 12.2507 7.39198 12.1532C7.48943 12.0558 7.606 11.9795 7.73432 11.9292C7.86265 11.879 7.99999 11.8558 8.13771 11.8611C8.27543 11.8664 8.41055 11.9001 8.53462 11.9602C8.65868 12.0202 8.76901 12.1052 8.85865 12.2099L10.8587 14.2099L15.0687 9.99987C15.257 9.81157 15.5124 9.70578 15.7787 9.70578C16.045 9.70578 16.3004 9.81157 16.4887 9.99987C16.677 10.1882 16.7828 10.4436 16.7828 10.7099C16.7828 10.9762 16.677 11.2316 16.4887 11.4199L16.5287 11.4399Z" fill="#1F1F1F"/>
</svg>
