<svg width="24" height="24" viewBox="0 0 24 24" fill="none" xmlns="http://www.w3.org/2000/svg">
<path d="M18.6071 11.0353V18.9638C18.6089 19.2656 18.5506 19.5648 18.4355 19.8438C18.3204 20.1228 18.1509 20.3761 17.9368 20.5889C17.7228 20.8017 17.4685 20.9698 17.1888 21.0832C16.9092 21.1967 16.6097 21.2533 16.3079 21.2498H5.04943C4.7465 21.2534 4.44593 21.1963 4.16537 21.082C3.8848 20.9677 3.62992 20.7985 3.41571 20.5843C3.20149 20.3701 3.03226 20.1152 2.91797 19.8346C2.80367 19.5541 2.74662 19.2535 2.75016 18.9506V7.69209C2.74662 7.38916 2.80367 7.08859 2.91797 6.80803C3.03226 6.52747 3.20149 6.27258 3.41571 6.05837C3.62992 5.84415 3.8848 5.67492 4.16537 5.56063C4.44593 5.44633 4.7465 5.38928 5.04943 5.39283H12.9779" stroke="#1F1F1F" stroke-width="1.5" stroke-linecap="round" stroke-linejoin="round"/>
<path d="M21.2501 2.75L10.6787 13.3213" stroke="#1F1F1F" stroke-width="1.5" stroke-linecap="round" stroke-linejoin="round"/>
<path d="M15.9644 2.75H21.25V8.03567" stroke="#1F1F1F" stroke-width="1.5" stroke-linecap="round" stroke-linejoin="round"/>
</svg>
