<svg width="24" height="24" viewBox="0 0 24 24" fill="none" xmlns="http://www.w3.org/2000/svg">
<path d="M12 21.5C17.2467 21.5 21.5 17.2467 21.5 12C21.5 6.7533 17.2467 2.5 12 2.5C6.7533 2.5 2.5 6.7533 2.5 12C2.5 17.2467 6.7533 21.5 12 21.5Z" stroke="#1F1F1F" stroke-width="1.5" stroke-linecap="round" stroke-linejoin="round"/>
<path d="M6.37402 19.6528C6.90748 18.6208 7.7145 17.7554 8.7068 17.1513C9.69909 16.5472 10.8384 16.2277 12.0001 16.2277C13.1618 16.2277 14.3011 16.5472 15.2934 17.1513C16.2858 17.7554 17.0927 18.6208 17.6262 19.6528" stroke="#1F1F1F" stroke-width="1.5" stroke-linecap="round" stroke-linejoin="round"/>
<path d="M11.9999 13.0556C13.8771 13.0556 15.3988 11.5339 15.3988 9.6567C15.3988 7.77954 13.8771 6.25781 11.9999 6.25781C10.1227 6.25781 8.60107 7.77954 8.60107 9.6567C8.60107 11.5339 10.1227 13.0556 11.9999 13.0556Z" stroke="#1F1F1F" stroke-width="1.5" stroke-linecap="round" stroke-linejoin="round"/>
</svg>
