<svg width="24" height="24" viewBox="0 0 24 24" fill="none" xmlns="http://www.w3.org/2000/svg">
<path d="M21.25 9.71429C21.2308 10.5693 20.9537 11.3845 20.473 12C19.0578 14.0114 15.7925 15.4286 12 15.4286C8.2075 15.4286 4.94225 14.0114 3.527 12C3.04631 11.3845 2.76918 10.5693 2.75 9.71429C2.75 6.56 6.894 4 12 4C17.106 4 21.25 6.56 21.25 9.71429Z" stroke="#1F1F1F" stroke-width="1.5" stroke-linecap="round" stroke-linejoin="round"/>
<path d="M17.7226 9.71428C17.7108 10.1402 17.5393 10.5463 17.2419 10.8529C16.3664 11.8548 14.3464 12.5607 12.0002 12.5607C9.65405 12.5607 7.63404 11.8548 6.75851 10.8529C6.46114 10.5463 6.28969 10.1402 6.27783 9.71428C6.27783 8.14304 8.84147 6.86783 12.0002 6.86783C15.159 6.86783 17.7226 8.14304 17.7226 9.71428Z" stroke="#1F1F1F" stroke-width="1.5" stroke-linecap="round" stroke-linejoin="round"/>
<path d="M21.25 9.71429V14.2857C21.25 17.44 17.106 20 12 20C6.894 20 2.75 17.44 2.75 14.2857V9.71429" stroke="#1F1F1F" stroke-width="1.5" stroke-linecap="round" stroke-linejoin="round"/>
</svg>
