<svg width="24" height="24" viewBox="0 0 24 24" fill="none" xmlns="http://www.w3.org/2000/svg">
<path d="M15.25 2.75H8.75C5.43629 2.75 2.75 5.43629 2.75 8.75V15.25C2.75 18.5637 5.43629 21.25 8.75 21.25H15.25C18.5637 21.25 21.25 18.5637 21.25 15.25V8.75C21.25 5.43629 18.5637 2.75 15.25 2.75Z" stroke="#1F1F1F" stroke-width="1.5"/>
<path d="M13.5 7.5H10.5C8.84315 7.5 7.5 8.84315 7.5 10.5V13.5C7.5 15.1569 8.84315 16.5 10.5 16.5H13.5C15.1569 16.5 16.5 15.1569 16.5 13.5V10.5C16.5 8.84315 15.1569 7.5 13.5 7.5Z" stroke="#1F1F1F" stroke-width="1.5"/>
</svg>
