<svg width="24" height="24" viewBox="0 0 24 24" fill="none" xmlns="http://www.w3.org/2000/svg">
<path d="M21.5 16.0524V7.94761C21.5 6.84329 21.0553 5.78421 20.2637 5.00334C19.4721 4.22247 18.3984 3.78378 17.2789 3.78378H6.72108C5.60158 3.78378 4.52793 4.22247 3.73633 5.00334C2.94472 5.78421 2.5 6.84329 2.5 7.94761V16.0524C2.5 17.1567 2.94472 18.2158 3.73633 18.9967C4.52793 19.7775 5.60158 20.2162 6.72108 20.2162H17.2789C18.3984 20.2162 19.4721 19.7775 20.2637 18.9967C21.0553 18.2158 21.5 17.1567 21.5 16.0524Z" stroke="#1F1F1F" stroke-width="1.5" stroke-linecap="round" stroke-linejoin="round"/>
<path d="M8.5521 12.1403C9.68652 12.1403 10.6062 11.2207 10.6062 10.0862C10.6062 8.95181 9.68652 8.03218 8.5521 8.03218C7.41768 8.03218 6.49805 8.95181 6.49805 10.0862C6.49805 11.2207 7.41768 12.1403 8.5521 12.1403Z" stroke="#1F1F1F" stroke-width="1.5" stroke-linecap="round" stroke-linejoin="round"/>
<path d="M11.6329 15.9678C11.6329 15.1559 11.3083 14.3772 10.7305 13.803C10.1527 13.2289 9.36894 12.9063 8.55178 12.9063C7.73463 12.9063 6.95094 13.2289 6.37313 13.803C5.79532 14.3772 5.4707 15.1559 5.4707 15.9678" stroke="#1F1F1F" stroke-width="1.5" stroke-linecap="round" stroke-linejoin="round"/>
<path d="M14.5674 8.91891H18.162" stroke="#1F1F1F" stroke-width="1.5" stroke-linecap="round" stroke-linejoin="round"/>
<path d="M14.5674 12H16.1079" stroke="#1F1F1F" stroke-width="1.5" stroke-linecap="round" stroke-linejoin="round"/>
<path d="M14.5674 15.0811H18.162" stroke="#1F1F1F" stroke-width="1.5" stroke-linecap="round" stroke-linejoin="round"/>
</svg>
