<svg width="24" height="24" viewBox="0 0 24 24" fill="none" xmlns="http://www.w3.org/2000/svg">
<path d="M21.2701 8.1814C20.7733 6.96285 20.0352 5.85736 19.1002 4.9314C18.1714 4.00163 17.0685 3.26405 15.8545 2.76079C14.6406 2.25756 13.3393 1.99854 12.0251 1.99854C10.711 1.99854 9.4097 2.25756 8.19572 2.76079C6.98173 3.26405 5.87884 4.00163 4.95011 4.9314C4.02368 5.86443 3.28679 6.96809 2.78013 8.1814C2.27771 9.39192 2.0227 10.6908 2.03013 12.0014C2.01914 13.2952 2.27088 14.5777 2.77012 15.7714L2.27012 19.4214C2.19008 19.7296 2.19008 20.0532 2.27012 20.3614C2.35059 20.6668 2.50914 20.9459 2.73014 21.1714C2.9492 21.4018 3.21999 21.5766 3.52012 21.6814C3.81661 21.7788 4.13235 21.8028 4.44016 21.7514L8.10013 21.2114C9.32239 21.7371 10.6396 22.006 11.9701 22.0014C13.2846 22.0046 14.5865 21.7462 15.8002 21.2414C17.0121 20.7377 18.113 20.0004 19.0402 19.0714C19.9749 18.1491 20.7131 17.0469 21.2101 15.8314C22.2241 13.3822 22.2241 10.6306 21.2101 8.1814H21.2701ZM11.9202 18.2614C11.5886 18.2614 11.2707 18.1297 11.0363 17.8953C10.8018 17.6609 10.6702 17.3429 10.6702 17.0114C10.6702 16.6799 10.8018 16.362 11.0363 16.1275C11.2707 15.8931 11.5886 15.7614 11.9202 15.7614C12.2517 15.7614 12.5697 15.8931 12.8041 16.1275C13.0385 16.362 13.1702 16.6799 13.1702 17.0114C13.1702 17.3429 13.0385 17.6609 12.8041 17.8953C12.5697 18.1297 12.2517 18.2614 11.9202 18.2614ZM15.4701 10.8714C15.2815 11.3169 14.9983 11.7161 14.6401 12.0414C14.2869 12.3721 13.8678 12.6242 13.4102 12.7814C13.2787 12.8367 13.1647 12.9265 13.0801 13.0414C12.9896 13.1703 12.9407 13.3239 12.9402 13.4814V14.1114C12.9402 14.3766 12.8348 14.631 12.6473 14.8185C12.4597 15.006 12.2054 15.1114 11.9402 15.1114C11.675 15.1114 11.4206 15.006 11.233 14.8185C11.0455 14.631 10.9402 14.3766 10.9402 14.1114V13.4514C10.9454 12.8882 11.1234 12.3402 11.4501 11.8814C11.7743 11.4303 12.2224 11.0829 12.7402 10.8814C12.9409 10.8193 13.1253 10.7134 13.2801 10.5714C13.4283 10.4331 13.5474 10.2665 13.6302 10.0814C13.7022 9.89301 13.7394 9.69309 13.7402 9.49139C13.7328 9.29064 13.6852 9.09342 13.6002 8.91141C13.4684 8.68141 13.2874 8.48337 13.0702 8.33142C12.8423 8.16748 12.5781 8.0611 12.3002 8.02139C11.8793 7.94394 11.4447 8.00354 11.0602 8.19141C10.6901 8.38791 10.395 8.70064 10.2201 9.08142C10.1092 9.32064 9.9082 9.5063 9.66099 9.59807C9.41377 9.68985 9.1403 9.68028 8.90012 9.57141C8.77955 9.51741 8.67086 9.44006 8.58036 9.34381C8.48985 9.24756 8.41933 9.13432 8.37284 9.01064C8.32635 8.88697 8.3048 8.75532 8.30948 8.62329C8.31417 8.49126 8.34498 8.36145 8.40012 8.24139C8.76231 7.4586 9.37438 6.8184 10.1401 6.42142C10.9088 6.02279 11.7877 5.8892 12.6401 6.04141C13.2213 6.14125 13.7717 6.37359 14.2486 6.72043C14.7255 7.06726 15.1161 7.51927 15.3901 8.04141C15.6069 8.48121 15.7262 8.96256 15.74 9.45267C15.7539 9.94277 15.6618 10.4301 15.4701 10.8814V10.8714Z" fill="#1F1F1F"/>
</svg>
