<svg width="24" height="24" viewBox="0 0 24 24" fill="none" xmlns="http://www.w3.org/2000/svg">
<path d="M18.5851 3.19384C18.1596 2.79219 17.6584 2.4792 17.1107 2.27318C16.563 2.06716 15.9798 1.97221 15.3951 1.99382H8.66515C8.07461 1.97245 7.48565 2.06787 6.93206 2.27459C6.37846 2.4813 5.87114 2.79527 5.43914 3.19848C5.00713 3.60168 4.65897 4.08616 4.41461 4.6242C4.17026 5.16223 4.03449 5.74324 4.01514 6.33385V19.6938C4.04517 20.1412 4.19357 20.5726 4.44515 20.9438C4.69949 21.3038 5.04448 21.5902 5.44515 21.7739C5.75907 21.9174 6.09997 21.9923 6.44515 21.9938H6.74515C7.18262 21.9373 7.59697 21.7647 7.94515 21.4938L11.3751 18.9538C11.5552 18.8273 11.77 18.7594 11.9901 18.7594C12.2102 18.7594 12.425 18.8273 12.6051 18.9538L16.0151 21.4838C16.3676 21.762 16.7895 21.9384 17.2351 21.9938C17.6785 22.0429 18.127 21.9739 18.5351 21.7938C18.9494 21.6066 19.304 21.3087 19.5599 20.9329C19.8157 20.5571 19.9628 20.1179 19.9851 19.6638V6.31383C19.9712 5.72676 19.8403 5.14837 19.5998 4.6126C19.3594 4.07683 19.0144 3.59448 18.5851 3.19384ZM15.0151 10.7438H9.01514C8.81623 10.7438 8.62547 10.6648 8.48482 10.5242C8.34417 10.3835 8.26514 10.1927 8.26514 9.99382C8.26514 9.79491 8.34417 9.60414 8.48482 9.46349C8.62547 9.32284 8.81623 9.24382 9.01514 9.24382H15.0151C15.214 9.24382 15.4048 9.32284 15.5454 9.46349C15.6861 9.60414 15.7651 9.79491 15.7651 9.99382C15.7651 10.1927 15.6861 10.3835 15.5454 10.5242C15.4048 10.6648 15.214 10.7438 15.0151 10.7438Z" fill="#1F1F1F"/>
</svg>
