<svg width="24" height="24" viewBox="0 0 24 24" fill="none" xmlns="http://www.w3.org/2000/svg">
<path d="M19.6434 7.11615L13.1622 3.08912C12.8076 2.86751 12.3979 2.75 11.9798 2.75C11.5616 2.75 11.1519 2.86751 10.7973 3.08912L4.31613 7.11615C3.94761 7.34834 3.65512 7.68332 3.47474 8.07978C3.29435 8.47623 3.23396 8.91682 3.301 9.34719L4.97428 19.3869C5.06221 19.9128 5.33556 20.3898 5.74482 20.7315C6.15408 21.0732 6.6722 21.2571 7.20532 21.2498H16.7988C17.3319 21.2571 17.8501 21.0732 18.2593 20.7315C18.6686 20.3898 18.9419 19.9128 19.0299 19.3869L20.7031 9.34719C20.7658 8.91228 20.6987 8.46855 20.5102 8.07164C20.3216 7.67474 20.0201 7.34234 19.6434 7.11615Z" stroke="#1F1F1F" stroke-width="1.5" stroke-linecap="round" stroke-linejoin="round"/>
<path d="M13.6526 10.1392H10.3061C9.38196 10.1392 8.63281 10.8884 8.63281 11.8125V15.1591C8.63281 16.0832 9.38196 16.8323 10.3061 16.8323H13.6526C14.5768 16.8323 15.3259 16.0832 15.3259 15.1591V11.8125C15.3259 10.8884 14.5768 10.1392 13.6526 10.1392Z" stroke="#1F1F1F" stroke-width="1.5" stroke-linecap="round" stroke-linejoin="round"/>
</svg>
