<svg width="24" height="24" viewBox="0 0 24 24" fill="none" xmlns="http://www.w3.org/2000/svg">
<path d="M21.1762 7.75489C20.9275 7.22677 20.5271 6.78467 20.0262 6.4849L13.5562 2.4849C13.0817 2.19088 12.5345 2.0351 11.9762 2.0351C11.418 2.0351 10.8708 2.19088 10.3962 2.4849L3.90619 6.4849C3.41301 6.7941 3.0231 7.24317 2.7862 7.77488C2.54569 8.30708 2.46578 8.89791 2.55622 9.47489L4.2262 19.4749C4.34563 20.1674 4.7044 20.796 5.23987 21.251C5.77534 21.7061 6.45351 21.9587 7.15619 21.9649H16.7862C17.5132 21.9663 18.2188 21.7193 18.7862 21.2649C19.3194 20.8042 19.6735 20.1705 19.7862 19.4749L21.4563 9.41489C21.5291 8.84604 21.4317 8.26836 21.1762 7.75489ZM15.1762 14.8349C15.1762 15.3441 14.9739 15.8325 14.6139 16.1926C14.2538 16.5526 13.7655 16.7549 13.2562 16.7549H10.5862C10.077 16.7549 9.58864 16.5526 9.22858 16.1926C8.86851 15.8325 8.6662 15.3441 8.6662 14.8349V12.1649C8.6662 11.6557 8.86851 11.1673 9.22858 10.8073C9.58864 10.4472 10.077 10.2449 10.5862 10.2449H13.2562C13.7655 10.2449 14.2538 10.4472 14.6139 10.8073C14.9739 11.1673 15.1762 11.6557 15.1762 12.1649V14.8349Z" fill="#1F1F1F"/>
</svg>
