<svg width="24" height="24" viewBox="0 0 24 24" fill="none" xmlns="http://www.w3.org/2000/svg">
<path d="M8.59255 3.21667H4.69752C3.62193 3.21667 2.75 4.08861 2.75 5.16419V18.7968C2.75 19.8724 3.62193 20.7443 4.69752 20.7443H8.59255C9.66813 20.7443 10.5401 19.8724 10.5401 18.7968V5.16419C10.5401 4.08861 9.66813 3.21667 8.59255 3.21667Z" stroke="#1F1F1F" stroke-width="1.5" stroke-linecap="round" stroke-linejoin="round"/>
<path d="M6.64498 17.3789C7.47527 17.3789 8.14836 16.7058 8.14836 15.8755C8.14836 15.0452 7.47527 14.3722 6.64498 14.3722C5.81468 14.3722 5.1416 15.0452 5.1416 15.8755C5.1416 16.7058 5.81468 17.3789 6.64498 17.3789Z" stroke="#1F1F1F" stroke-width="1.5" stroke-linecap="round" stroke-linejoin="round"/>
<path d="M10.5399 7.92968L13.6559 19.6148C13.7905 20.113 14.1173 20.5375 14.5646 20.795C15.012 21.0524 15.5432 21.1217 16.0416 20.9878L19.81 20.014C20.3083 19.8795 20.7328 19.5526 20.9902 19.1053C21.2477 18.658 21.317 18.1267 21.183 17.6283L17.658 4.3852C17.5235 3.88693 17.1966 3.46245 16.7493 3.20501C16.302 2.94757 15.7708 2.87822 15.2723 3.0122L11.5136 4.01517C11.1082 4.12609 10.7495 4.36521 10.4912 4.6968" stroke="#1F1F1F" stroke-width="1.5" stroke-linecap="round" stroke-linejoin="round"/>
<path d="M16.6649 17.241C17.4943 17.241 18.1667 16.5686 18.1667 15.7392C18.1667 14.9098 17.4943 14.2374 16.6649 14.2374C15.8355 14.2374 15.1631 14.9098 15.1631 15.7392C15.1631 16.5686 15.8355 17.241 16.6649 17.241Z" stroke="#1F1F1F" stroke-width="1.5" stroke-linecap="round" stroke-linejoin="round"/>
</svg>
