<svg width="24" height="24" viewBox="0 0 24 24" fill="none" xmlns="http://www.w3.org/2000/svg">
<path d="M21.0034 15.5784C20.7814 15.0201 20.489 14.4925 20.1334 14.0084C19.6797 13.4689 19.3731 12.8212 19.2434 12.1283C19.2434 9.23835 19.2434 8.25837 17.6634 6.36837C17.1398 5.75093 16.4926 5.25015 15.7634 4.89837L15.0334 4.54836C14.993 4.5229 14.9589 4.48873 14.9334 4.44835C14.9088 4.41964 14.8916 4.38529 14.8834 4.34835C14.7773 3.66202 14.4172 3.04059 13.8745 2.6072C13.3319 2.17381 12.6462 1.96008 11.9534 2.00835C11.283 1.98134 10.6255 2.19859 10.1032 2.61977C9.58079 3.04095 9.22909 3.63743 9.11336 4.29836C9.10239 4.35025 9.0783 4.39843 9.04337 4.43834C9.01837 4.47015 8.98788 4.49726 8.95336 4.51836L8.17336 4.89837C7.43709 5.24765 6.78542 5.75259 6.26337 6.37835C4.69337 8.25835 4.69337 9.23835 4.69337 12.1283C4.57695 12.7791 4.29449 13.3888 3.87336 13.8984C3.50534 14.3943 3.2091 14.9397 2.99337 15.5184C2.85892 15.9081 2.8125 16.3227 2.85746 16.7325C2.90242 17.1423 3.03762 17.5371 3.25336 17.8884C3.48152 18.1791 3.77806 18.4088 4.11655 18.5571C4.45505 18.7054 4.82498 18.7677 5.19337 18.7384H8.01337C8.05608 19.006 8.1299 19.2678 8.23336 19.5184C8.43109 20.0151 8.73089 20.4648 9.11336 20.8383C9.48285 21.2186 9.92954 21.5153 10.4234 21.7084C10.8839 21.8964 11.376 21.9948 11.8734 21.9983H12.0334C13.0793 21.9913 14.0808 21.5749 14.8234 20.8383C15.1972 20.4635 15.4929 20.0183 15.6934 19.5283C15.7943 19.2727 15.8713 19.0082 15.9234 18.7384H18.8634C19.2095 18.7356 19.5509 18.6571 19.8634 18.5084C20.2146 18.331 20.5168 18.07 20.7434 17.7483C20.9694 17.426 21.1073 17.0503 21.1434 16.6583C21.188 16.2923 21.1398 15.9209 21.0034 15.5784ZM14.8234 11.4784C14.6829 11.619 14.4923 11.6982 14.2934 11.6984C14.0954 11.694 13.9063 11.6155 13.7634 11.4784L12.7634 10.4784V13.8584C12.7634 14.0573 12.6844 14.248 12.5437 14.3887C12.4031 14.5293 12.2123 14.6084 12.0134 14.6084C11.8145 14.6084 11.6237 14.5293 11.4831 14.3887C11.3424 14.248 11.2634 14.0573 11.2634 13.8584V10.4784L10.2634 11.4784C10.1228 11.6188 9.93211 11.6977 9.73336 11.6977C9.53461 11.6977 9.34399 11.6188 9.20336 11.4784C9.1326 11.4094 9.07637 11.327 9.03797 11.236C8.99957 11.1449 8.97979 11.0471 8.97979 10.9484C8.97979 10.8496 8.99957 10.7518 9.03797 10.6607C9.07637 10.5697 9.1326 10.4873 9.20336 10.4184L11.2034 8.41836C11.3197 8.30794 11.4553 8.2198 11.6034 8.15835C11.7405 8.09193 11.891 8.05772 12.0434 8.05834C12.1978 8.05911 12.3506 8.0897 12.4934 8.14837C12.6399 8.21707 12.7749 8.30815 12.8934 8.41836L14.8934 10.4184C14.9598 10.4919 15.0108 10.578 15.0433 10.6716C15.0758 10.7651 15.0892 10.8643 15.0827 10.9632C15.0761 11.062 15.0498 11.1586 15.0053 11.2471C14.9608 11.3356 14.8989 11.4142 14.8234 11.4784Z" fill="#1F1F1F"/>
</svg>
