<svg width="24" height="24" viewBox="0 0 24 24" fill="none" xmlns="http://www.w3.org/2000/svg">
<path d="M21.8895 11.6001L20.4695 4.51007C20.3294 3.78969 19.94 3.14173 19.3695 2.68008C18.7994 2.23285 18.094 1.99304 17.3695 2.00009H9.88953C9.47935 1.99854 9.07289 2.07814 8.69361 2.23431C8.31432 2.39049 7.96973 2.62017 7.67957 2.91009C7.44588 2.62433 7.15128 2.39434 6.81739 2.23691C6.48349 2.07947 6.11866 1.99857 5.74951 2.00009H4.55957C3.89123 2.00009 3.25018 2.2656 2.77759 2.73819C2.305 3.21078 2.03955 3.85173 2.03955 4.52008V12.8101C2.03955 13.4784 2.305 14.1194 2.77759 14.592C3.25018 15.0646 3.89123 15.3301 4.55957 15.3301H5.75952C6.10821 15.3311 6.4532 15.2587 6.77198 15.1174C7.09075 14.9761 7.37611 14.7691 7.6095 14.5101C7.73002 14.6771 7.86744 14.8312 8.01953 14.9701L8.95948 20.6201C9.00086 20.8741 9.10114 21.1149 9.2522 21.3233C9.40326 21.5316 9.60092 21.7018 9.82947 21.8201C10.0599 21.9337 10.3127 21.9951 10.5696 22.0001C10.8268 21.9975 11.0799 21.936 11.3096 21.8201L12.4095 21.2801C13.2923 20.845 13.9986 20.1197 14.41 19.2258C14.8215 18.3318 14.9132 17.3236 14.6695 16.3701L14.4095 15.3701H18.8495C19.31 15.3735 19.7651 15.2708 20.1796 15.0701C20.8082 14.7699 21.3187 14.2685 21.6302 13.6454C21.9418 13.0223 22.0365 12.3131 21.8995 11.6301L21.8895 11.6001ZM6.75952 12.8101C6.75952 13.0753 6.65421 13.3296 6.46668 13.5172C6.27914 13.7047 6.02474 13.8101 5.75952 13.8101H4.56958C4.30437 13.8101 4.04997 13.7047 3.86243 13.5172C3.67489 13.3296 3.56958 13.0753 3.56958 12.8101V4.52008C3.56958 4.25486 3.67489 4.00052 3.86243 3.81299C4.04997 3.62545 4.30437 3.52008 4.56958 3.52008H5.75952C6.02474 3.52008 6.27914 3.62545 6.46668 3.81299C6.65421 4.00052 6.75952 4.25486 6.75952 4.52008V12.8101Z" fill="#1F1F1F"/>
</svg>
