<svg width="24" height="24" viewBox="0 0 24 24" fill="none" xmlns="http://www.w3.org/2000/svg">
<path d="M21.9976 11.9078V18.5078C22.0226 18.9691 21.9534 19.4308 21.7941 19.8644C21.6348 20.2981 21.3888 20.6948 21.0711 21.0302C20.7534 21.3657 20.3706 21.6328 19.9462 21.8154C19.5218 21.998 19.0646 22.0922 18.6026 22.0922C18.1406 22.0922 17.6834 21.998 17.259 21.8154C16.8346 21.6328 16.4518 21.3657 16.1341 21.0302C15.8164 20.6948 15.5704 20.2981 15.4111 19.8644C15.2518 19.4308 15.1826 18.9691 15.2076 18.5078V15.8678C15.2072 15.252 15.3744 14.6477 15.6915 14.1198C16.0086 13.5919 16.4635 13.1604 17.0073 12.8715C17.5511 12.5826 18.1634 12.4473 18.7783 12.4802C19.3933 12.513 19.9876 12.7127 20.4976 13.0578V11.9078C20.4976 9.6535 19.6021 7.49149 18.008 5.89743C16.4139 4.30337 14.2519 3.40784 11.9976 3.40784C9.74322 3.40784 7.58121 4.30337 5.98715 5.89743C4.39309 7.49149 3.49756 9.6535 3.49756 11.9078V13.0578C4.05432 12.6776 4.71338 12.4754 5.38757 12.4778C6.28666 12.4778 7.14892 12.835 7.78467 13.4707C8.42042 14.1065 8.77756 14.9687 8.77756 15.8678V18.5078C8.77756 18.953 8.68989 19.3938 8.51953 19.8051C8.34917 20.2164 8.09946 20.5901 7.78467 20.9049C7.46988 21.2197 7.09617 21.4694 6.68487 21.6398C6.27358 21.8101 5.83275 21.8978 5.38757 21.8978C4.94239 21.8978 4.50156 21.8101 4.09027 21.6398C3.67898 21.4694 3.30527 21.2197 2.99048 20.9049C2.67569 20.5901 2.42598 20.2164 2.25561 19.8051C2.08525 19.3938 1.99756 18.953 1.99756 18.5078V11.9078C1.99756 9.25567 3.05115 6.71213 4.92651 4.83676C6.80188 2.9614 9.34539 1.90784 11.9976 1.90784C14.6498 1.90784 17.1933 2.9614 19.0687 4.83676C20.944 6.71213 21.9976 9.25567 21.9976 11.9078Z" fill="#1F1F1F"/>
</svg>
