<svg width="24" height="24" viewBox="0 0 24 24" fill="none" xmlns="http://www.w3.org/2000/svg">
<path d="M22.2044 9.41001V14.54C22.2146 14.9224 22.1176 15.2999 21.9244 15.63C21.7141 15.9609 21.4165 16.2274 21.0644 16.4C20.785 16.5393 20.4767 16.6112 20.1644 16.61H19.9144C19.5487 16.5585 19.2034 16.41 18.9144 16.18L16.3844 14.18V15.09C16.3844 16.241 15.9272 17.3449 15.1133 18.1588C14.2994 18.9728 13.1955 19.43 12.0445 19.43H6.13446C4.98383 19.4273 3.88069 18.971 3.06446 18.16C2.66019 17.7578 2.33977 17.2793 2.12176 16.7523C1.90376 16.2253 1.79251 15.6603 1.79446 15.09V8.92002C1.79367 8.35031 1.90583 7.7861 2.12446 7.26001C2.56648 6.1946 3.41094 5.34654 4.47446 4.9C5.00055 4.68137 5.56475 4.56922 6.13446 4.57001H11.9244C12.4973 4.57025 13.0646 4.68234 13.5944 4.9C14.658 5.34654 15.5024 6.1946 15.9444 7.26001C16.1655 7.78854 16.2745 8.35719 16.2644 8.93V9.83002L18.7945 7.83002C19.0247 7.64913 19.2903 7.51862 19.5742 7.44696C19.8581 7.37531 20.1539 7.3641 20.4424 7.41407C20.7309 7.46403 21.0057 7.57405 21.2489 7.737C21.4922 7.89996 21.6985 8.11223 21.8544 8.36002C22.0616 8.67306 22.1823 9.03528 22.2044 9.41001Z" fill="#1F1F1F"/>
</svg>
