<svg width="24" height="24" viewBox="0 0 24 24" fill="none" xmlns="http://www.w3.org/2000/svg">
<path d="M12.0002 9.40158C10.8906 6.88905 8.30933 6.66571 7.10728 7.76145C6.12869 8.64084 5.65866 10.7486 6.55249 12.6888C8.09357 16.0249 12.0002 17.7767 12.0002 17.7767C12.0002 17.7767 15.9069 16.0249 17.4479 12.6888C18.3418 10.7486 17.8718 8.64084 16.8932 7.76145C15.6911 6.66571 13.1098 6.88905 12.0002 9.40158Z" stroke="#1F1F1F" stroke-width="1.5" stroke-linecap="round" stroke-linejoin="round"/>
<path d="M15.25 2.75H8.75C5.43629 2.75 2.75 5.43629 2.75 8.75V15.25C2.75 18.5637 5.43629 21.25 8.75 21.25H15.25C18.5637 21.25 21.25 18.5637 21.25 15.25V8.75C21.25 5.43629 18.5637 2.75 15.25 2.75Z" stroke="#1F1F1F" stroke-width="1.5"/>
</svg>
