<svg width="24" height="24" viewBox="0 0 24 24" fill="none" xmlns="http://www.w3.org/2000/svg">
<path d="M12 21.5C17.2467 21.5 21.5 17.2467 21.5 12C21.5 6.75329 17.2467 2.5 12 2.5C6.7533 2.5 2.5 6.75329 2.5 12C2.5 17.2467 6.7533 21.5 12 21.5Z" stroke="#1F1F1F" stroke-width="1.5" stroke-linecap="round" stroke-linejoin="round"/>
<path d="M5.37012 5.19C9.61012 6.19 7.62012 9.91 7.56012 13.69C7.56012 17.79 10.9201 15.31 10.7701 17.25C10.807 18.6999 11.0876 20.1332 11.6001 21.49" stroke="#1F1F1F" stroke-width="1.5" stroke-linecap="round" stroke-linejoin="round"/>
<path d="M14.7402 2.91C14.7402 4.29 14.7402 5.48 14.0002 5.69C12.8902 6 13.7202 9.92 13.0002 11.78C12.2802 13.64 15.5302 14.28 17.0002 12.78C18.4702 11.28 17.3902 10 19.0002 10C19.5702 10 20.4402 10.1 21.3202 10.13" stroke="#1F1F1F" stroke-width="1.5" stroke-linecap="round" stroke-linejoin="round"/>
</svg>
