<svg width="24" height="24" viewBox="0 0 24 24" fill="none" xmlns="http://www.w3.org/2000/svg">
<path d="M19.6901 5.01498C19.1433 4.48227 18.4443 4.1328 17.6901 4.01498V3.73501C17.6888 3.50697 17.6424 3.28142 17.5536 3.07137C17.4648 2.86132 17.3354 2.67092 17.1727 2.51107C17.0101 2.35122 16.8175 2.22505 16.606 2.13992C16.3944 2.05478 16.1681 2.01234 15.9401 2.01498H7.94011C7.48034 2.01231 7.03815 2.19172 6.71025 2.514C6.38234 2.83628 6.19538 3.27527 6.19011 3.73501V4.035C5.48808 4.1859 4.84319 4.53262 4.33012 5.035C3.98617 5.37055 3.7133 5.77192 3.52775 6.21517C3.3422 6.65842 3.2477 7.1345 3.25004 7.61501V17.335C3.25199 17.9491 3.37691 18.5565 3.61735 19.1215C3.8578 19.6866 4.20892 20.1978 4.65007 20.625C5.54258 21.504 6.74734 21.9932 8.00004 21.985H16C17.2527 21.9932 18.4576 21.504 19.3501 20.625C19.7913 20.1978 20.1424 19.6866 20.3828 19.1215C20.6233 18.5565 20.7481 17.9491 20.75 17.335V7.605C20.7537 6.63534 20.3726 5.70381 19.6901 5.01498ZM7.69011 3.725C7.69522 3.66311 7.72405 3.60563 7.77067 3.5646C7.81729 3.52357 7.87807 3.50217 7.94011 3.50497H15.9401C16.0021 3.50217 16.0628 3.52357 16.1094 3.5646C16.156 3.60563 16.185 3.66311 16.1901 3.725V5.725C16.185 5.78689 16.156 5.84437 16.1094 5.8854C16.0628 5.92643 16.0021 5.94777 15.9401 5.94497H7.94011C7.87807 5.94777 7.81729 5.92643 7.77067 5.8854C7.72405 5.84437 7.69522 5.78689 7.69011 5.725V3.725ZM15.8501 16.855H8.15007C7.88485 16.855 7.63057 16.7496 7.44304 16.5621C7.2555 16.3746 7.15007 16.1202 7.15007 15.855C7.15007 15.5898 7.2555 15.3354 7.44304 15.1479C7.63057 14.9603 7.88485 14.855 8.15007 14.855H15.8501C16.1153 14.855 16.3696 14.9603 16.5571 15.1479C16.7447 15.3354 16.8501 15.5898 16.8501 15.855C16.8501 16.1202 16.7447 16.3746 16.5571 16.5621C16.3696 16.7496 16.1153 16.855 15.8501 16.855ZM15.8501 12.465H8.15007C7.88485 12.465 7.63057 12.3596 7.44304 12.1721C7.2555 11.9845 7.15007 11.7302 7.15007 11.465C7.15007 11.1998 7.2555 10.9454 7.44304 10.7579C7.63057 10.5704 7.88485 10.465 8.15007 10.465H15.8501C16.1153 10.465 16.3696 10.5704 16.5571 10.7579C16.7447 10.9454 16.8501 11.1998 16.8501 11.465C16.8501 11.7302 16.7447 11.9845 16.5571 12.1721C16.3696 12.3596 16.1153 12.465 15.8501 12.465Z" fill="#1F1F1F"/>
</svg>
