<svg width="24" height="24" viewBox="0 0 24 24" fill="none" xmlns="http://www.w3.org/2000/svg">
<path d="M21.7852 8.89983C21.137 6.82087 19.8392 5.00454 18.0825 3.71761C16.3258 2.43069 14.2028 1.74099 12.0252 1.74984C10.9675 1.74968 9.91584 1.90811 8.90519 2.21984C7.33584 2.71773 5.90899 3.58527 4.74479 4.74947C3.58058 5.91368 2.71301 7.34049 2.21512 8.90984C1.90262 9.90979 1.74747 10.9523 1.75516 11.9999C1.75574 13.0476 1.91415 14.0893 2.22513 15.0899C2.87656 17.1657 4.17343 18.9795 5.92704 20.2673C7.68065 21.5551 9.79947 22.2496 11.9751 22.2499C13.0341 22.2581 14.0875 22.096 15.0951 21.7699C16.6644 21.272 18.0913 20.4044 19.2555 19.2402C20.4197 18.076 21.2873 16.6492 21.7852 15.0799C22.097 14.0832 22.2521 13.0442 22.2451 11.9999V11.9099C22.243 10.8892 22.0879 9.87457 21.7852 8.89983ZM12.0051 2.99984C12.82 2.99795 13.6323 3.09193 14.4252 3.27984L13.7752 6.50982C12.6006 6.18476 11.3598 6.18476 10.1852 6.50982L9.53519 3.27984C10.3439 3.08546 11.1734 2.99142 12.0051 2.99984ZM6.44523 13.6799L3.36515 14.2898C2.99846 12.7548 2.99846 11.1549 3.36515 9.61984L6.45524 10.2299C6.13528 11.3576 6.13528 12.5521 6.45524 13.6799H6.44523ZM11.9951 20.9799C11.1658 20.9837 10.3393 20.8829 9.53519 20.6799L10.1852 17.4299C10.7753 17.5895 11.3838 17.6701 11.9951 17.6699C12.6113 17.674 13.2248 17.5864 13.8152 17.4099L14.4651 20.6699C13.657 20.8762 12.8288 20.9936 11.9951 21.0199V20.9799ZM16.0851 13.6799C15.8703 14.2115 15.5507 14.6945 15.1453 15.1C14.7398 15.5055 14.2568 15.8251 13.7251 16.0398C13.1797 16.2723 12.593 16.3921 12.0001 16.3921C11.4073 16.3921 10.8206 16.2723 10.2752 16.0398C9.7431 15.8238 9.25951 15.5038 8.85258 15.0985C8.44564 14.6933 8.12353 14.211 7.90519 13.6799C7.67444 13.1323 7.55547 12.5441 7.55521 11.9499C7.56356 11.0779 7.82501 10.2271 8.3079 9.501C8.79078 8.7749 9.47426 8.20472 10.2752 7.85983C10.8195 7.62987 11.4042 7.51087 11.9951 7.50982C12.8688 7.51623 13.7218 7.77688 14.4498 8.25988C15.1779 8.74289 15.7495 9.42736 16.0951 10.2299C16.3258 10.7774 16.4449 11.3656 16.4452 11.9599C16.4455 12.5519 16.3228 13.1376 16.0851 13.6799ZM17.5652 13.6799C17.7165 13.119 17.7938 12.5408 17.7952 11.9599C17.7976 11.374 17.7134 10.791 17.5452 10.2299L20.6552 9.61984C21.0152 11.1557 21.0152 12.754 20.6552 14.2898L17.5652 13.6799Z" fill="#1F1F1F"/>
</svg>
