<svg width="24" height="24" viewBox="0 0 24 24" fill="none" xmlns="http://www.w3.org/2000/svg">
<path d="M20.7098 5.27503H16.0198V4.38501C16.0196 4.07267 15.9576 3.76345 15.8375 3.47513C15.7173 3.18682 15.5414 2.92511 15.3198 2.70502C14.874 2.25925 14.2702 2.00764 13.6398 2.00501H10.3798C10.0658 2.00446 9.75492 2.06602 9.46488 2.18616C9.17483 2.3063 8.91141 2.48265 8.68981 2.70502C8.24585 3.152 7.9946 3.75505 7.98981 4.38501V5.27503H3.2998C3.10089 5.27503 2.91012 5.35404 2.76946 5.49469C2.62881 5.63535 2.5498 5.82612 2.5498 6.02503C2.5498 6.22394 2.62881 6.41468 2.76946 6.55533C2.91012 6.69598 3.10089 6.77503 3.2998 6.77503H4.72981V18.535C4.72488 19.455 5.08442 20.3394 5.72981 20.995C6.38898 21.6349 7.2711 21.9935 8.18981 21.995H15.8098C16.7301 21.995 17.6127 21.6294 18.2635 20.9787C18.9142 20.3279 19.2798 19.4453 19.2798 18.525V6.77503H20.6998C20.8987 6.77503 21.0895 6.69598 21.2301 6.55533C21.3708 6.41468 21.4498 6.22394 21.4498 6.02503C21.4498 5.82612 21.3708 5.63535 21.2301 5.49469C21.0895 5.35404 20.8987 5.27503 20.6998 5.27503H20.7098ZM9.48981 4.38501C9.49313 4.15252 9.5863 3.93034 9.74979 3.76502C9.83224 3.68197 9.93045 3.61618 10.0386 3.57154C10.1468 3.52689 10.2628 3.50428 10.3798 3.50501H13.6398C13.8723 3.50833 14.0945 3.60152 14.2598 3.76502C14.3421 3.84595 14.4075 3.94245 14.4521 4.04889C14.4967 4.15534 14.5197 4.26959 14.5198 4.38501V5.27503H9.5198L9.48981 4.38501ZM14.7298 17.455H9.28981C9.0246 17.455 8.77023 17.3496 8.5827 17.1621C8.39516 16.9746 8.28981 16.7202 8.28981 16.455C8.28981 16.1898 8.39516 15.9354 8.5827 15.7479C8.77023 15.5604 9.0246 15.455 9.28981 15.455H14.7298C14.995 15.455 15.2494 15.5604 15.4369 15.7479C15.6244 15.9354 15.7298 16.1898 15.7298 16.455C15.7298 16.7202 15.6244 16.9746 15.4369 17.1621C15.2494 17.3496 14.995 17.455 14.7298 17.455ZM14.7298 13.105H9.28981C9.0246 13.105 8.77023 12.9996 8.5827 12.8121C8.39516 12.6246 8.28981 12.3702 8.28981 12.105C8.28981 11.8398 8.39516 11.5854 8.5827 11.3979C8.77023 11.2104 9.0246 11.105 9.28981 11.105H14.7298C14.995 11.105 15.2494 11.2104 15.4369 11.3979C15.6244 11.5854 15.7298 11.8398 15.7298 12.105C15.7298 12.3702 15.6244 12.6246 15.4369 12.8121C15.2494 12.9996 14.995 13.105 14.7298 13.105Z" fill="#1F1F1F"/>
</svg>
