<svg width="24" height="24" viewBox="0 0 24 24" fill="none" xmlns="http://www.w3.org/2000/svg">
<path d="M16.9596 5.95316C16.9569 6.06321 16.9316 6.17152 16.8851 6.27132C16.8387 6.37112 16.7721 6.46026 16.6896 6.53316L5.49964 17.8832C5.38738 18.0012 5.23931 18.0789 5.07839 18.1042C4.91748 18.1295 4.75271 18.1011 4.60964 18.0232C1.49964 16.5532 4.60963 13.6532 5.04963 11.8132C4.79963 8.10316 6.04964 5.81316 9.14964 4.44316C9.29203 3.77028 9.66131 3.16675 10.1956 2.73367C10.7299 2.3006 11.3968 2.06427 12.0846 2.06427C12.7724 2.06427 13.4393 2.3006 13.9736 2.73367C14.5079 3.16675 14.8772 3.77028 15.0196 4.44316C15.6396 4.84316 16.8596 5.06316 16.9596 5.95316Z" fill="#1F1F1F"/>
<path d="M20.7396 16.8532C20.5696 19.3332 17.3996 18.8532 15.7396 18.8532C15.1296 22.9632 8.73961 22.9632 8.08961 18.8532C7.32961 19.0332 6.66961 18.3432 7.28961 17.6832L16.9796 7.75321C19.1196 7.09321 18.8396 10.3032 18.9796 12.4732C19.0296 13.9232 20.9596 15.2132 20.7396 16.8532Z" fill="#1F1F1F"/>
</svg>
