<svg width="24" height="24" viewBox="0 0 24 24" fill="none" xmlns="http://www.w3.org/2000/svg">
<path d="M10.5678 2.97461C10.1771 3.29421 9.91729 3.74614 9.83778 4.24461C9.80505 4.39838 9.73653 4.54228 9.63778 4.66461C9.54323 4.79171 9.41985 4.89453 9.27778 4.96461L8.48778 5.34461C7.85383 5.65483 7.29179 6.09424 6.83778 6.63461C5.43778 8.30461 5.43778 9.05461 5.43778 11.9046C5.43778 13.1946 4.06778 14.3646 3.70778 15.5246C3.48778 16.2146 3.36778 17.7746 5.18778 17.7746H18.7678C19.0339 17.7875 19.2989 17.7324 19.5378 17.6146C19.7763 17.4959 19.9822 17.3208 20.1378 17.1046C20.2858 16.8868 20.3785 16.6363 20.4078 16.3746C20.4309 16.1078 20.3862 15.8395 20.2778 15.5946C19.9178 14.5046 18.4878 13.2046 18.4878 11.9146C18.4878 11.0346 18.4878 10.3546 18.4878 9.78461" stroke="#1F1F1F" stroke-width="1.5" stroke-linecap="round" stroke-linejoin="round"/>
<path d="M15.2275 17.7746C15.2304 18.202 15.1523 18.6262 14.9975 19.0246C14.831 19.4202 14.5899 19.78 14.2875 20.0846C13.983 20.3908 13.6195 20.6321 13.219 20.7936C12.8185 20.9552 12.3893 21.0338 11.9575 21.0246C11.5249 21.0273 11.0963 20.9422 10.6975 20.7746C9.89732 20.4409 9.26123 19.8048 8.92749 19.0046C8.77063 18.6137 8.69247 18.1957 8.69749 17.7746" stroke="#1F1F1F" stroke-width="1.5" stroke-linecap="round" stroke-linejoin="round"/>
<path d="M10.1475 8.92463H14.3875C14.4247 8.92435 14.4612 8.93498 14.4924 8.95522C14.5236 8.97545 14.5481 9.0044 14.563 9.03847C14.5779 9.07253 14.5825 9.11023 14.5762 9.14687C14.5699 9.18352 14.553 9.21751 14.5275 9.24463L10.4675 13.3046C10.4421 13.3317 10.4252 13.3657 10.4188 13.4024C10.4125 13.439 10.4171 13.4767 10.432 13.5108C10.4469 13.5449 10.4715 13.5738 10.5027 13.594C10.5339 13.6143 10.5703 13.6249 10.6075 13.6246H14.8475" stroke="#1F1F1F" stroke-width="1.5" stroke-linecap="round" stroke-linejoin="round"/>
<path d="M14.0977 3.16461H16.7877C16.8073 3.16489 16.8264 3.1709 16.8425 3.18191C16.8587 3.19291 16.8713 3.20843 16.8788 3.22653C16.8862 3.24463 16.8882 3.26452 16.8845 3.28373C16.8807 3.30294 16.8714 3.32063 16.8577 3.33461L14.2677 5.92461C14.254 5.93859 14.2447 5.95628 14.241 5.97549C14.2372 5.99471 14.2392 6.0146 14.2467 6.0327C14.2541 6.0508 14.2667 6.06631 14.2829 6.07732C14.2991 6.08832 14.3182 6.09434 14.3377 6.09461H16.9977" stroke="#1F1F1F" stroke-width="1.5" stroke-linecap="round" stroke-linejoin="round"/>
</svg>
