<svg width="24" height="24" viewBox="0 0 24 24" fill="none" xmlns="http://www.w3.org/2000/svg">
<path d="M17 4.625H7C4.79086 4.625 3 6.41586 3 8.625V17.375C3 19.5841 4.79086 21.375 7 21.375H17C19.2091 21.375 21 19.5841 21 17.375V8.625C21 6.41586 19.2091 4.625 17 4.625Z" stroke="#1F1F1F" stroke-width="1.5" stroke-linecap="round" stroke-linejoin="round"/>
<path d="M3 9.625H21" stroke="#1F1F1F" stroke-width="1.5" stroke-linecap="round" stroke-linejoin="round"/>
<path d="M17 2.625V6.625" stroke="#1F1F1F" stroke-width="1.5" stroke-linecap="round" stroke-linejoin="round"/>
<path d="M7 2.625V6.625" stroke="#1F1F1F" stroke-width="1.5" stroke-linecap="round" stroke-linejoin="round"/>
<path d="M12 17.4677V12.4677" stroke="#1F1F1F" stroke-width="1.5" stroke-miterlimit="10" stroke-linecap="round"/>
<path d="M9.70703 15.3627L11.6743 17.33C11.7169 17.373 11.7677 17.4071 11.8236 17.4304C11.8794 17.4537 11.9394 17.4657 11.9999 17.4657C12.0604 17.4657 12.1204 17.4537 12.1763 17.4304C12.2322 17.4071 12.2829 17.373 12.3255 17.33L14.2928 15.3627" stroke="#1F1F1F" stroke-width="1.5" stroke-linecap="round" stroke-linejoin="round"/>
</svg>
