<svg width="24" height="24" viewBox="0 0 24 24" fill="none" xmlns="http://www.w3.org/2000/svg">
<path d="M19.2501 10.377L13.5187 2.49501C13.3472 2.2602 13.1205 2.07127 12.8586 1.94489C12.4701 1.75093 12.0258 1.69975 11.6034 1.80032C11.181 1.90089 10.8074 2.1468 10.548 2.49501L4.81659 10.377C4.47147 10.8467 4.28568 11.4145 4.28643 11.9973C4.28147 12.0573 4.28147 12.1175 4.28643 12.1774C4.28617 12.2804 4.30657 12.3825 4.34645 12.4775C4.40374 12.8896 4.5618 13.2813 4.80658 13.6178L10.538 21.4997C10.7086 21.7379 10.9354 21.9303 11.1982 22.0598C11.4559 22.1883 11.7404 22.2534 12.0283 22.2499C12.316 22.2512 12.6002 22.1862 12.8586 22.0598C13.1136 21.9271 13.3356 21.7392 13.5087 21.5097L19.2402 13.6277C19.4884 13.281 19.6496 12.8796 19.7103 12.4575C19.7162 12.4345 19.7162 12.4104 19.7103 12.3874C19.7198 12.3278 19.7198 12.267 19.7103 12.2074C19.7201 12.1411 19.7201 12.0737 19.7103 12.0074C19.7329 11.4289 19.5718 10.8582 19.2501 10.377ZM12.2484 20.6195C12.2218 20.6625 12.1837 20.6971 12.1384 20.7195C12.0388 20.759 11.9279 20.759 11.8283 20.7195C11.7851 20.6942 11.7476 20.6601 11.7183 20.6195L6.71709 13.6978L11.7183 15.7683C11.8098 15.8082 11.9085 15.8286 12.0083 15.8283C12.1048 15.8275 12.2001 15.8071 12.2884 15.7683L17.2896 13.6978L12.2484 20.6195Z" fill="#1F1F1F"/>
</svg>
