<svg width="24" height="24" viewBox="0 0 24 24" fill="none" xmlns="http://www.w3.org/2000/svg">
<path d="M18.001 12H19.8741C20.4744 12 20.961 12.4866 20.961 13.0869V20.1631C20.961 20.7634 20.4744 21.25 19.8741 21.25H18.001C17.4008 21.25 16.9141 20.7634 16.9141 20.1631V13.0869C16.9141 12.4866 17.4008 12 18.001 12Z" stroke="#1F1F1F" stroke-width="1.3" stroke-linecap="round" stroke-linejoin="round"/>
<path d="M11.0634 7.375H12.9365C13.5368 7.375 14.0234 7.86161 14.0234 8.46188V20.1631C14.0234 20.7634 13.5368 21.25 12.9365 21.25H11.0634C10.4631 21.25 9.97656 20.7634 9.97656 20.1631V8.46188C9.97656 7.86161 10.4631 7.375 11.0634 7.375Z" stroke="#1F1F1F" stroke-width="1.3" stroke-linecap="round" stroke-linejoin="round"/>
<path d="M4.12593 2.75H5.99906C6.59932 2.75 7.08593 3.23661 7.08593 3.83688V20.1631C7.08593 20.7634 6.59932 21.25 5.99906 21.25H4.12593C3.52567 21.25 3.03906 20.7634 3.03906 20.1631V3.83688C3.03906 3.23661 3.52567 2.75 4.12593 2.75Z" stroke="#1F1F1F" stroke-width="1.3" stroke-linecap="round" stroke-linejoin="round"/>
</svg>
