<svg width="24" height="24" viewBox="0 0 24 24" fill="none" xmlns="http://www.w3.org/2000/svg">
<path d="M5.97813 3.21249H12.9157C13.6516 3.21249 14.3575 3.50486 14.8779 4.02527C15.3983 4.54569 15.6907 5.25152 15.6907 5.98749V20.7875H3.20312V5.98749C3.20312 5.25152 3.49549 4.54569 4.0159 4.02527C4.53631 3.50486 5.24215 3.21249 5.97813 3.21249Z" stroke="#1F1F1F" stroke-width="1.5" stroke-linecap="round" stroke-linejoin="round"/>
<path d="M2.75 20.7875H21.25" stroke="#1F1F1F" stroke-width="1.5" stroke-linecap="round" stroke-linejoin="round"/>
<path d="M8.53105 14.3125H10.381C10.749 14.3125 11.102 14.4587 11.3622 14.7189C11.6224 14.9791 11.7685 15.332 11.7685 15.7V20.7875H7.14355V15.7C7.14355 15.332 7.28973 14.9791 7.54994 14.7189C7.81015 14.4587 8.16306 14.3125 8.53105 14.3125Z" stroke="#1F1F1F" stroke-width="1.5" stroke-linecap="round" stroke-linejoin="round"/>
<path d="M6.67188 6.91251H12.2219" stroke="#1F1F1F" stroke-width="1.5" stroke-linecap="round" stroke-linejoin="round"/>
<path d="M6.67188 10.6125H12.2219" stroke="#1F1F1F" stroke-width="1.5" stroke-linecap="round" stroke-linejoin="round"/>
<path d="M15.6909 9.22501H17.5409C18.2768 9.22501 18.9827 9.51737 19.5031 10.0378C20.0235 10.5582 20.3159 11.264 20.3159 12V20.7875" stroke="#1F1F1F" stroke-width="1.5" stroke-linecap="round" stroke-linejoin="round"/>
</svg>
