<svg width="24" height="24" viewBox="0 0 24 24" fill="none" xmlns="http://www.w3.org/2000/svg">
<path d="M21.4956 13.9299C21.636 14.0705 21.7149 14.2611 21.7149 14.4599C21.7149 14.6587 21.636 14.8493 21.4956 14.9899C21.4263 15.06 21.3438 15.1156 21.2528 15.1534C21.1618 15.1912 21.0641 15.2104 20.9656 15.2099C20.867 15.2109 20.7691 15.192 20.6781 15.1542C20.587 15.1164 20.5045 15.0605 20.4356 14.9899L18.5156 13.0699L16.5856 14.9899C16.5174 15.0614 16.435 15.118 16.3438 15.1559C16.2525 15.1937 16.1543 15.2121 16.0556 15.2099C15.957 15.2104 15.8594 15.1912 15.7684 15.1534C15.6774 15.1156 15.5948 15.06 15.5256 14.9899C15.3851 14.8493 15.3062 14.6587 15.3062 14.4599C15.3062 14.2611 15.3851 14.0705 15.5256 13.9299L17.4456 12.0099L15.5256 10.0899C15.3851 9.94928 15.3062 9.75866 15.3062 9.55991C15.3062 9.36116 15.3851 9.17053 15.5256 9.02991C15.5945 8.95915 15.6769 8.90292 15.768 8.86452C15.859 8.82612 15.9568 8.80634 16.0556 8.80634C16.1544 8.80634 16.2521 8.82612 16.3432 8.86452C16.4342 8.90292 16.5166 8.95915 16.5856 9.02991L18.5156 10.9499L20.4356 9.02991C20.5045 8.95915 20.5869 8.90292 20.6779 8.86452C20.769 8.82612 20.8668 8.80634 20.9656 8.80634C21.0644 8.80634 21.1622 8.82612 21.2532 8.86452C21.3442 8.90292 21.4266 8.95915 21.4956 9.02991C21.636 9.17053 21.7149 9.36116 21.7149 9.55991C21.7149 9.75866 21.636 9.94928 21.4956 10.0899L19.5756 12.0099L21.4956 13.9299Z" fill="#1F1F1F"/>
<path d="M13.7052 6.85999V17.14C13.7071 17.5253 13.618 17.9056 13.4452 18.25C13.2776 18.5961 13.0225 18.8926 12.7052 19.11C12.3827 19.3268 12.0039 19.445 11.6152 19.45C11.2335 19.45 10.8606 19.335 10.5452 19.12L6.54519 16.49C6.46347 16.4407 6.37057 16.4132 6.27523 16.41H4.38521C4.09477 16.4075 3.80835 16.3419 3.54586 16.2175C3.28336 16.0932 3.05107 15.9132 2.86519 15.69C2.48843 15.2422 2.28287 14.6752 2.28518 14.09V9.90997C2.2835 9.3279 2.48912 8.76425 2.86519 8.31998C3.05107 8.09679 3.28336 7.91676 3.54586 7.79242C3.80835 7.66808 4.09477 7.60242 4.38521 7.59998H6.27523C6.37226 7.59796 6.46636 7.56658 6.54519 7.50998L10.5452 4.87997C10.866 4.66851 11.241 4.55396 11.6252 4.54999C12.0105 4.55692 12.3855 4.67499 12.7052 4.88998C13.0225 5.10737 13.2776 5.40379 13.4452 5.74997C13.6169 6.09476 13.7059 6.47482 13.7052 6.85999Z" fill="#1F1F1F"/>
</svg>
