<svg width="24" height="24" viewBox="0 0 24 24" fill="none" xmlns="http://www.w3.org/2000/svg">
<path d="M20.7049 5.27002H16.0049V4.38001C16.0038 3.75124 15.7561 3.14801 15.3149 2.70002C15.0933 2.47764 14.8299 2.30129 14.5398 2.18116C14.2498 2.06102 13.9388 1.99945 13.6249 2H10.3649C9.73214 2.00536 9.12617 2.25636 8.67493 2.70002C8.23374 3.14801 7.98598 3.75124 7.98493 4.38001V5.27002H3.29492C3.09601 5.27002 2.90526 5.34904 2.7646 5.48969C2.62395 5.63034 2.54492 5.82111 2.54492 6.02002C2.54492 6.21894 2.62395 6.40968 2.7646 6.55033C2.90526 6.69098 3.09601 6.77002 3.29492 6.77002H4.71492V18.53C4.71492 19.4503 5.08051 20.3329 5.73126 20.9837C6.38201 21.6344 7.26462 22 8.18492 22H15.8049C16.7252 22 17.6078 21.6344 18.2586 20.9837C18.9093 20.3329 19.2749 19.4503 19.2749 18.53V6.77002H20.7049C20.9038 6.77002 21.0946 6.69098 21.2352 6.55033C21.3759 6.40968 21.4549 6.21894 21.4549 6.02002C21.4549 5.82111 21.3759 5.63034 21.2352 5.48969C21.0946 5.34904 20.9038 5.27002 20.7049 5.27002ZM14.5049 5.27002H9.50493V4.38001C9.50557 4.14891 9.59509 3.92692 9.75493 3.76001C9.92501 3.59759 10.1498 3.50481 10.3849 3.5H13.6449C13.7619 3.49927 13.8779 3.52189 13.9861 3.56653C14.0943 3.61118 14.1924 3.67696 14.2749 3.76001C14.4356 3.92634 14.5253 4.14871 14.5249 4.38001L14.5049 5.27002Z" fill="#1F1F1F"/>
</svg>
