<svg width="24" height="24" viewBox="0 0 24 24" fill="none" xmlns="http://www.w3.org/2000/svg">
<path d="M19.4101 9.23757C18.9222 8.74834 18.261 8.47159 17.5701 8.46756H17.39V7.40756C17.3949 6.7 17.2585 5.99859 16.9889 5.34438C16.7193 4.69017 16.322 4.09631 15.8201 3.59757C15.3155 3.09126 14.7179 2.68719 14.0601 2.40756C12.7399 1.8674 11.2603 1.8674 9.94007 2.40756C9.28802 2.68343 8.6942 3.08044 8.19007 3.57756C7.18887 4.58947 6.62513 5.95407 6.62012 7.37756V8.47757H6.45008C5.76133 8.4802 5.10153 8.75497 4.61451 9.24199C4.12748 9.72901 3.85274 10.3888 3.8501 11.0776V17.5576C3.8501 18.1415 3.96522 18.7196 4.18897 19.259C4.41273 19.7983 4.74071 20.2882 5.15406 20.7007C5.56741 21.1131 6.05807 21.4399 6.59791 21.6625C7.13775 21.885 7.71615 21.9989 8.30006 21.9976H15.7001C16.2832 21.9977 16.8607 21.8829 17.3994 21.6599C17.9382 21.4368 18.4277 21.1098 18.8401 20.6976C19.2564 20.2877 19.5867 19.7988 19.8117 19.2596C20.0366 18.7204 20.1516 18.1418 20.15 17.5576V11.0776C20.1547 10.7371 20.0918 10.3992 19.9647 10.0833C19.8377 9.76744 19.6491 9.47996 19.4101 9.23757ZM15.89 8.46756H8.14002V7.40756C8.15193 6.38323 8.5564 5.4025 9.27003 4.66756C9.63408 4.31157 10.0614 4.02669 10.53 3.82756C11.4905 3.42977 12.5696 3.42977 13.53 3.82756C14.0013 4.02185 14.4295 4.30731 14.7901 4.66756C15.1477 5.03024 15.4328 5.45791 15.63 5.92757C15.8257 6.39625 15.9243 6.89971 15.9201 7.40756L15.89 8.46756Z" fill="#1F1F1F"/>
</svg>
