<svg width="24" height="24" viewBox="0 0 24 24" fill="none" xmlns="http://www.w3.org/2000/svg">
<path d="M10.1777 16.4139L13.856 12.7356C13.9589 12.6331 14.0405 12.5113 14.0962 12.3771C14.1519 12.243 14.1806 12.0992 14.1806 11.954C14.1806 11.8088 14.1519 11.6649 14.0962 11.5308C14.0405 11.3966 13.9589 11.2748 13.856 11.1723L10.1777 7.58594" stroke="#1F1F1F" stroke-width="1.5" stroke-linecap="round" stroke-linejoin="round"/>
<path d="M15.25 2.75H8.75C5.43629 2.75 2.75 5.43629 2.75 8.75V15.25C2.75 18.5637 5.43629 21.25 8.75 21.25H15.25C18.5637 21.25 21.25 18.5637 21.25 15.25V8.75C21.25 5.43629 18.5637 2.75 15.25 2.75Z" stroke="#1F1F1F" stroke-width="1.5"/>
</svg>
