<svg width="24" height="24" viewBox="0 0 24 24" fill="none" xmlns="http://www.w3.org/2000/svg">
<path d="M13.6313 2.5228C13.1534 2.18272 12.5814 2 11.9949 2C11.4083 2 10.8363 2.18272 10.3584 2.5228C7.69612 4.52457 3.24219 8.5281 3.24219 13.2623C3.24219 19.668 8.47682 22 11.9999 22C15.523 22 20.7576 19.668 20.7576 13.2623C20.7576 8.53811 16.2937 4.50456 13.6313 2.5228ZM11.9999 19.2676C11.2098 19.2682 10.4274 19.1129 9.69749 18.8107C8.96755 18.5084 8.30448 18.065 7.74617 17.506C7.1878 16.9519 6.74533 16.2922 6.44461 15.5654C6.14388 14.8385 5.99092 14.0589 5.99462 13.2723C5.99462 13.0069 6.10003 12.7523 6.28773 12.5646C6.47543 12.3769 6.73006 12.2714 6.99551 12.2714C7.26096 12.2714 7.51547 12.3769 7.70317 12.5646C7.89087 12.7523 7.9964 13.0069 7.9964 13.2723C7.99287 13.7972 8.09459 14.3174 8.29573 14.8022C8.49688 15.287 8.79329 15.7266 9.16735 16.0948C9.53943 16.4665 9.98108 16.7612 10.467 16.9621C10.9531 17.163 11.474 17.2662 11.9999 17.2658C12.2654 17.2658 12.5199 17.3713 12.7076 17.559C12.8953 17.7467 13.0008 18.0013 13.0008 18.2667C13.0008 18.5322 12.8953 18.7867 12.7076 18.9744C12.5199 19.1621 12.2654 19.2676 11.9999 19.2676Z" fill="#1F1F1F"/>
</svg>
