<svg width="24" height="24" viewBox="0 0 24 24" fill="none" xmlns="http://www.w3.org/2000/svg">
<path d="M20.6801 7.0141C20.458 6.55005 20.1451 6.13522 19.76 5.7941L16.76 3.0741C16.0997 2.46885 15.2613 2.09352 14.37 2.00412H8.21008C7.54764 1.97603 6.88617 2.07995 6.26428 2.30988C5.64239 2.53981 5.07249 2.89115 4.58765 3.34342C4.10281 3.79569 3.71274 4.33985 3.44018 4.94428C3.16763 5.54871 3.01797 6.20132 3 6.86411V17.1641C3.03537 18.1636 3.36978 19.1296 3.95984 19.9371C4.5499 20.7446 5.36855 21.3567 6.31006 21.6941C6.92247 21.9257 7.57613 22.0278 8.22998 21.9941H15.7901C16.4525 22.0222 17.1139 21.9183 17.7358 21.6883C18.3576 21.4584 18.9277 21.1071 19.4125 20.6548C19.8974 20.2026 20.2874 19.6584 20.56 19.0539C20.8325 18.4495 20.9821 17.7969 21 17.1341V8.56412C21.0049 8.03057 20.8958 7.50212 20.6801 7.0141ZM7.68005 6.61411H10.9401C11.2053 6.61411 11.4596 6.71948 11.6471 6.90702C11.8347 7.09455 11.9401 7.34889 11.9401 7.61411C11.9401 7.87933 11.8347 8.1337 11.6471 8.32123C11.4596 8.50877 11.2053 8.61411 10.9401 8.61411H7.68005C7.41484 8.61411 7.16044 8.50877 6.9729 8.32123C6.78536 8.1337 6.68005 7.87933 6.68005 7.61411C6.68005 7.34889 6.78536 7.09455 6.9729 6.90702C7.16044 6.71948 7.41484 6.61411 7.68005 6.61411ZM16.38 17.3241H7.68005C7.41484 17.3241 7.16044 17.2188 6.9729 17.0312C6.78536 16.8437 6.68005 16.5893 6.68005 16.3241C6.68005 16.0589 6.78536 15.8045 6.9729 15.617C7.16044 15.4295 7.41484 15.3241 7.68005 15.3241H16.38C16.6184 15.3581 16.8365 15.4769 16.9943 15.6588C17.1521 15.8407 17.2391 16.0733 17.2391 16.3141C17.2391 16.5549 17.1521 16.7876 16.9943 16.9695C16.8365 17.1513 16.6184 17.2701 16.38 17.3041V17.3241ZM16.38 12.9741H7.68005C7.41484 12.9741 7.16044 12.8688 6.9729 12.6812C6.78536 12.4937 6.68005 12.2393 6.68005 11.9741C6.68005 11.7089 6.78536 11.4545 6.9729 11.267C7.16044 11.0795 7.41484 10.9741 7.68005 10.9741H16.38C16.6453 10.9741 16.8997 11.0795 17.0872 11.267C17.2747 11.4545 17.38 11.7089 17.38 11.9741C17.38 12.2393 17.2747 12.4937 17.0872 12.6812C16.8997 12.8688 16.6453 12.9741 16.38 12.9741ZM16.0601 7.40412C15.9174 7.40544 15.7759 7.37849 15.6437 7.3248C15.5115 7.27112 15.3913 7.19176 15.29 7.09134C15.1886 6.99092 15.1082 6.87141 15.0533 6.73972C14.9984 6.60803 14.97 6.46677 14.97 6.3241V3.67411C15.63 3.83411 18.2 6.4741 18.76 6.9141C18.9257 7.05362 19.0675 7.21912 19.1801 7.40412H16.0601Z" fill="#1F1F1F"/>
</svg>
