<svg width="24" height="24" viewBox="0 0 24 24" fill="none" xmlns="http://www.w3.org/2000/svg">
<path d="M21.444 9.47333L19.774 19.4734C19.6612 20.169 19.3072 20.8026 18.774 21.2633C18.2058 21.7163 17.5007 21.9631 16.774 21.9633H7.16401C6.46132 21.9572 5.78309 21.7045 5.24762 21.2495C4.71216 20.7944 4.35345 20.1658 4.23401 19.4734L2.56403 9.47333C2.47359 8.89635 2.55351 8.30552 2.79401 7.77332C3.03443 7.24386 3.42354 6.79568 3.91401 6.48331L10.394 2.48331C10.8674 2.19127 11.4127 2.03662 11.969 2.03662C12.5253 2.03662 13.0706 2.19127 13.544 2.48331L20.014 6.48331C20.5205 6.78371 20.9248 7.22976 21.174 7.76331C21.4301 8.29439 21.524 8.88918 21.444 9.47333Z" fill="#1F1F1F"/>
</svg>
