<svg width="24" height="24" viewBox="0 0 24 24" fill="none" xmlns="http://www.w3.org/2000/svg">
<path d="M20.8202 6.48932V7.48932C20.8188 7.95476 20.7094 8.41352 20.5002 8.82932C20.2972 9.2487 19.9993 9.61505 19.6301 9.89932C19.2615 10.1807 18.8343 10.3755 18.3801 10.4693C18.1792 10.5091 17.975 10.5292 17.7702 10.5293C17.5109 10.5296 17.2525 10.4994 17.0002 10.4393L12.7602 9.23932V17.4593C12.7628 18.5622 12.3848 19.6322 11.69 20.4886C10.9951 21.3451 10.026 21.9355 8.9462 22.1602C7.86646 22.3849 6.74225 22.2302 5.7634 21.7221C4.78454 21.214 4.011 20.3837 3.5734 19.3713C3.13579 18.359 3.06091 17.2267 3.36142 16.1655C3.66193 15.1044 4.31943 14.1795 5.22287 13.5469C6.12631 12.9143 7.22033 12.6129 8.32025 12.6935C9.42017 12.7741 10.4586 13.2318 11.2602 13.9893V2.45932C11.2497 2.39307 11.2497 2.32556 11.2602 2.25931V2.17932C11.2796 2.13399 11.3031 2.09048 11.3302 2.04932C11.4414 1.88962 11.6096 1.77867 11.8002 1.73932H11.9502H12.1502H12.2402L18.5402 3.52933C19.1828 3.70231 19.7497 4.08405 20.1516 4.61447C20.5534 5.14489 20.7676 5.79388 20.7602 6.45932L20.8202 6.48932Z" fill="#1F1F1F"/>
</svg>
