<svg width="24" height="24" viewBox="0 0 24 24" fill="none" xmlns="http://www.w3.org/2000/svg">
<path d="M16.5265 11.4597L8.53289 19.4235C8.23426 19.72 7.84472 19.9072 7.42703 19.9548C7.00933 20.0025 6.58779 19.9078 6.2303 19.6862L4.99476 20.915C4.89105 21.021 4.76727 21.1053 4.63065 21.1628C4.49404 21.2204 4.34734 21.25 4.19915 21.25C4.05097 21.25 3.90427 21.2204 3.76765 21.1628C3.63104 21.1053 3.50725 21.021 3.40354 20.915L3.0853 20.5679C2.97945 20.464 2.89536 20.3399 2.83795 20.203C2.78055 20.0661 2.75098 19.9191 2.75098 19.7706C2.75098 19.6221 2.78055 19.4751 2.83795 19.3381C2.89536 19.2012 2.97945 19.0772 3.0853 18.9733L4.30211 17.7538C4.07855 17.3946 3.98277 16.9702 4.03035 16.5496C4.07793 16.129 4.26607 15.7368 4.5642 15.4369L12.511 7.47311L16.5265 11.4597Z" stroke="#1F1F1F" stroke-width="1.5" stroke-linecap="round" stroke-linejoin="round"/>
<path d="M18.7919 11.7974C18.5275 12.0586 18.1711 12.205 17.7997 12.205C17.4284 12.205 17.072 12.0586 16.8076 11.7974L12.1275 7.15417C11.8668 6.88915 11.7207 6.53199 11.7207 6.15987C11.7207 5.78775 11.8668 5.43058 12.1275 5.16557C12.2572 5.03397 12.4117 4.92949 12.582 4.85818C12.7524 4.78687 12.9351 4.75015 13.1197 4.75015C13.3043 4.75015 13.487 4.78687 13.6573 4.85818C13.8276 4.92949 13.9821 5.03397 14.1119 5.16557L14.6828 5.72838L16.5268 3.50527C17.0591 3.00819 17.7631 2.73758 18.4906 2.75044C19.2181 2.7633 19.9122 3.05864 20.4267 3.57422C20.9411 4.08981 21.2358 4.78539 21.2487 5.51442C21.2615 6.24346 20.9915 6.94903 20.4955 7.48248L18.2303 9.23658L18.7919 9.80878C18.9232 9.93878 19.0275 10.0936 19.0986 10.2643C19.1698 10.435 19.2064 10.6181 19.2064 10.8031C19.2064 10.9881 19.1698 11.1712 19.0986 11.3419C19.0275 11.5126 18.9232 11.6674 18.7919 11.7974Z" stroke="#1F1F1F" stroke-width="1.5" stroke-linecap="round" stroke-linejoin="round"/>
</svg>
