<svg width="24" height="24" viewBox="0 0 24 24" fill="none" xmlns="http://www.w3.org/2000/svg">
<path d="M19.6202 2.72503H4.39016C3.7633 2.71969 3.15985 2.96292 2.71192 3.40148C2.26399 3.84004 2.00807 4.43823 2.00016 5.06506V7.18505C1.99422 7.69161 2.15005 8.18682 2.44501 8.59869C2.73997 9.01055 3.15867 9.31756 3.64016 9.47503V17.335C3.64081 17.8553 3.74555 18.3701 3.9482 18.8493C4.15085 19.3284 4.44732 19.7622 4.82015 20.1251C5.5742 20.8677 6.59183 21.2812 7.65015 21.275H16.3602C17.4185 21.2812 18.4361 20.8677 19.1902 20.1251C19.5612 19.7609 19.8565 19.3268 20.059 18.848C20.2615 18.3691 20.3673 17.8549 20.3702 17.335V9.47503C20.8417 9.31849 21.2524 9.01834 21.5447 8.61663C21.837 8.21493 21.9963 7.73183 22.0002 7.23504V5.11505C22.0042 4.80092 21.9454 4.48911 21.8274 4.19799C21.7093 3.90687 21.5343 3.64228 21.3126 3.41967C21.091 3.19707 20.8271 3.02095 20.5365 2.90167C20.2458 2.78238 19.9343 2.72234 19.6202 2.72503ZM15.2702 15.905H8.74015C8.54124 15.905 8.35047 15.826 8.20981 15.6854C8.06916 15.5447 7.99015 15.3539 7.99015 15.155C7.99015 14.9561 8.06916 14.7653 8.20981 14.6247C8.35047 14.484 8.54124 14.405 8.74015 14.405H15.2702C15.4691 14.405 15.6599 14.484 15.8005 14.6247C15.9412 14.7653 16.0202 14.9561 16.0202 15.155C16.0202 15.3539 15.9412 15.5447 15.8005 15.6854C15.6599 15.826 15.4691 15.905 15.2702 15.905ZM20.5002 7.18505C20.4989 7.29885 20.475 7.41124 20.43 7.51574C20.3849 7.62025 20.3196 7.71475 20.2377 7.79382C20.1559 7.87288 20.0591 7.93491 19.9531 7.97631C19.8471 8.01772 19.734 8.03768 19.6202 8.03503H4.39016C4.2759 8.03769 4.16223 8.01778 4.05565 7.9765C3.94908 7.93521 3.8517 7.87336 3.76905 7.79443C3.6864 7.71549 3.6201 7.62104 3.57397 7.51647C3.52783 7.41191 3.50275 7.29931 3.50016 7.18505V5.06506C3.50274 4.95125 3.52787 4.83906 3.57413 4.73504C3.62039 4.63102 3.68685 4.53724 3.76964 4.4591C3.85243 4.38096 3.94992 4.32002 4.05643 4.27984C4.16295 4.23967 4.27639 4.22103 4.39016 4.22503H19.6202C19.7335 4.22102 19.8464 4.23973 19.9524 4.28002C20.0583 4.32032 20.1551 4.38138 20.2371 4.45965C20.3191 4.53792 20.3847 4.63181 20.4298 4.73577C20.475 4.83974 20.4989 4.95171 20.5002 5.06506V7.18505Z" fill="#1F1F1F"/>
</svg>
