<svg width="24" height="24" viewBox="0 0 24 24" fill="none" xmlns="http://www.w3.org/2000/svg">
<path d="M12 21.5C17.2467 21.5 21.5 17.2467 21.5 12C21.5 6.7533 17.2467 2.5 12 2.5C6.7533 2.5 2.5 6.7533 2.5 12C2.5 17.2467 6.7533 21.5 12 21.5Z" stroke="#1F1F1F" stroke-width="1.5" stroke-linecap="round" stroke-linejoin="round"/>
<path d="M8.90869 7.8639V16.1335C8.9091 16.3031 8.95693 16.4691 9.04678 16.6129C9.13663 16.7567 9.26491 16.8725 9.41713 16.9472C9.56934 17.0219 9.73941 17.0525 9.90812 17.0356C10.0768 17.0186 10.2374 16.9549 10.3718 16.8514L16.0969 12.3986C16.2103 12.3101 16.301 12.196 16.3617 12.0656C16.4224 11.9352 16.4512 11.7923 16.4459 11.6485C16.4406 11.5048 16.4012 11.3644 16.3311 11.2389C16.2609 11.1133 16.162 11.0062 16.0424 10.9264L10.3172 7.10964C10.1806 7.01963 10.0221 6.9682 9.85865 6.96077C9.69517 6.95335 9.53271 6.99021 9.38844 7.06747C9.24417 7.14472 9.12344 7.2595 9.039 7.39968C8.95456 7.53987 8.90954 7.70025 8.90869 7.8639Z" stroke="#1F1F1F" stroke-width="1.5" stroke-linecap="round" stroke-linejoin="round"/>
</svg>
