<svg width="24" height="24" viewBox="0 0 24 24" fill="none" xmlns="http://www.w3.org/2000/svg">
<path d="M19.6598 16.01C19.5546 16.229 19.3922 16.4156 19.1898 16.55C18.9869 16.6804 18.7509 16.7498 18.5098 16.75H5.50971C5.26541 16.75 5.02619 16.6807 4.81977 16.55C4.61761 16.4161 4.45761 16.2275 4.35847 16.0062C4.25933 15.7849 4.22507 15.54 4.25971 15.3C4.29817 15.058 4.40589 14.8322 4.56977 14.65L10.6598 7.88C10.8183 7.68979 11.0162 7.53627 11.2399 7.43002C11.4681 7.32014 11.7167 7.25883 11.9698 7.25C12.2228 7.25276 12.4733 7.30017 12.7098 7.39001C12.9399 7.49114 13.1473 7.63735 13.3198 7.82001L19.4298 14.65C19.5925 14.8318 19.6971 15.0582 19.7298 15.3C19.7766 15.5384 19.7522 15.7853 19.6598 16.01Z" fill="#1F1F1F"/>
</svg>
