<svg width="24" height="24" viewBox="0 0 24 24" fill="none" xmlns="http://www.w3.org/2000/svg">
<path d="M16.414 13.8223L12.7357 10.1439C12.6331 10.0411 12.5113 9.95935 12.3772 9.9037C12.243 9.848 12.0992 9.81934 11.9539 9.81934C11.8087 9.81934 11.6649 9.848 11.5308 9.9037C11.3967 9.95935 11.2749 10.0411 11.1723 10.1439L7.58594 13.8223" stroke="#1F1F1F" stroke-width="1.5" stroke-linecap="round" stroke-linejoin="round"/>
<path d="M15.25 2.75H8.75C5.43629 2.75 2.75 5.43629 2.75 8.75V15.25C2.75 18.5637 5.43629 21.25 8.75 21.25H15.25C18.5637 21.25 21.25 18.5637 21.25 15.25V8.75C21.25 5.43629 18.5637 2.75 15.25 2.75Z" stroke="#1F1F1F" stroke-width="1.5"/>
</svg>
