<svg width="24" height="24" viewBox="0 0 24 24" fill="none" xmlns="http://www.w3.org/2000/svg">
<path d="M21.8555 17.2489L14.2455 4.06889C14.0136 3.66818 13.6805 3.33549 13.2794 3.1042C12.8783 2.87291 12.4235 2.75116 11.9605 2.75116C11.4975 2.75116 11.0427 2.87291 10.6416 3.1042C10.2406 3.33549 9.90736 3.66818 9.67547 4.06889L2.06549 17.2589C1.83572 17.6609 1.71484 18.1159 1.71484 18.5789C1.71484 19.0419 1.83572 19.4969 2.06549 19.8989C2.30002 20.3182 2.64616 20.6644 3.06549 20.8989C3.46753 21.1284 3.92253 21.2491 4.3855 21.2489H19.6055C20.0685 21.2491 20.5235 21.1284 20.9255 20.8989C21.3449 20.6644 21.691 20.3182 21.9255 19.8989C22.1612 19.4989 22.2855 19.0431 22.2855 18.5789C22.2855 18.1146 22.1612 17.6589 21.9255 17.2589L21.8555 17.2489ZM14.9755 14.0689L11.2455 17.7889C11.1774 17.8604 11.095 17.9169 11.0037 17.9548C10.9124 17.9927 10.8143 18.0111 10.7155 18.0089C10.617 18.0094 10.5193 17.9901 10.4283 17.9524C10.3373 17.9146 10.2548 17.859 10.1855 17.7889C10.0451 17.6483 9.96612 17.4576 9.96612 17.2589C9.96612 17.0601 10.0451 16.8695 10.1855 16.7289L12.6355 14.2889H9.47546C9.32682 14.2877 9.18187 14.2425 9.05902 14.1588C8.93617 14.0751 8.84095 13.9568 8.78546 13.8189C8.72863 13.6833 8.7135 13.5338 8.742 13.3895C8.7705 13.2452 8.84136 13.1127 8.94549 13.0089L12.6755 9.2789C12.8177 9.14642 13.0058 9.07429 13.2001 9.07771C13.3944 9.08114 13.5797 9.15986 13.7171 9.29727C13.8546 9.43468 13.9333 9.62008 13.9367 9.81438C13.9401 10.0087 13.868 10.1967 13.7355 10.3389L11.2855 12.7889H14.4455C14.5933 12.7879 14.738 12.8312 14.861 12.9132C14.984 12.9951 15.0796 13.1121 15.1355 13.2489C15.1919 13.3863 15.2067 13.5371 15.1783 13.6828C15.1498 13.8286 15.0794 13.9628 14.9755 14.0689Z" fill="#1F1F1F"/>
</svg>
