<svg width="24" height="24" viewBox="0 0 24 24" fill="none" xmlns="http://www.w3.org/2000/svg">
<path d="M20.0002 5.81006H4.00016C3.44572 5.83857 2.92483 6.08447 2.55045 6.49442C2.17607 6.90436 1.97838 7.44532 2.00016 8.00006V16.0001C1.97838 16.5548 2.17607 17.0958 2.55045 17.5057C2.92483 17.9157 3.44572 18.1615 4.00016 18.1901H20.0002C20.5546 18.1615 21.0755 17.9157 21.4499 17.5057C21.8242 17.0958 22.0219 16.5548 22.0002 16.0001V8.00006C22.0219 7.44532 21.8242 6.90436 21.4499 6.49442C21.0755 6.08447 20.5546 5.83857 20.0002 5.81006ZM13.4702 9.17007H14.5202C14.7854 9.17007 15.0398 9.27542 15.2274 9.46295C15.4149 9.65049 15.5202 9.90486 15.5202 10.1701C15.5202 10.4353 15.4149 10.6896 15.2274 10.8772C15.0398 11.0647 14.7854 11.1701 14.5202 11.1701H13.4702C13.205 11.1701 12.9507 11.0647 12.7631 10.8772C12.5756 10.6896 12.4702 10.4353 12.4702 10.1701C12.4702 9.90486 12.5756 9.65049 12.7631 9.46295C12.9507 9.27542 13.205 9.17007 13.4702 9.17007ZM9.47013 9.17007H10.5302C10.7955 9.17007 11.0497 9.27542 11.2373 9.46295C11.4248 9.65049 11.5302 9.90486 11.5302 10.1701C11.5302 10.4353 11.4248 10.6896 11.2373 10.8772C11.0497 11.0647 10.7955 11.1701 10.5302 11.1701H9.47013C9.20491 11.1701 8.95063 11.0647 8.7631 10.8772C8.57556 10.6896 8.47013 10.4353 8.47013 10.1701C8.47013 9.90486 8.57556 9.65049 8.7631 9.46295C8.95063 9.27542 9.20491 9.17007 9.47013 9.17007ZM6.59012 14.7801H5.53019C5.26497 14.7801 5.01057 14.6747 4.82304 14.4872C4.6355 14.2996 4.53019 14.0453 4.53019 13.7801C4.53019 13.5148 4.6355 13.2605 4.82304 13.073C5.01057 12.8854 5.26497 12.7801 5.53019 12.7801H6.59012C6.85534 12.7801 7.10974 12.8854 7.29728 13.073C7.48481 13.2605 7.59012 13.5148 7.59012 13.7801C7.59012 14.0453 7.48481 14.2996 7.29728 14.4872C7.10974 14.6747 6.85534 14.7801 6.59012 14.7801ZM6.59012 11.1701H5.53019C5.26497 11.1701 5.01057 11.0647 4.82304 10.8772C4.6355 10.6896 4.53019 10.4353 4.53019 10.1701C4.53019 9.90486 4.6355 9.65049 4.82304 9.46295C5.01057 9.27542 5.26497 9.17007 5.53019 9.17007H6.59012C6.85534 9.17007 7.10974 9.27542 7.29728 9.46295C7.48481 9.65049 7.59012 9.90486 7.59012 10.1701C7.59012 10.4353 7.48481 10.6896 7.29728 10.8772C7.10974 11.0647 6.85534 11.1701 6.59012 11.1701ZM14.5902 14.7801H9.30021C9.03499 14.7801 8.78059 14.6747 8.59305 14.4872C8.40552 14.2996 8.30021 14.0453 8.30021 13.7801C8.30021 13.5148 8.40552 13.2605 8.59305 13.073C8.78059 12.8854 9.03499 12.7801 9.30021 12.7801H14.5902C14.8554 12.7801 15.1098 12.8854 15.2973 13.073C15.4849 13.2605 15.5902 13.5148 15.5902 13.7801C15.5902 14.0453 15.4849 14.2996 15.2973 14.4872C15.1098 14.6747 14.8554 14.7801 14.5902 14.7801ZM18.4002 14.7801H17.3402C17.075 14.7801 16.8207 14.6747 16.6331 14.4872C16.4456 14.2996 16.3402 14.0453 16.3402 13.7801C16.3402 13.5148 16.4456 13.2605 16.6331 13.073C16.8207 12.8854 17.075 12.7801 17.3402 12.7801H18.4002C18.6655 12.7801 18.9199 12.8854 19.1074 13.073C19.2949 13.2605 19.4002 13.5148 19.4002 13.7801C19.4002 14.0453 19.2949 14.2996 19.1074 14.4872C18.9199 14.6747 18.6655 14.7801 18.4002 14.7801ZM18.4002 11.1701H17.3402C17.075 11.1701 16.8207 11.0647 16.6331 10.8772C16.4456 10.6896 16.3402 10.4353 16.3402 10.1701C16.3402 9.90486 16.4456 9.65049 16.6331 9.46295C16.8207 9.27542 17.075 9.17007 17.3402 9.17007H18.4002C18.6655 9.17007 18.9199 9.27542 19.1074 9.46295C19.2949 9.65049 19.4002 9.90486 19.4002 10.1701C19.4002 10.4353 19.2949 10.6896 19.1074 10.8772C18.9199 11.0647 18.6655 11.1701 18.4002 11.1701Z" fill="#1F1F1F"/>
</svg>
