<svg width="24" height="24" viewBox="0 0 24 24" fill="none" xmlns="http://www.w3.org/2000/svg">
<path d="M20.7935 8.66315C20.5467 8.05989 20.1841 7.51086 19.7261 7.04709L15.8655 3.1965C15.4046 2.73721 14.8593 2.37136 14.2595 2.11911C13.6578 1.87379 13.0139 1.74841 12.3641 1.75002H7.7852C6.46234 1.75002 5.19368 2.27553 4.25828 3.21093C3.32288 4.14633 2.79736 5.41499 2.79736 6.73785V17.2622C2.79736 18.585 3.32288 19.8537 4.25828 20.7891C5.19368 21.7245 6.46234 22.25 7.7852 22.25H16.2147C17.5375 22.25 18.8062 21.7245 19.7416 20.7891C20.677 19.8537 21.2025 18.585 21.2025 17.2622V10.5585C21.1966 9.9055 21.0574 9.26052 20.7935 8.66315ZM11.2568 17.5415H8.84268C8.48286 17.5415 8.13778 17.3986 7.88335 17.1442C7.62892 16.8897 7.486 16.5447 7.486 16.1848V14.8282H11.2568V17.5415ZM11.2568 13.3318H7.486V11.9751C7.486 11.6153 7.62892 11.2702 7.88335 11.0157C8.13778 10.7613 8.48286 10.6184 8.84268 10.6184H11.2568V13.3318ZM16.5139 16.1848C16.5139 16.5447 16.3709 16.8897 16.1165 17.1442C15.8621 17.3986 15.517 17.5415 15.1572 17.5415H12.7531V14.8282H16.5139V16.1848ZM16.5139 13.3318H12.7531V10.6184H15.1572C15.517 10.6184 15.8621 10.7613 16.1165 11.0157C16.3709 11.2702 16.5139 11.6153 16.5139 11.9751V13.3318Z" fill="#1F1F1F"/>
</svg>
