<svg width="24" height="24" viewBox="0 0 24 24" fill="none" xmlns="http://www.w3.org/2000/svg">
<path d="M13.9854 14.7759C13.8489 14.7775 13.7147 14.7409 13.598 14.6702C13.4813 14.5994 13.3867 14.4975 13.325 14.3757C13.2326 14.2031 13.2123 14.001 13.2686 13.8134C13.3248 13.6259 13.4531 13.4684 13.6252 13.3752C14.0499 13.1472 14.3979 12.7992 14.6258 12.3746C14.6711 12.2885 14.7328 12.2122 14.8077 12.15C14.8825 12.0878 14.9688 12.0409 15.0617 12.0121C15.1546 11.9833 15.2524 11.9731 15.3492 11.9821C15.4461 11.9911 15.5403 12.019 15.6264 12.0644C15.7983 12.1578 15.9269 12.3147 15.9848 12.5016C16.0428 12.6885 16.0254 12.8907 15.9365 13.065C15.5742 13.7521 15.0127 14.3136 14.3256 14.6759C14.2221 14.7367 14.1053 14.771 13.9854 14.7759Z" fill="#1F1F1F"/>
<path d="M19.4088 10.6436C19.4041 11.729 19.1652 12.8007 18.7085 13.7854C18.2422 14.7618 17.5695 15.6254 16.7368 16.3164C15.9041 17.0074 14.9314 17.5093 13.8857 17.7876C13.509 17.889 13.124 17.956 12.7352 17.9877V20.4991H15.6268C15.8258 20.4991 16.0166 20.5782 16.1574 20.7189C16.2981 20.8597 16.3772 21.0505 16.3772 21.2496C16.3772 21.4486 16.2981 21.6395 16.1574 21.7802C16.0166 21.9209 15.8258 22 15.6268 22H8.3427C8.14367 22 7.95275 21.9209 7.81201 21.7802C7.67128 21.6395 7.59229 21.4486 7.59229 21.2496C7.59229 21.0505 7.67128 20.8597 7.81201 20.7189C7.95275 20.5782 8.14367 20.4991 8.3427 20.4991H11.2343V17.9877C11.0431 17.9743 10.8527 17.9509 10.6639 17.9177C10.4676 17.8819 10.2935 17.7695 10.18 17.6053C10.0665 17.4411 10.0228 17.2386 10.0586 17.0422C10.0944 16.8458 10.2069 16.6717 10.371 16.5582C10.5352 16.4447 10.7377 16.401 10.9341 16.4369C11.2281 16.4888 11.526 16.5155 11.8246 16.5169H12.1548C12.6078 16.509 13.0582 16.4452 13.4956 16.3268C14.3332 16.1048 15.1119 15.7018 15.7768 15.1461C16.4439 14.592 16.9807 13.8977 17.3491 13.1125C17.7174 12.3274 17.9082 11.4708 17.908 10.6036C17.908 10.4045 17.9871 10.2137 18.1278 10.0729C18.2686 9.93221 18.4594 9.85315 18.6584 9.85315C18.8574 9.85315 19.0484 9.93221 19.1891 10.0729C19.3298 10.2137 19.4088 10.4045 19.4088 10.6036V10.6436Z" fill="#1F1F1F"/>
<path d="M20.5193 4.56021L16.1569 8.91263L10.5337 14.5358L4.53038 20.5392C4.38745 20.6764 4.19816 20.755 4.00005 20.7593C3.80109 20.7591 3.61044 20.6799 3.46985 20.5392C3.39905 20.4702 3.34277 20.3877 3.30435 20.2967C3.26593 20.2056 3.24609 20.1077 3.24609 20.0089C3.24609 19.91 3.26593 19.8121 3.30435 19.7211C3.34277 19.63 3.39905 19.5475 3.46985 19.4786L6.93175 16.0166L6.7516 15.8165C6.06498 15.1391 5.51962 14.3322 5.14693 13.4425C4.77424 12.5529 4.5817 11.5982 4.58045 10.6336C4.57913 10.5351 4.59721 10.4372 4.63371 10.3456C4.6702 10.2541 4.72434 10.1706 4.7931 10.1C4.86185 10.0294 4.9439 9.973 5.03444 9.93408C5.12499 9.89516 5.22231 9.8745 5.32086 9.8732C5.51908 9.87579 5.70845 9.95568 5.84862 10.0959C5.9888 10.236 6.06869 10.4254 6.07128 10.6236C6.08509 12.1942 6.72214 13.695 7.8423 14.7959L7.98239 14.956L8.83284 14.1156C8.58444 13.8872 8.3659 13.6283 8.18245 13.3451C7.81567 12.781 7.61146 12.1267 7.59216 11.454V5.85092C7.62968 5.29957 7.7774 4.76136 8.0266 4.26812C8.2758 3.77488 8.62137 3.33663 9.04292 2.97931C9.89377 2.34353 10.9275 2 11.9896 2C13.0518 2 14.0854 2.34353 14.9362 2.97931C15.7676 3.68628 16.2856 4.6934 16.3771 5.78087V6.57129L19.4688 3.47959C19.5378 3.40879 19.6202 3.35251 19.7113 3.31409C19.8023 3.27567 19.9003 3.25589 19.9991 3.25589C20.098 3.25589 20.1958 3.27567 20.2869 3.31409C20.378 3.35251 20.4604 3.40879 20.5294 3.47959C20.6013 3.55026 20.6583 3.6347 20.6969 3.7279C20.7355 3.8211 20.755 3.92114 20.7541 4.02201C20.7532 4.12288 20.7319 4.22255 20.6916 4.31502C20.6512 4.40749 20.5926 4.49089 20.5193 4.56021Z" fill="#1F1F1F"/>
</svg>
