<svg width="24" height="24" viewBox="0 0 24 24" fill="none" xmlns="http://www.w3.org/2000/svg">
<path d="M11.9998 4.92647C12.6008 4.92647 13.088 4.43925 13.088 3.83824C13.088 3.23722 12.6008 2.75 11.9998 2.75C11.3988 2.75 10.9116 3.23722 10.9116 3.83824C10.9116 4.43925 11.3988 4.92647 11.9998 4.92647Z" stroke="#1F1F1F" stroke-width="1.5" stroke-linecap="round" stroke-linejoin="round"/>
<path d="M17.4413 4.92647C18.0423 4.92647 18.5295 4.43925 18.5295 3.83824C18.5295 3.23722 18.0423 2.75 17.4413 2.75C16.8402 2.75 16.353 3.23722 16.353 3.83824C16.353 4.43925 16.8402 4.92647 17.4413 4.92647Z" stroke="#1F1F1F" stroke-width="1.5" stroke-linecap="round" stroke-linejoin="round"/>
<path d="M6.55894 4.92647C7.15995 4.92647 7.64717 4.43925 7.64717 3.83824C7.64717 3.23722 7.15995 2.75 6.55894 2.75C5.95792 2.75 5.4707 3.23722 5.4707 3.83824C5.4707 4.43925 5.95792 4.92647 6.55894 4.92647Z" stroke="#1F1F1F" stroke-width="1.5" stroke-linecap="round" stroke-linejoin="round"/>
<path d="M11.9998 10.3676C12.6008 10.3676 13.088 9.88044 13.088 9.27942C13.088 8.67841 12.6008 8.19119 11.9998 8.19119C11.3988 8.19119 10.9116 8.67841 10.9116 9.27942C10.9116 9.88044 11.3988 10.3676 11.9998 10.3676Z" stroke="#1F1F1F" stroke-width="1.5" stroke-linecap="round" stroke-linejoin="round"/>
<path d="M17.4413 10.3676C18.0423 10.3676 18.5295 9.88044 18.5295 9.27942C18.5295 8.67841 18.0423 8.19119 17.4413 8.19119C16.8402 8.19119 16.353 8.67841 16.353 9.27942C16.353 9.88044 16.8402 10.3676 17.4413 10.3676Z" stroke="#1F1F1F" stroke-width="1.5" stroke-linecap="round" stroke-linejoin="round"/>
<path d="M6.55894 10.3676C7.15995 10.3676 7.64717 9.88044 7.64717 9.27942C7.64717 8.67841 7.15995 8.19119 6.55894 8.19119C5.95792 8.19119 5.4707 8.67841 5.4707 9.27942C5.4707 9.88044 5.95792 10.3676 6.55894 10.3676Z" stroke="#1F1F1F" stroke-width="1.5" stroke-linecap="round" stroke-linejoin="round"/>
<path d="M11.9998 15.8088C12.6008 15.8088 13.088 15.3216 13.088 14.7206C13.088 14.1196 12.6008 13.6324 11.9998 13.6324C11.3988 13.6324 10.9116 14.1196 10.9116 14.7206C10.9116 15.3216 11.3988 15.8088 11.9998 15.8088Z" stroke="#1F1F1F" stroke-width="1.5" stroke-linecap="round" stroke-linejoin="round"/>
<path d="M11.9998 21.25C12.6008 21.25 13.088 20.7628 13.088 20.1618C13.088 19.5608 12.6008 19.0735 11.9998 19.0735C11.3988 19.0735 10.9116 19.5608 10.9116 20.1618C10.9116 20.7628 11.3988 21.25 11.9998 21.25Z" stroke="#1F1F1F" stroke-width="1.5" stroke-linecap="round" stroke-linejoin="round"/>
<path d="M17.4413 15.8088C18.0423 15.8088 18.5295 15.3216 18.5295 14.7206C18.5295 14.1196 18.0423 13.6324 17.4413 13.6324C16.8402 13.6324 16.353 14.1196 16.353 14.7206C16.353 15.3216 16.8402 15.8088 17.4413 15.8088Z" stroke="#1F1F1F" stroke-width="1.5" stroke-linecap="round" stroke-linejoin="round"/>
<path d="M6.55894 15.8088C7.15995 15.8088 7.64717 15.3216 7.64717 14.7206C7.64717 14.1196 7.15995 13.6324 6.55894 13.6324C5.95792 13.6324 5.4707 14.1196 5.4707 14.7206C5.4707 15.3216 5.95792 15.8088 6.55894 15.8088Z" stroke="#1F1F1F" stroke-width="1.5" stroke-linecap="round" stroke-linejoin="round"/>
</svg>
