<svg width="24" height="24" viewBox="0 0 24 24" fill="none" xmlns="http://www.w3.org/2000/svg">
<path d="M21.9901 12.0005C21.9941 13.3151 21.7357 14.6172 21.2301 15.8306C20.733 17.0461 19.9949 18.1482 19.0601 19.0706C18.133 19.9995 17.0321 20.7368 15.8201 21.2405C14.6067 21.7461 13.3046 22.0045 11.9901 22.0005C10.6563 22.0062 9.33551 21.7373 8.11008 21.2105L4.46012 21.7505C4.14752 21.802 3.82706 21.7761 3.52677 21.6751C3.22648 21.5742 2.95548 21.4012 2.73746 21.1714C2.51945 20.9415 2.36106 20.6618 2.2761 20.3566C2.19114 20.0514 2.18221 19.73 2.2501 19.4206L2.7501 15.7705C2.25086 14.5769 1.99912 13.2943 2.01011 12.0005C2.00612 10.6893 2.26453 9.39043 2.77012 8.18054C3.26971 6.96587 4.00365 5.86151 4.93009 4.93054C5.86312 4.00411 6.96679 3.26722 8.18009 2.76055C10.0078 2.00351 12.0191 1.80559 13.9593 2.19186C15.8996 2.57813 17.6817 3.53121 19.0801 4.93054C20.0173 5.85472 20.7557 6.96068 21.2501 8.18054C21.7488 9.39184 22.0004 10.6906 21.9901 12.0005Z" fill="#1F1F1F"/>
</svg>
