<svg width="24" height="24" viewBox="0 0 24 24" fill="none" xmlns="http://www.w3.org/2000/svg">
<path d="M21.2648 8.18054C20.7652 6.96587 20.0312 5.86151 19.1048 4.93054C18.1717 4.00411 17.0681 3.26722 15.8548 2.76055C14.027 2.00351 12.0158 1.80559 10.0755 2.19186C8.13529 2.57813 6.35323 3.53121 4.95479 4.93054C4.01759 5.85472 3.27914 6.96068 2.78477 8.18054C2.27919 9.39043 2.02077 10.6893 2.02476 12.0005C2.01377 13.2943 2.26554 14.5769 2.76478 15.7705L2.26478 19.4206C2.19478 19.73 2.19478 20.0511 2.26478 20.3606C2.35223 20.663 2.50983 20.9405 2.72477 21.1706C2.9414 21.4016 3.21181 21.5754 3.51191 21.6766C3.81202 21.7778 4.13248 21.8032 4.44478 21.7505L8.09477 21.2105C9.32054 21.7362 10.641 22.0051 11.9748 22.0005C13.2893 22.0045 14.5913 21.7461 15.8047 21.2405C18.2539 20.2256 20.1998 18.2797 21.2147 15.8306C22.2287 13.3814 22.2287 10.6297 21.2147 8.18054H21.2648ZM13.0847 16.5406C13.0847 16.8058 12.9794 17.0601 12.7919 17.2476C12.6043 17.4352 12.35 17.5406 12.0847 17.5406C11.8195 17.5406 11.5652 17.4352 11.3776 17.2476C11.1901 17.0601 11.0847 16.8058 11.0847 16.5406V10.9905C11.0847 10.7253 11.1901 10.471 11.3776 10.2834C11.5652 10.0959 11.8195 9.99053 12.0847 9.99053C12.35 9.99053 12.6043 10.0959 12.7919 10.2834C12.9794 10.471 13.0847 10.7253 13.0847 10.9905V16.5406ZM11.9748 8.69055C11.6432 8.69055 11.3253 8.55885 11.0909 8.32443C10.8565 8.09001 10.7248 7.77207 10.7248 7.44055C10.7248 7.10903 10.8565 6.79109 11.0909 6.55667C11.3253 6.32225 11.6432 6.19055 11.9748 6.19055C12.3063 6.19055 12.6242 6.32225 12.8586 6.55667C13.0931 6.79109 13.2248 7.10903 13.2248 7.44055C13.2248 7.77207 13.0931 8.09001 12.8586 8.32443C12.6242 8.55885 12.3063 8.69055 11.9748 8.69055Z" fill="#1F1F1F"/>
</svg>
