<svg width="24" height="24" viewBox="0 0 24 24" fill="none" xmlns="http://www.w3.org/2000/svg">
<path d="M10.8334 8.14242L12.6334 4.57241C12.7695 4.29394 12.9817 4.05976 13.2454 3.89693C13.5091 3.73411 13.8135 3.64932 14.1234 3.65243C14.4295 3.65229 14.7287 3.74277 14.9834 3.91244C15.2346 4.07831 15.4352 4.31009 15.5634 4.58242L17.3234 8.15243L17.4334 8.23244L21.3534 8.80245C21.6553 8.84249 21.9396 8.9673 22.1734 9.16244C22.4071 9.36667 22.583 9.62878 22.6834 9.92245C22.7682 10.2199 22.7682 10.535 22.6834 10.8324C22.6138 11.126 22.4611 11.3934 22.2434 11.6024L19.4034 14.3724C19.3938 14.3891 19.3887 14.4081 19.3887 14.4275C19.3887 14.4468 19.3938 14.4657 19.4034 14.4824L20.0834 18.4124C20.1302 18.7086 20.0992 19.0119 19.9934 19.2924C19.8772 19.5779 19.6855 19.8264 19.4389 20.0114C19.1923 20.1963 18.9 20.3108 18.5934 20.3424C18.2769 20.3681 17.96 20.2985 17.6834 20.1424L14.3034 18.3724L14.1334 18.3025H13.9934L10.4734 20.1424C10.2396 20.2674 9.97856 20.3326 9.71345 20.3324H9.54344C9.2398 20.3031 8.94966 20.1925 8.70344 20.0124C8.45364 19.8356 8.26214 19.5885 8.15342 19.3025C8.04728 18.9776 8.04728 18.6273 8.15342 18.3025L8.81343 14.4924C8.81755 14.4558 8.81755 14.419 8.81343 14.3824H8.76344L5.94343 11.6424C5.71885 11.4236 5.55959 11.1466 5.48344 10.8424C5.40647 10.5454 5.41543 10.2327 5.50926 9.94057C5.60308 9.64847 5.77792 9.38902 6.01344 9.1924C6.24941 8.99456 6.53773 8.86951 6.84342 8.83242L10.7134 8.26241L10.8334 8.14242Z" fill="#1F1F1F"/>
<path d="M8.00342 6.1424H2.00342C1.80451 6.1424 1.61374 6.06338 1.47309 5.92273C1.33244 5.78208 1.25342 5.59131 1.25342 5.3924C1.25342 5.19348 1.33244 5.00271 1.47309 4.86206C1.61374 4.72141 1.80451 4.6424 2.00342 4.6424H8.00342C8.20234 4.6424 8.39311 4.72141 8.53376 4.86206C8.67441 5.00271 8.75342 5.19348 8.75342 5.3924C8.75342 5.59131 8.67441 5.78208 8.53376 5.92273C8.39311 6.06338 8.20234 6.1424 8.00342 6.1424Z" fill="#1F1F1F"/>
<path d="M5.00342 18.2124H2.00342C1.80451 18.2124 1.61374 18.1334 1.47309 17.9927C1.33244 17.8521 1.25342 17.6613 1.25342 17.4624C1.25342 17.2635 1.33244 17.0727 1.47309 16.9321C1.61374 16.7914 1.80451 16.7124 2.00342 16.7124H5.00342C5.20234 16.7124 5.39311 16.7914 5.53376 16.9321C5.67441 17.0727 5.75342 17.2635 5.75342 17.4624C5.75342 17.6613 5.67441 17.8521 5.53376 17.9927C5.39311 18.1334 5.20234 18.2124 5.00342 18.2124Z" fill="#1F1F1F"/>
<path d="M3.54297 12.4424H2.04297C1.84406 12.4424 1.65329 12.3634 1.51264 12.2227C1.37199 12.0821 1.29297 11.8913 1.29297 11.6924C1.29297 11.4935 1.37199 11.3027 1.51264 11.162C1.65329 11.0214 1.84406 10.9424 2.04297 10.9424H3.54297C3.74189 10.9424 3.93266 11.0214 4.07331 11.162C4.21396 11.3027 4.29297 11.4935 4.29297 11.6924C4.29297 11.8913 4.21396 12.0821 4.07331 12.2227C3.93266 12.3634 3.74189 12.4424 3.54297 12.4424Z" fill="#1F1F1F"/>
</svg>
