<svg width="24" height="24" viewBox="0 0 24 24" fill="none" xmlns="http://www.w3.org/2000/svg">
<path d="M21.5093 14.5901L20.2593 13.2701C20.4193 12.3081 20.399 11.3247 20.1993 10.3701L21.4192 9.05008C21.5139 8.94457 21.5772 8.81465 21.602 8.67505C21.6267 8.53544 21.6119 8.3917 21.5592 8.26007C21.0533 7.00964 20.3057 5.87125 19.3592 4.91007C19.2667 4.81759 19.1514 4.7513 19.0249 4.71793C18.8984 4.68455 18.7653 4.68527 18.6392 4.72006L16.7992 5.19006C16.2327 4.78271 15.618 4.44684 14.9692 4.19006L14.5192 2.47006C14.4858 2.33056 14.412 2.20402 14.3071 2.1062C14.2022 2.00839 14.0707 1.94364 13.9292 1.92008C13.3061 1.80314 12.6732 1.7462 12.0392 1.75006C11.2459 1.75339 10.4563 1.85756 9.68921 2.06006C9.5612 2.09224 9.44428 2.15853 9.35095 2.25186C9.25762 2.34519 9.19135 2.46209 9.15918 2.59009L8.6792 4.36008C8.14259 4.59835 7.633 4.89337 7.15918 5.24008L5.33917 4.79007C5.21138 4.75667 5.07692 4.75855 4.95013 4.79553C4.82334 4.83252 4.70899 4.9032 4.6192 5.00006C3.62497 6.03293 2.86441 7.26752 2.38916 8.62009C2.34307 8.75082 2.33367 8.89165 2.36187 9.02738C2.39008 9.1631 2.45483 9.28853 2.54919 9.39008L3.8092 10.7001C3.74611 11.1206 3.71266 11.5449 3.70916 11.9701C3.70916 12.2701 3.70921 12.5701 3.75921 12.8701L2.44921 14.3301C2.36106 14.4272 2.29986 14.5457 2.27179 14.6738C2.24371 14.8019 2.24971 14.935 2.28918 15.0601C2.70012 16.3823 3.38117 17.6048 4.28918 18.6501C4.3805 18.7575 4.50022 18.8369 4.63464 18.8794C4.76906 18.9218 4.91276 18.9256 5.04919 18.8901L6.76916 18.4501C7.37101 18.9572 8.04509 19.3718 8.76916 19.6801L9.26916 21.4701C9.30768 21.5999 9.37977 21.7172 9.47808 21.8102C9.5764 21.9033 9.69747 21.9688 9.82916 22.0001C10.5512 22.1632 11.289 22.2471 12.0292 22.2501C12.6196 22.2435 13.2085 22.1867 13.7892 22.0801C13.9273 22.0557 14.0557 21.9932 14.16 21.8995C14.2643 21.8058 14.3403 21.6848 14.3792 21.5501L14.8492 19.8601C15.7126 19.5512 16.5174 19.0981 17.2292 18.5201L18.9892 18.9201C19.1212 18.9508 19.2591 18.9446 19.3878 18.9023C19.5165 18.86 19.6312 18.7831 19.7192 18.6801C20.5958 17.7067 21.275 16.5724 21.7192 15.3401C21.7551 15.2078 21.7546 15.0682 21.7176 14.9362C21.6807 14.8041 21.6087 14.6846 21.5093 14.5901ZM12.1192 15.8601C11.3648 15.8621 10.6268 15.6401 9.99871 15.2222C9.37063 14.8043 8.88073 14.2094 8.59112 13.5128C8.30151 12.8162 8.22525 12.0493 8.37194 11.3093C8.51864 10.5693 8.88166 9.88946 9.4151 9.35602C9.94854 8.82258 10.6284 8.4595 11.3684 8.31281C12.1084 8.16612 12.8753 8.24241 13.5719 8.53201C14.2685 8.82162 14.8634 9.31153 15.2813 9.93961C15.6992 10.5677 15.9212 11.3057 15.9192 12.0601C15.9166 13.0671 15.5154 14.0321 14.8033 14.7442C14.0913 15.4563 13.1262 15.8575 12.1192 15.8601Z" fill="#1F1F1F"/>
</svg>
