<svg width="24" height="24" viewBox="0 0 24 24" fill="none" xmlns="http://www.w3.org/2000/svg">
<path d="M2.77709 19.7825L3.38419 15.6213C3.42077 15.3489 3.54509 15.0958 3.73833 14.9004L15.5009 3.12516C15.6533 2.9712 15.8426 2.85895 16.0508 2.79915C16.259 2.73936 16.479 2.73403 16.6899 2.78367C17.7699 3.08264 18.7488 3.66828 19.523 4.47849C20.3305 5.25768 20.9119 6.24112 21.2052 7.32428C21.2548 7.53511 21.2495 7.75515 21.1897 7.96333C21.1299 8.1715 21.0176 8.36084 20.8637 8.51318L9.08841 20.2758C8.89297 20.469 8.63989 20.5933 8.36748 20.6299L4.20631 21.237C4.00979 21.2654 3.80936 21.2471 3.62122 21.1836C3.43309 21.1202 3.26254 21.0133 3.12338 20.8717C2.98422 20.73 2.88036 20.5577 2.8202 20.3684C2.76004 20.1792 2.74527 19.9785 2.77709 19.7825Z" stroke="#1F1F1F" stroke-width="1.5" stroke-linecap="round" stroke-linejoin="round"/>
<path d="M13.2749 5.36383L18.6376 10.7266" stroke="#1F1F1F" stroke-width="1.5" stroke-linecap="round" stroke-linejoin="round"/>
</svg>
