<svg width="24" height="24" viewBox="0 0 24 24" fill="none" xmlns="http://www.w3.org/2000/svg">
<path d="M19 7.5C20.3807 7.5 21.5 6.38071 21.5 5C21.5 3.61929 20.3807 2.5 19 2.5C17.6193 2.5 16.5 3.61929 16.5 5C16.5 6.38071 17.6193 7.5 19 7.5Z" stroke="#1F1F1F" stroke-width="1.5"/>
<path d="M21.25 10V15.25C21.25 16.8413 20.6179 18.3674 19.4926 19.4926C18.3674 20.6179 16.8413 21.25 15.25 21.25H8.75C7.1587 21.25 5.63258 20.6179 4.50736 19.4926C3.38214 18.3674 2.75 16.8413 2.75 15.25V8.75C2.75 7.1587 3.38214 5.63258 4.50736 4.50736C5.63258 3.38214 7.1587 2.75 8.75 2.75H14" stroke="#1F1F1F" stroke-width="1.5" stroke-linecap="round"/>
<path d="M7.27051 15.0446L9.47551 12.1106C9.61054 11.9299 9.80849 11.8065 10.0301 11.7649C10.2518 11.7232 10.4811 11.7663 10.6725 11.8856L12.8235 13.2446C13.0222 13.3712 13.2627 13.4147 13.4933 13.3659C13.7238 13.3171 13.926 13.1799 14.0565 12.9836L16.2705 9.64459" stroke="#1F1F1F" stroke-width="1.5" stroke-linecap="round" stroke-linejoin="round"/>
</svg>
