<svg width="24" height="24" viewBox="0 0 24 24" fill="none" xmlns="http://www.w3.org/2000/svg">
<path d="M12 17.1901V6.39844" stroke="#1F1F1F" stroke-width="1.5" stroke-miterlimit="10" stroke-linecap="round"/>
<path d="M6.86133 12.4624L11.2705 16.8818C11.3661 16.9781 11.4798 17.0546 11.6049 17.1068C11.7302 17.159 11.8646 17.1859 12.0002 17.1859C12.1359 17.1859 12.2702 17.159 12.3955 17.1068C12.5207 17.0546 12.6344 16.9781 12.7299 16.8818L17.1391 12.4624" stroke="#1F1F1F" stroke-width="1.5" stroke-linecap="round" stroke-linejoin="round"/>
<path d="M15.25 2.75H8.75C5.43629 2.75 2.75 5.43629 2.75 8.75V15.25C2.75 18.5637 5.43629 21.25 8.75 21.25H15.25C18.5637 21.25 21.25 18.5637 21.25 15.25V8.75C21.25 5.43629 18.5637 2.75 15.25 2.75Z" stroke="#1F1F1F" stroke-width="1.5"/>
</svg>
