<svg width="24" height="24" viewBox="0 0 24 24" fill="none" xmlns="http://www.w3.org/2000/svg">
<path d="M22.0451 7.76952L21.9951 14.07C21.9964 14.6913 21.8741 15.3066 21.6351 15.88C21.3994 16.4523 21.0527 16.9723 20.615 17.4099C20.1774 17.8476 19.6574 18.1943 19.0851 18.43C18.5117 18.669 17.8964 18.7914 17.2751 18.7901H14.9451L12.9451 20.7901C12.8213 20.92 12.6713 21.0223 12.5051 21.09C12.3324 21.1688 12.1449 21.2097 11.9551 21.21C11.7664 21.2093 11.5796 21.1719 11.4051 21.1C11.2308 21.0228 11.0742 20.9104 10.9451 20.77L8.99507 18.83H6.66511C6.04574 18.83 5.43246 18.7079 4.86036 18.4706C4.28827 18.2332 3.76856 17.8854 3.33106 17.447C2.89357 17.0085 2.54685 16.4881 2.31074 15.9155C2.07463 15.3429 1.95377 14.7294 1.95509 14.11V7.51002C1.9539 6.88986 2.0752 6.27557 2.31202 5.7024C2.54884 5.12924 2.89651 4.60848 3.33509 4.17002C4.22247 3.29308 5.41755 2.79786 6.66511 2.79005H17.3251C17.9453 2.78873 18.5597 2.90991 19.1329 3.14665C19.7062 3.38338 20.227 3.73101 20.6656 4.16957C21.1041 4.60812 21.4518 5.12897 21.6885 5.70222C21.9253 6.27547 22.0464 6.88981 22.0451 7.51002V7.76952Z" fill="#1F1F1F"/>
</svg>
