<svg width="24" height="24" viewBox="0 0 24 24" fill="none" xmlns="http://www.w3.org/2000/svg">
<path d="M6.4501 9.23038H17.5501C18.0408 9.23038 18.5113 9.4252 18.8583 9.77199C19.2052 10.1188 19.4001 10.5891 19.4001 11.0796V17.5517C19.4001 18.5325 19.0103 19.4732 18.3164 20.1668C17.6225 20.8604 16.6814 21.25 15.7001 21.25H8.3001C7.3188 21.25 6.37769 20.8604 5.6838 20.1668C4.98992 19.4732 4.6001 18.5325 4.6001 17.5517V11.0796C4.6001 10.5891 4.79501 10.1188 5.14195 9.77199C5.48889 9.4252 5.95945 9.23038 6.4501 9.23038Z" stroke="#1F1F1F" stroke-width="1.5" stroke-linecap="round" stroke-linejoin="round"/>
<path d="M16.625 11.5531V7.3812C16.6261 6.7737 16.5074 6.17194 16.2756 5.61033C16.0439 5.04872 15.7037 4.53827 15.2745 4.10816C14.8449 3.67764 14.3345 3.33607 13.7726 3.10302C13.2107 2.86996 12.6083 2.75 12 2.75C11.3916 2.75 10.7893 2.86996 10.2274 3.10302C9.66551 3.33607 9.15513 3.67764 8.72551 4.10816C8.2963 4.53827 7.9561 5.04872 7.72437 5.61033C7.49264 6.17194 7.37393 6.7737 7.37501 7.3812V11.5531" stroke="#1F1F1F" stroke-width="1.5" stroke-linecap="round" stroke-linejoin="round"/>
</svg>
