<svg width="24" height="24" viewBox="0 0 24 24" fill="none" xmlns="http://www.w3.org/2000/svg">
<path d="M20.9 3.66499C20.5531 3.31533 20.1402 3.03802 19.6853 2.84919C19.2304 2.66036 18.7425 2.5638 18.25 2.56501H5.75C4.75625 2.56765 3.80397 2.96358 3.10127 3.66627C2.39858 4.36896 2.00264 5.32126 2 6.31501V14.185C2.00197 15.179 2.39747 16.1318 3.10001 16.835C3.4469 17.1846 3.85978 17.4619 4.31468 17.6508C4.76959 17.8396 5.25746 17.9362 5.75 17.935H11.25V19.935H8.53C8.33109 19.935 8.14032 20.014 7.99967 20.1547C7.85901 20.2953 7.78 20.4861 7.78 20.685C7.78 20.8839 7.85901 21.0747 7.99967 21.2153C8.14032 21.356 8.33109 21.435 8.53 21.435H15.47C15.6689 21.435 15.8597 21.356 16.0003 21.2153C16.141 21.0747 16.22 20.8839 16.22 20.685C16.22 20.4861 16.141 20.2953 16.0003 20.1547C15.8597 20.014 15.6689 19.935 15.47 19.935H12.75V17.935H18.25C18.7425 17.9362 19.2304 17.8396 19.6853 17.6508C20.1402 17.4619 20.5531 17.1846 20.9 16.835C21.6025 16.1318 21.998 15.179 22 14.185V6.31501C22.0012 5.82248 21.9046 5.33456 21.7158 4.87965C21.5269 4.42474 21.2496 4.01188 20.9 3.66499ZM15 11.005H9C8.80109 11.005 8.61032 10.9259 8.46967 10.7853C8.32902 10.6446 8.25 10.4539 8.25 10.255C8.25 10.0561 8.32902 9.86533 8.46967 9.72468C8.61032 9.58403 8.80109 9.50502 9 9.50502H15C15.1989 9.50502 15.3897 9.58403 15.5303 9.72468C15.671 9.86533 15.75 10.0561 15.75 10.255C15.75 10.4539 15.671 10.6446 15.5303 10.7853C15.3897 10.9259 15.1989 11.005 15 11.005Z" fill="#1F1F1F"/>
</svg>
