<svg width="24" height="24" viewBox="0 0 24 24" fill="none" xmlns="http://www.w3.org/2000/svg">
<path d="M6.24393 3.11425L18.5417 11.7747C18.6463 11.8497 18.7279 11.9524 18.7774 12.0712C18.8269 12.19 18.8423 12.3203 18.8219 12.4474C18.8016 12.5745 18.7462 12.6934 18.662 12.7907C18.5778 12.8881 18.4682 12.9601 18.3454 12.9987L13.7265 13.8763C13.6448 13.9001 13.5695 13.9421 13.5063 13.9991C13.4431 14.0561 13.3935 14.1266 13.3613 14.2054C13.3291 14.2842 13.3152 14.3693 13.3204 14.4542C13.3256 14.5392 13.35 14.6219 13.3916 14.6961L15.7011 19.0725C15.7536 19.1506 15.7897 19.2386 15.8071 19.3311C15.8245 19.4235 15.8229 19.5186 15.8024 19.6105C15.7819 19.7023 15.7428 19.789 15.6877 19.8653C15.6325 19.9415 15.5624 20.0058 15.4817 20.054L13.8189 20.9201C13.6565 21.0056 13.4668 21.0233 13.2915 20.9692C13.1161 20.9151 12.9694 20.7936 12.8835 20.6314L10.5741 16.2435C10.539 16.1651 10.4868 16.0956 10.4214 16.0399C10.356 15.9843 10.279 15.944 10.196 15.9218C10.1131 15.8997 10.0262 15.8964 9.94185 15.9121C9.85744 15.9277 9.77758 15.9621 9.7081 16.0125L6.32476 19.2688C6.22271 19.3605 6.09574 19.4198 5.95994 19.4392C5.82415 19.4587 5.68564 19.4374 5.56197 19.378C5.4383 19.3186 5.33504 19.2239 5.26526 19.1058C5.19549 18.9877 5.16235 18.8515 5.17004 18.7146V3.70316C5.16816 3.57722 5.20065 3.45315 5.26401 3.34429C5.32738 3.23544 5.41922 3.14591 5.52966 3.08535C5.6401 3.02479 5.76496 2.99547 5.89081 3.00057C6.01666 3.00566 6.13875 3.04496 6.24393 3.11425Z" stroke="#1F1F1F" stroke-width="1.4" stroke-linecap="round" stroke-linejoin="round"/>
</svg>
