<svg width="24" height="24" viewBox="0 0 24 24" fill="none" xmlns="http://www.w3.org/2000/svg">
<path d="M5.35986 19L11.1232 13.2367C11.2869 13.075 11.4168 12.8824 11.5055 12.6701C11.5942 12.4578 11.6399 12.2301 11.6399 12C11.6399 11.7699 11.5942 11.5422 11.5055 11.3299C11.4168 11.1176 11.2869 10.925 11.1232 10.7633L5.35986 5" stroke="#1F1F1F" stroke-width="1.5" stroke-linecap="round" stroke-linejoin="round"/>
<path d="M12.3599 19L18.1232 13.2367C18.2869 13.075 18.4168 12.8824 18.5055 12.6701C18.5942 12.4578 18.6399 12.2301 18.6399 12C18.6399 11.7699 18.5942 11.5422 18.5055 11.3299C18.4168 11.1176 18.2869 10.925 18.1232 10.7633L12.3599 5" stroke="#1F1F1F" stroke-width="1.5" stroke-linecap="round" stroke-linejoin="round"/>
</svg>
