<svg width="24" height="24" viewBox="0 0 24 24" fill="none" xmlns="http://www.w3.org/2000/svg">
<path d="M12.25 2.75C14.7696 2.75 17.1859 3.75089 18.9675 5.53249C20.7491 7.31408 21.75 9.73044 21.75 12.25C21.75 14.7696 20.7491 17.1859 18.9675 18.9675C17.1859 20.7491 14.7696 21.75 12.25 21.75C9.73044 21.75 7.31408 20.7491 5.53249 18.9675C3.75089 17.1859 2.75 14.7696 2.75 12.25C2.75 9.73044 3.75089 7.31408 5.53249 5.53249C7.31408 3.75089 9.73044 2.75 12.25 2.75Z" stroke="#1F1F1F" stroke-width="1.5"/>
<path d="M14.6199 12.25C14.6199 10.9411 13.5588 9.88 12.2499 9.88C10.941 9.88 9.87988 10.9411 9.87988 12.25C9.87988 13.5589 10.941 14.62 12.2499 14.62C13.5588 14.62 14.6199 13.5589 14.6199 12.25Z" stroke="#1F1F1F" stroke-width="1.5"/>
<path d="M12.2498 18.93C11.2422 18.9301 10.2477 18.7026 9.3403 18.2646C8.43296 17.8265 7.6363 17.1891 7.00977 16.4" stroke="#1F1F1F" stroke-width="1.5" stroke-linecap="round" stroke-linejoin="round"/>
<path d="M14.25 5.87C15.294 6.1997 16.2411 6.78059 17.0083 7.56169C17.7754 8.34279 18.3392 9.30023 18.65 10.35" stroke="#1F1F1F" stroke-width="1.5" stroke-linecap="round" stroke-linejoin="round"/>
</svg>
