<svg width="24" height="24" viewBox="0 0 24 24" fill="none" xmlns="http://www.w3.org/2000/svg">
<path d="M21.2647 8.18054C20.7704 6.96068 20.0319 5.85472 19.0947 4.93054C17.6963 3.53121 15.9142 2.57813 13.974 2.19186C12.0337 1.80559 10.0225 2.00351 8.19478 2.76055C6.98147 3.26722 5.8778 4.00411 4.94478 4.93054C4.01833 5.86151 3.28436 6.96587 2.78477 8.18054C2.27919 9.39043 2.02077 10.6893 2.02476 12.0005C2.01377 13.2943 2.26553 14.5769 2.76477 15.7705L2.26477 19.4206C2.19009 19.7294 2.19009 20.0517 2.26477 20.3606C2.3578 20.6636 2.51465 20.9432 2.72477 21.1805C2.94491 21.4073 3.21563 21.5786 3.51477 21.6805C3.81492 21.7768 4.13359 21.8008 4.44478 21.7505L8.09477 21.2105C9.3202 21.7373 10.6409 22.0062 11.9748 22.0005C13.2893 22.0045 14.5914 21.7461 15.8048 21.2405C17.0167 20.7368 18.1176 19.9995 19.0447 19.0706C19.9795 18.1482 20.7177 17.0461 21.2147 15.8306C22.2287 13.3814 22.2287 10.6297 21.2147 8.18054H21.2647ZM16.8547 10.2405L12.1748 14.9105C12.004 15.0903 11.7957 15.2303 11.5648 15.3206C11.3381 15.421 11.0927 15.4721 10.8447 15.4705C10.597 15.4709 10.3518 15.4198 10.1247 15.3206C9.89196 15.2282 9.68085 15.0886 9.50477 14.9105L7.19478 12.6006C7.00647 12.4122 6.90068 12.1569 6.90068 11.8906C6.90068 11.6243 7.00647 11.3688 7.19478 11.1805C7.38308 10.9922 7.63847 10.8865 7.90477 10.8865C8.17107 10.8865 8.42647 10.9922 8.61477 11.1805L10.8547 13.4206L15.4347 8.83056C15.5277 8.73683 15.6383 8.66243 15.7602 8.61166C15.882 8.56089 16.0127 8.53475 16.1448 8.53475C16.2768 8.53475 16.4075 8.56089 16.5293 8.61166C16.6512 8.66243 16.7618 8.73683 16.8547 8.83056C17.041 9.01792 17.1455 9.27136 17.1455 9.53555C17.1455 9.79973 17.041 10.0532 16.8547 10.2405Z" fill="#1F1F1F"/>
</svg>
