<svg width="24" height="24" viewBox="0 0 24 24" fill="none" xmlns="http://www.w3.org/2000/svg">
<path d="M21.8799 15.1466C21.0126 17.6066 19.2382 19.6423 16.9198 20.8376C14.6014 22.0329 11.914 22.2974 9.40698 21.5771C6.90001 20.8569 4.76285 19.2062 3.4325 16.9625C2.10214 14.7189 1.67916 12.0518 2.24988 9.50662C2.64411 7.81886 3.45865 6.25816 4.6178 4.96963C5.77695 3.6811 7.24309 2.70658 8.87988 2.13662C9.19951 2.01741 9.54677 1.9931 9.87988 2.06662C10.2131 2.1298 10.5215 2.28577 10.7698 2.5166C11.0126 2.74858 11.1861 3.04355 11.2709 3.3685C11.3557 3.69345 11.3485 4.03559 11.2499 4.35663C10.7918 5.71849 10.7638 7.18833 11.1698 8.56662C11.4615 9.59113 12.0093 10.5245 12.7616 11.2786C13.514 12.0327 14.4461 12.5826 15.4699 12.8766C16.8444 13.2858 18.312 13.2578 19.6698 12.7966C19.9967 12.7038 20.343 12.7038 20.6698 12.7966C20.9948 12.8837 21.2888 13.0601 21.5186 13.3058C21.7484 13.5514 21.9047 13.8566 21.9699 14.1866C22.0267 14.5089 21.9957 14.8405 21.8799 15.1466Z" fill="#1F1F1F"/>
</svg>
