<svg width="24" height="24" viewBox="0 0 24 24" fill="none" xmlns="http://www.w3.org/2000/svg">
<path d="M16.7501 11.9888C16.7549 12.2425 16.7072 12.4944 16.61 12.7288C16.5116 12.9632 16.3652 13.1744 16.1801 13.3488L9.36005 19.4488C9.17783 19.6127 8.95218 19.7204 8.71014 19.7588H8.52008C8.34172 19.7615 8.1647 19.7275 8.00006 19.6588C7.77744 19.5591 7.58956 19.3955 7.46014 19.1888C7.32242 18.9889 7.24906 18.7516 7.25006 18.5088V5.5088C7.24765 5.26271 7.32105 5.02183 7.46014 4.8188C7.58951 4.61205 7.77737 4.44842 7.99994 4.34871C8.22251 4.249 8.46975 4.2177 8.71014 4.2588C8.95001 4.29801 9.1746 4.40169 9.36005 4.55879L16.1201 10.6488C16.3105 10.811 16.464 11.0122 16.5701 11.2388C16.6842 11.4726 16.7456 11.7286 16.7501 11.9888Z" fill="#1F1F1F"/>
</svg>
