<svg width="24" height="24" viewBox="0 0 24 24" fill="none" xmlns="http://www.w3.org/2000/svg">
<path d="M6.209 12.3235H4.4014C3.82213 12.3235 3.35254 12.7931 3.35254 13.3724V20.2011C3.35254 20.7804 3.82213 21.25 4.4014 21.25H6.209C6.78827 21.25 7.25786 20.7804 7.25786 20.2011V13.3724C7.25786 12.7931 6.78827 12.3235 6.209 12.3235Z" stroke="#1F1F1F" stroke-width="1.3" stroke-linecap="round" stroke-linejoin="round"/>
<path d="M12.9039 2.75H11.0963C10.517 2.75 10.0474 3.21959 10.0474 3.79886V20.2011C10.0474 20.7804 10.517 21.25 11.0963 21.25H12.9039C13.4832 21.25 13.9528 20.7804 13.9528 20.2011V3.79886C13.9528 3.21959 13.4832 2.75 12.9039 2.75Z" stroke="#1F1F1F" stroke-width="1.3" stroke-linecap="round" stroke-linejoin="round"/>
<path d="M19.5986 7.92731H17.791C17.2118 7.92731 16.7422 8.3969 16.7422 8.97616V20.2012C16.7422 20.7804 17.2118 21.25 17.791 21.25H19.5986C20.1779 21.25 20.6475 20.7804 20.6475 20.2012V8.97616C20.6475 8.3969 20.1779 7.92731 19.5986 7.92731Z" stroke="#1F1F1F" stroke-width="1.3" stroke-linecap="round" stroke-linejoin="round"/>
</svg>
