<svg width="24" height="24" viewBox="0 0 24 24" fill="none" xmlns="http://www.w3.org/2000/svg">
<path d="M20.6051 4.17001C20.1692 3.73083 19.6503 3.38265 19.0786 3.14575C18.507 2.90884 17.8939 2.78793 17.2751 2.79H6.70515C6.08578 2.79 5.47246 2.91215 4.90037 3.14947C4.32827 3.3868 3.80863 3.73464 3.37113 4.17306C2.93364 4.61148 2.58689 5.1319 2.35078 5.70449C2.11467 6.27709 1.99381 6.89064 1.99513 7.51001V14.11C1.99381 14.7294 2.11467 15.3429 2.35078 15.9155C2.58689 16.4881 2.93364 17.0085 3.37113 17.4469C3.80863 17.8853 4.32827 18.2332 4.90037 18.4705C5.47246 18.7078 6.08578 18.83 6.70515 18.83H9.03513L10.9851 20.77C11.1121 20.9127 11.2692 21.0254 11.4451 21.1C11.6196 21.1719 11.8064 21.2092 11.9951 21.21C12.1837 21.2082 12.3703 21.1709 12.5451 21.1C12.7084 21.0226 12.8573 20.9177 12.9851 20.79L14.9851 18.79H17.3151C17.9338 18.791 18.5465 18.6695 19.118 18.4327C19.6895 18.1959 20.2085 17.8483 20.6451 17.41C21.0734 16.9688 21.4128 16.4493 21.6451 15.88C21.8794 15.3051 22.0016 14.6908 22.0051 14.07V7.47C22.0006 6.85484 21.8746 6.24664 21.6344 5.68032C21.3941 5.11401 21.0443 4.60075 20.6051 4.17001ZM7.36512 12.34C7.0368 12.34 6.71586 12.2426 6.44288 12.0602C6.16989 11.8778 5.95713 11.6186 5.83149 11.3152C5.70585 11.0119 5.67299 10.6781 5.73704 10.3561C5.80109 10.0341 5.95917 9.73835 6.19132 9.50619C6.42348 9.27404 6.71926 9.11596 7.04127 9.05191C7.36328 8.98785 7.69705 9.02072 8.00037 9.14636C8.3037 9.272 8.56297 9.48476 8.74537 9.75775C8.92777 10.0307 9.02512 10.3517 9.02512 10.68C9.0225 11.1194 8.84676 11.5401 8.53602 11.8509C8.22528 12.1616 7.80457 12.3374 7.36512 12.34ZM11.9951 12.34C11.6668 12.34 11.3458 12.2426 11.0729 12.0602C10.7999 11.8778 10.5871 11.6186 10.4615 11.3152C10.3358 11.0119 10.303 10.6781 10.367 10.3561C10.4311 10.0341 10.5892 9.73835 10.8213 9.50619C11.0535 9.27404 11.3492 9.11596 11.6713 9.05191C11.9933 8.98785 12.327 9.02072 12.6304 9.14636C12.9337 9.272 13.193 9.48476 13.3754 9.75775C13.5578 10.0307 13.6551 10.3517 13.6551 10.68C13.6551 11.1202 13.4802 11.5425 13.1689 11.8538C12.8576 12.1651 12.4354 12.34 11.9951 12.34ZM16.6151 12.34C16.2868 12.34 15.9658 12.2426 15.6929 12.0602C15.4199 11.8778 15.2071 11.6186 15.0815 11.3152C14.9558 11.0119 14.923 10.6781 14.987 10.3561C15.0511 10.0341 15.2091 9.73835 15.4413 9.50619C15.6735 9.27404 15.9692 9.11596 16.2912 9.05191C16.6133 8.98785 16.947 9.02072 17.2504 9.14636C17.5537 9.272 17.8129 9.48476 17.9954 9.75775C18.1778 10.0307 18.2751 10.3517 18.2751 10.68C18.2725 11.1194 18.0967 11.5401 17.786 11.8509C17.4753 12.1616 17.0546 12.3374 16.6151 12.34Z" fill="#1F1F1F"/>
</svg>
