<svg width="24" height="24" viewBox="0 0 24 24" fill="none" xmlns="http://www.w3.org/2000/svg">
<path d="M15.25 2.75H8.75C5.43629 2.75 2.75 5.43629 2.75 8.75V15.25C2.75 18.5637 5.43629 21.25 8.75 21.25H15.25C18.5637 21.25 21.25 18.5637 21.25 15.25V8.75C21.25 5.43629 18.5637 2.75 15.25 2.75Z" stroke="#1F1F1F" stroke-width="1.5"/>
<path d="M17.75 8.80515H16.3125" stroke="#1F1F1F" stroke-width="1.5" stroke-linecap="round" stroke-linejoin="round"/>
<path d="M12.7188 8.80515H6.25" stroke="#1F1F1F" stroke-width="1.5" stroke-linecap="round" stroke-linejoin="round"/>
<path d="M17.75 15.1948H11.2812" stroke="#1F1F1F" stroke-width="1.5" stroke-linecap="round" stroke-linejoin="round"/>
<path d="M7.6875 15.1948H6.25" stroke="#1F1F1F" stroke-width="1.5" stroke-linecap="round" stroke-linejoin="round"/>
<path d="M9.48438 16.9917C10.4768 16.9917 11.2812 16.1872 11.2812 15.1948C11.2812 14.2024 10.4768 13.3979 9.48438 13.3979C8.49199 13.3979 7.6875 14.2024 7.6875 15.1948C7.6875 16.1872 8.49199 16.9917 9.48438 16.9917Z" stroke="#1F1F1F" stroke-width="1.5" stroke-linecap="round" stroke-linejoin="round"/>
<path d="M14.5156 10.602C15.508 10.602 16.3125 9.79753 16.3125 8.80515C16.3125 7.81276 15.508 7.00827 14.5156 7.00827C13.5232 7.00827 12.7188 7.81276 12.7188 8.80515C12.7188 9.79753 13.5232 10.602 14.5156 10.602Z" stroke="#1F1F1F" stroke-width="1.5" stroke-linecap="round" stroke-linejoin="round"/>
</svg>
