<svg width="24" height="24" viewBox="0 0 24 24" fill="none" xmlns="http://www.w3.org/2000/svg">
<path d="M21.4998 12H19.3887" stroke="#1F1F1F" stroke-width="1.5" stroke-miterlimit="10" stroke-linecap="round"/>
<path d="M12 2.5V4.61111" stroke="#1F1F1F" stroke-width="1.5" stroke-miterlimit="10" stroke-linecap="round"/>
<path d="M2.5 12H4.61111" stroke="#1F1F1F" stroke-width="1.5" stroke-miterlimit="10" stroke-linecap="round"/>
<path d="M12 21.5V19.3889" stroke="#1F1F1F" stroke-width="1.5" stroke-miterlimit="10" stroke-linecap="round"/>
<path d="M12.0002 19.3889C16.081 19.3889 19.3891 16.0808 19.3891 12C19.3891 7.91924 16.081 4.61111 12.0002 4.61111C7.91946 4.61111 4.61133 7.91924 4.61133 12C4.61133 16.0808 7.91946 19.3889 12.0002 19.3889Z" stroke="#1F1F1F" stroke-width="1.5" stroke-miterlimit="10" stroke-linecap="round"/>
<path d="M12.0001 16.2222C14.3319 16.2222 16.2223 14.3318 16.2223 12C16.2223 9.66812 14.3319 7.77777 12.0001 7.77777C9.66818 7.77777 7.77783 9.66812 7.77783 12C7.77783 14.3318 9.66818 16.2222 12.0001 16.2222Z" stroke="#1F1F1F" stroke-width="1.5" stroke-miterlimit="10" stroke-linecap="round"/>
</svg>
