<svg width="24" height="24" viewBox="0 0 24 24" fill="none" xmlns="http://www.w3.org/2000/svg">
<path d="M20.5693 3.42004C20.1186 2.96717 19.5824 2.60846 18.9918 2.36468C18.4013 2.1209 17.7682 1.99695 17.1293 2.00006H6.88931C5.60117 2.0027 4.36654 2.51559 3.45569 3.42645C2.54483 4.3373 2.03194 5.5719 2.0293 6.86004V17.1301C2.03193 18.4191 2.54451 19.6548 3.45508 20.5673C4.36565 21.4797 5.60026 21.9948 6.88931 22.0001H13.2393C13.6101 21.9967 13.9767 21.922 14.3193 21.7801L14.4793 21.7001L14.5593 21.6501C14.8084 21.5296 15.035 21.3672 15.2293 21.17L21.2293 15.17C21.4329 14.9692 21.6018 14.7361 21.7293 14.48L21.8093 14.3101C21.8136 14.2702 21.8731 14.1892 21.8688 14.1493C21.976 13.8545 21.9706 13.5838 21.9693 13.2701V6.93005C21.9844 6.28085 21.8682 5.63533 21.6276 5.03216C21.387 4.429 21.027 3.88062 20.5693 3.42004ZM9.9393 16.86H6.84931C6.65039 16.86 6.45962 16.781 6.31897 16.6404C6.17832 16.4997 6.09931 16.309 6.09931 16.11C6.09931 15.9111 6.17832 15.7204 6.31897 15.5797C6.45962 15.4391 6.65039 15.36 6.84931 15.36H9.9393C10.1382 15.36 10.3289 15.4391 10.4696 15.5797C10.6102 15.7204 10.6893 15.9111 10.6893 16.11C10.6893 16.309 10.6102 16.4997 10.4696 16.6404C10.3289 16.781 10.1382 16.86 9.9393 16.86ZM10.9393 12.7501H6.81931C6.62039 12.7501 6.42962 12.671 6.28897 12.5304C6.14832 12.3897 6.06931 12.199 6.06931 12.0001C6.06931 11.8011 6.14832 11.6104 6.28897 11.4697C6.42962 11.3291 6.62039 11.2501 6.81931 11.2501H10.9393C11.1382 11.2501 11.3289 11.3291 11.4696 11.4697C11.6102 11.6104 11.6893 11.8011 11.6893 12.0001C11.6893 12.199 11.6102 12.3897 11.4696 12.5304C11.3289 12.671 11.1382 12.7501 10.9393 12.7501ZM6.81931 8.63006C6.62039 8.63006 6.42962 8.55105 6.28897 8.4104C6.14832 8.26974 6.06931 8.07897 6.06931 7.88006C6.06931 7.68115 6.14832 7.49038 6.28897 7.34973C6.42962 7.20908 6.62039 7.13006 6.81931 7.13006H16.0693C16.2682 7.13006 16.4589 7.20908 16.5996 7.34973C16.7403 7.49038 16.8193 7.68115 16.8193 7.88006C16.8193 8.07897 16.7403 8.26974 16.5996 8.4104C16.4589 8.55105 16.2682 8.63006 16.0693 8.63006H6.81931ZM14.5893 19.6301L14.2493 16.8801C14.2113 16.5427 14.2489 16.2011 14.3593 15.8801C14.4691 15.5438 14.6576 15.2387 14.9093 14.99C15.1611 14.7353 15.4694 14.5434 15.8093 14.43C16.1462 14.3132 16.5055 14.2755 16.8593 14.3201L19.6093 14.66L14.5893 19.6301Z" fill="#1F1F1F"/>
</svg>
