<svg width="24" height="24" viewBox="0 0 24 24" fill="none" xmlns="http://www.w3.org/2000/svg">
<path d="M19.0461 8.74362C17.5888 7.09942 16.836 4.94842 16.9499 2.7543C16.9515 2.64129 16.9271 2.52941 16.8786 2.42731C16.8302 2.3252 16.7589 2.23563 16.6704 2.16538C16.5814 2.09165 16.476 2.04044 16.3631 2.01611C16.2501 1.99179 16.1329 1.99504 16.0215 2.02562C9.41327 3.65272 8.56486 6.89693 8.485 12.0078C7.69253 11.2558 7.01931 10.3873 6.48856 9.43239L6.21902 9.01316C6.15607 8.90975 6.06831 8.82362 5.96374 8.76263C5.85917 8.70163 5.74111 8.66764 5.62011 8.66374C5.49907 8.65219 5.37707 8.67291 5.26662 8.72375C5.15616 8.7746 5.06117 8.85379 4.99123 8.95326C4.01502 10.1327 3.38823 11.5618 3.18183 13.0789C2.97544 14.596 3.19764 16.1405 3.82327 17.5379C5.23076 20.3729 8.29523 22 12.2482 22C14.5389 21.9916 16.734 21.0806 18.3574 19.4645C19.1639 18.6651 19.8033 17.7134 20.2386 16.6646C20.6739 15.6158 20.8963 14.4909 20.8928 13.3554C20.8704 11.6423 20.2123 9.99868 19.0461 8.74362ZM17.3192 15.5615C16.9435 16.3497 16.402 17.0476 15.7319 17.6075C15.0617 18.1674 14.2787 18.5761 13.4361 18.8057C12.9117 18.9446 12.3715 19.015 11.829 19.0153C11.4946 19.0191 11.1604 18.9924 10.8308 18.9355C10.5661 18.8918 10.3295 18.7447 10.1732 18.5266C10.0169 18.3085 9.95363 18.0372 9.99731 17.7725C10.041 17.5078 10.1881 17.2712 10.4062 17.1149C10.6242 16.9586 10.8954 16.8953 11.1602 16.939C11.7392 17.0291 12.3305 16.9984 12.8971 16.8492C13.4639 16.6915 13.9912 16.416 14.4444 16.0406C14.8975 15.6657 15.2622 15.1953 15.5124 14.6631C15.7689 14.1337 15.9052 13.5542 15.9117 12.9661C15.9117 12.7013 16.017 12.4474 16.2042 12.2602C16.3914 12.073 16.6452 11.9678 16.9099 11.9678C17.1747 11.9678 17.4286 12.073 17.6158 12.2602C17.803 12.4474 17.9082 12.7013 17.9082 12.9661C17.9027 13.8659 17.6946 14.7531 17.2993 15.5615H17.3192Z" fill="#1F1F1F"/>
</svg>
