<svg width="24" height="24" viewBox="0 0 24 24" fill="none" xmlns="http://www.w3.org/2000/svg">
<path d="M16.2186 17.1141L15.7081 20.0725C15.6419 20.3091 15.5025 20.5187 15.3099 20.6712C15.1173 20.8238 14.8814 20.9115 14.636 20.9219C14.3905 20.9322 14.1481 20.8647 13.9434 20.7289C13.7386 20.5931 13.5821 20.396 13.4961 20.1659L10.7078 12.2839C10.6317 12.0755 10.6168 11.8497 10.6647 11.6332C10.7126 11.4166 10.8214 11.2182 10.9783 11.0614C11.1351 10.9046 11.3335 10.7957 11.55 10.7479C11.7666 10.6999 11.9924 10.7148 12.2008 10.7909L20.2365 13.5793C20.4749 13.6618 20.6801 13.8196 20.8211 14.0289C20.9622 14.2381 21.0314 14.4875 21.0184 14.7395C21.0053 14.9916 20.9108 15.2325 20.749 15.4262C20.5872 15.6198 20.3669 15.7556 20.1212 15.8132L17.009 16.3236C16.8215 16.3785 16.6508 16.4797 16.5127 16.6178C16.3746 16.7559 16.2735 16.9266 16.2186 17.1141Z" stroke="#1F1F1F" stroke-width="1.5" stroke-linecap="round" stroke-linejoin="round"/>
<path d="M21.5022 9.31423C21.0018 7.71916 20.0987 6.28001 18.8801 5.13568C17.6614 3.99134 16.1684 3.18046 14.545 2.7813C12.9216 2.38214 11.2228 2.40817 9.61241 2.85689C8.00205 3.3056 6.53454 4.16185 5.35151 5.34299C4.16849 6.52412 3.30991 7.99027 2.85862 9.59992C2.40734 11.2096 2.3786 12.9084 2.77517 14.5324C3.17174 16.1564 3.98024 17.6507 5.12263 18.8712C6.26502 20.0917 7.70272 20.9971 9.29699 21.5" stroke="#1F1F1F" stroke-width="1.5" stroke-linecap="round"/>
</svg>
