<svg width="24" height="24" viewBox="0 0 24 24" fill="none" xmlns="http://www.w3.org/2000/svg">
<path d="M6.01471 15.8088C7.81775 15.8088 9.27941 14.3472 9.27941 12.5441C9.27941 10.7411 7.81775 9.27942 6.01471 9.27942C4.21166 9.27942 2.75 10.7411 2.75 12.5441C2.75 14.3472 4.21166 15.8088 6.01471 15.8088Z" stroke="#1F1F1F" stroke-width="1.5" stroke-linecap="round" stroke-linejoin="round"/>
<path d="M17.9854 9.27941C19.7884 9.27941 21.2501 7.81775 21.2501 6.01471C21.2501 4.21166 19.7884 2.75 17.9854 2.75C16.1823 2.75 14.7207 4.21166 14.7207 6.01471C14.7207 7.81775 16.1823 9.27941 17.9854 9.27941Z" stroke="#1F1F1F" stroke-width="1.5" stroke-linecap="round" stroke-linejoin="round"/>
<path d="M17.9854 21.25C19.7884 21.25 21.2501 19.7883 21.2501 17.9853C21.2501 16.1822 19.7884 14.7206 17.9854 14.7206C16.1823 14.7206 14.7207 16.1822 14.7207 17.9853C14.7207 19.7883 16.1823 21.25 17.9854 21.25Z" stroke="#1F1F1F" stroke-width="1.5" stroke-linecap="round" stroke-linejoin="round"/>
<path d="M15.0146 16.6359L8.98584 13.8935" stroke="#1F1F1F" stroke-width="1.5" stroke-linecap="round" stroke-linejoin="round"/>
<path d="M15.1124 7.58176L8.8877 10.9771" stroke="#1F1F1F" stroke-width="1.5" stroke-linecap="round" stroke-linejoin="round"/>
</svg>
