<svg width="24" height="24" viewBox="0 0 24 24" fill="none" xmlns="http://www.w3.org/2000/svg">
<path d="M21.0034 15.5784C20.7814 15.0201 20.489 14.4925 20.1334 14.0084C19.6797 13.4689 19.3731 12.8212 19.2434 12.1283C19.2434 9.23835 19.2434 8.25837 17.6634 6.36837C17.1398 5.75093 16.4925 5.25015 15.7634 4.89837L15.0334 4.54836C14.993 4.5229 14.9588 4.48873 14.9334 4.44835C14.9088 4.41964 14.8916 4.38529 14.8834 4.34835C14.7773 3.66202 14.4172 3.04059 13.8746 2.6072C13.3319 2.17381 12.6462 1.96008 11.9534 2.00835C11.283 1.98134 10.6255 2.19859 10.1032 2.61977C9.5808 3.04095 9.22911 3.63743 9.11338 4.29836C9.10241 4.35025 9.0783 4.39843 9.04338 4.43834C9.01838 4.47015 8.9879 4.49726 8.95338 4.51836L8.17338 4.89837C7.43711 5.24765 6.78543 5.75259 6.26338 6.37835C4.69338 8.25835 4.69337 9.23835 4.69337 12.1283C4.57695 12.7791 4.2945 13.3888 3.87336 13.8984C3.50535 14.3943 3.20909 14.9397 2.99336 15.5184C2.85891 15.9081 2.81251 16.3227 2.85746 16.7325C2.90242 17.1423 3.03763 17.5371 3.25337 17.8884C3.48153 18.1791 3.77807 18.4088 4.11656 18.5571C4.45505 18.7054 4.82498 18.7677 5.19337 18.7384H8.01338C8.05608 19.006 8.12992 19.2678 8.23338 19.5184C8.43111 20.0151 8.73091 20.4648 9.11338 20.8383C9.48287 21.2186 9.92956 21.5153 10.4234 21.7084C10.8839 21.8964 11.376 21.9948 11.8734 21.9983H12.0334C13.0793 21.9913 14.0808 21.5749 14.8234 20.8383C15.1972 20.4635 15.4929 20.0183 15.6934 19.5283C15.7943 19.2727 15.8713 19.0082 15.9234 18.7384H18.8634C19.2095 18.7356 19.5509 18.6571 19.8634 18.5084C20.2146 18.331 20.5168 18.07 20.7434 17.7483C20.9694 17.426 21.1073 17.0503 21.1434 16.6583C21.188 16.2923 21.1398 15.9209 21.0034 15.5784ZM14.2834 12.4784C14.4238 12.619 14.5027 12.8096 14.5027 13.0084C14.5027 13.2071 14.4238 13.3977 14.2834 13.5384C14.1428 13.6788 13.9521 13.7577 13.7534 13.7577C13.5546 13.7577 13.364 13.6788 13.2234 13.5384L11.9934 12.3183L10.7834 13.4784C10.6428 13.6188 10.4521 13.6977 10.2534 13.6977C10.0546 13.6977 9.864 13.6188 9.72337 13.4784C9.58292 13.3377 9.50404 13.1471 9.50404 12.9484C9.50404 12.7496 9.58292 12.559 9.72337 12.4184L10.9334 11.2084L9.72337 9.99834C9.58467 9.85478 9.50715 9.66296 9.50715 9.46334C9.50715 9.26372 9.58467 9.07193 9.72337 8.92837C9.864 8.78791 10.0546 8.709 10.2534 8.709C10.4521 8.709 10.6428 8.78791 10.7834 8.92837L12.0034 10.1484L13.2234 8.92837C13.2923 8.85761 13.3748 8.80136 13.4658 8.76296C13.5568 8.72456 13.6546 8.70479 13.7534 8.70479C13.8522 8.70479 13.95 8.72456 14.041 8.76296C14.1321 8.80136 14.2145 8.85761 14.2834 8.92837C14.4238 9.06899 14.5027 9.25961 14.5027 9.45836C14.5027 9.65711 14.4238 9.84774 14.2834 9.98836L13.0634 11.2084L14.2834 12.4784Z" fill="#1F1F1F"/>
</svg>
