<svg width="24" height="24" viewBox="0 0 24 24" fill="none" xmlns="http://www.w3.org/2000/svg">
<path d="M21.2195 6.89362C20.8852 6.31886 20.4014 5.84542 19.8195 5.52362L13.8195 2.21362C13.2617 1.91341 12.6381 1.75629 12.0045 1.75629C11.371 1.75629 10.7474 1.91341 10.1895 2.21362L4.18953 5.52362C3.60767 5.84542 3.12386 6.31886 2.78953 6.89362C2.44953 7.4691 2.26997 8.12522 2.26953 8.79364V15.2036C2.27421 15.8693 2.45412 16.522 2.79117 17.096C3.12822 17.67 3.61052 18.1452 4.18953 18.4736L10.1895 21.7736C10.7463 22.0827 11.3728 22.2445 12.0095 22.2437C12.6432 22.2446 13.2664 22.0827 13.8195 21.7736L19.8195 18.4636C20.4 18.1403 20.8833 17.6675 21.2192 17.0942C21.5551 16.5209 21.7313 15.8681 21.7295 15.2036V8.84363C21.7465 8.15858 21.5697 7.48265 21.2195 6.89362ZM20.2195 15.2036C20.2235 15.6013 20.1196 15.9927 19.9189 16.3361C19.7182 16.6795 19.4281 16.962 19.0795 17.1536L13.0795 20.4636C12.9753 20.5228 12.8646 20.5698 12.7495 20.6036V12.4236L20.0495 8.03363C20.1418 8.27613 20.1859 8.53427 20.1795 8.79364L20.2195 15.2036Z" fill="#1F1F1F"/>
</svg>
