<svg width="24" height="24" viewBox="0 0 24 24" fill="none" xmlns="http://www.w3.org/2000/svg">
<path d="M18.765 18.5789C19.858 17.2877 20.559 15.7108 20.7853 14.0343C21.0115 12.3578 20.7537 10.6515 20.042 9.11674C19.3304 7.58197 18.1947 6.28271 16.7689 5.3722C15.3431 4.46169 13.6867 3.97791 11.995 3.97791C10.3033 3.97791 8.64683 4.46169 7.22103 5.3722C5.79524 6.28271 4.65956 7.58197 3.94793 9.11674C3.23631 10.6515 2.97843 12.3578 3.20471 14.0343C3.43098 15.7108 4.13197 17.2877 5.225 18.5789L3.345 20.4589C3.20455 20.5995 3.12567 20.7901 3.12567 20.9889C3.12567 21.1876 3.20455 21.3783 3.345 21.5189C3.41424 21.589 3.49681 21.6446 3.58783 21.6823C3.67884 21.7201 3.77646 21.7393 3.875 21.7389C3.97378 21.7411 4.07197 21.7227 4.16323 21.6848C4.2545 21.6469 4.33686 21.5904 4.40502 21.5189L6.285 19.6389C7.87845 20.995 9.90259 21.7398 11.995 21.7398C14.0874 21.7398 16.1115 20.995 17.705 19.6389L19.585 21.5189C19.6531 21.5904 19.7355 21.6469 19.8268 21.6848C19.918 21.7227 20.0162 21.7411 20.115 21.7389C20.2135 21.7393 20.3112 21.7201 20.4022 21.6823C20.4932 21.6446 20.5757 21.589 20.645 21.5189C20.7854 21.3783 20.8643 21.1876 20.8643 20.9889C20.8643 20.7901 20.7854 20.5995 20.645 20.4589L18.765 18.5789ZM15.015 15.8989C14.8287 16.0836 14.5773 16.1878 14.315 16.1889C14.1834 16.1896 14.0529 16.1644 13.9311 16.1146C13.8092 16.0649 13.6984 15.9916 13.605 15.8989L10.995 13.2889V8.22887C10.995 7.96366 11.1003 7.7093 11.2879 7.52177C11.4754 7.33423 11.7298 7.22887 11.995 7.22887C12.2602 7.22887 12.5145 7.33423 12.7021 7.52177C12.8896 7.7093 12.995 7.96366 12.995 8.22887V12.4589L14.995 14.4589C15.0931 14.5508 15.1716 14.6616 15.2259 14.7846C15.2802 14.9075 15.3092 15.0402 15.3111 15.1746C15.3129 15.3091 15.2876 15.4425 15.2368 15.5669C15.1859 15.6913 15.1105 15.8043 15.015 15.8989Z" fill="#1F1F1F"/>
<path d="M20.6852 6.09888C20.4872 6.09458 20.298 6.01606 20.1552 5.87888L17.8452 3.55888C17.7744 3.48994 17.7182 3.40752 17.6798 3.3165C17.6414 3.22547 17.6216 3.12768 17.6216 3.02888C17.6216 2.93009 17.6414 2.8323 17.6798 2.74127C17.7182 2.65025 17.7744 2.56783 17.8452 2.49889C17.9858 2.35844 18.1764 2.27954 18.3752 2.27954C18.5739 2.27954 18.7646 2.35844 18.9052 2.49889L21.2652 4.77888C21.4056 4.91951 21.4845 5.11013 21.4845 5.30888C21.4845 5.50763 21.4056 5.69826 21.2652 5.83888C21.1918 5.92002 21.1023 5.98503 21.0025 6.02979C20.9026 6.07454 20.7946 6.09807 20.6852 6.09888Z" fill="#1F1F1F"/>
<path d="M3.26495 6.0989C3.06696 6.09459 2.87779 6.01607 2.73495 5.8789C2.5945 5.73828 2.51562 5.54765 2.51562 5.3489C2.51562 5.15015 2.5945 4.95953 2.73495 4.8189L5.05495 2.4989C5.12362 2.42522 5.20639 2.36611 5.29839 2.32512C5.39039 2.28413 5.48971 2.26209 5.59041 2.26031C5.69112 2.25853 5.79116 2.27705 5.88455 2.31478C5.97794 2.3525 6.06277 2.40864 6.13399 2.47986C6.20521 2.55108 6.26134 2.63592 6.29906 2.7293C6.33678 2.82269 6.35531 2.92272 6.35354 3.02342C6.35176 3.12413 6.32972 3.22344 6.28873 3.31544C6.24774 3.40744 6.18864 3.49024 6.11495 3.5589L3.79495 5.8789C3.65444 6.01959 3.4638 6.09873 3.26495 6.0989Z" fill="#1F1F1F"/>
</svg>
