<svg width="24" height="24" viewBox="0 0 24 24" fill="none" xmlns="http://www.w3.org/2000/svg">
<path d="M6.4585 12H17.5419" stroke="#1F1F1F" stroke-width="1.5" stroke-miterlimit="10" stroke-linecap="round"/>
<path d="M11.3034 6.72223L6.77511 11.2506C6.67618 11.3487 6.59765 11.4655 6.54406 11.594C6.49047 11.7227 6.46289 11.8607 6.46289 12C6.46289 12.1393 6.49047 12.2773 6.54406 12.406C6.59765 12.5345 6.67618 12.6513 6.77511 12.7495L11.3034 17.2778" stroke="#1F1F1F" stroke-width="1.5" stroke-linecap="round" stroke-linejoin="round"/>
<path d="M12 21.5C17.2467 21.5 21.5 17.2467 21.5 12C21.5 6.7533 17.2467 2.5 12 2.5C6.7533 2.5 2.5 6.7533 2.5 12C2.5 17.2467 6.7533 21.5 12 21.5Z" stroke="#1F1F1F" stroke-width="1.5" stroke-linecap="round" stroke-linejoin="round"/>
</svg>
