<svg width="24" height="24" viewBox="0 0 24 24" fill="none" xmlns="http://www.w3.org/2000/svg">
<path d="M18.4802 8.38082C18.2248 7.95942 17.8625 7.61348 17.4302 7.37832L13.3602 5.10267C12.9427 4.87542 12.4752 4.75635 12.0002 4.75635C11.5252 4.75635 11.0577 4.87542 10.6402 5.10267L6.57016 7.37832C6.13787 7.61348 5.77552 7.95942 5.52015 8.38082C5.27017 8.81332 5.13904 9.30457 5.14014 9.80442V14.1954C5.13904 14.6953 5.27017 15.1864 5.52015 15.6189C5.77361 16.0419 6.13642 16.3883 6.57016 16.6214L10.6402 18.8871C11.0568 19.117 11.5246 19.2376 12.0002 19.2376C12.4758 19.2376 12.9436 19.117 13.3602 18.8871L17.4302 16.6214C17.8639 16.3883 18.2267 16.0419 18.4802 15.6189C18.7289 15.1896 18.86 14.7019 18.8602 14.2054V9.8445C18.8685 9.33107 18.7371 8.82506 18.4802 8.38082ZM17.3602 14.2054C17.361 14.4337 17.3024 14.6583 17.1902 14.857C17.0717 15.0576 16.9027 15.2235 16.7002 15.3382L12.7502 17.5337V12.431L17.3502 9.65402C17.3552 9.70403 17.3552 9.75442 17.3502 9.80442L17.3602 14.2054Z" fill="#1F1F1F"/>
<path d="M21.2501 8.63144C21.0512 8.63144 20.8604 8.55223 20.7198 8.41122C20.5791 8.27022 20.5001 8.07897 20.5001 7.87956V5.87455C20.5018 5.5674 20.4426 5.26298 20.3259 4.979C20.2091 4.69502 20.0372 4.43718 19.8201 4.22045C19.3825 3.78087 18.7895 3.53227 18.1701 3.52872H15.0801C14.8812 3.52872 14.6904 3.44951 14.5498 3.30851C14.4091 3.1675 14.3301 2.97625 14.3301 2.77684C14.3301 2.57743 14.4091 2.38618 14.5498 2.24518C14.6904 2.10417 14.8812 2.02496 15.0801 2.02496H18.1701C19.1872 2.02887 20.1615 2.43614 20.8801 3.1578C21.237 3.5137 21.5197 3.93714 21.712 4.40353C21.9043 4.86991 22.0022 5.36991 22.0001 5.87455V7.87956C22.0001 8.07897 21.9211 8.27022 21.7804 8.41122C21.6398 8.55223 21.449 8.63144 21.2501 8.63144Z" fill="#1F1F1F"/>
<path d="M18.1701 22.0249H15.0801C14.8812 22.0249 14.6904 21.9457 14.5498 21.8047C14.4091 21.6637 14.3301 21.4725 14.3301 21.2731C14.3301 21.0736 14.4091 20.8824 14.5498 20.7414C14.6904 20.6004 14.8812 20.5212 15.0801 20.5212H18.1701C18.4764 20.5225 18.78 20.463 19.0633 20.3461C19.3466 20.2291 19.604 20.0571 19.8206 19.84C20.0372 19.6228 20.2088 19.3647 20.3254 19.0807C20.442 18.7968 20.5014 18.4924 20.5001 18.1853V16.1202C20.5001 15.9208 20.5791 15.7295 20.7198 15.5885C20.8604 15.4475 21.0512 15.3683 21.2501 15.3683C21.449 15.3683 21.6398 15.4475 21.7804 15.5885C21.9211 15.7295 22.0001 15.9208 22.0001 16.1202V18.1853C22.0014 18.6899 21.9033 19.1898 21.7113 19.6562C21.5192 20.1227 21.2372 20.5465 20.8813 20.9033C20.5254 21.2601 20.1026 21.5428 19.6373 21.7353C19.1721 21.9278 18.6734 22.0263 18.1701 22.0249Z" fill="#1F1F1F"/>
<path d="M8.92 22.0249H5.83C5.32667 22.0263 4.82805 21.9278 4.36278 21.7353C3.8975 21.5428 3.47476 21.2601 3.11885 20.9033C2.76294 20.5465 2.48087 20.1227 2.28886 19.6562C2.09685 19.1898 1.99869 18.6899 2.00001 18.1853V16.1202C2.00001 15.9208 2.07903 15.7295 2.21968 15.5885C2.36033 15.4475 2.5511 15.3683 2.75001 15.3683C2.94893 15.3683 3.1397 15.4475 3.28035 15.5885C3.421 15.7295 3.50001 15.9208 3.50001 16.1202V18.1853C3.49869 18.4924 3.55804 18.7968 3.67467 19.0807C3.79129 19.3647 3.96286 19.6228 4.17949 19.84C4.39611 20.0571 4.65349 20.2291 4.93678 20.3461C5.22007 20.463 5.52365 20.5225 5.83 20.5212H8.92C9.11891 20.5212 9.30968 20.6004 9.45033 20.7414C9.59098 20.8824 9.67 21.0736 9.67 21.2731C9.67 21.4725 9.59098 21.6637 9.45033 21.8047C9.30968 21.9457 9.11891 22.0249 8.92 22.0249Z" fill="#1F1F1F"/>
<path d="M2.75003 8.63144C2.55112 8.63144 2.36035 8.55223 2.2197 8.41122C2.07905 8.27022 2.00003 8.07897 2.00003 7.87956V5.87455C1.99792 5.36991 2.09582 4.86991 2.28809 4.40353C2.48036 3.93714 2.76315 3.5137 3.12003 3.1578C3.83863 2.43614 4.81288 2.02887 5.83002 2.02496H8.92002C9.11893 2.02496 9.3097 2.10417 9.45035 2.24518C9.591 2.38618 9.67002 2.57743 9.67002 2.77684C9.67002 2.97625 9.591 3.1675 9.45035 3.30851C9.3097 3.44951 9.11893 3.52872 8.92002 3.52872H5.83002C5.21058 3.53227 4.61759 3.78087 4.18003 4.22045C3.96292 4.43718 3.791 4.69502 3.67426 4.979C3.55752 5.26298 3.49829 5.5674 3.50003 5.87455V7.87956C3.50003 8.07897 3.42102 8.27022 3.28037 8.41122C3.13972 8.55223 2.94895 8.63144 2.75003 8.63144Z" fill="#1F1F1F"/>
</svg>
