<svg width="24" height="24" viewBox="0 0 24 24" fill="none" xmlns="http://www.w3.org/2000/svg">
<path d="M7.54834 22.2528C7.21682 22.2528 6.89884 22.1211 6.66442 21.8867C6.43 21.6523 6.29834 21.3344 6.29834 21.0028C6.29834 20.6713 6.43 20.3534 6.66442 20.119C6.89884 19.8845 7.21682 19.7528 7.54834 19.7528C7.87986 19.7528 8.19783 19.8845 8.43225 20.119C8.66667 20.3534 8.79834 20.6713 8.79834 21.0028C8.79834 21.3344 8.66667 21.6523 8.43225 21.8867C8.19783 22.1211 7.87986 22.2528 7.54834 22.2528Z" fill="#1F1F1F"/>
<path d="M17.9482 22.2528C17.6167 22.2528 17.2987 22.1211 17.0643 21.8867C16.8299 21.6523 16.6982 21.3344 16.6982 21.0028C16.6982 20.6713 16.8299 20.3534 17.0643 20.119C17.2987 19.8845 17.6167 19.7528 17.9482 19.7528C18.2797 19.7528 18.5977 19.8845 18.8321 20.119C19.0665 20.3534 19.1982 20.6713 19.1982 21.0028C19.1982 21.3344 19.0665 21.6523 18.8321 21.8867C18.5977 22.1211 18.2797 22.2528 17.9482 22.2528Z" fill="#1F1F1F"/>
<path d="M21.0282 7.55282C21.033 7.50627 21.033 7.45937 21.0282 7.41283C20.9199 7.04818 20.7293 6.71331 20.4709 6.43413C20.2126 6.15496 19.8934 5.93894 19.5382 5.80282C18.9623 5.59248 18.3507 5.49735 17.7382 5.52282H5.22822L4.43818 2.32284C4.39177 2.12923 4.27038 1.96198 4.10066 1.8579C3.93094 1.75382 3.72676 1.7214 3.53315 1.76781C3.33955 1.81423 3.17227 1.93565 3.06819 2.10537C2.96411 2.27509 2.93181 2.4792 2.97822 2.67281L3.91816 6.45281C4.43816 8.45281 4.85821 10.2129 5.21821 11.8829C5.21821 12.0229 5.21817 12.1529 5.29817 12.2829C5.41817 12.8029 5.53813 13.3329 5.62813 13.8429C5.7476 14.5837 5.91802 15.3154 6.13813 16.0329C6.30056 16.4292 6.56652 16.7745 6.90815 17.0329C7.25505 17.2857 7.66169 17.4442 8.08821 17.4928C8.38821 17.4928 8.69812 17.4928 8.99812 17.4928C9.27124 17.5083 9.54507 17.5083 9.81819 17.4928H16.5482C16.958 17.5212 17.3693 17.4667 17.7576 17.3327C18.1458 17.1987 18.5032 16.9879 18.8082 16.7129L18.8882 16.6329C19.3237 16.0867 19.5943 15.4275 19.6682 14.7328C19.8282 13.8028 20.0383 12.8529 20.2283 11.9629C20.233 11.9263 20.233 11.8894 20.2283 11.8529C20.2883 11.6329 20.3282 11.4128 20.3782 11.2028C20.4282 10.9928 20.4882 10.6829 20.5482 10.4129C20.6082 10.1429 20.6783 9.79282 20.7183 9.58282C20.9774 8.93928 21.0834 8.24436 21.0282 7.55282ZM18.2183 14.5528C18.1873 14.9571 18.0377 15.3432 17.7882 15.6629C17.6479 15.7865 17.4849 15.8816 17.3082 15.9429C17.0951 16.0101 16.8707 16.0339 16.6482 16.0128H9.72822C9.2259 16.0578 8.72054 16.0578 8.21821 16.0128C8.06357 15.9905 7.91624 15.9323 7.78816 15.8429C7.68158 15.7661 7.59287 15.6671 7.52815 15.5528C7.34035 14.9196 7.19344 14.2749 7.08821 13.6229C7.01821 13.2529 6.93812 12.8828 6.86812 12.5128H18.6182C18.4782 13.1428 18.3383 13.8228 18.2183 14.5228V14.5528Z" fill="#1F1F1F"/>
</svg>
