<svg width="24" height="24" viewBox="0 0 24 24" fill="none" xmlns="http://www.w3.org/2000/svg">
<path d="M20.9 3.66496C20.5538 3.3144 20.141 3.03653 19.686 2.84764C19.2309 2.65874 18.7427 2.56266 18.25 2.56498H5.75C4.75625 2.56762 3.80397 2.96355 3.10127 3.66624C2.39858 4.36893 2.00264 5.32123 2 6.31498V14.185C2.00197 15.179 2.39747 16.1318 3.10001 16.835C3.4469 17.1846 3.85978 17.4619 4.31468 17.6508C4.76959 17.8396 5.25746 17.9362 5.75 17.935H11.25V19.935H8.53C8.33109 19.935 8.14032 20.014 7.99967 20.1547C7.85901 20.2953 7.78 20.4861 7.78 20.685C7.78 20.8839 7.85901 21.0747 7.99967 21.2153C8.14032 21.356 8.33109 21.435 8.53 21.435H15.47C15.6689 21.435 15.8597 21.356 16.0003 21.2153C16.141 21.0747 16.22 20.8839 16.22 20.685C16.22 20.4861 16.141 20.2953 16.0003 20.1547C15.8597 20.014 15.6689 19.935 15.47 19.935H12.75V17.935H18.25C18.7425 17.9362 19.2304 17.8396 19.6853 17.6508C20.1402 17.4619 20.5531 17.1846 20.9 16.835C21.6025 16.1318 21.998 15.179 22 14.185V6.31498C22.0012 5.82244 21.9046 5.33453 21.7158 4.87962C21.5269 4.42471 21.2496 4.01185 20.9 3.66496ZM15.28 11.255L12.97 13.665C12.8516 13.7873 12.7084 13.8828 12.55 13.945C12.3916 14.011 12.2216 14.045 12.05 14.045C11.8784 14.045 11.7084 14.011 11.55 13.945C11.3874 13.8806 11.2407 13.7816 11.12 13.655L8.77001 11.305C8.69632 11.2363 8.63722 11.1535 8.59622 11.0615C8.55523 10.9695 8.53318 10.8702 8.5314 10.7695C8.52963 10.6688 8.54816 10.5688 8.58588 10.4754C8.6236 10.382 8.67974 10.2972 8.75096 10.226C8.82218 10.1547 8.90701 10.0986 9.0004 10.0609C9.09379 10.0231 9.19382 10.0046 9.29453 10.0064C9.39523 10.0082 9.49454 10.0302 9.58653 10.0712C9.67853 10.1122 9.76134 10.1713 9.83 10.245L11.3 11.715V7.29496C11.3 7.09605 11.379 6.90528 11.5197 6.76463C11.6603 6.62398 11.8511 6.54496 12.05 6.54496C12.2489 6.54496 12.4397 6.62398 12.5803 6.76463C12.721 6.90528 12.8 7.09605 12.8 7.29496V11.665L14.27 10.195C14.4106 10.0546 14.6012 9.97563 14.8 9.97563C14.9987 9.97563 15.1894 10.0546 15.33 10.195C15.4024 10.2677 15.4589 10.3547 15.4958 10.4504C15.5328 10.5461 15.5495 10.6485 15.5448 10.751C15.5401 10.8535 15.5141 10.9539 15.4685 11.0458C15.4229 11.1378 15.3587 11.2192 15.28 11.285V11.255Z" fill="#1F1F1F"/>
</svg>
