<svg width="24" height="24" viewBox="0 0 24 24" fill="none" xmlns="http://www.w3.org/2000/svg">
<path d="M20.7249 5.27503H16.0349V4.38501C16.0301 3.75505 15.7789 3.152 15.3349 2.70502C15.1133 2.48265 14.8499 2.3063 14.5599 2.18616C14.2698 2.06602 13.9588 2.00446 13.6449 2.00501H10.3849C10.071 2.00446 9.76006 2.06602 9.47002 2.18616C9.17997 2.3063 8.91655 2.48265 8.69495 2.70502C8.25376 3.15302 8.006 3.75625 8.00494 4.38501V5.27503H3.31494C3.11603 5.27503 2.92528 5.35404 2.78462 5.49469C2.64397 5.63535 2.56494 5.82612 2.56494 6.02503C2.56494 6.22394 2.64397 6.41468 2.78462 6.55533C2.92528 6.69598 3.11603 6.77503 3.31494 6.77503H4.73496V18.535C4.73088 18.9908 4.81715 19.4429 4.98879 19.8651C5.16043 20.2873 5.41404 20.6713 5.73496 20.995C6.38929 21.6361 7.26889 21.9951 8.18495 21.995H15.8049C16.721 21.9951 17.6006 21.6361 18.2549 20.995C18.5758 20.6713 18.8294 20.2873 19.0011 19.8651C19.1727 19.4429 19.259 18.9908 19.2549 18.535V6.77503H20.6849C20.8838 6.77503 21.0746 6.69598 21.2152 6.55533C21.3559 6.41468 21.4349 6.22394 21.4349 6.02503C21.4349 5.82612 21.3559 5.63535 21.2152 5.49469C21.0746 5.35404 20.8838 5.27503 20.6849 5.27503H20.7249ZM9.52495 4.38501C9.52499 4.26959 9.548 4.15534 9.59264 4.04889C9.63727 3.94245 9.70266 3.84595 9.78496 3.76502C9.95028 3.60152 10.1724 3.50833 10.4049 3.50501H13.6649C13.7819 3.50428 13.8979 3.52689 14.0061 3.57154C14.1143 3.61618 14.2125 3.68197 14.2949 3.76502C14.4575 3.93092 14.5506 4.15273 14.5549 4.38501V5.27503H9.55495L9.52495 4.38501ZM10.8549 16.995C10.8549 17.2602 10.7496 17.5146 10.562 17.7021C10.3745 17.8897 10.1201 17.995 9.85494 17.995C9.58972 17.995 9.33538 17.8897 9.14784 17.7021C8.96031 17.5146 8.85495 17.2602 8.85495 16.995V11.565C8.85495 11.2998 8.96031 11.0455 9.14784 10.8579C9.33538 10.6704 9.58972 10.565 9.85494 10.565C10.1201 10.565 10.3745 10.6704 10.562 10.8579C10.7496 11.0455 10.8549 11.2998 10.8549 11.565V16.995ZM15.2149 16.995C15.2149 17.2602 15.1095 17.5146 14.922 17.7021C14.7345 17.8897 14.4801 17.995 14.2149 17.995C13.9497 17.995 13.6953 17.8897 13.5078 17.7021C13.3203 17.5146 13.2149 17.2602 13.2149 16.995V11.565C13.2149 11.2998 13.3203 11.0455 13.5078 10.8579C13.6953 10.6704 13.9497 10.565 14.2149 10.565C14.4801 10.565 14.7345 10.6704 14.922 10.8579C15.1095 11.0455 15.2149 11.2998 15.2149 11.565V16.995Z" fill="#1F1F1F"/>
</svg>
