<svg width="24" height="24" viewBox="0 0 24 24" fill="none" xmlns="http://www.w3.org/2000/svg">
<path d="M20.7255 19.115L19.8169 14.2029C19.6599 13.4939 19.2654 12.8598 18.6987 12.4057C18.1292 11.962 17.4236 11.7292 16.7019 11.7468H15.0645V8.70167C15.0702 8.23632 14.9344 7.78021 14.6751 7.39377C14.739 7.36827 14.7995 7.33473 14.8549 7.29394C15.3555 6.96461 15.7459 6.49266 15.9755 5.93913C16.2051 5.38559 16.2633 4.77592 16.1427 4.18891C16.0222 3.6037 15.7343 3.06609 15.3141 2.64138C14.8908 2.21924 14.3525 1.93103 13.7665 1.81271C13.3256 1.72103 12.8697 1.72998 12.4327 1.83886C11.9957 1.94775 11.5889 2.15377 11.2425 2.44161C10.8961 2.72945 10.6192 3.09169 10.4321 3.50138C10.2451 3.91107 10.1529 4.35765 10.1623 4.80791C10.1571 5.49722 10.3899 6.16721 10.8213 6.70487C10.5793 6.80511 10.3511 6.93597 10.1423 7.09424L8.5549 8.22244C8.14672 8.50934 7.82553 8.90314 7.62645 9.36062C7.54705 9.55049 7.48679 9.74782 7.44669 9.94967C6.05105 10.4551 4.87699 11.4342 4.12911 12.7164C3.38124 13.9985 3.107 15.5025 3.35411 16.9661C3.60121 18.4297 4.35396 19.7602 5.48132 20.7258C6.60869 21.6914 8.03911 22.2308 9.52332 22.25H9.60326C10.7262 22.2525 11.8278 21.943 12.7851 21.3559C13.7423 20.7688 14.5176 19.9273 15.0245 18.9253C15.4367 18.1617 15.6914 17.3231 15.7733 16.4593H16.2525L16.8517 19.9437C16.9436 20.3824 17.192 20.7728 17.5505 21.0419C17.877 21.3023 18.2811 21.4463 18.6987 21.4513C18.9881 21.4659 19.2764 21.4076 19.5373 21.2815C19.8057 21.167 20.0422 20.9888 20.2263 20.7624C20.4213 20.5357 20.5582 20.265 20.6255 19.9736C20.7178 19.6974 20.7519 19.405 20.7255 19.115ZM13.7367 18.1965C13.3592 18.9584 12.7753 19.5991 12.0516 20.0457C11.328 20.4922 10.4935 20.7267 9.64312 20.7224H9.57329C8.47898 20.7036 7.42317 20.3154 6.57734 19.6208C5.73152 18.9262 5.14541 17.9661 4.91411 16.8964C4.68281 15.8266 4.81993 14.7101 5.30326 13.7281C5.78659 12.7461 6.5877 11.9564 7.57649 11.4872L8.06569 15.1114C8.08546 15.6061 8.28834 16.0757 8.63484 16.4293C8.81671 16.6117 9.0331 16.7559 9.27139 16.8536C9.50968 16.9514 9.76498 17.0006 10.0225 16.9984C10.2753 16.9983 10.5255 16.9479 10.7586 16.8502C10.9917 16.7525 11.2031 16.6094 11.3805 16.4293C11.7409 16.0607 11.9448 15.567 11.9495 15.0515V11.627C12.6846 12.0393 13.2977 12.6387 13.7267 13.3642C14.1388 14.1021 14.3568 14.9326 14.3603 15.7778C14.3638 16.623 14.1527 17.4552 13.7467 18.1965H13.7367Z" fill="#1F1F1F"/>
</svg>
