<svg width="24" height="24" viewBox="0 0 24 24" fill="none" xmlns="http://www.w3.org/2000/svg">
<path d="M9.69729 12.695L4.4258 11.7854C4.00428 11.6674 3.63088 11.419 3.35907 11.0759C3.08725 10.7328 2.93094 10.3124 2.91249 9.87502C2.89403 9.43769 3.0144 9.0057 3.25636 8.64089C3.4983 8.27609 3.84945 7.99716 4.25953 7.84403L18.3039 2.87572C18.6751 2.74023 19.0773 2.71361 19.4633 2.79898C19.8491 2.88437 20.2026 3.0782 20.4821 3.35765C20.7616 3.63712 20.9554 3.9906 21.0407 4.3765C21.1261 4.7624 21.0995 5.16464 20.964 5.53592L15.9958 19.854C15.8486 20.2789 15.5675 20.6445 15.1946 20.8958C14.8217 21.1471 14.3774 21.2704 13.9283 21.2472C13.4792 21.2241 13.0499 21.0557 12.7048 20.7673C12.3598 20.4791 12.1178 20.0864 12.0152 19.6487L11.1057 14.1033C11.0079 13.7693 10.8276 13.4652 10.5815 13.2191C10.3354 12.973 10.0314 12.7928 9.69729 12.695Z" stroke="#1F1F1F" stroke-width="1.5" stroke-linecap="round" stroke-linejoin="round"/>
</svg>
