<svg width="24" height="24" viewBox="0 0 24 24" fill="none" xmlns="http://www.w3.org/2000/svg">
<path d="M19.3486 5.25466L16.1111 8.36577L12.9147 4.01105C12.8285 3.8427 12.6974 3.70142 12.536 3.60276C12.3746 3.5041 12.1892 3.4519 12 3.4519C11.8108 3.4519 11.6254 3.5041 11.464 3.60276C11.3026 3.70142 11.1715 3.8427 11.0853 4.01105L7.88889 8.36577L4.65139 5.25466C4.53548 5.06712 4.36233 4.92183 4.15752 4.84023C3.95271 4.75863 3.72709 4.74505 3.51397 4.8015C3.30085 4.85794 3.11153 4.98143 2.97397 5.15371C2.8364 5.32599 2.75788 5.53795 2.75 5.75827L4.34306 16.961C4.4712 17.9582 4.96029 18.8738 5.71784 19.5348C6.47538 20.1957 7.44885 20.5562 8.45417 20.548H15.6486C16.6539 20.5562 17.6274 20.1957 18.3849 19.5348C19.1425 18.8738 19.6316 17.9582 19.7597 16.961L21.25 5.75827C21.2421 5.53795 21.1636 5.32599 21.026 5.15371C20.8885 4.98143 20.6991 4.85794 20.486 4.8015C20.2729 4.74505 20.0473 4.75863 19.8425 4.84023C19.6377 4.92183 19.4645 5.06712 19.3486 5.25466Z" stroke="#1F1F1F" stroke-width="1.5" stroke-linecap="round" stroke-linejoin="round"/>
<path d="M8 16.4472H16" stroke="#1F1F1F" stroke-width="1.5" stroke-linecap="round" stroke-linejoin="round"/>
</svg>
