<svg width="24" height="24" viewBox="0 0 24 24" fill="none" xmlns="http://www.w3.org/2000/svg">
<path d="M21.9814 17.8095C21.9982 18.065 21.9596 18.3211 21.8683 18.5604C21.7775 18.8086 21.6376 19.036 21.4569 19.2289C21.0701 19.5453 20.5885 19.7227 20.089 19.7329H19.8318H17.3634C16.9366 19.7496 16.5176 19.6147 16.1806 19.3523C15.9074 19.0742 15.737 18.7115 15.6972 18.3238V17.2953C15.7096 17.1752 15.6882 17.0541 15.6354 16.9456C15.6028 16.8534 15.5459 16.7717 15.4708 16.709C15.1506 16.5512 14.7992 16.4668 14.4423 16.4622C13.6915 16.349 13.0538 16.2565 12.3853 16.2153C11.1987 16.1321 10.0065 16.2468 8.85751 16.5548C8.7489 16.5687 8.64591 16.6113 8.5592 16.6782C8.48836 16.7323 8.43182 16.8029 8.3946 16.8839C8.31728 17.2034 8.29302 17.5335 8.32266 17.861C8.35306 18.1026 8.3321 18.348 8.26102 18.5809C8.19635 18.8252 8.0806 19.0531 7.92153 19.2495C7.74846 19.4302 7.53781 19.5706 7.30444 19.6609C7.09556 19.7449 6.87114 19.7835 6.64618 19.774H4.5172C4.17465 19.7938 3.83124 19.7938 3.48869 19.774C3.05282 19.7247 2.65194 19.5114 2.36752 19.1775C2.10013 18.7624 1.97724 18.2707 2.01786 17.7787C2.00626 17.1421 2.13256 16.5105 2.38811 15.9274C2.65116 15.3298 3.04064 14.7965 3.52974 14.364C4.42039 13.527 5.46949 12.8765 6.61529 12.451L7.41756 12.1733C8.84082 11.777 10.3114 11.5763 11.7888 11.5767C13.6389 11.5061 15.4864 11.7745 17.24 12.3687C18.2067 12.7304 19.1095 13.2443 19.9141 13.8909C20.8027 14.4835 21.4883 15.3343 21.8786 16.3285C21.9736 16.8161 22.0081 17.3135 21.9814 17.8095Z" fill="#1F1F1F"/>
<path d="M6.29639 4.43869L6.40931 4.35657C6.36691 4.38104 6.32878 4.41225 6.29639 4.44897V4.43869Z" fill="#1F1F1F"/>
<path d="M6.99495 4.2228C6.89286 4.20731 6.7891 4.20731 6.68701 4.2228H6.99495Z" fill="#1F1F1F"/>
<path d="M17.6308 5.53929L13.599 9.57108C13.1631 10.0005 12.5755 10.2407 11.9637 10.2396C11.6621 10.241 11.3631 10.1827 11.0842 10.0679C10.8053 9.95318 10.5518 9.78432 10.3385 9.57108L7.61309 6.85579V9.08768C7.61309 9.29227 7.53176 9.48848 7.3871 9.63314C7.24243 9.7778 7.04629 9.85907 6.8417 9.85907C6.63712 9.85907 6.44084 9.7778 6.29618 9.63314C6.15152 9.48848 6.07031 9.29227 6.07031 9.08768V4.97362C6.07161 4.76932 6.1528 4.57366 6.29656 4.4285C6.329 4.39172 6.3672 4.36046 6.40968 4.33594C6.49173 4.27434 6.58669 4.23215 6.6874 4.21252H10.9455C11.15 4.21252 11.3462 4.29379 11.4909 4.43845C11.6355 4.58312 11.7168 4.77933 11.7168 4.98391C11.7168 5.1885 11.6355 5.38467 11.4909 5.52934C11.3462 5.674 11.15 5.7553 10.9455 5.7553H8.71354L11.4288 8.47056C11.5722 8.59299 11.7546 8.66024 11.9431 8.66024C12.1316 8.66024 12.314 8.59299 12.4573 8.47056L16.4892 4.43877C16.6338 4.29431 16.8298 4.21318 17.0342 4.21318C17.2386 4.21318 17.4347 4.29431 17.5793 4.43877C17.7291 4.57965 17.8182 4.77326 17.8278 4.97864C17.8374 5.18401 17.7668 5.38506 17.6308 5.53929Z" fill="#1F1F1F"/>
</svg>
