<svg width="24" height="24" viewBox="0 0 24 24" fill="none" xmlns="http://www.w3.org/2000/svg">
<path d="M10.8193 15.8574C13.6017 15.8574 15.8574 13.6017 15.8574 10.8193C15.8574 8.03687 13.6017 5.78125 10.8193 5.78125C8.03687 5.78125 5.78125 8.03687 5.78125 10.8193C5.78125 13.6017 8.03687 15.8574 10.8193 15.8574Z" stroke="#1F1F1F" stroke-width="1.5" stroke-linecap="round" stroke-linejoin="round"/>
<path d="M14.3945 14.3948L17.5915 17.5917" stroke="#1F1F1F" stroke-width="1.5" stroke-linecap="round" stroke-linejoin="round"/>
<path d="M15.25 2.75H8.75C5.43629 2.75 2.75 5.43629 2.75 8.75V15.25C2.75 18.5637 5.43629 21.25 8.75 21.25H15.25C18.5637 21.25 21.25 18.5637 21.25 15.25V8.75C21.25 5.43629 18.5637 2.75 15.25 2.75Z" stroke="#1F1F1F" stroke-width="1.5"/>
</svg>
