<svg width="24" height="24" viewBox="0 0 24 24" fill="none" xmlns="http://www.w3.org/2000/svg">
<path d="M21.0257 8.80365V11.0137C21.0257 11.2126 20.9467 11.4034 20.8061 11.544C20.6654 11.6847 20.4746 11.7637 20.2757 11.7637C20.0768 11.7637 19.886 11.6847 19.7454 11.544C19.6047 11.4034 19.5257 11.2126 19.5257 11.0137V8.80365C19.5321 8.54428 19.4879 8.28614 19.3957 8.04364L12.0957 12.4236V20.6136C12.2107 20.5798 12.3215 20.5328 12.4257 20.4736L14.9557 19.0737C15.1275 18.9831 15.3277 18.9628 15.5143 19.0168C15.7008 19.0709 15.859 19.1953 15.9557 19.3636C16.0454 19.5366 16.0643 19.7378 16.0083 19.9244C15.9523 20.1111 15.8259 20.2686 15.6557 20.3636L13.1357 21.7637C12.5823 22.0719 11.9592 22.2337 11.3257 22.2337C10.6922 22.2337 10.0692 22.0719 9.5157 21.7637L3.5157 18.4636C2.93669 18.1352 2.45437 17.6601 2.11732 17.0861C1.78027 16.512 1.60037 15.8593 1.5957 15.1937V8.80365C1.59613 8.13523 1.77569 7.4791 2.11569 6.90363C2.17308 6.80088 2.24004 6.7038 2.31569 6.61365C2.6277 6.1665 3.03827 5.79698 3.5157 5.53363L9.5157 2.22363C10.0718 1.92343 10.6938 1.76624 11.3257 1.76624C11.9577 1.76624 12.5797 1.92343 13.1357 2.22363L19.1357 5.53363C19.5565 5.76508 19.9244 6.08183 20.2157 6.46362C20.2604 6.50966 20.3006 6.55991 20.3357 6.61365C20.4114 6.7038 20.4783 6.80088 20.5357 6.90363C20.8699 7.48017 21.0394 8.13739 21.0257 8.80365Z" fill="#1F1F1F"/>
<path d="M22.136 16.8036C22.0671 16.8744 21.9847 16.9307 21.8936 16.9691C21.8026 17.0075 21.7048 17.0272 21.606 17.0272C21.5072 17.0272 21.4094 17.0075 21.3184 16.9691C21.2274 16.9307 21.145 16.8744 21.076 16.8036L20.076 15.8036V19.1837C20.076 19.3826 19.997 19.5733 19.8564 19.714C19.7157 19.8546 19.5249 19.9337 19.326 19.9337C19.1271 19.9337 18.9363 19.8546 18.7957 19.714C18.655 19.5733 18.576 19.3826 18.576 19.1837V15.8036L17.576 16.8036C17.5068 16.8738 17.4242 16.9293 17.3332 16.9671C17.2422 17.0049 17.1446 17.0241 17.046 17.0236C16.9472 17.0258 16.8491 17.0075 16.7578 16.9696C16.6665 16.9317 16.5842 16.8752 16.516 16.8036C16.4453 16.7347 16.389 16.6523 16.3506 16.5613C16.3122 16.4703 16.2925 16.3724 16.2925 16.2736C16.2925 16.1748 16.3122 16.077 16.3506 15.986C16.389 15.895 16.4453 15.8126 16.516 15.7437L18.516 13.7437C18.6292 13.6315 18.7612 13.5401 18.906 13.4736C19.0052 13.433 19.1095 13.4061 19.216 13.3937H19.536C19.6432 13.4084 19.7476 13.4387 19.846 13.4836C19.9912 13.5396 20.1213 13.6286 20.226 13.7437L22.226 15.7437C22.29 15.819 22.3384 15.9063 22.3685 16.0005C22.3987 16.0947 22.4098 16.1938 22.4015 16.2924C22.3931 16.3909 22.3654 16.4868 22.3198 16.5745C22.2742 16.6623 22.2118 16.7401 22.136 16.8036Z" fill="#1F1F1F"/>
</svg>
