<svg width="24" height="24" viewBox="0 0 24 24" fill="none" xmlns="http://www.w3.org/2000/svg">
<path d="M14.3331 5.86926H5.55584C4.00622 5.86926 2.75 7.12548 2.75 8.6751V15.3248C2.75 16.8744 4.00622 18.1307 5.55584 18.1307H14.3331C15.8827 18.1307 17.1389 16.8744 17.1389 15.3248V8.6751C17.1389 7.12548 15.8827 5.86926 14.3331 5.86926Z" stroke="#1F1F1F" stroke-width="1.5" stroke-linecap="round" stroke-linejoin="round"/>
<path d="M19.688 15.0885H20.2224C20.495 15.0885 20.7564 14.9802 20.9492 14.7875C21.1419 14.5947 21.2502 14.3333 21.2502 14.0607V9.94959C21.2502 9.67701 21.1419 9.41559 20.9492 9.22284C20.7564 9.0301 20.495 8.92181 20.2224 8.92181H19.688" stroke="#1F1F1F" stroke-width="1.5" stroke-linecap="round" stroke-linejoin="round"/>
</svg>
