<svg width="24" height="24" viewBox="0 0 24 24" fill="none" xmlns="http://www.w3.org/2000/svg">
<path d="M21.4699 15.39H20.4699V6.21997C20.4714 5.72592 20.2773 5.25136 19.93 4.89997C19.7579 4.72829 19.5535 4.59223 19.3287 4.49958C19.1039 4.40692 18.8631 4.3595 18.62 4.35999H5.34998C5.10655 4.36098 4.8656 4.40849 4.64002 4.49997C4.19602 4.7004 3.84044 5.05598 3.64002 5.49997C3.54757 5.72527 3.49999 5.96644 3.5 6.20996V15.41H2.5C2.30109 15.41 2.11038 15.489 1.96973 15.6296C1.82908 15.7703 1.75 15.9611 1.75 16.16V17.52C1.75074 17.8146 1.81656 18.1054 1.94275 18.3716C2.06895 18.6378 2.25239 18.8729 2.47998 19.06C2.92688 19.4383 3.49445 19.6441 4.07996 19.64H19.92C20.5082 19.6421 21.0783 19.4367 21.53 19.06C21.7558 18.8719 21.9373 18.6364 22.0617 18.3703C22.1862 18.1041 22.2504 17.8138 22.25 17.52V16.16C22.2528 16.0572 22.2345 15.955 22.1961 15.8597C22.1578 15.7643 22.1003 15.6778 22.0272 15.6056C21.954 15.5334 21.8668 15.477 21.771 15.4399C21.6751 15.4028 21.5726 15.3858 21.4699 15.39ZM20.62 17.5C20.6208 17.7104 20.5504 17.9148 20.42 18.08C20.3465 18.1748 20.2525 18.2519 20.1452 18.3056C20.0379 18.3593 19.92 18.3881 19.8 18.39H4.14002C4.02004 18.3881 3.902 18.3593 3.79468 18.3056C3.68736 18.2519 3.5935 18.1748 3.52002 18.08C3.38967 17.9148 3.31909 17.7104 3.31995 17.5V16.62H20.62V17.5Z" fill="#1F1F1F"/>
</svg>
