<svg width="24" height="24" viewBox="0 0 24 24" fill="none" xmlns="http://www.w3.org/2000/svg">
<path d="M20.6965 3.83711V12.2405C20.7297 14.4879 19.9106 16.6645 18.404 18.3325C16.8974 20.0005 14.815 21.036 12.5758 21.2309C11.3862 21.3099 10.193 21.1434 9.07046 20.7419C7.94788 20.3403 6.91985 19.7122 6.05023 18.8967C5.1806 18.0811 4.48796 17.0954 4.01532 16.0008C3.54268 14.9063 3.30014 13.7262 3.30276 12.534V3.83711C3.30276 3.54879 3.41729 3.27228 3.62116 3.06841C3.82504 2.86453 4.10155 2.75 4.38987 2.75H7.6512C7.93952 2.75 8.21603 2.86453 8.4199 3.06841C8.62378 3.27228 8.73831 3.54879 8.73831 3.83711V12.534C8.73831 13.399 9.08191 14.2285 9.69353 14.8401C10.3051 15.4517 11.1347 15.7953 11.9996 15.7953C12.8646 15.7953 13.6941 15.4517 14.3057 14.8401C14.9174 14.2285 15.261 13.399 15.261 12.534V3.83711C15.261 3.54879 15.3755 3.27228 15.5794 3.06841C15.7832 2.86453 16.0597 2.75 16.3481 2.75H19.6094C19.8977 2.75 20.1742 2.86453 20.3781 3.06841C20.582 3.27228 20.6965 3.54879 20.6965 3.83711Z" stroke="#1F1F1F" stroke-width="1.5"/>
<path d="M8.73828 9.27264H3.30273" stroke="#1F1F1F" stroke-width="1.5"/>
<path d="M20.6962 9.27264H15.2607" stroke="#1F1F1F" stroke-width="1.5"/>
</svg>
