<svg width="24" height="24" viewBox="0 0 24 24" fill="none" xmlns="http://www.w3.org/2000/svg">
<path d="M14.706 4.3125H9.294C6.54279 4.3125 4.3125 6.54279 4.3125 9.294V14.706C4.3125 17.4572 6.54279 19.6875 9.294 19.6875H14.706C17.4572 19.6875 19.6875 17.4572 19.6875 14.706V9.294C19.6875 6.54279 17.4572 4.3125 14.706 4.3125Z" stroke="#1F1F1F" stroke-width="1.5"/>
<path d="M19.6055 15.5875H21.225C21.4968 15.5875 21.7576 15.4795 21.9498 15.2873C22.142 15.0951 22.25 14.8344 22.25 14.5625V9.43751C22.25 9.16566 22.142 8.90495 21.9498 8.71272C21.7576 8.5205 21.4968 8.41251 21.225 8.41251H19.6055" stroke="#1F1F1F" stroke-width="1.5"/>
<path d="M4.3945 15.5875H2.775C2.50315 15.5875 2.24244 15.4795 2.05022 15.2873C1.85799 15.0951 1.75 14.8344 1.75 14.5625V9.43751C1.75 9.16566 1.85799 8.90495 2.05022 8.71272C2.24244 8.5205 2.50315 8.41251 2.775 8.41251H4.3945" stroke="#1F1F1F" stroke-width="1.5"/>
<path d="M2.76465 8.4125V4.3125" stroke="#1F1F1F" stroke-width="1.5" stroke-linecap="round" stroke-linejoin="round"/>
<path d="M21.2251 8.4125L21.2148 4.3125" stroke="#1F1F1F" stroke-width="1.5" stroke-linecap="round" stroke-linejoin="round"/>
<path d="M8.91455 8.76315V11.4605" stroke="#1F1F1F" stroke-width="1.5" stroke-linecap="round" stroke-linejoin="round"/>
<path d="M15.0649 8.76315V11.4605" stroke="#1F1F1F" stroke-width="1.5" stroke-linecap="round" stroke-linejoin="round"/>
<path d="M9.93994 15.5875H14.0399" stroke="#1F1F1F" stroke-width="1.5" stroke-linecap="round" stroke-linejoin="round"/>
</svg>
