<svg width="24" height="24" viewBox="0 0 24 24" fill="none" xmlns="http://www.w3.org/2000/svg">
<path d="M21.0857 8.80365V11.0137C21.0857 11.2126 21.0067 11.4034 20.8661 11.544C20.7254 11.6847 20.5347 11.7637 20.3357 11.7637C20.1368 11.7637 19.9461 11.6847 19.8054 11.544C19.6648 11.4034 19.5857 11.2126 19.5857 11.0137V8.80365C19.5921 8.54428 19.548 8.28614 19.4557 8.04364L12.1557 12.4236V20.6136C12.2708 20.5798 12.3815 20.5328 12.4857 20.4736L15.0157 19.0737C15.1875 18.9831 15.3878 18.9628 15.5743 19.0168C15.7608 19.0709 15.919 19.1953 16.0157 19.3636C16.1054 19.5366 16.1243 19.7378 16.0683 19.9244C16.0123 20.1111 15.8859 20.2686 15.7157 20.3636L13.1957 21.7637C12.6423 22.0719 12.0193 22.2337 11.3857 22.2337C10.7522 22.2337 10.1292 22.0719 9.57576 21.7637L3.57576 18.4636C2.99674 18.1352 2.51443 17.6601 2.17738 17.0861C1.84033 16.512 1.66043 15.8593 1.65576 15.1937V8.80365C1.65619 8.13523 1.83574 7.4791 2.17575 6.90363C2.23314 6.80088 2.3001 6.7038 2.37574 6.61365L2.49575 6.46362C2.7871 6.08183 3.15495 5.76508 3.57576 5.53363L9.57576 2.22363C10.1318 1.92343 10.7538 1.76624 11.3857 1.76624C12.0177 1.76624 12.6397 1.92343 13.1957 2.22363L19.1957 5.53363C19.6165 5.76508 19.9844 6.08183 20.2757 6.46362C20.3205 6.50966 20.3606 6.55991 20.3957 6.61365C20.4714 6.7038 20.5383 6.80088 20.5957 6.90363C20.9299 7.48017 21.0994 8.13739 21.0857 8.80365Z" fill="#1F1F1F"/>
<path d="M22.1957 17.6237L20.1957 19.6237C20.0848 19.736 19.9521 19.8244 19.8057 19.8837C19.6618 19.9511 19.5046 19.9852 19.3457 19.9836C19.188 19.9837 19.0318 19.9531 18.8858 19.8937C18.7365 19.8299 18.6007 19.7382 18.4857 19.6237L16.4857 17.6237C16.415 17.5547 16.3587 17.4723 16.3204 17.3813C16.282 17.2903 16.2622 17.1924 16.2622 17.0936C16.2622 16.9948 16.282 16.8971 16.3204 16.806C16.3587 16.715 16.415 16.6326 16.4857 16.5637C16.6264 16.4232 16.817 16.3443 17.0157 16.3443C17.2145 16.3443 17.4051 16.4232 17.5458 16.5637L18.5458 17.5637V14.2037C18.5458 14.0048 18.6248 13.814 18.7654 13.6733C18.9061 13.5327 19.0968 13.4537 19.2958 13.4537C19.4947 13.4537 19.6854 13.5327 19.8261 13.6733C19.9667 13.814 20.0458 14.0048 20.0458 14.2037V17.5837L21.0458 16.5837C21.1144 16.51 21.1972 16.4508 21.2892 16.4099C21.3812 16.3689 21.4805 16.3468 21.5812 16.345C21.6819 16.3433 21.782 16.3618 21.8753 16.3995C21.9687 16.4373 22.0536 16.4934 22.1248 16.5646C22.196 16.6359 22.2521 16.7206 22.2899 16.814C22.3276 16.9074 22.3461 17.0075 22.3443 17.1082C22.3426 17.2089 22.3205 17.3082 22.2795 17.4002C22.2385 17.4922 22.1794 17.575 22.1058 17.6437L22.1957 17.6237Z" fill="#1F1F1F"/>
</svg>
