<svg width="24" height="24" viewBox="0 0 24 24" fill="none" xmlns="http://www.w3.org/2000/svg">
<path d="M12.7438 20.2551C12.4309 20.1097 12.129 19.9643 11.8384 19.8077C10.3333 18.9528 8.94966 17.8994 7.72479 16.6758C6.12373 15.1924 4.80561 13.43 3.83476 11.4746C3.33428 10.4149 3.00599 9.28216 2.86226 8.11899C2.63364 6.95236 2.7622 5.74384 3.23114 4.65151C3.51949 4.17203 3.86895 3.73212 4.27072 3.34284C4.42957 3.16285 4.62362 3.01739 4.84088 2.91542C5.05814 2.81345 5.29399 2.75716 5.53386 2.75C5.7868 2.77999 6.03107 2.86084 6.25198 2.9877C6.47289 3.11456 6.66588 3.28483 6.81936 3.48823C7.52359 4.24884 8.25017 4.95352 8.98794 5.72531C9.27144 5.97524 9.45094 6.3225 9.49096 6.69845C9.46245 6.99655 9.34126 7.27821 9.14443 7.50378C8.88733 7.81697 8.5967 8.09662 8.31724 8.39862C8.15451 8.55691 8.02897 8.74941 7.94971 8.96221C7.87045 9.175 7.83944 9.40276 7.85893 9.629C8.03723 10.1754 8.33948 10.673 8.74202 11.0831C9.23386 11.743 9.7257 12.403 10.2623 13.0182C11.2568 14.1565 12.4312 15.1238 13.7387 15.8816C13.9156 16.0103 14.122 16.0921 14.339 16.1195C14.556 16.1468 14.7763 16.1189 14.9795 16.0382C15.4074 15.7929 15.7865 15.4706 16.0973 15.0875C16.3793 14.7509 16.7792 14.5348 17.2151 14.4835C17.6043 14.4979 17.9727 14.6622 18.2435 14.9421C18.5789 15.2441 18.8807 15.5908 19.2049 15.9152C19.529 16.2396 19.775 16.4633 20.0432 16.7541C20.3617 17.0429 20.664 17.3491 20.9487 17.6713C21.0612 17.8093 21.145 17.9686 21.1948 18.1395C21.2448 18.3105 21.2599 18.4898 21.2393 18.6668C21.1393 19.1065 20.8954 19.5001 20.5463 19.7853C20.0618 20.2872 19.4737 20.6772 18.8231 20.9285C18.1725 21.1796 17.4749 21.2857 16.7792 21.2394C15.3828 21.178 14.0119 20.8436 12.7438 20.2551Z" stroke="#1F1F1F" stroke-width="1.5" stroke-miterlimit="10" stroke-linecap="round"/>
<path d="M12.7998 7.50378H17.9306" stroke="#1F1F1F" stroke-width="1.5" stroke-miterlimit="10" stroke-linecap="round"/>
</svg>
