<svg width="24" height="24" viewBox="0 0 24 24" fill="none" xmlns="http://www.w3.org/2000/svg">
<path d="M21.25 12C21.2516 13.2141 21.0135 14.4167 20.5493 15.5389C20.0852 16.6611 19.4041 17.6809 18.545 18.54C17.6859 19.3991 16.6656 20.0806 15.5426 20.5456C14.4196 21.0106 13.2158 21.25 12 21.25C10.6915 21.2531 9.39742 20.9767 8.20459 20.4394L4.33751 21.0116C4.14525 21.0433 3.94812 21.0275 3.76336 20.9656C3.57861 20.9037 3.41183 20.7976 3.27761 20.6565C3.14339 20.5154 3.04581 20.3436 2.99339 20.1562C2.94096 19.9687 2.93529 19.7713 2.97688 19.5812L3.51397 15.6595C3.00433 14.5069 2.74404 13.2599 2.7501 12C2.74854 10.7858 2.98663 9.58326 3.45079 8.46107C3.91494 7.33888 4.59603 6.31908 5.45513 5.45998C6.31422 4.60088 7.33446 3.91935 8.45749 3.45434C9.58052 2.98934 10.7843 2.75 12 2.75C13.2158 2.75 14.4196 2.98934 15.5426 3.45434C16.6656 3.91935 17.6859 4.60088 18.545 5.45998C19.4041 6.31908 20.0852 7.33888 20.5493 8.46107C21.0135 9.58326 21.2516 10.7858 21.25 12Z" stroke="#1F1F1F" stroke-width="1.5" stroke-linecap="round" stroke-linejoin="round"/>
<path d="M9.28711 8.66736C9.5544 8.08508 10.0085 7.60848 10.5775 7.31297C11.1466 7.01745 11.798 6.91991 12.4288 7.03578C12.8609 7.10199 13.2715 7.26848 13.6274 7.52187C13.9835 7.77524 14.275 8.10847 14.4787 8.49478C14.6253 8.80376 14.7049 9.14023 14.7121 9.48209C14.7193 9.82394 14.654 10.1635 14.5205 10.4784C14.387 10.7932 14.1883 11.0763 13.9374 11.309C13.6866 11.5417 13.3893 11.7188 13.065 11.8285C12.7342 11.9539 12.4481 12.1743 12.2426 12.4618C12.0371 12.7494 11.9215 13.0913 11.9104 13.4444V14.1112" stroke="#1F1F1F" stroke-width="1.5" stroke-miterlimit="10" stroke-linecap="round"/>
<path d="M11.8882 17.0117H11.8938" stroke="#1F1F1F" stroke-width="2" stroke-linecap="round" stroke-linejoin="round"/>
<path d="M11.8882 17.0117H11.8938" stroke="#1F1F1F" stroke-width="2" stroke-linecap="round" stroke-linejoin="round"/>
</svg>
