<svg width="24" height="24" viewBox="0 0 24 24" fill="none" xmlns="http://www.w3.org/2000/svg">
<path d="M11.0096 6.62503C11.0128 7.1992 10.897 7.76779 10.6697 8.29503C10.345 9.09045 9.79165 9.77161 9.07958 10.2523C8.3675 10.7329 7.52877 10.9914 6.66967 10.995C5.80538 10.995 4.96043 10.7387 4.24181 10.2585C3.52319 9.77833 2.96318 9.09583 2.63243 8.29733C2.30169 7.49883 2.21517 6.62019 2.38378 5.77251C2.55239 4.92482 2.96857 4.14617 3.5797 3.53502C3.98567 3.12774 4.46803 2.80461 4.99913 2.58412C5.53024 2.36363 6.09962 2.25012 6.67467 2.25012C7.24973 2.25012 7.8191 2.36363 8.3502 2.58412C8.8813 2.80461 9.36367 3.12774 9.76964 3.53502C10.5801 4.36057 11.0389 5.4682 11.0497 6.62503H11.0096Z" fill="#1F1F1F"/>
<path d="M21.7599 6.625C21.7615 7.19802 21.6493 7.76565 21.4299 8.295C21.1898 8.82754 20.8504 9.30945 20.4299 9.715C19.6087 10.5351 18.4956 10.9957 17.335 10.9957C16.1743 10.9957 15.0611 10.5351 14.2399 9.715C13.4204 8.89547 12.96 7.78397 12.96 6.625C12.96 5.46603 13.4204 4.35452 14.2399 3.53499C14.6442 3.1265 15.1254 2.80218 15.6558 2.58076C16.1861 2.35935 16.7552 2.24523 17.3299 2.245C18.4932 2.24831 19.6077 2.71212 20.4299 3.53499C20.8457 3.93595 21.1773 4.4157 21.4056 4.94623C21.634 5.47675 21.7544 6.04744 21.7599 6.625Z" fill="#1F1F1F"/>
<path d="M11.0101 17.375C11.0083 17.954 10.8857 18.5262 10.6501 19.055C10.436 19.5871 10.1163 20.0701 9.71019 20.475C9.30389 20.8829 8.82058 21.2061 8.28844 21.4258C7.7563 21.6455 7.18581 21.7574 6.6101 21.755C5.74581 21.755 4.90098 21.4987 4.18236 21.0185C3.46374 20.5383 2.90361 19.8558 2.57286 19.0573C2.24212 18.2588 2.1556 17.3802 2.32421 16.5325C2.49282 15.6848 2.909 14.9062 3.52013 14.295C3.9261 13.8878 4.40846 13.5646 4.93956 13.3441C5.47067 13.1236 6.04005 13.0101 6.6151 13.0101C7.19015 13.0101 7.75953 13.1236 8.29064 13.3441C8.82174 13.5646 9.30422 13.8878 9.71019 14.295C10.5206 15.1206 10.9794 16.2282 10.9901 17.385L11.0101 17.375Z" fill="#1F1F1F"/>
<path d="M21.76 17.375C21.758 18.2384 21.5003 19.0819 21.0194 19.7991C20.5384 20.5162 19.8558 21.0747 19.0577 21.4043C18.2596 21.7338 17.3818 21.8195 16.535 21.6505C15.6882 21.4816 14.9104 21.0656 14.2999 20.455C13.6893 19.8445 13.2734 19.0668 13.1045 18.22C12.9355 17.3732 13.0213 16.4954 13.3508 15.6973C13.6803 14.8992 14.2388 14.2166 14.9559 13.7356C15.673 13.2547 16.5165 12.997 17.38 12.995C18.5428 13.0005 19.6565 13.464 20.4799 14.285C20.8866 14.6901 21.2091 15.1717 21.4288 15.7021C21.6485 16.2324 21.7611 16.801 21.76 17.375Z" fill="#1F1F1F"/>
</svg>
