<svg width="24" height="24" viewBox="0 0 24 24" fill="none" xmlns="http://www.w3.org/2000/svg">
<path d="M20.567 14.54V9.46002C20.5663 8.72983 20.3735 8.01267 20.0081 7.38049C19.6427 6.74831 19.1174 6.22334 18.4851 5.85825L14.0817 3.30786C13.4488 2.9424 12.7307 2.75 11.9998 2.75C11.2689 2.75 10.5508 2.9424 9.9179 3.30786L5.51457 5.85825C4.8822 6.22334 4.35696 6.74831 3.99154 7.38049C3.62612 8.01267 3.43337 8.72983 3.43262 9.46002V14.54C3.43337 15.2702 3.62612 15.9873 3.99154 16.6195C4.35696 17.2517 4.8822 17.7767 5.51457 18.1418L9.9179 20.6921C10.5508 21.0576 11.2689 21.25 11.9998 21.25C12.7307 21.25 13.4488 21.0576 14.0817 20.6921L18.4851 18.1418C19.1174 17.7767 19.6427 17.2517 20.0081 16.6195C20.3735 15.9873 20.5663 15.2702 20.567 14.54Z" stroke="#1F1F1F" stroke-width="1.5" stroke-linecap="round" stroke-linejoin="round"/>
<path d="M12.9059 8.34621H11.0946C10.7277 8.34475 10.367 8.44026 10.0489 8.62306C9.73076 8.80586 9.46664 9.06947 9.28321 9.38718L8.37756 10.9591C8.19483 11.2756 8.09863 11.6346 8.09863 12C8.09863 12.3655 8.19483 12.7245 8.37756 13.041L9.28321 14.6129C9.46664 14.9306 9.73076 15.1942 10.0489 15.377C10.367 15.5598 10.7277 15.6553 11.0946 15.6539H12.9059C13.2727 15.6553 13.6334 15.5598 13.9515 15.377C14.2696 15.1942 14.5337 14.9306 14.7171 14.6129L15.6228 13.041C15.8055 12.7245 15.9017 12.3655 15.9017 12C15.9017 11.6346 15.8055 11.2756 15.6228 10.9591L14.7171 9.38718C14.5337 9.06947 14.2696 8.80586 13.9515 8.62306C13.6334 8.44026 13.2727 8.34475 12.9059 8.34621Z" stroke="#1F1F1F" stroke-width="1.5" stroke-linecap="round" stroke-linejoin="round"/>
</svg>
