<svg width="24" height="24" viewBox="0 0 24 24" fill="none" xmlns="http://www.w3.org/2000/svg">
<path d="M17.0417 10.8935L13.0417 6.88752C12.9817 6.83191 12.9145 6.78474 12.8418 6.74731L17.2118 11.1038C17.1695 11.0232 17.1117 10.9517 17.0417 10.8935Z" fill="#1F1F1F"/>
<path d="M20.9621 3.00175C20.3017 2.36267 19.4203 2.00385 18.502 2.00026C17.5542 1.98886 16.6394 2.34815 15.9521 3.00175L14.632 4.59412C14.433 4.40568 14.203 4.2532 13.9521 4.14345C13.4206 3.92311 12.8235 3.92311 12.292 4.14345C12.0307 4.25391 11.7931 4.41371 11.5921 4.61415C11.2245 4.99173 11.0058 5.48976 10.9764 6.01626C10.9469 6.54276 11.1088 7.06213 11.432 7.47841L4.03198 14.8994C3.68778 15.2458 3.44658 15.6812 3.33533 16.1569C3.22407 16.6327 3.24713 17.1301 3.40198 17.5934L2.552 18.4447C2.37633 18.6192 2.23694 18.8268 2.14197 19.0556C2.05251 19.2821 2.00506 19.5231 2.00195 19.7667C2.00397 20.0169 2.05142 20.2646 2.14197 20.4978C2.23692 20.7128 2.36895 20.9094 2.53198 21.0786L2.86194 21.4392C3.03851 21.6148 3.24522 21.7573 3.47204 21.8598C3.70449 21.9518 3.95208 21.9994 4.20203 22C4.4486 21.9981 4.69268 21.9506 4.922 21.8598C5.14604 21.762 5.34958 21.6227 5.52197 21.4492L6.39197 20.5879C6.75209 20.7094 7.13512 20.7471 7.51196 20.6981C8.09688 20.6317 8.64272 20.3708 9.06201 19.957L16.512 12.5159C16.8835 12.7967 17.3366 12.948 17.802 12.9465C18.3703 12.9469 18.9161 12.7239 19.3221 12.3256C19.7178 11.9261 19.9397 11.3861 19.9397 10.8234C19.9397 10.2606 19.7178 9.72068 19.3221 9.32115L20.922 8.07929L21.012 7.99917C21.6586 7.32153 22.0127 6.41618 21.9977 5.47902C21.9827 4.54187 21.5999 3.6483 20.932 2.99173L20.9621 3.00175ZM19.9621 6.88752L17.752 8.61008C17.6693 8.67554 17.6008 8.75731 17.5509 8.85034C17.5011 8.94336 17.4709 9.04567 17.4621 9.15089C17.4564 9.25687 17.472 9.36291 17.5081 9.4627C17.5442 9.56249 17.5999 9.654 17.672 9.73176L18.242 10.3026C18.3013 10.3672 18.3487 10.4418 18.382 10.5229C18.4188 10.6011 18.436 10.687 18.432 10.7733C18.4348 10.8595 18.4177 10.9452 18.382 11.0237C18.3507 11.1029 18.303 11.1746 18.242 11.234C18.1149 11.3501 17.9491 11.4145 17.777 11.4145C17.605 11.4145 17.4392 11.3501 17.3121 11.234L17.2021 11.1338L12.8321 6.77736L12.652 6.6071C12.5293 6.48329 12.4604 6.31589 12.4604 6.14142C12.4604 5.96694 12.5293 5.79954 12.652 5.67573C12.7134 5.6146 12.7843 5.56386 12.862 5.52549C12.9446 5.51047 13.0293 5.51047 13.112 5.52549C13.1947 5.51129 13.2792 5.51129 13.362 5.52549C13.4382 5.56627 13.5088 5.61678 13.5721 5.67573L14.152 6.24657C14.2252 6.31923 14.3131 6.37556 14.4096 6.41181C14.5061 6.44806 14.6092 6.46342 14.7121 6.45689C14.8156 6.45057 14.9168 6.42337 15.0096 6.3769C15.1024 6.33044 15.1848 6.26566 15.252 6.18648L17.032 4.03328C17.2209 3.846 17.4462 3.69957 17.6939 3.6031C17.9416 3.50662 18.2065 3.46216 18.4721 3.47245C18.8661 3.47975 19.2498 3.60008 19.5776 3.81918C19.9053 4.03827 20.1634 4.34692 20.3213 4.70853C20.4792 5.07014 20.5302 5.46952 20.4683 5.85929C20.4064 6.24906 20.2342 6.61287 19.9721 6.90755L19.9621 6.88752Z" fill="#1F1F1F"/>
</svg>
