<svg width="24" height="24" viewBox="0 0 24 24" fill="none" xmlns="http://www.w3.org/2000/svg">
<path d="M12.0001 11.3383C12.365 11.3383 12.6608 11.0425 12.6608 10.6776C12.6608 10.3127 12.365 10.0168 12.0001 10.0168C11.6352 10.0168 11.3394 10.3127 11.3394 10.6776C11.3394 11.0425 11.6352 11.3383 12.0001 11.3383Z" stroke="#1F1F1F" stroke-width="1.5" stroke-linecap="round" stroke-linejoin="round"/>
<path d="M16.6251 11.3383C16.99 11.3383 17.2858 11.0425 17.2858 10.6776C17.2858 10.3127 16.99 10.0168 16.6251 10.0168C16.2602 10.0168 15.9644 10.3127 15.9644 10.6776C15.9644 11.0425 16.2602 11.3383 16.6251 11.3383Z" stroke="#1F1F1F" stroke-width="1.5" stroke-linecap="round" stroke-linejoin="round"/>
<path d="M7.37508 11.3383C7.73998 11.3383 8.03579 11.0425 8.03579 10.6776C8.03579 10.3127 7.73998 10.0168 7.37508 10.0168C7.01018 10.0168 6.71436 10.3127 6.71436 10.6776C6.71436 11.0425 7.01018 11.3383 7.37508 11.3383Z" stroke="#1F1F1F" stroke-width="1.5" stroke-linecap="round" stroke-linejoin="round"/>
<path d="M21.25 10.94V14.11C21.2482 15.1628 20.8314 16.1725 20.09 16.92C19.7177 17.285 19.2801 17.5767 18.8 17.78C18.3201 17.9742 17.8077 18.076 17.29 18.08H14.64L12.46 20.26C12.3986 20.321 12.3277 20.3717 12.25 20.41C12.1708 20.443 12.0858 20.46 12 20.46C11.9142 20.46 11.8292 20.443 11.75 20.41C11.6723 20.3717 11.6014 20.321 11.54 20.26L9.36 18.08H6.71C5.66064 18.0756 4.65504 17.659 3.91 16.92C3.1686 16.1725 2.75179 15.1628 2.75 14.11V7.51001C2.75 6.44914 3.17143 5.43173 3.92157 4.68158C4.67172 3.93144 5.68913 3.51001 6.75 3.51001H13" stroke="#1F1F1F" stroke-width="1.5" stroke-linecap="round" stroke-linejoin="round"/>
<path d="M16.25 5.43903L17.5164 6.70548C17.561 6.75056 17.614 6.78638 17.6725 6.81078C17.731 6.83522 17.7938 6.84781 17.8571 6.84781C17.9205 6.84781 17.9833 6.83522 18.0418 6.81078C18.1002 6.78638 18.1533 6.75056 18.1979 6.70548L20.75 4.15332" stroke="#1F1F1F" stroke-width="1.5" stroke-linecap="round" stroke-linejoin="round"/>
</svg>
