<svg width="24" height="24" viewBox="0 0 24 24" fill="none" xmlns="http://www.w3.org/2000/svg">
<path d="M20.6 4.16999C19.7292 3.29271 18.5461 2.79645 17.31 2.78999H6.70003C6.07982 2.78867 5.46542 2.90985 4.89216 3.14659C4.31891 3.38332 3.79807 3.73095 3.35951 4.16951C2.92095 4.60806 2.57336 5.12891 2.33662 5.70216C2.09989 6.27541 1.97868 6.88978 1.97999 7.50999V14.11C1.97868 14.7302 2.09989 15.3445 2.33662 15.9178C2.57336 16.491 2.92095 17.0119 3.35951 17.4505C3.79807 17.889 4.31891 18.2366 4.89216 18.4734C5.46542 18.7101 6.07982 18.8313 6.70003 18.83H9.02998L10.98 20.77C11.107 20.9127 11.2641 21.0254 11.44 21.1C11.6113 21.1708 11.7946 21.2082 11.98 21.21C12.1729 21.2087 12.3635 21.1679 12.54 21.09C12.7049 21.0197 12.8544 20.9178 12.98 20.79L14.98 18.79H17.31C18.5601 18.7873 19.758 18.2889 20.6411 17.404C21.5241 16.5191 22.02 15.3201 22.02 14.07V7.46998C22.0013 6.22558 21.4907 5.03919 20.6 4.16999ZM15.52 11.87H8.44002C8.1748 11.87 7.92046 11.7646 7.73292 11.5771C7.54539 11.3896 7.44002 11.1352 7.44002 10.87C7.44002 10.6048 7.54539 10.3504 7.73292 10.1629C7.92046 9.97535 8.1748 9.86998 8.44002 9.86998H15.52C15.7852 9.86998 16.0396 9.97535 16.2271 10.1629C16.4147 10.3504 16.52 10.6048 16.52 10.87C16.52 11.1352 16.4147 11.3896 16.2271 11.5771C16.0396 11.7646 15.7852 11.87 15.52 11.87Z" fill="#1F1F1F"/>
</svg>
