<svg width="24" height="24" viewBox="0 0 24 24" fill="none" xmlns="http://www.w3.org/2000/svg">
<path d="M12 1.75C9.97277 1.75 7.99105 2.35115 6.30545 3.47743C4.61984 4.60372 3.3061 6.20456 2.5303 8.0775C1.7545 9.95044 1.55143 12.0114 1.94693 13.9997C2.34243 15.988 3.31874 17.8144 4.75222 19.2478C6.18571 20.6813 8.01209 21.6576 10.0004 22.0531C11.9887 22.4486 14.0496 22.2456 15.9225 21.4698C17.7954 20.694 19.3963 19.3802 20.5226 17.6946C21.6489 16.009 22.25 14.0273 22.25 12C22.2474 9.28234 21.1666 6.67676 19.2449 4.75508C17.3232 2.83341 14.7177 1.75265 12 1.75ZM12.75 17.75V18.54C12.75 18.7389 12.6709 18.9297 12.5303 19.0703C12.3896 19.211 12.1989 19.29 12 19.29C11.8011 19.29 11.6104 19.211 11.4697 19.0703C11.3291 18.9297 11.25 18.7389 11.25 18.54V17.75C10.5983 17.6526 9.98788 17.3716 9.49002 16.94C9.13506 16.6417 8.84274 16.276 8.62991 15.8641C8.41708 15.4521 8.28795 15.0021 8.25003 14.54C8.23337 14.3425 8.29559 14.1465 8.423 13.9947C8.55041 13.843 8.73272 13.7478 8.93008 13.73C9.12862 13.7132 9.32579 13.7751 9.47915 13.9023C9.63252 14.0295 9.72976 14.2118 9.75003 14.41C9.76915 14.6775 9.84192 14.9383 9.96389 15.1771C10.0859 15.4159 10.2545 15.6277 10.46 15.8C10.8727 16.1542 11.4072 16.3335 11.95 16.3C13.51 16.3 14.25 15.7 14.25 14.48C14.25 13.67 13.54 12.8 12 12.8C8.74003 12.8 8.25003 10.8 8.25003 9.64999C8.2664 9.16383 8.38566 8.68667 8.6 8.25C8.80605 7.82604 9.09562 7.44806 9.45132 7.13876C9.80703 6.82945 10.2216 6.59517 10.6701 6.45C10.8597 6.39139 11.0535 6.34792 11.25 6.32V5.54C11.25 5.34109 11.3291 5.15032 11.4697 5.00967C11.6104 4.86901 11.8011 4.79 12 4.79C12.1989 4.79 12.3896 4.86901 12.5303 5.00967C12.6709 5.15032 12.75 5.34109 12.75 5.54V6.35C13.5351 6.48093 14.2548 6.86764 14.7974 7.44998C15.3399 8.03232 15.6749 8.77763 15.75 9.56999C15.7582 9.76128 15.693 9.94848 15.5676 10.0932C15.4423 10.2379 15.2663 10.3293 15.0758 10.3484C14.8853 10.3676 14.6947 10.3132 14.543 10.1964C14.3913 10.0795 14.2901 9.90909 14.26 9.72C14.2044 9.1773 13.9437 8.67631 13.531 8.31944C13.1184 7.96257 12.5851 7.77677 12.0401 7.8H11.86C11.6164 7.79808 11.3739 7.83176 11.14 7.89999C10.8863 7.98266 10.6516 8.11526 10.45 8.28999C10.2432 8.46625 10.0762 8.68439 9.95999 8.92999C9.83886 9.16934 9.7707 9.43196 9.76004 9.7C9.76004 10.52 10.03 11.32 12.01 11.32C14.47 11.32 15.76 12.92 15.76 14.5C15.7733 14.9117 15.7047 15.322 15.5581 15.707C15.4116 16.092 15.19 16.4441 14.9063 16.7427C14.6225 17.0414 14.2822 17.2807 13.9052 17.4467C13.5282 17.6128 13.1219 17.7023 12.71 17.71L12.75 17.75Z" fill="#1F1F1F"/>
</svg>
