<svg width="24" height="24" viewBox="0 0 24 24" fill="none" xmlns="http://www.w3.org/2000/svg">
<path d="M21.3419 18.5765C20.9561 19.3571 20.408 20.0464 19.7345 20.5982C19.0609 21.1501 18.2773 21.5518 17.436 21.7765V18.5765H21.3419Z" fill="#1F1F1F"/>
<path d="M22.0007 12.8824V15.8235C22.0055 16.1554 21.974 16.4868 21.9066 16.8118H17.436V12.8824H22.0007Z" fill="#1F1F1F"/>
<path d="M22.0007 8.17646V11.1176H17.436V7.18823H21.9066C21.974 7.51322 22.0055 7.8446 22.0007 8.17646Z" fill="#1F1F1F"/>
<path d="M21.3419 5.42351H17.436V2.22351C18.2773 2.4482 19.0609 2.84989 19.7345 3.40174C20.408 3.95359 20.9561 4.64287 21.3419 5.42351Z" fill="#1F1F1F"/>
<path d="M15.6713 2H8.31836V11.1176H15.6713V2Z" fill="#1F1F1F"/>
<path d="M6.55329 2.22351V5.42351H2.65918C3.0412 4.64234 3.5866 3.95236 4.25844 3.40027C4.93028 2.84818 5.71288 2.44687 6.55329 2.22351Z" fill="#1F1F1F"/>
<path d="M6.55342 7.18823V11.1176H2.00048V8.17646C1.99565 7.8446 2.02721 7.51322 2.0946 7.18823H6.55342Z" fill="#1F1F1F"/>
<path d="M6.55342 12.8824V16.8118H2.0946C2.02721 16.4868 1.99565 16.1554 2.00048 15.8235V12.8824H6.55342Z" fill="#1F1F1F"/>
<path d="M6.55329 18.5765V21.7765C5.71288 21.5531 4.93028 21.1518 4.25844 20.5997C3.5866 20.0476 3.0412 19.3577 2.65918 18.5765H6.55329Z" fill="#1F1F1F"/>
<path d="M15.6713 12.8824H8.31836V22H15.6713V12.8824Z" fill="#1F1F1F"/>
</svg>
