<svg width="24" height="24" viewBox="0 0 24 24" fill="none" xmlns="http://www.w3.org/2000/svg">
<path d="M12 21.5C17.2467 21.5 21.5 17.2467 21.5 12C21.5 6.75329 17.2467 2.5 12 2.5C6.75329 2.5 2.5 6.75329 2.5 12C2.5 17.2467 6.75329 21.5 12 21.5Z" stroke="#1F1F1F" stroke-width="1.5" stroke-linecap="round" stroke-linejoin="round"/>
<path d="M7.77783 16.2222L9.72005 10.385C9.77301 10.2292 9.86168 10.0879 9.97898 9.97239C10.0963 9.85693 10.239 9.77049 10.3956 9.71999L16.2223 7.77777L14.2801 13.615C14.2282 13.7697 14.1411 13.9103 14.0257 14.0256C13.9104 14.141 13.7698 14.2281 13.6151 14.28L7.77783 16.2222Z" stroke="#1F1F1F" stroke-width="1.5" stroke-linecap="round" stroke-linejoin="round"/>
</svg>
