<svg width="24" height="24" viewBox="0 0 24 24" fill="none" xmlns="http://www.w3.org/2000/svg">
<path d="M12 1.75012C9.97273 1.75012 7.99102 2.35127 6.30541 3.47755C4.61981 4.60384 3.30603 6.20468 2.53024 8.07762C1.75444 9.95056 1.55146 12.0115 1.94695 13.9998C2.34245 15.9881 3.31867 17.8145 4.75216 19.248C6.18565 20.6815 8.01202 21.6577 10.0003 22.0532C11.9886 22.4487 14.0495 22.2457 15.9225 21.4699C17.7954 20.6941 19.3963 19.3803 20.5226 17.6947C21.6488 16.0091 22.25 14.0274 22.25 12.0001C22.2593 10.6515 22.0005 9.31442 21.4887 8.06663C20.9769 6.81884 20.2222 5.68519 19.2686 4.73154C18.3149 3.77788 17.1813 3.02321 15.9335 2.5114C14.6857 1.99958 13.3486 1.74081 12 1.75012ZM18.69 17.6401L6.37002 5.31012C8.04769 3.9095 10.1887 3.18741 12.372 3.2859C14.5552 3.3844 16.6226 4.29635 18.1673 5.84234C19.7121 7.38833 20.6223 9.45644 20.7191 11.6398C20.8158 13.8231 20.092 15.9636 18.69 17.6401Z" fill="#1F1F1F"/>
</svg>
