<svg width="24" height="24" viewBox="0 0 24 24" fill="none" xmlns="http://www.w3.org/2000/svg">
<path d="M20.87 7.17497C20.5157 6.82065 20.0946 6.54012 19.6312 6.34959C19.1677 6.15906 18.6711 6.06233 18.17 6.06499H13.81C13.6456 6.06679 13.4835 6.02542 13.34 5.94499C13.1981 5.86596 13.0752 5.75671 12.98 5.62498L12.11 4.29497C11.7579 3.77153 11.2832 3.34212 10.7273 3.04408C10.1713 2.74604 9.55089 2.58842 8.92007 2.58497H5.83005C5.32588 2.58365 4.82642 2.68214 4.3605 2.87477C3.89457 3.0674 3.47138 3.35038 3.11533 3.70735C2.75929 4.06432 2.47743 4.48823 2.28602 4.95466C2.0946 5.42109 1.99741 5.9208 2.00005 6.42497V17.585C2.00452 18.6001 2.40661 19.5729 3.12006 20.295C3.83967 21.0121 4.81413 21.4149 5.83005 21.415H18.17C19.1851 21.4106 20.158 21.0084 20.88 20.295C21.5971 19.5754 21.9999 18.6009 22 17.585V9.88499C22.0003 9.38099 21.9005 8.88194 21.7066 8.41676C21.5126 7.95158 21.2283 7.52949 20.87 7.17497ZM15.79 14.445H8.21006C7.94484 14.445 7.69049 14.3396 7.50295 14.1521C7.31541 13.9646 7.21006 13.7102 7.21006 13.445C7.21006 13.1798 7.31541 12.9254 7.50295 12.7379C7.69049 12.5504 7.94484 12.445 8.21006 12.445H15.79C16.0552 12.445 16.3096 12.5504 16.4971 12.7379C16.6847 12.9254 16.79 13.1798 16.79 13.445C16.79 13.7102 16.6847 13.9646 16.4971 14.1521C16.3096 14.3396 16.0552 14.445 15.79 14.445Z" fill="#1F1F1F"/>
</svg>
