<svg width="24" height="24" viewBox="0 0 24 24" fill="none" xmlns="http://www.w3.org/2000/svg">
<path d="M12.1249 14.7185C8.52488 14.7185 4.50488 17.6469 4.50488 21.245" stroke="#1F1F1F" stroke-width="1.5" stroke-linecap="round" stroke-linejoin="round"/>
<path d="M12.1249 11.4603C12.9876 11.4623 13.8316 11.2084 14.5499 10.7308C15.2682 10.2531 15.8286 9.57326 16.1601 8.77718C16.4917 7.98111 16.5794 7.10462 16.4123 6.25866C16.2452 5.4127 15.8308 4.63531 15.2214 4.02488C14.6121 3.41445 13.8352 2.99843 12.9892 2.82948C12.1431 2.66053 11.266 2.74624 10.4687 3.07576C9.67145 3.40528 8.98992 3.96381 8.51039 4.68063C8.03087 5.39746 7.7749 6.24036 7.7749 7.10265C7.7749 8.25664 8.23288 9.36351 9.04838 10.1804C9.86387 10.9974 10.9703 11.4577 12.1249 11.4603Z" stroke="#1F1F1F" stroke-width="1.5" stroke-linecap="round" stroke-linejoin="round"/>
<path d="M16.4883 14.9834V20.9801" stroke="#1F1F1F" stroke-width="1.5" stroke-miterlimit="10" stroke-linecap="round"/>
<path d="M13.4951 17.9883H19.4951" stroke="#1F1F1F" stroke-width="1.5" stroke-miterlimit="10" stroke-linecap="round"/>
</svg>
