<svg width="24" height="24" viewBox="0 0 24 24" fill="none" xmlns="http://www.w3.org/2000/svg">
<path d="M18.131 16.2591C15.5658 18.3301 13.0005 17.7384 11.7178 17.7384C10.4352 17.7384 10.3583 18.0085 9.42198 19.0248C9.30215 19.1513 9.15792 19.252 8.99806 19.3209C8.83819 19.3897 8.66604 19.4252 8.49207 19.4252C8.31809 19.4252 8.14594 19.3897 7.98607 19.3209C7.82621 19.252 7.68198 19.1513 7.56215 19.0248L4.99688 16.452C4.87075 16.3318 4.77032 16.1872 4.70168 16.0269C4.63305 15.8665 4.59766 15.6939 4.59766 15.5194C4.59766 15.3449 4.63305 15.1722 4.70168 15.0119C4.77032 14.8516 4.87075 14.7069 4.99688 14.5868C6.02299 13.6477 6.27952 13.4676 6.27952 12.2841C6.27952 10.779 5.57407 7.93613 8.49848 5.00316C9.21999 4.27358 10.0842 3.70162 11.0368 3.32327C11.9894 2.94491 13.0097 2.76834 14.0337 2.80466C15.0576 2.84097 16.063 3.0894 16.9866 3.5343C17.9101 3.9792 18.7319 4.61095 19.4003 5.38983C20.0686 6.1687 20.569 7.07785 20.87 8.06009C21.171 9.04232 21.2661 10.0764 21.1493 11.0973C21.0325 12.1182 20.7063 13.1038 20.1913 13.9921C19.6763 14.8804 18.9835 15.6523 18.1567 16.2591H18.131Z" stroke="#1F1F1F" stroke-width="1.5" stroke-linecap="round" stroke-linejoin="round"/>
<path d="M4.70175 16.2462L3.20107 17.7513C2.79062 18.1629 2.67519 18.7289 2.95737 19.0377L5.04806 21.0444C5.33024 21.3274 5.8946 21.2117 6.3307 20.8L7.7416 19.2949" stroke="#1F1F1F" stroke-width="1.5" stroke-linecap="round" stroke-linejoin="round"/>
<path d="M15.9122 6.50823C15.6238 6.21769 15.281 5.98714 14.9035 5.82983C14.526 5.67252 14.1212 5.59154 13.7125 5.59154C13.3037 5.59154 12.8989 5.67252 12.5214 5.82983C12.1439 5.98714 11.8011 6.21769 11.5127 6.50823" stroke="#1F1F1F" stroke-width="1.5" stroke-linecap="round" stroke-linejoin="round"/>
</svg>
