<svg width="24" height="24" viewBox="0 0 24 24" fill="none" xmlns="http://www.w3.org/2000/svg">
<path d="M15.6391 5.83604C15.6391 4.13167 14.0098 2.75 12 2.75C9.99013 2.75 8.36084 4.13167 8.36084 5.83604V11.4105C8.36084 13.1149 9.99013 14.4966 12 14.4966C14.0098 14.4966 15.6391 13.1149 15.6391 11.4105V5.83604Z" stroke="#1F1F1F" stroke-width="1.5" stroke-linecap="round" stroke-linejoin="round"/>
<path d="M5.32812 10.6163C5.32812 12.3858 6.03104 14.0828 7.28223 15.334C8.53342 16.5852 10.2304 17.2881 11.9998 17.2881C13.7693 17.2881 15.4662 16.5852 16.7174 15.334C17.9686 14.0828 18.6715 12.3858 18.6715 10.6163" stroke="#1F1F1F" stroke-width="1.5" stroke-linecap="round" stroke-linejoin="round"/>
<path d="M12 21.25V17.2881" stroke="#1F1F1F" stroke-width="1.5" stroke-linecap="round" stroke-linejoin="round"/>
<path d="M8.36084 21.25H15.6391" stroke="#1F1F1F" stroke-width="1.5" stroke-linecap="round" stroke-linejoin="round"/>
</svg>
