<svg width="24" height="24" viewBox="0 0 24 24" fill="none" xmlns="http://www.w3.org/2000/svg">
<path d="M19.6202 2.725H4.39016C3.7633 2.71966 3.15985 2.96289 2.71192 3.40145C2.26399 3.84001 2.00807 4.4382 2.00016 5.06503V7.18502C1.99422 7.69158 2.15005 8.18679 2.44501 8.59866C2.73997 9.01052 3.15867 9.31752 3.64016 9.475V17.335C3.64081 17.8552 3.74555 18.3701 3.9482 18.8493C4.15085 19.3284 4.44732 19.7622 4.82015 20.125C5.5742 20.8677 6.59183 21.2811 7.65015 21.275H16.3602C17.4185 21.2811 18.4361 20.8677 19.1902 20.125C19.563 19.7622 19.8595 19.3284 20.0621 18.8493C20.2648 18.3701 20.3695 17.8552 20.3702 17.335V9.475C20.8417 9.31846 21.2524 9.01831 21.5447 8.6166C21.837 8.2149 21.9963 7.7318 22.0002 7.23501V5.11502C22.0042 4.80089 21.9454 4.48908 21.8274 4.19796C21.7093 3.90684 21.5343 3.64225 21.3126 3.41964C21.091 3.19704 20.8271 3.02092 20.5365 2.90164C20.2458 2.78235 19.9343 2.72231 19.6202 2.725ZM14.8302 14.605C14.7609 14.6751 14.6784 14.7307 14.5874 14.7685C14.4964 14.8062 14.3987 14.8254 14.3002 14.825C14.2014 14.8272 14.1032 14.8088 14.012 14.771C13.9207 14.7331 13.8383 14.6765 13.7702 14.605L12.7702 13.605V16.985C12.7702 17.1839 12.6912 17.3747 12.5505 17.5153C12.4099 17.656 12.2191 17.735 12.0202 17.735C11.8213 17.735 11.6305 17.656 11.4899 17.5153C11.3492 17.3747 11.2702 17.1839 11.2702 16.985V13.605L10.2702 14.605C10.128 14.7375 9.93993 14.8096 9.74563 14.8062C9.55133 14.8027 9.36595 14.724 9.22854 14.5866C9.09112 14.4492 9.01241 14.2638 9.00898 14.0695C9.00555 13.8752 9.07767 13.6872 9.21015 13.545L11.2102 11.545C11.3211 11.4327 11.4538 11.3442 11.6002 11.285C11.6959 11.2444 11.7969 11.2175 11.9002 11.205C12.0059 11.185 12.1144 11.185 12.2202 11.205C12.3269 11.2162 12.4314 11.2432 12.5302 11.285C12.6752 11.3467 12.8074 11.4349 12.9202 11.545L14.9202 13.545C14.9842 13.6204 15.0326 13.7077 15.0627 13.8018C15.0928 13.896 15.104 13.9952 15.0956 14.0937C15.0873 14.1922 15.0595 14.2881 15.014 14.3759C14.9684 14.4636 14.9059 14.5415 14.8302 14.605ZM20.5002 7.18502C20.4989 7.29882 20.475 7.41121 20.43 7.51571C20.3849 7.62022 20.3196 7.71472 20.2377 7.79379C20.1559 7.87285 20.0591 7.93488 19.9531 7.97628C19.8471 8.01769 19.734 8.03765 19.6202 8.035H4.39016C4.2759 8.03766 4.16223 8.01775 4.05565 7.97647C3.94908 7.93518 3.8517 7.87333 3.76905 7.7944C3.6864 7.71546 3.6201 7.62101 3.57397 7.51644C3.52783 7.41188 3.50275 7.29928 3.50016 7.18502V5.06503C3.50274 4.95121 3.52787 4.83903 3.57413 4.73501C3.62039 4.63099 3.68685 4.53721 3.76964 4.45907C3.85243 4.38093 3.94992 4.31999 4.05643 4.27981C4.16295 4.23963 4.27639 4.221 4.39016 4.225H19.6202C19.7335 4.22099 19.8464 4.2397 19.9524 4.27999C20.0583 4.32029 20.1551 4.38135 20.2371 4.45962C20.3191 4.53789 20.3847 4.63178 20.4298 4.73574C20.475 4.83971 20.4989 4.95168 20.5002 5.06503V7.18502Z" fill="#1F1F1F"/>
</svg>
