<svg width="24" height="24" viewBox="0 0 24 24" fill="none" xmlns="http://www.w3.org/2000/svg">
<path d="M19.2046 4.79297C18.5785 4.16587 17.8351 3.66836 17.0166 3.32892C16.1981 2.98948 15.3206 2.81476 14.4345 2.81476C13.5484 2.81476 12.6711 2.98948 11.8526 3.32892C11.0341 3.66836 10.2905 4.16587 9.66454 4.79297L7.91454 6.55298C7.86504 6.58219 7.82376 6.62347 7.79455 6.67297L4.79455 9.67297C3.52947 10.9367 2.81831 12.6513 2.81738 14.4395C2.81644 16.2276 3.52579 17.9429 4.78954 19.208C6.0533 20.4731 7.76786 21.1843 9.55602 21.1852C11.3442 21.1862 13.0595 20.4768 14.3245 19.213L19.1745 14.363C19.8081 13.7384 20.3118 12.9946 20.6565 12.1744C21.0011 11.3542 21.18 10.4739 21.1828 9.58423C21.1856 8.69456 21.0122 7.81318 20.6727 6.99084C20.3332 6.16851 19.8342 5.4215 19.2046 4.79297ZM11.2945 6.44299C11.7932 5.93964 12.4307 5.59653 13.1255 5.45758C13.8202 5.31863 14.5407 5.39012 15.1945 5.66296C15.6268 5.84228 16.0181 6.10769 16.3446 6.44299C16.5308 6.63036 16.6353 6.88382 16.6353 7.14801C16.6353 7.4122 16.5308 7.6656 16.3446 7.85297C16.1583 8.03771 15.907 8.1419 15.6446 8.14301C15.513 8.14377 15.3825 8.11855 15.2607 8.06879C15.1389 8.01902 15.028 7.94565 14.9345 7.85297C14.715 7.63365 14.4354 7.48434 14.1311 7.42383C13.8267 7.36331 13.5113 7.39434 13.2246 7.513C13.032 7.58814 12.858 7.7041 12.7146 7.85297C12.622 7.9462 12.5119 8.02033 12.3907 8.07104C12.2695 8.12176 12.1395 8.1481 12.0081 8.14856C11.8767 8.14902 11.7465 8.12358 11.625 8.07373C11.5034 8.02388 11.3928 7.95055 11.2995 7.85797C11.2063 7.76539 11.1322 7.6554 11.0815 7.53418C11.0308 7.41296 11.0045 7.28295 11.004 7.15155C11.0035 7.02016 11.029 6.88994 11.0788 6.76837C11.1287 6.6468 11.2019 6.53623 11.2945 6.44299ZM15.5345 15.873C13.9068 15.1092 12.4457 14.032 11.2346 12.703C9.92626 11.5083 8.86609 10.0675 8.11462 8.46301L9.25463 7.323C9.92751 8.96461 10.9514 10.4391 12.2546 11.643C13.4695 12.9827 14.965 14.0378 16.6346 14.733L15.5345 15.873Z" fill="#1F1F1F"/>
</svg>
