<svg width="24" height="24" viewBox="0 0 24 24" fill="none" xmlns="http://www.w3.org/2000/svg">
<path d="M21.7854 20.3499L16.5654 15.1299C17.8411 13.4836 18.4407 11.4127 18.2421 9.3395C18.0435 7.26629 17.0616 5.34691 15.4966 3.97274C13.9316 2.59857 11.9013 1.87311 9.81978 1.9443C7.73829 2.01549 5.76237 2.87797 4.29488 4.35586C2.8274 5.83375 1.97893 7.81579 1.92245 9.89773C1.86597 11.9797 2.60573 14.0047 3.99093 15.56C5.37612 17.1153 7.3024 18.0837 9.37697 18.2676C11.4515 18.4515 13.5181 17.8372 15.1554 16.55L20.3754 21.7699C20.4686 21.8625 20.5792 21.9358 20.7008 21.9857C20.8223 22.0355 20.9525 22.0609 21.0839 22.0604C21.2153 22.06 21.3453 22.0336 21.4665 21.9829C21.5877 21.9322 21.6978 21.8582 21.7904 21.7649C21.8829 21.6717 21.9563 21.5611 22.0061 21.4395C22.056 21.318 22.0814 21.1878 22.081 21.0564C22.0805 20.925 22.0542 20.7949 22.0034 20.6737C21.9527 20.5525 21.8786 20.4425 21.7854 20.3499ZM6.0754 11.0599C5.81018 11.0599 5.55578 10.9546 5.36825 10.7671C5.18071 10.5795 5.0754 10.3251 5.0754 10.0599C5.0754 9.79468 5.18071 9.54034 5.36825 9.35281C5.55578 9.16527 5.81018 9.0599 6.0754 9.0599H14.0754C14.3406 9.0599 14.595 9.16527 14.7825 9.35281C14.97 9.54034 15.0754 9.79468 15.0754 10.0599C15.0754 10.3251 14.97 10.5795 14.7825 10.7671C14.595 10.9546 14.3406 11.0599 14.0754 11.0599H6.0754Z" fill="#1F1F1F"/>
</svg>
