<svg width="24" height="24" viewBox="0 0 24 24" fill="none" xmlns="http://www.w3.org/2000/svg">
<path d="M19.8351 7.3801C20.034 7.3801 20.2247 7.30109 20.3654 7.16043C20.506 7.01978 20.5851 6.82901 20.5851 6.6301V6.28012C20.5641 5.06093 20.0608 3.89976 19.1856 3.05075C18.3103 2.20175 17.1343 1.73404 15.9151 1.75009H8.02502C6.8127 1.74999 5.64921 2.22747 4.78638 3.07907C3.92354 3.93068 3.43082 5.08786 3.41504 6.30008V17.7101C3.43339 18.9189 3.92585 20.0721 4.78625 20.9212C5.64666 21.7704 6.80625 22.2476 8.01514 22.2501H15.9051C17.1261 22.2613 18.3032 21.7948 19.1851 20.9501C19.6206 20.527 19.9684 20.0221 20.2087 19.4645C20.4489 18.9068 20.5768 18.3073 20.5851 17.7001V9.76011C20.5851 9.5612 20.506 9.37042 20.3654 9.22977C20.2247 9.08912 20.034 9.01011 19.8351 9.01011H18.9751V7.3801H19.8351ZM12.6252 5.00009C12.6252 4.80118 12.7041 4.61041 12.8448 4.46976C12.9854 4.32911 13.1762 4.25009 13.3752 4.25009C13.5741 4.25009 13.7648 4.32911 13.9054 4.46976C14.0461 4.61041 14.1252 4.80118 14.1252 5.00009V6.89011C14.1252 7.08902 14.0461 7.2798 13.9054 7.42044C13.7648 7.5611 13.5741 7.64011 13.3752 7.64011C13.1762 7.64011 12.9854 7.5611 12.8448 7.42044C12.7041 7.2798 12.6252 7.08902 12.6252 6.89011V5.00009ZM9.76514 5.00009C9.76514 4.80118 9.84409 4.61041 9.98474 4.46976C10.1254 4.32911 10.3163 4.25009 10.5152 4.25009C10.7141 4.25009 10.9048 4.32911 11.0454 4.46976C11.1861 4.61041 11.2652 4.80118 11.2652 5.00009V6.89011C11.2652 7.08902 11.1861 7.2798 11.0454 7.42044C10.9048 7.5611 10.7141 7.64011 10.5152 7.64011C10.3163 7.64011 10.1254 7.5611 9.98474 7.42044C9.84409 7.2798 9.76514 7.08902 9.76514 6.89011V5.00009ZM6.91504 5.00009C6.91504 4.80118 6.99411 4.61041 7.13476 4.46976C7.27542 4.32911 7.46613 4.25009 7.66504 4.25009C7.86395 4.25009 8.05478 4.32911 8.19543 4.46976C8.33609 4.61041 8.41504 4.80118 8.41504 5.00009V6.89011C8.41504 7.08902 8.33609 7.2798 8.19543 7.42044C8.05478 7.5611 7.86395 7.64011 7.66504 7.64011C7.46613 7.64011 7.27542 7.5611 7.13476 7.42044C6.99411 7.2798 6.91504 7.08902 6.91504 6.89011V5.00009ZM17.5052 16.7501C17.5052 17.4529 17.2259 18.127 16.7289 18.6239C16.2319 19.1209 15.558 19.4001 14.8551 19.4001H9.15503C8.80703 19.4001 8.4625 19.3316 8.14099 19.1984C7.81948 19.0652 7.52732 18.87 7.28125 18.6239C7.03517 18.3779 6.83996 18.0857 6.70679 17.7642C6.57361 17.4427 6.50513 17.0981 6.50513 16.7501V13.9001C6.50513 13.5521 6.57361 13.2075 6.70679 12.886C6.83996 12.5645 7.03517 12.2724 7.28125 12.0263C7.52732 11.7802 7.81948 11.585 8.14099 11.4518C8.4625 11.3186 8.80703 11.2501 9.15503 11.2501H14.8551C15.558 11.2501 16.2319 11.5293 16.7289 12.0263C17.2259 12.5232 17.5052 13.1973 17.5052 13.9001V16.7501Z" fill="#1F1F1F"/>
<path d="M16.0049 13.9001V16.7501C16.0023 17.0543 15.8803 17.3453 15.6652 17.5604C15.4501 17.7755 15.1591 17.8975 14.8549 17.9001H9.15483C8.84983 17.9001 8.55739 17.7789 8.34172 17.5633C8.12606 17.3476 8.00493 17.0551 8.00493 16.7501V13.9001C8.0036 13.7487 8.03233 13.5986 8.08965 13.4585C8.14697 13.3184 8.23174 13.191 8.33879 13.084C8.44585 12.9769 8.57306 12.8923 8.71318 12.8349C8.85331 12.7776 9.00344 12.7488 9.15483 12.7501H14.8549C15.1599 12.7501 15.4523 12.8713 15.668 13.087C15.8837 13.3026 16.0049 13.5951 16.0049 13.9001Z" fill="#1F1F1F"/>
</svg>
