<svg width="24" height="24" viewBox="0 0 24 24" fill="none" xmlns="http://www.w3.org/2000/svg">
<path d="M21.9689 9.46925C21.9683 9.69168 21.8983 9.90839 21.7689 10.0892C21.6366 10.2707 21.4515 10.4069 21.2389 10.4792L19.3589 11.0993C18.7686 11.2966 18.2326 11.629 17.7934 12.0699C17.3542 12.5108 17.0239 13.0482 16.8289 13.6392L16.1789 15.5092C16.1048 15.7182 15.9687 15.8996 15.7889 16.0293C15.6529 16.1272 15.4956 16.1915 15.33 16.2169C15.1644 16.2423 14.9951 16.228 14.836 16.1753C14.6769 16.1226 14.5326 16.033 14.4149 15.9137C14.2972 15.7944 14.2095 15.649 14.1589 15.4892L13.5289 13.6092C13.3246 13.0169 12.9818 12.4821 12.5289 12.0492C12.09 11.5988 11.5526 11.2565 10.9589 11.0492L9.07885 10.4192C8.86633 10.352 8.68069 10.2189 8.54883 10.0392C8.41923 9.85656 8.34961 9.63815 8.34961 9.4142C8.34961 9.19025 8.41923 8.97184 8.54883 8.7892C8.68173 8.60404 8.87128 8.46719 9.08884 8.39925L10.9589 7.76924C11.5607 7.56684 12.1057 7.22405 12.5489 6.76924C12.9994 6.32663 13.3417 5.78589 13.5489 5.18922L14.1689 3.33925C14.2275 3.12788 14.354 2.94162 14.5289 2.80922C14.7048 2.66806 14.9233 2.59056 15.1489 2.58925C15.3723 2.58386 15.592 2.64664 15.7789 2.76924C15.9689 2.88845 16.1132 3.06808 16.1889 3.27925L16.8189 5.18922C17.026 5.78589 17.3683 6.32663 17.8189 6.76924C18.2591 7.22272 18.8006 7.56542 19.3989 7.76924L21.2689 8.42921C21.4794 8.49507 21.6622 8.62867 21.7889 8.80922C21.9195 9.00359 21.9827 9.23548 21.9689 9.46925Z" fill="#1F1F1F"/>
<path d="M12.0993 16.3992C12.0988 16.6031 12.036 16.802 11.9193 16.9692C11.7984 17.1318 11.631 17.2538 11.4393 17.3192L10.0893 17.7692C9.71154 17.9035 9.3695 18.1225 9.0893 18.4092C8.80468 18.6912 8.5861 19.0327 8.4493 19.4092L7.9793 20.7492C7.91395 20.9409 7.79189 21.1083 7.6293 21.2292C7.46091 21.3475 7.26011 21.4111 7.0543 21.4111C6.84849 21.4111 6.64769 21.3475 6.4793 21.2292C6.31671 21.1083 6.19465 20.9409 6.1293 20.7492L5.68929 19.4092C5.55371 19.0321 5.33497 18.6903 5.04929 18.4092C4.76736 18.1246 4.42583 17.906 4.04929 17.7692L2.6993 17.3292C2.50623 17.2612 2.33869 17.1355 2.21931 16.9692C2.09904 16.8032 2.03271 16.6042 2.0293 16.3992C2.03271 16.1942 2.09904 15.9952 2.21931 15.8292C2.34131 15.6613 2.51256 15.5355 2.7093 15.4692L4.04929 15.0292C4.42643 14.8936 4.76822 14.6749 5.04929 14.3892C5.33215 14.1058 5.55046 13.7647 5.68929 13.3892L6.1393 12.0692C6.19924 11.88 6.31411 11.7129 6.46931 11.5892C6.63155 11.4656 6.82771 11.3945 7.03147 11.3856C7.23523 11.3767 7.43686 11.4303 7.60931 11.5392C7.78043 11.6583 7.9126 11.8253 7.9893 12.0192L8.43929 13.3892C8.57813 13.7647 8.79645 14.1058 9.07931 14.3892C9.35972 14.6757 9.7017 14.8946 10.0793 15.0292L11.4193 15.4992C11.6109 15.5595 11.7766 15.6828 11.8893 15.8492C12.0164 16.0053 12.09 16.1981 12.0993 16.3992Z" fill="#1F1F1F"/>
</svg>
