<svg width="24" height="24" viewBox="0 0 24 24" fill="none" xmlns="http://www.w3.org/2000/svg">
<path d="M21.9852 12C21.9852 13.2315 21.4966 14.4127 20.6268 15.2845C19.7569 16.1562 18.5767 16.6473 17.3452 16.6499H6.65518C5.58714 16.6524 4.55082 16.2871 3.7204 15.6154C2.88998 14.9437 2.31609 14.0067 2.09519 12.9617C1.87428 11.9168 2.01983 10.8276 2.50736 9.87737C2.99489 8.92709 3.7947 8.17362 4.77234 7.74358C5.74998 7.31353 6.84584 7.23314 7.87577 7.51592C8.90569 7.79869 9.8069 8.42738 10.4279 9.29634C11.0489 10.1653 11.3518 11.2216 11.2857 12.2876C11.2197 13.3536 10.7887 14.3643 10.0652 15.1499H13.9452C13.4357 14.5942 13.0692 13.9227 12.8776 13.1936C12.686 12.4644 12.6749 11.6995 12.8454 10.965C13.0158 10.2306 13.3627 9.5488 13.8559 8.97859C14.3492 8.40838 14.974 7.96696 15.6762 7.69252C16.3784 7.41808 17.137 7.31887 17.8861 7.40352C18.6353 7.48817 19.3526 7.7541 19.9759 8.1783C20.5991 8.6025 21.1097 9.1722 21.4633 9.83809C21.8169 10.504 22.0029 11.246 22.0052 12H21.9852Z" fill="#1F1F1F"/>
</svg>
