<svg width="24" height="24" viewBox="0 0 24 24" fill="none" xmlns="http://www.w3.org/2000/svg">
<path d="M21.2499 12H8.89453" stroke="#1F1F1F" stroke-width="1.5" stroke-miterlimit="10" stroke-linecap="round"/>
<path d="M4.53393 12H2.75" stroke="#1F1F1F" stroke-width="1.5" stroke-miterlimit="10" stroke-linecap="round"/>
<path d="M21.2497 18.6071H15.5015" stroke="#1F1F1F" stroke-width="1.5" stroke-miterlimit="10" stroke-linecap="round"/>
<path d="M11.1411 18.6071H2.75" stroke="#1F1F1F" stroke-width="1.5" stroke-miterlimit="10" stroke-linecap="round"/>
<path d="M21.2498 5.39285H18.1445" stroke="#1F1F1F" stroke-width="1.5" stroke-miterlimit="10" stroke-linecap="round"/>
<path d="M13.7839 5.39285H2.75" stroke="#1F1F1F" stroke-width="1.5" stroke-miterlimit="10" stroke-linecap="round"/>
<path d="M15.9641 7.57323C17.1683 7.57323 18.1444 6.59705 18.1444 5.39288C18.1444 4.1887 17.1683 3.21252 15.9641 3.21252C14.7599 3.21252 13.7837 4.1887 13.7837 5.39288C13.7837 6.59705 14.7599 7.57323 15.9641 7.57323Z" stroke="#1F1F1F" stroke-width="1.5" stroke-miterlimit="10" stroke-linecap="round"/>
<path d="M6.71404 14.1804C7.91822 14.1804 8.8944 13.2042 8.8944 12.0001C8.8944 10.7959 7.91822 9.8197 6.71404 9.8197C5.50987 9.8197 4.53369 10.7959 4.53369 12.0001C4.53369 13.2042 5.50987 14.1804 6.71404 14.1804Z" stroke="#1F1F1F" stroke-width="1.5" stroke-miterlimit="10" stroke-linecap="round"/>
<path d="M13.3215 20.7875C14.5256 20.7875 15.5018 19.8113 15.5018 18.6071C15.5018 17.4029 14.5256 16.4268 13.3215 16.4268C12.1173 16.4268 11.1411 17.4029 11.1411 18.6071C11.1411 19.8113 12.1173 20.7875 13.3215 20.7875Z" stroke="#1F1F1F" stroke-width="1.5" stroke-miterlimit="10" stroke-linecap="round"/>
</svg>
