<svg width="24" height="24" viewBox="0 0 24 24" fill="none" xmlns="http://www.w3.org/2000/svg">
<path d="M5 18.64L10.7633 12.8767C10.925 12.713 11.1176 12.5831 11.3299 12.4944C11.5422 12.4057 11.7699 12.36 12 12.36C12.2301 12.36 12.4578 12.4057 12.6701 12.4944C12.8824 12.5831 13.075 12.713 13.2367 12.8767L19 18.64" stroke="#1F1F1F" stroke-width="1.5" stroke-linecap="round" stroke-linejoin="round"/>
<path d="M5 11.64L10.7633 5.87669C10.925 5.71302 11.1176 5.58307 11.3299 5.49438C11.5422 5.40569 11.7699 5.36002 12 5.36002C12.2301 5.36002 12.4578 5.40569 12.6701 5.49438C12.8824 5.58307 13.075 5.71302 13.2367 5.87669L19 11.64" stroke="#1F1F1F" stroke-width="1.5" stroke-linecap="round" stroke-linejoin="round"/>
</svg>
