<svg width="24" height="24" viewBox="0 0 24 24" fill="none" xmlns="http://www.w3.org/2000/svg">
<path d="M12 3.25C6.41 3.25 2 6.06999 2 9.70999V14.29C2 17.91 6.39 20.75 12 20.75C17.61 20.75 22 17.91 22 14.29V9.72C22 6.09 17.57 3.25 12 3.25ZM12 6.12C15.69 6.12 18.47 7.67 18.47 9.72C18.4526 10.3336 18.2066 10.9186 17.78 11.36C16.78 12.54 14.52 13.29 12 13.29C9.48 13.29 7.24994 12.54 6.18994 11.29C5.77546 10.8553 5.53992 10.2805 5.53003 9.67999C5.49003 7.66999 8.27 6.12 12 6.12ZM20.5 14.29C20.5 16.98 16.61 19.29 12 19.29C7.39 19.29 3.5 17.02 3.5 14.29V13.14C5.28 15.01 8.5 16.14 12 16.14C15.5 16.14 18.73 14.96 20.5 13.14V14.29Z" fill="#1F1F1F"/>
<path d="M16.9303 9.70998C16.9166 9.95488 16.8133 10.1862 16.6402 10.36C16.0002 11.09 14.3102 11.81 11.9602 11.81C9.6102 11.81 7.96024 11.09 7.25024 10.33C7.08994 10.1666 6.99709 9.9488 6.99023 9.72C6.99023 8.72 9.11023 7.62 11.9902 7.62C14.8702 7.62 16.9203 8.71998 16.9303 9.70998Z" fill="#1F1F1F"/>
</svg>
