<svg width="24" height="24" viewBox="0 0 24 24" fill="none" xmlns="http://www.w3.org/2000/svg">
<path d="M2.75 6.50582V17.4942C2.75492 17.7638 2.83596 18.0266 2.98379 18.2522C3.13162 18.4778 3.3402 18.6571 3.58549 18.7692C3.83078 18.8814 4.10278 18.922 4.37012 18.8862C4.63747 18.8505 4.88926 18.7399 5.09647 18.5673L11.5063 13.0874C11.6634 12.9531 11.7895 12.7863 11.876 12.5986C11.9625 12.4109 12.0072 12.2067 12.0072 12C12.0072 11.7933 11.9625 11.5891 11.876 11.4014C11.7895 11.2137 11.6634 11.0469 11.5063 10.9126L5.09647 5.43274C4.88926 5.26007 4.63747 5.14949 4.37012 5.11375C4.10278 5.07801 3.83078 5.11857 3.58549 5.23074C3.3402 5.34292 3.13162 5.52214 2.98379 5.74775C2.83596 5.97335 2.75492 6.23614 2.75 6.50582Z" stroke="#1F1F1F" stroke-width="1.5" stroke-linecap="round" stroke-linejoin="round"/>
<path d="M12.0073 6.50582V17.4942C12.0122 17.7638 12.0933 18.0266 12.2411 18.2522C12.3889 18.4778 12.5975 18.6571 12.8428 18.7692C13.0881 18.8814 13.3601 18.922 13.6274 18.8862C13.8948 18.8505 14.1466 18.7399 14.3538 18.5673L20.7493 13.0874C20.9064 12.9531 21.0325 12.7863 21.119 12.5986C21.2054 12.4109 21.2502 12.2067 21.2502 12C21.2502 11.7933 21.2054 11.5891 21.119 11.4014C21.0325 11.2137 20.9064 11.0469 20.7493 10.9126L14.3538 5.43274C14.1466 5.26007 13.8948 5.14949 13.6274 5.11375C13.3601 5.07801 13.0881 5.11857 12.8428 5.23074C12.5975 5.34292 12.3889 5.52214 12.2411 5.74775C12.0933 5.97335 12.0122 6.23614 12.0073 6.50582Z" stroke="#1F1F1F" stroke-width="1.5" stroke-linecap="round" stroke-linejoin="round"/>
</svg>
