<svg width="24" height="24" viewBox="0 0 24 24" fill="none" xmlns="http://www.w3.org/2000/svg">
<path d="M20 8.26593H12C11.8011 8.26593 11.6103 8.18692 11.4697 8.04626C11.329 7.90561 11.25 7.71484 11.25 7.51593C11.25 7.31702 11.329 7.12625 11.4697 6.9856C11.6103 6.84494 11.8011 6.76593 12 6.76593H20C20.1989 6.76593 20.3897 6.84494 20.5303 6.9856C20.671 7.12625 20.75 7.31702 20.75 7.51593C20.75 7.71484 20.671 7.90561 20.5303 8.04626C20.3897 8.18692 20.1989 8.26593 20 8.26593Z" fill="#1F1F1F"/>
<path d="M20 14.2659H4C3.80109 14.2659 3.61032 14.1869 3.46967 14.0462C3.32901 13.9056 3.25 13.7148 3.25 13.5159C3.25 13.317 3.32901 13.1262 3.46967 12.9856C3.61032 12.8449 3.80109 12.7659 4 12.7659H20C20.1989 12.7659 20.3897 12.8449 20.5303 12.9856C20.671 13.1262 20.75 13.317 20.75 13.5159C20.75 13.7148 20.671 13.9056 20.5303 14.0462C20.3897 14.1869 20.1989 14.2659 20 14.2659Z" fill="#1F1F1F"/>
<path d="M20 20.2659H4C3.80109 20.2659 3.61032 20.1869 3.46967 20.0462C3.32901 19.9056 3.25 19.7148 3.25 19.5159C3.25 19.317 3.32901 19.1262 3.46967 18.9856C3.61032 18.8449 3.80109 18.7659 4 18.7659H20C20.1989 18.7659 20.3897 18.8449 20.5303 18.9856C20.671 19.1262 20.75 19.317 20.75 19.5159C20.75 19.7148 20.671 19.9056 20.5303 20.0462C20.3897 20.1869 20.1989 20.2659 20 20.2659Z" fill="#1F1F1F"/>
<path d="M9.23001 7.28593C9.23951 7.4895 9.19828 7.69224 9.11002 7.87593C9.02521 8.05942 8.89844 8.22042 8.73999 8.34593L5.32999 11.0159C5.14029 11.1655 4.91077 11.256 4.67001 11.2759H4.54001C4.3424 11.2783 4.14705 11.2337 3.97 11.1459C3.75719 11.0394 3.57744 10.8769 3.45001 10.6759C3.32179 10.4684 3.25262 10.2298 3.25 9.98595V5.01594C3.2533 4.78428 3.31798 4.55766 3.43744 4.35915C3.5569 4.16063 3.72685 3.99734 3.92999 3.88594C4.13532 3.77537 4.36714 3.72348 4.60001 3.73595C4.83109 3.74907 5.05492 3.82137 5.25 3.94594L8.66 6.22594C8.83071 6.33674 8.97152 6.48785 9.07001 6.66594C9.17805 6.85449 9.23332 7.06865 9.23001 7.28593Z" fill="#1F1F1F"/>
</svg>
