<svg width="24" height="24" viewBox="0 0 24 24" fill="none" xmlns="http://www.w3.org/2000/svg">
<path d="M3.76467 11.48C3.49946 11.48 3.2451 11.3746 3.05757 11.1871C2.87003 10.9996 2.76467 10.7452 2.76467 10.48V8.90001C2.76201 8.22277 3.0278 7.57208 3.50386 7.09039C3.97992 6.60871 4.62745 6.33529 5.30467 6.33001H18.6647C19.0026 6.32868 19.3374 6.39426 19.6498 6.52294C19.9622 6.65163 20.246 6.84088 20.4849 7.07979C20.7238 7.3187 20.9131 7.60254 21.0418 7.91495C21.1705 8.22735 21.236 8.56214 21.2347 8.90001V10.45C21.2347 10.7152 21.1294 10.9696 20.9418 11.1571C20.7543 11.3446 20.4999 11.45 20.2347 11.45" stroke="#1F1F1F" stroke-width="1.5" stroke-linecap="round" stroke-linejoin="round"/>
<path d="M3.76465 11.48L4.12465 18.76C4.17437 19.3047 4.42522 19.8114 4.82828 20.1812C5.23133 20.5509 5.75768 20.7573 6.30465 20.76H17.6647C18.2117 20.7573 18.738 20.5509 19.1411 20.1812C19.5441 19.8114 19.795 19.3047 19.8447 18.76L20.2047 11.48" stroke="#1F1F1F" stroke-width="1.5" stroke-linecap="round" stroke-linejoin="round"/>
<path d="M15.0649 6.33001V4.27001C15.067 4.13434 15.0415 3.99966 14.99 3.87416C14.9384 3.74866 14.8618 3.63497 14.7649 3.54001C14.6711 3.44432 14.559 3.36845 14.4354 3.31691C14.3117 3.26538 14.1789 3.23922 14.0449 3.24001H9.92491C9.79092 3.23922 9.65814 3.26538 9.53445 3.31691C9.41077 3.36845 9.2987 3.44432 9.20491 3.54001C9.108 3.63497 9.03142 3.74866 8.97984 3.87416C8.92827 3.99966 8.90277 4.13434 8.90491 4.27001V6.33001" stroke="#1F1F1F" stroke-width="1.5" stroke-linecap="round" stroke-linejoin="round"/>
<path d="M16.4246 12.3464V14.313C16.4246 14.4433 16.3728 14.5684 16.2806 14.6606C16.1884 14.7528 16.0634 14.8046 15.933 14.8046H13.4748V17.2627C13.4748 17.3931 13.423 17.5182 13.3308 17.6104C13.2386 17.7026 13.1136 17.7544 12.9832 17.7544H11.0166C10.8863 17.7544 10.7612 17.7026 10.669 17.6104C10.5768 17.5182 10.525 17.3931 10.525 17.2627V14.8046H8.06683C7.93644 14.8046 7.81139 14.7528 7.71919 14.6606C7.62699 14.5684 7.5752 14.4433 7.5752 14.313V12.3464C7.5752 12.216 7.62699 12.091 7.71919 11.9988C7.81139 11.9066 7.93644 11.8548 8.06683 11.8548H10.525V9.39663C10.525 9.26624 10.5768 9.14119 10.669 9.04899C10.7612 8.9568 10.8863 8.905 11.0166 8.905H12.9832C13.1136 8.905 13.2386 8.9568 13.3308 9.04899C13.423 9.14119 13.4748 9.26624 13.4748 9.39663V11.8548H15.933C16.0634 11.8548 16.1884 11.9066 16.2806 11.9988C16.3728 12.091 16.4246 12.216 16.4246 12.3464Z" stroke="#1F1F1F" stroke-width="1.5" stroke-linecap="round" stroke-linejoin="round"/>
</svg>
