<svg width="24" height="24" viewBox="0 0 24 24" fill="none" xmlns="http://www.w3.org/2000/svg">
<path d="M3.70117 15.7344V8.26563C3.70216 7.95352 3.78474 7.6471 3.94071 7.37676C4.09667 7.10642 4.32061 6.88155 4.59031 6.72446L11.1107 2.99009C11.3806 2.83285 11.6874 2.75 11.9998 2.75C12.3122 2.75 12.619 2.83285 12.8889 2.99009L19.3618 6.72446C19.6404 6.87549 19.8738 7.09773 20.0384 7.36849C20.2029 7.63926 20.2926 7.94884 20.2984 8.26563V15.7344C20.2974 16.0465 20.2148 16.3529 20.0589 16.6232C19.9029 16.8936 19.679 17.1185 19.4093 17.2755L12.8889 21.0099C12.619 21.1672 12.3122 21.25 11.9998 21.25C11.6874 21.25 11.3806 21.1672 11.1107 21.0099L4.63773 17.2755C4.3592 17.1245 4.12574 16.9023 3.9612 16.6315C3.79666 16.3607 3.70693 16.0512 3.70117 15.7344Z" stroke="#1F1F1F" stroke-width="1.5" stroke-linecap="round" stroke-linejoin="round"/>
<path d="M11.9946 6.73912V13.0585" stroke="#1F1F1F" stroke-width="1.5" stroke-linecap="round" stroke-linejoin="round"/>
<path d="M12.0436 16.5526H12.0347" stroke="#1F1F1F" stroke-width="2" stroke-linecap="round" stroke-linejoin="round"/>
</svg>
