<svg width="24" height="24" viewBox="0 0 24 24" fill="none" xmlns="http://www.w3.org/2000/svg">
<path d="M21.84 8.56132L21.75 8.20132C21.6299 7.85198 21.4723 7.5167 21.28 7.20132C20.8409 6.46816 20.2122 5.86705 19.46 5.46133L14.21 2.62132C13.5158 2.25187 12.7414 2.05865 11.955 2.05865C11.1686 2.05865 10.3942 2.25187 9.7 2.62132L4.45 5.46133C3.69785 5.86705 3.0691 6.46816 2.63 7.20132C2.43476 7.51373 2.28017 7.84978 2.17 8.20132C2.17 8.20132 2.17 8.29132 2.17 8.34132C2.05824 8.7418 2.00106 9.15555 2 9.57133V17.1913C2.00264 18.4503 2.50394 19.6569 3.39417 20.5472C4.28439 21.4374 5.49103 21.9387 6.75 21.9413H17.25C18.5098 21.9413 19.718 21.4409 20.6088 20.5501C21.4996 19.6593 22 18.4511 22 17.1913V9.56132C21.9822 9.22327 21.9285 8.88807 21.84 8.56132ZM13.58 11.9113C13.0843 12.1918 12.5245 12.3392 11.955 12.3392C11.3855 12.3392 10.8257 12.1918 10.33 11.9113L3.8 8.13133C3.83063 8.05513 3.86742 7.98155 3.91 7.91133C4.21181 7.40927 4.6437 6.9981 5.16 6.72133L10.41 3.88133C10.8824 3.62395 11.412 3.48982 11.95 3.49133C12.4911 3.48985 13.024 3.62393 13.5 3.88133L18.75 6.72133C19.2635 6.99832 19.6921 7.40966 19.99 7.91133C20.0493 8.01148 20.1027 8.11498 20.15 8.22133L13.58 11.9113Z" fill="#1F1F1F"/>
</svg>
