<svg width="24" height="24" viewBox="0 0 24 24" fill="none" xmlns="http://www.w3.org/2000/svg">
<path d="M21.2011 7.75988C20.9456 7.22734 20.5386 6.78207 20.0311 6.47988L13.5711 2.47988C13.0965 2.18587 12.5493 2.03009 11.9911 2.03009C11.4328 2.03009 10.8857 2.18587 10.4111 2.47988L3.94112 6.47988C3.4465 6.79277 3.05422 7.24347 2.81258 7.77652C2.57093 8.30956 2.49048 8.90168 2.58113 9.47988L4.25111 19.4799C4.37055 20.1724 4.72932 20.801 5.26479 21.256C5.80025 21.7111 6.47842 21.9637 7.18111 21.9699H16.7911C17.5022 21.9671 18.1906 21.7199 18.7411 21.2699C19.2743 20.8092 19.6283 20.1755 19.7411 19.4799L21.4111 9.47988C21.5118 8.89838 21.4388 8.30008 21.2011 7.75988ZM15.8411 13.9899H13.0011V16.8099C13.0011 17.0751 12.8957 17.3295 12.7082 17.517C12.5206 17.7045 12.2663 17.8099 12.0011 17.8099C11.7359 17.8099 11.4815 17.7045 11.294 17.517C11.1065 17.3295 11.0011 17.0751 11.0011 16.8099V13.9899H8.20113C7.93591 13.9899 7.68157 13.8845 7.49403 13.697C7.3065 13.5095 7.20113 13.2551 7.20113 12.9899C7.20113 12.7247 7.3065 12.4703 7.49403 12.2828C7.68157 12.0953 7.93591 11.9899 8.20113 11.9899H11.0211V9.14987C11.0211 8.88465 11.1265 8.63031 11.314 8.44277C11.5015 8.25524 11.7559 8.14987 12.0211 8.14987C12.2863 8.14987 12.5407 8.25524 12.7282 8.44277C12.9157 8.63031 13.0211 8.88465 13.0211 9.14987V11.9899H15.8611C16.1263 11.9899 16.3807 12.0953 16.5682 12.2828C16.7558 12.4703 16.8611 12.7247 16.8611 12.9899C16.8611 13.2551 16.7558 13.5095 16.5682 13.697C16.3807 13.8845 16.1263 13.9899 15.8611 13.9899H15.8411Z" fill="#1F1F1F"/>
</svg>
