<svg width="24" height="24" viewBox="0 0 24 24" fill="none" xmlns="http://www.w3.org/2000/svg">
<path d="M21.9695 10.3933V15.2636C21.9669 17.0494 21.2559 18.7613 19.9926 20.0241C18.7292 21.2869 17.0165 21.9974 15.2298 22.0001H8.73971C6.95304 21.9974 5.2403 21.2869 3.97693 20.0241C2.71356 18.7613 2.00264 17.0494 2 15.2636V8.77656C2.00264 6.99074 2.71356 5.27881 3.97693 4.01604C5.2403 2.75326 6.95304 2.04268 8.73971 2.04004H13.6023C13.8009 2.04004 13.9914 2.11889 14.1318 2.25927C14.2722 2.39964 14.3511 2.59003 14.3511 2.78854C14.3511 2.98706 14.2722 3.17743 14.1318 3.3178C13.9914 3.45817 13.8009 3.53704 13.6023 3.53704H8.73971C7.34944 3.53704 6.01612 4.08906 5.03306 5.07166C4.04999 6.05426 3.49771 7.38696 3.49771 8.77656V11.2715H5.9939C6.35358 11.2698 6.71001 11.3394 7.04253 11.4765C7.37505 11.6136 7.67702 11.8153 7.93091 12.0699C8.44248 12.5895 8.73244 13.2871 8.73971 14.0161C8.73971 14.3469 8.87118 14.6642 9.10524 14.8982C9.3393 15.1321 9.65679 15.2636 9.9878 15.2636H13.9817C14.1455 15.2642 14.3077 15.2318 14.4587 15.1684C14.6096 15.1049 14.7462 15.0117 14.8603 14.8943C15.094 14.6613 15.2267 14.3459 15.2298 14.0161C15.2271 13.6549 15.2963 13.2968 15.4334 12.9626C15.5704 12.6285 15.7726 12.3248 16.0281 12.0695C16.2836 11.8141 16.5873 11.612 16.9217 11.475C17.256 11.3381 17.6143 11.2689 17.9756 11.2715H20.4718V10.3933C20.4718 10.1948 20.5507 10.0044 20.6911 9.86405C20.8316 9.72368 21.022 9.64482 21.2206 9.64482C21.4193 9.64482 21.6097 9.72368 21.7501 9.86405C21.8906 10.0044 21.9695 10.1948 21.9695 10.3933Z" fill="#1F1F1F"/>
<path d="M18.9239 8.52701C18.7271 8.52438 18.5392 8.44437 18.4009 8.30428C18.2626 8.16419 18.1851 7.9753 18.1851 7.7785V2.78849C18.1838 2.69067 18.2019 2.59354 18.2384 2.50279C18.275 2.41203 18.3292 2.32944 18.3979 2.2598C18.4667 2.19017 18.5486 2.13487 18.6389 2.09714C18.7292 2.0594 18.8261 2.03998 18.9239 2.03998C19.0231 2.03866 19.1216 2.05704 19.2136 2.09406C19.3056 2.13108 19.3893 2.18601 19.4599 2.25565C19.5305 2.32528 19.5866 2.40824 19.6248 2.49971C19.6631 2.59118 19.6828 2.68935 19.6828 2.78849V7.7785C19.6802 7.97793 19.5991 8.1683 19.457 8.30839C19.315 8.44848 19.1235 8.52702 18.9239 8.52701Z" fill="#1F1F1F"/>
<path d="M21.7996 4.35529L19.8026 2.35928C19.6951 2.24095 19.5618 2.14877 19.4132 2.08982C19.2673 2.03049 19.1114 1.99999 18.9539 2C18.8031 2.0018 18.654 2.03228 18.5146 2.08982C18.37 2.15614 18.2382 2.24735 18.1252 2.35928L16.1282 4.35529C15.988 4.49563 15.9092 4.68588 15.9092 4.88423C15.9092 5.08258 15.988 5.27283 16.1282 5.41317C16.1971 5.48379 16.2793 5.53991 16.3702 5.57823C16.4611 5.61655 16.5588 5.6363 16.6574 5.6363C16.7561 5.6363 16.8537 5.61655 16.9446 5.57823C17.0355 5.53991 17.1178 5.48379 17.1866 5.41317L18.1851 4.41517L18.9339 3.66666L20.6913 5.42316C20.7601 5.49359 20.8424 5.54936 20.9334 5.58709C21.0243 5.62483 21.122 5.64375 21.2204 5.64272C21.3188 5.64319 21.4163 5.624 21.5072 5.5863C21.5981 5.5486 21.6805 5.49313 21.7496 5.42316C21.8239 5.35687 21.8843 5.27642 21.9271 5.18654C21.9699 5.09666 21.9943 4.99914 21.999 4.8997C22.0036 4.80026 21.9884 4.70089 21.9541 4.60741C21.9199 4.51393 21.8673 4.42822 21.7996 4.35529Z" fill="#1F1F1F"/>
</svg>
