<svg width="24" height="24" viewBox="0 0 24 24" fill="none" xmlns="http://www.w3.org/2000/svg">
<path d="M21.0034 15.5784C20.7814 15.0201 20.489 14.4925 20.1334 14.0084C19.6797 13.4689 19.3731 12.8212 19.2434 12.1283C19.2434 9.23835 19.2434 8.25837 17.6634 6.36837C17.1398 5.75093 16.4925 5.25015 15.7634 4.89837L15.0334 4.54836C14.993 4.5229 14.9588 4.48873 14.9334 4.44835C14.9088 4.41964 14.8916 4.38529 14.8834 4.34835C14.7773 3.66202 14.4172 3.04059 13.8746 2.6072C13.3319 2.17381 12.6462 1.96008 11.9534 2.00835C11.283 1.98134 10.6255 2.19859 10.1032 2.61977C9.5808 3.04095 9.22911 3.63743 9.11338 4.29836C9.10241 4.35025 9.0783 4.39843 9.04338 4.43834C9.01838 4.47015 8.9879 4.49726 8.95338 4.51836L8.17338 4.89837C7.43711 5.24765 6.78543 5.75259 6.26338 6.37835C4.69338 8.25835 4.69337 9.23835 4.69337 12.1283C4.57695 12.7791 4.2945 13.3888 3.87336 13.8984C3.50535 14.3943 3.20909 14.9397 2.99336 15.5184C2.85891 15.9081 2.81251 16.3227 2.85746 16.7325C2.90242 17.1423 3.03763 17.5371 3.25337 17.8884C3.48153 18.1791 3.77807 18.4088 4.11656 18.5571C4.45505 18.7054 4.82498 18.7677 5.19337 18.7384H8.01338C8.05608 19.006 8.12992 19.2678 8.23338 19.5184C8.43111 20.0151 8.73091 20.4648 9.11338 20.8383C9.48287 21.2186 9.92956 21.5153 10.4234 21.7084C10.8839 21.8964 11.376 21.9948 11.8734 21.9983H12.0334C13.0793 21.9913 14.0808 21.5749 14.8234 20.8383C15.1972 20.4635 15.4929 20.0183 15.6934 19.5283C15.7943 19.2727 15.8713 19.0082 15.9234 18.7384H18.8634C19.2095 18.7356 19.5509 18.6571 19.8634 18.5084C20.2146 18.331 20.5168 18.07 20.7434 17.7483C20.9694 17.426 21.1073 17.0503 21.1434 16.6583C21.188 16.2923 21.1398 15.9209 21.0034 15.5784ZM11.9334 15.7483C11.7345 15.7483 11.5437 15.6693 11.4031 15.5287C11.2624 15.388 11.1834 15.1973 11.1834 14.9983C11.1834 14.7994 11.2624 14.6087 11.4031 14.468C11.5437 14.3274 11.7345 14.2483 11.9334 14.2483C12.1323 14.2483 12.3231 14.3274 12.4637 14.468C12.6044 14.6087 12.6834 14.7994 12.6834 14.9983C12.6834 15.1973 12.6044 15.388 12.4637 15.5287C12.3231 15.6693 12.1323 15.7483 11.9334 15.7483ZM14.0934 11.2284C13.9777 11.5 13.8075 11.7451 13.5934 11.9484C13.3708 12.145 13.1129 12.2977 12.8334 12.3984C12.7996 12.4168 12.7718 12.4445 12.7534 12.4784C12.7209 12.5138 12.703 12.5603 12.7034 12.6084V12.9584C12.7034 13.1573 12.6244 13.348 12.4837 13.4887C12.3431 13.6293 12.1523 13.7084 11.9534 13.7084C11.7545 13.7084 11.5637 13.6293 11.4231 13.4887C11.2824 13.348 11.2034 13.1573 11.2034 12.9584V12.5784C11.2095 12.2208 11.3208 11.873 11.5234 11.5784C11.7273 11.2995 12.0091 11.0873 12.3334 10.9683C12.421 10.936 12.5022 10.8887 12.5734 10.8284C12.6289 10.7684 12.676 10.7011 12.7134 10.6283C12.7333 10.5462 12.7333 10.4605 12.7134 10.3783C12.7113 10.2927 12.6944 10.2082 12.6634 10.1283C12.6007 10.0361 12.5229 9.95496 12.4334 9.88836C12.3312 9.81144 12.2104 9.7631 12.0834 9.74834C11.8932 9.70774 11.6947 9.73611 11.5234 9.82836C11.355 9.90993 11.2206 10.0479 11.1434 10.2183C11.0612 10.4 10.9102 10.5416 10.7236 10.6119C10.537 10.6823 10.3301 10.6756 10.1484 10.5933C9.96668 10.5111 9.82513 10.3601 9.7548 10.1735C9.68448 9.98691 9.69114 9.78002 9.77336 9.59835C9.99365 9.12672 10.3625 8.74032 10.8234 8.49834C11.2868 8.25494 11.8185 8.17397 12.3334 8.26836C12.6915 8.32285 13.033 8.45603 13.3334 8.65835C13.6252 8.87168 13.8646 9.14869 14.0334 9.46834C14.1697 9.74179 14.2415 10.0428 14.2434 10.3483C14.2573 10.6491 14.2062 10.9492 14.0934 11.2284Z" fill="#1F1F1F"/>
</svg>
