<svg width="24" height="24" viewBox="0 0 24 24" fill="none" xmlns="http://www.w3.org/2000/svg">
<path d="M20.0646 9.33138V14.6393C20.0646 18.696 16.438 22 12.0001 22C7.56214 22 3.93555 18.696 3.93555 14.6393V9.33138C3.93555 5.48974 7.16136 2.33236 11.267 2V8.08016C10.7667 8.23841 10.33 8.55226 10.0205 8.97601C9.71105 9.39976 9.54496 9.91126 9.54649 10.436V11.8338C9.54649 12.482 9.80397 13.1035 10.2623 13.5618C10.7206 14.0201 11.3422 14.2776 11.9903 14.2776C12.6384 14.2776 13.26 14.0201 13.7183 13.5618C14.1766 13.1035 14.4341 12.482 14.4341 11.8338V10.436C14.4349 9.91537 14.2707 9.4079 13.9652 8.98641C13.6596 8.56492 13.2283 8.25107 12.7332 8.08993V2C16.829 2.30303 20.0646 5.48974 20.0646 9.33138Z" fill="#1F1F1F"/>
<path d="M13 10.289V11.719C13 11.9842 12.8947 12.2386 12.7072 12.4261C12.5196 12.6136 12.2652 12.719 12 12.719C11.7348 12.719 11.4804 12.6136 11.2929 12.4261C11.1054 12.2386 11 11.9842 11 11.719V10.289C11 10.0238 11.1054 9.76943 11.2929 9.58189C11.4804 9.39436 11.7348 9.289 12 9.289C12.2652 9.289 12.5196 9.39436 12.7072 9.58189C12.8947 9.76943 13 10.0238 13 10.289Z" fill="#1F1F1F"/>
</svg>
