<svg width="24" height="24" viewBox="0 0 24 24" fill="none" xmlns="http://www.w3.org/2000/svg">
<path d="M20.8173 5.69498C20.038 4.92167 18.9853 4.48689 17.8874 4.48499H8.7074C8.16413 4.48474 7.62628 4.59247 7.125 4.80191C6.62373 5.01135 6.16897 5.31832 5.78736 5.70499L5.7074 5.78497L2.62744 9.99497C2.23858 10.5988 2.03174 11.3018 2.03174 12.02C2.03174 12.7382 2.23858 13.4412 2.62744 14.045L5.62744 18.215L5.7074 18.305C6.08951 18.6903 6.54446 18.9957 7.04578 19.2035C7.5471 19.4112 8.08479 19.5171 8.62744 19.515H17.8273C18.9252 19.5131 19.9781 19.0783 20.7575 18.305C21.1418 17.9222 21.4466 17.4671 21.6542 16.9659C21.8619 16.4648 21.9684 15.9275 21.9674 15.385V8.61499C21.9854 7.52786 21.5718 6.47788 20.8173 5.69498ZM16.9473 13.905C17.0884 14.0448 17.1845 14.2236 17.2236 14.4183C17.2627 14.6131 17.2429 14.815 17.1667 14.9984C17.0905 15.1819 16.9615 15.3385 16.796 15.4483C16.6305 15.5581 16.436 15.6161 16.2374 15.615C16.1051 15.6144 15.9741 15.5876 15.8522 15.5361C15.7304 15.4846 15.6199 15.4095 15.5273 15.315L13.6274 13.415L11.7374 15.305C11.5504 15.4933 11.2962 15.5996 11.0308 15.6005C10.7655 15.6015 10.5106 15.4969 10.3223 15.31C10.134 15.123 10.0277 14.8689 10.0268 14.6035C10.0259 14.3382 10.1304 14.0833 10.3173 13.895L12.2174 12.005L10.3173 10.105C10.1311 9.91762 10.0266 9.66415 10.0266 9.39996C10.0266 9.13578 10.1311 8.88234 10.3173 8.69498C10.4103 8.60125 10.5209 8.52684 10.6428 8.47607C10.7646 8.42531 10.8953 8.39917 11.0273 8.39917C11.1593 8.39917 11.2901 8.42531 11.4119 8.47607C11.5338 8.52684 11.6444 8.60125 11.7374 8.69498L13.6274 10.585L15.5273 8.68497C15.6203 8.59124 15.7309 8.51686 15.8527 8.4661C15.9746 8.41533 16.1054 8.38919 16.2374 8.38919C16.3694 8.38919 16.5 8.41533 16.6219 8.4661C16.7438 8.51686 16.8544 8.59124 16.9473 8.68497C17.1336 8.87233 17.2381 9.1258 17.2381 9.38998C17.2381 9.65417 17.1336 9.90761 16.9473 10.095L15.0473 12.005L16.9473 13.905Z" fill="#1F1F1F"/>
</svg>
