<svg width="24" height="24" viewBox="0 0 24 24" fill="none" xmlns="http://www.w3.org/2000/svg">
<path d="M20.8402 8.80365V11.0137C20.8402 11.2126 20.7612 11.4034 20.6205 11.544C20.4799 11.6847 20.2891 11.7637 20.0902 11.7637C19.8913 11.7637 19.7005 11.6847 19.5599 11.544C19.4192 11.4034 19.3402 11.2126 19.3402 11.0137V8.80365C19.3466 8.54428 19.3024 8.28614 19.2102 8.04364L11.9102 12.4236V20.6136C12.0252 20.5798 12.1359 20.5328 12.2402 20.4736L14.7702 19.0737C14.9425 18.9856 15.1418 18.9666 15.3277 19.0205C15.5135 19.0744 15.6717 19.1971 15.7702 19.3636C15.8599 19.5366 15.8788 19.7378 15.8228 19.9244C15.7668 20.1111 15.6403 20.2686 15.4702 20.3636L12.9502 21.7637C12.3967 22.0719 11.7737 22.2337 11.1402 22.2337C10.5067 22.2337 9.88361 22.0719 9.33015 21.7637L3.33015 18.4636C2.75113 18.1352 2.26885 17.6601 1.9318 17.0861C1.59475 16.512 1.41484 15.8593 1.41016 15.1937V8.80365C1.4106 8.13523 1.59015 7.4791 1.93015 6.90363C1.98755 6.80088 2.05452 6.7038 2.13016 6.61365C2.16526 6.55991 2.20544 6.50966 2.25016 6.46362C2.54151 6.08183 2.90934 5.76508 3.33015 5.53363L9.33015 2.22363C9.88621 1.92343 10.5083 1.76624 11.1402 1.76624C11.7721 1.76624 12.3941 1.92343 12.9502 2.22363L18.9502 5.53363C19.371 5.76508 19.7389 6.08183 20.0302 6.46362L20.1502 6.61365C20.2258 6.7038 20.2928 6.80088 20.3502 6.90363C20.6844 7.48017 20.8539 8.13739 20.8402 8.80365Z" fill="#1F1F1F"/>
<path d="M22.5901 16.4537C22.5921 17.0736 22.4099 17.6801 22.0667 18.1964C21.7236 18.7126 21.2349 19.1153 20.6625 19.3535C20.0902 19.5916 19.46 19.6545 18.8519 19.534C18.2438 19.4136 17.6852 19.1152 17.2469 18.6769C16.8085 18.2386 16.5102 17.6799 16.3898 17.0719C16.2693 16.4638 16.3321 15.8336 16.5703 15.2612C16.8084 14.6889 17.2111 14.2002 17.7274 13.857C18.2436 13.5138 18.8502 13.3317 19.4701 13.3337C20.2968 13.3363 21.0888 13.6658 21.6733 14.2504C22.2579 14.8349 22.5875 15.627 22.5901 16.4537Z" fill="#1F1F1F"/>
</svg>
