<svg width="24" height="24" viewBox="0 0 24 24" fill="none" xmlns="http://www.w3.org/2000/svg">
<path d="M6.3945 7.70537C7.12912 6.96718 8.00267 6.38183 8.96483 5.98308C9.92688 5.58435 10.9585 5.38013 11.9999 5.38222C14.1027 5.38222 16.1194 6.21757 17.6063 7.70446C19.0932 9.19136 19.9285 11.208 19.9285 13.3107C19.9285 15.4146 19.0935 17.4323 17.6069 18.9209C16.1203 20.4095 14.1037 21.2472 11.9999 21.25C9.89613 21.2472 7.87949 20.4095 6.39291 18.9209C4.90633 17.4323 4.07129 15.4146 4.07129 13.3107" stroke="#1F1F1F" stroke-width="1.5" stroke-miterlimit="10" stroke-linecap="round"/>
<path d="M7.11906 2.75L6.17063 6.60772C6.0868 6.94965 6.1418 7.31085 6.32349 7.61238C6.50528 7.9139 6.79887 8.13125 7.14044 8.21689L11.0088 9.16532" stroke="#1F1F1F" stroke-width="1.5" stroke-linecap="round" stroke-linejoin="round"/>
</svg>
