<svg width="24" height="24" viewBox="0 0 24 24" fill="none" xmlns="http://www.w3.org/2000/svg">
<path d="M12.7438 20.2551C12.4308 20.1097 12.129 19.9643 11.8383 19.8077C10.3332 18.9527 8.94966 17.8994 7.72479 16.6758C6.12373 15.1924 4.80562 13.4299 3.83476 11.4746C3.33428 10.4149 3.00599 9.28216 2.86226 8.11898C2.63364 6.95235 2.7622 5.74384 3.23114 4.65152C3.51949 4.17203 3.86895 3.73211 4.27072 3.34283C4.42957 3.16284 4.62362 3.01738 4.84088 2.91541C5.05814 2.81344 5.29399 2.75715 5.53386 2.75C5.7868 2.77998 6.03107 2.86084 6.25198 2.9877C6.47289 3.11457 6.66588 3.28482 6.81936 3.48824C7.52359 4.24884 8.25017 4.95352 8.98794 5.72531C9.27144 5.97524 9.45094 6.32249 9.49096 6.69844C9.46246 6.99654 9.34127 7.2782 9.14443 7.50379C8.88733 7.81698 8.5967 8.09661 8.31724 8.39862C8.15451 8.5569 8.02897 8.74941 7.94971 8.96221C7.87045 9.175 7.83944 9.40275 7.85893 9.62901C8.03723 10.1754 8.33947 10.6731 8.74201 11.0831C9.23386 11.7431 9.7257 12.403 10.2622 13.0182C11.2569 14.1564 12.4312 15.1237 13.7386 15.8817C13.9156 16.0103 14.1221 16.0922 14.339 16.1195C14.5559 16.1469 14.7762 16.1189 14.9794 16.0383C15.4074 15.793 15.7864 15.4706 16.0973 15.0875C16.3793 14.7509 16.7792 14.5348 17.2151 14.4835C17.6042 14.4978 17.9727 14.6621 18.2435 14.9421C18.5788 15.2441 18.8806 15.5908 19.2048 15.9152C19.529 16.2396 19.7749 16.4633 20.0432 16.7541C20.3616 17.0429 20.6639 17.3492 20.9486 17.6713C21.0612 17.8094 21.1449 17.9685 21.1949 18.1395C21.2448 18.3106 21.2599 18.4899 21.2392 18.6668C21.1392 19.1065 20.8953 19.5001 20.5462 19.7854C20.0617 20.2873 19.4738 20.6773 18.8231 20.9284C18.1725 21.1796 17.475 21.2857 16.7791 21.2395C15.3827 21.1781 14.0118 20.8436 12.7438 20.2551Z" stroke="#1F1F1F" stroke-width="1.5" stroke-miterlimit="10" stroke-linecap="round"/>
<path d="M17.1818 5.68054L13.5488 9.31579" stroke="#1F1F1F" stroke-width="1.5" stroke-miterlimit="10" stroke-linecap="round"/>
<path d="M13.5488 5.68054L17.1818 9.31579" stroke="#1F1F1F" stroke-width="1.5" stroke-miterlimit="10" stroke-linecap="round"/>
</svg>
