<svg width="24" height="24" viewBox="0 0 24 24" fill="none" xmlns="http://www.w3.org/2000/svg">
<path d="M5.54854 10.8187L3.72278 12.4338C3.47848 12.6495 3.31618 12.9439 3.2636 13.2667C3.21103 13.5895 3.27143 13.9206 3.4345 14.2036L5.0873 17.1049C5.25114 17.3853 5.50554 17.6007 5.80807 17.7151C6.1106 17.8295 6.44296 17.836 6.7497 17.7336L9.04632 16.9502L5.54854 10.8187Z" stroke="#1F1F1F" stroke-width="1.5" stroke-linecap="round" stroke-linejoin="round"/>
<path d="M9.25801 4.59042C8.8012 5.99306 8.22907 7.35496 7.54756 8.66199C7.03642 9.51206 6.35588 10.2464 5.54883 10.8187L9.04661 16.9309C9.95251 16.5136 10.9334 16.2866 11.9294 16.2635C13.3928 16.3295 14.8485 16.5139 16.2824 16.8148" stroke="#1F1F1F" stroke-width="1.5" stroke-linecap="round" stroke-linejoin="round"/>
<path d="M9.25293 4.59118L10.468 3.88518C10.7902 3.69794 11.1731 3.6472 11.5325 3.74412C11.8919 3.84105 12.1984 4.0777 12.3844 4.40201L17.9914 14.1762C18.1744 14.5003 18.2227 14.8842 18.1256 15.2439C18.0285 15.6037 17.7939 15.9102 17.4731 16.0966L16.2581 16.8026L9.25293 4.59118Z" stroke="#1F1F1F" stroke-width="1.5" stroke-linecap="round" stroke-linejoin="round"/>
<path d="M3.55964 14.4164L2.95425 14.7742C2.79338 14.8663 2.65236 14.9898 2.53942 15.1374C2.42649 15.285 2.3439 15.4537 2.29649 15.6338C2.24908 15.8139 2.23779 16.0016 2.26328 16.1861C2.28877 16.3707 2.35053 16.5482 2.44496 16.7084C2.5365 16.8703 2.65918 17.0123 2.80582 17.1259C2.95247 17.2396 3.12015 17.3227 3.29906 17.3704C3.47798 17.4181 3.66455 17.4295 3.84788 17.4038C4.03121 17.3782 4.20762 17.316 4.36682 17.221L4.93377 16.8632" stroke="#1F1F1F" stroke-width="1.5" stroke-linecap="round" stroke-linejoin="round"/>
<path d="M9.73859 16.6601L11.4394 19.6291C11.6224 19.9546 11.6716 20.3392 11.5764 20.7007C11.4812 21.0622 11.2493 21.3718 10.9302 21.5634C10.6062 21.7493 10.2223 21.7987 9.86228 21.7008C9.50225 21.603 9.19526 21.3659 9.00829 21.0411L7.08643 17.6272" stroke="#1F1F1F" stroke-width="1.5" stroke-linecap="round" stroke-linejoin="round"/>
<path d="M19.6361 6.89217L17.1377 8.34285" stroke="#1F1F1F" stroke-width="1.5" stroke-linecap="round" stroke-linejoin="round"/>
<path d="M21.75 11.8728H18.8672" stroke="#1F1F1F" stroke-width="1.5" stroke-linecap="round" stroke-linejoin="round"/>
<path d="M16.2246 2.25L14.7832 4.76451" stroke="#1F1F1F" stroke-width="1.5" stroke-linecap="round" stroke-linejoin="round"/>
</svg>
