<svg width="24" height="24" viewBox="0 0 24 24" fill="none" xmlns="http://www.w3.org/2000/svg">
<path d="M12.3583 14.7235C8.75828 14.7235 4.73828 17.6519 4.73828 21.25" stroke="#1F1F1F" stroke-width="1.5" stroke-linecap="round" stroke-linejoin="round"/>
<path d="M12.3583 11.4653C13.221 11.4673 14.065 11.2134 14.7833 10.7358C15.5016 10.2581 16.062 9.57825 16.3935 8.78217C16.7251 7.98609 16.8128 7.1096 16.6457 6.26365C16.4786 5.41769 16.0642 4.6403 15.4548 4.02987C14.8455 3.41944 14.0686 3.00342 13.2226 2.83447C12.3765 2.66551 11.4994 2.75122 10.7021 3.08075C9.90485 3.41027 9.22332 3.9688 8.7438 4.68562C8.26427 5.40245 8.00831 6.24535 8.0083 7.10764C8.0083 8.26163 8.46628 9.3685 9.28178 10.1854C10.0973 11.0024 11.2037 11.4626 12.3583 11.4653Z" stroke="#1F1F1F" stroke-width="1.5" stroke-linecap="round" stroke-linejoin="round"/>
<path d="M13.2617 18.3624L14.9503 20.051C15.0097 20.1111 15.0804 20.1589 15.1584 20.1914C15.2364 20.224 15.3201 20.2408 15.4046 20.2408C15.4891 20.2408 15.5728 20.224 15.6507 20.1914C15.7287 20.1589 15.7995 20.1111 15.8589 20.051L19.2617 16.6481" stroke="#1F1F1F" stroke-width="1.5" stroke-linecap="round" stroke-linejoin="round"/>
</svg>
