<svg width="24" height="24" viewBox="0 0 24 24" fill="none" xmlns="http://www.w3.org/2000/svg">
<path d="M20.9544 8.80365V11.0137C20.9544 11.2126 20.8754 11.4034 20.7348 11.544C20.5941 11.6847 20.4034 11.7637 20.2044 11.7637C20.0055 11.7637 19.8148 11.6847 19.6741 11.544C19.5335 11.4034 19.4544 11.2126 19.4544 11.0137V8.80365C19.4608 8.54428 19.4167 8.28614 19.3244 8.04364L12.0245 12.4236V20.6136C12.1395 20.5798 12.2502 20.5328 12.3544 20.4736L14.8844 19.0737C15.0562 18.9831 15.2565 18.9628 15.443 19.0168C15.6295 19.0709 15.7877 19.1953 15.8844 19.3636C15.9741 19.5366 15.993 19.7378 15.937 19.9244C15.881 20.1111 15.7546 20.2686 15.5845 20.3636L13.0644 21.7637C12.511 22.0719 11.8879 22.2337 11.2544 22.2337C10.6209 22.2337 9.99786 22.0719 9.4444 21.7637L3.4444 18.4636C2.86538 18.1352 2.3831 17.6601 2.04605 17.0861C1.709 16.512 1.52908 15.8593 1.52441 15.1937V8.80365C1.52485 8.13523 1.7044 7.4791 2.0444 6.90363C2.10179 6.80088 2.16877 6.7038 2.24441 6.61365C2.27951 6.55991 2.31969 6.50966 2.36441 6.46362C2.65575 6.08183 3.02359 5.76508 3.4444 5.53363L9.4444 2.22363C10.0005 1.92343 10.6225 1.76624 11.2544 1.76624C11.8864 1.76624 12.5084 1.92343 13.0644 2.22363L19.0644 5.53363C19.4852 5.76508 19.8531 6.08183 20.1444 6.46362L20.2644 6.61365C20.3401 6.7038 20.4071 6.80088 20.4645 6.90363C20.7986 7.48017 20.9681 8.13739 20.9544 8.80365Z" fill="#1F1F1F"/>
<path d="M18.5243 18.2637C18.3567 18.2648 18.1904 18.2342 18.0342 18.1736C17.8773 18.1041 17.7348 18.0058 17.6142 17.8837L16.2143 16.4836C16.1435 16.4147 16.0872 16.3323 16.0489 16.2413C16.0105 16.1502 15.9907 16.0525 15.9907 15.9537C15.9907 15.8549 16.0105 15.757 16.0489 15.666C16.0872 15.575 16.1435 15.4926 16.2143 15.4236C16.3549 15.2832 16.5455 15.2043 16.7443 15.2043C16.943 15.2043 17.1336 15.2832 17.2743 15.4236L18.5243 16.6736L21.2143 13.9936C21.3564 13.8612 21.5445 13.789 21.7388 13.7925C21.9331 13.7959 22.1185 13.8746 22.2559 14.012C22.3933 14.1494 22.472 14.3348 22.4754 14.5291C22.4789 14.7234 22.4067 14.9115 22.2743 15.0536L19.4343 17.8937C19.3173 18.0105 19.1778 18.1023 19.0243 18.1636C18.8663 18.2312 18.696 18.2653 18.5243 18.2637Z" fill="#1F1F1F"/>
</svg>
