<svg width="24" height="24" viewBox="0 0 24 24" fill="none" xmlns="http://www.w3.org/2000/svg">
<path d="M18.4401 13.7914L12.9414 4.20566C12.8039 3.96653 12.6206 3.75683 12.402 3.58865C12.1834 3.42046 11.9337 3.29708 11.6673 3.22552C11.1252 3.0804 10.5478 3.15435 10.0598 3.43137L8.86406 4.12723C8.83408 4.14111 8.80729 4.16115 8.78557 4.18604L8.71701 4.27428C8.64572 4.35195 8.59513 4.4463 8.56997 4.54868C8.14348 5.85051 7.61248 7.11579 6.98215 8.33206C6.53874 9.08038 5.94054 9.72532 5.22766 10.2237L3.43405 11.8116C3.07001 12.136 2.82795 12.5752 2.748 13.0563C2.69599 13.3834 2.716 13.7179 2.80675 14.0364C2.56072 14.1723 2.34678 14.3596 2.17945 14.5854C2.01046 14.8072 1.8872 15.0604 1.8168 15.3302C1.76289 15.6053 1.76289 15.8883 1.8168 16.1634C1.85431 16.4361 1.94418 16.699 2.08146 16.9377C2.21787 17.1795 2.40201 17.3912 2.62273 17.5596C2.84346 17.7281 3.09622 17.85 3.3655 17.9178C3.54113 17.9656 3.72249 17.9887 3.9045 17.9864C4.00227 17.9962 4.10082 17.9962 4.19859 17.9864C4.47067 17.9529 4.73188 17.8592 4.96313 17.712C5.17901 17.9546 5.45176 18.1399 5.75698 18.2511C5.994 18.3448 6.24703 18.3914 6.50189 18.3883C6.64073 18.3913 6.77935 18.3748 6.91359 18.3393L8.51122 21.1915C8.79683 21.6715 9.25678 22.0227 9.79514 22.1716C9.97722 22.2217 10.1651 22.248 10.3539 22.25C10.7267 22.2487 11.0923 22.1472 11.4124 21.956C11.8946 21.6727 12.2464 21.2118 12.3926 20.672C12.5324 20.1296 12.4588 19.5542 12.1868 19.0646L10.9909 16.9867C11.3129 16.915 11.6412 16.8756 11.971 16.8691C13.3655 16.9276 14.7525 17.1047 16.117 17.3984H16.3229H16.4602L16.6169 17.3297L16.7639 17.2415L17.8127 16.6338C18.295 16.3553 18.6474 15.8972 18.7929 15.3597C18.8839 14.8109 18.7573 14.2483 18.4401 13.7914ZM6.55095 16.9475C6.41142 16.9968 6.25914 16.9968 6.11962 16.9475C5.98189 16.8986 5.86687 16.8009 5.79622 16.673L4.30639 14.0659L4.2084 13.8993C4.13365 13.7652 4.10596 13.6098 4.12991 13.4582C4.15582 13.3098 4.23205 13.1748 4.34563 13.0759L5.4532 12.0958L5.86478 12.8211L7.99172 16.5456L6.55095 16.9475ZM17.2246 14.9872C17.177 15.1544 17.0687 15.2977 16.9208 15.389L16.3719 15.7027L10.2362 5.00938L10.7949 4.68592C10.8665 4.64319 10.9461 4.61588 11.0288 4.60575C11.1115 4.59563 11.1954 4.60291 11.2752 4.62711C11.3569 4.6473 11.4337 4.68374 11.5011 4.73425C11.5684 4.78477 11.625 4.84833 11.6673 4.92114L17.1658 14.4971C17.2149 14.5789 17.2455 14.6703 17.2557 14.7651C17.2658 14.8599 17.2552 14.9557 17.2246 15.046V14.9872Z" fill="#1F1F1F"/>
<path d="M16.9698 9.16514C16.8408 9.16776 16.7133 9.13542 16.6012 9.07157C16.489 9.00773 16.3963 8.91477 16.3327 8.80249C16.2423 8.63643 16.2193 8.44195 16.2686 8.25942C16.3178 8.07689 16.4357 7.92034 16.5973 7.82235L19.0477 6.40114C19.2132 6.30823 19.4085 6.28388 19.5917 6.33336C19.775 6.38283 19.9316 6.50221 20.0278 6.6658C20.1182 6.83185 20.1411 7.02634 20.0918 7.20887C20.0426 7.3914 19.9249 7.54794 19.7632 7.64593L17.3128 9.06715C17.2084 9.12787 17.0905 9.16154 16.9698 9.16514Z" fill="#1F1F1F"/>
<path d="M21.4886 12.6348H18.656C18.461 12.6348 18.274 12.5574 18.1361 12.4195C17.9982 12.2817 17.9209 12.0947 17.9209 11.8997C17.9209 11.7048 17.9982 11.5178 18.1361 11.3799C18.274 11.2421 18.461 11.1646 18.656 11.1646H21.4886C21.6835 11.1646 21.8705 11.2421 22.0083 11.3799C22.1462 11.5178 22.2237 11.7048 22.2237 11.8997C22.2237 12.0947 22.1462 12.2817 22.0083 12.4195C21.8705 12.5574 21.6835 12.6348 21.4886 12.6348Z" fill="#1F1F1F"/>
<path d="M14.6567 5.66607C14.529 5.6683 14.4032 5.63434 14.294 5.56808C14.1288 5.47345 14.0074 5.31763 13.956 5.13424C13.9047 4.95086 13.9276 4.75463 14.0197 4.58794L15.431 2.11797C15.5285 1.94901 15.6891 1.82568 15.8775 1.77513C16.066 1.72458 16.2667 1.75093 16.4357 1.84841C16.6047 1.94589 16.7279 2.10652 16.7785 2.29493C16.829 2.48334 16.8027 2.68411 16.7053 2.85308L15.2938 5.31323C15.2281 5.423 15.1347 5.51347 15.0228 5.57544C14.9109 5.63741 14.7846 5.66865 14.6567 5.66607Z" fill="#1F1F1F"/>
</svg>
