<svg width="24" height="24" viewBox="0 0 24 24" fill="none" xmlns="http://www.w3.org/2000/svg">
<path d="M18.7702 19.0711L18.6571 20.7669C18.648 20.8903 18.5955 21.0065 18.509 21.0949C18.4225 21.1833 18.3075 21.2382 18.1843 21.25H5.851C5.7206 21.2478 5.59568 21.1972 5.50066 21.1078C5.40563 21.0185 5.34732 20.897 5.33711 20.7669L5.22405 19.0711C5.1819 18.4856 5.33753 17.9029 5.666 17.4164L9.33516 12C9.43247 11.8615 9.48468 11.6964 9.48468 11.5272C9.48468 11.358 9.43247 11.1929 9.33516 11.0544L5.9435 6.55278C5.59712 6.08603 5.40978 5.5204 5.40905 4.93917V3.27417C5.40905 3.13515 5.46428 3.00183 5.56258 2.90352C5.66088 2.80522 5.7942 2.75 5.93322 2.75H18.1021C18.2411 2.75 18.3745 2.80522 18.4728 2.90352C18.5711 3.00183 18.6263 3.13515 18.6263 3.27417V4.93917C18.6256 5.5204 18.4382 6.08603 18.0918 6.55278L14.7207 10.9722C14.6234 11.1107 14.5712 11.2758 14.5712 11.445C14.5712 11.6142 14.6234 11.7793 14.7207 11.9178L18.3488 17.3753C18.6791 17.8757 18.8278 18.4743 18.7702 19.0711Z" stroke="#1F1F1F" stroke-width="1.5" stroke-linecap="round" stroke-linejoin="round"/>
<path d="M9.37646 18.1667H14.6593" stroke="#1F1F1F" stroke-width="1.5" stroke-linecap="round" stroke-linejoin="round"/>
</svg>
