<svg width="24" height="24" viewBox="0 0 24 24" fill="none" xmlns="http://www.w3.org/2000/svg">
<path d="M12 6.45831V17.5416" stroke="#1F1F1F" stroke-width="1.5" stroke-miterlimit="10" stroke-linecap="round"/>
<path d="M17.2777 11.3033L12.7493 6.77499C12.6512 6.67606 12.5344 6.59753 12.4059 6.54394C12.2772 6.49035 12.1392 6.46277 11.9999 6.46277C11.8606 6.46277 11.7226 6.49035 11.5939 6.54394C11.4654 6.59753 11.3486 6.67606 11.2505 6.77499L6.72217 11.3033" stroke="#1F1F1F" stroke-width="1.5" stroke-linecap="round" stroke-linejoin="round"/>
<path d="M12 21.5C17.2467 21.5 21.5 17.2467 21.5 12C21.5 6.7533 17.2467 2.5 12 2.5C6.7533 2.5 2.5 6.7533 2.5 12C2.5 17.2467 6.7533 21.5 12 21.5Z" stroke="#1F1F1F" stroke-width="1.5" stroke-linecap="round" stroke-linejoin="round"/>
</svg>
