<svg width="24" height="24" viewBox="0 0 24 24" fill="none" xmlns="http://www.w3.org/2000/svg">
<path d="M21.3692 16.5472C21.3309 16.9448 21.19 17.3256 20.9601 17.6521C20.7415 17.968 20.4495 18.2262 20.1091 18.4044C19.7688 18.5826 19.3903 18.6755 19.0061 18.6751H16.0086C15.9587 18.9442 15.8834 19.208 15.7836 19.4629C15.5773 19.9665 15.275 20.4251 14.8935 20.8133C14.508 21.2005 14.0489 21.5065 13.5432 21.7135C13.0617 21.9057 12.5475 22.003 12.029 21.9999H11.9165C11.3854 22.0003 10.8598 21.8924 10.3718 21.6828C9.87384 21.4771 9.42153 21.1751 9.04057 20.7942C8.65962 20.4132 8.3576 19.9608 8.15193 19.4629C8.04743 19.2096 7.97196 18.9454 7.92689 18.6751H5.03168C4.65491 18.7042 4.27674 18.6402 3.93062 18.4885C3.58449 18.3368 3.2811 18.1023 3.04709 17.8056C2.82307 17.4455 2.68366 17.0393 2.63936 16.6175C2.59506 16.1958 2.64702 15.7696 2.79134 15.3708C3.01204 14.7788 3.31511 14.2209 3.6916 13.7135C4.11994 13.1919 4.4054 12.5679 4.52017 11.9028C4.52017 8.93606 4.52025 7.94374 6.13662 6.02047C6.66973 5.38356 7.33222 4.86745 8.08024 4.50643L8.88847 4.11768C8.92306 4.09884 8.95143 4.07041 8.97026 4.03582C9.00752 4.00011 9.03264 3.95358 9.04194 3.90282C9.16306 3.22192 9.52642 2.60783 10.0649 2.17392C10.1977 2.07432 10.3592 2.02045 10.5252 2.02045C10.6913 2.02045 10.8529 2.07432 10.9857 2.17392C11.1219 2.27024 11.2241 2.40736 11.2774 2.56548C11.3307 2.7236 11.3324 2.89454 11.2823 3.0537C11.2823 3.0537 10.0956 6.75701 12.3053 8.99742C14.515 11.2378 18.2081 9.13046 18.2491 9.11C18.3638 9.04253 18.4945 9.00691 18.6276 9.00691C18.7607 9.00691 18.8913 9.04253 19.0061 9.11C19.121 9.17636 19.2165 9.27175 19.2829 9.38667C19.3494 9.50158 19.3844 9.63194 19.3846 9.76468V11.9437C19.5233 12.6536 19.8362 13.318 20.2951 13.8772C20.6607 14.3676 20.96 14.9042 21.1851 15.4731C21.3344 15.8104 21.3976 16.1795 21.3692 16.5472Z" fill="#1F1F1F"/>
<path d="M15.3031 8.10687C16.8396 8.10687 18.0852 6.86128 18.0852 5.32477C18.0852 3.78825 16.8396 2.54266 15.3031 2.54266C13.7666 2.54266 12.521 3.78825 12.521 5.32477C12.521 6.86128 13.7666 8.10687 15.3031 8.10687Z" fill="#1F1F1F"/>
</svg>
