<svg width="24" height="24" viewBox="0 0 24 24" fill="none" xmlns="http://www.w3.org/2000/svg">
<path d="M10.6606 10.6605C10.3038 11.0152 10.1022 11.4969 10.1001 12C10.1001 12.5039 10.3003 12.9872 10.6566 13.3435C11.0129 13.6998 11.4962 13.9 12.0001 13.9C12.5032 13.8979 12.9849 13.6963 13.3396 13.3395" stroke="#1F1F1F" stroke-width="1.5" stroke-linecap="round" stroke-linejoin="round"/>
<path d="M11.9998 6.3C10.8724 6.3 9.77042 6.6343 8.83306 7.26063C7.8957 7.88695 7.16512 8.77717 6.7337 9.81871C6.30228 10.8602 6.1894 12.0063 6.40933 13.112C6.62927 14.2177 7.17214 15.2334 7.9693 16.0305C8.76646 16.8277 9.7821 17.3705 10.8878 17.5905C11.9935 17.8104 13.1395 17.6975 14.1811 17.2661C15.2226 16.8347 16.1128 16.1041 16.7392 15.1668C17.3655 14.2294 17.6998 13.1274 17.6998 12" stroke="#1F1F1F" stroke-width="1.5" stroke-linecap="round" stroke-linejoin="round"/>
<path d="M12 2.5C10.1211 2.5 8.28435 3.05717 6.72209 4.10104C5.15982 5.14491 3.94218 6.62861 3.22315 8.36451C2.50412 10.1004 2.31598 12.0105 2.68254 13.8534C3.0491 15.6962 3.95389 17.3889 5.28249 18.7175C6.61109 20.0461 8.30383 20.9509 10.1466 21.3175C11.9895 21.684 13.8996 21.4959 15.6355 20.7769C17.3714 20.0578 18.8551 18.8402 19.899 17.2779C20.9428 15.7156 21.5 13.8789 21.5 12" stroke="#1F1F1F" stroke-width="1.5" stroke-linecap="round" stroke-linejoin="round"/>
<path d="M15.5247 8.47549L12.9502 11.05" stroke="#1F1F1F" stroke-width="1.5" stroke-linecap="round" stroke-linejoin="round"/>
<path d="M20.9396 5.84399L17.7001 6.29999L18.1561 3.0605C18.1597 3.02273 18.1518 2.98476 18.1336 2.95148C18.1154 2.9182 18.0877 2.89113 18.0539 2.87376C18.0202 2.85638 17.9821 2.8495 17.9444 2.854C17.9067 2.8585 17.8713 2.87417 17.8426 2.899L15.6956 5.03649C15.4751 5.25866 15.3128 5.53189 15.2233 5.83187C15.1338 6.13185 15.1198 6.4493 15.1826 6.75599L15.5246 8.47549L17.2441 8.81749C17.5508 8.88026 17.8682 8.86627 18.1682 8.77677C18.4682 8.68727 18.7414 8.52504 18.9636 8.30449L21.1011 6.15749C21.1259 6.12881 21.1416 6.09335 21.1461 6.05568C21.1506 6.01802 21.1437 5.97987 21.1263 5.94614C21.109 5.91242 21.0819 5.88467 21.0486 5.86646C21.0153 5.84826 20.9774 5.84043 20.9396 5.84399Z" stroke="#1F1F1F" stroke-width="1.5" stroke-linecap="round" stroke-linejoin="round"/>
</svg>
