<svg width="24" height="24" viewBox="0 0 24 24" fill="none" xmlns="http://www.w3.org/2000/svg">
<path d="M21.2647 8.18054C20.7704 6.96068 20.0319 5.85472 19.0947 4.93054C17.6963 3.53121 15.9142 2.57813 13.974 2.19186C12.0337 1.80559 10.0225 2.00351 8.19474 2.76055C6.98144 3.26722 5.87777 4.00411 4.94474 4.93054C4.0183 5.86151 3.28436 6.96587 2.78477 8.18054C2.27919 9.39043 2.02077 10.6893 2.02476 12.0005C2.01377 13.2943 2.26551 14.5769 2.76475 15.7705L2.26475 19.4206C2.19007 19.7294 2.19007 20.0517 2.26475 20.3606C2.35778 20.6636 2.51465 20.9432 2.72477 21.1805C2.94491 21.4073 3.21561 21.5786 3.51475 21.6805C3.8149 21.7768 4.13356 21.8008 4.44474 21.7505L8.09477 21.2105C9.3202 21.7373 10.6409 22.0062 11.9748 22.0005C13.2893 22.0045 14.5914 21.7461 15.8048 21.2405C17.0167 20.7368 18.1176 19.9995 19.0448 19.0706C19.9795 18.1482 20.7177 17.0461 21.2147 15.8306C22.2287 13.3814 22.2287 10.6297 21.2147 8.18054H21.2647ZM15.9248 13.0005H8.1248C7.85958 13.0005 7.60518 12.8952 7.41765 12.7077C7.23011 12.5201 7.1248 12.2658 7.1248 12.0005C7.1248 11.7353 7.23011 11.481 7.41765 11.2935C7.60518 11.1059 7.85958 11.0005 8.1248 11.0005H15.9248C16.19 11.0005 16.4443 11.1059 16.6319 11.2935C16.8194 11.481 16.9248 11.7353 16.9248 12.0005C16.9248 12.2658 16.8194 12.5201 16.6319 12.7077C16.4443 12.8952 16.19 13.0005 15.9248 13.0005Z" fill="#1F1F1F"/>
</svg>
