<svg width="24" height="24" viewBox="0 0 24 24" fill="none" xmlns="http://www.w3.org/2000/svg">
<path d="M4.38232 8.8125V17.3125C4.38232 18.1579 4.72628 18.9686 5.33853 19.5664C5.95079 20.1642 6.78118 20.5 7.64703 20.5H16.3529C17.2188 20.5 18.0492 20.1642 18.6614 19.5664C19.2737 18.9686 19.6176 18.1579 19.6176 17.3125V8.8125" stroke="#1F1F1F" stroke-width="1.5" stroke-linecap="round" stroke-linejoin="round"/>
<path d="M19.6176 3.5H4.38235C3.48083 3.5 2.75 4.21355 2.75 5.09375V7.21875C2.75 8.09895 3.48083 8.8125 4.38235 8.8125H19.6176C20.5192 8.8125 21.25 8.09895 21.25 7.21875V5.09375C21.25 4.21355 20.5192 3.5 19.6176 3.5Z" stroke="#1F1F1F" stroke-width="1.5" stroke-linecap="round" stroke-linejoin="round"/>
<path d="M10.4956 12.5886C10.6438 12.2653 10.8956 12.0006 11.2112 11.8365C11.5268 11.6724 11.8881 11.6183 12.2379 11.6826C12.4775 11.7194 12.7052 11.8118 12.9026 11.9525C13.1001 12.0932 13.2618 12.2783 13.3747 12.4928C13.4561 12.6644 13.5002 12.8512 13.5042 13.041C13.5082 13.2309 13.472 13.4194 13.3979 13.5943C13.3239 13.7691 13.2137 13.9263 13.0745 14.0555C12.9354 14.1847 12.7706 14.2831 12.5907 14.344C12.4073 14.4136 12.2486 14.536 12.1346 14.6957C12.0207 14.8553 11.9566 15.0452 11.9504 15.2413V15.6115" stroke="#1F1F1F" stroke-width="1.5" stroke-miterlimit="10" stroke-linecap="round"/>
<path d="M11.9219 17.6562H11.9263" stroke="#1F1F1F" stroke-width="1.5" stroke-linecap="round" stroke-linejoin="round"/>
</svg>
