<svg width="24" height="24" viewBox="0 0 24 24" fill="none" xmlns="http://www.w3.org/2000/svg">
<path d="M14.8497 12H9.14992C8.10062 12 7.25 12.8506 7.25 13.8999V16.7498C7.25 17.7991 8.10062 18.6497 9.14992 18.6497H14.8497C15.899 18.6497 16.7496 17.7991 16.7496 16.7498V13.8999C16.7496 12.8506 15.899 12 14.8497 12Z" stroke="#1F1F1F" stroke-width="1.5" stroke-linecap="round" stroke-linejoin="round"/>
<path d="M7.66797 4.99881V6.88922" stroke="#1F1F1F" stroke-width="1.5" stroke-linecap="round" stroke-linejoin="round"/>
<path d="M10.5181 4.99881V6.88922" stroke="#1F1F1F" stroke-width="1.5" stroke-linecap="round" stroke-linejoin="round"/>
<path d="M13.3677 4.99881V6.88922" stroke="#1F1F1F" stroke-width="1.5" stroke-linecap="round" stroke-linejoin="round"/>
<path d="M18.222 6.63274V9.7676H19.8369V17.6997C19.8194 18.7235 19.3965 19.6986 18.661 20.4109C17.9255 21.1233 16.9374 21.5148 15.9136 21.4996H8.08592C7.0621 21.5148 6.07404 21.1233 5.33852 20.4109C4.603 19.6986 4.1801 18.7235 4.1626 17.6997V6.30026C4.1801 5.27647 4.603 4.30143 5.33852 3.58906C6.07404 2.87669 7.0621 2.48518 8.08592 2.50043H15.9136C16.9374 2.48518 17.9255 2.87669 18.661 3.58906C19.3965 4.30143 19.8194 5.27647 19.8369 6.30026V6.63274H18.222Z" stroke="#1F1F1F" stroke-width="1.5" stroke-linecap="round" stroke-linejoin="round"/>
</svg>
