<svg width="24" height="24" viewBox="0 0 24 24" fill="none" xmlns="http://www.w3.org/2000/svg">
<path d="M19.6202 2.72503H4.39018C3.76332 2.71969 3.15988 2.96292 2.71195 3.40148C2.26402 3.84004 2.00807 4.43823 2.00016 5.06506V7.18505C1.99422 7.69161 2.15009 8.18682 2.44505 8.59869C2.74001 9.01055 3.15868 9.31756 3.64018 9.47503V17.335C3.64083 17.8553 3.74557 18.3701 3.94822 18.8493C4.15087 19.3284 4.44734 19.7622 4.82017 20.1251C5.57422 20.8677 6.59183 21.2812 7.65015 21.275H16.3602C17.4185 21.2812 18.4361 20.8677 19.1902 20.1251C19.563 19.7622 19.8595 19.3284 20.0621 18.8493C20.2648 18.3701 20.3695 17.8553 20.3702 17.335V9.47503C20.8417 9.31849 21.2524 9.01834 21.5447 8.61663C21.837 8.21493 21.9963 7.73183 22.0002 7.23504V5.11505C22.0042 4.80092 21.9455 4.48911 21.8274 4.19799C21.7093 3.90687 21.5343 3.64228 21.3127 3.41967C21.091 3.19707 20.8271 3.02095 20.5365 2.90167C20.2458 2.78238 19.9343 2.72234 19.6202 2.72503ZM15.5402 13.365L12.1402 16.765C12.0108 16.8929 11.858 16.9948 11.6902 17.0651C11.5211 17.1374 11.3391 17.1747 11.1552 17.1747C10.9713 17.1747 10.7893 17.1374 10.6202 17.0651C10.4491 16.9962 10.2955 16.8903 10.1702 16.7551L8.48017 15.075C8.40648 15.0063 8.34737 14.9236 8.30637 14.8316C8.26538 14.7396 8.24336 14.6402 8.24159 14.5395C8.23981 14.4388 8.25834 14.3388 8.29606 14.2454C8.33378 14.152 8.38991 14.0672 8.46113 13.996C8.53235 13.9247 8.61719 13.8686 8.71058 13.8309C8.80397 13.7932 8.90397 13.7746 9.00468 13.7764C9.10538 13.7782 9.2047 13.8003 9.2967 13.8412C9.3887 13.8822 9.47151 13.9413 9.54017 14.015L11.1602 15.635L14.4802 12.305C14.5489 12.2314 14.6317 12.1722 14.7237 12.1312C14.8157 12.0902 14.915 12.0682 15.0157 12.0665C15.1164 12.0647 15.2164 12.0832 15.3098 12.1209C15.4032 12.1586 15.488 12.2148 15.5592 12.286C15.6305 12.3572 15.6866 12.4421 15.7243 12.5355C15.762 12.6288 15.7806 12.7288 15.7788 12.8295C15.777 12.9302 15.7549 13.0296 15.714 13.1216C15.673 13.2136 15.6139 13.2964 15.5402 13.365ZM20.5402 7.18505C20.5389 7.29885 20.515 7.41124 20.47 7.51574C20.4249 7.62025 20.3596 7.71475 20.2777 7.79382C20.1959 7.87288 20.0991 7.93491 19.9931 7.97631C19.8871 8.01772 19.774 8.03768 19.6602 8.03503H4.39018C4.27592 8.03769 4.16224 8.01778 4.05567 7.9765C3.9491 7.93521 3.8517 7.87336 3.76905 7.79443C3.6864 7.71549 3.62012 7.62104 3.57398 7.51647C3.52784 7.41191 3.50276 7.29931 3.50016 7.18505V5.06506C3.50274 4.95125 3.52791 4.83906 3.57417 4.73504C3.62043 4.63102 3.68687 4.53724 3.76966 4.4591C3.85245 4.38096 3.94992 4.32002 4.05644 4.27984C4.16295 4.23967 4.2764 4.22103 4.39018 4.22503H19.6202C19.7335 4.22102 19.8464 4.23973 19.9524 4.28002C20.0583 4.32032 20.1552 4.38138 20.2371 4.45965C20.3191 4.53792 20.3847 4.63181 20.4298 4.73577C20.475 4.83974 20.4989 4.95171 20.5002 5.06506L20.5402 7.18505Z" fill="#1F1F1F"/>
</svg>
