<svg width="24" height="24" viewBox="0 0 24 24" fill="none" xmlns="http://www.w3.org/2000/svg">
<path d="M21.2502 8.81387V6.75832C21.2502 5.94057 20.9253 5.15631 20.3471 4.57808C19.7689 3.99984 18.9846 3.67499 18.1668 3.67499H15.0835" stroke="#1F1F1F" stroke-width="1.5" stroke-linecap="round" stroke-linejoin="round"/>
<path d="M15.0835 22.175H18.1668C18.9846 22.175 19.7689 21.8501 20.3471 21.2719C20.9253 20.6936 21.2502 19.9094 21.2502 19.0916V17.0361" stroke="#1F1F1F" stroke-width="1.5" stroke-linecap="round" stroke-linejoin="round"/>
<path d="M2.75 17.0361V19.0916C2.75 19.9094 3.07485 20.6936 3.65309 21.2719C4.23132 21.8501 5.01558 22.175 5.83333 22.175H8.91667" stroke="#1F1F1F" stroke-width="1.5" stroke-linecap="round" stroke-linejoin="round"/>
<path d="M8.91667 3.67499H5.83333C5.01558 3.67499 4.23132 3.99984 3.65309 4.57808C3.07485 5.15631 2.75 5.94057 2.75 6.75832V8.81387" stroke="#1F1F1F" stroke-width="1.5" stroke-linecap="round" stroke-linejoin="round"/>
<path d="M18.1767 22.175C18.1767 19.2544 14.9208 16.8809 12.0002 16.8809C9.07961 16.8809 5.82373 19.2544 5.82373 22.175" stroke="#1F1F1F" stroke-width="1.5" stroke-linecap="round" stroke-linejoin="round"/>
<path d="M12.0001 14.2338C13.9493 14.2338 15.5295 12.6536 15.5295 10.7044C15.5295 8.75516 13.9493 7.17499 12.0001 7.17499C10.0509 7.17499 8.4707 8.75516 8.4707 10.7044C8.4707 12.6536 10.0509 14.2338 12.0001 14.2338Z" stroke="#1F1F1F" stroke-width="1.5" stroke-linecap="round" stroke-linejoin="round"/>
</svg>
