<svg width="24" height="24" viewBox="0 0 24 24" fill="none" xmlns="http://www.w3.org/2000/svg">
<path d="M21.2052 7.76489C20.956 7.23135 20.5518 6.78528 20.0452 6.48489L13.5752 2.48489C13.1007 2.19088 12.5535 2.0351 11.9953 2.0351C11.437 2.0351 10.8898 2.19088 10.4152 2.48489L3.94526 6.48489C3.45479 6.79726 3.06569 7.24541 2.82526 7.77487C2.57671 8.30469 2.49311 8.89697 2.58527 9.47488L4.26526 19.4749C4.37299 20.1722 4.72793 20.8076 5.26526 21.2649C5.79833 21.7114 6.46997 21.9588 7.16529 21.9649H16.7852C17.4943 21.9681 18.1817 21.7202 18.7253 21.2649C19.2654 20.8099 19.621 20.1734 19.7253 19.4749L21.4052 9.47488C21.5071 8.89759 21.4375 8.30311 21.2052 7.76489ZM15.3452 17.4649H8.65528C8.39006 17.4649 8.13572 17.3595 7.94819 17.172C7.76065 16.9845 7.65528 16.7301 7.65528 16.4649C7.65528 16.1997 7.76065 15.9453 7.94819 15.7578C8.13572 15.5702 8.39006 15.4649 8.65528 15.4649H15.3452C15.6104 15.4649 15.8648 15.5702 16.0523 15.7578C16.2399 15.9453 16.3452 16.1997 16.3452 16.4649C16.3452 16.7301 16.2399 16.9845 16.0523 17.172C15.8648 17.3595 15.6104 17.4649 15.3452 17.4649Z" fill="#1F1F1F"/>
</svg>
