<svg width="24" height="24" viewBox="0 0 24 24" fill="none" xmlns="http://www.w3.org/2000/svg">
<path d="M18.355 6.53999H16.4149V4.69C16.4164 3.97843 16.1361 3.29523 15.635 2.78999C15.3878 2.53993 15.0934 2.34137 14.769 2.20576C14.4446 2.07016 14.0966 2.00023 13.745 2H5.69497C5.34302 2.00131 4.99484 2.07193 4.67019 2.20782C4.34553 2.34372 4.05081 2.54223 3.80288 2.79202C3.55494 3.04181 3.35859 3.33798 3.22512 3.66364C3.09165 3.98929 3.02361 4.33806 3.02492 4.69V14.78C3.02361 15.1319 3.09165 15.4807 3.22512 15.8064C3.35859 16.132 3.55494 16.4282 3.80288 16.678C4.05081 16.9278 4.34553 17.1263 4.67019 17.2622C4.99484 17.3981 5.34302 17.4687 5.69497 17.47H7.63503V19.32C7.63502 20.029 7.91596 20.7092 8.4164 21.2115C8.91684 21.7138 9.59591 21.9974 10.3049 22H18.3049C19.014 21.9974 19.693 21.7138 20.1935 21.2115C20.6939 20.7092 20.975 20.029 20.975 19.32V9.23C20.9752 8.52853 20.7014 7.85471 20.212 7.3522C19.7226 6.8497 19.0562 6.55825 18.355 6.53999ZM7.63503 9.23V15.97H5.69497C5.3829 15.9677 5.08451 15.8418 4.86501 15.62C4.64625 15.3952 4.52411 15.0937 4.52492 14.78V4.69C4.5236 4.53504 4.5529 4.38134 4.61098 4.23767C4.66907 4.094 4.7549 3.96318 4.86355 3.85268C4.97219 3.74217 5.1015 3.65414 5.24416 3.59363C5.38682 3.53312 5.54 3.50131 5.69497 3.5H13.745C13.8999 3.50131 14.0531 3.53312 14.1958 3.59363C14.3384 3.65414 14.4678 3.74217 14.5764 3.85268C14.685 3.96318 14.7709 4.094 14.829 4.23767C14.887 4.38134 14.9162 4.53504 14.9149 4.69V6.53999H10.3049C9.59499 6.54527 8.91595 6.83101 8.41579 7.33492C7.91564 7.83882 7.63501 8.52002 7.63503 9.23Z" fill="#1F1F1F"/>
</svg>
