<svg width="24" height="24" viewBox="0 0 24 24" fill="none" xmlns="http://www.w3.org/2000/svg">
<path d="M9.6499 9.65003H13.8899C13.9271 9.64975 13.9635 9.66038 13.9947 9.68062C14.0259 9.70086 14.0505 9.7298 14.0654 9.76387C14.0803 9.79794 14.0849 9.83563 14.0786 9.87228C14.0723 9.90892 14.0553 9.94291 14.0299 9.97003L9.9699 14.03C9.94446 14.0571 9.92753 14.0911 9.92122 14.1278C9.91491 14.1644 9.91949 14.2021 9.93439 14.2362C9.9493 14.2703 9.97387 14.2992 10.0051 14.3194C10.0363 14.3397 10.0727 14.3503 10.1099 14.35H14.3499" stroke="#1F1F1F" stroke-width="1.5" stroke-linecap="round" stroke-linejoin="round"/>
<path d="M11.9623 17.9861H18.7716C19.0368 18.0009 19.3014 17.9476 19.5401 17.8311C19.7788 17.7146 19.9838 17.5389 20.1352 17.3207C20.2869 17.1026 20.3801 16.8493 20.4061 16.585C20.432 16.3206 20.3898 16.0541 20.2835 15.8106C19.9245 14.7229 18.4887 13.4176 18.4887 12.134C18.4887 9.28415 18.4887 8.53361 17.0856 6.85847C16.6306 6.31932 16.0673 5.88198 15.4322 5.57493L14.649 5.19422C14.5172 5.11567 14.4035 5.01012 14.3154 4.88451C14.2273 4.75892 14.1667 4.61609 14.1377 4.46542C14.0596 3.95781 13.7914 3.4989 13.3874 3.18178C12.9834 2.86465 12.4739 2.71303 11.9623 2.75766C11.4596 2.72728 10.9636 2.88545 10.5713 3.20127C10.1792 3.5171 9.91867 3.96784 9.84114 4.46542C9.806 4.62092 9.73711 4.76682 9.63939 4.89276C9.54164 5.01869 9.4174 5.12161 9.27548 5.19422L8.4923 5.57493C7.8572 5.88198 7.29386 6.31932 6.83893 6.85847C5.43573 8.53361 5.43573 9.28415 5.43573 12.134C5.43573 13.4176 4.06517 14.5923 3.70621 15.7454C3.48866 16.4415 3.369 17.9861 5.18554 17.9861H11.9623Z" stroke="#1F1F1F" stroke-width="1.5" stroke-linecap="round" stroke-linejoin="round"/>
<path d="M15.2254 17.9861C15.2343 18.4171 15.156 18.8455 14.9951 19.2453C14.8343 19.6453 14.5943 20.0086 14.2895 20.3134C13.9846 20.6182 13.6213 20.8582 13.2214 21.0191C12.8214 21.18 12.3932 21.2583 11.9622 21.2493C11.5312 21.2583 11.1029 21.18 10.7029 21.0191C10.3031 20.8582 9.93969 20.6182 9.63491 20.3134C9.3301 20.0086 9.09006 19.6453 8.92921 19.2453C8.76836 18.8455 8.69004 18.4171 8.69892 17.9861" stroke="#1F1F1F" stroke-width="1.5" stroke-linecap="round" stroke-linejoin="round"/>
</svg>
