<svg width="24" height="24" viewBox="0 0 24 24" fill="none" xmlns="http://www.w3.org/2000/svg">
<path d="M18.1562 16.3141C15.5725 18.3994 12.9787 17.805 11.6868 17.805C10.3949 17.805 10.3142 18.067 9.36548 19.0744C9.24679 19.2035 9.10241 19.3064 8.94159 19.3766C8.78308 19.4484 8.61102 19.4855 8.43695 19.4855C8.26288 19.4855 8.09083 19.4484 7.93231 19.3766C7.76831 19.3068 7.62055 19.2039 7.49833 19.0744L4.90449 16.5055C4.77163 16.3782 4.66828 16.2235 4.60171 16.0521C4.53349 15.8895 4.49915 15.7147 4.50078 15.5384C4.49696 15.3625 4.53103 15.1878 4.60068 15.0261C4.67033 14.8645 4.77393 14.7197 4.90449 14.6015C5.91376 13.6545 6.19636 13.4732 6.19636 12.2744C6.19636 10.7632 5.47978 7.90219 8.43695 4.9404C9.15497 4.21954 10.0138 3.65375 10.9601 3.27817C11.9226 2.89764 12.9533 2.71931 13.9879 2.75431C15.0285 2.78549 16.051 3.03376 16.9897 3.48313C17.9283 3.9325 18.7623 4.57303 19.438 5.36351C20.1119 6.1491 20.6164 7.06491 20.9198 8.05378C21.2233 9.04264 21.3193 10.0833 21.2019 11.1109C21.0845 12.1384 20.7561 13.1308 20.2373 14.026C19.7185 14.9213 19.0204 15.7002 18.1865 16.3141H18.1562Z" stroke="#1F1F1F" stroke-width="1.5" stroke-linecap="round" stroke-linejoin="round"/>
<path d="M4.60206 16.304L3.08815 17.8151C2.91414 17.9695 2.79898 18.1793 2.76219 18.4088C2.7254 18.6383 2.76925 18.8734 2.8863 19.0744L4.99568 21.0892C5.27828 21.3813 5.84347 21.2605 6.28755 20.8474L7.71063 19.3262" stroke="#1F1F1F" stroke-width="1.5" stroke-linecap="round" stroke-linejoin="round"/>
<path d="M15.2477 5.87327L10.185 10.1462C10.1448 10.1784 10.1128 10.2195 10.0914 10.2662C10.0694 10.3151 10.0571 10.3678 10.0552 10.4214C10.0666 10.4711 10.0894 10.5175 10.1219 10.557C10.1637 10.5778 10.2099 10.5886 10.2566 10.5884L13.1691 11.268L11.9098 14.6504C11.9002 14.6697 11.8952 14.691 11.8953 14.7125L11.9472 14.7246L12.0093 14.7391L17.072 10.4662C17.1147 10.4694 17.1574 10.4604 17.195 10.4402C17.2327 10.42 17.2637 10.3894 17.2844 10.3521C17.3115 10.3051 17.3241 10.2511 17.3207 10.1969C17.3092 10.1472 17.2864 10.1008 17.2539 10.0613C17.2121 10.0405 17.1659 10.0297 17.1192 10.0299L14.2171 9.35268L15.3893 6.01542C15.3962 6.0068 15.4011 5.99675 15.4036 5.98602C15.4061 5.97528 15.4062 5.96412 15.4038 5.95335L15.3416 5.93884L15.2477 5.87327Z" stroke="#1F1F1F" stroke-width="1.5" stroke-linecap="round" stroke-linejoin="round"/>
</svg>
