<svg width="24" height="24" viewBox="0 0 24 24" fill="none" xmlns="http://www.w3.org/2000/svg">
<path d="M20.9549 8.80371V11.0137C20.9549 11.2126 20.8759 11.4034 20.7352 11.5441C20.5946 11.6847 20.4038 11.7637 20.2049 11.7637C20.006 11.7637 19.8152 11.6847 19.6746 11.5441C19.5339 11.4034 19.4549 11.2126 19.4549 11.0137V8.80371C19.4613 8.54434 19.4171 8.2862 19.3249 8.0437L12.0249 12.4237V20.6137C12.1399 20.5799 12.2506 20.5329 12.3549 20.4737L14.8849 19.0737C15.0572 18.9857 15.2565 18.9667 15.4424 19.0206C15.6282 19.0745 15.7864 19.1972 15.8849 19.3637C15.9746 19.5367 15.9935 19.7378 15.9375 19.9245C15.8815 20.1112 15.755 20.2687 15.5849 20.3637L13.0649 21.7637C12.5118 22.0728 11.8885 22.2346 11.2549 22.2337C10.6183 22.2332 9.99219 22.0716 9.43494 21.7637L3.48494 18.4637C2.90593 18.1353 2.42363 17.6602 2.08658 17.0861C1.74953 16.5121 1.56961 15.8594 1.56494 15.1937V8.80371C1.56538 8.13529 1.74494 7.47917 2.08495 6.90369C2.14234 6.80094 2.2093 6.70387 2.28494 6.61371C2.59696 6.16656 3.00751 5.79705 3.48494 5.53369L9.48494 2.22369C10.041 1.92349 10.663 1.7663 11.2949 1.7663C11.9268 1.7663 12.5488 1.92349 13.1049 2.22369L19.1049 5.53369C19.5257 5.76514 19.8936 6.08189 20.1849 6.46368C20.2296 6.50972 20.2698 6.55997 20.3049 6.61371C20.3806 6.70387 20.4475 6.80094 20.5049 6.90369C20.8251 7.48422 20.9807 8.14121 20.9549 8.80371Z" fill="#1F1F1F"/>
<path d="M22.4351 16.4237C22.4351 16.6226 22.3561 16.8134 22.2154 16.954C22.0748 17.0947 21.884 17.1737 21.6851 17.1737H19.9251V18.9237C19.9251 19.1226 19.8461 19.3134 19.7054 19.454C19.5648 19.5947 19.374 19.6737 19.1751 19.6737C18.9762 19.6737 18.7854 19.5947 18.6448 19.454C18.5041 19.3134 18.4251 19.1226 18.4251 18.9237V17.1737H16.7051C16.5062 17.1737 16.3154 17.0947 16.1748 16.954C16.0341 16.8134 15.9551 16.6226 15.9551 16.4237C15.9551 16.2248 16.0341 16.034 16.1748 15.8934C16.3154 15.7527 16.5062 15.6737 16.7051 15.6737H18.4451V13.9237C18.4451 13.7248 18.5241 13.534 18.6648 13.3934C18.8054 13.2527 18.9962 13.1737 19.1951 13.1737C19.394 13.1737 19.5848 13.2527 19.7254 13.3934C19.8661 13.534 19.9451 13.7248 19.9451 13.9237V15.6737H21.7051C21.8997 15.6814 22.0839 15.7635 22.2198 15.903C22.3556 16.0426 22.4327 16.229 22.4351 16.4237Z" fill="#1F1F1F"/>
</svg>
