<svg width="24" height="24" viewBox="0 0 24 24" fill="none" xmlns="http://www.w3.org/2000/svg">
<path d="M19.2518 14.4068C18.4114 15.2458 17.3668 15.8508 16.2212 16.1623C15.0757 16.4737 13.8687 16.4807 12.7197 16.1826C12.3804 16.0863 12.0218 16.0807 11.6797 16.1663C11.3376 16.2519 11.0239 16.4257 10.7698 16.6704L6.4897 20.9636C6.39907 21.0551 6.29124 21.1277 6.17243 21.1772C6.05362 21.2267 5.92619 21.2522 5.79749 21.2522C5.66879 21.2522 5.54135 21.2267 5.42255 21.1772C5.30374 21.1277 5.19591 21.0551 5.10528 20.9636L3.03839 18.8951C2.94701 18.8044 2.87447 18.6965 2.82498 18.5776C2.77548 18.4587 2.75 18.3311 2.75 18.2023C2.75 18.0735 2.77548 17.946 2.82498 17.8271C2.87447 17.7082 2.94701 17.6003 3.03839 17.5096L7.31841 13.2261C7.56905 12.9758 7.74685 12.6619 7.83274 12.3181C7.91862 11.9743 7.90933 11.6136 7.80588 11.2747C7.50385 10.0962 7.52185 8.85836 7.85801 7.68915C8.19417 6.51994 8.83629 5.46182 9.71798 4.6242C10.5997 3.78657 11.689 3.19985 12.8731 2.9247C14.0573 2.64955 15.2934 2.69596 16.4537 3.05912L13.5289 5.98629C12.7782 6.73759 12.4174 8.32802 13.1876 9.08909L14.9035 10.8161C15.664 11.5772 17.2532 11.2259 18.0136 10.4649L20.9385 7.53769C21.3106 8.72766 21.3502 9.99689 21.0529 11.2078C20.7555 12.4186 20.1327 13.525 19.2518 14.4068Z" stroke="#1F1F1F" stroke-width="1.5" stroke-linecap="round" stroke-linejoin="round"/>
</svg>
