<svg width="24" height="24" viewBox="0 0 24 24" fill="none" xmlns="http://www.w3.org/2000/svg">
<path d="M19.6202 2.725H4.39016C3.7633 2.71966 3.15985 2.96289 2.71192 3.40145C2.26399 3.84001 2.00807 4.4382 2.00016 5.06503V7.18502C1.99422 7.69158 2.15006 8.18679 2.44502 8.59866C2.73997 9.01052 3.15867 9.31752 3.64016 9.475V17.335C3.64082 17.8552 3.74555 18.3701 3.9482 18.8493C4.15086 19.3284 4.44732 19.7622 4.82015 20.125C5.5742 20.8677 6.59183 21.2811 7.65015 21.275H16.3602C17.4185 21.2811 18.4361 20.8677 19.1902 20.125C19.563 19.7622 19.8595 19.3284 20.0621 18.8493C20.2648 18.3701 20.3695 17.8552 20.3702 17.335V9.475C20.8417 9.31846 21.2524 9.01831 21.5447 8.6166C21.837 8.2149 21.9963 7.7318 22.0002 7.23501V5.11502C22.0042 4.80089 21.9454 4.48908 21.8274 4.19796C21.7093 3.90684 21.5343 3.64225 21.3126 3.41964C21.091 3.19704 20.8271 3.02092 20.5365 2.90164C20.2458 2.78235 19.9343 2.72231 19.6202 2.725ZM14.8302 15.395L12.8302 17.395C12.7174 17.5051 12.5852 17.5933 12.4402 17.655C12.3413 17.6968 12.2369 17.7237 12.1302 17.735H11.9802H11.8302C11.7309 17.719 11.6336 17.6921 11.5402 17.655C11.3938 17.5958 11.2611 17.5073 11.1502 17.395L9.15015 15.395C9.01767 15.2528 8.94555 15.0648 8.94898 14.8705C8.95241 14.6762 9.03111 14.4908 9.16853 14.3534C9.30594 14.2159 9.49133 14.1372 9.68563 14.1338C9.87993 14.1304 10.068 14.2025 10.2102 14.335L11.2102 15.335V11.975C11.2102 11.7761 11.2892 11.5853 11.4298 11.4447C11.5705 11.304 11.7613 11.225 11.9602 11.225C12.1591 11.225 12.3499 11.304 12.4905 11.4447C12.6312 11.5853 12.7102 11.7761 12.7102 11.975V15.345L13.7102 14.345C13.8523 14.2125 14.0404 14.1404 14.2347 14.1438C14.429 14.1473 14.6144 14.226 14.7518 14.3634C14.8892 14.5008 14.9679 14.6862 14.9713 14.8805C14.9748 15.0748 14.9026 15.2628 14.7702 15.405L14.8302 15.395ZM20.5002 7.18502C20.4989 7.29882 20.475 7.41121 20.43 7.51571C20.3849 7.62022 20.3196 7.71472 20.2377 7.79379C20.1558 7.87285 20.0591 7.93488 19.9531 7.97628C19.8471 8.01769 19.7339 8.03765 19.6202 8.035H4.39016C4.2759 8.03766 4.16223 8.01775 4.05566 7.97647C3.94909 7.93518 3.8517 7.87333 3.76905 7.7944C3.6864 7.71546 3.62011 7.62101 3.57397 7.51644C3.52783 7.41188 3.50276 7.29928 3.50016 7.18502V5.06503C3.50274 4.95121 3.52787 4.83903 3.57414 4.73501C3.6204 4.63099 3.68686 4.53721 3.76965 4.45907C3.85244 4.38093 3.94992 4.31999 4.05644 4.27981C4.16295 4.23963 4.27639 4.221 4.39016 4.225H19.6202C19.7335 4.22099 19.8464 4.2397 19.9524 4.27999C20.0583 4.32029 20.1551 4.38135 20.2371 4.45962C20.3191 4.53789 20.3846 4.63178 20.4298 4.73574C20.475 4.83971 20.4989 4.95168 20.5002 5.06503V7.18502Z" fill="#1F1F1F"/>
</svg>
