<svg width="24" height="24" viewBox="0 0 24 24" fill="none" xmlns="http://www.w3.org/2000/svg">
<path d="M19.25 4.75434C17.5737 3.07705 15.3676 2.03286 13.0078 1.79969C10.6479 1.56652 8.28024 2.15879 6.30812 3.47559C4.33599 4.79239 2.88154 6.75225 2.19239 9.02124C1.50325 11.2902 1.62213 13.7279 2.52882 15.9191C3.4355 18.1103 5.07389 19.9193 7.16481 21.0379C9.25572 22.1565 11.6698 22.5156 13.9957 22.0539C16.3217 21.5921 18.4155 20.3382 19.9206 18.5058C21.4257 16.6733 22.249 14.3756 22.25 12.0043C22.2538 10.6576 21.9906 9.32347 21.4757 8.07904C20.9608 6.83462 20.2043 5.70459 19.25 4.75434ZM18.9199 12.3743C18.8926 12.4406 18.8592 12.5043 18.8199 12.5643L18.6999 12.7043L15.6999 15.7043C15.5153 15.8927 15.2637 16.0006 15 16.0043C14.8014 16.0055 14.6068 15.9475 14.4413 15.8377C14.2757 15.7279 14.1467 15.5712 14.0705 15.3878C13.9944 15.2043 13.9746 15.0024 14.0137 14.8077C14.0527 14.6129 14.1489 14.4342 14.2899 14.2943L15.5799 13.0043H8.40992L9.69996 14.2943C9.88621 14.4817 9.99073 14.7351 9.99073 14.9993C9.99073 15.2635 9.88621 15.517 9.69996 15.7043C9.51533 15.8927 9.26378 16.0006 9.00001 16.0043C8.8677 16.0038 8.73675 15.9769 8.61488 15.9255C8.493 15.874 8.38254 15.7988 8.28993 15.7043L5.28993 12.7043C5.16139 12.576 5.07018 12.4152 5.02613 12.239C4.98209 12.0628 4.98687 11.878 5.03993 11.7043C5.02991 11.6582 5.02991 11.6104 5.03993 11.5643C5.08867 11.4451 5.16006 11.3364 5.25001 11.2443L8.25001 8.24433C8.33966 8.13965 8.44992 8.05466 8.57399 7.99463C8.69805 7.93461 8.83324 7.90089 8.97096 7.89557C9.10868 7.89025 9.24595 7.91341 9.37428 7.96369C9.5026 8.01396 9.61911 8.09023 9.71656 8.18769C9.81402 8.28514 9.89029 8.40171 9.94056 8.53003C9.99084 8.65836 10.0141 8.7957 10.0088 8.93341C10.0034 9.07113 9.9697 9.20626 9.90968 9.33033C9.84965 9.45439 9.7646 9.56471 9.65992 9.65436L8.37001 10.9543H15.5399L14.25 9.65436C14.1453 9.56471 14.0602 9.45439 14.0002 9.33033C13.9402 9.20626 13.9064 9.07113 13.9011 8.93341C13.8958 8.7957 13.9191 8.65836 13.9693 8.53003C14.0196 8.40171 14.0959 8.28514 14.1933 8.18769C14.2908 8.09023 14.4073 8.01396 14.5356 7.96369C14.6639 7.91341 14.8012 7.89025 14.9389 7.89557C15.0767 7.90089 15.2119 7.93461 15.3359 7.99463C15.46 8.05466 15.5702 8.13965 15.6599 8.24433L18.6599 11.2443L18.7899 11.3943C18.8239 11.4523 18.854 11.5124 18.88 11.5743C18.9414 11.6977 18.9766 11.8325 18.9835 11.9701C18.9904 12.1078 18.9687 12.2454 18.9199 12.3743Z" fill="#1F1F1F"/>
</svg>
