<svg width="24" height="24" viewBox="0 0 24 24" fill="none" xmlns="http://www.w3.org/2000/svg">
<path d="M21.25 8.91176V10.4559C21.25 10.7289 21.1417 10.9907 20.949 11.1838C20.7562 11.3768 20.4948 11.4853 20.2222 11.4853L14.0556 13.0294V12.5147C14.0556 12.2417 13.9473 11.9799 13.7545 11.7868C13.5618 11.5938 13.3004 11.4853 13.0278 11.4853H10.9722C10.6996 11.4853 10.4382 11.5938 10.2455 11.7868C10.0527 11.9799 9.94444 12.2417 9.94444 12.5147V13.0294L3.77778 11.4853C3.50519 11.4853 3.24377 11.3768 3.05103 11.1838C2.85828 10.9907 2.75 10.7289 2.75 10.4559V8.91176C2.75 8.22922 3.02071 7.57463 3.50257 7.092C3.98444 6.60937 4.63799 6.33823 5.31944 6.33823H18.6806C19.362 6.33823 20.0156 6.60937 20.4974 7.092C20.9793 7.57463 21.25 8.22922 21.25 8.91176Z" stroke="#1F1F1F" stroke-width="1.5" stroke-linecap="round" stroke-linejoin="round"/>
<path d="M3.77783 11.4853L4.13755 18.7735C4.19334 19.3142 4.44669 19.8151 4.8489 20.1799C5.25112 20.5448 5.7738 20.7478 6.31644 20.75H17.6837C18.2264 20.7478 18.749 20.5448 19.1512 20.1799C19.5535 19.8151 19.8068 19.3142 19.8626 18.7735L20.2223 11.4853" stroke="#1F1F1F" stroke-width="1.5" stroke-linecap="round" stroke-linejoin="round"/>
<path d="M13.0277 11.4853H10.9721C10.4045 11.4853 9.94434 11.9462 9.94434 12.5147V13.5441C9.94434 14.1126 10.4045 14.5735 10.9721 14.5735H13.0277C13.5953 14.5735 14.0555 14.1126 14.0555 13.5441V12.5147C14.0555 11.9462 13.5953 11.4853 13.0277 11.4853Z" stroke="#1F1F1F" stroke-width="1.5" stroke-linecap="round" stroke-linejoin="round"/>
<path d="M15.0831 6.33824V4.27941C15.0831 4.00639 14.9749 3.74456 14.7821 3.55151C14.5894 3.35846 14.3279 3.25 14.0554 3.25H9.94428C9.6717 3.25 9.41028 3.35846 9.21753 3.55151C9.02479 3.74456 8.9165 4.00639 8.9165 4.27941V6.33824" stroke="#1F1F1F" stroke-width="1.5" stroke-linecap="round" stroke-linejoin="round"/>
</svg>
