<svg width="24" height="24" viewBox="0 0 24 24" fill="none" xmlns="http://www.w3.org/2000/svg">
<path d="M19.9217 12.0052V17.2864C19.9189 17.7472 19.7956 18.1993 19.564 18.5977C19.3323 18.9961 19.0005 19.3269 18.6014 19.5573C16.5957 20.7108 14.3132 21.2951 11.9999 21.2473C9.6854 21.2911 7.40284 20.7022 5.39842 19.5441C5.00125 19.3148 4.67063 18.9861 4.43912 18.5902C4.20761 18.1943 4.08319 17.745 4.07812 17.2864V12.0052C6.29776 13.8412 9.12263 14.7828 11.9999 14.6458C14.8772 14.7828 17.7021 13.8412 19.9217 12.0052Z" stroke="#1F1F1F" stroke-width="1.5" stroke-linecap="round" stroke-linejoin="round"/>
<path d="M19.9217 5.4037C17.7021 7.23968 14.8772 8.1813 11.9999 8.0443C9.12263 8.1813 6.29776 7.23968 4.07812 5.4037C6.29776 3.56772 9.12263 2.6261 11.9999 2.7631C14.8772 2.6261 17.7021 3.56772 19.9217 5.4037Z" stroke="#1F1F1F" stroke-width="1.5" stroke-linecap="round" stroke-linejoin="round"/>
<path d="M19.9217 5.40369V12.0052M4.07812 12.0052V5.40369" stroke="#1F1F1F" stroke-width="1.5" stroke-linecap="round" stroke-linejoin="round"/>
</svg>
