<svg width="24" height="24" viewBox="0 0 24 24" fill="none" xmlns="http://www.w3.org/2000/svg">
<path d="M5.23526 17.5887V21.2476C3.79732 20.4707 2.72672 19.1547 2.25879 17.5887H5.23526Z" fill="#1F1F1F"/>
<path d="M21.7411 17.5887C21.2731 19.1547 20.2025 20.4707 18.7646 21.2476V17.5887H21.7411Z" fill="#1F1F1F"/>
<path d="M11.1177 17.5887V22.0005H8.14132C7.74609 22.0034 7.35168 21.9639 6.96484 21.8829V17.5887H11.1177Z" fill="#1F1F1F"/>
<path d="M17.0001 17.5887V21.8829C16.6133 21.9639 16.2189 22.0034 15.8236 22.0005H12.8472V17.5887H17.0001Z" fill="#1F1F1F"/>
<path d="M21.9999 8.17694H12.8823V15.824H21.9999V8.17694Z" fill="#1F1F1F"/>
<path d="M11.1176 8.17694H2V15.824H11.1176V8.17694Z" fill="#1F1F1F"/>
<path d="M5.23526 2.75348V6.41228H2.25879C2.72672 4.84634 3.79732 3.53031 5.23526 2.75348Z" fill="#1F1F1F"/>
<path d="M21.7413 6.41228H18.7295V2.75348C19.4481 3.13452 20.0841 3.65395 20.601 4.28191C21.1179 4.90986 21.5054 5.63389 21.7413 6.41228Z" fill="#1F1F1F"/>
<path d="M11.1177 2.00051V6.41228H6.96484V2.11816C7.35168 2.0371 7.74609 1.99766 8.14132 2.00051H11.1177Z" fill="#1F1F1F"/>
<path d="M17.0001 2.11814V6.41225H12.8472V2.00049H15.7883C16.1954 1.99508 16.6017 2.03454 17.0001 2.11814Z" fill="#1F1F1F"/>
</svg>
