<svg width="24" height="24" viewBox="0 0 24 24" fill="none" xmlns="http://www.w3.org/2000/svg">
<path d="M21.9735 11.3554C21.764 8.93054 20.644 6.67492 18.8388 5.04229C17.0336 3.40967 14.6772 2.52115 12.2435 2.55546H3.83346C3.59314 2.55546 3.35517 2.60279 3.13314 2.69476C2.91112 2.78673 2.70939 2.92153 2.53946 3.09146C2.36952 3.26139 2.23475 3.46312 2.14279 3.68515C2.05082 3.90717 2.00345 4.14513 2.00345 4.38545V7.64546C2.00213 7.88662 2.04848 8.12566 2.13986 8.34884C2.23123 8.57202 2.36585 8.77494 2.53592 8.94593C2.70598 9.11693 2.90815 9.25262 3.13083 9.34521C3.35351 9.4378 3.5923 9.48546 3.83346 9.48546H12.5335C13.201 9.48864 13.8404 9.75448 14.3135 10.2255C14.6632 10.5771 14.9009 11.0243 14.9966 11.5109C15.0924 11.9974 15.0418 12.5014 14.8514 12.9593C14.661 13.4172 14.3392 13.8084 13.9267 14.0835C13.5142 14.3587 13.0294 14.5055 12.5335 14.5055H3.83346C3.34655 14.5103 2.88052 14.7039 2.53347 15.0455C2.19378 15.3929 2.00352 15.8595 2.00345 16.3455V19.6054C2.00352 20.0914 2.19378 20.558 2.53347 20.9055C2.88052 21.247 3.34655 21.4406 3.83346 21.4455H12.5535C14.5021 21.4495 16.4039 20.8484 17.9963 19.7253C19.5888 18.6022 20.7933 17.0124 21.4435 15.1755C21.8851 13.9531 22.0657 12.6518 21.9735 11.3554ZM8.52346 7.98546H3.83346C3.79008 7.98706 3.74693 7.97891 3.70712 7.96161C3.66731 7.9443 3.63189 7.91827 3.60348 7.88545C3.56988 7.85551 3.5434 7.8184 3.52609 7.77685C3.50878 7.73531 3.50104 7.6904 3.50345 7.64546V4.38545C3.50246 4.34306 3.50991 4.30091 3.52536 4.26143C3.54081 4.22194 3.56398 4.18592 3.59347 4.15545C3.62462 4.1234 3.66196 4.09801 3.70321 4.08082C3.74447 4.06363 3.78877 4.05501 3.83346 4.05546H8.52346V7.98546ZM8.52346 19.9855H3.83346C3.74662 19.9837 3.664 19.9478 3.60348 19.8854C3.57043 19.8551 3.54433 19.8179 3.52707 19.7764C3.5098 19.735 3.50174 19.6903 3.50345 19.6455V16.3854C3.50267 16.3296 3.51491 16.2743 3.53921 16.2239C3.56351 16.1736 3.59921 16.1296 3.64346 16.0955C3.70873 16.0342 3.79399 15.9987 3.88345 15.9954H8.57345L8.52346 19.9855Z" fill="#1F1F1F"/>
</svg>
