<svg width="24" height="24" viewBox="0 0 24 24" fill="none" xmlns="http://www.w3.org/2000/svg">
<path d="M3.1958 7.87347H8.19275H15.8071H20.804" stroke="#1F1F1F" stroke-width="1.5" stroke-linecap="round" stroke-linejoin="round"/>
<path d="M15.8071 7.87347V2.87653" stroke="#1F1F1F" stroke-width="1.5" stroke-linecap="round" stroke-linejoin="round"/>
<path d="M8.19287 7.87347V2.87653" stroke="#1F1F1F" stroke-width="1.5" stroke-linecap="round" stroke-linejoin="round"/>
<path d="M10.1396 11.9281V16.8504C10.1399 16.9513 10.1716 17.0502 10.2312 17.1357C10.2908 17.2213 10.3759 17.2902 10.4769 17.3347C10.5779 17.3792 10.6907 17.3974 10.8026 17.3873C10.9145 17.3772 11.021 17.3393 11.1101 17.2777L14.9077 14.6273C14.9829 14.5746 15.0431 14.5067 15.0834 14.4291C15.1236 14.3515 15.1427 14.2664 15.1392 14.1808C15.1357 14.0953 15.1096 14.0117 15.063 13.937C15.0165 13.8623 14.9509 13.7985 14.8715 13.751L11.074 11.4792C10.9833 11.4256 10.8782 11.395 10.7698 11.3906C10.6613 11.3862 10.5536 11.4081 10.4579 11.4541C10.3622 11.5001 10.2821 11.5684 10.2261 11.6518C10.1701 11.7353 10.1402 11.8307 10.1396 11.9281Z" stroke="#1F1F1F" stroke-width="1.5" stroke-linecap="round" stroke-linejoin="round"/>
<path d="M15.25 2.75H8.75C5.43629 2.75 2.75 5.43629 2.75 8.75V15.25C2.75 18.5637 5.43629 21.25 8.75 21.25H15.25C18.5637 21.25 21.25 18.5637 21.25 15.25V8.75C21.25 5.43629 18.5637 2.75 15.25 2.75Z" stroke="#1F1F1F" stroke-width="1.5"/>
</svg>
