<svg width="24" height="24" viewBox="0 0 24 24" fill="none" xmlns="http://www.w3.org/2000/svg">
<path d="M19.2398 4.75847C17.5647 3.08375 15.3608 2.04154 13.0036 1.80934C10.6463 1.57715 8.28147 2.16935 6.31183 3.48506C4.34219 4.80078 2.88955 6.75863 2.20142 9.02513C1.51328 11.2916 1.63218 13.7266 2.53784 15.9153C3.44351 18.104 5.07995 19.911 7.1684 21.0286C9.25684 22.1462 11.6682 22.5052 13.9916 22.0445C16.315 21.5837 18.4068 20.3318 19.9108 18.5018C21.4148 16.6719 22.2378 14.3771 22.2398 12.0085C22.2436 10.6617 21.9805 9.32758 21.4655 8.08316C20.9506 6.83874 20.1941 5.70872 19.2398 4.75847ZM11.9998 19.4385C10.8791 19.4394 9.77275 19.1872 8.76325 18.7006C7.75374 18.214 6.8672 17.5057 6.1698 16.6285C6.06579 16.472 6.02429 16.2822 6.05353 16.0966C6.08277 15.911 6.18061 15.7431 6.3277 15.6262C6.47479 15.5093 6.66042 15.4518 6.84784 15.4652C7.03526 15.4786 7.21081 15.5618 7.33978 15.6985C7.89834 16.3957 8.60556 16.9595 9.40979 17.3485C10.2182 17.7362 11.1032 17.9378 11.9998 17.9385C12.1987 17.9385 12.3895 18.0175 12.5301 18.1581C12.6708 18.2988 12.7498 18.4896 12.7498 18.6885C12.7498 18.8874 12.6708 19.0782 12.5301 19.2188C12.3895 19.3595 12.1987 19.4385 11.9998 19.4385ZM11.9998 15.1285C11.3827 15.1285 10.7795 14.9455 10.2664 14.6027C9.75334 14.2598 9.3534 13.7726 9.11725 13.2025C8.8811 12.6323 8.81931 12.005 8.9397 11.3998C9.06008 10.7946 9.35724 10.2386 9.79358 9.80231C10.2299 9.36597 10.7859 9.06881 11.3911 8.94843C11.9964 8.82804 12.6236 8.88983 13.1937 9.12598C13.7639 9.36212 14.2511 9.76202 14.594 10.2751C14.9368 10.7882 15.1198 11.3914 15.1198 12.0085C15.1198 12.8359 14.7911 13.6295 14.206 14.2146C13.6208 14.7998 12.8273 15.1285 11.9998 15.1285ZM18.6098 10.8285C18.5368 10.8389 18.4628 10.8389 18.3898 10.8285C18.2301 10.8286 18.0746 10.777 17.9467 10.6815C17.8187 10.586 17.7251 10.4516 17.6798 10.2985C17.4074 9.36152 16.9081 8.50624 16.226 7.80849C15.544 7.11074 14.7003 6.59207 13.7698 6.29848C13.5864 6.23382 13.4352 6.10043 13.3482 5.92645C13.2613 5.75248 13.2453 5.55153 13.3037 5.366C13.3621 5.18047 13.4902 5.02488 13.6612 4.93205C13.8321 4.83923 14.0324 4.81643 14.2198 4.86847C15.3832 5.23097 16.4381 5.87702 17.2898 6.74848C18.1404 7.61776 18.7652 8.68208 19.1098 9.84848C19.1521 9.94695 19.1725 10.0534 19.1696 10.1606C19.1668 10.2677 19.1406 10.3729 19.0931 10.469C19.0456 10.565 18.9777 10.6496 18.8942 10.7169C18.8108 10.7841 18.7137 10.8324 18.6098 10.8585V10.8285Z" fill="#1F1F1F"/>
</svg>
