<svg width="24" height="24" viewBox="0 0 24 24" fill="none" xmlns="http://www.w3.org/2000/svg">
<path d="M21.0048 15.6057C20.7828 15.0463 20.4904 14.5176 20.1348 14.0324C19.6812 13.4917 19.3745 12.8427 19.2449 12.1484C19.2449 9.25217 19.2449 8.2701 17.6649 6.37606C17.1413 5.7573 16.494 5.25545 15.7649 4.90291L15.0349 4.55216C14.9945 4.52665 14.9603 4.4924 14.9349 4.45194C14.9276 4.41894 14.9276 4.38472 14.9349 4.35172C14.8288 3.66392 14.4686 3.04116 13.926 2.60685C13.3834 2.17253 12.6976 1.95834 12.0049 2.00672C11.3337 1.97171 10.6736 2.18981 10.1549 2.61804C9.62553 3.03628 9.26934 3.63595 9.15484 4.30162C9.14525 4.34915 9.12471 4.39377 9.09484 4.43191C9.06669 4.46728 9.0329 4.49775 8.99484 4.5221L8.21483 4.90291C7.47856 5.25295 6.82689 5.75897 6.30484 6.38606C4.73484 8.27008 4.73484 9.25217 4.73484 12.1484C4.61842 12.8005 4.33597 13.4115 3.91484 13.9222C3.53603 14.4044 3.22637 14.9373 2.99484 15.5055C2.86039 15.8961 2.81397 16.3116 2.85892 16.7223C2.90388 17.133 3.03909 17.5285 3.25483 17.8806C3.48299 18.1719 3.77953 18.4022 4.11802 18.5508C4.45652 18.6994 4.82645 18.7618 5.19484 18.7324H8.01484C8.05754 19.0007 8.13138 19.263 8.23484 19.5141C8.43413 20.0086 8.72991 20.4584 9.10484 20.8369C9.47974 21.2161 9.92926 21.513 10.4249 21.7088C10.8854 21.8972 11.3774 21.9958 11.8749 21.9994H11.9549C12.4859 22.0087 13.0132 21.9099 13.5049 21.7088C14.0017 21.5154 14.4516 21.2182 14.8249 20.8369C15.2042 20.462 15.5006 20.0113 15.6948 19.5141C15.7956 19.2613 15.8727 18.9996 15.9249 18.7324H18.8648C19.2111 18.731 19.5527 18.6523 19.8648 18.5019C20.216 18.3242 20.5182 18.0626 20.7449 17.7403C20.9708 17.4173 21.1087 17.0408 21.1448 16.648C21.1828 16.2943 21.1347 15.9367 21.0048 15.6057ZM14.5049 12.2686H12.7449V14.0123C12.7449 14.2117 12.6659 14.4029 12.5252 14.5438C12.3846 14.6848 12.1938 14.764 11.9949 14.764C11.7959 14.764 11.6052 14.6848 11.4646 14.5438C11.3238 14.4029 11.2449 14.2117 11.2449 14.0123V12.2686H9.50483C9.30592 12.2686 9.11516 12.1894 8.97451 12.0485C8.83386 11.9075 8.75483 11.7163 8.75483 11.517C8.75483 11.3177 8.83386 11.1265 8.97451 10.9856C9.11516 10.8446 9.30592 10.7654 9.50483 10.7654H11.2449V9.00166C11.2449 8.80232 11.3238 8.61114 11.4646 8.47019C11.6052 8.32923 11.7959 8.25005 11.9949 8.25005C12.1938 8.25005 12.3846 8.32923 12.5252 8.47019C12.6659 8.61114 12.7449 8.80232 12.7449 9.00166V10.7654H14.5049C14.7038 10.7654 14.8946 10.8446 15.0352 10.9856C15.1759 11.1265 15.2549 11.3177 15.2549 11.517C15.2549 11.7163 15.1759 11.9075 15.0352 12.0485C14.8946 12.1894 14.7038 12.2686 14.5049 12.2686Z" fill="#1F1F1F"/>
</svg>
