<svg width="24" height="24" viewBox="0 0 24 24" fill="none" xmlns="http://www.w3.org/2000/svg">
<path d="M22 10.37V15.25C21.9974 17.0394 21.2853 18.7548 20.0201 20.0201C18.7548 21.2854 17.0394 21.9974 15.25 22H8.75C6.9606 21.9974 5.24525 21.2854 3.97995 20.0201C2.71465 18.7548 2.00265 17.0394 2 15.25V8.75C2.00265 6.9606 2.71465 5.24524 3.97995 3.97995C5.24525 2.71465 6.9606 2.00264 8.75 2H13.62C13.8189 2 14.0097 2.07901 14.1503 2.21966C14.291 2.36031 14.37 2.55108 14.37 2.75C14.37 2.94891 14.291 3.13966 14.1503 3.28031C14.0097 3.42097 13.8189 3.5 13.62 3.5H8.75C7.35761 3.5 6.02226 4.05312 5.03769 5.03768C4.05312 6.02225 3.5 7.35761 3.5 8.75V11.25H6C6.36023 11.2482 6.7172 11.318 7.05023 11.4554C7.38326 11.5927 7.68569 11.7948 7.93997 12.05C8.45232 12.5706 8.74272 13.2696 8.75 14C8.75 14.3315 8.88167 14.6495 9.11609 14.8839C9.35051 15.1183 9.66848 15.25 10 15.25H14C14.164 15.2507 14.3265 15.2182 14.4777 15.1546C14.6289 15.0911 14.7657 14.9977 14.88 14.88C15.114 14.6465 15.2469 14.3305 15.25 14C15.2473 13.6381 15.3166 13.2793 15.4539 12.9445C15.5911 12.6096 15.7936 12.3054 16.0495 12.0495C16.3054 11.7936 16.6096 11.5912 16.9445 11.4539C17.2793 11.3167 17.6381 11.2473 18 11.25H20.5V10.37C20.5 10.1711 20.579 9.98031 20.7197 9.83966C20.8603 9.699 21.0511 9.61999 21.25 9.61999C21.4489 9.61999 21.6397 9.699 21.7803 9.83966C21.921 9.98031 22 10.1711 22 10.37Z" fill="#1F1F1F"/>
<path d="M21.2801 5.71999C21.4205 5.86061 21.4994 6.05124 21.4994 6.24999C21.4994 6.44874 21.4205 6.63936 21.2801 6.77998C21.1395 6.92043 20.9489 6.99931 20.7501 6.99931C20.5513 6.99931 20.3607 6.92043 20.2201 6.77998L18.9901 5.55998L17.8301 6.76997C17.7608 6.84009 17.6783 6.89566 17.5873 6.93344C17.4963 6.97122 17.3986 6.99044 17.3001 6.98998C17.2015 6.99101 17.1036 6.97205 17.0126 6.93424C16.9215 6.89642 16.839 6.84055 16.7701 6.76997C16.6296 6.62935 16.5508 6.43873 16.5508 6.23998C16.5508 6.04123 16.6296 5.8506 16.7701 5.70998L17.9801 4.49999L16.7701 3.28998C16.6296 3.14935 16.5508 2.95873 16.5508 2.75998C16.5508 2.56123 16.6296 2.37061 16.7701 2.22998C16.839 2.15922 16.9214 2.10299 17.0125 2.06459C17.1035 2.02619 17.2013 2.00641 17.3001 2.00641C17.3989 2.00641 17.4967 2.02619 17.5877 2.06459C17.6787 2.10299 17.7611 2.15922 17.8301 2.22998L19.0401 3.43997L20.2701 2.21999C20.4123 2.08751 20.6003 2.01537 20.7946 2.0188C20.9889 2.02223 21.1743 2.10095 21.3117 2.23836C21.4491 2.37577 21.5278 2.56116 21.5313 2.75546C21.5347 2.94976 21.4626 3.13781 21.3301 3.27998L20.1101 4.49999L21.2801 5.71999Z" fill="#1F1F1F"/>
</svg>
