<svg width="24" height="24" viewBox="0 0 24 24" fill="none" xmlns="http://www.w3.org/2000/svg">
<path d="M20.9445 5.06881C20.6151 4.60613 20.1505 4.2568 19.6145 4.06881L14.6945 2.42881C12.9567 1.85861 11.0823 1.85861 9.34449 2.42881L4.43445 4.06881C3.90088 4.24566 3.43675 4.58638 3.10816 5.04246C2.77957 5.49854 2.60332 6.04669 2.6045 6.6088V11.8888C2.60752 13.3239 2.97637 14.7345 3.67627 15.9873C4.37618 17.2402 5.38403 18.2939 6.6045 19.0488L10.6045 21.5988C11.032 21.8604 11.5233 21.9989 12.0244 21.9989C12.5256 21.9989 13.0171 21.8604 13.4445 21.5988L17.4445 19.0488C18.6529 18.2844 19.6501 17.2288 20.3445 15.9788C21.0354 14.7265 21.3967 13.3191 21.3944 11.8888V6.6088C21.4065 6.06139 21.2494 5.52359 20.9445 5.06881ZM16.8145 12.2688C16.8145 12.5871 16.6881 12.8923 16.463 13.1173C16.238 13.3424 15.9328 13.4688 15.6145 13.4688H14.1245V14.9688C14.1245 15.2871 13.998 15.5923 13.773 15.8173C13.5479 16.0424 13.2427 16.1688 12.9245 16.1688H11.1245C10.8066 16.1664 10.5019 16.0409 10.2744 15.8188C10.1627 15.7074 10.0742 15.5749 10.0141 15.429C9.95396 15.283 9.92351 15.1266 9.92444 14.9688V13.4388H8.42444C8.10694 13.4343 7.80306 13.3092 7.57447 13.0888C7.35053 12.8625 7.2248 12.5572 7.22449 12.2388V10.4388C7.22526 10.1235 7.35112 9.82138 7.57447 9.59881C7.7991 9.3712 8.10467 9.24177 8.42444 9.23881H9.92444V7.7488C9.92444 7.43054 10.0509 7.12532 10.2759 6.90028C10.501 6.67523 10.8063 6.54881 11.1245 6.54881H12.9245C13.0809 6.54693 13.2361 6.577 13.3805 6.63719C13.525 6.69737 13.6556 6.7864 13.7644 6.89881C13.8776 7.00971 13.9677 7.14192 14.0295 7.28781C14.0912 7.43369 14.1236 7.59037 14.1245 7.7488V9.23881H15.6145C15.7731 9.23861 15.9302 9.27038 16.0762 9.33224C16.2223 9.39409 16.3543 9.48476 16.4645 9.59881C16.5769 9.70765 16.6659 9.83829 16.7261 9.98272C16.7863 10.1272 16.8164 10.2823 16.8145 10.4388V12.2688Z" fill="#1F1F1F"/>
<path d="M15.3146 10.7688V11.9688H13.3746C13.1757 11.9688 12.9849 12.0478 12.8442 12.1885C12.7036 12.3291 12.6246 12.5199 12.6246 12.7188V14.6688H11.4246V12.7188C11.422 12.5207 11.3421 12.3314 11.202 12.1913C11.0619 12.0512 10.8727 11.9714 10.6746 11.9688H8.72461V10.7688H10.6746C10.8735 10.7688 11.0643 10.6898 11.205 10.5491C11.3456 10.4085 11.4246 10.2177 11.4246 10.0188V8.0788H12.6246V10.0188C12.6233 10.1177 12.6417 10.2158 12.679 10.3074C12.7162 10.399 12.7714 10.4822 12.8413 10.5521C12.9112 10.622 12.9943 10.6772 13.0859 10.7144C13.1775 10.7517 13.2758 10.7701 13.3746 10.7688H15.3146Z" fill="#1F1F1F"/>
</svg>
