<svg width="24" height="24" viewBox="0 0 24 24" fill="none" xmlns="http://www.w3.org/2000/svg">
<path d="M21.0034 15.5784C20.7814 15.0201 20.489 14.4925 20.1334 14.0084C19.6797 13.4689 19.3731 12.8212 19.2434 12.1284C19.2434 9.23834 19.2434 8.25837 17.6634 6.36837C17.1398 5.75092 16.4926 5.25015 15.7634 4.89836L15.0334 4.54836C14.993 4.5229 14.9589 4.48873 14.9334 4.44835C14.9088 4.41964 14.8916 4.38528 14.8834 4.34835C14.7773 3.66202 14.4172 3.04059 13.8745 2.6072C13.3319 2.1738 12.6462 1.96008 11.9534 2.00835C11.283 1.98134 10.6255 2.19859 10.1032 2.61977C9.58079 3.04095 9.22909 3.63743 9.11336 4.29836C9.10239 4.35024 9.0783 4.39843 9.04337 4.43834C9.01837 4.47015 8.98788 4.49726 8.95336 4.51836L8.17336 4.89836C7.43709 5.24765 6.78542 5.75259 6.26337 6.37834C4.69337 8.25834 4.69337 9.23834 4.69337 12.1284C4.57695 12.7791 4.29449 13.3888 3.87336 13.8984C3.50534 14.3943 3.2091 14.9397 2.99337 15.5184C2.85892 15.9081 2.8125 16.3227 2.85746 16.7325C2.90242 17.1423 3.03762 17.5371 3.25336 17.8884C3.48152 18.1791 3.77806 18.4088 4.11655 18.5571C4.45505 18.7054 4.82498 18.7677 5.19337 18.7384H8.01337C8.05608 19.0061 8.1299 19.2678 8.23336 19.5184C8.43109 20.0151 8.73089 20.4648 9.11336 20.8383C9.48285 21.2186 9.92954 21.5153 10.4234 21.7084C10.8839 21.8964 11.376 21.9948 11.8734 21.9984H12.0334C12.5376 21.9979 13.0368 21.8994 13.5034 21.7084C14.0002 21.5155 14.4502 21.2189 14.8234 20.8383C15.1972 20.4635 15.4929 20.0183 15.6934 19.5283C15.7943 19.2727 15.8713 19.0082 15.9234 18.7384H18.8634C19.2095 18.7356 19.5509 18.6571 19.8634 18.5084C20.2146 18.331 20.5168 18.07 20.7434 17.7483C20.9694 17.4261 21.1073 17.0503 21.1434 16.6584C21.188 16.2923 21.1398 15.9209 21.0034 15.5784ZM14.8234 12.2884L12.8234 14.2884C12.7118 14.4024 12.5795 14.4941 12.4334 14.5583C12.3338 14.5978 12.2297 14.6247 12.1234 14.6384H11.8034C11.7002 14.6259 11.5992 14.5989 11.5034 14.5583C11.3529 14.4969 11.2167 14.405 11.1034 14.2884L9.10337 12.2884C9.02968 12.2197 8.97058 12.1369 8.92959 12.0449C8.8886 11.9529 8.86655 11.8536 8.86477 11.7529C8.86299 11.6522 8.88152 11.5522 8.91924 11.4588C8.95696 11.3654 9.01311 11.2805 9.08433 11.2093C9.15555 11.1381 9.24037 11.082 9.33376 11.0442C9.42715 11.0065 9.52719 10.988 9.62789 10.9898C9.72859 10.9916 9.8279 11.0136 9.9199 11.0546C10.0119 11.0956 10.0947 11.1547 10.1634 11.2284L11.1634 12.2284V8.84835C11.1634 8.64943 11.2424 8.45866 11.3831 8.31801C11.5237 8.17736 11.7145 8.09835 11.9134 8.09835C12.1123 8.09835 12.3031 8.17736 12.4437 8.31801C12.5844 8.45866 12.6634 8.64943 12.6634 8.84835V12.2284L13.6634 11.2284C13.7321 11.1547 13.8149 11.0956 13.9069 11.0546C13.9989 11.0136 14.0982 10.9916 14.1989 10.9898C14.2996 10.988 14.3996 11.0065 14.493 11.0442C14.5864 11.082 14.6712 11.1381 14.7424 11.2093C14.8137 11.2805 14.8698 11.3654 14.9075 11.4588C14.9453 11.5522 14.9638 11.6522 14.962 11.7529C14.9602 11.8536 14.9382 11.9529 14.8972 12.0449C14.8562 12.1369 14.7971 12.2197 14.7234 12.2884H14.8234Z" fill="#1F1F1F"/>
</svg>
