<svg width="24" height="24" viewBox="0 0 24 24" fill="none" xmlns="http://www.w3.org/2000/svg">
<path d="M21.4881 2.55629C21.3474 2.41584 21.1568 2.33699 20.958 2.33699C20.7593 2.33699 20.5686 2.41584 20.428 2.55629L18.478 4.5063C17.0784 3.30464 15.3735 2.51357 13.5521 2.2206C11.7308 1.92763 9.86388 2.14421 8.15796 2.84633C6.33612 3.60401 4.77924 4.88367 3.68311 6.52431C2.58698 8.16495 2.00068 10.0932 1.99805 12.0663V18.6663C1.99975 19.3049 2.17613 19.9308 2.50806 20.4763C2.4373 20.5453 2.38105 20.6277 2.34265 20.7187C2.30426 20.8097 2.28443 20.9075 2.28443 21.0063C2.28443 21.1051 2.30426 21.2029 2.34265 21.2939C2.38105 21.3849 2.4373 21.4674 2.50806 21.5363C2.57623 21.6079 2.65849 21.6643 2.74976 21.7022C2.84102 21.7401 2.93918 21.7585 3.03797 21.7563C3.13651 21.7568 3.23419 21.7376 3.3252 21.6998C3.41621 21.662 3.49875 21.6064 3.568 21.5363L4.08801 21.0163L8.49805 16.6063L8.58801 16.5163L19.078 6.07631L21.538 3.61629C21.6043 3.54343 21.6557 3.45822 21.6891 3.3655C21.7225 3.27278 21.7373 3.17439 21.7327 3.07595C21.728 2.9775 21.7041 2.88093 21.6621 2.79177C21.6201 2.7026 21.561 2.62258 21.4881 2.55629ZM8.28797 14.6963C8.10321 14.385 7.87039 14.1048 7.59802 13.8663C7.03135 13.3921 6.32803 13.1111 5.59058 13.0643C4.85313 13.0176 4.12009 13.2075 3.49805 13.6063V12.0763C3.49903 10.4637 3.95969 8.88486 4.82617 7.52486C5.69266 6.16486 6.92901 5.08012 8.39014 4.39784C9.85126 3.71557 11.4767 3.46408 13.0757 3.67281C14.6747 3.88153 16.181 4.54183 17.418 5.57631L8.28797 14.6963Z" fill="#1F1F1F"/>
<path d="M21.9983 12.0763V18.6762C22.0031 18.7261 22.0031 18.7764 21.9983 18.8263C21.9233 19.668 21.5356 20.4511 20.9118 21.0212C20.288 21.5913 19.4733 21.9071 18.6283 21.9063C17.7628 21.9078 16.9295 21.5782 16.2992 20.9851C15.6689 20.392 15.2893 19.5803 15.2383 18.7163V16.0763C15.2797 15.1982 15.6595 14.3703 16.2982 13.7663C16.8683 13.2565 17.5901 12.9481 18.3525 12.8885C19.1149 12.8288 19.8758 13.0213 20.5182 13.4363V12.0763C20.5153 10.7292 20.2005 9.40118 19.5982 8.19626C19.5108 8.01965 19.4964 7.81576 19.5582 7.62863C19.62 7.44151 19.7529 7.28617 19.9282 7.19626C20.1056 7.11399 20.3078 7.10232 20.4935 7.16361C20.6792 7.2249 20.8346 7.35456 20.9282 7.52628C21.6326 8.93955 21.999 10.4972 21.9983 12.0763Z" fill="#1F1F1F"/>
</svg>
