<svg width="24" height="24" viewBox="0 0 24 24" fill="none" xmlns="http://www.w3.org/2000/svg">
<path d="M22 10.4116V15.2742C21.9974 17.0572 21.2853 18.7664 20.0201 20.0271C18.7548 21.2879 17.0394 21.9974 15.25 22H8.75C6.9606 21.9974 5.24525 21.2879 3.97995 20.0271C2.71465 18.7664 2.00265 17.0572 2 15.2742V8.79742C2.00265 7.01443 2.71465 5.30522 3.97995 4.04445C5.24525 2.78368 6.9606 2.07423 8.75 2.07159H13.62C13.8189 2.07159 14.0097 2.15032 14.1503 2.29047C14.291 2.43062 14.37 2.62071 14.37 2.81891C14.37 3.01711 14.291 3.20718 14.1503 3.34733C14.0097 3.48748 13.8189 3.56622 13.62 3.56622H8.75C7.35761 3.56622 6.02226 4.11736 5.03769 5.0984C4.05312 6.07944 3.5 7.41002 3.5 8.79742V11.2885H6C6.36023 11.2867 6.7172 11.3563 7.05023 11.4931C7.38326 11.63 7.68569 11.8314 7.93997 12.0856C8.45232 12.6043 8.74272 13.3009 8.75 14.0286C8.75 14.359 8.88167 14.6758 9.11609 14.9094C9.35051 15.1429 9.66848 15.2742 10 15.2742H14C14.164 15.2748 14.3265 15.2425 14.4777 15.1791C14.6289 15.1158 14.7657 15.0227 14.88 14.9055C15.114 14.6729 15.2469 14.358 15.25 14.0286C15.2473 13.6681 15.3166 13.3105 15.4539 12.9769C15.5911 12.6432 15.7936 12.3401 16.0495 12.0851C16.3054 11.8302 16.6096 11.6284 16.9445 11.4917C17.2793 11.3549 17.6381 11.2858 18 11.2885H20.5V10.4116C20.5 10.2134 20.579 10.0234 20.7197 9.88318C20.8603 9.74303 21.0511 9.6643 21.25 9.6643C21.4489 9.6643 21.6397 9.74303 21.7803 9.88318C21.921 10.0234 22 10.2134 22 10.4116Z" fill="#1F1F1F"/>
<path d="M18.8301 6.84446C18.6312 6.84446 18.4404 6.76573 18.2998 6.62558C18.1591 6.48543 18.0801 6.29535 18.0801 6.09715V5.79822C18.0879 5.48663 18.1866 5.18406 18.3642 4.92748C18.5418 4.67089 18.7906 4.47141 19.0801 4.35341C19.1379 4.33233 19.192 4.30205 19.2401 4.26374C19.2789 4.22733 19.3095 4.18319 19.3301 4.1342C19.3396 4.08482 19.3396 4.03412 19.3301 3.98474C19.3448 3.936 19.3448 3.88401 19.3301 3.83527C19.2944 3.77036 19.2428 3.71553 19.1801 3.67585C19.1127 3.62444 19.0338 3.59023 18.9501 3.57621C18.8207 3.53062 18.6795 3.53062 18.5501 3.57621C18.4369 3.64066 18.3462 3.73799 18.2901 3.8552C18.2513 3.9481 18.1941 4.03223 18.1218 4.10256C18.0496 4.17288 17.9639 4.22796 17.8698 4.26447C17.7757 4.30098 17.6752 4.31817 17.5742 4.31502C17.4733 4.31188 17.3741 4.28846 17.2824 4.24616C17.1908 4.20387 17.1087 4.14358 17.041 4.0689C16.9733 3.99422 16.9215 3.90668 16.8886 3.81155C16.8557 3.71642 16.8424 3.61565 16.8495 3.51528C16.8567 3.41491 16.8841 3.31701 16.9301 3.22745C17.12 2.80135 17.4473 2.45066 17.8601 2.23103C18.2735 2.02245 18.7435 1.95255 19.2001 2.03175C19.5076 2.08365 19.7987 2.20649 20.0501 2.39047C20.4094 2.63005 20.6732 2.98748 20.7956 3.40067C20.918 3.81387 20.8913 4.25673 20.7201 4.65234C20.6194 4.89553 20.4657 5.11336 20.2701 5.29005C20.0768 5.46766 19.8487 5.60337 19.6001 5.68861V6.02741C19.6118 6.13328 19.6003 6.24042 19.5664 6.34145C19.5326 6.44248 19.4772 6.535 19.404 6.61264C19.3308 6.69029 19.2416 6.75123 19.1425 6.79125C19.0435 6.83126 18.9369 6.84942 18.8301 6.84446Z" fill="#1F1F1F"/>
<path d="M18.8301 8.54834C18.6312 8.54834 18.4404 8.46959 18.2998 8.32944C18.1591 8.1893 18.0801 7.99922 18.0801 7.80102C18.0801 7.60282 18.1591 7.41274 18.2998 7.27259C18.4404 7.13244 18.6312 7.05371 18.8301 7.05371C19.029 7.05371 19.2198 7.13244 19.3604 7.27259C19.5011 7.41274 19.5801 7.60282 19.5801 7.80102C19.5801 7.99922 19.5011 8.1893 19.3604 8.32944C19.2198 8.46959 19.029 8.54834 18.8301 8.54834Z" fill="#1F1F1F"/>
</svg>
