<svg width="24" height="24" viewBox="0 0 24 24" fill="none" xmlns="http://www.w3.org/2000/svg">
<path d="M15.25 2.75H8.75C5.43629 2.75 2.75 5.43629 2.75 8.75V15.25C2.75 18.5637 5.43629 21.25 8.75 21.25H15.25C18.5637 21.25 21.25 18.5637 21.25 15.25V8.75C21.25 5.43629 18.5637 2.75 15.25 2.75Z" stroke="#1F1F1F" stroke-width="1.5"/>
<path d="M11.7135 6.22882L11.093 8.07604C10.8626 8.77876 10.4703 9.4174 9.94781 9.94037C9.42531 10.4633 8.78725 10.856 8.08516 11.0866L6.21605 11.7076C6.1532 11.7283 6.09848 11.7683 6.05968 11.8219C6.02089 11.8755 6 11.9401 6 12.0063C6 12.0725 6.02089 12.137 6.05968 12.1907C6.09848 12.2443 6.1532 12.2843 6.21605 12.305L8.08516 12.926C8.78035 13.1574 9.41206 13.5478 9.9301 14.0663C10.4482 14.5849 10.8383 15.2171 11.0695 15.913L11.6899 17.7838C11.7106 17.8467 11.7505 17.9014 11.8041 17.9403C11.8577 17.9791 11.9222 18 11.9883 18C12.0545 18 12.1189 17.9791 12.1725 17.9403C12.2261 17.9014 12.2661 17.8467 12.2868 17.7838L12.9307 15.9365C13.1619 15.2407 13.552 14.6084 14.0701 14.0899C14.5881 13.5714 15.2198 13.181 15.915 12.9495L17.7841 12.3286C17.847 12.3079 17.9017 12.2679 17.9405 12.2142C17.9793 12.1606 18.0002 12.0961 18.0002 12.0299C18.0002 11.9637 17.9793 11.8991 17.9405 11.8455C17.9017 11.7919 17.847 11.7518 17.7841 11.7312L15.9386 11.0866C15.2365 10.856 14.5984 10.4633 14.0759 9.94037C13.5534 9.4174 13.1611 8.77876 12.9307 8.07604L12.3103 6.20524C12.2873 6.14302 12.2452 6.08969 12.1901 6.05287C12.1349 6.01605 12.0696 5.99763 12.0033 6.00024C11.9371 6.00286 11.8734 6.02638 11.8213 6.06744C11.7693 6.10849 11.7315 6.16498 11.7135 6.22882Z" stroke="#1F1F1F" stroke-width="1.5" stroke-linecap="round" stroke-linejoin="round"/>
</svg>
