<svg width="24" height="24" viewBox="0 0 24 24" fill="none" xmlns="http://www.w3.org/2000/svg">
<path d="M8.27897 21.2343C8.17851 21.2338 8.0791 21.2139 7.98617 21.1757C6.20578 20.3922 4.69185 19.1076 3.62893 17.4785C2.566 15.8494 2 13.9463 2 12.0011C2 10.056 2.566 8.15281 3.62893 6.52374C4.69185 4.89466 6.20578 3.61005 7.98617 2.82653C8.07461 2.78808 8.16974 2.76742 8.26616 2.76574C8.36258 2.76406 8.45839 2.78138 8.54811 2.81673C8.63784 2.85208 8.71977 2.90474 8.78914 2.97174C8.85851 3.03873 8.91397 3.11874 8.95242 3.20718C8.99088 3.29562 9.01157 3.39076 9.01325 3.48718C9.01493 3.5836 8.9976 3.67942 8.96225 3.76915C8.92691 3.85887 8.87418 3.94074 8.80719 4.01011C8.7402 4.07948 8.6602 4.13498 8.57176 4.17343C7.06324 4.84641 5.78198 5.94197 4.88285 7.32764C3.98372 8.71331 3.50526 10.3298 3.50526 11.9816C3.50526 13.6334 3.98372 15.2499 4.88285 16.6356C5.78198 18.0212 7.06324 19.1168 8.57176 19.7898C8.75149 19.8689 8.89251 20.0161 8.96386 20.1991C9.03522 20.3821 9.0311 20.5859 8.95242 20.7658C8.90094 20.903 8.80899 21.0213 8.6887 21.1049C8.56842 21.1886 8.42549 21.2337 8.27897 21.2343Z" fill="#1F1F1F"/>
<path d="M15.7063 21.2051C15.5349 21.2132 15.3662 21.1599 15.2304 21.0549C15.0947 20.9499 15.0008 20.7999 14.9656 20.632C14.9303 20.464 14.9561 20.289 15.0381 20.1382C15.1202 19.9875 15.2533 19.8709 15.4135 19.8094C16.922 19.1364 18.2033 18.0409 19.1024 16.6552C20.0015 15.2695 20.4801 13.6531 20.4801 12.0013C20.4801 10.3494 20.0015 8.73297 19.1024 7.34729C18.2033 5.96162 16.922 4.86606 15.4135 4.19308C15.3251 4.15463 15.2451 4.09914 15.1781 4.02977C15.1111 3.9604 15.0584 3.87851 15.0231 3.78878C14.9877 3.69906 14.9704 3.60325 14.9721 3.50683C14.9738 3.41041 14.9944 3.31527 15.0328 3.22683C15.0713 3.13839 15.1268 3.05838 15.1962 2.99139C15.2656 2.9244 15.3474 2.87173 15.4372 2.83638C15.5269 2.80104 15.6227 2.78371 15.7191 2.78539C15.8155 2.78707 15.9107 2.80773 15.9992 2.84618C17.783 3.6265 19.3007 4.90994 20.3665 6.53941C21.4322 8.16889 21.9998 10.0737 21.9998 12.0208C21.9998 13.9678 21.4322 15.8727 20.3665 17.5021C19.3007 19.1316 17.783 20.415 15.9992 21.1954C15.903 21.2171 15.8036 21.2204 15.7063 21.2051Z" fill="#1F1F1F"/>
<path d="M18.2343 10.7643C18.2084 10.9795 18.1277 11.1845 18.0001 11.3596L11.6462 19.8998C11.5812 19.9811 11.5057 20.0533 11.4217 20.1146C11.3148 20.181 11.195 20.2242 11.0703 20.2414H10.9239C10.8205 20.2582 10.715 20.2582 10.6116 20.2414C10.4155 20.1528 10.2542 20.0018 10.1528 19.812C10.1475 19.7764 10.1475 19.7402 10.1528 19.7046C10.1086 19.5549 10.1086 19.3956 10.1528 19.2459L10.7677 14.5415H6.86361C6.63982 14.5395 6.42157 14.4719 6.2359 14.347C6.05023 14.2221 5.90538 14.0453 5.81932 13.8387C5.81529 13.8031 5.81529 13.767 5.81932 13.7314C5.77051 13.5326 5.77051 13.325 5.81932 13.1262C5.85728 12.9568 5.93041 12.7971 6.03401 12.6578L12.3587 4.09804C12.4221 4.00327 12.5054 3.92337 12.6027 3.8638C12.6451 3.83526 12.691 3.81229 12.7393 3.79548C12.9389 3.72923 13.1546 3.72923 13.3542 3.79548C13.5488 3.88163 13.7098 4.029 13.8129 4.21516C13.8168 4.2541 13.8168 4.29334 13.8129 4.33229C13.8569 4.47872 13.8569 4.63482 13.8129 4.78125L13.2078 9.49544H17.1119C17.3262 9.49502 17.5362 9.55599 17.717 9.67113C17.9099 9.7996 18.0596 9.98328 18.1465 10.1982C18.2217 10.3768 18.2519 10.5712 18.2343 10.7643Z" fill="#1F1F1F"/>
</svg>
