<svg width="24" height="24" viewBox="0 0 24 24" fill="none" xmlns="http://www.w3.org/2000/svg">
<path d="M19.5431 4.47107C18.4756 3.37243 17.0551 2.68603 15.5319 2.53268C14.0086 2.37933 12.4802 2.76886 11.2155 3.63271C9.95088 4.49656 9.03108 5.77936 8.61802 7.25533C8.20496 8.73131 8.32511 10.3059 8.95734 11.7019L2.5 18.179V21.5H5.86393L5.54636 19.5098L7.51061 19.8395L9.18081 18.179L8.86324 16.1888L10.8393 16.5067L12.3095 15.0347C13.7038 15.6677 15.2764 15.788 16.7506 15.3744C18.2247 14.9608 19.5059 14.0399 20.3687 12.7737C21.2315 11.5074 21.6205 9.97708 21.4674 8.45195C21.3142 6.92681 20.6286 5.50464 19.5314 4.43574L19.5431 4.47107Z" stroke="#1F1F1F" stroke-width="1.5" stroke-linecap="round" stroke-linejoin="round"/>
<path d="M16.9906 10.2298C16.6751 10.5469 16.2727 10.7631 15.8344 10.8511C15.3961 10.9391 14.9416 10.8948 14.5284 10.7239C14.1153 10.553 13.762 10.2632 13.5135 9.89121C13.265 9.51918 13.1323 9.08167 13.1323 8.63409C13.1323 8.18651 13.265 7.749 13.5135 7.37697C13.762 7.00495 14.1153 6.71514 14.5284 6.54426C14.9416 6.37338 15.3961 6.32912 15.8344 6.41708C16.2727 6.50504 16.6751 6.72126 16.9906 7.03836C17.4093 7.46365 17.6441 8.03687 17.6441 8.63409C17.6441 9.23131 17.4093 9.80453 16.9906 10.2298Z" stroke="#1F1F1F" stroke-width="1.5" stroke-linecap="round" stroke-linejoin="round"/>
</svg>
