<svg width="24" height="24" viewBox="0 0 24 24" fill="none" xmlns="http://www.w3.org/2000/svg">
<path d="M20.0625 20.25V3.75" stroke="#1F1F1F" stroke-width="1.5" stroke-linecap="round" stroke-linejoin="round"/>
<path d="M3.9375 5.41615V18.5798C3.93815 18.8497 4.01429 19.114 4.15731 19.3429C4.30033 19.5718 4.50453 19.7561 4.74683 19.875C4.98912 19.9939 5.25984 20.0426 5.52839 20.0157C5.79693 19.9887 6.05259 19.8872 6.26645 19.7226L15.3797 12.6345C15.5602 12.4936 15.7046 12.3119 15.8012 12.1044C15.8978 11.8968 15.9437 11.6693 15.9353 11.4406C15.9268 11.2118 15.8642 10.9883 15.7525 10.7885C15.6408 10.5886 15.4833 10.4181 15.2929 10.291L6.17966 4.21551C5.9621 4.07223 5.70988 3.99036 5.44965 3.97854C5.18941 3.96672 4.93082 4.0254 4.70117 4.14837C4.47152 4.27135 4.27934 4.45405 4.14492 4.6772C4.0105 4.90035 3.93884 5.15565 3.9375 5.41615Z" stroke="#1F1F1F" stroke-width="1.5" stroke-linecap="round" stroke-linejoin="round"/>
</svg>
