<svg width="24" height="24" viewBox="0 0 24 24" fill="none" xmlns="http://www.w3.org/2000/svg">
<path d="M21.8573 20.4372L16.6272 15.2172C17.9265 13.5586 18.5439 11.4667 18.3532 9.36846C18.1625 7.27023 17.1781 5.32392 15.6011 3.92681C14.0241 2.52971 11.9732 1.78718 9.86731 1.85082C7.76139 1.91447 5.75914 2.77949 4.26935 4.26928C2.77956 5.75907 1.9146 7.76132 1.85095 9.86724C1.78731 11.9732 2.52978 14.024 3.92688 15.601C5.32399 17.178 7.27036 18.1624 9.36859 18.3531C11.4668 18.5438 13.5587 17.9265 15.2173 16.6272L20.4372 21.8572C20.5302 21.9509 20.6408 22.0253 20.7627 22.076C20.8845 22.1268 21.0152 22.1529 21.1473 22.1529C21.2793 22.1529 21.41 22.1268 21.5318 22.076C21.6537 22.0253 21.7643 21.9509 21.8573 21.8572C21.951 21.7642 22.0254 21.6536 22.0761 21.5317C22.1269 21.4099 22.153 21.2792 22.153 21.1472C22.153 21.0151 22.1269 20.8844 22.0761 20.7626C22.0254 20.6407 21.951 20.5302 21.8573 20.4372ZM14.1372 11.1471H11.1372V14.1471C11.1372 14.4124 11.0319 14.6668 10.8443 14.8543C10.6568 15.0418 10.4025 15.1471 10.1372 15.1471C9.87205 15.1471 9.61771 15.0418 9.43018 14.8543C9.24264 14.6668 9.13727 14.4124 9.13727 14.1471V11.1471H6.13727C5.87205 11.1471 5.61771 11.0418 5.43018 10.8543C5.24264 10.6668 5.13727 10.4124 5.13727 10.1471C5.13727 9.88193 5.24264 9.62759 5.43018 9.44006C5.61771 9.25252 5.87205 9.14715 6.13727 9.14715H9.13727V6.14715C9.13727 5.88193 9.24264 5.62759 9.43018 5.44006C9.61771 5.25252 9.87205 5.14715 10.1372 5.14715C10.4025 5.14715 10.6568 5.25252 10.8443 5.44006C11.0319 5.62759 11.1372 5.88193 11.1372 6.14715V9.14715H14.1372C14.4025 9.14715 14.6568 9.25252 14.8443 9.44006C15.0319 9.62759 15.1372 9.88193 15.1372 10.1471C15.1372 10.4124 15.0319 10.6668 14.8443 10.8543C14.6568 11.0418 14.4025 11.1471 14.1372 11.1471Z" fill="#1F1F1F"/>
</svg>
